%TF.GenerationSoftware,KiCad,Pcbnew,9.0.4*%
%TF.CreationDate,2025-12-21T22:50:03+05:30*%
%TF.ProjectId,ESP-32 C3 demo project004,4553502d-3332-4204-9333-2064656d6f20,rev?*%
%TF.SameCoordinates,Original*%
%TF.FileFunction,Legend,Top*%
%TF.FilePolarity,Positive*%
%FSLAX46Y46*%
G04 Gerber Fmt 4.6, Leading zero omitted, Abs format (unit mm)*
G04 Created by KiCad (PCBNEW 9.0.4) date 2025-12-21 22:50:03*
%MOMM*%
%LPD*%
G01*
G04 APERTURE LIST*
%ADD10C,0.240000*%
%ADD11C,0.100000*%
%ADD12C,0.500000*%
%ADD13C,0.280000*%
%ADD14C,0.200000*%
%ADD15C,0.125000*%
%ADD16C,0.120000*%
%ADD17C,0.127000*%
%ADD18C,0.152400*%
%ADD19C,0.203200*%
G04 APERTURE END LIST*
D10*
X191470608Y-52806091D02*
X191642036Y-52863234D01*
X191642036Y-52863234D02*
X191699179Y-52920377D01*
X191699179Y-52920377D02*
X191756322Y-53034662D01*
X191756322Y-53034662D02*
X191756322Y-53206091D01*
X191756322Y-53206091D02*
X191699179Y-53320377D01*
X191699179Y-53320377D02*
X191642036Y-53377520D01*
X191642036Y-53377520D02*
X191527751Y-53434662D01*
X191527751Y-53434662D02*
X191070608Y-53434662D01*
X191070608Y-53434662D02*
X191070608Y-52234662D01*
X191070608Y-52234662D02*
X191470608Y-52234662D01*
X191470608Y-52234662D02*
X191584894Y-52291805D01*
X191584894Y-52291805D02*
X191642036Y-52348948D01*
X191642036Y-52348948D02*
X191699179Y-52463234D01*
X191699179Y-52463234D02*
X191699179Y-52577520D01*
X191699179Y-52577520D02*
X191642036Y-52691805D01*
X191642036Y-52691805D02*
X191584894Y-52748948D01*
X191584894Y-52748948D02*
X191470608Y-52806091D01*
X191470608Y-52806091D02*
X191070608Y-52806091D01*
X192270608Y-53434662D02*
X192270608Y-52234662D01*
X192270608Y-52234662D02*
X192670608Y-53091805D01*
X192670608Y-53091805D02*
X193070608Y-52234662D01*
X193070608Y-52234662D02*
X193070608Y-53434662D01*
X193642037Y-52806091D02*
X194042037Y-52806091D01*
X194213465Y-53434662D02*
X193642037Y-53434662D01*
X193642037Y-53434662D02*
X193642037Y-52234662D01*
X193642037Y-52234662D02*
X194213465Y-52234662D01*
X194670608Y-52348948D02*
X194727751Y-52291805D01*
X194727751Y-52291805D02*
X194842037Y-52234662D01*
X194842037Y-52234662D02*
X195127751Y-52234662D01*
X195127751Y-52234662D02*
X195242037Y-52291805D01*
X195242037Y-52291805D02*
X195299179Y-52348948D01*
X195299179Y-52348948D02*
X195356322Y-52463234D01*
X195356322Y-52463234D02*
X195356322Y-52577520D01*
X195356322Y-52577520D02*
X195299179Y-52748948D01*
X195299179Y-52748948D02*
X194613465Y-53434662D01*
X194613465Y-53434662D02*
X195356322Y-53434662D01*
X196042036Y-52748948D02*
X195927751Y-52691805D01*
X195927751Y-52691805D02*
X195870608Y-52634662D01*
X195870608Y-52634662D02*
X195813465Y-52520377D01*
X195813465Y-52520377D02*
X195813465Y-52463234D01*
X195813465Y-52463234D02*
X195870608Y-52348948D01*
X195870608Y-52348948D02*
X195927751Y-52291805D01*
X195927751Y-52291805D02*
X196042036Y-52234662D01*
X196042036Y-52234662D02*
X196270608Y-52234662D01*
X196270608Y-52234662D02*
X196384894Y-52291805D01*
X196384894Y-52291805D02*
X196442036Y-52348948D01*
X196442036Y-52348948D02*
X196499179Y-52463234D01*
X196499179Y-52463234D02*
X196499179Y-52520377D01*
X196499179Y-52520377D02*
X196442036Y-52634662D01*
X196442036Y-52634662D02*
X196384894Y-52691805D01*
X196384894Y-52691805D02*
X196270608Y-52748948D01*
X196270608Y-52748948D02*
X196042036Y-52748948D01*
X196042036Y-52748948D02*
X195927751Y-52806091D01*
X195927751Y-52806091D02*
X195870608Y-52863234D01*
X195870608Y-52863234D02*
X195813465Y-52977520D01*
X195813465Y-52977520D02*
X195813465Y-53206091D01*
X195813465Y-53206091D02*
X195870608Y-53320377D01*
X195870608Y-53320377D02*
X195927751Y-53377520D01*
X195927751Y-53377520D02*
X196042036Y-53434662D01*
X196042036Y-53434662D02*
X196270608Y-53434662D01*
X196270608Y-53434662D02*
X196384894Y-53377520D01*
X196384894Y-53377520D02*
X196442036Y-53320377D01*
X196442036Y-53320377D02*
X196499179Y-53206091D01*
X196499179Y-53206091D02*
X196499179Y-52977520D01*
X196499179Y-52977520D02*
X196442036Y-52863234D01*
X196442036Y-52863234D02*
X196384894Y-52806091D01*
X196384894Y-52806091D02*
X196270608Y-52748948D01*
X197242036Y-52234662D02*
X197356322Y-52234662D01*
X197356322Y-52234662D02*
X197470608Y-52291805D01*
X197470608Y-52291805D02*
X197527751Y-52348948D01*
X197527751Y-52348948D02*
X197584893Y-52463234D01*
X197584893Y-52463234D02*
X197642036Y-52691805D01*
X197642036Y-52691805D02*
X197642036Y-52977520D01*
X197642036Y-52977520D02*
X197584893Y-53206091D01*
X197584893Y-53206091D02*
X197527751Y-53320377D01*
X197527751Y-53320377D02*
X197470608Y-53377520D01*
X197470608Y-53377520D02*
X197356322Y-53434662D01*
X197356322Y-53434662D02*
X197242036Y-53434662D01*
X197242036Y-53434662D02*
X197127751Y-53377520D01*
X197127751Y-53377520D02*
X197070608Y-53320377D01*
X197070608Y-53320377D02*
X197013465Y-53206091D01*
X197013465Y-53206091D02*
X196956322Y-52977520D01*
X196956322Y-52977520D02*
X196956322Y-52691805D01*
X196956322Y-52691805D02*
X197013465Y-52463234D01*
X197013465Y-52463234D02*
X197070608Y-52348948D01*
X197070608Y-52348948D02*
X197127751Y-52291805D01*
X197127751Y-52291805D02*
X197242036Y-52234662D01*
D11*
X185928000Y-43815000D02*
X198120000Y-43815000D01*
X185928000Y-53975000D02*
X185928000Y-43815000D01*
X198120000Y-53975000D02*
X185928000Y-53975000D01*
X198120000Y-43815000D02*
X198120000Y-53975000D01*
D12*
X178795613Y-83191333D02*
X178795613Y-85458000D01*
X178795613Y-85458000D02*
X178928947Y-85724666D01*
X178928947Y-85724666D02*
X179062280Y-85858000D01*
X179062280Y-85858000D02*
X179328947Y-85991333D01*
X179328947Y-85991333D02*
X179862280Y-85991333D01*
X179862280Y-85991333D02*
X180128947Y-85858000D01*
X180128947Y-85858000D02*
X180262280Y-85724666D01*
X180262280Y-85724666D02*
X180395613Y-85458000D01*
X180395613Y-85458000D02*
X180395613Y-83191333D01*
X181595613Y-85858000D02*
X181995613Y-85991333D01*
X181995613Y-85991333D02*
X182662280Y-85991333D01*
X182662280Y-85991333D02*
X182928946Y-85858000D01*
X182928946Y-85858000D02*
X183062280Y-85724666D01*
X183062280Y-85724666D02*
X183195613Y-85458000D01*
X183195613Y-85458000D02*
X183195613Y-85191333D01*
X183195613Y-85191333D02*
X183062280Y-84924666D01*
X183062280Y-84924666D02*
X182928946Y-84791333D01*
X182928946Y-84791333D02*
X182662280Y-84658000D01*
X182662280Y-84658000D02*
X182128946Y-84524666D01*
X182128946Y-84524666D02*
X181862280Y-84391333D01*
X181862280Y-84391333D02*
X181728946Y-84258000D01*
X181728946Y-84258000D02*
X181595613Y-83991333D01*
X181595613Y-83991333D02*
X181595613Y-83724666D01*
X181595613Y-83724666D02*
X181728946Y-83458000D01*
X181728946Y-83458000D02*
X181862280Y-83324666D01*
X181862280Y-83324666D02*
X182128946Y-83191333D01*
X182128946Y-83191333D02*
X182795613Y-83191333D01*
X182795613Y-83191333D02*
X183195613Y-83324666D01*
X185328947Y-84524666D02*
X185728947Y-84658000D01*
X185728947Y-84658000D02*
X185862280Y-84791333D01*
X185862280Y-84791333D02*
X185995613Y-85058000D01*
X185995613Y-85058000D02*
X185995613Y-85458000D01*
X185995613Y-85458000D02*
X185862280Y-85724666D01*
X185862280Y-85724666D02*
X185728947Y-85858000D01*
X185728947Y-85858000D02*
X185462280Y-85991333D01*
X185462280Y-85991333D02*
X184395613Y-85991333D01*
X184395613Y-85991333D02*
X184395613Y-83191333D01*
X184395613Y-83191333D02*
X185328947Y-83191333D01*
X185328947Y-83191333D02*
X185595613Y-83324666D01*
X185595613Y-83324666D02*
X185728947Y-83458000D01*
X185728947Y-83458000D02*
X185862280Y-83724666D01*
X185862280Y-83724666D02*
X185862280Y-83991333D01*
X185862280Y-83991333D02*
X185728947Y-84258000D01*
X185728947Y-84258000D02*
X185595613Y-84391333D01*
X185595613Y-84391333D02*
X185328947Y-84524666D01*
X185328947Y-84524666D02*
X184395613Y-84524666D01*
D11*
X195262500Y-84074000D02*
X195262500Y-68580000D01*
D13*
X143705106Y-72253456D02*
X142305106Y-72253456D01*
X142305106Y-72253456D02*
X142305106Y-71720123D01*
X142305106Y-71720123D02*
X142371773Y-71586790D01*
X142371773Y-71586790D02*
X142438440Y-71520123D01*
X142438440Y-71520123D02*
X142571773Y-71453456D01*
X142571773Y-71453456D02*
X142771773Y-71453456D01*
X142771773Y-71453456D02*
X142905106Y-71520123D01*
X142905106Y-71520123D02*
X142971773Y-71586790D01*
X142971773Y-71586790D02*
X143038440Y-71720123D01*
X143038440Y-71720123D02*
X143038440Y-72253456D01*
X142305106Y-70986790D02*
X143705106Y-70653456D01*
X143705106Y-70653456D02*
X142705106Y-70386790D01*
X142705106Y-70386790D02*
X143705106Y-70120123D01*
X143705106Y-70120123D02*
X142305106Y-69786790D01*
X143705106Y-68453456D02*
X143038440Y-68920123D01*
X143705106Y-69253456D02*
X142305106Y-69253456D01*
X142305106Y-69253456D02*
X142305106Y-68720123D01*
X142305106Y-68720123D02*
X142371773Y-68586790D01*
X142371773Y-68586790D02*
X142438440Y-68520123D01*
X142438440Y-68520123D02*
X142571773Y-68453456D01*
X142571773Y-68453456D02*
X142771773Y-68453456D01*
X142771773Y-68453456D02*
X142905106Y-68520123D01*
X142905106Y-68520123D02*
X142971773Y-68586790D01*
X142971773Y-68586790D02*
X143038440Y-68720123D01*
X143038440Y-68720123D02*
X143038440Y-69253456D01*
D11*
X160909000Y-71981000D02*
X160909000Y-63309500D01*
X162306000Y-71981000D02*
X160909000Y-71981000D01*
X162306000Y-83185000D02*
X162306000Y-71981000D01*
X141732000Y-60579000D02*
X141732000Y-74803000D01*
X146050000Y-60579000D02*
X141859000Y-60579000D01*
D14*
X162158149Y-62650600D02*
X162329578Y-62707742D01*
X162329578Y-62707742D02*
X162615292Y-62707742D01*
X162615292Y-62707742D02*
X162729578Y-62650600D01*
X162729578Y-62650600D02*
X162786720Y-62593457D01*
X162786720Y-62593457D02*
X162843863Y-62479171D01*
X162843863Y-62479171D02*
X162843863Y-62364885D01*
X162843863Y-62364885D02*
X162786720Y-62250600D01*
X162786720Y-62250600D02*
X162729578Y-62193457D01*
X162729578Y-62193457D02*
X162615292Y-62136314D01*
X162615292Y-62136314D02*
X162386720Y-62079171D01*
X162386720Y-62079171D02*
X162272435Y-62022028D01*
X162272435Y-62022028D02*
X162215292Y-61964885D01*
X162215292Y-61964885D02*
X162158149Y-61850600D01*
X162158149Y-61850600D02*
X162158149Y-61736314D01*
X162158149Y-61736314D02*
X162215292Y-61622028D01*
X162215292Y-61622028D02*
X162272435Y-61564885D01*
X162272435Y-61564885D02*
X162386720Y-61507742D01*
X162386720Y-61507742D02*
X162672435Y-61507742D01*
X162672435Y-61507742D02*
X162843863Y-61564885D01*
X163586720Y-61507742D02*
X163815292Y-61507742D01*
X163815292Y-61507742D02*
X163929577Y-61564885D01*
X163929577Y-61564885D02*
X164043863Y-61679171D01*
X164043863Y-61679171D02*
X164101006Y-61907742D01*
X164101006Y-61907742D02*
X164101006Y-62307742D01*
X164101006Y-62307742D02*
X164043863Y-62536314D01*
X164043863Y-62536314D02*
X163929577Y-62650600D01*
X163929577Y-62650600D02*
X163815292Y-62707742D01*
X163815292Y-62707742D02*
X163586720Y-62707742D01*
X163586720Y-62707742D02*
X163472435Y-62650600D01*
X163472435Y-62650600D02*
X163358149Y-62536314D01*
X163358149Y-62536314D02*
X163301006Y-62307742D01*
X163301006Y-62307742D02*
X163301006Y-61907742D01*
X163301006Y-61907742D02*
X163358149Y-61679171D01*
X163358149Y-61679171D02*
X163472435Y-61564885D01*
X163472435Y-61564885D02*
X163586720Y-61507742D01*
X164615292Y-61507742D02*
X164615292Y-62479171D01*
X164615292Y-62479171D02*
X164672435Y-62593457D01*
X164672435Y-62593457D02*
X164729578Y-62650600D01*
X164729578Y-62650600D02*
X164843863Y-62707742D01*
X164843863Y-62707742D02*
X165072435Y-62707742D01*
X165072435Y-62707742D02*
X165186720Y-62650600D01*
X165186720Y-62650600D02*
X165243863Y-62593457D01*
X165243863Y-62593457D02*
X165301006Y-62479171D01*
X165301006Y-62479171D02*
X165301006Y-61507742D01*
X165872435Y-62707742D02*
X165872435Y-61507742D01*
X165872435Y-61507742D02*
X166558149Y-62707742D01*
X166558149Y-62707742D02*
X166558149Y-61507742D01*
X167129578Y-62707742D02*
X167129578Y-61507742D01*
X167129578Y-61507742D02*
X167415292Y-61507742D01*
X167415292Y-61507742D02*
X167586721Y-61564885D01*
X167586721Y-61564885D02*
X167701006Y-61679171D01*
X167701006Y-61679171D02*
X167758149Y-61793457D01*
X167758149Y-61793457D02*
X167815292Y-62022028D01*
X167815292Y-62022028D02*
X167815292Y-62193457D01*
X167815292Y-62193457D02*
X167758149Y-62422028D01*
X167758149Y-62422028D02*
X167701006Y-62536314D01*
X167701006Y-62536314D02*
X167586721Y-62650600D01*
X167586721Y-62650600D02*
X167415292Y-62707742D01*
X167415292Y-62707742D02*
X167129578Y-62707742D01*
D11*
X176911000Y-49403000D02*
X176911000Y-57277000D01*
X146050000Y-49403000D02*
X176911000Y-49403000D01*
X146050000Y-60579000D02*
X146050000Y-49403000D01*
X160147000Y-60579000D02*
X146050000Y-60579000D01*
X160147000Y-63309500D02*
X160147000Y-60579000D01*
X174117000Y-63309500D02*
X160147000Y-63309500D01*
D14*
X180106363Y-66415219D02*
X179630173Y-66415219D01*
X179630173Y-66415219D02*
X179630173Y-65415219D01*
X180439697Y-66415219D02*
X180439697Y-65415219D01*
X181439696Y-65462838D02*
X181344458Y-65415219D01*
X181344458Y-65415219D02*
X181201601Y-65415219D01*
X181201601Y-65415219D02*
X181058744Y-65462838D01*
X181058744Y-65462838D02*
X180963506Y-65558076D01*
X180963506Y-65558076D02*
X180915887Y-65653314D01*
X180915887Y-65653314D02*
X180868268Y-65843790D01*
X180868268Y-65843790D02*
X180868268Y-65986647D01*
X180868268Y-65986647D02*
X180915887Y-66177123D01*
X180915887Y-66177123D02*
X180963506Y-66272361D01*
X180963506Y-66272361D02*
X181058744Y-66367600D01*
X181058744Y-66367600D02*
X181201601Y-66415219D01*
X181201601Y-66415219D02*
X181296839Y-66415219D01*
X181296839Y-66415219D02*
X181439696Y-66367600D01*
X181439696Y-66367600D02*
X181487315Y-66319980D01*
X181487315Y-66319980D02*
X181487315Y-65986647D01*
X181487315Y-65986647D02*
X181296839Y-65986647D01*
X181915887Y-66415219D02*
X181915887Y-65415219D01*
X181915887Y-65891409D02*
X182487315Y-65891409D01*
X182487315Y-66415219D02*
X182487315Y-65415219D01*
X182820649Y-65415219D02*
X183392077Y-65415219D01*
X183106363Y-66415219D02*
X183106363Y-65415219D01*
D11*
X174117000Y-60071000D02*
X176911000Y-57277000D01*
X174117000Y-66548000D02*
X174117000Y-60071000D01*
X184404000Y-66548000D02*
X174117000Y-66548000D01*
X184404000Y-57404000D02*
X184404000Y-66548000D01*
X176911000Y-57277000D02*
X184404000Y-57404000D01*
D10*
X186136608Y-55219091D02*
X185736608Y-55219091D01*
X185736608Y-55847662D02*
X185736608Y-54647662D01*
X185736608Y-54647662D02*
X186308036Y-54647662D01*
X187336607Y-55847662D02*
X186765179Y-55847662D01*
X186765179Y-55847662D02*
X186765179Y-54647662D01*
X187679465Y-55504805D02*
X188250894Y-55504805D01*
X187565179Y-55847662D02*
X187965179Y-54647662D01*
X187965179Y-54647662D02*
X188365179Y-55847662D01*
X188708036Y-55790520D02*
X188879465Y-55847662D01*
X188879465Y-55847662D02*
X189165179Y-55847662D01*
X189165179Y-55847662D02*
X189279465Y-55790520D01*
X189279465Y-55790520D02*
X189336607Y-55733377D01*
X189336607Y-55733377D02*
X189393750Y-55619091D01*
X189393750Y-55619091D02*
X189393750Y-55504805D01*
X189393750Y-55504805D02*
X189336607Y-55390520D01*
X189336607Y-55390520D02*
X189279465Y-55333377D01*
X189279465Y-55333377D02*
X189165179Y-55276234D01*
X189165179Y-55276234D02*
X188936607Y-55219091D01*
X188936607Y-55219091D02*
X188822322Y-55161948D01*
X188822322Y-55161948D02*
X188765179Y-55104805D01*
X188765179Y-55104805D02*
X188708036Y-54990520D01*
X188708036Y-54990520D02*
X188708036Y-54876234D01*
X188708036Y-54876234D02*
X188765179Y-54761948D01*
X188765179Y-54761948D02*
X188822322Y-54704805D01*
X188822322Y-54704805D02*
X188936607Y-54647662D01*
X188936607Y-54647662D02*
X189222322Y-54647662D01*
X189222322Y-54647662D02*
X189393750Y-54704805D01*
X189908036Y-55847662D02*
X189908036Y-54647662D01*
X189908036Y-55219091D02*
X190593750Y-55219091D01*
X190593750Y-55847662D02*
X190593750Y-54647662D01*
D11*
X201549000Y-54229000D02*
X184404000Y-54229000D01*
X201549000Y-68580000D02*
X201549000Y-54229000D01*
X184404000Y-68580000D02*
X201549000Y-68580000D01*
X184404000Y-54229000D02*
X184404000Y-68580000D01*
D10*
X186263608Y-99798329D02*
X186435036Y-99845948D01*
X186435036Y-99845948D02*
X186492179Y-99893567D01*
X186492179Y-99893567D02*
X186549322Y-99988805D01*
X186549322Y-99988805D02*
X186549322Y-100131662D01*
X186549322Y-100131662D02*
X186492179Y-100226900D01*
X186492179Y-100226900D02*
X186435036Y-100274520D01*
X186435036Y-100274520D02*
X186320751Y-100322139D01*
X186320751Y-100322139D02*
X185863608Y-100322139D01*
X185863608Y-100322139D02*
X185863608Y-99322139D01*
X185863608Y-99322139D02*
X186263608Y-99322139D01*
X186263608Y-99322139D02*
X186377894Y-99369758D01*
X186377894Y-99369758D02*
X186435036Y-99417377D01*
X186435036Y-99417377D02*
X186492179Y-99512615D01*
X186492179Y-99512615D02*
X186492179Y-99607853D01*
X186492179Y-99607853D02*
X186435036Y-99703091D01*
X186435036Y-99703091D02*
X186377894Y-99750710D01*
X186377894Y-99750710D02*
X186263608Y-99798329D01*
X186263608Y-99798329D02*
X185863608Y-99798329D01*
X187235036Y-100322139D02*
X187120751Y-100274520D01*
X187120751Y-100274520D02*
X187063608Y-100226900D01*
X187063608Y-100226900D02*
X187006465Y-100131662D01*
X187006465Y-100131662D02*
X187006465Y-99845948D01*
X187006465Y-99845948D02*
X187063608Y-99750710D01*
X187063608Y-99750710D02*
X187120751Y-99703091D01*
X187120751Y-99703091D02*
X187235036Y-99655472D01*
X187235036Y-99655472D02*
X187406465Y-99655472D01*
X187406465Y-99655472D02*
X187520751Y-99703091D01*
X187520751Y-99703091D02*
X187577894Y-99750710D01*
X187577894Y-99750710D02*
X187635036Y-99845948D01*
X187635036Y-99845948D02*
X187635036Y-100131662D01*
X187635036Y-100131662D02*
X187577894Y-100226900D01*
X187577894Y-100226900D02*
X187520751Y-100274520D01*
X187520751Y-100274520D02*
X187406465Y-100322139D01*
X187406465Y-100322139D02*
X187235036Y-100322139D01*
X188320750Y-100322139D02*
X188206465Y-100274520D01*
X188206465Y-100274520D02*
X188149322Y-100226900D01*
X188149322Y-100226900D02*
X188092179Y-100131662D01*
X188092179Y-100131662D02*
X188092179Y-99845948D01*
X188092179Y-99845948D02*
X188149322Y-99750710D01*
X188149322Y-99750710D02*
X188206465Y-99703091D01*
X188206465Y-99703091D02*
X188320750Y-99655472D01*
X188320750Y-99655472D02*
X188492179Y-99655472D01*
X188492179Y-99655472D02*
X188606465Y-99703091D01*
X188606465Y-99703091D02*
X188663608Y-99750710D01*
X188663608Y-99750710D02*
X188720750Y-99845948D01*
X188720750Y-99845948D02*
X188720750Y-100131662D01*
X188720750Y-100131662D02*
X188663608Y-100226900D01*
X188663608Y-100226900D02*
X188606465Y-100274520D01*
X188606465Y-100274520D02*
X188492179Y-100322139D01*
X188492179Y-100322139D02*
X188320750Y-100322139D01*
X189063607Y-99655472D02*
X189520750Y-99655472D01*
X189235036Y-99322139D02*
X189235036Y-100179281D01*
X189235036Y-100179281D02*
X189292179Y-100274520D01*
X189292179Y-100274520D02*
X189406464Y-100322139D01*
X189406464Y-100322139D02*
X189520750Y-100322139D01*
X190777893Y-100036424D02*
X191349322Y-100036424D01*
X190663607Y-100322139D02*
X191063607Y-99322139D01*
X191063607Y-99322139D02*
X191463607Y-100322139D01*
X191863607Y-99655472D02*
X191863607Y-100322139D01*
X191863607Y-99750710D02*
X191920750Y-99703091D01*
X191920750Y-99703091D02*
X192035035Y-99655472D01*
X192035035Y-99655472D02*
X192206464Y-99655472D01*
X192206464Y-99655472D02*
X192320750Y-99703091D01*
X192320750Y-99703091D02*
X192377893Y-99798329D01*
X192377893Y-99798329D02*
X192377893Y-100322139D01*
X193463607Y-100322139D02*
X193463607Y-99322139D01*
X193463607Y-100274520D02*
X193349321Y-100322139D01*
X193349321Y-100322139D02*
X193120749Y-100322139D01*
X193120749Y-100322139D02*
X193006464Y-100274520D01*
X193006464Y-100274520D02*
X192949321Y-100226900D01*
X192949321Y-100226900D02*
X192892178Y-100131662D01*
X192892178Y-100131662D02*
X192892178Y-99845948D01*
X192892178Y-99845948D02*
X192949321Y-99750710D01*
X192949321Y-99750710D02*
X193006464Y-99703091D01*
X193006464Y-99703091D02*
X193120749Y-99655472D01*
X193120749Y-99655472D02*
X193349321Y-99655472D01*
X193349321Y-99655472D02*
X193463607Y-99703091D01*
X195635035Y-100322139D02*
X195235035Y-99845948D01*
X194949321Y-100322139D02*
X194949321Y-99322139D01*
X194949321Y-99322139D02*
X195406464Y-99322139D01*
X195406464Y-99322139D02*
X195520749Y-99369758D01*
X195520749Y-99369758D02*
X195577892Y-99417377D01*
X195577892Y-99417377D02*
X195635035Y-99512615D01*
X195635035Y-99512615D02*
X195635035Y-99655472D01*
X195635035Y-99655472D02*
X195577892Y-99750710D01*
X195577892Y-99750710D02*
X195520749Y-99798329D01*
X195520749Y-99798329D02*
X195406464Y-99845948D01*
X195406464Y-99845948D02*
X194949321Y-99845948D01*
X196606464Y-100274520D02*
X196492178Y-100322139D01*
X196492178Y-100322139D02*
X196263607Y-100322139D01*
X196263607Y-100322139D02*
X196149321Y-100274520D01*
X196149321Y-100274520D02*
X196092178Y-100179281D01*
X196092178Y-100179281D02*
X196092178Y-99798329D01*
X196092178Y-99798329D02*
X196149321Y-99703091D01*
X196149321Y-99703091D02*
X196263607Y-99655472D01*
X196263607Y-99655472D02*
X196492178Y-99655472D01*
X196492178Y-99655472D02*
X196606464Y-99703091D01*
X196606464Y-99703091D02*
X196663607Y-99798329D01*
X196663607Y-99798329D02*
X196663607Y-99893567D01*
X196663607Y-99893567D02*
X196092178Y-99988805D01*
X197120749Y-100274520D02*
X197235035Y-100322139D01*
X197235035Y-100322139D02*
X197463606Y-100322139D01*
X197463606Y-100322139D02*
X197577892Y-100274520D01*
X197577892Y-100274520D02*
X197635035Y-100179281D01*
X197635035Y-100179281D02*
X197635035Y-100131662D01*
X197635035Y-100131662D02*
X197577892Y-100036424D01*
X197577892Y-100036424D02*
X197463606Y-99988805D01*
X197463606Y-99988805D02*
X197292178Y-99988805D01*
X197292178Y-99988805D02*
X197177892Y-99941186D01*
X197177892Y-99941186D02*
X197120749Y-99845948D01*
X197120749Y-99845948D02*
X197120749Y-99798329D01*
X197120749Y-99798329D02*
X197177892Y-99703091D01*
X197177892Y-99703091D02*
X197292178Y-99655472D01*
X197292178Y-99655472D02*
X197463606Y-99655472D01*
X197463606Y-99655472D02*
X197577892Y-99703091D01*
X198606464Y-100274520D02*
X198492178Y-100322139D01*
X198492178Y-100322139D02*
X198263607Y-100322139D01*
X198263607Y-100322139D02*
X198149321Y-100274520D01*
X198149321Y-100274520D02*
X198092178Y-100179281D01*
X198092178Y-100179281D02*
X198092178Y-99798329D01*
X198092178Y-99798329D02*
X198149321Y-99703091D01*
X198149321Y-99703091D02*
X198263607Y-99655472D01*
X198263607Y-99655472D02*
X198492178Y-99655472D01*
X198492178Y-99655472D02*
X198606464Y-99703091D01*
X198606464Y-99703091D02*
X198663607Y-99798329D01*
X198663607Y-99798329D02*
X198663607Y-99893567D01*
X198663607Y-99893567D02*
X198092178Y-99988805D01*
X199006463Y-99655472D02*
X199463606Y-99655472D01*
X199177892Y-99322139D02*
X199177892Y-100179281D01*
X199177892Y-100179281D02*
X199235035Y-100274520D01*
X199235035Y-100274520D02*
X199349320Y-100322139D01*
X199349320Y-100322139D02*
X199463606Y-100322139D01*
D11*
X189230000Y-84074000D02*
X183388000Y-89916000D01*
X201295000Y-84074000D02*
X189230000Y-84074000D01*
X201295000Y-100330000D02*
X201295000Y-84074000D01*
X183388000Y-100330000D02*
X201295000Y-100330000D01*
X183388000Y-89916000D02*
X183388000Y-100330000D01*
X180745503Y-46819371D02*
X181116931Y-46819371D01*
X181116931Y-46819371D02*
X180916931Y-47047942D01*
X180916931Y-47047942D02*
X181002646Y-47047942D01*
X181002646Y-47047942D02*
X181059789Y-47076514D01*
X181059789Y-47076514D02*
X181088360Y-47105085D01*
X181088360Y-47105085D02*
X181116931Y-47162228D01*
X181116931Y-47162228D02*
X181116931Y-47305085D01*
X181116931Y-47305085D02*
X181088360Y-47362228D01*
X181088360Y-47362228D02*
X181059789Y-47390800D01*
X181059789Y-47390800D02*
X181002646Y-47419371D01*
X181002646Y-47419371D02*
X180831217Y-47419371D01*
X180831217Y-47419371D02*
X180774074Y-47390800D01*
X180774074Y-47390800D02*
X180745503Y-47362228D01*
X181288360Y-46819371D02*
X181488360Y-47419371D01*
X181488360Y-47419371D02*
X181688360Y-46819371D01*
X181831218Y-46819371D02*
X182202646Y-46819371D01*
X182202646Y-46819371D02*
X182002646Y-47047942D01*
X182002646Y-47047942D02*
X182088361Y-47047942D01*
X182088361Y-47047942D02*
X182145504Y-47076514D01*
X182145504Y-47076514D02*
X182174075Y-47105085D01*
X182174075Y-47105085D02*
X182202646Y-47162228D01*
X182202646Y-47162228D02*
X182202646Y-47305085D01*
X182202646Y-47305085D02*
X182174075Y-47362228D01*
X182174075Y-47362228D02*
X182145504Y-47390800D01*
X182145504Y-47390800D02*
X182088361Y-47419371D01*
X182088361Y-47419371D02*
X181916932Y-47419371D01*
X181916932Y-47419371D02*
X181859789Y-47390800D01*
X181859789Y-47390800D02*
X181831218Y-47362228D01*
X177872122Y-47246800D02*
X177972122Y-47280133D01*
X177972122Y-47280133D02*
X178138789Y-47280133D01*
X178138789Y-47280133D02*
X178205455Y-47246800D01*
X178205455Y-47246800D02*
X178238789Y-47213466D01*
X178238789Y-47213466D02*
X178272122Y-47146800D01*
X178272122Y-47146800D02*
X178272122Y-47080133D01*
X178272122Y-47080133D02*
X178238789Y-47013466D01*
X178238789Y-47013466D02*
X178205455Y-46980133D01*
X178205455Y-46980133D02*
X178138789Y-46946800D01*
X178138789Y-46946800D02*
X178005455Y-46913466D01*
X178005455Y-46913466D02*
X177938789Y-46880133D01*
X177938789Y-46880133D02*
X177905455Y-46846800D01*
X177905455Y-46846800D02*
X177872122Y-46780133D01*
X177872122Y-46780133D02*
X177872122Y-46713466D01*
X177872122Y-46713466D02*
X177905455Y-46646800D01*
X177905455Y-46646800D02*
X177938789Y-46613466D01*
X177938789Y-46613466D02*
X178005455Y-46580133D01*
X178005455Y-46580133D02*
X178172122Y-46580133D01*
X178172122Y-46580133D02*
X178272122Y-46613466D01*
X178572122Y-47280133D02*
X178572122Y-46580133D01*
X178572122Y-46580133D02*
X178738789Y-46580133D01*
X178738789Y-46580133D02*
X178838789Y-46613466D01*
X178838789Y-46613466D02*
X178905456Y-46680133D01*
X178905456Y-46680133D02*
X178938789Y-46746800D01*
X178938789Y-46746800D02*
X178972122Y-46880133D01*
X178972122Y-46880133D02*
X178972122Y-46980133D01*
X178972122Y-46980133D02*
X178938789Y-47113466D01*
X178938789Y-47113466D02*
X178905456Y-47180133D01*
X178905456Y-47180133D02*
X178838789Y-47246800D01*
X178838789Y-47246800D02*
X178738789Y-47280133D01*
X178738789Y-47280133D02*
X178572122Y-47280133D01*
X179238789Y-47080133D02*
X179572122Y-47080133D01*
X179172122Y-47280133D02*
X179405456Y-46580133D01*
X179405456Y-46580133D02*
X179638789Y-47280133D01*
X175332122Y-47246800D02*
X175432122Y-47280133D01*
X175432122Y-47280133D02*
X175598789Y-47280133D01*
X175598789Y-47280133D02*
X175665455Y-47246800D01*
X175665455Y-47246800D02*
X175698789Y-47213466D01*
X175698789Y-47213466D02*
X175732122Y-47146800D01*
X175732122Y-47146800D02*
X175732122Y-47080133D01*
X175732122Y-47080133D02*
X175698789Y-47013466D01*
X175698789Y-47013466D02*
X175665455Y-46980133D01*
X175665455Y-46980133D02*
X175598789Y-46946800D01*
X175598789Y-46946800D02*
X175465455Y-46913466D01*
X175465455Y-46913466D02*
X175398789Y-46880133D01*
X175398789Y-46880133D02*
X175365455Y-46846800D01*
X175365455Y-46846800D02*
X175332122Y-46780133D01*
X175332122Y-46780133D02*
X175332122Y-46713466D01*
X175332122Y-46713466D02*
X175365455Y-46646800D01*
X175365455Y-46646800D02*
X175398789Y-46613466D01*
X175398789Y-46613466D02*
X175465455Y-46580133D01*
X175465455Y-46580133D02*
X175632122Y-46580133D01*
X175632122Y-46580133D02*
X175732122Y-46613466D01*
X176432122Y-47213466D02*
X176398789Y-47246800D01*
X176398789Y-47246800D02*
X176298789Y-47280133D01*
X176298789Y-47280133D02*
X176232122Y-47280133D01*
X176232122Y-47280133D02*
X176132122Y-47246800D01*
X176132122Y-47246800D02*
X176065456Y-47180133D01*
X176065456Y-47180133D02*
X176032122Y-47113466D01*
X176032122Y-47113466D02*
X175998789Y-46980133D01*
X175998789Y-46980133D02*
X175998789Y-46880133D01*
X175998789Y-46880133D02*
X176032122Y-46746800D01*
X176032122Y-46746800D02*
X176065456Y-46680133D01*
X176065456Y-46680133D02*
X176132122Y-46613466D01*
X176132122Y-46613466D02*
X176232122Y-46580133D01*
X176232122Y-46580133D02*
X176298789Y-46580133D01*
X176298789Y-46580133D02*
X176398789Y-46613466D01*
X176398789Y-46613466D02*
X176432122Y-46646800D01*
X177065456Y-47280133D02*
X176732122Y-47280133D01*
X176732122Y-47280133D02*
X176732122Y-46580133D01*
X173014312Y-46632990D02*
X172938122Y-46594895D01*
X172938122Y-46594895D02*
X172823836Y-46594895D01*
X172823836Y-46594895D02*
X172709550Y-46632990D01*
X172709550Y-46632990D02*
X172633360Y-46709180D01*
X172633360Y-46709180D02*
X172595265Y-46785371D01*
X172595265Y-46785371D02*
X172557169Y-46937752D01*
X172557169Y-46937752D02*
X172557169Y-47052038D01*
X172557169Y-47052038D02*
X172595265Y-47204419D01*
X172595265Y-47204419D02*
X172633360Y-47280609D01*
X172633360Y-47280609D02*
X172709550Y-47356800D01*
X172709550Y-47356800D02*
X172823836Y-47394895D01*
X172823836Y-47394895D02*
X172900027Y-47394895D01*
X172900027Y-47394895D02*
X173014312Y-47356800D01*
X173014312Y-47356800D02*
X173052408Y-47318704D01*
X173052408Y-47318704D02*
X173052408Y-47052038D01*
X173052408Y-47052038D02*
X172900027Y-47052038D01*
X173395265Y-47394895D02*
X173395265Y-46594895D01*
X173395265Y-46594895D02*
X173852408Y-47394895D01*
X173852408Y-47394895D02*
X173852408Y-46594895D01*
X174233360Y-47394895D02*
X174233360Y-46594895D01*
X174233360Y-46594895D02*
X174423836Y-46594895D01*
X174423836Y-46594895D02*
X174538122Y-46632990D01*
X174538122Y-46632990D02*
X174614312Y-46709180D01*
X174614312Y-46709180D02*
X174652407Y-46785371D01*
X174652407Y-46785371D02*
X174690503Y-46937752D01*
X174690503Y-46937752D02*
X174690503Y-47052038D01*
X174690503Y-47052038D02*
X174652407Y-47204419D01*
X174652407Y-47204419D02*
X174614312Y-47280609D01*
X174614312Y-47280609D02*
X174538122Y-47356800D01*
X174538122Y-47356800D02*
X174423836Y-47394895D01*
X174423836Y-47394895D02*
X174233360Y-47394895D01*
X161216074Y-46340895D02*
X161711312Y-46340895D01*
X161711312Y-46340895D02*
X161444646Y-46645657D01*
X161444646Y-46645657D02*
X161558931Y-46645657D01*
X161558931Y-46645657D02*
X161635122Y-46683752D01*
X161635122Y-46683752D02*
X161673217Y-46721847D01*
X161673217Y-46721847D02*
X161711312Y-46798038D01*
X161711312Y-46798038D02*
X161711312Y-46988514D01*
X161711312Y-46988514D02*
X161673217Y-47064704D01*
X161673217Y-47064704D02*
X161635122Y-47102800D01*
X161635122Y-47102800D02*
X161558931Y-47140895D01*
X161558931Y-47140895D02*
X161330360Y-47140895D01*
X161330360Y-47140895D02*
X161254169Y-47102800D01*
X161254169Y-47102800D02*
X161216074Y-47064704D01*
X161939884Y-46340895D02*
X162206551Y-47140895D01*
X162206551Y-47140895D02*
X162473217Y-46340895D01*
X162663693Y-46340895D02*
X163158931Y-46340895D01*
X163158931Y-46340895D02*
X162892265Y-46645657D01*
X162892265Y-46645657D02*
X163006550Y-46645657D01*
X163006550Y-46645657D02*
X163082741Y-46683752D01*
X163082741Y-46683752D02*
X163120836Y-46721847D01*
X163120836Y-46721847D02*
X163158931Y-46798038D01*
X163158931Y-46798038D02*
X163158931Y-46988514D01*
X163158931Y-46988514D02*
X163120836Y-47064704D01*
X163120836Y-47064704D02*
X163082741Y-47102800D01*
X163082741Y-47102800D02*
X163006550Y-47140895D01*
X163006550Y-47140895D02*
X162777979Y-47140895D01*
X162777979Y-47140895D02*
X162701788Y-47102800D01*
X162701788Y-47102800D02*
X162663693Y-47064704D01*
X159031646Y-46340895D02*
X159107836Y-46340895D01*
X159107836Y-46340895D02*
X159184027Y-46378990D01*
X159184027Y-46378990D02*
X159222122Y-46417085D01*
X159222122Y-46417085D02*
X159260217Y-46493276D01*
X159260217Y-46493276D02*
X159298312Y-46645657D01*
X159298312Y-46645657D02*
X159298312Y-46836133D01*
X159298312Y-46836133D02*
X159260217Y-46988514D01*
X159260217Y-46988514D02*
X159222122Y-47064704D01*
X159222122Y-47064704D02*
X159184027Y-47102800D01*
X159184027Y-47102800D02*
X159107836Y-47140895D01*
X159107836Y-47140895D02*
X159031646Y-47140895D01*
X159031646Y-47140895D02*
X158955455Y-47102800D01*
X158955455Y-47102800D02*
X158917360Y-47064704D01*
X158917360Y-47064704D02*
X158879265Y-46988514D01*
X158879265Y-46988514D02*
X158841169Y-46836133D01*
X158841169Y-46836133D02*
X158841169Y-46645657D01*
X158841169Y-46645657D02*
X158879265Y-46493276D01*
X158879265Y-46493276D02*
X158917360Y-46417085D01*
X158917360Y-46417085D02*
X158955455Y-46378990D01*
X158955455Y-46378990D02*
X159031646Y-46340895D01*
X159755455Y-46683752D02*
X159679265Y-46645657D01*
X159679265Y-46645657D02*
X159641170Y-46607561D01*
X159641170Y-46607561D02*
X159603074Y-46531371D01*
X159603074Y-46531371D02*
X159603074Y-46493276D01*
X159603074Y-46493276D02*
X159641170Y-46417085D01*
X159641170Y-46417085D02*
X159679265Y-46378990D01*
X159679265Y-46378990D02*
X159755455Y-46340895D01*
X159755455Y-46340895D02*
X159907836Y-46340895D01*
X159907836Y-46340895D02*
X159984027Y-46378990D01*
X159984027Y-46378990D02*
X160022122Y-46417085D01*
X160022122Y-46417085D02*
X160060217Y-46493276D01*
X160060217Y-46493276D02*
X160060217Y-46531371D01*
X160060217Y-46531371D02*
X160022122Y-46607561D01*
X160022122Y-46607561D02*
X159984027Y-46645657D01*
X159984027Y-46645657D02*
X159907836Y-46683752D01*
X159907836Y-46683752D02*
X159755455Y-46683752D01*
X159755455Y-46683752D02*
X159679265Y-46721847D01*
X159679265Y-46721847D02*
X159641170Y-46759942D01*
X159641170Y-46759942D02*
X159603074Y-46836133D01*
X159603074Y-46836133D02*
X159603074Y-46988514D01*
X159603074Y-46988514D02*
X159641170Y-47064704D01*
X159641170Y-47064704D02*
X159679265Y-47102800D01*
X159679265Y-47102800D02*
X159755455Y-47140895D01*
X159755455Y-47140895D02*
X159907836Y-47140895D01*
X159907836Y-47140895D02*
X159984027Y-47102800D01*
X159984027Y-47102800D02*
X160022122Y-47064704D01*
X160022122Y-47064704D02*
X160060217Y-46988514D01*
X160060217Y-46988514D02*
X160060217Y-46836133D01*
X160060217Y-46836133D02*
X160022122Y-46759942D01*
X160022122Y-46759942D02*
X159984027Y-46721847D01*
X159984027Y-46721847D02*
X159907836Y-46683752D01*
X156504312Y-47140895D02*
X156047169Y-47140895D01*
X156275741Y-47140895D02*
X156275741Y-46340895D01*
X156275741Y-46340895D02*
X156199550Y-46455180D01*
X156199550Y-46455180D02*
X156123360Y-46531371D01*
X156123360Y-46531371D02*
X156047169Y-46569466D01*
X156961455Y-46683752D02*
X156885265Y-46645657D01*
X156885265Y-46645657D02*
X156847170Y-46607561D01*
X156847170Y-46607561D02*
X156809074Y-46531371D01*
X156809074Y-46531371D02*
X156809074Y-46493276D01*
X156809074Y-46493276D02*
X156847170Y-46417085D01*
X156847170Y-46417085D02*
X156885265Y-46378990D01*
X156885265Y-46378990D02*
X156961455Y-46340895D01*
X156961455Y-46340895D02*
X157113836Y-46340895D01*
X157113836Y-46340895D02*
X157190027Y-46378990D01*
X157190027Y-46378990D02*
X157228122Y-46417085D01*
X157228122Y-46417085D02*
X157266217Y-46493276D01*
X157266217Y-46493276D02*
X157266217Y-46531371D01*
X157266217Y-46531371D02*
X157228122Y-46607561D01*
X157228122Y-46607561D02*
X157190027Y-46645657D01*
X157190027Y-46645657D02*
X157113836Y-46683752D01*
X157113836Y-46683752D02*
X156961455Y-46683752D01*
X156961455Y-46683752D02*
X156885265Y-46721847D01*
X156885265Y-46721847D02*
X156847170Y-46759942D01*
X156847170Y-46759942D02*
X156809074Y-46836133D01*
X156809074Y-46836133D02*
X156809074Y-46988514D01*
X156809074Y-46988514D02*
X156847170Y-47064704D01*
X156847170Y-47064704D02*
X156885265Y-47102800D01*
X156885265Y-47102800D02*
X156961455Y-47140895D01*
X156961455Y-47140895D02*
X157113836Y-47140895D01*
X157113836Y-47140895D02*
X157190027Y-47102800D01*
X157190027Y-47102800D02*
X157228122Y-47064704D01*
X157228122Y-47064704D02*
X157266217Y-46988514D01*
X157266217Y-46988514D02*
X157266217Y-46836133D01*
X157266217Y-46836133D02*
X157228122Y-46759942D01*
X157228122Y-46759942D02*
X157190027Y-46721847D01*
X157190027Y-46721847D02*
X157113836Y-46683752D01*
X154218312Y-47140895D02*
X153761169Y-47140895D01*
X153989741Y-47140895D02*
X153989741Y-46340895D01*
X153989741Y-46340895D02*
X153913550Y-46455180D01*
X153913550Y-46455180D02*
X153837360Y-46531371D01*
X153837360Y-46531371D02*
X153761169Y-46569466D01*
X154599265Y-47140895D02*
X154751646Y-47140895D01*
X154751646Y-47140895D02*
X154827836Y-47102800D01*
X154827836Y-47102800D02*
X154865932Y-47064704D01*
X154865932Y-47064704D02*
X154942122Y-46950419D01*
X154942122Y-46950419D02*
X154980217Y-46798038D01*
X154980217Y-46798038D02*
X154980217Y-46493276D01*
X154980217Y-46493276D02*
X154942122Y-46417085D01*
X154942122Y-46417085D02*
X154904027Y-46378990D01*
X154904027Y-46378990D02*
X154827836Y-46340895D01*
X154827836Y-46340895D02*
X154675455Y-46340895D01*
X154675455Y-46340895D02*
X154599265Y-46378990D01*
X154599265Y-46378990D02*
X154561170Y-46417085D01*
X154561170Y-46417085D02*
X154523074Y-46493276D01*
X154523074Y-46493276D02*
X154523074Y-46683752D01*
X154523074Y-46683752D02*
X154561170Y-46759942D01*
X154561170Y-46759942D02*
X154599265Y-46798038D01*
X154599265Y-46798038D02*
X154675455Y-46836133D01*
X154675455Y-46836133D02*
X154827836Y-46836133D01*
X154827836Y-46836133D02*
X154904027Y-46798038D01*
X154904027Y-46798038D02*
X154942122Y-46759942D01*
X154942122Y-46759942D02*
X154980217Y-46683752D01*
X150789312Y-46378990D02*
X150713122Y-46340895D01*
X150713122Y-46340895D02*
X150598836Y-46340895D01*
X150598836Y-46340895D02*
X150484550Y-46378990D01*
X150484550Y-46378990D02*
X150408360Y-46455180D01*
X150408360Y-46455180D02*
X150370265Y-46531371D01*
X150370265Y-46531371D02*
X150332169Y-46683752D01*
X150332169Y-46683752D02*
X150332169Y-46798038D01*
X150332169Y-46798038D02*
X150370265Y-46950419D01*
X150370265Y-46950419D02*
X150408360Y-47026609D01*
X150408360Y-47026609D02*
X150484550Y-47102800D01*
X150484550Y-47102800D02*
X150598836Y-47140895D01*
X150598836Y-47140895D02*
X150675027Y-47140895D01*
X150675027Y-47140895D02*
X150789312Y-47102800D01*
X150789312Y-47102800D02*
X150827408Y-47064704D01*
X150827408Y-47064704D02*
X150827408Y-46798038D01*
X150827408Y-46798038D02*
X150675027Y-46798038D01*
X151170265Y-47140895D02*
X151170265Y-46340895D01*
X151170265Y-46340895D02*
X151627408Y-47140895D01*
X151627408Y-47140895D02*
X151627408Y-46340895D01*
X152008360Y-47140895D02*
X152008360Y-46340895D01*
X152008360Y-46340895D02*
X152198836Y-46340895D01*
X152198836Y-46340895D02*
X152313122Y-46378990D01*
X152313122Y-46378990D02*
X152389312Y-46455180D01*
X152389312Y-46455180D02*
X152427407Y-46531371D01*
X152427407Y-46531371D02*
X152465503Y-46683752D01*
X152465503Y-46683752D02*
X152465503Y-46798038D01*
X152465503Y-46798038D02*
X152427407Y-46950419D01*
X152427407Y-46950419D02*
X152389312Y-47026609D01*
X152389312Y-47026609D02*
X152313122Y-47102800D01*
X152313122Y-47102800D02*
X152198836Y-47140895D01*
X152198836Y-47140895D02*
X152008360Y-47140895D01*
X154164312Y-84359180D02*
X154116693Y-84406800D01*
X154116693Y-84406800D02*
X153973836Y-84454419D01*
X153973836Y-84454419D02*
X153878598Y-84454419D01*
X153878598Y-84454419D02*
X153735741Y-84406800D01*
X153735741Y-84406800D02*
X153640503Y-84311561D01*
X153640503Y-84311561D02*
X153592884Y-84216323D01*
X153592884Y-84216323D02*
X153545265Y-84025847D01*
X153545265Y-84025847D02*
X153545265Y-83882990D01*
X153545265Y-83882990D02*
X153592884Y-83692514D01*
X153592884Y-83692514D02*
X153640503Y-83597276D01*
X153640503Y-83597276D02*
X153735741Y-83502038D01*
X153735741Y-83502038D02*
X153878598Y-83454419D01*
X153878598Y-83454419D02*
X153973836Y-83454419D01*
X153973836Y-83454419D02*
X154116693Y-83502038D01*
X154116693Y-83502038D02*
X154164312Y-83549657D01*
X154592884Y-84454419D02*
X154592884Y-83454419D01*
X154592884Y-83930609D02*
X155164312Y-83930609D01*
X155164312Y-84454419D02*
X155164312Y-83454419D01*
X155592884Y-84168704D02*
X156069074Y-84168704D01*
X155497646Y-84454419D02*
X155830979Y-83454419D01*
X155830979Y-83454419D02*
X156164312Y-84454419D01*
X157069074Y-84454419D02*
X156735741Y-83978228D01*
X156497646Y-84454419D02*
X156497646Y-83454419D01*
X156497646Y-83454419D02*
X156878598Y-83454419D01*
X156878598Y-83454419D02*
X156973836Y-83502038D01*
X156973836Y-83502038D02*
X157021455Y-83549657D01*
X157021455Y-83549657D02*
X157069074Y-83644895D01*
X157069074Y-83644895D02*
X157069074Y-83787752D01*
X157069074Y-83787752D02*
X157021455Y-83882990D01*
X157021455Y-83882990D02*
X156973836Y-83930609D01*
X156973836Y-83930609D02*
X156878598Y-83978228D01*
X156878598Y-83978228D02*
X156497646Y-83978228D01*
X158021455Y-83502038D02*
X157926217Y-83454419D01*
X157926217Y-83454419D02*
X157783360Y-83454419D01*
X157783360Y-83454419D02*
X157640503Y-83502038D01*
X157640503Y-83502038D02*
X157545265Y-83597276D01*
X157545265Y-83597276D02*
X157497646Y-83692514D01*
X157497646Y-83692514D02*
X157450027Y-83882990D01*
X157450027Y-83882990D02*
X157450027Y-84025847D01*
X157450027Y-84025847D02*
X157497646Y-84216323D01*
X157497646Y-84216323D02*
X157545265Y-84311561D01*
X157545265Y-84311561D02*
X157640503Y-84406800D01*
X157640503Y-84406800D02*
X157783360Y-84454419D01*
X157783360Y-84454419D02*
X157878598Y-84454419D01*
X157878598Y-84454419D02*
X158021455Y-84406800D01*
X158021455Y-84406800D02*
X158069074Y-84359180D01*
X158069074Y-84359180D02*
X158069074Y-84025847D01*
X158069074Y-84025847D02*
X157878598Y-84025847D01*
X158497646Y-83930609D02*
X158830979Y-83930609D01*
X158973836Y-84454419D02*
X158497646Y-84454419D01*
X158497646Y-84454419D02*
X158497646Y-83454419D01*
X158497646Y-83454419D02*
X158973836Y-83454419D01*
X159973836Y-84454419D02*
X159640503Y-83978228D01*
X159402408Y-84454419D02*
X159402408Y-83454419D01*
X159402408Y-83454419D02*
X159783360Y-83454419D01*
X159783360Y-83454419D02*
X159878598Y-83502038D01*
X159878598Y-83502038D02*
X159926217Y-83549657D01*
X159926217Y-83549657D02*
X159973836Y-83644895D01*
X159973836Y-83644895D02*
X159973836Y-83787752D01*
X159973836Y-83787752D02*
X159926217Y-83882990D01*
X159926217Y-83882990D02*
X159878598Y-83930609D01*
X159878598Y-83930609D02*
X159783360Y-83978228D01*
X159783360Y-83978228D02*
X159402408Y-83978228D01*
X150253990Y-78015449D02*
X150277800Y-78039258D01*
X150277800Y-78039258D02*
X150301609Y-78110687D01*
X150301609Y-78110687D02*
X150301609Y-78158306D01*
X150301609Y-78158306D02*
X150277800Y-78229734D01*
X150277800Y-78229734D02*
X150230180Y-78277353D01*
X150230180Y-78277353D02*
X150182561Y-78301163D01*
X150182561Y-78301163D02*
X150087323Y-78324972D01*
X150087323Y-78324972D02*
X150015895Y-78324972D01*
X150015895Y-78324972D02*
X149920657Y-78301163D01*
X149920657Y-78301163D02*
X149873038Y-78277353D01*
X149873038Y-78277353D02*
X149825419Y-78229734D01*
X149825419Y-78229734D02*
X149801609Y-78158306D01*
X149801609Y-78158306D02*
X149801609Y-78110687D01*
X149801609Y-78110687D02*
X149825419Y-78039258D01*
X149825419Y-78039258D02*
X149849228Y-78015449D01*
X150301609Y-77801163D02*
X149801609Y-77801163D01*
X150301609Y-77586877D02*
X150039704Y-77586877D01*
X150039704Y-77586877D02*
X149992085Y-77610687D01*
X149992085Y-77610687D02*
X149968276Y-77658306D01*
X149968276Y-77658306D02*
X149968276Y-77729734D01*
X149968276Y-77729734D02*
X149992085Y-77777353D01*
X149992085Y-77777353D02*
X150015895Y-77801163D01*
X150301609Y-77134496D02*
X150039704Y-77134496D01*
X150039704Y-77134496D02*
X149992085Y-77158306D01*
X149992085Y-77158306D02*
X149968276Y-77205925D01*
X149968276Y-77205925D02*
X149968276Y-77301163D01*
X149968276Y-77301163D02*
X149992085Y-77348782D01*
X150277800Y-77134496D02*
X150301609Y-77182115D01*
X150301609Y-77182115D02*
X150301609Y-77301163D01*
X150301609Y-77301163D02*
X150277800Y-77348782D01*
X150277800Y-77348782D02*
X150230180Y-77372591D01*
X150230180Y-77372591D02*
X150182561Y-77372591D01*
X150182561Y-77372591D02*
X150134942Y-77348782D01*
X150134942Y-77348782D02*
X150111133Y-77301163D01*
X150111133Y-77301163D02*
X150111133Y-77182115D01*
X150111133Y-77182115D02*
X150087323Y-77134496D01*
X150301609Y-76896401D02*
X149968276Y-76896401D01*
X150063514Y-76896401D02*
X150015895Y-76872591D01*
X150015895Y-76872591D02*
X149992085Y-76848782D01*
X149992085Y-76848782D02*
X149968276Y-76801163D01*
X149968276Y-76801163D02*
X149968276Y-76753544D01*
X149968276Y-76372591D02*
X150373038Y-76372591D01*
X150373038Y-76372591D02*
X150420657Y-76396401D01*
X150420657Y-76396401D02*
X150444466Y-76420210D01*
X150444466Y-76420210D02*
X150468276Y-76467829D01*
X150468276Y-76467829D02*
X150468276Y-76539258D01*
X150468276Y-76539258D02*
X150444466Y-76586877D01*
X150277800Y-76372591D02*
X150301609Y-76420210D01*
X150301609Y-76420210D02*
X150301609Y-76515448D01*
X150301609Y-76515448D02*
X150277800Y-76563067D01*
X150277800Y-76563067D02*
X150253990Y-76586877D01*
X150253990Y-76586877D02*
X150206371Y-76610686D01*
X150206371Y-76610686D02*
X150063514Y-76610686D01*
X150063514Y-76610686D02*
X150015895Y-76586877D01*
X150015895Y-76586877D02*
X149992085Y-76563067D01*
X149992085Y-76563067D02*
X149968276Y-76515448D01*
X149968276Y-76515448D02*
X149968276Y-76420210D01*
X149968276Y-76420210D02*
X149992085Y-76372591D01*
X150301609Y-76134496D02*
X149968276Y-76134496D01*
X149801609Y-76134496D02*
X149825419Y-76158305D01*
X149825419Y-76158305D02*
X149849228Y-76134496D01*
X149849228Y-76134496D02*
X149825419Y-76110686D01*
X149825419Y-76110686D02*
X149801609Y-76134496D01*
X149801609Y-76134496D02*
X149849228Y-76134496D01*
X149968276Y-75896401D02*
X150301609Y-75896401D01*
X150015895Y-75896401D02*
X149992085Y-75872591D01*
X149992085Y-75872591D02*
X149968276Y-75824972D01*
X149968276Y-75824972D02*
X149968276Y-75753544D01*
X149968276Y-75753544D02*
X149992085Y-75705925D01*
X149992085Y-75705925D02*
X150039704Y-75682115D01*
X150039704Y-75682115D02*
X150301609Y-75682115D01*
X149968276Y-75229734D02*
X150373038Y-75229734D01*
X150373038Y-75229734D02*
X150420657Y-75253544D01*
X150420657Y-75253544D02*
X150444466Y-75277353D01*
X150444466Y-75277353D02*
X150468276Y-75324972D01*
X150468276Y-75324972D02*
X150468276Y-75396401D01*
X150468276Y-75396401D02*
X150444466Y-75444020D01*
X150277800Y-75229734D02*
X150301609Y-75277353D01*
X150301609Y-75277353D02*
X150301609Y-75372591D01*
X150301609Y-75372591D02*
X150277800Y-75420210D01*
X150277800Y-75420210D02*
X150253990Y-75444020D01*
X150253990Y-75444020D02*
X150206371Y-75467829D01*
X150206371Y-75467829D02*
X150063514Y-75467829D01*
X150063514Y-75467829D02*
X150015895Y-75444020D01*
X150015895Y-75444020D02*
X149992085Y-75420210D01*
X149992085Y-75420210D02*
X149968276Y-75372591D01*
X149968276Y-75372591D02*
X149968276Y-75277353D01*
X149968276Y-75277353D02*
X149992085Y-75229734D01*
X146951990Y-78015449D02*
X146975800Y-78039258D01*
X146975800Y-78039258D02*
X146999609Y-78110687D01*
X146999609Y-78110687D02*
X146999609Y-78158306D01*
X146999609Y-78158306D02*
X146975800Y-78229734D01*
X146975800Y-78229734D02*
X146928180Y-78277353D01*
X146928180Y-78277353D02*
X146880561Y-78301163D01*
X146880561Y-78301163D02*
X146785323Y-78324972D01*
X146785323Y-78324972D02*
X146713895Y-78324972D01*
X146713895Y-78324972D02*
X146618657Y-78301163D01*
X146618657Y-78301163D02*
X146571038Y-78277353D01*
X146571038Y-78277353D02*
X146523419Y-78229734D01*
X146523419Y-78229734D02*
X146499609Y-78158306D01*
X146499609Y-78158306D02*
X146499609Y-78110687D01*
X146499609Y-78110687D02*
X146523419Y-78039258D01*
X146523419Y-78039258D02*
X146547228Y-78015449D01*
X146999609Y-77801163D02*
X146499609Y-77801163D01*
X146999609Y-77586877D02*
X146737704Y-77586877D01*
X146737704Y-77586877D02*
X146690085Y-77610687D01*
X146690085Y-77610687D02*
X146666276Y-77658306D01*
X146666276Y-77658306D02*
X146666276Y-77729734D01*
X146666276Y-77729734D02*
X146690085Y-77777353D01*
X146690085Y-77777353D02*
X146713895Y-77801163D01*
X146999609Y-77134496D02*
X146737704Y-77134496D01*
X146737704Y-77134496D02*
X146690085Y-77158306D01*
X146690085Y-77158306D02*
X146666276Y-77205925D01*
X146666276Y-77205925D02*
X146666276Y-77301163D01*
X146666276Y-77301163D02*
X146690085Y-77348782D01*
X146975800Y-77134496D02*
X146999609Y-77182115D01*
X146999609Y-77182115D02*
X146999609Y-77301163D01*
X146999609Y-77301163D02*
X146975800Y-77348782D01*
X146975800Y-77348782D02*
X146928180Y-77372591D01*
X146928180Y-77372591D02*
X146880561Y-77372591D01*
X146880561Y-77372591D02*
X146832942Y-77348782D01*
X146832942Y-77348782D02*
X146809133Y-77301163D01*
X146809133Y-77301163D02*
X146809133Y-77182115D01*
X146809133Y-77182115D02*
X146785323Y-77134496D01*
X146999609Y-76896401D02*
X146666276Y-76896401D01*
X146761514Y-76896401D02*
X146713895Y-76872591D01*
X146713895Y-76872591D02*
X146690085Y-76848782D01*
X146690085Y-76848782D02*
X146666276Y-76801163D01*
X146666276Y-76801163D02*
X146666276Y-76753544D01*
X146666276Y-76372591D02*
X147071038Y-76372591D01*
X147071038Y-76372591D02*
X147118657Y-76396401D01*
X147118657Y-76396401D02*
X147142466Y-76420210D01*
X147142466Y-76420210D02*
X147166276Y-76467829D01*
X147166276Y-76467829D02*
X147166276Y-76539258D01*
X147166276Y-76539258D02*
X147142466Y-76586877D01*
X146975800Y-76372591D02*
X146999609Y-76420210D01*
X146999609Y-76420210D02*
X146999609Y-76515448D01*
X146999609Y-76515448D02*
X146975800Y-76563067D01*
X146975800Y-76563067D02*
X146951990Y-76586877D01*
X146951990Y-76586877D02*
X146904371Y-76610686D01*
X146904371Y-76610686D02*
X146761514Y-76610686D01*
X146761514Y-76610686D02*
X146713895Y-76586877D01*
X146713895Y-76586877D02*
X146690085Y-76563067D01*
X146690085Y-76563067D02*
X146666276Y-76515448D01*
X146666276Y-76515448D02*
X146666276Y-76420210D01*
X146666276Y-76420210D02*
X146690085Y-76372591D01*
X146975800Y-75944020D02*
X146999609Y-75991639D01*
X146999609Y-75991639D02*
X146999609Y-76086877D01*
X146999609Y-76086877D02*
X146975800Y-76134496D01*
X146975800Y-76134496D02*
X146928180Y-76158305D01*
X146928180Y-76158305D02*
X146737704Y-76158305D01*
X146737704Y-76158305D02*
X146690085Y-76134496D01*
X146690085Y-76134496D02*
X146666276Y-76086877D01*
X146666276Y-76086877D02*
X146666276Y-75991639D01*
X146666276Y-75991639D02*
X146690085Y-75944020D01*
X146690085Y-75944020D02*
X146737704Y-75920210D01*
X146737704Y-75920210D02*
X146785323Y-75920210D01*
X146785323Y-75920210D02*
X146832942Y-76158305D01*
X146999609Y-75491639D02*
X146499609Y-75491639D01*
X146975800Y-75491639D02*
X146999609Y-75539258D01*
X146999609Y-75539258D02*
X146999609Y-75634496D01*
X146999609Y-75634496D02*
X146975800Y-75682115D01*
X146975800Y-75682115D02*
X146951990Y-75705925D01*
X146951990Y-75705925D02*
X146904371Y-75729734D01*
X146904371Y-75729734D02*
X146761514Y-75729734D01*
X146761514Y-75729734D02*
X146713895Y-75705925D01*
X146713895Y-75705925D02*
X146690085Y-75682115D01*
X146690085Y-75682115D02*
X146666276Y-75634496D01*
X146666276Y-75634496D02*
X146666276Y-75539258D01*
X146666276Y-75539258D02*
X146690085Y-75491639D01*
X143690800Y-78280544D02*
X143709847Y-78318639D01*
X143709847Y-78318639D02*
X143709847Y-78394830D01*
X143709847Y-78394830D02*
X143690800Y-78432925D01*
X143690800Y-78432925D02*
X143671752Y-78451972D01*
X143671752Y-78451972D02*
X143633657Y-78471020D01*
X143633657Y-78471020D02*
X143519371Y-78471020D01*
X143519371Y-78471020D02*
X143481276Y-78451972D01*
X143481276Y-78451972D02*
X143462228Y-78432925D01*
X143462228Y-78432925D02*
X143443180Y-78394830D01*
X143443180Y-78394830D02*
X143443180Y-78318639D01*
X143443180Y-78318639D02*
X143462228Y-78280544D01*
X143709847Y-78109115D02*
X143309847Y-78109115D01*
X143709847Y-77937687D02*
X143500323Y-77937687D01*
X143500323Y-77937687D02*
X143462228Y-77956734D01*
X143462228Y-77956734D02*
X143443180Y-77994830D01*
X143443180Y-77994830D02*
X143443180Y-78051973D01*
X143443180Y-78051973D02*
X143462228Y-78090068D01*
X143462228Y-78090068D02*
X143481276Y-78109115D01*
X143709847Y-77747210D02*
X143443180Y-77747210D01*
X143519371Y-77747210D02*
X143481276Y-77728163D01*
X143481276Y-77728163D02*
X143462228Y-77709115D01*
X143462228Y-77709115D02*
X143443180Y-77671020D01*
X143443180Y-77671020D02*
X143443180Y-77632925D01*
X143709847Y-77194829D02*
X143309847Y-77194829D01*
X143309847Y-77194829D02*
X143309847Y-77042448D01*
X143309847Y-77042448D02*
X143328895Y-77004353D01*
X143328895Y-77004353D02*
X143347942Y-76985306D01*
X143347942Y-76985306D02*
X143386038Y-76966258D01*
X143386038Y-76966258D02*
X143443180Y-76966258D01*
X143443180Y-76966258D02*
X143481276Y-76985306D01*
X143481276Y-76985306D02*
X143500323Y-77004353D01*
X143500323Y-77004353D02*
X143519371Y-77042448D01*
X143519371Y-77042448D02*
X143519371Y-77194829D01*
X143309847Y-76832925D02*
X143709847Y-76737687D01*
X143709847Y-76737687D02*
X143424133Y-76661496D01*
X143424133Y-76661496D02*
X143709847Y-76585306D01*
X143709847Y-76585306D02*
X143309847Y-76490068D01*
X143709847Y-76109115D02*
X143519371Y-76242448D01*
X143709847Y-76337686D02*
X143309847Y-76337686D01*
X143309847Y-76337686D02*
X143309847Y-76185305D01*
X143309847Y-76185305D02*
X143328895Y-76147210D01*
X143328895Y-76147210D02*
X143347942Y-76128163D01*
X143347942Y-76128163D02*
X143386038Y-76109115D01*
X143386038Y-76109115D02*
X143443180Y-76109115D01*
X143443180Y-76109115D02*
X143481276Y-76128163D01*
X143481276Y-76128163D02*
X143500323Y-76147210D01*
X143500323Y-76147210D02*
X143519371Y-76185305D01*
X143519371Y-76185305D02*
X143519371Y-76337686D01*
X143309847Y-75556734D02*
X143309847Y-75480543D01*
X143309847Y-75480543D02*
X143328895Y-75442448D01*
X143328895Y-75442448D02*
X143366990Y-75404353D01*
X143366990Y-75404353D02*
X143443180Y-75385305D01*
X143443180Y-75385305D02*
X143576514Y-75385305D01*
X143576514Y-75385305D02*
X143652704Y-75404353D01*
X143652704Y-75404353D02*
X143690800Y-75442448D01*
X143690800Y-75442448D02*
X143709847Y-75480543D01*
X143709847Y-75480543D02*
X143709847Y-75556734D01*
X143709847Y-75556734D02*
X143690800Y-75594829D01*
X143690800Y-75594829D02*
X143652704Y-75632924D01*
X143652704Y-75632924D02*
X143576514Y-75651972D01*
X143576514Y-75651972D02*
X143443180Y-75651972D01*
X143443180Y-75651972D02*
X143366990Y-75632924D01*
X143366990Y-75632924D02*
X143328895Y-75594829D01*
X143328895Y-75594829D02*
X143309847Y-75556734D01*
X143709847Y-75213876D02*
X143309847Y-75213876D01*
X143709847Y-74985305D02*
X143481276Y-75156734D01*
X143309847Y-74985305D02*
X143538419Y-75213876D01*
X162306000Y-83185000D02*
X162306000Y-84074000D01*
X141732000Y-100330000D02*
X141732000Y-74803000D01*
X162306000Y-100330000D02*
X141732000Y-100330000D01*
X162306000Y-84074000D02*
X162306000Y-100330000D01*
X151765000Y-83185000D02*
X162306000Y-83185000D01*
X151765000Y-74803000D02*
X151765000Y-83185000D01*
X141732000Y-74803000D02*
X151765000Y-74803000D01*
D15*
X171112333Y-86648071D02*
X171112333Y-87076642D01*
X171112333Y-87076642D02*
X171088524Y-87162357D01*
X171088524Y-87162357D02*
X171040905Y-87219500D01*
X171040905Y-87219500D02*
X170969476Y-87248071D01*
X170969476Y-87248071D02*
X170921857Y-87248071D01*
X171612333Y-87248071D02*
X171326619Y-87248071D01*
X171469476Y-87248071D02*
X171469476Y-86648071D01*
X171469476Y-86648071D02*
X171421857Y-86733785D01*
X171421857Y-86733785D02*
X171374238Y-86790928D01*
X171374238Y-86790928D02*
X171326619Y-86819500D01*
X188139071Y-46862952D02*
X188624785Y-46862952D01*
X188624785Y-46862952D02*
X188681928Y-46839142D01*
X188681928Y-46839142D02*
X188710500Y-46815333D01*
X188710500Y-46815333D02*
X188739071Y-46767714D01*
X188739071Y-46767714D02*
X188739071Y-46672476D01*
X188739071Y-46672476D02*
X188710500Y-46624857D01*
X188710500Y-46624857D02*
X188681928Y-46601047D01*
X188681928Y-46601047D02*
X188624785Y-46577238D01*
X188624785Y-46577238D02*
X188139071Y-46577238D01*
X188196214Y-46362951D02*
X188167642Y-46339142D01*
X188167642Y-46339142D02*
X188139071Y-46291523D01*
X188139071Y-46291523D02*
X188139071Y-46172475D01*
X188139071Y-46172475D02*
X188167642Y-46124856D01*
X188167642Y-46124856D02*
X188196214Y-46101047D01*
X188196214Y-46101047D02*
X188253357Y-46077237D01*
X188253357Y-46077237D02*
X188310500Y-46077237D01*
X188310500Y-46077237D02*
X188396214Y-46101047D01*
X188396214Y-46101047D02*
X188739071Y-46386761D01*
X188739071Y-46386761D02*
X188739071Y-46077237D01*
X206216571Y-58147928D02*
X205930857Y-58314594D01*
X206216571Y-58433642D02*
X205616571Y-58433642D01*
X205616571Y-58433642D02*
X205616571Y-58243166D01*
X205616571Y-58243166D02*
X205645142Y-58195547D01*
X205645142Y-58195547D02*
X205673714Y-58171737D01*
X205673714Y-58171737D02*
X205730857Y-58147928D01*
X205730857Y-58147928D02*
X205816571Y-58147928D01*
X205816571Y-58147928D02*
X205873714Y-58171737D01*
X205873714Y-58171737D02*
X205902285Y-58195547D01*
X205902285Y-58195547D02*
X205930857Y-58243166D01*
X205930857Y-58243166D02*
X205930857Y-58433642D01*
X205673714Y-57957451D02*
X205645142Y-57933642D01*
X205645142Y-57933642D02*
X205616571Y-57886023D01*
X205616571Y-57886023D02*
X205616571Y-57766975D01*
X205616571Y-57766975D02*
X205645142Y-57719356D01*
X205645142Y-57719356D02*
X205673714Y-57695547D01*
X205673714Y-57695547D02*
X205730857Y-57671737D01*
X205730857Y-57671737D02*
X205788000Y-57671737D01*
X205788000Y-57671737D02*
X205873714Y-57695547D01*
X205873714Y-57695547D02*
X206216571Y-57981261D01*
X206216571Y-57981261D02*
X206216571Y-57671737D01*
X205616571Y-57362214D02*
X205616571Y-57314595D01*
X205616571Y-57314595D02*
X205645142Y-57266976D01*
X205645142Y-57266976D02*
X205673714Y-57243166D01*
X205673714Y-57243166D02*
X205730857Y-57219357D01*
X205730857Y-57219357D02*
X205845142Y-57195547D01*
X205845142Y-57195547D02*
X205988000Y-57195547D01*
X205988000Y-57195547D02*
X206102285Y-57219357D01*
X206102285Y-57219357D02*
X206159428Y-57243166D01*
X206159428Y-57243166D02*
X206188000Y-57266976D01*
X206188000Y-57266976D02*
X206216571Y-57314595D01*
X206216571Y-57314595D02*
X206216571Y-57362214D01*
X206216571Y-57362214D02*
X206188000Y-57409833D01*
X206188000Y-57409833D02*
X206159428Y-57433642D01*
X206159428Y-57433642D02*
X206102285Y-57457452D01*
X206102285Y-57457452D02*
X205988000Y-57481261D01*
X205988000Y-57481261D02*
X205845142Y-57481261D01*
X205845142Y-57481261D02*
X205730857Y-57457452D01*
X205730857Y-57457452D02*
X205673714Y-57433642D01*
X205673714Y-57433642D02*
X205645142Y-57409833D01*
X205645142Y-57409833D02*
X205616571Y-57362214D01*
X210871166Y-52668428D02*
X210847357Y-52697000D01*
X210847357Y-52697000D02*
X210775928Y-52725571D01*
X210775928Y-52725571D02*
X210728309Y-52725571D01*
X210728309Y-52725571D02*
X210656881Y-52697000D01*
X210656881Y-52697000D02*
X210609262Y-52639857D01*
X210609262Y-52639857D02*
X210585452Y-52582714D01*
X210585452Y-52582714D02*
X210561643Y-52468428D01*
X210561643Y-52468428D02*
X210561643Y-52382714D01*
X210561643Y-52382714D02*
X210585452Y-52268428D01*
X210585452Y-52268428D02*
X210609262Y-52211285D01*
X210609262Y-52211285D02*
X210656881Y-52154142D01*
X210656881Y-52154142D02*
X210728309Y-52125571D01*
X210728309Y-52125571D02*
X210775928Y-52125571D01*
X210775928Y-52125571D02*
X210847357Y-52154142D01*
X210847357Y-52154142D02*
X210871166Y-52182714D01*
X211156881Y-52382714D02*
X211109262Y-52354142D01*
X211109262Y-52354142D02*
X211085452Y-52325571D01*
X211085452Y-52325571D02*
X211061643Y-52268428D01*
X211061643Y-52268428D02*
X211061643Y-52239857D01*
X211061643Y-52239857D02*
X211085452Y-52182714D01*
X211085452Y-52182714D02*
X211109262Y-52154142D01*
X211109262Y-52154142D02*
X211156881Y-52125571D01*
X211156881Y-52125571D02*
X211252119Y-52125571D01*
X211252119Y-52125571D02*
X211299738Y-52154142D01*
X211299738Y-52154142D02*
X211323547Y-52182714D01*
X211323547Y-52182714D02*
X211347357Y-52239857D01*
X211347357Y-52239857D02*
X211347357Y-52268428D01*
X211347357Y-52268428D02*
X211323547Y-52325571D01*
X211323547Y-52325571D02*
X211299738Y-52354142D01*
X211299738Y-52354142D02*
X211252119Y-52382714D01*
X211252119Y-52382714D02*
X211156881Y-52382714D01*
X211156881Y-52382714D02*
X211109262Y-52411285D01*
X211109262Y-52411285D02*
X211085452Y-52439857D01*
X211085452Y-52439857D02*
X211061643Y-52497000D01*
X211061643Y-52497000D02*
X211061643Y-52611285D01*
X211061643Y-52611285D02*
X211085452Y-52668428D01*
X211085452Y-52668428D02*
X211109262Y-52697000D01*
X211109262Y-52697000D02*
X211156881Y-52725571D01*
X211156881Y-52725571D02*
X211252119Y-52725571D01*
X211252119Y-52725571D02*
X211299738Y-52697000D01*
X211299738Y-52697000D02*
X211323547Y-52668428D01*
X211323547Y-52668428D02*
X211347357Y-52611285D01*
X211347357Y-52611285D02*
X211347357Y-52497000D01*
X211347357Y-52497000D02*
X211323547Y-52439857D01*
X211323547Y-52439857D02*
X211299738Y-52411285D01*
X211299738Y-52411285D02*
X211252119Y-52382714D01*
X222079047Y-62441071D02*
X222079047Y-62926785D01*
X222079047Y-62926785D02*
X222102857Y-62983928D01*
X222102857Y-62983928D02*
X222126666Y-63012500D01*
X222126666Y-63012500D02*
X222174285Y-63041071D01*
X222174285Y-63041071D02*
X222269523Y-63041071D01*
X222269523Y-63041071D02*
X222317142Y-63012500D01*
X222317142Y-63012500D02*
X222340952Y-62983928D01*
X222340952Y-62983928D02*
X222364761Y-62926785D01*
X222364761Y-62926785D02*
X222364761Y-62441071D01*
X222555238Y-62441071D02*
X222864762Y-62441071D01*
X222864762Y-62441071D02*
X222698095Y-62669642D01*
X222698095Y-62669642D02*
X222769524Y-62669642D01*
X222769524Y-62669642D02*
X222817143Y-62698214D01*
X222817143Y-62698214D02*
X222840952Y-62726785D01*
X222840952Y-62726785D02*
X222864762Y-62783928D01*
X222864762Y-62783928D02*
X222864762Y-62926785D01*
X222864762Y-62926785D02*
X222840952Y-62983928D01*
X222840952Y-62983928D02*
X222817143Y-63012500D01*
X222817143Y-63012500D02*
X222769524Y-63041071D01*
X222769524Y-63041071D02*
X222626667Y-63041071D01*
X222626667Y-63041071D02*
X222579048Y-63012500D01*
X222579048Y-63012500D02*
X222555238Y-62983928D01*
X200410048Y-73585071D02*
X200695762Y-73585071D01*
X200552905Y-74185071D02*
X200552905Y-73585071D01*
X200862428Y-74185071D02*
X200862428Y-73585071D01*
X200862428Y-73585071D02*
X201052904Y-73585071D01*
X201052904Y-73585071D02*
X201100523Y-73613642D01*
X201100523Y-73613642D02*
X201124333Y-73642214D01*
X201124333Y-73642214D02*
X201148142Y-73699357D01*
X201148142Y-73699357D02*
X201148142Y-73785071D01*
X201148142Y-73785071D02*
X201124333Y-73842214D01*
X201124333Y-73842214D02*
X201100523Y-73870785D01*
X201100523Y-73870785D02*
X201052904Y-73899357D01*
X201052904Y-73899357D02*
X200862428Y-73899357D01*
X201624333Y-74185071D02*
X201338619Y-74185071D01*
X201481476Y-74185071D02*
X201481476Y-73585071D01*
X201481476Y-73585071D02*
X201433857Y-73670785D01*
X201433857Y-73670785D02*
X201386238Y-73727928D01*
X201386238Y-73727928D02*
X201338619Y-73756500D01*
X202696048Y-58929071D02*
X202981762Y-58929071D01*
X202838905Y-59529071D02*
X202838905Y-58929071D01*
X203148428Y-59529071D02*
X203148428Y-58929071D01*
X203148428Y-58929071D02*
X203338904Y-58929071D01*
X203338904Y-58929071D02*
X203386523Y-58957642D01*
X203386523Y-58957642D02*
X203410333Y-58986214D01*
X203410333Y-58986214D02*
X203434142Y-59043357D01*
X203434142Y-59043357D02*
X203434142Y-59129071D01*
X203434142Y-59129071D02*
X203410333Y-59186214D01*
X203410333Y-59186214D02*
X203386523Y-59214785D01*
X203386523Y-59214785D02*
X203338904Y-59243357D01*
X203338904Y-59243357D02*
X203148428Y-59243357D01*
X203600809Y-58929071D02*
X203910333Y-58929071D01*
X203910333Y-58929071D02*
X203743666Y-59157642D01*
X203743666Y-59157642D02*
X203815095Y-59157642D01*
X203815095Y-59157642D02*
X203862714Y-59186214D01*
X203862714Y-59186214D02*
X203886523Y-59214785D01*
X203886523Y-59214785D02*
X203910333Y-59271928D01*
X203910333Y-59271928D02*
X203910333Y-59414785D01*
X203910333Y-59414785D02*
X203886523Y-59471928D01*
X203886523Y-59471928D02*
X203862714Y-59500500D01*
X203862714Y-59500500D02*
X203815095Y-59529071D01*
X203815095Y-59529071D02*
X203672238Y-59529071D01*
X203672238Y-59529071D02*
X203624619Y-59500500D01*
X203624619Y-59500500D02*
X203600809Y-59471928D01*
X191266048Y-54230071D02*
X191551762Y-54230071D01*
X191408905Y-54830071D02*
X191408905Y-54230071D01*
X191718428Y-54830071D02*
X191718428Y-54230071D01*
X191718428Y-54230071D02*
X191908904Y-54230071D01*
X191908904Y-54230071D02*
X191956523Y-54258642D01*
X191956523Y-54258642D02*
X191980333Y-54287214D01*
X191980333Y-54287214D02*
X192004142Y-54344357D01*
X192004142Y-54344357D02*
X192004142Y-54430071D01*
X192004142Y-54430071D02*
X191980333Y-54487214D01*
X191980333Y-54487214D02*
X191956523Y-54515785D01*
X191956523Y-54515785D02*
X191908904Y-54544357D01*
X191908904Y-54544357D02*
X191718428Y-54544357D01*
X192456523Y-54230071D02*
X192218428Y-54230071D01*
X192218428Y-54230071D02*
X192194619Y-54515785D01*
X192194619Y-54515785D02*
X192218428Y-54487214D01*
X192218428Y-54487214D02*
X192266047Y-54458642D01*
X192266047Y-54458642D02*
X192385095Y-54458642D01*
X192385095Y-54458642D02*
X192432714Y-54487214D01*
X192432714Y-54487214D02*
X192456523Y-54515785D01*
X192456523Y-54515785D02*
X192480333Y-54572928D01*
X192480333Y-54572928D02*
X192480333Y-54715785D01*
X192480333Y-54715785D02*
X192456523Y-54772928D01*
X192456523Y-54772928D02*
X192432714Y-54801500D01*
X192432714Y-54801500D02*
X192385095Y-54830071D01*
X192385095Y-54830071D02*
X192266047Y-54830071D01*
X192266047Y-54830071D02*
X192218428Y-54801500D01*
X192218428Y-54801500D02*
X192194619Y-54772928D01*
X208273928Y-51083833D02*
X208302500Y-51107642D01*
X208302500Y-51107642D02*
X208331071Y-51179071D01*
X208331071Y-51179071D02*
X208331071Y-51226690D01*
X208331071Y-51226690D02*
X208302500Y-51298118D01*
X208302500Y-51298118D02*
X208245357Y-51345737D01*
X208245357Y-51345737D02*
X208188214Y-51369547D01*
X208188214Y-51369547D02*
X208073928Y-51393356D01*
X208073928Y-51393356D02*
X207988214Y-51393356D01*
X207988214Y-51393356D02*
X207873928Y-51369547D01*
X207873928Y-51369547D02*
X207816785Y-51345737D01*
X207816785Y-51345737D02*
X207759642Y-51298118D01*
X207759642Y-51298118D02*
X207731071Y-51226690D01*
X207731071Y-51226690D02*
X207731071Y-51179071D01*
X207731071Y-51179071D02*
X207759642Y-51107642D01*
X207759642Y-51107642D02*
X207788214Y-51083833D01*
X207731071Y-50917166D02*
X207731071Y-50583833D01*
X207731071Y-50583833D02*
X208331071Y-50798118D01*
X226064048Y-66676071D02*
X226349762Y-66676071D01*
X226206905Y-67276071D02*
X226206905Y-66676071D01*
X226516428Y-67276071D02*
X226516428Y-66676071D01*
X226516428Y-66676071D02*
X226706904Y-66676071D01*
X226706904Y-66676071D02*
X226754523Y-66704642D01*
X226754523Y-66704642D02*
X226778333Y-66733214D01*
X226778333Y-66733214D02*
X226802142Y-66790357D01*
X226802142Y-66790357D02*
X226802142Y-66876071D01*
X226802142Y-66876071D02*
X226778333Y-66933214D01*
X226778333Y-66933214D02*
X226754523Y-66961785D01*
X226754523Y-66961785D02*
X226706904Y-66990357D01*
X226706904Y-66990357D02*
X226516428Y-66990357D01*
X227230714Y-66876071D02*
X227230714Y-67276071D01*
X227111666Y-66647500D02*
X226992619Y-67076071D01*
X226992619Y-67076071D02*
X227302142Y-67076071D01*
X211716571Y-58147928D02*
X211430857Y-58314594D01*
X211716571Y-58433642D02*
X211116571Y-58433642D01*
X211116571Y-58433642D02*
X211116571Y-58243166D01*
X211116571Y-58243166D02*
X211145142Y-58195547D01*
X211145142Y-58195547D02*
X211173714Y-58171737D01*
X211173714Y-58171737D02*
X211230857Y-58147928D01*
X211230857Y-58147928D02*
X211316571Y-58147928D01*
X211316571Y-58147928D02*
X211373714Y-58171737D01*
X211373714Y-58171737D02*
X211402285Y-58195547D01*
X211402285Y-58195547D02*
X211430857Y-58243166D01*
X211430857Y-58243166D02*
X211430857Y-58433642D01*
X211716571Y-57671737D02*
X211716571Y-57957451D01*
X211716571Y-57814594D02*
X211116571Y-57814594D01*
X211116571Y-57814594D02*
X211202285Y-57862213D01*
X211202285Y-57862213D02*
X211259428Y-57909832D01*
X211259428Y-57909832D02*
X211288000Y-57957451D01*
X211116571Y-57219357D02*
X211116571Y-57457452D01*
X211116571Y-57457452D02*
X211402285Y-57481261D01*
X211402285Y-57481261D02*
X211373714Y-57457452D01*
X211373714Y-57457452D02*
X211345142Y-57409833D01*
X211345142Y-57409833D02*
X211345142Y-57290785D01*
X211345142Y-57290785D02*
X211373714Y-57243166D01*
X211373714Y-57243166D02*
X211402285Y-57219357D01*
X211402285Y-57219357D02*
X211459428Y-57195547D01*
X211459428Y-57195547D02*
X211602285Y-57195547D01*
X211602285Y-57195547D02*
X211659428Y-57219357D01*
X211659428Y-57219357D02*
X211688000Y-57243166D01*
X211688000Y-57243166D02*
X211716571Y-57290785D01*
X211716571Y-57290785D02*
X211716571Y-57409833D01*
X211716571Y-57409833D02*
X211688000Y-57457452D01*
X211688000Y-57457452D02*
X211659428Y-57481261D01*
X197997048Y-73458071D02*
X198282762Y-73458071D01*
X198139905Y-74058071D02*
X198139905Y-73458071D01*
X198449428Y-74058071D02*
X198449428Y-73458071D01*
X198449428Y-73458071D02*
X198639904Y-73458071D01*
X198639904Y-73458071D02*
X198687523Y-73486642D01*
X198687523Y-73486642D02*
X198711333Y-73515214D01*
X198711333Y-73515214D02*
X198735142Y-73572357D01*
X198735142Y-73572357D02*
X198735142Y-73658071D01*
X198735142Y-73658071D02*
X198711333Y-73715214D01*
X198711333Y-73715214D02*
X198687523Y-73743785D01*
X198687523Y-73743785D02*
X198639904Y-73772357D01*
X198639904Y-73772357D02*
X198449428Y-73772357D01*
X198925619Y-73515214D02*
X198949428Y-73486642D01*
X198949428Y-73486642D02*
X198997047Y-73458071D01*
X198997047Y-73458071D02*
X199116095Y-73458071D01*
X199116095Y-73458071D02*
X199163714Y-73486642D01*
X199163714Y-73486642D02*
X199187523Y-73515214D01*
X199187523Y-73515214D02*
X199211333Y-73572357D01*
X199211333Y-73572357D02*
X199211333Y-73629500D01*
X199211333Y-73629500D02*
X199187523Y-73715214D01*
X199187523Y-73715214D02*
X198901809Y-74058071D01*
X198901809Y-74058071D02*
X199211333Y-74058071D01*
X163466071Y-95206333D02*
X163180357Y-95372999D01*
X163466071Y-95492047D02*
X162866071Y-95492047D01*
X162866071Y-95492047D02*
X162866071Y-95301571D01*
X162866071Y-95301571D02*
X162894642Y-95253952D01*
X162894642Y-95253952D02*
X162923214Y-95230142D01*
X162923214Y-95230142D02*
X162980357Y-95206333D01*
X162980357Y-95206333D02*
X163066071Y-95206333D01*
X163066071Y-95206333D02*
X163123214Y-95230142D01*
X163123214Y-95230142D02*
X163151785Y-95253952D01*
X163151785Y-95253952D02*
X163180357Y-95301571D01*
X163180357Y-95301571D02*
X163180357Y-95492047D01*
X162866071Y-95039666D02*
X162866071Y-94730142D01*
X162866071Y-94730142D02*
X163094642Y-94896809D01*
X163094642Y-94896809D02*
X163094642Y-94825380D01*
X163094642Y-94825380D02*
X163123214Y-94777761D01*
X163123214Y-94777761D02*
X163151785Y-94753952D01*
X163151785Y-94753952D02*
X163208928Y-94730142D01*
X163208928Y-94730142D02*
X163351785Y-94730142D01*
X163351785Y-94730142D02*
X163408928Y-94753952D01*
X163408928Y-94753952D02*
X163437500Y-94777761D01*
X163437500Y-94777761D02*
X163466071Y-94825380D01*
X163466071Y-94825380D02*
X163466071Y-94968237D01*
X163466071Y-94968237D02*
X163437500Y-95015856D01*
X163437500Y-95015856D02*
X163408928Y-95039666D01*
X199628571Y-92741071D02*
X199461905Y-92455357D01*
X199342857Y-92741071D02*
X199342857Y-92141071D01*
X199342857Y-92141071D02*
X199533333Y-92141071D01*
X199533333Y-92141071D02*
X199580952Y-92169642D01*
X199580952Y-92169642D02*
X199604762Y-92198214D01*
X199604762Y-92198214D02*
X199628571Y-92255357D01*
X199628571Y-92255357D02*
X199628571Y-92341071D01*
X199628571Y-92341071D02*
X199604762Y-92398214D01*
X199604762Y-92398214D02*
X199580952Y-92426785D01*
X199580952Y-92426785D02*
X199533333Y-92455357D01*
X199533333Y-92455357D02*
X199342857Y-92455357D01*
X199795238Y-92141071D02*
X200104762Y-92141071D01*
X200104762Y-92141071D02*
X199938095Y-92369642D01*
X199938095Y-92369642D02*
X200009524Y-92369642D01*
X200009524Y-92369642D02*
X200057143Y-92398214D01*
X200057143Y-92398214D02*
X200080952Y-92426785D01*
X200080952Y-92426785D02*
X200104762Y-92483928D01*
X200104762Y-92483928D02*
X200104762Y-92626785D01*
X200104762Y-92626785D02*
X200080952Y-92683928D01*
X200080952Y-92683928D02*
X200057143Y-92712500D01*
X200057143Y-92712500D02*
X200009524Y-92741071D01*
X200009524Y-92741071D02*
X199866667Y-92741071D01*
X199866667Y-92741071D02*
X199819048Y-92712500D01*
X199819048Y-92712500D02*
X199795238Y-92683928D01*
X200533333Y-92341071D02*
X200533333Y-92741071D01*
X200414285Y-92112500D02*
X200295238Y-92541071D01*
X200295238Y-92541071D02*
X200604761Y-92541071D01*
X150446666Y-74563928D02*
X150422857Y-74592500D01*
X150422857Y-74592500D02*
X150351428Y-74621071D01*
X150351428Y-74621071D02*
X150303809Y-74621071D01*
X150303809Y-74621071D02*
X150232381Y-74592500D01*
X150232381Y-74592500D02*
X150184762Y-74535357D01*
X150184762Y-74535357D02*
X150160952Y-74478214D01*
X150160952Y-74478214D02*
X150137143Y-74363928D01*
X150137143Y-74363928D02*
X150137143Y-74278214D01*
X150137143Y-74278214D02*
X150160952Y-74163928D01*
X150160952Y-74163928D02*
X150184762Y-74106785D01*
X150184762Y-74106785D02*
X150232381Y-74049642D01*
X150232381Y-74049642D02*
X150303809Y-74021071D01*
X150303809Y-74021071D02*
X150351428Y-74021071D01*
X150351428Y-74021071D02*
X150422857Y-74049642D01*
X150422857Y-74049642D02*
X150446666Y-74078214D01*
X150875238Y-74221071D02*
X150875238Y-74621071D01*
X150756190Y-73992500D02*
X150637143Y-74421071D01*
X150637143Y-74421071D02*
X150946666Y-74421071D01*
X193480571Y-49420071D02*
X193313905Y-49134357D01*
X193194857Y-49420071D02*
X193194857Y-48820071D01*
X193194857Y-48820071D02*
X193385333Y-48820071D01*
X193385333Y-48820071D02*
X193432952Y-48848642D01*
X193432952Y-48848642D02*
X193456762Y-48877214D01*
X193456762Y-48877214D02*
X193480571Y-48934357D01*
X193480571Y-48934357D02*
X193480571Y-49020071D01*
X193480571Y-49020071D02*
X193456762Y-49077214D01*
X193456762Y-49077214D02*
X193432952Y-49105785D01*
X193432952Y-49105785D02*
X193385333Y-49134357D01*
X193385333Y-49134357D02*
X193194857Y-49134357D01*
X193671048Y-48877214D02*
X193694857Y-48848642D01*
X193694857Y-48848642D02*
X193742476Y-48820071D01*
X193742476Y-48820071D02*
X193861524Y-48820071D01*
X193861524Y-48820071D02*
X193909143Y-48848642D01*
X193909143Y-48848642D02*
X193932952Y-48877214D01*
X193932952Y-48877214D02*
X193956762Y-48934357D01*
X193956762Y-48934357D02*
X193956762Y-48991500D01*
X193956762Y-48991500D02*
X193932952Y-49077214D01*
X193932952Y-49077214D02*
X193647238Y-49420071D01*
X193647238Y-49420071D02*
X193956762Y-49420071D01*
X194385333Y-49020071D02*
X194385333Y-49420071D01*
X194266285Y-48791500D02*
X194147238Y-49220071D01*
X194147238Y-49220071D02*
X194456761Y-49220071D01*
X198306571Y-67834071D02*
X198139905Y-67548357D01*
X198020857Y-67834071D02*
X198020857Y-67234071D01*
X198020857Y-67234071D02*
X198211333Y-67234071D01*
X198211333Y-67234071D02*
X198258952Y-67262642D01*
X198258952Y-67262642D02*
X198282762Y-67291214D01*
X198282762Y-67291214D02*
X198306571Y-67348357D01*
X198306571Y-67348357D02*
X198306571Y-67434071D01*
X198306571Y-67434071D02*
X198282762Y-67491214D01*
X198282762Y-67491214D02*
X198258952Y-67519785D01*
X198258952Y-67519785D02*
X198211333Y-67548357D01*
X198211333Y-67548357D02*
X198020857Y-67548357D01*
X198782762Y-67834071D02*
X198497048Y-67834071D01*
X198639905Y-67834071D02*
X198639905Y-67234071D01*
X198639905Y-67234071D02*
X198592286Y-67319785D01*
X198592286Y-67319785D02*
X198544667Y-67376928D01*
X198544667Y-67376928D02*
X198497048Y-67405500D01*
X199211333Y-67234071D02*
X199116095Y-67234071D01*
X199116095Y-67234071D02*
X199068476Y-67262642D01*
X199068476Y-67262642D02*
X199044666Y-67291214D01*
X199044666Y-67291214D02*
X198997047Y-67376928D01*
X198997047Y-67376928D02*
X198973238Y-67491214D01*
X198973238Y-67491214D02*
X198973238Y-67719785D01*
X198973238Y-67719785D02*
X198997047Y-67776928D01*
X198997047Y-67776928D02*
X199020857Y-67805500D01*
X199020857Y-67805500D02*
X199068476Y-67834071D01*
X199068476Y-67834071D02*
X199163714Y-67834071D01*
X199163714Y-67834071D02*
X199211333Y-67805500D01*
X199211333Y-67805500D02*
X199235142Y-67776928D01*
X199235142Y-67776928D02*
X199258952Y-67719785D01*
X199258952Y-67719785D02*
X199258952Y-67576928D01*
X199258952Y-67576928D02*
X199235142Y-67519785D01*
X199235142Y-67519785D02*
X199211333Y-67491214D01*
X199211333Y-67491214D02*
X199163714Y-67462642D01*
X199163714Y-67462642D02*
X199068476Y-67462642D01*
X199068476Y-67462642D02*
X199020857Y-67491214D01*
X199020857Y-67491214D02*
X198997047Y-67519785D01*
X198997047Y-67519785D02*
X198973238Y-67576928D01*
X186008214Y-89107619D02*
X185979642Y-89155238D01*
X185979642Y-89155238D02*
X185922500Y-89202857D01*
X185922500Y-89202857D02*
X185836785Y-89274285D01*
X185836785Y-89274285D02*
X185808214Y-89321904D01*
X185808214Y-89321904D02*
X185808214Y-89369523D01*
X185951071Y-89345714D02*
X185922500Y-89393333D01*
X185922500Y-89393333D02*
X185865357Y-89440952D01*
X185865357Y-89440952D02*
X185751071Y-89464761D01*
X185751071Y-89464761D02*
X185551071Y-89464761D01*
X185551071Y-89464761D02*
X185436785Y-89440952D01*
X185436785Y-89440952D02*
X185379642Y-89393333D01*
X185379642Y-89393333D02*
X185351071Y-89345714D01*
X185351071Y-89345714D02*
X185351071Y-89250476D01*
X185351071Y-89250476D02*
X185379642Y-89202857D01*
X185379642Y-89202857D02*
X185436785Y-89155238D01*
X185436785Y-89155238D02*
X185551071Y-89131428D01*
X185551071Y-89131428D02*
X185751071Y-89131428D01*
X185751071Y-89131428D02*
X185865357Y-89155238D01*
X185865357Y-89155238D02*
X185922500Y-89202857D01*
X185922500Y-89202857D02*
X185951071Y-89250476D01*
X185951071Y-89250476D02*
X185951071Y-89345714D01*
X185408214Y-88940951D02*
X185379642Y-88917142D01*
X185379642Y-88917142D02*
X185351071Y-88869523D01*
X185351071Y-88869523D02*
X185351071Y-88750475D01*
X185351071Y-88750475D02*
X185379642Y-88702856D01*
X185379642Y-88702856D02*
X185408214Y-88679047D01*
X185408214Y-88679047D02*
X185465357Y-88655237D01*
X185465357Y-88655237D02*
X185522500Y-88655237D01*
X185522500Y-88655237D02*
X185608214Y-88679047D01*
X185608214Y-88679047D02*
X185951071Y-88964761D01*
X185951071Y-88964761D02*
X185951071Y-88655237D01*
X161681071Y-57651428D02*
X161395357Y-57818094D01*
X161681071Y-57937142D02*
X161081071Y-57937142D01*
X161081071Y-57937142D02*
X161081071Y-57746666D01*
X161081071Y-57746666D02*
X161109642Y-57699047D01*
X161109642Y-57699047D02*
X161138214Y-57675237D01*
X161138214Y-57675237D02*
X161195357Y-57651428D01*
X161195357Y-57651428D02*
X161281071Y-57651428D01*
X161281071Y-57651428D02*
X161338214Y-57675237D01*
X161338214Y-57675237D02*
X161366785Y-57699047D01*
X161366785Y-57699047D02*
X161395357Y-57746666D01*
X161395357Y-57746666D02*
X161395357Y-57937142D01*
X161138214Y-57460951D02*
X161109642Y-57437142D01*
X161109642Y-57437142D02*
X161081071Y-57389523D01*
X161081071Y-57389523D02*
X161081071Y-57270475D01*
X161081071Y-57270475D02*
X161109642Y-57222856D01*
X161109642Y-57222856D02*
X161138214Y-57199047D01*
X161138214Y-57199047D02*
X161195357Y-57175237D01*
X161195357Y-57175237D02*
X161252500Y-57175237D01*
X161252500Y-57175237D02*
X161338214Y-57199047D01*
X161338214Y-57199047D02*
X161681071Y-57484761D01*
X161681071Y-57484761D02*
X161681071Y-57175237D01*
X161681071Y-56937142D02*
X161681071Y-56841904D01*
X161681071Y-56841904D02*
X161652500Y-56794285D01*
X161652500Y-56794285D02*
X161623928Y-56770476D01*
X161623928Y-56770476D02*
X161538214Y-56722857D01*
X161538214Y-56722857D02*
X161423928Y-56699047D01*
X161423928Y-56699047D02*
X161195357Y-56699047D01*
X161195357Y-56699047D02*
X161138214Y-56722857D01*
X161138214Y-56722857D02*
X161109642Y-56746666D01*
X161109642Y-56746666D02*
X161081071Y-56794285D01*
X161081071Y-56794285D02*
X161081071Y-56889523D01*
X161081071Y-56889523D02*
X161109642Y-56937142D01*
X161109642Y-56937142D02*
X161138214Y-56960952D01*
X161138214Y-56960952D02*
X161195357Y-56984761D01*
X161195357Y-56984761D02*
X161338214Y-56984761D01*
X161338214Y-56984761D02*
X161395357Y-56960952D01*
X161395357Y-56960952D02*
X161423928Y-56937142D01*
X161423928Y-56937142D02*
X161452500Y-56889523D01*
X161452500Y-56889523D02*
X161452500Y-56794285D01*
X161452500Y-56794285D02*
X161423928Y-56746666D01*
X161423928Y-56746666D02*
X161395357Y-56722857D01*
X161395357Y-56722857D02*
X161338214Y-56699047D01*
X194077357Y-57272901D02*
X194077357Y-57758615D01*
X194077357Y-57758615D02*
X194101167Y-57815758D01*
X194101167Y-57815758D02*
X194124976Y-57844330D01*
X194124976Y-57844330D02*
X194172595Y-57872901D01*
X194172595Y-57872901D02*
X194267833Y-57872901D01*
X194267833Y-57872901D02*
X194315452Y-57844330D01*
X194315452Y-57844330D02*
X194339262Y-57815758D01*
X194339262Y-57815758D02*
X194363071Y-57758615D01*
X194363071Y-57758615D02*
X194363071Y-57272901D01*
X194815453Y-57272901D02*
X194720215Y-57272901D01*
X194720215Y-57272901D02*
X194672596Y-57301472D01*
X194672596Y-57301472D02*
X194648786Y-57330044D01*
X194648786Y-57330044D02*
X194601167Y-57415758D01*
X194601167Y-57415758D02*
X194577358Y-57530044D01*
X194577358Y-57530044D02*
X194577358Y-57758615D01*
X194577358Y-57758615D02*
X194601167Y-57815758D01*
X194601167Y-57815758D02*
X194624977Y-57844330D01*
X194624977Y-57844330D02*
X194672596Y-57872901D01*
X194672596Y-57872901D02*
X194767834Y-57872901D01*
X194767834Y-57872901D02*
X194815453Y-57844330D01*
X194815453Y-57844330D02*
X194839262Y-57815758D01*
X194839262Y-57815758D02*
X194863072Y-57758615D01*
X194863072Y-57758615D02*
X194863072Y-57615758D01*
X194863072Y-57615758D02*
X194839262Y-57558615D01*
X194839262Y-57558615D02*
X194815453Y-57530044D01*
X194815453Y-57530044D02*
X194767834Y-57501472D01*
X194767834Y-57501472D02*
X194672596Y-57501472D01*
X194672596Y-57501472D02*
X194624977Y-57530044D01*
X194624977Y-57530044D02*
X194601167Y-57558615D01*
X194601167Y-57558615D02*
X194577358Y-57615758D01*
X166556571Y-77487071D02*
X166389905Y-77201357D01*
X166270857Y-77487071D02*
X166270857Y-76887071D01*
X166270857Y-76887071D02*
X166461333Y-76887071D01*
X166461333Y-76887071D02*
X166508952Y-76915642D01*
X166508952Y-76915642D02*
X166532762Y-76944214D01*
X166532762Y-76944214D02*
X166556571Y-77001357D01*
X166556571Y-77001357D02*
X166556571Y-77087071D01*
X166556571Y-77087071D02*
X166532762Y-77144214D01*
X166532762Y-77144214D02*
X166508952Y-77172785D01*
X166508952Y-77172785D02*
X166461333Y-77201357D01*
X166461333Y-77201357D02*
X166270857Y-77201357D01*
X167032762Y-77487071D02*
X166747048Y-77487071D01*
X166889905Y-77487071D02*
X166889905Y-76887071D01*
X166889905Y-76887071D02*
X166842286Y-76972785D01*
X166842286Y-76972785D02*
X166794667Y-77029928D01*
X166794667Y-77029928D02*
X166747048Y-77058500D01*
X167461333Y-77087071D02*
X167461333Y-77487071D01*
X167342285Y-76858500D02*
X167223238Y-77287071D01*
X167223238Y-77287071D02*
X167532761Y-77287071D01*
X146460476Y-79431071D02*
X146222381Y-79431071D01*
X146222381Y-79431071D02*
X146222381Y-78831071D01*
X146627143Y-79116785D02*
X146793810Y-79116785D01*
X146865238Y-79431071D02*
X146627143Y-79431071D01*
X146627143Y-79431071D02*
X146627143Y-78831071D01*
X146627143Y-78831071D02*
X146865238Y-78831071D01*
X147079524Y-79431071D02*
X147079524Y-78831071D01*
X147079524Y-78831071D02*
X147198572Y-78831071D01*
X147198572Y-78831071D02*
X147270000Y-78859642D01*
X147270000Y-78859642D02*
X147317619Y-78916785D01*
X147317619Y-78916785D02*
X147341429Y-78973928D01*
X147341429Y-78973928D02*
X147365238Y-79088214D01*
X147365238Y-79088214D02*
X147365238Y-79173928D01*
X147365238Y-79173928D02*
X147341429Y-79288214D01*
X147341429Y-79288214D02*
X147317619Y-79345357D01*
X147317619Y-79345357D02*
X147270000Y-79402500D01*
X147270000Y-79402500D02*
X147198572Y-79431071D01*
X147198572Y-79431071D02*
X147079524Y-79431071D01*
X147555715Y-78888214D02*
X147579524Y-78859642D01*
X147579524Y-78859642D02*
X147627143Y-78831071D01*
X147627143Y-78831071D02*
X147746191Y-78831071D01*
X147746191Y-78831071D02*
X147793810Y-78859642D01*
X147793810Y-78859642D02*
X147817619Y-78888214D01*
X147817619Y-78888214D02*
X147841429Y-78945357D01*
X147841429Y-78945357D02*
X147841429Y-79002500D01*
X147841429Y-79002500D02*
X147817619Y-79088214D01*
X147817619Y-79088214D02*
X147531905Y-79431071D01*
X147531905Y-79431071D02*
X147841429Y-79431071D01*
X192398571Y-78736071D02*
X192231905Y-78450357D01*
X192112857Y-78736071D02*
X192112857Y-78136071D01*
X192112857Y-78136071D02*
X192303333Y-78136071D01*
X192303333Y-78136071D02*
X192350952Y-78164642D01*
X192350952Y-78164642D02*
X192374762Y-78193214D01*
X192374762Y-78193214D02*
X192398571Y-78250357D01*
X192398571Y-78250357D02*
X192398571Y-78336071D01*
X192398571Y-78336071D02*
X192374762Y-78393214D01*
X192374762Y-78393214D02*
X192350952Y-78421785D01*
X192350952Y-78421785D02*
X192303333Y-78450357D01*
X192303333Y-78450357D02*
X192112857Y-78450357D01*
X192874762Y-78736071D02*
X192589048Y-78736071D01*
X192731905Y-78736071D02*
X192731905Y-78136071D01*
X192731905Y-78136071D02*
X192684286Y-78221785D01*
X192684286Y-78221785D02*
X192636667Y-78278928D01*
X192636667Y-78278928D02*
X192589048Y-78307500D01*
X193065238Y-78193214D02*
X193089047Y-78164642D01*
X193089047Y-78164642D02*
X193136666Y-78136071D01*
X193136666Y-78136071D02*
X193255714Y-78136071D01*
X193255714Y-78136071D02*
X193303333Y-78164642D01*
X193303333Y-78164642D02*
X193327142Y-78193214D01*
X193327142Y-78193214D02*
X193350952Y-78250357D01*
X193350952Y-78250357D02*
X193350952Y-78307500D01*
X193350952Y-78307500D02*
X193327142Y-78393214D01*
X193327142Y-78393214D02*
X193041428Y-78736071D01*
X193041428Y-78736071D02*
X193350952Y-78736071D01*
X142990476Y-79501071D02*
X142752381Y-79501071D01*
X142752381Y-79501071D02*
X142752381Y-78901071D01*
X143157143Y-79186785D02*
X143323810Y-79186785D01*
X143395238Y-79501071D02*
X143157143Y-79501071D01*
X143157143Y-79501071D02*
X143157143Y-78901071D01*
X143157143Y-78901071D02*
X143395238Y-78901071D01*
X143609524Y-79501071D02*
X143609524Y-78901071D01*
X143609524Y-78901071D02*
X143728572Y-78901071D01*
X143728572Y-78901071D02*
X143800000Y-78929642D01*
X143800000Y-78929642D02*
X143847619Y-78986785D01*
X143847619Y-78986785D02*
X143871429Y-79043928D01*
X143871429Y-79043928D02*
X143895238Y-79158214D01*
X143895238Y-79158214D02*
X143895238Y-79243928D01*
X143895238Y-79243928D02*
X143871429Y-79358214D01*
X143871429Y-79358214D02*
X143847619Y-79415357D01*
X143847619Y-79415357D02*
X143800000Y-79472500D01*
X143800000Y-79472500D02*
X143728572Y-79501071D01*
X143728572Y-79501071D02*
X143609524Y-79501071D01*
X144371429Y-79501071D02*
X144085715Y-79501071D01*
X144228572Y-79501071D02*
X144228572Y-78901071D01*
X144228572Y-78901071D02*
X144180953Y-78986785D01*
X144180953Y-78986785D02*
X144133334Y-79043928D01*
X144133334Y-79043928D02*
X144085715Y-79072500D01*
X178308571Y-58551071D02*
X178141905Y-58265357D01*
X178022857Y-58551071D02*
X178022857Y-57951071D01*
X178022857Y-57951071D02*
X178213333Y-57951071D01*
X178213333Y-57951071D02*
X178260952Y-57979642D01*
X178260952Y-57979642D02*
X178284762Y-58008214D01*
X178284762Y-58008214D02*
X178308571Y-58065357D01*
X178308571Y-58065357D02*
X178308571Y-58151071D01*
X178308571Y-58151071D02*
X178284762Y-58208214D01*
X178284762Y-58208214D02*
X178260952Y-58236785D01*
X178260952Y-58236785D02*
X178213333Y-58265357D01*
X178213333Y-58265357D02*
X178022857Y-58265357D01*
X178499048Y-58008214D02*
X178522857Y-57979642D01*
X178522857Y-57979642D02*
X178570476Y-57951071D01*
X178570476Y-57951071D02*
X178689524Y-57951071D01*
X178689524Y-57951071D02*
X178737143Y-57979642D01*
X178737143Y-57979642D02*
X178760952Y-58008214D01*
X178760952Y-58008214D02*
X178784762Y-58065357D01*
X178784762Y-58065357D02*
X178784762Y-58122500D01*
X178784762Y-58122500D02*
X178760952Y-58208214D01*
X178760952Y-58208214D02*
X178475238Y-58551071D01*
X178475238Y-58551071D02*
X178784762Y-58551071D01*
X178951428Y-57951071D02*
X179260952Y-57951071D01*
X179260952Y-57951071D02*
X179094285Y-58179642D01*
X179094285Y-58179642D02*
X179165714Y-58179642D01*
X179165714Y-58179642D02*
X179213333Y-58208214D01*
X179213333Y-58208214D02*
X179237142Y-58236785D01*
X179237142Y-58236785D02*
X179260952Y-58293928D01*
X179260952Y-58293928D02*
X179260952Y-58436785D01*
X179260952Y-58436785D02*
X179237142Y-58493928D01*
X179237142Y-58493928D02*
X179213333Y-58522500D01*
X179213333Y-58522500D02*
X179165714Y-58551071D01*
X179165714Y-58551071D02*
X179022857Y-58551071D01*
X179022857Y-58551071D02*
X178975238Y-58522500D01*
X178975238Y-58522500D02*
X178951428Y-58493928D01*
X218113928Y-67661928D02*
X218142500Y-67685737D01*
X218142500Y-67685737D02*
X218171071Y-67757166D01*
X218171071Y-67757166D02*
X218171071Y-67804785D01*
X218171071Y-67804785D02*
X218142500Y-67876213D01*
X218142500Y-67876213D02*
X218085357Y-67923832D01*
X218085357Y-67923832D02*
X218028214Y-67947642D01*
X218028214Y-67947642D02*
X217913928Y-67971451D01*
X217913928Y-67971451D02*
X217828214Y-67971451D01*
X217828214Y-67971451D02*
X217713928Y-67947642D01*
X217713928Y-67947642D02*
X217656785Y-67923832D01*
X217656785Y-67923832D02*
X217599642Y-67876213D01*
X217599642Y-67876213D02*
X217571071Y-67804785D01*
X217571071Y-67804785D02*
X217571071Y-67757166D01*
X217571071Y-67757166D02*
X217599642Y-67685737D01*
X217599642Y-67685737D02*
X217628214Y-67661928D01*
X218171071Y-67185737D02*
X218171071Y-67471451D01*
X218171071Y-67328594D02*
X217571071Y-67328594D01*
X217571071Y-67328594D02*
X217656785Y-67376213D01*
X217656785Y-67376213D02*
X217713928Y-67423832D01*
X217713928Y-67423832D02*
X217742500Y-67471451D01*
X217628214Y-66995261D02*
X217599642Y-66971452D01*
X217599642Y-66971452D02*
X217571071Y-66923833D01*
X217571071Y-66923833D02*
X217571071Y-66804785D01*
X217571071Y-66804785D02*
X217599642Y-66757166D01*
X217599642Y-66757166D02*
X217628214Y-66733357D01*
X217628214Y-66733357D02*
X217685357Y-66709547D01*
X217685357Y-66709547D02*
X217742500Y-66709547D01*
X217742500Y-66709547D02*
X217828214Y-66733357D01*
X217828214Y-66733357D02*
X218171071Y-67019071D01*
X218171071Y-67019071D02*
X218171071Y-66709547D01*
X211363928Y-67691928D02*
X211392500Y-67715737D01*
X211392500Y-67715737D02*
X211421071Y-67787166D01*
X211421071Y-67787166D02*
X211421071Y-67834785D01*
X211421071Y-67834785D02*
X211392500Y-67906213D01*
X211392500Y-67906213D02*
X211335357Y-67953832D01*
X211335357Y-67953832D02*
X211278214Y-67977642D01*
X211278214Y-67977642D02*
X211163928Y-68001451D01*
X211163928Y-68001451D02*
X211078214Y-68001451D01*
X211078214Y-68001451D02*
X210963928Y-67977642D01*
X210963928Y-67977642D02*
X210906785Y-67953832D01*
X210906785Y-67953832D02*
X210849642Y-67906213D01*
X210849642Y-67906213D02*
X210821071Y-67834785D01*
X210821071Y-67834785D02*
X210821071Y-67787166D01*
X210821071Y-67787166D02*
X210849642Y-67715737D01*
X210849642Y-67715737D02*
X210878214Y-67691928D01*
X211421071Y-67215737D02*
X211421071Y-67501451D01*
X211421071Y-67358594D02*
X210821071Y-67358594D01*
X210821071Y-67358594D02*
X210906785Y-67406213D01*
X210906785Y-67406213D02*
X210963928Y-67453832D01*
X210963928Y-67453832D02*
X210992500Y-67501451D01*
X210821071Y-67049071D02*
X210821071Y-66739547D01*
X210821071Y-66739547D02*
X211049642Y-66906214D01*
X211049642Y-66906214D02*
X211049642Y-66834785D01*
X211049642Y-66834785D02*
X211078214Y-66787166D01*
X211078214Y-66787166D02*
X211106785Y-66763357D01*
X211106785Y-66763357D02*
X211163928Y-66739547D01*
X211163928Y-66739547D02*
X211306785Y-66739547D01*
X211306785Y-66739547D02*
X211363928Y-66763357D01*
X211363928Y-66763357D02*
X211392500Y-66787166D01*
X211392500Y-66787166D02*
X211421071Y-66834785D01*
X211421071Y-66834785D02*
X211421071Y-66977642D01*
X211421071Y-66977642D02*
X211392500Y-67025261D01*
X211392500Y-67025261D02*
X211363928Y-67049071D01*
X162323071Y-71171523D02*
X162323071Y-71409618D01*
X162323071Y-71409618D02*
X161723071Y-71409618D01*
X162008785Y-71004856D02*
X162008785Y-70838189D01*
X162323071Y-70766761D02*
X162323071Y-71004856D01*
X162323071Y-71004856D02*
X161723071Y-71004856D01*
X161723071Y-71004856D02*
X161723071Y-70766761D01*
X162323071Y-70552475D02*
X161723071Y-70552475D01*
X161723071Y-70552475D02*
X161723071Y-70433427D01*
X161723071Y-70433427D02*
X161751642Y-70361999D01*
X161751642Y-70361999D02*
X161808785Y-70314380D01*
X161808785Y-70314380D02*
X161865928Y-70290570D01*
X161865928Y-70290570D02*
X161980214Y-70266761D01*
X161980214Y-70266761D02*
X162065928Y-70266761D01*
X162065928Y-70266761D02*
X162180214Y-70290570D01*
X162180214Y-70290570D02*
X162237357Y-70314380D01*
X162237357Y-70314380D02*
X162294500Y-70361999D01*
X162294500Y-70361999D02*
X162323071Y-70433427D01*
X162323071Y-70433427D02*
X162323071Y-70552475D01*
X161723071Y-69838189D02*
X161723071Y-69933427D01*
X161723071Y-69933427D02*
X161751642Y-69981046D01*
X161751642Y-69981046D02*
X161780214Y-70004856D01*
X161780214Y-70004856D02*
X161865928Y-70052475D01*
X161865928Y-70052475D02*
X161980214Y-70076284D01*
X161980214Y-70076284D02*
X162208785Y-70076284D01*
X162208785Y-70076284D02*
X162265928Y-70052475D01*
X162265928Y-70052475D02*
X162294500Y-70028665D01*
X162294500Y-70028665D02*
X162323071Y-69981046D01*
X162323071Y-69981046D02*
X162323071Y-69885808D01*
X162323071Y-69885808D02*
X162294500Y-69838189D01*
X162294500Y-69838189D02*
X162265928Y-69814380D01*
X162265928Y-69814380D02*
X162208785Y-69790570D01*
X162208785Y-69790570D02*
X162065928Y-69790570D01*
X162065928Y-69790570D02*
X162008785Y-69814380D01*
X162008785Y-69814380D02*
X161980214Y-69838189D01*
X161980214Y-69838189D02*
X161951642Y-69885808D01*
X161951642Y-69885808D02*
X161951642Y-69981046D01*
X161951642Y-69981046D02*
X161980214Y-70028665D01*
X161980214Y-70028665D02*
X162008785Y-70052475D01*
X162008785Y-70052475D02*
X162065928Y-70076284D01*
X173898571Y-58173928D02*
X173874762Y-58202500D01*
X173874762Y-58202500D02*
X173803333Y-58231071D01*
X173803333Y-58231071D02*
X173755714Y-58231071D01*
X173755714Y-58231071D02*
X173684286Y-58202500D01*
X173684286Y-58202500D02*
X173636667Y-58145357D01*
X173636667Y-58145357D02*
X173612857Y-58088214D01*
X173612857Y-58088214D02*
X173589048Y-57973928D01*
X173589048Y-57973928D02*
X173589048Y-57888214D01*
X173589048Y-57888214D02*
X173612857Y-57773928D01*
X173612857Y-57773928D02*
X173636667Y-57716785D01*
X173636667Y-57716785D02*
X173684286Y-57659642D01*
X173684286Y-57659642D02*
X173755714Y-57631071D01*
X173755714Y-57631071D02*
X173803333Y-57631071D01*
X173803333Y-57631071D02*
X173874762Y-57659642D01*
X173874762Y-57659642D02*
X173898571Y-57688214D01*
X174089048Y-57688214D02*
X174112857Y-57659642D01*
X174112857Y-57659642D02*
X174160476Y-57631071D01*
X174160476Y-57631071D02*
X174279524Y-57631071D01*
X174279524Y-57631071D02*
X174327143Y-57659642D01*
X174327143Y-57659642D02*
X174350952Y-57688214D01*
X174350952Y-57688214D02*
X174374762Y-57745357D01*
X174374762Y-57745357D02*
X174374762Y-57802500D01*
X174374762Y-57802500D02*
X174350952Y-57888214D01*
X174350952Y-57888214D02*
X174065238Y-58231071D01*
X174065238Y-58231071D02*
X174374762Y-58231071D01*
X174684285Y-57631071D02*
X174731904Y-57631071D01*
X174731904Y-57631071D02*
X174779523Y-57659642D01*
X174779523Y-57659642D02*
X174803333Y-57688214D01*
X174803333Y-57688214D02*
X174827142Y-57745357D01*
X174827142Y-57745357D02*
X174850952Y-57859642D01*
X174850952Y-57859642D02*
X174850952Y-58002500D01*
X174850952Y-58002500D02*
X174827142Y-58116785D01*
X174827142Y-58116785D02*
X174803333Y-58173928D01*
X174803333Y-58173928D02*
X174779523Y-58202500D01*
X174779523Y-58202500D02*
X174731904Y-58231071D01*
X174731904Y-58231071D02*
X174684285Y-58231071D01*
X174684285Y-58231071D02*
X174636666Y-58202500D01*
X174636666Y-58202500D02*
X174612857Y-58173928D01*
X174612857Y-58173928D02*
X174589047Y-58116785D01*
X174589047Y-58116785D02*
X174565238Y-58002500D01*
X174565238Y-58002500D02*
X174565238Y-57859642D01*
X174565238Y-57859642D02*
X174589047Y-57745357D01*
X174589047Y-57745357D02*
X174612857Y-57688214D01*
X174612857Y-57688214D02*
X174636666Y-57659642D01*
X174636666Y-57659642D02*
X174684285Y-57631071D01*
X169671071Y-56070952D02*
X170156785Y-56070952D01*
X170156785Y-56070952D02*
X170213928Y-56047142D01*
X170213928Y-56047142D02*
X170242500Y-56023333D01*
X170242500Y-56023333D02*
X170271071Y-55975714D01*
X170271071Y-55975714D02*
X170271071Y-55880476D01*
X170271071Y-55880476D02*
X170242500Y-55832857D01*
X170242500Y-55832857D02*
X170213928Y-55809047D01*
X170213928Y-55809047D02*
X170156785Y-55785238D01*
X170156785Y-55785238D02*
X169671071Y-55785238D01*
X169671071Y-55594761D02*
X169671071Y-55261428D01*
X169671071Y-55261428D02*
X170271071Y-55475713D01*
X149800476Y-79431071D02*
X149562381Y-79431071D01*
X149562381Y-79431071D02*
X149562381Y-78831071D01*
X149967143Y-79116785D02*
X150133810Y-79116785D01*
X150205238Y-79431071D02*
X149967143Y-79431071D01*
X149967143Y-79431071D02*
X149967143Y-78831071D01*
X149967143Y-78831071D02*
X150205238Y-78831071D01*
X150419524Y-79431071D02*
X150419524Y-78831071D01*
X150419524Y-78831071D02*
X150538572Y-78831071D01*
X150538572Y-78831071D02*
X150610000Y-78859642D01*
X150610000Y-78859642D02*
X150657619Y-78916785D01*
X150657619Y-78916785D02*
X150681429Y-78973928D01*
X150681429Y-78973928D02*
X150705238Y-79088214D01*
X150705238Y-79088214D02*
X150705238Y-79173928D01*
X150705238Y-79173928D02*
X150681429Y-79288214D01*
X150681429Y-79288214D02*
X150657619Y-79345357D01*
X150657619Y-79345357D02*
X150610000Y-79402500D01*
X150610000Y-79402500D02*
X150538572Y-79431071D01*
X150538572Y-79431071D02*
X150419524Y-79431071D01*
X150871905Y-78831071D02*
X151181429Y-78831071D01*
X151181429Y-78831071D02*
X151014762Y-79059642D01*
X151014762Y-79059642D02*
X151086191Y-79059642D01*
X151086191Y-79059642D02*
X151133810Y-79088214D01*
X151133810Y-79088214D02*
X151157619Y-79116785D01*
X151157619Y-79116785D02*
X151181429Y-79173928D01*
X151181429Y-79173928D02*
X151181429Y-79316785D01*
X151181429Y-79316785D02*
X151157619Y-79373928D01*
X151157619Y-79373928D02*
X151133810Y-79402500D01*
X151133810Y-79402500D02*
X151086191Y-79431071D01*
X151086191Y-79431071D02*
X150943334Y-79431071D01*
X150943334Y-79431071D02*
X150895715Y-79402500D01*
X150895715Y-79402500D02*
X150871905Y-79373928D01*
X160086666Y-85421071D02*
X159920000Y-85135357D01*
X159800952Y-85421071D02*
X159800952Y-84821071D01*
X159800952Y-84821071D02*
X159991428Y-84821071D01*
X159991428Y-84821071D02*
X160039047Y-84849642D01*
X160039047Y-84849642D02*
X160062857Y-84878214D01*
X160062857Y-84878214D02*
X160086666Y-84935357D01*
X160086666Y-84935357D02*
X160086666Y-85021071D01*
X160086666Y-85021071D02*
X160062857Y-85078214D01*
X160062857Y-85078214D02*
X160039047Y-85106785D01*
X160039047Y-85106785D02*
X159991428Y-85135357D01*
X159991428Y-85135357D02*
X159800952Y-85135357D01*
X160277143Y-84878214D02*
X160300952Y-84849642D01*
X160300952Y-84849642D02*
X160348571Y-84821071D01*
X160348571Y-84821071D02*
X160467619Y-84821071D01*
X160467619Y-84821071D02*
X160515238Y-84849642D01*
X160515238Y-84849642D02*
X160539047Y-84878214D01*
X160539047Y-84878214D02*
X160562857Y-84935357D01*
X160562857Y-84935357D02*
X160562857Y-84992500D01*
X160562857Y-84992500D02*
X160539047Y-85078214D01*
X160539047Y-85078214D02*
X160253333Y-85421071D01*
X160253333Y-85421071D02*
X160562857Y-85421071D01*
X159736666Y-97963928D02*
X159712857Y-97992500D01*
X159712857Y-97992500D02*
X159641428Y-98021071D01*
X159641428Y-98021071D02*
X159593809Y-98021071D01*
X159593809Y-98021071D02*
X159522381Y-97992500D01*
X159522381Y-97992500D02*
X159474762Y-97935357D01*
X159474762Y-97935357D02*
X159450952Y-97878214D01*
X159450952Y-97878214D02*
X159427143Y-97763928D01*
X159427143Y-97763928D02*
X159427143Y-97678214D01*
X159427143Y-97678214D02*
X159450952Y-97563928D01*
X159450952Y-97563928D02*
X159474762Y-97506785D01*
X159474762Y-97506785D02*
X159522381Y-97449642D01*
X159522381Y-97449642D02*
X159593809Y-97421071D01*
X159593809Y-97421071D02*
X159641428Y-97421071D01*
X159641428Y-97421071D02*
X159712857Y-97449642D01*
X159712857Y-97449642D02*
X159736666Y-97478214D01*
X160165238Y-97421071D02*
X160070000Y-97421071D01*
X160070000Y-97421071D02*
X160022381Y-97449642D01*
X160022381Y-97449642D02*
X159998571Y-97478214D01*
X159998571Y-97478214D02*
X159950952Y-97563928D01*
X159950952Y-97563928D02*
X159927143Y-97678214D01*
X159927143Y-97678214D02*
X159927143Y-97906785D01*
X159927143Y-97906785D02*
X159950952Y-97963928D01*
X159950952Y-97963928D02*
X159974762Y-97992500D01*
X159974762Y-97992500D02*
X160022381Y-98021071D01*
X160022381Y-98021071D02*
X160117619Y-98021071D01*
X160117619Y-98021071D02*
X160165238Y-97992500D01*
X160165238Y-97992500D02*
X160189047Y-97963928D01*
X160189047Y-97963928D02*
X160212857Y-97906785D01*
X160212857Y-97906785D02*
X160212857Y-97763928D01*
X160212857Y-97763928D02*
X160189047Y-97706785D01*
X160189047Y-97706785D02*
X160165238Y-97678214D01*
X160165238Y-97678214D02*
X160117619Y-97649642D01*
X160117619Y-97649642D02*
X160022381Y-97649642D01*
X160022381Y-97649642D02*
X159974762Y-97678214D01*
X159974762Y-97678214D02*
X159950952Y-97706785D01*
X159950952Y-97706785D02*
X159927143Y-97763928D01*
X149608571Y-65521071D02*
X149441905Y-65235357D01*
X149322857Y-65521071D02*
X149322857Y-64921071D01*
X149322857Y-64921071D02*
X149513333Y-64921071D01*
X149513333Y-64921071D02*
X149560952Y-64949642D01*
X149560952Y-64949642D02*
X149584762Y-64978214D01*
X149584762Y-64978214D02*
X149608571Y-65035357D01*
X149608571Y-65035357D02*
X149608571Y-65121071D01*
X149608571Y-65121071D02*
X149584762Y-65178214D01*
X149584762Y-65178214D02*
X149560952Y-65206785D01*
X149560952Y-65206785D02*
X149513333Y-65235357D01*
X149513333Y-65235357D02*
X149322857Y-65235357D01*
X150084762Y-65521071D02*
X149799048Y-65521071D01*
X149941905Y-65521071D02*
X149941905Y-64921071D01*
X149941905Y-64921071D02*
X149894286Y-65006785D01*
X149894286Y-65006785D02*
X149846667Y-65063928D01*
X149846667Y-65063928D02*
X149799048Y-65092500D01*
X150394285Y-64921071D02*
X150441904Y-64921071D01*
X150441904Y-64921071D02*
X150489523Y-64949642D01*
X150489523Y-64949642D02*
X150513333Y-64978214D01*
X150513333Y-64978214D02*
X150537142Y-65035357D01*
X150537142Y-65035357D02*
X150560952Y-65149642D01*
X150560952Y-65149642D02*
X150560952Y-65292500D01*
X150560952Y-65292500D02*
X150537142Y-65406785D01*
X150537142Y-65406785D02*
X150513333Y-65463928D01*
X150513333Y-65463928D02*
X150489523Y-65492500D01*
X150489523Y-65492500D02*
X150441904Y-65521071D01*
X150441904Y-65521071D02*
X150394285Y-65521071D01*
X150394285Y-65521071D02*
X150346666Y-65492500D01*
X150346666Y-65492500D02*
X150322857Y-65463928D01*
X150322857Y-65463928D02*
X150299047Y-65406785D01*
X150299047Y-65406785D02*
X150275238Y-65292500D01*
X150275238Y-65292500D02*
X150275238Y-65149642D01*
X150275238Y-65149642D02*
X150299047Y-65035357D01*
X150299047Y-65035357D02*
X150322857Y-64978214D01*
X150322857Y-64978214D02*
X150346666Y-64949642D01*
X150346666Y-64949642D02*
X150394285Y-64921071D01*
X143205071Y-64144523D02*
X143205071Y-64382618D01*
X143205071Y-64382618D02*
X142605071Y-64382618D01*
X142890785Y-63977856D02*
X142890785Y-63811189D01*
X143205071Y-63739761D02*
X143205071Y-63977856D01*
X143205071Y-63977856D02*
X142605071Y-63977856D01*
X142605071Y-63977856D02*
X142605071Y-63739761D01*
X143205071Y-63525475D02*
X142605071Y-63525475D01*
X142605071Y-63525475D02*
X142605071Y-63406427D01*
X142605071Y-63406427D02*
X142633642Y-63334999D01*
X142633642Y-63334999D02*
X142690785Y-63287380D01*
X142690785Y-63287380D02*
X142747928Y-63263570D01*
X142747928Y-63263570D02*
X142862214Y-63239761D01*
X142862214Y-63239761D02*
X142947928Y-63239761D01*
X142947928Y-63239761D02*
X143062214Y-63263570D01*
X143062214Y-63263570D02*
X143119357Y-63287380D01*
X143119357Y-63287380D02*
X143176500Y-63334999D01*
X143176500Y-63334999D02*
X143205071Y-63406427D01*
X143205071Y-63406427D02*
X143205071Y-63525475D01*
X142805071Y-62811189D02*
X143205071Y-62811189D01*
X142576500Y-62930237D02*
X143005071Y-63049284D01*
X143005071Y-63049284D02*
X143005071Y-62739761D01*
X170434047Y-70664071D02*
X170434047Y-71149785D01*
X170434047Y-71149785D02*
X170457857Y-71206928D01*
X170457857Y-71206928D02*
X170481666Y-71235500D01*
X170481666Y-71235500D02*
X170529285Y-71264071D01*
X170529285Y-71264071D02*
X170624523Y-71264071D01*
X170624523Y-71264071D02*
X170672142Y-71235500D01*
X170672142Y-71235500D02*
X170695952Y-71206928D01*
X170695952Y-71206928D02*
X170719761Y-71149785D01*
X170719761Y-71149785D02*
X170719761Y-70664071D01*
X171172143Y-70864071D02*
X171172143Y-71264071D01*
X171053095Y-70635500D02*
X170934048Y-71064071D01*
X170934048Y-71064071D02*
X171243571Y-71064071D01*
X163466071Y-91142333D02*
X163180357Y-91308999D01*
X163466071Y-91428047D02*
X162866071Y-91428047D01*
X162866071Y-91428047D02*
X162866071Y-91237571D01*
X162866071Y-91237571D02*
X162894642Y-91189952D01*
X162894642Y-91189952D02*
X162923214Y-91166142D01*
X162923214Y-91166142D02*
X162980357Y-91142333D01*
X162980357Y-91142333D02*
X163066071Y-91142333D01*
X163066071Y-91142333D02*
X163123214Y-91166142D01*
X163123214Y-91166142D02*
X163151785Y-91189952D01*
X163151785Y-91189952D02*
X163180357Y-91237571D01*
X163180357Y-91237571D02*
X163180357Y-91428047D01*
X163066071Y-90713761D02*
X163466071Y-90713761D01*
X162837500Y-90832809D02*
X163266071Y-90951856D01*
X163266071Y-90951856D02*
X163266071Y-90642333D01*
X179381071Y-93641428D02*
X179095357Y-93808094D01*
X179381071Y-93927142D02*
X178781071Y-93927142D01*
X178781071Y-93927142D02*
X178781071Y-93736666D01*
X178781071Y-93736666D02*
X178809642Y-93689047D01*
X178809642Y-93689047D02*
X178838214Y-93665237D01*
X178838214Y-93665237D02*
X178895357Y-93641428D01*
X178895357Y-93641428D02*
X178981071Y-93641428D01*
X178981071Y-93641428D02*
X179038214Y-93665237D01*
X179038214Y-93665237D02*
X179066785Y-93689047D01*
X179066785Y-93689047D02*
X179095357Y-93736666D01*
X179095357Y-93736666D02*
X179095357Y-93927142D01*
X178781071Y-93474761D02*
X178781071Y-93165237D01*
X178781071Y-93165237D02*
X179009642Y-93331904D01*
X179009642Y-93331904D02*
X179009642Y-93260475D01*
X179009642Y-93260475D02*
X179038214Y-93212856D01*
X179038214Y-93212856D02*
X179066785Y-93189047D01*
X179066785Y-93189047D02*
X179123928Y-93165237D01*
X179123928Y-93165237D02*
X179266785Y-93165237D01*
X179266785Y-93165237D02*
X179323928Y-93189047D01*
X179323928Y-93189047D02*
X179352500Y-93212856D01*
X179352500Y-93212856D02*
X179381071Y-93260475D01*
X179381071Y-93260475D02*
X179381071Y-93403332D01*
X179381071Y-93403332D02*
X179352500Y-93450951D01*
X179352500Y-93450951D02*
X179323928Y-93474761D01*
X178838214Y-92974761D02*
X178809642Y-92950952D01*
X178809642Y-92950952D02*
X178781071Y-92903333D01*
X178781071Y-92903333D02*
X178781071Y-92784285D01*
X178781071Y-92784285D02*
X178809642Y-92736666D01*
X178809642Y-92736666D02*
X178838214Y-92712857D01*
X178838214Y-92712857D02*
X178895357Y-92689047D01*
X178895357Y-92689047D02*
X178952500Y-92689047D01*
X178952500Y-92689047D02*
X179038214Y-92712857D01*
X179038214Y-92712857D02*
X179381071Y-92998571D01*
X179381071Y-92998571D02*
X179381071Y-92689047D01*
X173775071Y-82041952D02*
X174260785Y-82041952D01*
X174260785Y-82041952D02*
X174317928Y-82018142D01*
X174317928Y-82018142D02*
X174346500Y-81994333D01*
X174346500Y-81994333D02*
X174375071Y-81946714D01*
X174375071Y-81946714D02*
X174375071Y-81851476D01*
X174375071Y-81851476D02*
X174346500Y-81803857D01*
X174346500Y-81803857D02*
X174317928Y-81780047D01*
X174317928Y-81780047D02*
X174260785Y-81756238D01*
X174260785Y-81756238D02*
X173775071Y-81756238D01*
X173775071Y-81280047D02*
X173775071Y-81518142D01*
X173775071Y-81518142D02*
X174060785Y-81541951D01*
X174060785Y-81541951D02*
X174032214Y-81518142D01*
X174032214Y-81518142D02*
X174003642Y-81470523D01*
X174003642Y-81470523D02*
X174003642Y-81351475D01*
X174003642Y-81351475D02*
X174032214Y-81303856D01*
X174032214Y-81303856D02*
X174060785Y-81280047D01*
X174060785Y-81280047D02*
X174117928Y-81256237D01*
X174117928Y-81256237D02*
X174260785Y-81256237D01*
X174260785Y-81256237D02*
X174317928Y-81280047D01*
X174317928Y-81280047D02*
X174346500Y-81303856D01*
X174346500Y-81303856D02*
X174375071Y-81351475D01*
X174375071Y-81351475D02*
X174375071Y-81470523D01*
X174375071Y-81470523D02*
X174346500Y-81518142D01*
X174346500Y-81518142D02*
X174317928Y-81541951D01*
X191823928Y-72156428D02*
X191852500Y-72180237D01*
X191852500Y-72180237D02*
X191881071Y-72251666D01*
X191881071Y-72251666D02*
X191881071Y-72299285D01*
X191881071Y-72299285D02*
X191852500Y-72370713D01*
X191852500Y-72370713D02*
X191795357Y-72418332D01*
X191795357Y-72418332D02*
X191738214Y-72442142D01*
X191738214Y-72442142D02*
X191623928Y-72465951D01*
X191623928Y-72465951D02*
X191538214Y-72465951D01*
X191538214Y-72465951D02*
X191423928Y-72442142D01*
X191423928Y-72442142D02*
X191366785Y-72418332D01*
X191366785Y-72418332D02*
X191309642Y-72370713D01*
X191309642Y-72370713D02*
X191281071Y-72299285D01*
X191281071Y-72299285D02*
X191281071Y-72251666D01*
X191281071Y-72251666D02*
X191309642Y-72180237D01*
X191309642Y-72180237D02*
X191338214Y-72156428D01*
X191881071Y-71680237D02*
X191881071Y-71965951D01*
X191881071Y-71823094D02*
X191281071Y-71823094D01*
X191281071Y-71823094D02*
X191366785Y-71870713D01*
X191366785Y-71870713D02*
X191423928Y-71918332D01*
X191423928Y-71918332D02*
X191452500Y-71965951D01*
X191881071Y-71204047D02*
X191881071Y-71489761D01*
X191881071Y-71346904D02*
X191281071Y-71346904D01*
X191281071Y-71346904D02*
X191366785Y-71394523D01*
X191366785Y-71394523D02*
X191423928Y-71442142D01*
X191423928Y-71442142D02*
X191452500Y-71489761D01*
X156286666Y-79533928D02*
X156262857Y-79562500D01*
X156262857Y-79562500D02*
X156191428Y-79591071D01*
X156191428Y-79591071D02*
X156143809Y-79591071D01*
X156143809Y-79591071D02*
X156072381Y-79562500D01*
X156072381Y-79562500D02*
X156024762Y-79505357D01*
X156024762Y-79505357D02*
X156000952Y-79448214D01*
X156000952Y-79448214D02*
X155977143Y-79333928D01*
X155977143Y-79333928D02*
X155977143Y-79248214D01*
X155977143Y-79248214D02*
X156000952Y-79133928D01*
X156000952Y-79133928D02*
X156024762Y-79076785D01*
X156024762Y-79076785D02*
X156072381Y-79019642D01*
X156072381Y-79019642D02*
X156143809Y-78991071D01*
X156143809Y-78991071D02*
X156191428Y-78991071D01*
X156191428Y-78991071D02*
X156262857Y-79019642D01*
X156262857Y-79019642D02*
X156286666Y-79048214D01*
X156477143Y-79048214D02*
X156500952Y-79019642D01*
X156500952Y-79019642D02*
X156548571Y-78991071D01*
X156548571Y-78991071D02*
X156667619Y-78991071D01*
X156667619Y-78991071D02*
X156715238Y-79019642D01*
X156715238Y-79019642D02*
X156739047Y-79048214D01*
X156739047Y-79048214D02*
X156762857Y-79105357D01*
X156762857Y-79105357D02*
X156762857Y-79162500D01*
X156762857Y-79162500D02*
X156739047Y-79248214D01*
X156739047Y-79248214D02*
X156453333Y-79591071D01*
X156453333Y-79591071D02*
X156762857Y-79591071D01*
X192488571Y-76686071D02*
X192321905Y-76400357D01*
X192202857Y-76686071D02*
X192202857Y-76086071D01*
X192202857Y-76086071D02*
X192393333Y-76086071D01*
X192393333Y-76086071D02*
X192440952Y-76114642D01*
X192440952Y-76114642D02*
X192464762Y-76143214D01*
X192464762Y-76143214D02*
X192488571Y-76200357D01*
X192488571Y-76200357D02*
X192488571Y-76286071D01*
X192488571Y-76286071D02*
X192464762Y-76343214D01*
X192464762Y-76343214D02*
X192440952Y-76371785D01*
X192440952Y-76371785D02*
X192393333Y-76400357D01*
X192393333Y-76400357D02*
X192202857Y-76400357D01*
X192964762Y-76686071D02*
X192679048Y-76686071D01*
X192821905Y-76686071D02*
X192821905Y-76086071D01*
X192821905Y-76086071D02*
X192774286Y-76171785D01*
X192774286Y-76171785D02*
X192726667Y-76228928D01*
X192726667Y-76228928D02*
X192679048Y-76257500D01*
X193131428Y-76086071D02*
X193440952Y-76086071D01*
X193440952Y-76086071D02*
X193274285Y-76314642D01*
X193274285Y-76314642D02*
X193345714Y-76314642D01*
X193345714Y-76314642D02*
X193393333Y-76343214D01*
X193393333Y-76343214D02*
X193417142Y-76371785D01*
X193417142Y-76371785D02*
X193440952Y-76428928D01*
X193440952Y-76428928D02*
X193440952Y-76571785D01*
X193440952Y-76571785D02*
X193417142Y-76628928D01*
X193417142Y-76628928D02*
X193393333Y-76657500D01*
X193393333Y-76657500D02*
X193345714Y-76686071D01*
X193345714Y-76686071D02*
X193202857Y-76686071D01*
X193202857Y-76686071D02*
X193155238Y-76657500D01*
X193155238Y-76657500D02*
X193131428Y-76628928D01*
X168800071Y-71171523D02*
X168800071Y-71409618D01*
X168800071Y-71409618D02*
X168200071Y-71409618D01*
X168485785Y-71004856D02*
X168485785Y-70838189D01*
X168800071Y-70766761D02*
X168800071Y-71004856D01*
X168800071Y-71004856D02*
X168200071Y-71004856D01*
X168200071Y-71004856D02*
X168200071Y-70766761D01*
X168800071Y-70552475D02*
X168200071Y-70552475D01*
X168200071Y-70552475D02*
X168200071Y-70433427D01*
X168200071Y-70433427D02*
X168228642Y-70361999D01*
X168228642Y-70361999D02*
X168285785Y-70314380D01*
X168285785Y-70314380D02*
X168342928Y-70290570D01*
X168342928Y-70290570D02*
X168457214Y-70266761D01*
X168457214Y-70266761D02*
X168542928Y-70266761D01*
X168542928Y-70266761D02*
X168657214Y-70290570D01*
X168657214Y-70290570D02*
X168714357Y-70314380D01*
X168714357Y-70314380D02*
X168771500Y-70361999D01*
X168771500Y-70361999D02*
X168800071Y-70433427D01*
X168800071Y-70433427D02*
X168800071Y-70552475D01*
X168200071Y-69814380D02*
X168200071Y-70052475D01*
X168200071Y-70052475D02*
X168485785Y-70076284D01*
X168485785Y-70076284D02*
X168457214Y-70052475D01*
X168457214Y-70052475D02*
X168428642Y-70004856D01*
X168428642Y-70004856D02*
X168428642Y-69885808D01*
X168428642Y-69885808D02*
X168457214Y-69838189D01*
X168457214Y-69838189D02*
X168485785Y-69814380D01*
X168485785Y-69814380D02*
X168542928Y-69790570D01*
X168542928Y-69790570D02*
X168685785Y-69790570D01*
X168685785Y-69790570D02*
X168742928Y-69814380D01*
X168742928Y-69814380D02*
X168771500Y-69838189D01*
X168771500Y-69838189D02*
X168800071Y-69885808D01*
X168800071Y-69885808D02*
X168800071Y-70004856D01*
X168800071Y-70004856D02*
X168771500Y-70052475D01*
X168771500Y-70052475D02*
X168742928Y-70076284D01*
X161801071Y-60361428D02*
X161515357Y-60528094D01*
X161801071Y-60647142D02*
X161201071Y-60647142D01*
X161201071Y-60647142D02*
X161201071Y-60456666D01*
X161201071Y-60456666D02*
X161229642Y-60409047D01*
X161229642Y-60409047D02*
X161258214Y-60385237D01*
X161258214Y-60385237D02*
X161315357Y-60361428D01*
X161315357Y-60361428D02*
X161401071Y-60361428D01*
X161401071Y-60361428D02*
X161458214Y-60385237D01*
X161458214Y-60385237D02*
X161486785Y-60409047D01*
X161486785Y-60409047D02*
X161515357Y-60456666D01*
X161515357Y-60456666D02*
X161515357Y-60647142D01*
X161258214Y-60170951D02*
X161229642Y-60147142D01*
X161229642Y-60147142D02*
X161201071Y-60099523D01*
X161201071Y-60099523D02*
X161201071Y-59980475D01*
X161201071Y-59980475D02*
X161229642Y-59932856D01*
X161229642Y-59932856D02*
X161258214Y-59909047D01*
X161258214Y-59909047D02*
X161315357Y-59885237D01*
X161315357Y-59885237D02*
X161372500Y-59885237D01*
X161372500Y-59885237D02*
X161458214Y-59909047D01*
X161458214Y-59909047D02*
X161801071Y-60194761D01*
X161801071Y-60194761D02*
X161801071Y-59885237D01*
X161201071Y-59718571D02*
X161201071Y-59385238D01*
X161201071Y-59385238D02*
X161801071Y-59599523D01*
X146198333Y-90566071D02*
X146198333Y-90994642D01*
X146198333Y-90994642D02*
X146174524Y-91080357D01*
X146174524Y-91080357D02*
X146126905Y-91137500D01*
X146126905Y-91137500D02*
X146055476Y-91166071D01*
X146055476Y-91166071D02*
X146007857Y-91166071D01*
X146412619Y-90623214D02*
X146436428Y-90594642D01*
X146436428Y-90594642D02*
X146484047Y-90566071D01*
X146484047Y-90566071D02*
X146603095Y-90566071D01*
X146603095Y-90566071D02*
X146650714Y-90594642D01*
X146650714Y-90594642D02*
X146674523Y-90623214D01*
X146674523Y-90623214D02*
X146698333Y-90680357D01*
X146698333Y-90680357D02*
X146698333Y-90737500D01*
X146698333Y-90737500D02*
X146674523Y-90823214D01*
X146674523Y-90823214D02*
X146388809Y-91166071D01*
X146388809Y-91166071D02*
X146698333Y-91166071D01*
X171308571Y-58221071D02*
X171141905Y-57935357D01*
X171022857Y-58221071D02*
X171022857Y-57621071D01*
X171022857Y-57621071D02*
X171213333Y-57621071D01*
X171213333Y-57621071D02*
X171260952Y-57649642D01*
X171260952Y-57649642D02*
X171284762Y-57678214D01*
X171284762Y-57678214D02*
X171308571Y-57735357D01*
X171308571Y-57735357D02*
X171308571Y-57821071D01*
X171308571Y-57821071D02*
X171284762Y-57878214D01*
X171284762Y-57878214D02*
X171260952Y-57906785D01*
X171260952Y-57906785D02*
X171213333Y-57935357D01*
X171213333Y-57935357D02*
X171022857Y-57935357D01*
X171475238Y-57621071D02*
X171784762Y-57621071D01*
X171784762Y-57621071D02*
X171618095Y-57849642D01*
X171618095Y-57849642D02*
X171689524Y-57849642D01*
X171689524Y-57849642D02*
X171737143Y-57878214D01*
X171737143Y-57878214D02*
X171760952Y-57906785D01*
X171760952Y-57906785D02*
X171784762Y-57963928D01*
X171784762Y-57963928D02*
X171784762Y-58106785D01*
X171784762Y-58106785D02*
X171760952Y-58163928D01*
X171760952Y-58163928D02*
X171737143Y-58192500D01*
X171737143Y-58192500D02*
X171689524Y-58221071D01*
X171689524Y-58221071D02*
X171546667Y-58221071D01*
X171546667Y-58221071D02*
X171499048Y-58192500D01*
X171499048Y-58192500D02*
X171475238Y-58163928D01*
X172260952Y-58221071D02*
X171975238Y-58221071D01*
X172118095Y-58221071D02*
X172118095Y-57621071D01*
X172118095Y-57621071D02*
X172070476Y-57706785D01*
X172070476Y-57706785D02*
X172022857Y-57763928D01*
X172022857Y-57763928D02*
X171975238Y-57792500D01*
D16*
X150695381Y-51568331D02*
X150695381Y-50968331D01*
X150695381Y-50968331D02*
X150962047Y-51396902D01*
X150962047Y-51396902D02*
X151228714Y-50968331D01*
X151228714Y-50968331D02*
X151228714Y-51568331D01*
X151609667Y-51568331D02*
X151609667Y-50968331D01*
X152066810Y-51568331D02*
X151723952Y-51225474D01*
X152066810Y-50968331D02*
X151609667Y-51311188D01*
X152828714Y-51568331D02*
X152371571Y-51568331D01*
X152600143Y-51568331D02*
X152600143Y-50968331D01*
X152600143Y-50968331D02*
X152523952Y-51054045D01*
X152523952Y-51054045D02*
X152447762Y-51111188D01*
X152447762Y-51111188D02*
X152371571Y-51139760D01*
D15*
X156821071Y-56681428D02*
X156535357Y-56848094D01*
X156821071Y-56967142D02*
X156221071Y-56967142D01*
X156221071Y-56967142D02*
X156221071Y-56776666D01*
X156221071Y-56776666D02*
X156249642Y-56729047D01*
X156249642Y-56729047D02*
X156278214Y-56705237D01*
X156278214Y-56705237D02*
X156335357Y-56681428D01*
X156335357Y-56681428D02*
X156421071Y-56681428D01*
X156421071Y-56681428D02*
X156478214Y-56705237D01*
X156478214Y-56705237D02*
X156506785Y-56729047D01*
X156506785Y-56729047D02*
X156535357Y-56776666D01*
X156535357Y-56776666D02*
X156535357Y-56967142D01*
X156278214Y-56490951D02*
X156249642Y-56467142D01*
X156249642Y-56467142D02*
X156221071Y-56419523D01*
X156221071Y-56419523D02*
X156221071Y-56300475D01*
X156221071Y-56300475D02*
X156249642Y-56252856D01*
X156249642Y-56252856D02*
X156278214Y-56229047D01*
X156278214Y-56229047D02*
X156335357Y-56205237D01*
X156335357Y-56205237D02*
X156392500Y-56205237D01*
X156392500Y-56205237D02*
X156478214Y-56229047D01*
X156478214Y-56229047D02*
X156821071Y-56514761D01*
X156821071Y-56514761D02*
X156821071Y-56205237D01*
X156478214Y-55919523D02*
X156449642Y-55967142D01*
X156449642Y-55967142D02*
X156421071Y-55990952D01*
X156421071Y-55990952D02*
X156363928Y-56014761D01*
X156363928Y-56014761D02*
X156335357Y-56014761D01*
X156335357Y-56014761D02*
X156278214Y-55990952D01*
X156278214Y-55990952D02*
X156249642Y-55967142D01*
X156249642Y-55967142D02*
X156221071Y-55919523D01*
X156221071Y-55919523D02*
X156221071Y-55824285D01*
X156221071Y-55824285D02*
X156249642Y-55776666D01*
X156249642Y-55776666D02*
X156278214Y-55752857D01*
X156278214Y-55752857D02*
X156335357Y-55729047D01*
X156335357Y-55729047D02*
X156363928Y-55729047D01*
X156363928Y-55729047D02*
X156421071Y-55752857D01*
X156421071Y-55752857D02*
X156449642Y-55776666D01*
X156449642Y-55776666D02*
X156478214Y-55824285D01*
X156478214Y-55824285D02*
X156478214Y-55919523D01*
X156478214Y-55919523D02*
X156506785Y-55967142D01*
X156506785Y-55967142D02*
X156535357Y-55990952D01*
X156535357Y-55990952D02*
X156592500Y-56014761D01*
X156592500Y-56014761D02*
X156706785Y-56014761D01*
X156706785Y-56014761D02*
X156763928Y-55990952D01*
X156763928Y-55990952D02*
X156792500Y-55967142D01*
X156792500Y-55967142D02*
X156821071Y-55919523D01*
X156821071Y-55919523D02*
X156821071Y-55824285D01*
X156821071Y-55824285D02*
X156792500Y-55776666D01*
X156792500Y-55776666D02*
X156763928Y-55752857D01*
X156763928Y-55752857D02*
X156706785Y-55729047D01*
X156706785Y-55729047D02*
X156592500Y-55729047D01*
X156592500Y-55729047D02*
X156535357Y-55752857D01*
X156535357Y-55752857D02*
X156506785Y-55776666D01*
X156506785Y-55776666D02*
X156478214Y-55824285D01*
X193942500Y-98440951D02*
X193971071Y-98369523D01*
X193971071Y-98369523D02*
X193971071Y-98250475D01*
X193971071Y-98250475D02*
X193942500Y-98202856D01*
X193942500Y-98202856D02*
X193913928Y-98179047D01*
X193913928Y-98179047D02*
X193856785Y-98155237D01*
X193856785Y-98155237D02*
X193799642Y-98155237D01*
X193799642Y-98155237D02*
X193742500Y-98179047D01*
X193742500Y-98179047D02*
X193713928Y-98202856D01*
X193713928Y-98202856D02*
X193685357Y-98250475D01*
X193685357Y-98250475D02*
X193656785Y-98345713D01*
X193656785Y-98345713D02*
X193628214Y-98393332D01*
X193628214Y-98393332D02*
X193599642Y-98417142D01*
X193599642Y-98417142D02*
X193542500Y-98440951D01*
X193542500Y-98440951D02*
X193485357Y-98440951D01*
X193485357Y-98440951D02*
X193428214Y-98417142D01*
X193428214Y-98417142D02*
X193399642Y-98393332D01*
X193399642Y-98393332D02*
X193371071Y-98345713D01*
X193371071Y-98345713D02*
X193371071Y-98226666D01*
X193371071Y-98226666D02*
X193399642Y-98155237D01*
X193971071Y-97679047D02*
X193971071Y-97964761D01*
X193971071Y-97821904D02*
X193371071Y-97821904D01*
X193371071Y-97821904D02*
X193456785Y-97869523D01*
X193456785Y-97869523D02*
X193513928Y-97917142D01*
X193513928Y-97917142D02*
X193542500Y-97964761D01*
X222168571Y-70521571D02*
X222001905Y-70235857D01*
X221882857Y-70521571D02*
X221882857Y-69921571D01*
X221882857Y-69921571D02*
X222073333Y-69921571D01*
X222073333Y-69921571D02*
X222120952Y-69950142D01*
X222120952Y-69950142D02*
X222144762Y-69978714D01*
X222144762Y-69978714D02*
X222168571Y-70035857D01*
X222168571Y-70035857D02*
X222168571Y-70121571D01*
X222168571Y-70121571D02*
X222144762Y-70178714D01*
X222144762Y-70178714D02*
X222120952Y-70207285D01*
X222120952Y-70207285D02*
X222073333Y-70235857D01*
X222073333Y-70235857D02*
X221882857Y-70235857D01*
X222644762Y-70521571D02*
X222359048Y-70521571D01*
X222501905Y-70521571D02*
X222501905Y-69921571D01*
X222501905Y-69921571D02*
X222454286Y-70007285D01*
X222454286Y-70007285D02*
X222406667Y-70064428D01*
X222406667Y-70064428D02*
X222359048Y-70093000D01*
X222882857Y-70521571D02*
X222978095Y-70521571D01*
X222978095Y-70521571D02*
X223025714Y-70493000D01*
X223025714Y-70493000D02*
X223049523Y-70464428D01*
X223049523Y-70464428D02*
X223097142Y-70378714D01*
X223097142Y-70378714D02*
X223120952Y-70264428D01*
X223120952Y-70264428D02*
X223120952Y-70035857D01*
X223120952Y-70035857D02*
X223097142Y-69978714D01*
X223097142Y-69978714D02*
X223073333Y-69950142D01*
X223073333Y-69950142D02*
X223025714Y-69921571D01*
X223025714Y-69921571D02*
X222930476Y-69921571D01*
X222930476Y-69921571D02*
X222882857Y-69950142D01*
X222882857Y-69950142D02*
X222859047Y-69978714D01*
X222859047Y-69978714D02*
X222835238Y-70035857D01*
X222835238Y-70035857D02*
X222835238Y-70178714D01*
X222835238Y-70178714D02*
X222859047Y-70235857D01*
X222859047Y-70235857D02*
X222882857Y-70264428D01*
X222882857Y-70264428D02*
X222930476Y-70293000D01*
X222930476Y-70293000D02*
X223025714Y-70293000D01*
X223025714Y-70293000D02*
X223073333Y-70264428D01*
X223073333Y-70264428D02*
X223097142Y-70235857D01*
X223097142Y-70235857D02*
X223120952Y-70178714D01*
X160026666Y-73783928D02*
X160002857Y-73812500D01*
X160002857Y-73812500D02*
X159931428Y-73841071D01*
X159931428Y-73841071D02*
X159883809Y-73841071D01*
X159883809Y-73841071D02*
X159812381Y-73812500D01*
X159812381Y-73812500D02*
X159764762Y-73755357D01*
X159764762Y-73755357D02*
X159740952Y-73698214D01*
X159740952Y-73698214D02*
X159717143Y-73583928D01*
X159717143Y-73583928D02*
X159717143Y-73498214D01*
X159717143Y-73498214D02*
X159740952Y-73383928D01*
X159740952Y-73383928D02*
X159764762Y-73326785D01*
X159764762Y-73326785D02*
X159812381Y-73269642D01*
X159812381Y-73269642D02*
X159883809Y-73241071D01*
X159883809Y-73241071D02*
X159931428Y-73241071D01*
X159931428Y-73241071D02*
X160002857Y-73269642D01*
X160002857Y-73269642D02*
X160026666Y-73298214D01*
X160193333Y-73241071D02*
X160502857Y-73241071D01*
X160502857Y-73241071D02*
X160336190Y-73469642D01*
X160336190Y-73469642D02*
X160407619Y-73469642D01*
X160407619Y-73469642D02*
X160455238Y-73498214D01*
X160455238Y-73498214D02*
X160479047Y-73526785D01*
X160479047Y-73526785D02*
X160502857Y-73583928D01*
X160502857Y-73583928D02*
X160502857Y-73726785D01*
X160502857Y-73726785D02*
X160479047Y-73783928D01*
X160479047Y-73783928D02*
X160455238Y-73812500D01*
X160455238Y-73812500D02*
X160407619Y-73841071D01*
X160407619Y-73841071D02*
X160264762Y-73841071D01*
X160264762Y-73841071D02*
X160217143Y-73812500D01*
X160217143Y-73812500D02*
X160193333Y-73783928D01*
X185462500Y-98300951D02*
X185491071Y-98229523D01*
X185491071Y-98229523D02*
X185491071Y-98110475D01*
X185491071Y-98110475D02*
X185462500Y-98062856D01*
X185462500Y-98062856D02*
X185433928Y-98039047D01*
X185433928Y-98039047D02*
X185376785Y-98015237D01*
X185376785Y-98015237D02*
X185319642Y-98015237D01*
X185319642Y-98015237D02*
X185262500Y-98039047D01*
X185262500Y-98039047D02*
X185233928Y-98062856D01*
X185233928Y-98062856D02*
X185205357Y-98110475D01*
X185205357Y-98110475D02*
X185176785Y-98205713D01*
X185176785Y-98205713D02*
X185148214Y-98253332D01*
X185148214Y-98253332D02*
X185119642Y-98277142D01*
X185119642Y-98277142D02*
X185062500Y-98300951D01*
X185062500Y-98300951D02*
X185005357Y-98300951D01*
X185005357Y-98300951D02*
X184948214Y-98277142D01*
X184948214Y-98277142D02*
X184919642Y-98253332D01*
X184919642Y-98253332D02*
X184891071Y-98205713D01*
X184891071Y-98205713D02*
X184891071Y-98086666D01*
X184891071Y-98086666D02*
X184919642Y-98015237D01*
X184948214Y-97824761D02*
X184919642Y-97800952D01*
X184919642Y-97800952D02*
X184891071Y-97753333D01*
X184891071Y-97753333D02*
X184891071Y-97634285D01*
X184891071Y-97634285D02*
X184919642Y-97586666D01*
X184919642Y-97586666D02*
X184948214Y-97562857D01*
X184948214Y-97562857D02*
X185005357Y-97539047D01*
X185005357Y-97539047D02*
X185062500Y-97539047D01*
X185062500Y-97539047D02*
X185148214Y-97562857D01*
X185148214Y-97562857D02*
X185491071Y-97848571D01*
X185491071Y-97848571D02*
X185491071Y-97539047D01*
X146736666Y-85351071D02*
X146570000Y-85065357D01*
X146450952Y-85351071D02*
X146450952Y-84751071D01*
X146450952Y-84751071D02*
X146641428Y-84751071D01*
X146641428Y-84751071D02*
X146689047Y-84779642D01*
X146689047Y-84779642D02*
X146712857Y-84808214D01*
X146712857Y-84808214D02*
X146736666Y-84865357D01*
X146736666Y-84865357D02*
X146736666Y-84951071D01*
X146736666Y-84951071D02*
X146712857Y-85008214D01*
X146712857Y-85008214D02*
X146689047Y-85036785D01*
X146689047Y-85036785D02*
X146641428Y-85065357D01*
X146641428Y-85065357D02*
X146450952Y-85065357D01*
X147022381Y-85008214D02*
X146974762Y-84979642D01*
X146974762Y-84979642D02*
X146950952Y-84951071D01*
X146950952Y-84951071D02*
X146927143Y-84893928D01*
X146927143Y-84893928D02*
X146927143Y-84865357D01*
X146927143Y-84865357D02*
X146950952Y-84808214D01*
X146950952Y-84808214D02*
X146974762Y-84779642D01*
X146974762Y-84779642D02*
X147022381Y-84751071D01*
X147022381Y-84751071D02*
X147117619Y-84751071D01*
X147117619Y-84751071D02*
X147165238Y-84779642D01*
X147165238Y-84779642D02*
X147189047Y-84808214D01*
X147189047Y-84808214D02*
X147212857Y-84865357D01*
X147212857Y-84865357D02*
X147212857Y-84893928D01*
X147212857Y-84893928D02*
X147189047Y-84951071D01*
X147189047Y-84951071D02*
X147165238Y-84979642D01*
X147165238Y-84979642D02*
X147117619Y-85008214D01*
X147117619Y-85008214D02*
X147022381Y-85008214D01*
X147022381Y-85008214D02*
X146974762Y-85036785D01*
X146974762Y-85036785D02*
X146950952Y-85065357D01*
X146950952Y-85065357D02*
X146927143Y-85122500D01*
X146927143Y-85122500D02*
X146927143Y-85236785D01*
X146927143Y-85236785D02*
X146950952Y-85293928D01*
X146950952Y-85293928D02*
X146974762Y-85322500D01*
X146974762Y-85322500D02*
X147022381Y-85351071D01*
X147022381Y-85351071D02*
X147117619Y-85351071D01*
X147117619Y-85351071D02*
X147165238Y-85322500D01*
X147165238Y-85322500D02*
X147189047Y-85293928D01*
X147189047Y-85293928D02*
X147212857Y-85236785D01*
X147212857Y-85236785D02*
X147212857Y-85122500D01*
X147212857Y-85122500D02*
X147189047Y-85065357D01*
X147189047Y-85065357D02*
X147165238Y-85036785D01*
X147165238Y-85036785D02*
X147117619Y-85008214D01*
X143206666Y-85421071D02*
X143040000Y-85135357D01*
X142920952Y-85421071D02*
X142920952Y-84821071D01*
X142920952Y-84821071D02*
X143111428Y-84821071D01*
X143111428Y-84821071D02*
X143159047Y-84849642D01*
X143159047Y-84849642D02*
X143182857Y-84878214D01*
X143182857Y-84878214D02*
X143206666Y-84935357D01*
X143206666Y-84935357D02*
X143206666Y-85021071D01*
X143206666Y-85021071D02*
X143182857Y-85078214D01*
X143182857Y-85078214D02*
X143159047Y-85106785D01*
X143159047Y-85106785D02*
X143111428Y-85135357D01*
X143111428Y-85135357D02*
X142920952Y-85135357D01*
X143444762Y-85421071D02*
X143540000Y-85421071D01*
X143540000Y-85421071D02*
X143587619Y-85392500D01*
X143587619Y-85392500D02*
X143611428Y-85363928D01*
X143611428Y-85363928D02*
X143659047Y-85278214D01*
X143659047Y-85278214D02*
X143682857Y-85163928D01*
X143682857Y-85163928D02*
X143682857Y-84935357D01*
X143682857Y-84935357D02*
X143659047Y-84878214D01*
X143659047Y-84878214D02*
X143635238Y-84849642D01*
X143635238Y-84849642D02*
X143587619Y-84821071D01*
X143587619Y-84821071D02*
X143492381Y-84821071D01*
X143492381Y-84821071D02*
X143444762Y-84849642D01*
X143444762Y-84849642D02*
X143420952Y-84878214D01*
X143420952Y-84878214D02*
X143397143Y-84935357D01*
X143397143Y-84935357D02*
X143397143Y-85078214D01*
X143397143Y-85078214D02*
X143420952Y-85135357D01*
X143420952Y-85135357D02*
X143444762Y-85163928D01*
X143444762Y-85163928D02*
X143492381Y-85192500D01*
X143492381Y-85192500D02*
X143587619Y-85192500D01*
X143587619Y-85192500D02*
X143635238Y-85163928D01*
X143635238Y-85163928D02*
X143659047Y-85135357D01*
X143659047Y-85135357D02*
X143682857Y-85078214D01*
X178174797Y-61731056D02*
X178127178Y-61702484D01*
X178127178Y-61702484D02*
X178079559Y-61645342D01*
X178079559Y-61645342D02*
X178008131Y-61559627D01*
X178008131Y-61559627D02*
X177960512Y-61531056D01*
X177960512Y-61531056D02*
X177912893Y-61531056D01*
X177936702Y-61673913D02*
X177889083Y-61645342D01*
X177889083Y-61645342D02*
X177841464Y-61588199D01*
X177841464Y-61588199D02*
X177817655Y-61473913D01*
X177817655Y-61473913D02*
X177817655Y-61273913D01*
X177817655Y-61273913D02*
X177841464Y-61159627D01*
X177841464Y-61159627D02*
X177889083Y-61102484D01*
X177889083Y-61102484D02*
X177936702Y-61073913D01*
X177936702Y-61073913D02*
X178031940Y-61073913D01*
X178031940Y-61073913D02*
X178079559Y-61102484D01*
X178079559Y-61102484D02*
X178127178Y-61159627D01*
X178127178Y-61159627D02*
X178150988Y-61273913D01*
X178150988Y-61273913D02*
X178150988Y-61473913D01*
X178150988Y-61473913D02*
X178127178Y-61588199D01*
X178127178Y-61588199D02*
X178079559Y-61645342D01*
X178079559Y-61645342D02*
X178031940Y-61673913D01*
X178031940Y-61673913D02*
X177936702Y-61673913D01*
X178627179Y-61673913D02*
X178341465Y-61673913D01*
X178484322Y-61673913D02*
X178484322Y-61073913D01*
X178484322Y-61073913D02*
X178436703Y-61159627D01*
X178436703Y-61159627D02*
X178389084Y-61216770D01*
X178389084Y-61216770D02*
X178341465Y-61245342D01*
X161761071Y-54531428D02*
X161475357Y-54698094D01*
X161761071Y-54817142D02*
X161161071Y-54817142D01*
X161161071Y-54817142D02*
X161161071Y-54626666D01*
X161161071Y-54626666D02*
X161189642Y-54579047D01*
X161189642Y-54579047D02*
X161218214Y-54555237D01*
X161218214Y-54555237D02*
X161275357Y-54531428D01*
X161275357Y-54531428D02*
X161361071Y-54531428D01*
X161361071Y-54531428D02*
X161418214Y-54555237D01*
X161418214Y-54555237D02*
X161446785Y-54579047D01*
X161446785Y-54579047D02*
X161475357Y-54626666D01*
X161475357Y-54626666D02*
X161475357Y-54817142D01*
X161161071Y-54364761D02*
X161161071Y-54055237D01*
X161161071Y-54055237D02*
X161389642Y-54221904D01*
X161389642Y-54221904D02*
X161389642Y-54150475D01*
X161389642Y-54150475D02*
X161418214Y-54102856D01*
X161418214Y-54102856D02*
X161446785Y-54079047D01*
X161446785Y-54079047D02*
X161503928Y-54055237D01*
X161503928Y-54055237D02*
X161646785Y-54055237D01*
X161646785Y-54055237D02*
X161703928Y-54079047D01*
X161703928Y-54079047D02*
X161732500Y-54102856D01*
X161732500Y-54102856D02*
X161761071Y-54150475D01*
X161761071Y-54150475D02*
X161761071Y-54293332D01*
X161761071Y-54293332D02*
X161732500Y-54340951D01*
X161732500Y-54340951D02*
X161703928Y-54364761D01*
X161161071Y-53745714D02*
X161161071Y-53698095D01*
X161161071Y-53698095D02*
X161189642Y-53650476D01*
X161189642Y-53650476D02*
X161218214Y-53626666D01*
X161218214Y-53626666D02*
X161275357Y-53602857D01*
X161275357Y-53602857D02*
X161389642Y-53579047D01*
X161389642Y-53579047D02*
X161532500Y-53579047D01*
X161532500Y-53579047D02*
X161646785Y-53602857D01*
X161646785Y-53602857D02*
X161703928Y-53626666D01*
X161703928Y-53626666D02*
X161732500Y-53650476D01*
X161732500Y-53650476D02*
X161761071Y-53698095D01*
X161761071Y-53698095D02*
X161761071Y-53745714D01*
X161761071Y-53745714D02*
X161732500Y-53793333D01*
X161732500Y-53793333D02*
X161703928Y-53817142D01*
X161703928Y-53817142D02*
X161646785Y-53840952D01*
X161646785Y-53840952D02*
X161532500Y-53864761D01*
X161532500Y-53864761D02*
X161389642Y-53864761D01*
X161389642Y-53864761D02*
X161275357Y-53840952D01*
X161275357Y-53840952D02*
X161218214Y-53817142D01*
X161218214Y-53817142D02*
X161189642Y-53793333D01*
X161189642Y-53793333D02*
X161161071Y-53745714D01*
X147456666Y-68193928D02*
X147432857Y-68222500D01*
X147432857Y-68222500D02*
X147361428Y-68251071D01*
X147361428Y-68251071D02*
X147313809Y-68251071D01*
X147313809Y-68251071D02*
X147242381Y-68222500D01*
X147242381Y-68222500D02*
X147194762Y-68165357D01*
X147194762Y-68165357D02*
X147170952Y-68108214D01*
X147170952Y-68108214D02*
X147147143Y-67993928D01*
X147147143Y-67993928D02*
X147147143Y-67908214D01*
X147147143Y-67908214D02*
X147170952Y-67793928D01*
X147170952Y-67793928D02*
X147194762Y-67736785D01*
X147194762Y-67736785D02*
X147242381Y-67679642D01*
X147242381Y-67679642D02*
X147313809Y-67651071D01*
X147313809Y-67651071D02*
X147361428Y-67651071D01*
X147361428Y-67651071D02*
X147432857Y-67679642D01*
X147432857Y-67679642D02*
X147456666Y-67708214D01*
X147909047Y-67651071D02*
X147670952Y-67651071D01*
X147670952Y-67651071D02*
X147647143Y-67936785D01*
X147647143Y-67936785D02*
X147670952Y-67908214D01*
X147670952Y-67908214D02*
X147718571Y-67879642D01*
X147718571Y-67879642D02*
X147837619Y-67879642D01*
X147837619Y-67879642D02*
X147885238Y-67908214D01*
X147885238Y-67908214D02*
X147909047Y-67936785D01*
X147909047Y-67936785D02*
X147932857Y-67993928D01*
X147932857Y-67993928D02*
X147932857Y-68136785D01*
X147932857Y-68136785D02*
X147909047Y-68193928D01*
X147909047Y-68193928D02*
X147885238Y-68222500D01*
X147885238Y-68222500D02*
X147837619Y-68251071D01*
X147837619Y-68251071D02*
X147718571Y-68251071D01*
X147718571Y-68251071D02*
X147670952Y-68222500D01*
X147670952Y-68222500D02*
X147647143Y-68193928D01*
X158508571Y-52233928D02*
X158484762Y-52262500D01*
X158484762Y-52262500D02*
X158413333Y-52291071D01*
X158413333Y-52291071D02*
X158365714Y-52291071D01*
X158365714Y-52291071D02*
X158294286Y-52262500D01*
X158294286Y-52262500D02*
X158246667Y-52205357D01*
X158246667Y-52205357D02*
X158222857Y-52148214D01*
X158222857Y-52148214D02*
X158199048Y-52033928D01*
X158199048Y-52033928D02*
X158199048Y-51948214D01*
X158199048Y-51948214D02*
X158222857Y-51833928D01*
X158222857Y-51833928D02*
X158246667Y-51776785D01*
X158246667Y-51776785D02*
X158294286Y-51719642D01*
X158294286Y-51719642D02*
X158365714Y-51691071D01*
X158365714Y-51691071D02*
X158413333Y-51691071D01*
X158413333Y-51691071D02*
X158484762Y-51719642D01*
X158484762Y-51719642D02*
X158508571Y-51748214D01*
X158984762Y-52291071D02*
X158699048Y-52291071D01*
X158841905Y-52291071D02*
X158841905Y-51691071D01*
X158841905Y-51691071D02*
X158794286Y-51776785D01*
X158794286Y-51776785D02*
X158746667Y-51833928D01*
X158746667Y-51833928D02*
X158699048Y-51862500D01*
X159413333Y-51691071D02*
X159318095Y-51691071D01*
X159318095Y-51691071D02*
X159270476Y-51719642D01*
X159270476Y-51719642D02*
X159246666Y-51748214D01*
X159246666Y-51748214D02*
X159199047Y-51833928D01*
X159199047Y-51833928D02*
X159175238Y-51948214D01*
X159175238Y-51948214D02*
X159175238Y-52176785D01*
X159175238Y-52176785D02*
X159199047Y-52233928D01*
X159199047Y-52233928D02*
X159222857Y-52262500D01*
X159222857Y-52262500D02*
X159270476Y-52291071D01*
X159270476Y-52291071D02*
X159365714Y-52291071D01*
X159365714Y-52291071D02*
X159413333Y-52262500D01*
X159413333Y-52262500D02*
X159437142Y-52233928D01*
X159437142Y-52233928D02*
X159460952Y-52176785D01*
X159460952Y-52176785D02*
X159460952Y-52033928D01*
X159460952Y-52033928D02*
X159437142Y-51976785D01*
X159437142Y-51976785D02*
X159413333Y-51948214D01*
X159413333Y-51948214D02*
X159365714Y-51919642D01*
X159365714Y-51919642D02*
X159270476Y-51919642D01*
X159270476Y-51919642D02*
X159222857Y-51948214D01*
X159222857Y-51948214D02*
X159199047Y-51976785D01*
X159199047Y-51976785D02*
X159175238Y-52033928D01*
X184388571Y-93061071D02*
X184221905Y-92775357D01*
X184102857Y-93061071D02*
X184102857Y-92461071D01*
X184102857Y-92461071D02*
X184293333Y-92461071D01*
X184293333Y-92461071D02*
X184340952Y-92489642D01*
X184340952Y-92489642D02*
X184364762Y-92518214D01*
X184364762Y-92518214D02*
X184388571Y-92575357D01*
X184388571Y-92575357D02*
X184388571Y-92661071D01*
X184388571Y-92661071D02*
X184364762Y-92718214D01*
X184364762Y-92718214D02*
X184340952Y-92746785D01*
X184340952Y-92746785D02*
X184293333Y-92775357D01*
X184293333Y-92775357D02*
X184102857Y-92775357D01*
X184555238Y-92461071D02*
X184864762Y-92461071D01*
X184864762Y-92461071D02*
X184698095Y-92689642D01*
X184698095Y-92689642D02*
X184769524Y-92689642D01*
X184769524Y-92689642D02*
X184817143Y-92718214D01*
X184817143Y-92718214D02*
X184840952Y-92746785D01*
X184840952Y-92746785D02*
X184864762Y-92803928D01*
X184864762Y-92803928D02*
X184864762Y-92946785D01*
X184864762Y-92946785D02*
X184840952Y-93003928D01*
X184840952Y-93003928D02*
X184817143Y-93032500D01*
X184817143Y-93032500D02*
X184769524Y-93061071D01*
X184769524Y-93061071D02*
X184626667Y-93061071D01*
X184626667Y-93061071D02*
X184579048Y-93032500D01*
X184579048Y-93032500D02*
X184555238Y-93003928D01*
X185031428Y-92461071D02*
X185340952Y-92461071D01*
X185340952Y-92461071D02*
X185174285Y-92689642D01*
X185174285Y-92689642D02*
X185245714Y-92689642D01*
X185245714Y-92689642D02*
X185293333Y-92718214D01*
X185293333Y-92718214D02*
X185317142Y-92746785D01*
X185317142Y-92746785D02*
X185340952Y-92803928D01*
X185340952Y-92803928D02*
X185340952Y-92946785D01*
X185340952Y-92946785D02*
X185317142Y-93003928D01*
X185317142Y-93003928D02*
X185293333Y-93032500D01*
X185293333Y-93032500D02*
X185245714Y-93061071D01*
X185245714Y-93061071D02*
X185102857Y-93061071D01*
X185102857Y-93061071D02*
X185055238Y-93032500D01*
X185055238Y-93032500D02*
X185031428Y-93003928D01*
X161623928Y-51611428D02*
X161652500Y-51635237D01*
X161652500Y-51635237D02*
X161681071Y-51706666D01*
X161681071Y-51706666D02*
X161681071Y-51754285D01*
X161681071Y-51754285D02*
X161652500Y-51825713D01*
X161652500Y-51825713D02*
X161595357Y-51873332D01*
X161595357Y-51873332D02*
X161538214Y-51897142D01*
X161538214Y-51897142D02*
X161423928Y-51920951D01*
X161423928Y-51920951D02*
X161338214Y-51920951D01*
X161338214Y-51920951D02*
X161223928Y-51897142D01*
X161223928Y-51897142D02*
X161166785Y-51873332D01*
X161166785Y-51873332D02*
X161109642Y-51825713D01*
X161109642Y-51825713D02*
X161081071Y-51754285D01*
X161081071Y-51754285D02*
X161081071Y-51706666D01*
X161081071Y-51706666D02*
X161109642Y-51635237D01*
X161109642Y-51635237D02*
X161138214Y-51611428D01*
X161681071Y-51135237D02*
X161681071Y-51420951D01*
X161681071Y-51278094D02*
X161081071Y-51278094D01*
X161081071Y-51278094D02*
X161166785Y-51325713D01*
X161166785Y-51325713D02*
X161223928Y-51373332D01*
X161223928Y-51373332D02*
X161252500Y-51420951D01*
X161681071Y-50897142D02*
X161681071Y-50801904D01*
X161681071Y-50801904D02*
X161652500Y-50754285D01*
X161652500Y-50754285D02*
X161623928Y-50730476D01*
X161623928Y-50730476D02*
X161538214Y-50682857D01*
X161538214Y-50682857D02*
X161423928Y-50659047D01*
X161423928Y-50659047D02*
X161195357Y-50659047D01*
X161195357Y-50659047D02*
X161138214Y-50682857D01*
X161138214Y-50682857D02*
X161109642Y-50706666D01*
X161109642Y-50706666D02*
X161081071Y-50754285D01*
X161081071Y-50754285D02*
X161081071Y-50849523D01*
X161081071Y-50849523D02*
X161109642Y-50897142D01*
X161109642Y-50897142D02*
X161138214Y-50920952D01*
X161138214Y-50920952D02*
X161195357Y-50944761D01*
X161195357Y-50944761D02*
X161338214Y-50944761D01*
X161338214Y-50944761D02*
X161395357Y-50920952D01*
X161395357Y-50920952D02*
X161423928Y-50897142D01*
X161423928Y-50897142D02*
X161452500Y-50849523D01*
X161452500Y-50849523D02*
X161452500Y-50754285D01*
X161452500Y-50754285D02*
X161423928Y-50706666D01*
X161423928Y-50706666D02*
X161395357Y-50682857D01*
X161395357Y-50682857D02*
X161338214Y-50659047D01*
X183261071Y-44886666D02*
X183689642Y-44886666D01*
X183689642Y-44886666D02*
X183775357Y-44910475D01*
X183775357Y-44910475D02*
X183832500Y-44958094D01*
X183832500Y-44958094D02*
X183861071Y-45029523D01*
X183861071Y-45029523D02*
X183861071Y-45077142D01*
X183461071Y-44434285D02*
X183861071Y-44434285D01*
X183232500Y-44553333D02*
X183661071Y-44672380D01*
X183661071Y-44672380D02*
X183661071Y-44362857D01*
X195537071Y-49397071D02*
X195370405Y-49111357D01*
X195251357Y-49397071D02*
X195251357Y-48797071D01*
X195251357Y-48797071D02*
X195441833Y-48797071D01*
X195441833Y-48797071D02*
X195489452Y-48825642D01*
X195489452Y-48825642D02*
X195513262Y-48854214D01*
X195513262Y-48854214D02*
X195537071Y-48911357D01*
X195537071Y-48911357D02*
X195537071Y-48997071D01*
X195537071Y-48997071D02*
X195513262Y-49054214D01*
X195513262Y-49054214D02*
X195489452Y-49082785D01*
X195489452Y-49082785D02*
X195441833Y-49111357D01*
X195441833Y-49111357D02*
X195251357Y-49111357D01*
X195727548Y-48854214D02*
X195751357Y-48825642D01*
X195751357Y-48825642D02*
X195798976Y-48797071D01*
X195798976Y-48797071D02*
X195918024Y-48797071D01*
X195918024Y-48797071D02*
X195965643Y-48825642D01*
X195965643Y-48825642D02*
X195989452Y-48854214D01*
X195989452Y-48854214D02*
X196013262Y-48911357D01*
X196013262Y-48911357D02*
X196013262Y-48968500D01*
X196013262Y-48968500D02*
X195989452Y-49054214D01*
X195989452Y-49054214D02*
X195703738Y-49397071D01*
X195703738Y-49397071D02*
X196013262Y-49397071D01*
X196465642Y-48797071D02*
X196227547Y-48797071D01*
X196227547Y-48797071D02*
X196203738Y-49082785D01*
X196203738Y-49082785D02*
X196227547Y-49054214D01*
X196227547Y-49054214D02*
X196275166Y-49025642D01*
X196275166Y-49025642D02*
X196394214Y-49025642D01*
X196394214Y-49025642D02*
X196441833Y-49054214D01*
X196441833Y-49054214D02*
X196465642Y-49082785D01*
X196465642Y-49082785D02*
X196489452Y-49139928D01*
X196489452Y-49139928D02*
X196489452Y-49282785D01*
X196489452Y-49282785D02*
X196465642Y-49339928D01*
X196465642Y-49339928D02*
X196441833Y-49368500D01*
X196441833Y-49368500D02*
X196394214Y-49397071D01*
X196394214Y-49397071D02*
X196275166Y-49397071D01*
X196275166Y-49397071D02*
X196227547Y-49368500D01*
X196227547Y-49368500D02*
X196203738Y-49339928D01*
X167738571Y-51031071D02*
X167571905Y-50745357D01*
X167452857Y-51031071D02*
X167452857Y-50431071D01*
X167452857Y-50431071D02*
X167643333Y-50431071D01*
X167643333Y-50431071D02*
X167690952Y-50459642D01*
X167690952Y-50459642D02*
X167714762Y-50488214D01*
X167714762Y-50488214D02*
X167738571Y-50545357D01*
X167738571Y-50545357D02*
X167738571Y-50631071D01*
X167738571Y-50631071D02*
X167714762Y-50688214D01*
X167714762Y-50688214D02*
X167690952Y-50716785D01*
X167690952Y-50716785D02*
X167643333Y-50745357D01*
X167643333Y-50745357D02*
X167452857Y-50745357D01*
X167929048Y-50488214D02*
X167952857Y-50459642D01*
X167952857Y-50459642D02*
X168000476Y-50431071D01*
X168000476Y-50431071D02*
X168119524Y-50431071D01*
X168119524Y-50431071D02*
X168167143Y-50459642D01*
X168167143Y-50459642D02*
X168190952Y-50488214D01*
X168190952Y-50488214D02*
X168214762Y-50545357D01*
X168214762Y-50545357D02*
X168214762Y-50602500D01*
X168214762Y-50602500D02*
X168190952Y-50688214D01*
X168190952Y-50688214D02*
X167905238Y-51031071D01*
X167905238Y-51031071D02*
X168214762Y-51031071D01*
X168643333Y-50431071D02*
X168548095Y-50431071D01*
X168548095Y-50431071D02*
X168500476Y-50459642D01*
X168500476Y-50459642D02*
X168476666Y-50488214D01*
X168476666Y-50488214D02*
X168429047Y-50573928D01*
X168429047Y-50573928D02*
X168405238Y-50688214D01*
X168405238Y-50688214D02*
X168405238Y-50916785D01*
X168405238Y-50916785D02*
X168429047Y-50973928D01*
X168429047Y-50973928D02*
X168452857Y-51002500D01*
X168452857Y-51002500D02*
X168500476Y-51031071D01*
X168500476Y-51031071D02*
X168595714Y-51031071D01*
X168595714Y-51031071D02*
X168643333Y-51002500D01*
X168643333Y-51002500D02*
X168667142Y-50973928D01*
X168667142Y-50973928D02*
X168690952Y-50916785D01*
X168690952Y-50916785D02*
X168690952Y-50773928D01*
X168690952Y-50773928D02*
X168667142Y-50716785D01*
X168667142Y-50716785D02*
X168643333Y-50688214D01*
X168643333Y-50688214D02*
X168595714Y-50659642D01*
X168595714Y-50659642D02*
X168500476Y-50659642D01*
X168500476Y-50659642D02*
X168452857Y-50688214D01*
X168452857Y-50688214D02*
X168429047Y-50716785D01*
X168429047Y-50716785D02*
X168405238Y-50773928D01*
X157067047Y-96172471D02*
X157067047Y-96658185D01*
X157067047Y-96658185D02*
X157090857Y-96715328D01*
X157090857Y-96715328D02*
X157114666Y-96743900D01*
X157114666Y-96743900D02*
X157162285Y-96772471D01*
X157162285Y-96772471D02*
X157257523Y-96772471D01*
X157257523Y-96772471D02*
X157305142Y-96743900D01*
X157305142Y-96743900D02*
X157328952Y-96715328D01*
X157328952Y-96715328D02*
X157352761Y-96658185D01*
X157352761Y-96658185D02*
X157352761Y-96172471D01*
X157852762Y-96772471D02*
X157567048Y-96772471D01*
X157709905Y-96772471D02*
X157709905Y-96172471D01*
X157709905Y-96172471D02*
X157662286Y-96258185D01*
X157662286Y-96258185D02*
X157614667Y-96315328D01*
X157614667Y-96315328D02*
X157567048Y-96343900D01*
X163508571Y-77487071D02*
X163341905Y-77201357D01*
X163222857Y-77487071D02*
X163222857Y-76887071D01*
X163222857Y-76887071D02*
X163413333Y-76887071D01*
X163413333Y-76887071D02*
X163460952Y-76915642D01*
X163460952Y-76915642D02*
X163484762Y-76944214D01*
X163484762Y-76944214D02*
X163508571Y-77001357D01*
X163508571Y-77001357D02*
X163508571Y-77087071D01*
X163508571Y-77087071D02*
X163484762Y-77144214D01*
X163484762Y-77144214D02*
X163460952Y-77172785D01*
X163460952Y-77172785D02*
X163413333Y-77201357D01*
X163413333Y-77201357D02*
X163222857Y-77201357D01*
X163984762Y-77487071D02*
X163699048Y-77487071D01*
X163841905Y-77487071D02*
X163841905Y-76887071D01*
X163841905Y-76887071D02*
X163794286Y-76972785D01*
X163794286Y-76972785D02*
X163746667Y-77029928D01*
X163746667Y-77029928D02*
X163699048Y-77058500D01*
X164270476Y-77144214D02*
X164222857Y-77115642D01*
X164222857Y-77115642D02*
X164199047Y-77087071D01*
X164199047Y-77087071D02*
X164175238Y-77029928D01*
X164175238Y-77029928D02*
X164175238Y-77001357D01*
X164175238Y-77001357D02*
X164199047Y-76944214D01*
X164199047Y-76944214D02*
X164222857Y-76915642D01*
X164222857Y-76915642D02*
X164270476Y-76887071D01*
X164270476Y-76887071D02*
X164365714Y-76887071D01*
X164365714Y-76887071D02*
X164413333Y-76915642D01*
X164413333Y-76915642D02*
X164437142Y-76944214D01*
X164437142Y-76944214D02*
X164460952Y-77001357D01*
X164460952Y-77001357D02*
X164460952Y-77029928D01*
X164460952Y-77029928D02*
X164437142Y-77087071D01*
X164437142Y-77087071D02*
X164413333Y-77115642D01*
X164413333Y-77115642D02*
X164365714Y-77144214D01*
X164365714Y-77144214D02*
X164270476Y-77144214D01*
X164270476Y-77144214D02*
X164222857Y-77172785D01*
X164222857Y-77172785D02*
X164199047Y-77201357D01*
X164199047Y-77201357D02*
X164175238Y-77258500D01*
X164175238Y-77258500D02*
X164175238Y-77372785D01*
X164175238Y-77372785D02*
X164199047Y-77429928D01*
X164199047Y-77429928D02*
X164222857Y-77458500D01*
X164222857Y-77458500D02*
X164270476Y-77487071D01*
X164270476Y-77487071D02*
X164365714Y-77487071D01*
X164365714Y-77487071D02*
X164413333Y-77458500D01*
X164413333Y-77458500D02*
X164437142Y-77429928D01*
X164437142Y-77429928D02*
X164460952Y-77372785D01*
X164460952Y-77372785D02*
X164460952Y-77258500D01*
X164460952Y-77258500D02*
X164437142Y-77201357D01*
X164437142Y-77201357D02*
X164413333Y-77172785D01*
X164413333Y-77172785D02*
X164365714Y-77144214D01*
X185256666Y-71460928D02*
X185232857Y-71489500D01*
X185232857Y-71489500D02*
X185161428Y-71518071D01*
X185161428Y-71518071D02*
X185113809Y-71518071D01*
X185113809Y-71518071D02*
X185042381Y-71489500D01*
X185042381Y-71489500D02*
X184994762Y-71432357D01*
X184994762Y-71432357D02*
X184970952Y-71375214D01*
X184970952Y-71375214D02*
X184947143Y-71260928D01*
X184947143Y-71260928D02*
X184947143Y-71175214D01*
X184947143Y-71175214D02*
X184970952Y-71060928D01*
X184970952Y-71060928D02*
X184994762Y-71003785D01*
X184994762Y-71003785D02*
X185042381Y-70946642D01*
X185042381Y-70946642D02*
X185113809Y-70918071D01*
X185113809Y-70918071D02*
X185161428Y-70918071D01*
X185161428Y-70918071D02*
X185232857Y-70946642D01*
X185232857Y-70946642D02*
X185256666Y-70975214D01*
X185494762Y-71518071D02*
X185590000Y-71518071D01*
X185590000Y-71518071D02*
X185637619Y-71489500D01*
X185637619Y-71489500D02*
X185661428Y-71460928D01*
X185661428Y-71460928D02*
X185709047Y-71375214D01*
X185709047Y-71375214D02*
X185732857Y-71260928D01*
X185732857Y-71260928D02*
X185732857Y-71032357D01*
X185732857Y-71032357D02*
X185709047Y-70975214D01*
X185709047Y-70975214D02*
X185685238Y-70946642D01*
X185685238Y-70946642D02*
X185637619Y-70918071D01*
X185637619Y-70918071D02*
X185542381Y-70918071D01*
X185542381Y-70918071D02*
X185494762Y-70946642D01*
X185494762Y-70946642D02*
X185470952Y-70975214D01*
X185470952Y-70975214D02*
X185447143Y-71032357D01*
X185447143Y-71032357D02*
X185447143Y-71175214D01*
X185447143Y-71175214D02*
X185470952Y-71232357D01*
X185470952Y-71232357D02*
X185494762Y-71260928D01*
X185494762Y-71260928D02*
X185542381Y-71289500D01*
X185542381Y-71289500D02*
X185637619Y-71289500D01*
X185637619Y-71289500D02*
X185685238Y-71260928D01*
X185685238Y-71260928D02*
X185709047Y-71232357D01*
X185709047Y-71232357D02*
X185732857Y-71175214D01*
X181281071Y-70226428D02*
X180995357Y-70393094D01*
X181281071Y-70512142D02*
X180681071Y-70512142D01*
X180681071Y-70512142D02*
X180681071Y-70321666D01*
X180681071Y-70321666D02*
X180709642Y-70274047D01*
X180709642Y-70274047D02*
X180738214Y-70250237D01*
X180738214Y-70250237D02*
X180795357Y-70226428D01*
X180795357Y-70226428D02*
X180881071Y-70226428D01*
X180881071Y-70226428D02*
X180938214Y-70250237D01*
X180938214Y-70250237D02*
X180966785Y-70274047D01*
X180966785Y-70274047D02*
X180995357Y-70321666D01*
X180995357Y-70321666D02*
X180995357Y-70512142D01*
X181281071Y-69750237D02*
X181281071Y-70035951D01*
X181281071Y-69893094D02*
X180681071Y-69893094D01*
X180681071Y-69893094D02*
X180766785Y-69940713D01*
X180766785Y-69940713D02*
X180823928Y-69988332D01*
X180823928Y-69988332D02*
X180852500Y-70035951D01*
X181281071Y-69274047D02*
X181281071Y-69559761D01*
X181281071Y-69416904D02*
X180681071Y-69416904D01*
X180681071Y-69416904D02*
X180766785Y-69464523D01*
X180766785Y-69464523D02*
X180823928Y-69512142D01*
X180823928Y-69512142D02*
X180852500Y-69559761D01*
X153016666Y-85481071D02*
X152850000Y-85195357D01*
X152730952Y-85481071D02*
X152730952Y-84881071D01*
X152730952Y-84881071D02*
X152921428Y-84881071D01*
X152921428Y-84881071D02*
X152969047Y-84909642D01*
X152969047Y-84909642D02*
X152992857Y-84938214D01*
X152992857Y-84938214D02*
X153016666Y-84995357D01*
X153016666Y-84995357D02*
X153016666Y-85081071D01*
X153016666Y-85081071D02*
X152992857Y-85138214D01*
X152992857Y-85138214D02*
X152969047Y-85166785D01*
X152969047Y-85166785D02*
X152921428Y-85195357D01*
X152921428Y-85195357D02*
X152730952Y-85195357D01*
X153469047Y-84881071D02*
X153230952Y-84881071D01*
X153230952Y-84881071D02*
X153207143Y-85166785D01*
X153207143Y-85166785D02*
X153230952Y-85138214D01*
X153230952Y-85138214D02*
X153278571Y-85109642D01*
X153278571Y-85109642D02*
X153397619Y-85109642D01*
X153397619Y-85109642D02*
X153445238Y-85138214D01*
X153445238Y-85138214D02*
X153469047Y-85166785D01*
X153469047Y-85166785D02*
X153492857Y-85223928D01*
X153492857Y-85223928D02*
X153492857Y-85366785D01*
X153492857Y-85366785D02*
X153469047Y-85423928D01*
X153469047Y-85423928D02*
X153445238Y-85452500D01*
X153445238Y-85452500D02*
X153397619Y-85481071D01*
X153397619Y-85481071D02*
X153278571Y-85481071D01*
X153278571Y-85481071D02*
X153230952Y-85452500D01*
X153230952Y-85452500D02*
X153207143Y-85423928D01*
X180780571Y-76413928D02*
X180756762Y-76442500D01*
X180756762Y-76442500D02*
X180685333Y-76471071D01*
X180685333Y-76471071D02*
X180637714Y-76471071D01*
X180637714Y-76471071D02*
X180566286Y-76442500D01*
X180566286Y-76442500D02*
X180518667Y-76385357D01*
X180518667Y-76385357D02*
X180494857Y-76328214D01*
X180494857Y-76328214D02*
X180471048Y-76213928D01*
X180471048Y-76213928D02*
X180471048Y-76128214D01*
X180471048Y-76128214D02*
X180494857Y-76013928D01*
X180494857Y-76013928D02*
X180518667Y-75956785D01*
X180518667Y-75956785D02*
X180566286Y-75899642D01*
X180566286Y-75899642D02*
X180637714Y-75871071D01*
X180637714Y-75871071D02*
X180685333Y-75871071D01*
X180685333Y-75871071D02*
X180756762Y-75899642D01*
X180756762Y-75899642D02*
X180780571Y-75928214D01*
X181256762Y-76471071D02*
X180971048Y-76471071D01*
X181113905Y-76471071D02*
X181113905Y-75871071D01*
X181113905Y-75871071D02*
X181066286Y-75956785D01*
X181066286Y-75956785D02*
X181018667Y-76013928D01*
X181018667Y-76013928D02*
X180971048Y-76042500D01*
X181566285Y-75871071D02*
X181613904Y-75871071D01*
X181613904Y-75871071D02*
X181661523Y-75899642D01*
X181661523Y-75899642D02*
X181685333Y-75928214D01*
X181685333Y-75928214D02*
X181709142Y-75985357D01*
X181709142Y-75985357D02*
X181732952Y-76099642D01*
X181732952Y-76099642D02*
X181732952Y-76242500D01*
X181732952Y-76242500D02*
X181709142Y-76356785D01*
X181709142Y-76356785D02*
X181685333Y-76413928D01*
X181685333Y-76413928D02*
X181661523Y-76442500D01*
X181661523Y-76442500D02*
X181613904Y-76471071D01*
X181613904Y-76471071D02*
X181566285Y-76471071D01*
X181566285Y-76471071D02*
X181518666Y-76442500D01*
X181518666Y-76442500D02*
X181494857Y-76413928D01*
X181494857Y-76413928D02*
X181471047Y-76356785D01*
X181471047Y-76356785D02*
X181447238Y-76242500D01*
X181447238Y-76242500D02*
X181447238Y-76099642D01*
X181447238Y-76099642D02*
X181471047Y-75985357D01*
X181471047Y-75985357D02*
X181494857Y-75928214D01*
X181494857Y-75928214D02*
X181518666Y-75899642D01*
X181518666Y-75899642D02*
X181566285Y-75871071D01*
X164780334Y-83532785D02*
X164613667Y-83532785D01*
X164613667Y-83847071D02*
X164613667Y-83247071D01*
X164613667Y-83247071D02*
X164851762Y-83247071D01*
X165304143Y-83847071D02*
X165018429Y-83847071D01*
X165161286Y-83847071D02*
X165161286Y-83247071D01*
X165161286Y-83247071D02*
X165113667Y-83332785D01*
X165113667Y-83332785D02*
X165066048Y-83389928D01*
X165066048Y-83389928D02*
X165018429Y-83418500D01*
X157616666Y-85351071D02*
X157450000Y-85065357D01*
X157330952Y-85351071D02*
X157330952Y-84751071D01*
X157330952Y-84751071D02*
X157521428Y-84751071D01*
X157521428Y-84751071D02*
X157569047Y-84779642D01*
X157569047Y-84779642D02*
X157592857Y-84808214D01*
X157592857Y-84808214D02*
X157616666Y-84865357D01*
X157616666Y-84865357D02*
X157616666Y-84951071D01*
X157616666Y-84951071D02*
X157592857Y-85008214D01*
X157592857Y-85008214D02*
X157569047Y-85036785D01*
X157569047Y-85036785D02*
X157521428Y-85065357D01*
X157521428Y-85065357D02*
X157330952Y-85065357D01*
X158092857Y-85351071D02*
X157807143Y-85351071D01*
X157950000Y-85351071D02*
X157950000Y-84751071D01*
X157950000Y-84751071D02*
X157902381Y-84836785D01*
X157902381Y-84836785D02*
X157854762Y-84893928D01*
X157854762Y-84893928D02*
X157807143Y-84922500D01*
X184388571Y-95533928D02*
X184364762Y-95562500D01*
X184364762Y-95562500D02*
X184293333Y-95591071D01*
X184293333Y-95591071D02*
X184245714Y-95591071D01*
X184245714Y-95591071D02*
X184174286Y-95562500D01*
X184174286Y-95562500D02*
X184126667Y-95505357D01*
X184126667Y-95505357D02*
X184102857Y-95448214D01*
X184102857Y-95448214D02*
X184079048Y-95333928D01*
X184079048Y-95333928D02*
X184079048Y-95248214D01*
X184079048Y-95248214D02*
X184102857Y-95133928D01*
X184102857Y-95133928D02*
X184126667Y-95076785D01*
X184126667Y-95076785D02*
X184174286Y-95019642D01*
X184174286Y-95019642D02*
X184245714Y-94991071D01*
X184245714Y-94991071D02*
X184293333Y-94991071D01*
X184293333Y-94991071D02*
X184364762Y-95019642D01*
X184364762Y-95019642D02*
X184388571Y-95048214D01*
X184579048Y-95048214D02*
X184602857Y-95019642D01*
X184602857Y-95019642D02*
X184650476Y-94991071D01*
X184650476Y-94991071D02*
X184769524Y-94991071D01*
X184769524Y-94991071D02*
X184817143Y-95019642D01*
X184817143Y-95019642D02*
X184840952Y-95048214D01*
X184840952Y-95048214D02*
X184864762Y-95105357D01*
X184864762Y-95105357D02*
X184864762Y-95162500D01*
X184864762Y-95162500D02*
X184840952Y-95248214D01*
X184840952Y-95248214D02*
X184555238Y-95591071D01*
X184555238Y-95591071D02*
X184864762Y-95591071D01*
X185055238Y-95048214D02*
X185079047Y-95019642D01*
X185079047Y-95019642D02*
X185126666Y-94991071D01*
X185126666Y-94991071D02*
X185245714Y-94991071D01*
X185245714Y-94991071D02*
X185293333Y-95019642D01*
X185293333Y-95019642D02*
X185317142Y-95048214D01*
X185317142Y-95048214D02*
X185340952Y-95105357D01*
X185340952Y-95105357D02*
X185340952Y-95162500D01*
X185340952Y-95162500D02*
X185317142Y-95248214D01*
X185317142Y-95248214D02*
X185031428Y-95591071D01*
X185031428Y-95591071D02*
X185340952Y-95591071D01*
X163891071Y-44746666D02*
X164319642Y-44746666D01*
X164319642Y-44746666D02*
X164405357Y-44770475D01*
X164405357Y-44770475D02*
X164462500Y-44818094D01*
X164462500Y-44818094D02*
X164491071Y-44889523D01*
X164491071Y-44889523D02*
X164491071Y-44937142D01*
X163891071Y-44270476D02*
X163891071Y-44508571D01*
X163891071Y-44508571D02*
X164176785Y-44532380D01*
X164176785Y-44532380D02*
X164148214Y-44508571D01*
X164148214Y-44508571D02*
X164119642Y-44460952D01*
X164119642Y-44460952D02*
X164119642Y-44341904D01*
X164119642Y-44341904D02*
X164148214Y-44294285D01*
X164148214Y-44294285D02*
X164176785Y-44270476D01*
X164176785Y-44270476D02*
X164233928Y-44246666D01*
X164233928Y-44246666D02*
X164376785Y-44246666D01*
X164376785Y-44246666D02*
X164433928Y-44270476D01*
X164433928Y-44270476D02*
X164462500Y-44294285D01*
X164462500Y-44294285D02*
X164491071Y-44341904D01*
X164491071Y-44341904D02*
X164491071Y-44460952D01*
X164491071Y-44460952D02*
X164462500Y-44508571D01*
X164462500Y-44508571D02*
X164433928Y-44532380D01*
X190842928Y-65770428D02*
X190871500Y-65794237D01*
X190871500Y-65794237D02*
X190900071Y-65865666D01*
X190900071Y-65865666D02*
X190900071Y-65913285D01*
X190900071Y-65913285D02*
X190871500Y-65984713D01*
X190871500Y-65984713D02*
X190814357Y-66032332D01*
X190814357Y-66032332D02*
X190757214Y-66056142D01*
X190757214Y-66056142D02*
X190642928Y-66079951D01*
X190642928Y-66079951D02*
X190557214Y-66079951D01*
X190557214Y-66079951D02*
X190442928Y-66056142D01*
X190442928Y-66056142D02*
X190385785Y-66032332D01*
X190385785Y-66032332D02*
X190328642Y-65984713D01*
X190328642Y-65984713D02*
X190300071Y-65913285D01*
X190300071Y-65913285D02*
X190300071Y-65865666D01*
X190300071Y-65865666D02*
X190328642Y-65794237D01*
X190328642Y-65794237D02*
X190357214Y-65770428D01*
X190900071Y-65294237D02*
X190900071Y-65579951D01*
X190900071Y-65437094D02*
X190300071Y-65437094D01*
X190300071Y-65437094D02*
X190385785Y-65484713D01*
X190385785Y-65484713D02*
X190442928Y-65532332D01*
X190442928Y-65532332D02*
X190471500Y-65579951D01*
X190500071Y-64865666D02*
X190900071Y-64865666D01*
X190271500Y-64984714D02*
X190700071Y-65103761D01*
X190700071Y-65103761D02*
X190700071Y-64794238D01*
X188681928Y-50486428D02*
X188710500Y-50510237D01*
X188710500Y-50510237D02*
X188739071Y-50581666D01*
X188739071Y-50581666D02*
X188739071Y-50629285D01*
X188739071Y-50629285D02*
X188710500Y-50700713D01*
X188710500Y-50700713D02*
X188653357Y-50748332D01*
X188653357Y-50748332D02*
X188596214Y-50772142D01*
X188596214Y-50772142D02*
X188481928Y-50795951D01*
X188481928Y-50795951D02*
X188396214Y-50795951D01*
X188396214Y-50795951D02*
X188281928Y-50772142D01*
X188281928Y-50772142D02*
X188224785Y-50748332D01*
X188224785Y-50748332D02*
X188167642Y-50700713D01*
X188167642Y-50700713D02*
X188139071Y-50629285D01*
X188139071Y-50629285D02*
X188139071Y-50581666D01*
X188139071Y-50581666D02*
X188167642Y-50510237D01*
X188167642Y-50510237D02*
X188196214Y-50486428D01*
X188739071Y-50010237D02*
X188739071Y-50295951D01*
X188739071Y-50153094D02*
X188139071Y-50153094D01*
X188139071Y-50153094D02*
X188224785Y-50200713D01*
X188224785Y-50200713D02*
X188281928Y-50248332D01*
X188281928Y-50248332D02*
X188310500Y-50295951D01*
X188139071Y-49557857D02*
X188139071Y-49795952D01*
X188139071Y-49795952D02*
X188424785Y-49819761D01*
X188424785Y-49819761D02*
X188396214Y-49795952D01*
X188396214Y-49795952D02*
X188367642Y-49748333D01*
X188367642Y-49748333D02*
X188367642Y-49629285D01*
X188367642Y-49629285D02*
X188396214Y-49581666D01*
X188396214Y-49581666D02*
X188424785Y-49557857D01*
X188424785Y-49557857D02*
X188481928Y-49534047D01*
X188481928Y-49534047D02*
X188624785Y-49534047D01*
X188624785Y-49534047D02*
X188681928Y-49557857D01*
X188681928Y-49557857D02*
X188710500Y-49581666D01*
X188710500Y-49581666D02*
X188739071Y-49629285D01*
X188739071Y-49629285D02*
X188739071Y-49748333D01*
X188739071Y-49748333D02*
X188710500Y-49795952D01*
X188710500Y-49795952D02*
X188681928Y-49819761D01*
X155428239Y-70918071D02*
X155594905Y-71518071D01*
X155594905Y-71518071D02*
X155761572Y-70918071D01*
X156213952Y-71518071D02*
X156047286Y-71232357D01*
X155928238Y-71518071D02*
X155928238Y-70918071D01*
X155928238Y-70918071D02*
X156118714Y-70918071D01*
X156118714Y-70918071D02*
X156166333Y-70946642D01*
X156166333Y-70946642D02*
X156190143Y-70975214D01*
X156190143Y-70975214D02*
X156213952Y-71032357D01*
X156213952Y-71032357D02*
X156213952Y-71118071D01*
X156213952Y-71118071D02*
X156190143Y-71175214D01*
X156190143Y-71175214D02*
X156166333Y-71203785D01*
X156166333Y-71203785D02*
X156118714Y-71232357D01*
X156118714Y-71232357D02*
X155928238Y-71232357D01*
X156690143Y-71518071D02*
X156404429Y-71518071D01*
X156547286Y-71518071D02*
X156547286Y-70918071D01*
X156547286Y-70918071D02*
X156499667Y-71003785D01*
X156499667Y-71003785D02*
X156452048Y-71060928D01*
X156452048Y-71060928D02*
X156404429Y-71089500D01*
X156703928Y-59461428D02*
X156732500Y-59485237D01*
X156732500Y-59485237D02*
X156761071Y-59556666D01*
X156761071Y-59556666D02*
X156761071Y-59604285D01*
X156761071Y-59604285D02*
X156732500Y-59675713D01*
X156732500Y-59675713D02*
X156675357Y-59723332D01*
X156675357Y-59723332D02*
X156618214Y-59747142D01*
X156618214Y-59747142D02*
X156503928Y-59770951D01*
X156503928Y-59770951D02*
X156418214Y-59770951D01*
X156418214Y-59770951D02*
X156303928Y-59747142D01*
X156303928Y-59747142D02*
X156246785Y-59723332D01*
X156246785Y-59723332D02*
X156189642Y-59675713D01*
X156189642Y-59675713D02*
X156161071Y-59604285D01*
X156161071Y-59604285D02*
X156161071Y-59556666D01*
X156161071Y-59556666D02*
X156189642Y-59485237D01*
X156189642Y-59485237D02*
X156218214Y-59461428D01*
X156761071Y-58985237D02*
X156761071Y-59270951D01*
X156761071Y-59128094D02*
X156161071Y-59128094D01*
X156161071Y-59128094D02*
X156246785Y-59175713D01*
X156246785Y-59175713D02*
X156303928Y-59223332D01*
X156303928Y-59223332D02*
X156332500Y-59270951D01*
X156161071Y-58818571D02*
X156161071Y-58485238D01*
X156161071Y-58485238D02*
X156761071Y-58699523D01*
X155216666Y-85421071D02*
X155050000Y-85135357D01*
X154930952Y-85421071D02*
X154930952Y-84821071D01*
X154930952Y-84821071D02*
X155121428Y-84821071D01*
X155121428Y-84821071D02*
X155169047Y-84849642D01*
X155169047Y-84849642D02*
X155192857Y-84878214D01*
X155192857Y-84878214D02*
X155216666Y-84935357D01*
X155216666Y-84935357D02*
X155216666Y-85021071D01*
X155216666Y-85021071D02*
X155192857Y-85078214D01*
X155192857Y-85078214D02*
X155169047Y-85106785D01*
X155169047Y-85106785D02*
X155121428Y-85135357D01*
X155121428Y-85135357D02*
X154930952Y-85135357D01*
X155645238Y-84821071D02*
X155550000Y-84821071D01*
X155550000Y-84821071D02*
X155502381Y-84849642D01*
X155502381Y-84849642D02*
X155478571Y-84878214D01*
X155478571Y-84878214D02*
X155430952Y-84963928D01*
X155430952Y-84963928D02*
X155407143Y-85078214D01*
X155407143Y-85078214D02*
X155407143Y-85306785D01*
X155407143Y-85306785D02*
X155430952Y-85363928D01*
X155430952Y-85363928D02*
X155454762Y-85392500D01*
X155454762Y-85392500D02*
X155502381Y-85421071D01*
X155502381Y-85421071D02*
X155597619Y-85421071D01*
X155597619Y-85421071D02*
X155645238Y-85392500D01*
X155645238Y-85392500D02*
X155669047Y-85363928D01*
X155669047Y-85363928D02*
X155692857Y-85306785D01*
X155692857Y-85306785D02*
X155692857Y-85163928D01*
X155692857Y-85163928D02*
X155669047Y-85106785D01*
X155669047Y-85106785D02*
X155645238Y-85078214D01*
X155645238Y-85078214D02*
X155597619Y-85049642D01*
X155597619Y-85049642D02*
X155502381Y-85049642D01*
X155502381Y-85049642D02*
X155454762Y-85078214D01*
X155454762Y-85078214D02*
X155430952Y-85106785D01*
X155430952Y-85106785D02*
X155407143Y-85163928D01*
X206428333Y-70226071D02*
X206428333Y-70654642D01*
X206428333Y-70654642D02*
X206404524Y-70740357D01*
X206404524Y-70740357D02*
X206356905Y-70797500D01*
X206356905Y-70797500D02*
X206285476Y-70826071D01*
X206285476Y-70826071D02*
X206237857Y-70826071D01*
X206618809Y-70226071D02*
X206928333Y-70226071D01*
X206928333Y-70226071D02*
X206761666Y-70454642D01*
X206761666Y-70454642D02*
X206833095Y-70454642D01*
X206833095Y-70454642D02*
X206880714Y-70483214D01*
X206880714Y-70483214D02*
X206904523Y-70511785D01*
X206904523Y-70511785D02*
X206928333Y-70568928D01*
X206928333Y-70568928D02*
X206928333Y-70711785D01*
X206928333Y-70711785D02*
X206904523Y-70768928D01*
X206904523Y-70768928D02*
X206880714Y-70797500D01*
X206880714Y-70797500D02*
X206833095Y-70826071D01*
X206833095Y-70826071D02*
X206690238Y-70826071D01*
X206690238Y-70826071D02*
X206642619Y-70797500D01*
X206642619Y-70797500D02*
X206618809Y-70768928D01*
X175938666Y-84033928D02*
X175914857Y-84062500D01*
X175914857Y-84062500D02*
X175843428Y-84091071D01*
X175843428Y-84091071D02*
X175795809Y-84091071D01*
X175795809Y-84091071D02*
X175724381Y-84062500D01*
X175724381Y-84062500D02*
X175676762Y-84005357D01*
X175676762Y-84005357D02*
X175652952Y-83948214D01*
X175652952Y-83948214D02*
X175629143Y-83833928D01*
X175629143Y-83833928D02*
X175629143Y-83748214D01*
X175629143Y-83748214D02*
X175652952Y-83633928D01*
X175652952Y-83633928D02*
X175676762Y-83576785D01*
X175676762Y-83576785D02*
X175724381Y-83519642D01*
X175724381Y-83519642D02*
X175795809Y-83491071D01*
X175795809Y-83491071D02*
X175843428Y-83491071D01*
X175843428Y-83491071D02*
X175914857Y-83519642D01*
X175914857Y-83519642D02*
X175938666Y-83548214D01*
X176414857Y-84091071D02*
X176129143Y-84091071D01*
X176272000Y-84091071D02*
X176272000Y-83491071D01*
X176272000Y-83491071D02*
X176224381Y-83576785D01*
X176224381Y-83576785D02*
X176176762Y-83633928D01*
X176176762Y-83633928D02*
X176129143Y-83662500D01*
X199718571Y-95563928D02*
X199694762Y-95592500D01*
X199694762Y-95592500D02*
X199623333Y-95621071D01*
X199623333Y-95621071D02*
X199575714Y-95621071D01*
X199575714Y-95621071D02*
X199504286Y-95592500D01*
X199504286Y-95592500D02*
X199456667Y-95535357D01*
X199456667Y-95535357D02*
X199432857Y-95478214D01*
X199432857Y-95478214D02*
X199409048Y-95363928D01*
X199409048Y-95363928D02*
X199409048Y-95278214D01*
X199409048Y-95278214D02*
X199432857Y-95163928D01*
X199432857Y-95163928D02*
X199456667Y-95106785D01*
X199456667Y-95106785D02*
X199504286Y-95049642D01*
X199504286Y-95049642D02*
X199575714Y-95021071D01*
X199575714Y-95021071D02*
X199623333Y-95021071D01*
X199623333Y-95021071D02*
X199694762Y-95049642D01*
X199694762Y-95049642D02*
X199718571Y-95078214D01*
X199909048Y-95078214D02*
X199932857Y-95049642D01*
X199932857Y-95049642D02*
X199980476Y-95021071D01*
X199980476Y-95021071D02*
X200099524Y-95021071D01*
X200099524Y-95021071D02*
X200147143Y-95049642D01*
X200147143Y-95049642D02*
X200170952Y-95078214D01*
X200170952Y-95078214D02*
X200194762Y-95135357D01*
X200194762Y-95135357D02*
X200194762Y-95192500D01*
X200194762Y-95192500D02*
X200170952Y-95278214D01*
X200170952Y-95278214D02*
X199885238Y-95621071D01*
X199885238Y-95621071D02*
X200194762Y-95621071D01*
X200670952Y-95621071D02*
X200385238Y-95621071D01*
X200528095Y-95621071D02*
X200528095Y-95021071D01*
X200528095Y-95021071D02*
X200480476Y-95106785D01*
X200480476Y-95106785D02*
X200432857Y-95163928D01*
X200432857Y-95163928D02*
X200385238Y-95192500D01*
X150346666Y-85421071D02*
X150180000Y-85135357D01*
X150060952Y-85421071D02*
X150060952Y-84821071D01*
X150060952Y-84821071D02*
X150251428Y-84821071D01*
X150251428Y-84821071D02*
X150299047Y-84849642D01*
X150299047Y-84849642D02*
X150322857Y-84878214D01*
X150322857Y-84878214D02*
X150346666Y-84935357D01*
X150346666Y-84935357D02*
X150346666Y-85021071D01*
X150346666Y-85021071D02*
X150322857Y-85078214D01*
X150322857Y-85078214D02*
X150299047Y-85106785D01*
X150299047Y-85106785D02*
X150251428Y-85135357D01*
X150251428Y-85135357D02*
X150060952Y-85135357D01*
X150513333Y-84821071D02*
X150846666Y-84821071D01*
X150846666Y-84821071D02*
X150632381Y-85421071D01*
X168188571Y-61113928D02*
X168164762Y-61142500D01*
X168164762Y-61142500D02*
X168093333Y-61171071D01*
X168093333Y-61171071D02*
X168045714Y-61171071D01*
X168045714Y-61171071D02*
X167974286Y-61142500D01*
X167974286Y-61142500D02*
X167926667Y-61085357D01*
X167926667Y-61085357D02*
X167902857Y-61028214D01*
X167902857Y-61028214D02*
X167879048Y-60913928D01*
X167879048Y-60913928D02*
X167879048Y-60828214D01*
X167879048Y-60828214D02*
X167902857Y-60713928D01*
X167902857Y-60713928D02*
X167926667Y-60656785D01*
X167926667Y-60656785D02*
X167974286Y-60599642D01*
X167974286Y-60599642D02*
X168045714Y-60571071D01*
X168045714Y-60571071D02*
X168093333Y-60571071D01*
X168093333Y-60571071D02*
X168164762Y-60599642D01*
X168164762Y-60599642D02*
X168188571Y-60628214D01*
X168664762Y-61171071D02*
X168379048Y-61171071D01*
X168521905Y-61171071D02*
X168521905Y-60571071D01*
X168521905Y-60571071D02*
X168474286Y-60656785D01*
X168474286Y-60656785D02*
X168426667Y-60713928D01*
X168426667Y-60713928D02*
X168379048Y-60742500D01*
X168950476Y-60828214D02*
X168902857Y-60799642D01*
X168902857Y-60799642D02*
X168879047Y-60771071D01*
X168879047Y-60771071D02*
X168855238Y-60713928D01*
X168855238Y-60713928D02*
X168855238Y-60685357D01*
X168855238Y-60685357D02*
X168879047Y-60628214D01*
X168879047Y-60628214D02*
X168902857Y-60599642D01*
X168902857Y-60599642D02*
X168950476Y-60571071D01*
X168950476Y-60571071D02*
X169045714Y-60571071D01*
X169045714Y-60571071D02*
X169093333Y-60599642D01*
X169093333Y-60599642D02*
X169117142Y-60628214D01*
X169117142Y-60628214D02*
X169140952Y-60685357D01*
X169140952Y-60685357D02*
X169140952Y-60713928D01*
X169140952Y-60713928D02*
X169117142Y-60771071D01*
X169117142Y-60771071D02*
X169093333Y-60799642D01*
X169093333Y-60799642D02*
X169045714Y-60828214D01*
X169045714Y-60828214D02*
X168950476Y-60828214D01*
X168950476Y-60828214D02*
X168902857Y-60856785D01*
X168902857Y-60856785D02*
X168879047Y-60885357D01*
X168879047Y-60885357D02*
X168855238Y-60942500D01*
X168855238Y-60942500D02*
X168855238Y-61056785D01*
X168855238Y-61056785D02*
X168879047Y-61113928D01*
X168879047Y-61113928D02*
X168902857Y-61142500D01*
X168902857Y-61142500D02*
X168950476Y-61171071D01*
X168950476Y-61171071D02*
X169045714Y-61171071D01*
X169045714Y-61171071D02*
X169093333Y-61142500D01*
X169093333Y-61142500D02*
X169117142Y-61113928D01*
X169117142Y-61113928D02*
X169140952Y-61056785D01*
X169140952Y-61056785D02*
X169140952Y-60942500D01*
X169140952Y-60942500D02*
X169117142Y-60885357D01*
X169117142Y-60885357D02*
X169093333Y-60856785D01*
X169093333Y-60856785D02*
X169045714Y-60828214D01*
X194558214Y-88897619D02*
X194529642Y-88945238D01*
X194529642Y-88945238D02*
X194472500Y-88992857D01*
X194472500Y-88992857D02*
X194386785Y-89064285D01*
X194386785Y-89064285D02*
X194358214Y-89111904D01*
X194358214Y-89111904D02*
X194358214Y-89159523D01*
X194501071Y-89135714D02*
X194472500Y-89183333D01*
X194472500Y-89183333D02*
X194415357Y-89230952D01*
X194415357Y-89230952D02*
X194301071Y-89254761D01*
X194301071Y-89254761D02*
X194101071Y-89254761D01*
X194101071Y-89254761D02*
X193986785Y-89230952D01*
X193986785Y-89230952D02*
X193929642Y-89183333D01*
X193929642Y-89183333D02*
X193901071Y-89135714D01*
X193901071Y-89135714D02*
X193901071Y-89040476D01*
X193901071Y-89040476D02*
X193929642Y-88992857D01*
X193929642Y-88992857D02*
X193986785Y-88945238D01*
X193986785Y-88945238D02*
X194101071Y-88921428D01*
X194101071Y-88921428D02*
X194301071Y-88921428D01*
X194301071Y-88921428D02*
X194415357Y-88945238D01*
X194415357Y-88945238D02*
X194472500Y-88992857D01*
X194472500Y-88992857D02*
X194501071Y-89040476D01*
X194501071Y-89040476D02*
X194501071Y-89135714D01*
X193901071Y-88754761D02*
X193901071Y-88445237D01*
X193901071Y-88445237D02*
X194129642Y-88611904D01*
X194129642Y-88611904D02*
X194129642Y-88540475D01*
X194129642Y-88540475D02*
X194158214Y-88492856D01*
X194158214Y-88492856D02*
X194186785Y-88469047D01*
X194186785Y-88469047D02*
X194243928Y-88445237D01*
X194243928Y-88445237D02*
X194386785Y-88445237D01*
X194386785Y-88445237D02*
X194443928Y-88469047D01*
X194443928Y-88469047D02*
X194472500Y-88492856D01*
X194472500Y-88492856D02*
X194501071Y-88540475D01*
X194501071Y-88540475D02*
X194501071Y-88683332D01*
X194501071Y-88683332D02*
X194472500Y-88730951D01*
X194472500Y-88730951D02*
X194443928Y-88754761D01*
X194660571Y-68004071D02*
X194493905Y-67718357D01*
X194374857Y-68004071D02*
X194374857Y-67404071D01*
X194374857Y-67404071D02*
X194565333Y-67404071D01*
X194565333Y-67404071D02*
X194612952Y-67432642D01*
X194612952Y-67432642D02*
X194636762Y-67461214D01*
X194636762Y-67461214D02*
X194660571Y-67518357D01*
X194660571Y-67518357D02*
X194660571Y-67604071D01*
X194660571Y-67604071D02*
X194636762Y-67661214D01*
X194636762Y-67661214D02*
X194612952Y-67689785D01*
X194612952Y-67689785D02*
X194565333Y-67718357D01*
X194565333Y-67718357D02*
X194374857Y-67718357D01*
X194851048Y-67461214D02*
X194874857Y-67432642D01*
X194874857Y-67432642D02*
X194922476Y-67404071D01*
X194922476Y-67404071D02*
X195041524Y-67404071D01*
X195041524Y-67404071D02*
X195089143Y-67432642D01*
X195089143Y-67432642D02*
X195112952Y-67461214D01*
X195112952Y-67461214D02*
X195136762Y-67518357D01*
X195136762Y-67518357D02*
X195136762Y-67575500D01*
X195136762Y-67575500D02*
X195112952Y-67661214D01*
X195112952Y-67661214D02*
X194827238Y-68004071D01*
X194827238Y-68004071D02*
X195136762Y-68004071D01*
X195327238Y-67461214D02*
X195351047Y-67432642D01*
X195351047Y-67432642D02*
X195398666Y-67404071D01*
X195398666Y-67404071D02*
X195517714Y-67404071D01*
X195517714Y-67404071D02*
X195565333Y-67432642D01*
X195565333Y-67432642D02*
X195589142Y-67461214D01*
X195589142Y-67461214D02*
X195612952Y-67518357D01*
X195612952Y-67518357D02*
X195612952Y-67575500D01*
X195612952Y-67575500D02*
X195589142Y-67661214D01*
X195589142Y-67661214D02*
X195303428Y-68004071D01*
X195303428Y-68004071D02*
X195612952Y-68004071D01*
D14*
%TO.C,J1*%
X169004000Y-87612000D02*
G75*
G02*
X168804000Y-87612000I-100000J0D01*
G01*
X168804000Y-87612000D02*
G75*
G02*
X169004000Y-87612000I100000J0D01*
G01*
D17*
X176074000Y-99462000D02*
X176074000Y-97382000D01*
X176074000Y-89212000D02*
X176074000Y-89912000D01*
X174924000Y-89212000D02*
X176074000Y-89212000D01*
X168484000Y-89212000D02*
X167334000Y-89212000D01*
X167334000Y-99462000D02*
X176074000Y-99462000D01*
X167334000Y-97382000D02*
X167334000Y-99462000D01*
X167334000Y-89212000D02*
X167334000Y-89912000D01*
%TO.C,U2*%
X189127000Y-48036000D02*
X189127000Y-45436000D01*
X192127000Y-48036000D02*
X192127000Y-45436000D01*
D14*
X189677000Y-45136000D02*
G75*
G02*
X189577000Y-45136000I-50000J0D01*
G01*
X189577000Y-45136000D02*
G75*
G02*
X189677000Y-45136000I50000J0D01*
G01*
D16*
%TO.C,R20*%
X208330500Y-58053564D02*
X208330500Y-57599436D01*
X206860500Y-58053564D02*
X206860500Y-57599436D01*
%TO.C,C8*%
X211715000Y-49629248D02*
X211715000Y-50151752D01*
X210245000Y-49629248D02*
X210245000Y-50151752D01*
D17*
%TO.C,U3*%
X212800000Y-41790500D02*
X212800000Y-48120500D01*
X212800000Y-61790500D02*
X212800000Y-61660500D01*
X212800000Y-61790500D02*
X230800000Y-61790500D01*
X230800000Y-41790500D02*
X212800000Y-41790500D01*
X230800000Y-48120500D02*
X230800000Y-41790500D01*
X230800000Y-61790500D02*
X230800000Y-61660500D01*
D14*
X211400000Y-48890500D02*
G75*
G02*
X211200000Y-48890500I-100000J0D01*
G01*
X211200000Y-48890500D02*
G75*
G02*
X211400000Y-48890500I100000J0D01*
G01*
D16*
%TO.C,TP1*%
X201741000Y-72263000D02*
G75*
G02*
X200341000Y-72263000I-700000J0D01*
G01*
X200341000Y-72263000D02*
G75*
G02*
X201741000Y-72263000I700000J0D01*
G01*
%TO.C,TP3*%
X204027000Y-60706000D02*
G75*
G02*
X202627000Y-60706000I-700000J0D01*
G01*
X202627000Y-60706000D02*
G75*
G02*
X204027000Y-60706000I700000J0D01*
G01*
%TO.C,TP5*%
X192597000Y-56007000D02*
G75*
G02*
X191197000Y-56007000I-700000J0D01*
G01*
X191197000Y-56007000D02*
G75*
G02*
X192597000Y-56007000I700000J0D01*
G01*
D14*
%TO.C,C7*%
X208110000Y-48340500D02*
G75*
G02*
X208010000Y-48340500I-50000J0D01*
G01*
X208010000Y-48340500D02*
G75*
G02*
X208110000Y-48340500I50000J0D01*
G01*
D16*
%TO.C,TP4*%
X227395000Y-68453000D02*
G75*
G02*
X225995000Y-68453000I-700000J0D01*
G01*
X225995000Y-68453000D02*
G75*
G02*
X227395000Y-68453000I700000J0D01*
G01*
%TO.C,R15*%
X210530500Y-57599436D02*
X210530500Y-58053564D01*
X209060500Y-57599436D02*
X209060500Y-58053564D01*
%TO.C,TP2*%
X199455000Y-72263000D02*
G75*
G02*
X198055000Y-72263000I-700000J0D01*
G01*
X198055000Y-72263000D02*
G75*
G02*
X199455000Y-72263000I700000J0D01*
G01*
%TO.C,R3*%
X164238000Y-94895936D02*
X164238000Y-95350064D01*
X165708000Y-94895936D02*
X165708000Y-95350064D01*
%TO.C,R34*%
X196312936Y-91615000D02*
X196767064Y-91615000D01*
X196312936Y-93085000D02*
X196767064Y-93085000D01*
D14*
%TO.C,C4*%
X150450000Y-67750000D02*
G75*
G02*
X150350000Y-67750000I-50000J0D01*
G01*
X150350000Y-67750000D02*
G75*
G02*
X150450000Y-67750000I50000J0D01*
G01*
D16*
%TO.C,R24*%
X192940000Y-46963064D02*
X192940000Y-46508936D01*
X194410000Y-46963064D02*
X194410000Y-46508936D01*
%TO.C,R16*%
X198855064Y-65178000D02*
X198400936Y-65178000D01*
X198855064Y-66648000D02*
X198400936Y-66648000D01*
%TO.C,Q2*%
X186520000Y-89060000D02*
X186520000Y-88410000D01*
X186520000Y-89060000D02*
X186520000Y-89710000D01*
X189640000Y-89060000D02*
X189640000Y-88410000D01*
X189640000Y-89060000D02*
X189640000Y-89710000D01*
X186570000Y-90222500D02*
X186240000Y-90462500D01*
X186240000Y-89982500D01*
X186570000Y-90222500D01*
G36*
X186570000Y-90222500D02*
G01*
X186240000Y-90462500D01*
X186240000Y-89982500D01*
X186570000Y-90222500D01*
G37*
%TO.C,R29*%
X164397064Y-56075000D02*
X163942936Y-56075000D01*
X164397064Y-57545000D02*
X163942936Y-57545000D01*
D17*
%TO.C,U6*%
X190683000Y-58741000D02*
G75*
G02*
X190483000Y-58741000I-100000J0D01*
G01*
X190483000Y-58741000D02*
G75*
G02*
X190683000Y-58741000I100000J0D01*
G01*
X190806606Y-58741000D02*
G75*
G02*
X190359394Y-58741000I-223606J0D01*
G01*
X190359394Y-58741000D02*
G75*
G02*
X190806606Y-58741000I223606J0D01*
G01*
X190783000Y-58741000D02*
G75*
G02*
X190583000Y-58741000I-100000J0D01*
G01*
X190583000Y-58741000D02*
G75*
G02*
X190783000Y-58741000I100000J0D01*
G01*
X192483000Y-59441000D02*
G75*
G02*
X192283000Y-59441000I-100000J0D01*
G01*
X192283000Y-59441000D02*
G75*
G02*
X192483000Y-59441000I100000J0D01*
G01*
X192524419Y-59441000D02*
G75*
G02*
X192241581Y-59441000I-141419J0D01*
G01*
X192241581Y-59441000D02*
G75*
G02*
X192524419Y-59441000I141419J0D01*
G01*
X192606606Y-59441000D02*
G75*
G02*
X192159394Y-59441000I-223606J0D01*
G01*
X192159394Y-59441000D02*
G75*
G02*
X192606606Y-59441000I223606J0D01*
G01*
X192699225Y-59441000D02*
G75*
G02*
X192066775Y-59441000I-316225J0D01*
G01*
X192066775Y-59441000D02*
G75*
G02*
X192699225Y-59441000I316225J0D01*
G01*
X192483000Y-59541000D02*
G75*
G02*
X192283000Y-59541000I-100000J0D01*
G01*
X192283000Y-59541000D02*
G75*
G02*
X192483000Y-59541000I100000J0D01*
G01*
D14*
X191708000Y-58691000D02*
X196658000Y-58691000D01*
X191708000Y-63991000D02*
X191708000Y-58691000D01*
X196658000Y-58691000D02*
X196658000Y-63991000D01*
X196658000Y-63991000D02*
X191708000Y-63991000D01*
D16*
%TO.C,R14*%
X166035000Y-74908064D02*
X166035000Y-74453936D01*
X167505000Y-74908064D02*
X167505000Y-74453936D01*
D14*
%TO.C,LED2*%
X145870000Y-80720000D02*
X145870000Y-83370000D01*
X145870000Y-83370000D02*
X147970000Y-83370000D01*
X147970000Y-83370000D02*
X147970000Y-80720000D01*
D16*
%TO.C,R12*%
X189292936Y-77730000D02*
X189747064Y-77730000D01*
X189292936Y-79200000D02*
X189747064Y-79200000D01*
D14*
%TO.C,LED1*%
X142520000Y-80720000D02*
X142520000Y-83370000D01*
X142520000Y-83370000D02*
X144620000Y-83370000D01*
X144620000Y-83370000D02*
X144620000Y-80720000D01*
D16*
%TO.C,R23*%
X178402936Y-59195000D02*
X178857064Y-59195000D01*
X178402936Y-60665000D02*
X178857064Y-60665000D01*
D14*
%TO.C,C12*%
X217950000Y-70000500D02*
G75*
G02*
X217850000Y-70000500I-50000J0D01*
G01*
X217850000Y-70000500D02*
G75*
G02*
X217950000Y-70000500I50000J0D01*
G01*
D16*
%TO.C,C13*%
X212095000Y-67631752D02*
X212095000Y-67109248D01*
X213565000Y-67631752D02*
X213565000Y-67109248D01*
D14*
%TO.C,LED6*%
X162780000Y-69331000D02*
X162780000Y-71981000D01*
X162780000Y-71981000D02*
X164880000Y-71981000D01*
X164880000Y-71981000D02*
X164880000Y-69331000D01*
D16*
%TO.C,C20*%
X173535000Y-55741252D02*
X173535000Y-55218748D01*
X175005000Y-55741252D02*
X175005000Y-55218748D01*
D18*
%TO.C,U7*%
X166770800Y-54940000D02*
X166770800Y-56300000D01*
X169209200Y-56300000D02*
X169209200Y-54940000D01*
X166750800Y-57663800D02*
G75*
G02*
X167004800Y-57663800I127000J0D01*
G01*
X167004800Y-57663800D02*
G75*
G02*
X166750800Y-57663800I-127000J0D01*
G01*
D14*
%TO.C,LED3*%
X149220000Y-80720000D02*
X149220000Y-83370000D01*
X149220000Y-83370000D02*
X151320000Y-83370000D01*
X151320000Y-83370000D02*
X151320000Y-80720000D01*
D16*
%TO.C,R2*%
X159365000Y-87777064D02*
X159365000Y-87322936D01*
X160835000Y-87777064D02*
X160835000Y-87322936D01*
%TO.C,C6*%
X156278748Y-96985000D02*
X156801252Y-96985000D01*
X156278748Y-98455000D02*
X156801252Y-98455000D01*
%TO.C,R10*%
X150157064Y-62865000D02*
X149702936Y-62865000D01*
X150157064Y-64335000D02*
X149702936Y-64335000D01*
D14*
%TO.C,LED4*%
X144960000Y-64850000D02*
X147610000Y-64850000D01*
X147610000Y-62750000D02*
X144960000Y-62750000D01*
X147610000Y-64850000D02*
X147610000Y-62750000D01*
D17*
%TO.C,U4*%
X168942000Y-72568000D02*
X169492000Y-72568000D01*
X168942000Y-73118000D02*
X168942000Y-72568000D01*
X168942000Y-76568000D02*
X168942000Y-76018000D01*
X168942000Y-76568000D02*
X169492000Y-76568000D01*
X172392000Y-72568000D02*
X172942000Y-72568000D01*
X172942000Y-72568000D02*
X172942000Y-73118000D01*
X172942000Y-76568000D02*
X172392000Y-76568000D01*
X172942000Y-76568000D02*
X172942000Y-76018000D01*
D14*
X169942000Y-77468000D02*
G75*
G02*
X169742000Y-77468000I-100000J0D01*
G01*
X169742000Y-77468000D02*
G75*
G02*
X169942000Y-77468000I100000J0D01*
G01*
D16*
%TO.C,R4*%
X164238000Y-90831936D02*
X164238000Y-91286064D01*
X165708000Y-90831936D02*
X165708000Y-91286064D01*
%TO.C,R32*%
X180505000Y-93152936D02*
X180505000Y-93607064D01*
X181975000Y-93152936D02*
X181975000Y-93607064D01*
%TO.C,U5*%
X170144000Y-81661000D02*
X170144000Y-80861000D01*
X170144000Y-81661000D02*
X170144000Y-82461000D01*
X173264000Y-81661000D02*
X173264000Y-80861000D01*
X173264000Y-81661000D02*
X173264000Y-82461000D01*
X173544000Y-80601000D02*
X173214000Y-80361000D01*
X173544000Y-80121000D01*
X173544000Y-80601000D01*
G36*
X173544000Y-80601000D02*
G01*
X173214000Y-80361000D01*
X173544000Y-80121000D01*
X173544000Y-80601000D01*
G37*
%TO.C,C11*%
X188915000Y-73206252D02*
X188915000Y-72683748D01*
X190385000Y-73206252D02*
X190385000Y-72683748D01*
%TO.C,C2*%
X156631252Y-76905000D02*
X156108748Y-76905000D01*
X156631252Y-78375000D02*
X156108748Y-78375000D01*
%TO.C,R13*%
X189292936Y-75550000D02*
X189747064Y-75550000D01*
X189292936Y-77020000D02*
X189747064Y-77020000D01*
D14*
%TO.C,LED5*%
X165630000Y-69371000D02*
X165630000Y-72021000D01*
X165630000Y-72021000D02*
X167730000Y-72021000D01*
X167730000Y-72021000D02*
X167730000Y-69371000D01*
D16*
%TO.C,R27*%
X163702936Y-58325000D02*
X164157064Y-58325000D01*
X163702936Y-59795000D02*
X164157064Y-59795000D01*
D17*
%TO.C,J2*%
X143665000Y-92780000D02*
X151615000Y-92780000D01*
X143665000Y-93460000D02*
X143665000Y-92780000D01*
X143665000Y-97780000D02*
X143665000Y-97100000D01*
X145820000Y-97780000D02*
X143665000Y-97780000D01*
X151615000Y-92780000D02*
X151615000Y-93460000D01*
X151615000Y-97780000D02*
X149460000Y-97780000D01*
X151615000Y-97780000D02*
X151615000Y-97100000D01*
D14*
X146740000Y-100940000D02*
G75*
G02*
X146540000Y-100940000I-100000J0D01*
G01*
X146540000Y-100940000D02*
G75*
G02*
X146740000Y-100940000I100000J0D01*
G01*
D16*
%TO.C,R31*%
X170995000Y-55707064D02*
X170995000Y-55252936D01*
X172465000Y-55707064D02*
X172465000Y-55252936D01*
D17*
%TO.C,MK1*%
X154638000Y-55499000D02*
G75*
G02*
X148638000Y-55499000I-3000000J0D01*
G01*
X148638000Y-55499000D02*
G75*
G02*
X154638000Y-55499000I3000000J0D01*
G01*
D16*
%TO.C,R28*%
X158792936Y-55655000D02*
X159247064Y-55655000D01*
X158792936Y-57125000D02*
X159247064Y-57125000D01*
D17*
%TO.C,S1*%
X195977500Y-96970000D02*
X197337500Y-96970000D01*
X195977500Y-98870000D02*
X197337500Y-98870000D01*
D14*
X194557500Y-97320000D02*
G75*
G02*
X194357500Y-97320000I-100000J0D01*
G01*
X194357500Y-97320000D02*
G75*
G02*
X194557500Y-97320000I100000J0D01*
G01*
D16*
%TO.C,R19*%
X222717064Y-67865500D02*
X222262936Y-67865500D01*
X222717064Y-69335500D02*
X222262936Y-69335500D01*
D14*
%TO.C,C3*%
X159010000Y-73640000D02*
G75*
G02*
X158910000Y-73640000I-50000J0D01*
G01*
X158910000Y-73640000D02*
G75*
G02*
X159010000Y-73640000I50000J0D01*
G01*
D17*
%TO.C,S2*%
X187410000Y-96970000D02*
X188770000Y-96970000D01*
X187410000Y-98870000D02*
X188770000Y-98870000D01*
D14*
X185990000Y-97320000D02*
G75*
G02*
X185790000Y-97320000I-100000J0D01*
G01*
X185790000Y-97320000D02*
G75*
G02*
X185990000Y-97320000I100000J0D01*
G01*
D16*
%TO.C,R8*%
X146155000Y-87707064D02*
X146155000Y-87252936D01*
X147625000Y-87707064D02*
X147625000Y-87252936D01*
%TO.C,R9*%
X142555000Y-87637064D02*
X142555000Y-87182936D01*
X144025000Y-87637064D02*
X144025000Y-87182936D01*
D17*
%TO.C,Q1*%
X178480000Y-61935000D02*
X181375000Y-61935000D01*
X181375000Y-61935000D02*
X181375000Y-62140000D01*
X181375000Y-63890000D02*
X181375000Y-64085000D01*
X181375000Y-64085000D02*
X178470000Y-64085000D01*
D14*
X176400000Y-62310000D02*
G75*
G02*
X176200000Y-62310000I-100000J0D01*
G01*
X176200000Y-62310000D02*
G75*
G02*
X176400000Y-62310000I100000J0D01*
G01*
D16*
%TO.C,R30*%
X163902936Y-53825000D02*
X164357064Y-53825000D01*
X163902936Y-55295000D02*
X164357064Y-55295000D01*
%TO.C,C5*%
X146745000Y-70058748D02*
X146745000Y-70581252D01*
X148215000Y-70058748D02*
X148215000Y-70581252D01*
%TO.C,C16*%
X158738748Y-53125000D02*
X159261252Y-53125000D01*
X158738748Y-54595000D02*
X159261252Y-54595000D01*
%TO.C,R33*%
X188257064Y-91795000D02*
X187802936Y-91795000D01*
X188257064Y-93265000D02*
X187802936Y-93265000D01*
%TO.C,C19*%
X164391252Y-51545000D02*
X163868748Y-51545000D01*
X164391252Y-53015000D02*
X163868748Y-53015000D01*
%TO.C,J4*%
X172210000Y-43340000D02*
X172210000Y-46100000D01*
X179940000Y-43340000D02*
X172210000Y-43340000D01*
X179940000Y-43340000D02*
X179940000Y-46100000D01*
X179940000Y-46100000D02*
X172210000Y-46100000D01*
X181210000Y-43340000D02*
X182590000Y-43340000D01*
X182590000Y-43340000D02*
X182590000Y-44720000D01*
%TO.C,R25*%
X196696000Y-46963064D02*
X196696000Y-46508936D01*
X195226000Y-46963064D02*
X195226000Y-46508936D01*
%TO.C,R26*%
X167832936Y-51675000D02*
X168287064Y-51675000D01*
X167832936Y-53145000D02*
X168287064Y-53145000D01*
D17*
%TO.C,U1*%
X154940000Y-94920000D02*
X154940000Y-94370000D01*
X155490000Y-94920000D02*
X154940000Y-94920000D01*
X158940000Y-94920000D02*
X158390000Y-94920000D01*
X158940000Y-94920000D02*
X158940000Y-94370000D01*
X154940000Y-91470000D02*
X154940000Y-90920000D01*
X154940000Y-90920000D02*
X155490000Y-90920000D01*
X158940000Y-90920000D02*
X158940000Y-91470000D01*
X158940000Y-90920000D02*
X158390000Y-90920000D01*
D14*
X159940000Y-94020000D02*
G75*
G02*
X159740000Y-94020000I-100000J0D01*
G01*
X159740000Y-94020000D02*
G75*
G02*
X159940000Y-94020000I100000J0D01*
G01*
D16*
%TO.C,R18*%
X163185000Y-74998064D02*
X163185000Y-74543936D01*
X164655000Y-74998064D02*
X164655000Y-74543936D01*
D14*
%TO.C,C9*%
X185390000Y-71355000D02*
G75*
G02*
X185290000Y-71355000I-50000J0D01*
G01*
X185290000Y-71355000D02*
G75*
G02*
X185390000Y-71355000I50000J0D01*
G01*
D16*
%TO.C,R11*%
X178625000Y-69677936D02*
X178625000Y-70132064D01*
X180095000Y-69677936D02*
X180095000Y-70132064D01*
%TO.C,R5*%
X152295000Y-87777064D02*
X152295000Y-87322936D01*
X153765000Y-87777064D02*
X153765000Y-87322936D01*
%TO.C,C10*%
X180375000Y-73573748D02*
X180375000Y-74096252D01*
X181845000Y-73573748D02*
X181845000Y-74096252D01*
D14*
%TO.C,F1*%
X164877000Y-82214000D02*
X164877000Y-79838000D01*
D16*
%TO.C,R1*%
X156905000Y-87707064D02*
X156905000Y-87252936D01*
X158375000Y-87707064D02*
X158375000Y-87252936D01*
%TO.C,C22*%
X188221252Y-94585000D02*
X187698748Y-94585000D01*
X188221252Y-96055000D02*
X187698748Y-96055000D01*
%TO.C,J5*%
X150300000Y-43200000D02*
X150300000Y-45960000D01*
X160570000Y-43200000D02*
X150300000Y-43200000D01*
X160570000Y-43200000D02*
X160570000Y-45960000D01*
X160570000Y-45960000D02*
X150300000Y-45960000D01*
X161840000Y-43200000D02*
X163220000Y-43200000D01*
X163220000Y-43200000D02*
X163220000Y-44580000D01*
%TO.C,C14*%
X187264000Y-61717748D02*
X187264000Y-62240252D01*
X188734000Y-61717748D02*
X188734000Y-62240252D01*
%TO.C,C15*%
X190746748Y-50900000D02*
X191269252Y-50900000D01*
X190746748Y-49430000D02*
X191269252Y-49430000D01*
D19*
%TO.C,VR1*%
X152820000Y-64790000D02*
X154060000Y-64790000D01*
X152820000Y-68290000D02*
X152820000Y-64790000D01*
X159320000Y-64790000D02*
X158080000Y-64790000D01*
X159320000Y-68290000D02*
X159320000Y-64790000D01*
D16*
%TO.C,C17*%
X159291252Y-58265000D02*
X158768748Y-58265000D01*
X159291252Y-59735000D02*
X158768748Y-59735000D01*
%TO.C,R6*%
X154635000Y-87777064D02*
X154635000Y-87322936D01*
X156105000Y-87777064D02*
X156105000Y-87322936D01*
D17*
%TO.C,J3*%
X203370000Y-77410000D02*
X203370000Y-95470000D01*
X203370000Y-99690000D02*
X203370000Y-98910000D01*
X209440000Y-74690000D02*
X210225000Y-74690000D01*
X211865000Y-74690000D02*
X212725000Y-74690000D01*
X214365000Y-74690000D02*
X215225000Y-74690000D01*
X216865000Y-74690000D02*
X217725000Y-74690000D01*
X219365000Y-74690000D02*
X220225000Y-74690000D01*
X221865000Y-74690000D02*
X222725000Y-74690000D01*
X224365000Y-74690000D02*
X225225000Y-74690000D01*
X229190000Y-74690000D02*
X229970000Y-74690000D01*
X229970000Y-74690000D02*
X229970000Y-95470000D01*
X229970000Y-99690000D02*
X203370000Y-99690000D01*
X229970000Y-99690000D02*
X229970000Y-98910000D01*
D14*
X223645000Y-72440000D02*
G75*
G02*
X223445000Y-72440000I-100000J0D01*
G01*
X223445000Y-72440000D02*
G75*
G02*
X223645000Y-72440000I100000J0D01*
G01*
D16*
%TO.C,C1*%
X175287000Y-81668252D02*
X175287000Y-81145748D01*
X176757000Y-81668252D02*
X176757000Y-81145748D01*
%TO.C,C21*%
X196831252Y-94585000D02*
X196308748Y-94585000D01*
X196831252Y-96055000D02*
X196308748Y-96055000D01*
%TO.C,R7*%
X149625000Y-87637064D02*
X149625000Y-87182936D01*
X151095000Y-87637064D02*
X151095000Y-87182936D01*
%TO.C,C18*%
X167928748Y-58355000D02*
X168451252Y-58355000D01*
X167928748Y-59825000D02*
X168451252Y-59825000D01*
%TO.C,Q3*%
X195070000Y-88850000D02*
X195070000Y-88200000D01*
X195070000Y-88850000D02*
X195070000Y-89500000D01*
X198190000Y-88850000D02*
X198190000Y-88200000D01*
X198190000Y-88850000D02*
X198190000Y-89500000D01*
X195120000Y-90012500D02*
X194790000Y-90252500D01*
X194790000Y-89772500D01*
X195120000Y-90012500D01*
G36*
X195120000Y-90012500D02*
G01*
X194790000Y-90252500D01*
X194790000Y-89772500D01*
X195120000Y-90012500D01*
G37*
%TO.C,R22*%
X195172064Y-66648000D02*
X194717936Y-66648000D01*
X195172064Y-65178000D02*
X194717936Y-65178000D01*
%TD*%
M02*
