%TF.GenerationSoftware,KiCad,Pcbnew,9.0.4*%
%TF.CreationDate,2025-12-21T22:50:03+05:30*%
%TF.ProjectId,ESP-32 C3 demo project004,4553502d-3332-4204-9333-2064656d6f20,rev?*%
%TF.SameCoordinates,Original*%
%TF.FileFunction,Copper,L2,Inr*%
%TF.FilePolarity,Positive*%
%FSLAX46Y46*%
G04 Gerber Fmt 4.6, Leading zero omitted, Abs format (unit mm)*
G04 Created by KiCad (PCBNEW 9.0.4) date 2025-12-21 22:50:03*
%MOMM*%
%LPD*%
G01*
G04 APERTURE LIST*
%TA.AperFunction,ComponentPad*%
%ADD10O,1.050000X2.100000*%
%TD*%
%TA.AperFunction,ComponentPad*%
%ADD11C,0.650000*%
%TD*%
%TA.AperFunction,ComponentPad*%
%ADD12C,0.400000*%
%TD*%
%TA.AperFunction,ComponentPad*%
%ADD13C,1.208000*%
%TD*%
%TA.AperFunction,ComponentPad*%
%ADD14R,1.700000X1.700000*%
%TD*%
%TA.AperFunction,ComponentPad*%
%ADD15C,1.700000*%
%TD*%
%TA.AperFunction,ViaPad*%
%ADD16C,0.450000*%
%TD*%
%TA.AperFunction,ViaPad*%
%ADD17C,0.500000*%
%TD*%
%TA.AperFunction,Conductor*%
%ADD18C,0.300000*%
%TD*%
G04 APERTURE END LIST*
D10*
%TO.N,GND*%
%TO.C,J1*%
X175974000Y-96012000D03*
X167434000Y-96012000D03*
X175974000Y-91282000D03*
X167434000Y-91282000D03*
D11*
X169704000Y-90132000D03*
X173704000Y-90132000D03*
X168904000Y-90132000D03*
%TO.N,unconnected-(J1-SSRXP1-PadB11)*%
X169304000Y-90842000D03*
%TO.N,unconnected-(J1-SSRXN1-PadB10)*%
X170104000Y-90842000D03*
%TO.N,/VBUS*%
X170504000Y-90132000D03*
%TO.N,unconnected-(J1-SBU2-PadB8)*%
X170904000Y-90842000D03*
%TO.N,/USB_DN*%
X171304000Y-90132000D03*
%TO.N,/USB_DP*%
X172104000Y-90132000D03*
%TO.N,Net-(J1-CC2)*%
X172504000Y-90842000D03*
%TO.N,/VBUS*%
X172904000Y-90132000D03*
%TO.N,unconnected-(J1-SSTXN2-PadB3)*%
X173304000Y-90842000D03*
%TO.N,unconnected-(J1-SSTXP2-PadB2)*%
X174104000Y-90842000D03*
%TO.N,GND*%
X174504000Y-90132000D03*
%TD*%
D12*
%TO.N,GND*%
%TO.C,U3*%
X222210000Y-53990500D03*
X223310000Y-53990500D03*
X221660000Y-54540500D03*
X222760000Y-54540500D03*
X223860000Y-54540500D03*
X222210000Y-55090500D03*
X223310000Y-55090500D03*
X221660000Y-55640500D03*
X222760000Y-55640500D03*
X223860000Y-55640500D03*
X222210000Y-56190500D03*
X223310000Y-56190500D03*
%TD*%
D13*
%TO.N,GND*%
%TO.C,MK1*%
X152638000Y-54549000D03*
%TO.N,Net-(C17-Pad2)*%
X152638000Y-56449000D03*
%TD*%
D14*
%TO.N,+3.3V*%
%TO.C,J4*%
X181210000Y-44720000D03*
D15*
%TO.N,/ESP32-C3-02/SDA*%
X178670000Y-44720000D03*
%TO.N,/ESP32-C3-02/SCL*%
X176130000Y-44720000D03*
%TO.N,GND*%
X173590000Y-44720000D03*
%TD*%
D14*
%TO.N,+3.3V*%
%TO.C,J5*%
X161840000Y-44580000D03*
D15*
%TO.N,/ESP32-C3-02/GPIO8*%
X159300000Y-44580000D03*
%TO.N,/ESP32-C3-02/GPIO18*%
X156760000Y-44580000D03*
%TO.N,/ESP32-C3-02/GPIO19*%
X154220000Y-44580000D03*
%TO.N,GND*%
X151680000Y-44580000D03*
%TD*%
D16*
%TO.N,GND*%
X187960000Y-59690000D03*
X166243000Y-56642000D03*
X171701716Y-79359852D03*
X170929000Y-77597000D03*
X176022000Y-77724000D03*
X179705000Y-72898000D03*
X156845000Y-53975000D03*
X226187000Y-71882000D03*
X217043000Y-60569000D03*
X215011000Y-66420500D03*
X205613000Y-52324000D03*
X202946000Y-71501000D03*
X211201000Y-71882000D03*
X218440000Y-72136000D03*
X192405000Y-97340000D03*
X227330000Y-97409000D03*
X190246000Y-48641000D03*
X192024000Y-51816000D03*
X164973000Y-50546000D03*
X175514000Y-62611000D03*
X153797000Y-91567000D03*
X163576000Y-92202000D03*
X168402000Y-87503000D03*
X178435000Y-81280000D03*
X150368000Y-61595000D03*
X158877000Y-86567500D03*
X156591000Y-86637500D03*
X154178000Y-86637500D03*
X158750000Y-97663000D03*
X160528000Y-91313000D03*
X154000000Y-76180000D03*
X154000000Y-77700000D03*
X152810000Y-77700000D03*
X152810000Y-76200000D03*
X152760000Y-74960000D03*
X152019000Y-73914000D03*
X150290000Y-73840000D03*
X148770000Y-73860000D03*
X147470000Y-73840000D03*
X154700000Y-90710000D03*
X145440000Y-99670000D03*
X145450000Y-98970000D03*
X145450000Y-98310000D03*
D17*
%TO.N,/ESP32-C3-02/TX_RX*%
X228201396Y-59418396D03*
%TO.N,/ESP32-C3-02/RX_TX*%
X229108000Y-57912000D03*
X168148000Y-73787000D03*
%TO.N,/ESP32-C3-02/TX_RX*%
X168148000Y-74518000D03*
%TO.N,/ESP32-C3-02/PHOTO_C*%
X228981000Y-50673000D03*
X184023000Y-62103000D03*
%TO.N,Net-(C19-Pad2)*%
X161798000Y-52909000D03*
X161798000Y-54229000D03*
%TO.N,/ESP32-C3-02/GPIO19*%
X228536262Y-55813882D03*
%TO.N,/ESP32-C3-02/GPIO18*%
X228600000Y-56515000D03*
%TO.N,/ESP32-C3-02/GPIO8*%
X214630000Y-56854000D03*
%TO.N,/ESP32-C3-02/EN*%
X190373000Y-87503000D03*
X214817409Y-51501591D03*
%TO.N,/ESP32-C3-02/RTS*%
X168783000Y-72771000D03*
%TO.N,/VBUS*%
X172509535Y-84714535D03*
%TO.N,+3.3V*%
X173990000Y-75565000D03*
X179451000Y-74803000D03*
%TO.N,/ESP32-C3-02/BOOT*%
X211328000Y-60452000D03*
X198247000Y-87122000D03*
%TO.N,/ESP32-C3-02/DTR*%
X193167000Y-90551000D03*
X189900000Y-92583000D03*
%TO.N,/ESP32-C3-02/RTS*%
X191516000Y-90170000D03*
X189950000Y-90043000D03*
%TO.N,/ESP32-C3-02/BOOT*%
X199390000Y-98044000D03*
X199390000Y-96393000D03*
%TO.N,/ESP32-C3-02/EN*%
X190754000Y-98171000D03*
X190754000Y-96393000D03*
%TO.N,Net-(J1-CC1)*%
X170900000Y-86231472D03*
X166497000Y-87122000D03*
%TO.N,Net-(J1-CC2)*%
X168275000Y-93345000D03*
%TO.N,/CHARGING*%
X158877000Y-90424000D03*
X147320000Y-90805000D03*
%TO.N,/CHARGED*%
X157226000Y-89789000D03*
X151927000Y-90124814D03*
%TO.N,/CHARGING_POWER_GOOD*%
X158242258Y-89531183D03*
X151494911Y-88916089D03*
%TO.N,+3.3V*%
X205867000Y-49918000D03*
X220472000Y-68580000D03*
X210947000Y-68326000D03*
X181229000Y-91059000D03*
X185928000Y-64262000D03*
X195326000Y-60325000D03*
X176276000Y-59944000D03*
X193675000Y-48768000D03*
X191008000Y-48514000D03*
X189103000Y-44704000D03*
X188976000Y-51816000D03*
X164846000Y-60579000D03*
X170053000Y-50673000D03*
%TO.N,/USB_DP*%
X170180000Y-83439000D03*
%TO.N,/USB_DN*%
X173482000Y-83185000D03*
%TO.N,/VBUS*%
X170053000Y-87122000D03*
X171704000Y-83947000D03*
%TO.N,+3.3V*%
X179451000Y-67437000D03*
X166624000Y-67183000D03*
X163957000Y-67437000D03*
X145034000Y-65913000D03*
X145542000Y-69342000D03*
%TO.N,/+5V_USB*%
X148590000Y-80720000D03*
X145288000Y-80720000D03*
X160020000Y-93664003D03*
X160020000Y-92263997D03*
X157622003Y-95758000D03*
X156972000Y-95758000D03*
X154432000Y-98044000D03*
%TO.N,/VBUS*%
X167671000Y-82042000D03*
X167671000Y-81026000D03*
X167671000Y-80137000D03*
%TO.N,/ESP32-C3-02/CS*%
X228981000Y-60890500D03*
X199390000Y-57404000D03*
%TO.N,/ESP32-C3-02/CS_SD*%
X228600000Y-66675000D03*
X231809631Y-49114369D03*
%TO.N,/ESP32-C3-02/SDA*%
X220599000Y-53161250D03*
X204203998Y-49318000D03*
%TO.N,/ESP32-C3-02/SCL*%
X225425000Y-48768000D03*
X204724000Y-48768000D03*
%TO.N,+3.3V*%
X152273000Y-61722000D03*
X153797000Y-61722000D03*
X159258000Y-61722000D03*
X157861000Y-61722000D03*
X156464000Y-61722000D03*
X155067000Y-61722000D03*
%TO.N,/+5V_USB*%
X161927000Y-82036000D03*
X161907000Y-81076000D03*
X161897000Y-80146000D03*
%TD*%
D18*
%TO.N,/CHARGING*%
X157011057Y-90424000D02*
X158877000Y-90424000D01*
X156630057Y-90043000D02*
X157011057Y-90424000D01*
X152908000Y-90043000D02*
X156630057Y-90043000D01*
X152146000Y-90805000D02*
X152908000Y-90043000D01*
X147320000Y-90805000D02*
X152146000Y-90805000D01*
%TO.N,/USB_DP*%
X170307000Y-86487000D02*
X170180000Y-86360000D01*
X172085000Y-88265000D02*
X170307000Y-86487000D01*
X170180000Y-86360000D02*
X170180000Y-83439000D01*
X172085000Y-88392000D02*
X172085000Y-88265000D01*
X172104000Y-88411000D02*
X172085000Y-88392000D01*
X172104000Y-90132000D02*
X172104000Y-88411000D01*
%TD*%
%TA.AperFunction,Conductor*%
%TO.N,+3.3V*%
G36*
X196010486Y-42080998D02*
G01*
X196010488Y-42080999D01*
X196035950Y-42080999D01*
X196089606Y-42081000D01*
X196089610Y-42080999D01*
X196516610Y-42080999D01*
X196525458Y-42081315D01*
X196539895Y-42082347D01*
X196751219Y-42097466D01*
X196768707Y-42099981D01*
X196985539Y-42147155D01*
X197002514Y-42152140D01*
X197210409Y-42229686D01*
X197226501Y-42237036D01*
X197421244Y-42343377D01*
X197436123Y-42352939D01*
X197611663Y-42484351D01*
X197613758Y-42485919D01*
X197627126Y-42497504D01*
X197784027Y-42654408D01*
X197795603Y-42667767D01*
X197861783Y-42756176D01*
X197928577Y-42845404D01*
X197938142Y-42860287D01*
X198044482Y-43055038D01*
X198051831Y-43071131D01*
X198129372Y-43279029D01*
X198134356Y-43296004D01*
X198181521Y-43512817D01*
X198184039Y-43530329D01*
X198200184Y-43756066D01*
X198200500Y-43764912D01*
X198200500Y-46066541D01*
X198197926Y-46091669D01*
X198197090Y-46095714D01*
X198200500Y-46126557D01*
X198200500Y-46149562D01*
X198204847Y-46165787D01*
X198205550Y-46172128D01*
X198205883Y-46175127D01*
X198217789Y-46282414D01*
X198217792Y-46282429D01*
X198282233Y-46555447D01*
X198282236Y-46555456D01*
X198379338Y-46818634D01*
X198507670Y-47068083D01*
X198515240Y-47079223D01*
X198665335Y-47300114D01*
X198665337Y-47300116D01*
X198665339Y-47300119D01*
X198803512Y-47458132D01*
X198849996Y-47511290D01*
X199058925Y-47698490D01*
X199289032Y-47858945D01*
X199536913Y-47990284D01*
X199798904Y-48090563D01*
X200071129Y-48158299D01*
X200071138Y-48158300D01*
X200071143Y-48158301D01*
X200349547Y-48192490D01*
X200349548Y-48192490D01*
X200349564Y-48192492D01*
X200451458Y-48192587D01*
X200451743Y-48192663D01*
X200490720Y-48192623D01*
X200537421Y-48192647D01*
X200537422Y-48192646D01*
X200546574Y-48192651D01*
X200547649Y-48192564D01*
X203976087Y-48189086D01*
X204043145Y-48208703D01*
X204088953Y-48261460D01*
X204098967Y-48330609D01*
X204088489Y-48365714D01*
X204084513Y-48374195D01*
X204058916Y-48412505D01*
X204002342Y-48549087D01*
X204002198Y-48549808D01*
X203999661Y-48555222D01*
X203978321Y-48579360D01*
X203958103Y-48604450D01*
X203954310Y-48606520D01*
X203953384Y-48607569D01*
X203951323Y-48608151D01*
X203934836Y-48617155D01*
X203848506Y-48652914D01*
X203848496Y-48652919D01*
X203725582Y-48735048D01*
X203725578Y-48735051D01*
X203621049Y-48839580D01*
X203621046Y-48839584D01*
X203538917Y-48962498D01*
X203538910Y-48962511D01*
X203482341Y-49099082D01*
X203482338Y-49099092D01*
X203453498Y-49244079D01*
X203453498Y-49244082D01*
X203453498Y-49391918D01*
X203453498Y-49391920D01*
X203453497Y-49391920D01*
X203482338Y-49536907D01*
X203482341Y-49536917D01*
X203538910Y-49673488D01*
X203538917Y-49673501D01*
X203621046Y-49796415D01*
X203621049Y-49796419D01*
X203725578Y-49900948D01*
X203725582Y-49900951D01*
X203848496Y-49983080D01*
X203848509Y-49983087D01*
X203985080Y-50039656D01*
X203985085Y-50039658D01*
X203985089Y-50039658D01*
X203985090Y-50039659D01*
X204130077Y-50068500D01*
X204130080Y-50068500D01*
X204277918Y-50068500D01*
X204375460Y-50049096D01*
X204422911Y-50039658D01*
X204559493Y-49983084D01*
X204682414Y-49900951D01*
X204786949Y-49796416D01*
X204869082Y-49673495D01*
X204869083Y-49673492D01*
X204869085Y-49673489D01*
X204902513Y-49592785D01*
X204925656Y-49536913D01*
X204925656Y-49536910D01*
X204926053Y-49535953D01*
X204969893Y-49481549D01*
X204993160Y-49468844D01*
X205019473Y-49457945D01*
X205079489Y-49433087D01*
X205079492Y-49433085D01*
X205079495Y-49433084D01*
X205202416Y-49350951D01*
X205306951Y-49246416D01*
X205389084Y-49123495D01*
X205445658Y-48986913D01*
X205455096Y-48939462D01*
X205474500Y-48841920D01*
X205474500Y-48694079D01*
X205445659Y-48549092D01*
X205445658Y-48549091D01*
X205445658Y-48549087D01*
X205438339Y-48531417D01*
X205389087Y-48412511D01*
X205389077Y-48412493D01*
X205367673Y-48380459D01*
X205346795Y-48313782D01*
X205365280Y-48246402D01*
X205417259Y-48199712D01*
X205470646Y-48187569D01*
X224691130Y-48168067D01*
X224758189Y-48187684D01*
X224803997Y-48240441D01*
X224814011Y-48309589D01*
X224794358Y-48360957D01*
X224759918Y-48412500D01*
X224759912Y-48412511D01*
X224703343Y-48549082D01*
X224703340Y-48549092D01*
X224674500Y-48694079D01*
X224674500Y-48694082D01*
X224674500Y-48841918D01*
X224674500Y-48841920D01*
X224674499Y-48841920D01*
X224703340Y-48986907D01*
X224703343Y-48986917D01*
X224759912Y-49123488D01*
X224759919Y-49123501D01*
X224842048Y-49246415D01*
X224842051Y-49246419D01*
X224946580Y-49350948D01*
X224946584Y-49350951D01*
X225069498Y-49433080D01*
X225069511Y-49433087D01*
X225158314Y-49469870D01*
X225206087Y-49489658D01*
X225206091Y-49489658D01*
X225206092Y-49489659D01*
X225351079Y-49518500D01*
X225351082Y-49518500D01*
X225498920Y-49518500D01*
X225596462Y-49499096D01*
X225643913Y-49489658D01*
X225780495Y-49433084D01*
X225903416Y-49350951D01*
X226007951Y-49246416D01*
X226090084Y-49123495D01*
X226146658Y-48986913D01*
X226156096Y-48939462D01*
X226175500Y-48841920D01*
X226175500Y-48694079D01*
X226146659Y-48549092D01*
X226146658Y-48549091D01*
X226146658Y-48549087D01*
X226139339Y-48531417D01*
X226090087Y-48412511D01*
X226090077Y-48412493D01*
X226054648Y-48359469D01*
X226033770Y-48292792D01*
X226052255Y-48225412D01*
X226104234Y-48178722D01*
X226157622Y-48166579D01*
X231526285Y-48161131D01*
X231593345Y-48180748D01*
X231639153Y-48233505D01*
X231649167Y-48302653D01*
X231620206Y-48366239D01*
X231573864Y-48399692D01*
X231454138Y-48449283D01*
X231454129Y-48449288D01*
X231331215Y-48531417D01*
X231331211Y-48531420D01*
X231226682Y-48635949D01*
X231226679Y-48635953D01*
X231144550Y-48758867D01*
X231144543Y-48758880D01*
X231087974Y-48895451D01*
X231087971Y-48895461D01*
X231059131Y-49040448D01*
X231059131Y-49040451D01*
X231059131Y-49188287D01*
X231059131Y-49188289D01*
X231059130Y-49188289D01*
X231087971Y-49333276D01*
X231087974Y-49333286D01*
X231144543Y-49469857D01*
X231144550Y-49469870D01*
X231226679Y-49592784D01*
X231226682Y-49592788D01*
X231331211Y-49697317D01*
X231331215Y-49697320D01*
X231454129Y-49779449D01*
X231454142Y-49779456D01*
X231553232Y-49820500D01*
X231590718Y-49836027D01*
X231590722Y-49836027D01*
X231590723Y-49836028D01*
X231735710Y-49864869D01*
X231735713Y-49864869D01*
X231883551Y-49864869D01*
X231981093Y-49845465D01*
X232028544Y-49836027D01*
X232165126Y-49779453D01*
X232288047Y-49697320D01*
X232392582Y-49592785D01*
X232398397Y-49584081D01*
X232452009Y-49539277D01*
X232521334Y-49530569D01*
X232584362Y-49560723D01*
X232621081Y-49620165D01*
X232625500Y-49652972D01*
X232625500Y-98595573D01*
X232625184Y-98604418D01*
X232608778Y-98833834D01*
X232606261Y-98851343D01*
X232558323Y-99071750D01*
X232553340Y-99088722D01*
X232474526Y-99300070D01*
X232467179Y-99316162D01*
X232359098Y-99514137D01*
X232349536Y-99529018D01*
X232214381Y-99709606D01*
X232202799Y-99722977D01*
X232043319Y-99882499D01*
X232029952Y-99894084D01*
X231849406Y-100029284D01*
X231834527Y-100038850D01*
X231636577Y-100146986D01*
X231620488Y-100154338D01*
X231409159Y-100233210D01*
X231392187Y-100238197D01*
X231171796Y-100286193D01*
X231154288Y-100288715D01*
X230924876Y-100305182D01*
X230916108Y-100305500D01*
X230914865Y-100305501D01*
X230872864Y-100305513D01*
X230872784Y-100305538D01*
X230863101Y-100305547D01*
X230863099Y-100305546D01*
X230863095Y-100305547D01*
X180567203Y-100347728D01*
X180500147Y-100328100D01*
X180454348Y-100275334D01*
X180443104Y-100224787D01*
X180442959Y-100207746D01*
X180426254Y-98244920D01*
X190003499Y-98244920D01*
X190032340Y-98389907D01*
X190032343Y-98389917D01*
X190088912Y-98526488D01*
X190088919Y-98526501D01*
X190171048Y-98649415D01*
X190171051Y-98649419D01*
X190275580Y-98753948D01*
X190275584Y-98753951D01*
X190398498Y-98836080D01*
X190398511Y-98836087D01*
X190535082Y-98892656D01*
X190535087Y-98892658D01*
X190535091Y-98892658D01*
X190535092Y-98892659D01*
X190680079Y-98921500D01*
X190680082Y-98921500D01*
X190827920Y-98921500D01*
X190925462Y-98902096D01*
X190972913Y-98892658D01*
X191109495Y-98836084D01*
X191232416Y-98753951D01*
X191336951Y-98649416D01*
X191419084Y-98526495D01*
X191475658Y-98389913D01*
X191500920Y-98262917D01*
X191504500Y-98244920D01*
X191504500Y-98097079D01*
X191475659Y-97952092D01*
X191475658Y-97952091D01*
X191475658Y-97952087D01*
X191455545Y-97903529D01*
X191419087Y-97815511D01*
X191419080Y-97815498D01*
X191336951Y-97692584D01*
X191336948Y-97692580D01*
X191232419Y-97588051D01*
X191232415Y-97588048D01*
X191109501Y-97505919D01*
X191109488Y-97505912D01*
X190972917Y-97449343D01*
X190972907Y-97449340D01*
X190827920Y-97420500D01*
X190827918Y-97420500D01*
X190680082Y-97420500D01*
X190680080Y-97420500D01*
X190535092Y-97449340D01*
X190535082Y-97449343D01*
X190398511Y-97505912D01*
X190398498Y-97505919D01*
X190275584Y-97588048D01*
X190275580Y-97588051D01*
X190171051Y-97692580D01*
X190171048Y-97692584D01*
X190088919Y-97815498D01*
X190088912Y-97815511D01*
X190032343Y-97952082D01*
X190032340Y-97952092D01*
X190003500Y-98097079D01*
X190003500Y-98097082D01*
X190003500Y-98244918D01*
X190003500Y-98244920D01*
X190003499Y-98244920D01*
X180426254Y-98244920D01*
X180419161Y-97411457D01*
X191679499Y-97411457D01*
X191707379Y-97551614D01*
X191707381Y-97551620D01*
X191762069Y-97683650D01*
X191762074Y-97683659D01*
X191841467Y-97802478D01*
X191841470Y-97802482D01*
X191942517Y-97903529D01*
X191942521Y-97903532D01*
X192061340Y-97982925D01*
X192061346Y-97982928D01*
X192061347Y-97982929D01*
X192193380Y-98037619D01*
X192193384Y-98037619D01*
X192193385Y-98037620D01*
X192333542Y-98065500D01*
X192333545Y-98065500D01*
X192476457Y-98065500D01*
X192570751Y-98046742D01*
X192616620Y-98037619D01*
X192748653Y-97982929D01*
X192867479Y-97903532D01*
X192968532Y-97802479D01*
X193047929Y-97683653D01*
X193102619Y-97551620D01*
X193111742Y-97505751D01*
X193130500Y-97411457D01*
X193130500Y-97268542D01*
X193102620Y-97128385D01*
X193102619Y-97128384D01*
X193102619Y-97128380D01*
X193047929Y-96996347D01*
X193047928Y-96996346D01*
X193047925Y-96996340D01*
X192968532Y-96877521D01*
X192968529Y-96877517D01*
X192867482Y-96776470D01*
X192867478Y-96776467D01*
X192748659Y-96697074D01*
X192748650Y-96697069D01*
X192616620Y-96642381D01*
X192616614Y-96642379D01*
X192476457Y-96614500D01*
X192476455Y-96614500D01*
X192333545Y-96614500D01*
X192333543Y-96614500D01*
X192193385Y-96642379D01*
X192193379Y-96642381D01*
X192061349Y-96697069D01*
X192061340Y-96697074D01*
X191942521Y-96776467D01*
X191942517Y-96776470D01*
X191841470Y-96877517D01*
X191841467Y-96877521D01*
X191762074Y-96996340D01*
X191762069Y-96996349D01*
X191707381Y-97128379D01*
X191707379Y-97128385D01*
X191679500Y-97268542D01*
X191679500Y-97268545D01*
X191679500Y-97411455D01*
X191679500Y-97411457D01*
X191679499Y-97411457D01*
X180419161Y-97411457D01*
X180411122Y-96466920D01*
X190003499Y-96466920D01*
X190032340Y-96611907D01*
X190032343Y-96611917D01*
X190088912Y-96748488D01*
X190088919Y-96748501D01*
X190171048Y-96871415D01*
X190171051Y-96871419D01*
X190275580Y-96975948D01*
X190275584Y-96975951D01*
X190398498Y-97058080D01*
X190398511Y-97058087D01*
X190498415Y-97099468D01*
X190535087Y-97114658D01*
X190535091Y-97114658D01*
X190535092Y-97114659D01*
X190680079Y-97143500D01*
X190680082Y-97143500D01*
X190827920Y-97143500D01*
X190841313Y-97140836D01*
X190935973Y-97122005D01*
X190972913Y-97114658D01*
X191091961Y-97065347D01*
X191109488Y-97058087D01*
X191109488Y-97058086D01*
X191109495Y-97058084D01*
X191232416Y-96975951D01*
X191336951Y-96871416D01*
X191419084Y-96748495D01*
X191475658Y-96611913D01*
X191504500Y-96466920D01*
X198639499Y-96466920D01*
X198668340Y-96611907D01*
X198668343Y-96611917D01*
X198724912Y-96748488D01*
X198724919Y-96748501D01*
X198807048Y-96871415D01*
X198807051Y-96871419D01*
X198911580Y-96975948D01*
X198911584Y-96975951D01*
X199034498Y-97058080D01*
X199034507Y-97058085D01*
X199145209Y-97103939D01*
X199199612Y-97147780D01*
X199221677Y-97214074D01*
X199204398Y-97281773D01*
X199153261Y-97329384D01*
X199145209Y-97333061D01*
X199034507Y-97378914D01*
X199034498Y-97378919D01*
X198911584Y-97461048D01*
X198911580Y-97461051D01*
X198807051Y-97565580D01*
X198807048Y-97565584D01*
X198724919Y-97688498D01*
X198724912Y-97688511D01*
X198668343Y-97825082D01*
X198668340Y-97825092D01*
X198639500Y-97970079D01*
X198639500Y-97970082D01*
X198639500Y-98117918D01*
X198639500Y-98117920D01*
X198639499Y-98117920D01*
X198668340Y-98262907D01*
X198668343Y-98262917D01*
X198724912Y-98399488D01*
X198724919Y-98399501D01*
X198807048Y-98522415D01*
X198807051Y-98522419D01*
X198911580Y-98626948D01*
X198911584Y-98626951D01*
X199034498Y-98709080D01*
X199034511Y-98709087D01*
X199153516Y-98758380D01*
X199171087Y-98765658D01*
X199171091Y-98765658D01*
X199171092Y-98765659D01*
X199316079Y-98794500D01*
X199316082Y-98794500D01*
X199463920Y-98794500D01*
X199561462Y-98775096D01*
X199608913Y-98765658D01*
X199745495Y-98709084D01*
X199868416Y-98626951D01*
X199972951Y-98522416D01*
X200055084Y-98399495D01*
X200059056Y-98389907D01*
X200111656Y-98262917D01*
X200111658Y-98262913D01*
X200140500Y-98117918D01*
X200140500Y-97970082D01*
X200140500Y-97970079D01*
X200111659Y-97825092D01*
X200111658Y-97825091D01*
X200111658Y-97825087D01*
X200111656Y-97825082D01*
X200055087Y-97688511D01*
X200055080Y-97688498D01*
X199972951Y-97565584D01*
X199972948Y-97565580D01*
X199887825Y-97480457D01*
X226604499Y-97480457D01*
X226632379Y-97620614D01*
X226632381Y-97620620D01*
X226687069Y-97752650D01*
X226687074Y-97752659D01*
X226766467Y-97871478D01*
X226766470Y-97871482D01*
X226867517Y-97972529D01*
X226867521Y-97972532D01*
X226986340Y-98051925D01*
X226986346Y-98051928D01*
X226986347Y-98051929D01*
X227118380Y-98106619D01*
X227118384Y-98106619D01*
X227118385Y-98106620D01*
X227258542Y-98134500D01*
X227258545Y-98134500D01*
X227401457Y-98134500D01*
X227495751Y-98115742D01*
X227541620Y-98106619D01*
X227673653Y-98051929D01*
X227792479Y-97972532D01*
X227893532Y-97871479D01*
X227972929Y-97752653D01*
X228027619Y-97620620D01*
X228050435Y-97505919D01*
X228055500Y-97480457D01*
X228055500Y-97337542D01*
X228027620Y-97197385D01*
X228027619Y-97197384D01*
X228027619Y-97197380D01*
X227972929Y-97065347D01*
X227972928Y-97065346D01*
X227972925Y-97065340D01*
X227893532Y-96946521D01*
X227893529Y-96946517D01*
X227792482Y-96845470D01*
X227792478Y-96845467D01*
X227673659Y-96766074D01*
X227673650Y-96766069D01*
X227541620Y-96711381D01*
X227541614Y-96711379D01*
X227401457Y-96683500D01*
X227401455Y-96683500D01*
X227258545Y-96683500D01*
X227258543Y-96683500D01*
X227118385Y-96711379D01*
X227118379Y-96711381D01*
X226986349Y-96766069D01*
X226986340Y-96766074D01*
X226867521Y-96845467D01*
X226867517Y-96845470D01*
X226766470Y-96946517D01*
X226766467Y-96946521D01*
X226687074Y-97065340D01*
X226687069Y-97065349D01*
X226632381Y-97197379D01*
X226632379Y-97197385D01*
X226604500Y-97337542D01*
X226604500Y-97337545D01*
X226604500Y-97480455D01*
X226604500Y-97480457D01*
X226604499Y-97480457D01*
X199887825Y-97480457D01*
X199868418Y-97461050D01*
X199834235Y-97438210D01*
X199834234Y-97438209D01*
X199745495Y-97378916D01*
X199629618Y-97330918D01*
X199624659Y-97328318D01*
X199603408Y-97307771D01*
X199580387Y-97289221D01*
X199578567Y-97283755D01*
X199574428Y-97279753D01*
X199567657Y-97250975D01*
X199558322Y-97222926D01*
X199559746Y-97217346D01*
X199558427Y-97211740D01*
X199568291Y-97183866D01*
X199575601Y-97155227D01*
X199579815Y-97151303D01*
X199581737Y-97145873D01*
X199605104Y-97127758D01*
X199626738Y-97107616D01*
X199634791Y-97103939D01*
X199745488Y-97058087D01*
X199745488Y-97058086D01*
X199745495Y-97058084D01*
X199868416Y-96975951D01*
X199972951Y-96871416D01*
X200055084Y-96748495D01*
X200111658Y-96611913D01*
X200140500Y-96466918D01*
X200140500Y-96319082D01*
X200140500Y-96319079D01*
X200111659Y-96174092D01*
X200111658Y-96174091D01*
X200111658Y-96174087D01*
X200086560Y-96113495D01*
X200055087Y-96037511D01*
X200055080Y-96037498D01*
X199972951Y-95914584D01*
X199972948Y-95914580D01*
X199868419Y-95810051D01*
X199868415Y-95810048D01*
X199745501Y-95727919D01*
X199745488Y-95727912D01*
X199608917Y-95671343D01*
X199608907Y-95671340D01*
X199463920Y-95642500D01*
X199463918Y-95642500D01*
X199316082Y-95642500D01*
X199316080Y-95642500D01*
X199171092Y-95671340D01*
X199171082Y-95671343D01*
X199034511Y-95727912D01*
X199034498Y-95727919D01*
X198911584Y-95810048D01*
X198911580Y-95810051D01*
X198807051Y-95914580D01*
X198807048Y-95914584D01*
X198724919Y-96037498D01*
X198724912Y-96037511D01*
X198668343Y-96174082D01*
X198668340Y-96174092D01*
X198639500Y-96319079D01*
X198639500Y-96319082D01*
X198639500Y-96466918D01*
X198639500Y-96466920D01*
X198639499Y-96466920D01*
X191504500Y-96466920D01*
X191504500Y-96466918D01*
X191504500Y-96319082D01*
X191504500Y-96319079D01*
X191475659Y-96174092D01*
X191475658Y-96174091D01*
X191475658Y-96174087D01*
X191450560Y-96113495D01*
X191419087Y-96037511D01*
X191419080Y-96037498D01*
X191336951Y-95914584D01*
X191336948Y-95914580D01*
X191232419Y-95810051D01*
X191232415Y-95810048D01*
X191109501Y-95727919D01*
X191109488Y-95727912D01*
X190972917Y-95671343D01*
X190972907Y-95671340D01*
X190827920Y-95642500D01*
X190827918Y-95642500D01*
X190680082Y-95642500D01*
X190680080Y-95642500D01*
X190535092Y-95671340D01*
X190535082Y-95671343D01*
X190398511Y-95727912D01*
X190398498Y-95727919D01*
X190275584Y-95810048D01*
X190275580Y-95810051D01*
X190171051Y-95914580D01*
X190171048Y-95914584D01*
X190088919Y-96037498D01*
X190088912Y-96037511D01*
X190032343Y-96174082D01*
X190032340Y-96174092D01*
X190003500Y-96319079D01*
X190003500Y-96319082D01*
X190003500Y-96466918D01*
X190003500Y-96466920D01*
X190003499Y-96466920D01*
X180411122Y-96466920D01*
X180378697Y-92656920D01*
X189149499Y-92656920D01*
X189178340Y-92801907D01*
X189178343Y-92801917D01*
X189234912Y-92938488D01*
X189234919Y-92938501D01*
X189317048Y-93061415D01*
X189317051Y-93061419D01*
X189421580Y-93165948D01*
X189421584Y-93165951D01*
X189544498Y-93248080D01*
X189544511Y-93248087D01*
X189681082Y-93304656D01*
X189681087Y-93304658D01*
X189681091Y-93304658D01*
X189681092Y-93304659D01*
X189826079Y-93333500D01*
X189826082Y-93333500D01*
X189973920Y-93333500D01*
X190099558Y-93308508D01*
X190118913Y-93304658D01*
X190255495Y-93248084D01*
X190378416Y-93165951D01*
X190482951Y-93061416D01*
X190565084Y-92938495D01*
X190621658Y-92801913D01*
X190638790Y-92715786D01*
X190650500Y-92656920D01*
X190650500Y-92509079D01*
X190621659Y-92364092D01*
X190621658Y-92364091D01*
X190621658Y-92364087D01*
X190580457Y-92264619D01*
X190565087Y-92227511D01*
X190565080Y-92227498D01*
X190482951Y-92104584D01*
X190482948Y-92104580D01*
X190378419Y-92000051D01*
X190378415Y-92000048D01*
X190255501Y-91917919D01*
X190255488Y-91917912D01*
X190118917Y-91861343D01*
X190118907Y-91861340D01*
X189973920Y-91832500D01*
X189973918Y-91832500D01*
X189826082Y-91832500D01*
X189826080Y-91832500D01*
X189681092Y-91861340D01*
X189681082Y-91861343D01*
X189544511Y-91917912D01*
X189544498Y-91917919D01*
X189421584Y-92000048D01*
X189421580Y-92000051D01*
X189317051Y-92104580D01*
X189317048Y-92104584D01*
X189234919Y-92227498D01*
X189234912Y-92227511D01*
X189178343Y-92364082D01*
X189178340Y-92364092D01*
X189149500Y-92509079D01*
X189149500Y-92509082D01*
X189149500Y-92656918D01*
X189149500Y-92656920D01*
X189149499Y-92656920D01*
X180378697Y-92656920D01*
X180357080Y-90116920D01*
X189199499Y-90116920D01*
X189228340Y-90261907D01*
X189228343Y-90261917D01*
X189284912Y-90398488D01*
X189284919Y-90398501D01*
X189367048Y-90521415D01*
X189367051Y-90521419D01*
X189471580Y-90625948D01*
X189471584Y-90625951D01*
X189594498Y-90708080D01*
X189594511Y-90708087D01*
X189731082Y-90764656D01*
X189731087Y-90764658D01*
X189731091Y-90764658D01*
X189731092Y-90764659D01*
X189876079Y-90793500D01*
X189876082Y-90793500D01*
X190023920Y-90793500D01*
X190121462Y-90774096D01*
X190168913Y-90764658D01*
X190305495Y-90708084D01*
X190428416Y-90625951D01*
X190532951Y-90521416D01*
X190576434Y-90456339D01*
X190599308Y-90422106D01*
X190652920Y-90377301D01*
X190722245Y-90368594D01*
X190785272Y-90398748D01*
X190816971Y-90443545D01*
X190850912Y-90525488D01*
X190850919Y-90525501D01*
X190933048Y-90648415D01*
X190933051Y-90648419D01*
X191037580Y-90752948D01*
X191037584Y-90752951D01*
X191160498Y-90835080D01*
X191160511Y-90835087D01*
X191297082Y-90891656D01*
X191297087Y-90891658D01*
X191297091Y-90891658D01*
X191297092Y-90891659D01*
X191442079Y-90920500D01*
X191442082Y-90920500D01*
X191589920Y-90920500D01*
X191687462Y-90901096D01*
X191734913Y-90891658D01*
X191871495Y-90835084D01*
X191994416Y-90752951D01*
X192098951Y-90648416D01*
X192181084Y-90525495D01*
X192181087Y-90525488D01*
X192183138Y-90521652D01*
X192232097Y-90471805D01*
X192300234Y-90456339D01*
X192365915Y-90480167D01*
X192408287Y-90535721D01*
X192416500Y-90580098D01*
X192416500Y-90624918D01*
X192416500Y-90624920D01*
X192416499Y-90624920D01*
X192445340Y-90769907D01*
X192445343Y-90769917D01*
X192501912Y-90906488D01*
X192501919Y-90906501D01*
X192584048Y-91029415D01*
X192584051Y-91029419D01*
X192688580Y-91133948D01*
X192688584Y-91133951D01*
X192811498Y-91216080D01*
X192811511Y-91216087D01*
X192872973Y-91241545D01*
X192948087Y-91272658D01*
X192948091Y-91272658D01*
X192948092Y-91272659D01*
X193093079Y-91301500D01*
X193093082Y-91301500D01*
X193240920Y-91301500D01*
X193338462Y-91282096D01*
X193385913Y-91272658D01*
X193522495Y-91216084D01*
X193645416Y-91133951D01*
X193749951Y-91029416D01*
X193832084Y-90906495D01*
X193888658Y-90769913D01*
X193903858Y-90693500D01*
X193917500Y-90624920D01*
X193917500Y-90477079D01*
X193888659Y-90332092D01*
X193888658Y-90332091D01*
X193888658Y-90332087D01*
X193863456Y-90271244D01*
X193832087Y-90195511D01*
X193832080Y-90195498D01*
X193749951Y-90072584D01*
X193749948Y-90072580D01*
X193645419Y-89968051D01*
X193645415Y-89968048D01*
X193522501Y-89885919D01*
X193522488Y-89885912D01*
X193385917Y-89829343D01*
X193385907Y-89829340D01*
X193240920Y-89800500D01*
X193240918Y-89800500D01*
X193093082Y-89800500D01*
X193093080Y-89800500D01*
X192948092Y-89829340D01*
X192948082Y-89829343D01*
X192811511Y-89885912D01*
X192811498Y-89885919D01*
X192688584Y-89968048D01*
X192688580Y-89968051D01*
X192584051Y-90072580D01*
X192584048Y-90072584D01*
X192501919Y-90195498D01*
X192499860Y-90199352D01*
X192450898Y-90249197D01*
X192382761Y-90264659D01*
X192317081Y-90240829D01*
X192274711Y-90185272D01*
X192266500Y-90140901D01*
X192266500Y-90096079D01*
X192237659Y-89951092D01*
X192237658Y-89951091D01*
X192237658Y-89951087D01*
X192235379Y-89945584D01*
X192181087Y-89814511D01*
X192181080Y-89814498D01*
X192098951Y-89691584D01*
X192098948Y-89691580D01*
X191994419Y-89587051D01*
X191994415Y-89587048D01*
X191871501Y-89504919D01*
X191871488Y-89504912D01*
X191734917Y-89448343D01*
X191734907Y-89448340D01*
X191589920Y-89419500D01*
X191589918Y-89419500D01*
X191442082Y-89419500D01*
X191442080Y-89419500D01*
X191297092Y-89448340D01*
X191297082Y-89448343D01*
X191160511Y-89504912D01*
X191160498Y-89504919D01*
X191037584Y-89587048D01*
X191037580Y-89587051D01*
X190933051Y-89691580D01*
X190866691Y-89790894D01*
X190813078Y-89835698D01*
X190743753Y-89844405D01*
X190680726Y-89814250D01*
X190649030Y-89769458D01*
X190615084Y-89687505D01*
X190615082Y-89687502D01*
X190615080Y-89687498D01*
X190532951Y-89564584D01*
X190532948Y-89564580D01*
X190428419Y-89460051D01*
X190428415Y-89460048D01*
X190305501Y-89377919D01*
X190305488Y-89377912D01*
X190168917Y-89321343D01*
X190168907Y-89321340D01*
X190023920Y-89292500D01*
X190023918Y-89292500D01*
X189876082Y-89292500D01*
X189876080Y-89292500D01*
X189731092Y-89321340D01*
X189731082Y-89321343D01*
X189594511Y-89377912D01*
X189594498Y-89377919D01*
X189471584Y-89460048D01*
X189471580Y-89460051D01*
X189367051Y-89564580D01*
X189367048Y-89564584D01*
X189284919Y-89687498D01*
X189284912Y-89687511D01*
X189228343Y-89824082D01*
X189228340Y-89824092D01*
X189199500Y-89969079D01*
X189199500Y-89969082D01*
X189199500Y-90116918D01*
X189199500Y-90116920D01*
X189199499Y-90116920D01*
X180357080Y-90116920D01*
X180335463Y-87576920D01*
X189622499Y-87576920D01*
X189651340Y-87721907D01*
X189651343Y-87721917D01*
X189707912Y-87858488D01*
X189707919Y-87858501D01*
X189790048Y-87981415D01*
X189790051Y-87981419D01*
X189894580Y-88085948D01*
X189894584Y-88085951D01*
X190017498Y-88168080D01*
X190017511Y-88168087D01*
X190154082Y-88224656D01*
X190154087Y-88224658D01*
X190154091Y-88224658D01*
X190154092Y-88224659D01*
X190299079Y-88253500D01*
X190299082Y-88253500D01*
X190446920Y-88253500D01*
X190572598Y-88228500D01*
X190591913Y-88224658D01*
X190728495Y-88168084D01*
X190851416Y-88085951D01*
X190955951Y-87981416D01*
X191038084Y-87858495D01*
X191094658Y-87721913D01*
X191105351Y-87668156D01*
X191123500Y-87576920D01*
X191123500Y-87429079D01*
X191094659Y-87284092D01*
X191094658Y-87284091D01*
X191094658Y-87284087D01*
X191058138Y-87195920D01*
X197496499Y-87195920D01*
X197525340Y-87340907D01*
X197525343Y-87340917D01*
X197581912Y-87477488D01*
X197581919Y-87477501D01*
X197664048Y-87600415D01*
X197664051Y-87600419D01*
X197768580Y-87704948D01*
X197768584Y-87704951D01*
X197891498Y-87787080D01*
X197891511Y-87787087D01*
X198028082Y-87843656D01*
X198028087Y-87843658D01*
X198028091Y-87843658D01*
X198028092Y-87843659D01*
X198173079Y-87872500D01*
X198173082Y-87872500D01*
X198320920Y-87872500D01*
X198450856Y-87846653D01*
X198465913Y-87843658D01*
X198602495Y-87787084D01*
X198725416Y-87704951D01*
X198829951Y-87600416D01*
X198912084Y-87477495D01*
X198968658Y-87340913D01*
X198997500Y-87195918D01*
X198997500Y-87048082D01*
X198997500Y-87048079D01*
X198968659Y-86903092D01*
X198968658Y-86903091D01*
X198968658Y-86903087D01*
X198941665Y-86837919D01*
X198912087Y-86766511D01*
X198912080Y-86766498D01*
X198829951Y-86643584D01*
X198829948Y-86643580D01*
X198725419Y-86539051D01*
X198725415Y-86539048D01*
X198602501Y-86456919D01*
X198602488Y-86456912D01*
X198465917Y-86400343D01*
X198465907Y-86400340D01*
X198320920Y-86371500D01*
X198320918Y-86371500D01*
X198173082Y-86371500D01*
X198173080Y-86371500D01*
X198028092Y-86400340D01*
X198028082Y-86400343D01*
X197891511Y-86456912D01*
X197891498Y-86456919D01*
X197768584Y-86539048D01*
X197768580Y-86539051D01*
X197664051Y-86643580D01*
X197664048Y-86643584D01*
X197581919Y-86766498D01*
X197581912Y-86766511D01*
X197525343Y-86903082D01*
X197525340Y-86903092D01*
X197496500Y-87048079D01*
X197496500Y-87048082D01*
X197496500Y-87195918D01*
X197496500Y-87195920D01*
X197496499Y-87195920D01*
X191058138Y-87195920D01*
X191038087Y-87147511D01*
X191038080Y-87147498D01*
X191013613Y-87110881D01*
X190955951Y-87024583D01*
X190851419Y-86920051D01*
X190851415Y-86920048D01*
X190728501Y-86837919D01*
X190728488Y-86837912D01*
X190591917Y-86781343D01*
X190591907Y-86781340D01*
X190446920Y-86752500D01*
X190446918Y-86752500D01*
X190299082Y-86752500D01*
X190299080Y-86752500D01*
X190154092Y-86781340D01*
X190154082Y-86781343D01*
X190017511Y-86837912D01*
X190017498Y-86837919D01*
X189894584Y-86920048D01*
X189894580Y-86920051D01*
X189790051Y-87024580D01*
X189790048Y-87024584D01*
X189707919Y-87147498D01*
X189707912Y-87147511D01*
X189651343Y-87284082D01*
X189651340Y-87284092D01*
X189622500Y-87429079D01*
X189622500Y-87429082D01*
X189622500Y-87576918D01*
X189622500Y-87576920D01*
X189622499Y-87576920D01*
X180335463Y-87576920D01*
X180257113Y-78370701D01*
X180257112Y-78370701D01*
X180257112Y-78370700D01*
X176672977Y-78399384D01*
X176605782Y-78380237D01*
X176559606Y-78327800D01*
X176549110Y-78258724D01*
X176577625Y-78194938D01*
X176584312Y-78187699D01*
X176585532Y-78186479D01*
X176664929Y-78067653D01*
X176719619Y-77935620D01*
X176728742Y-77889751D01*
X176747500Y-77795457D01*
X176747500Y-77652542D01*
X176734456Y-77586968D01*
X176730613Y-77567648D01*
X196719500Y-77567648D01*
X196719500Y-77772351D01*
X196751522Y-77974534D01*
X196814781Y-78169223D01*
X196862833Y-78263529D01*
X196904980Y-78346247D01*
X196907715Y-78351613D01*
X197028028Y-78517213D01*
X197172786Y-78661971D01*
X197327749Y-78774556D01*
X197338390Y-78782287D01*
X197454607Y-78841503D01*
X197520776Y-78875218D01*
X197520778Y-78875218D01*
X197520781Y-78875220D01*
X197588961Y-78897373D01*
X197715465Y-78938477D01*
X197816557Y-78954488D01*
X197917648Y-78970500D01*
X197917649Y-78970500D01*
X198122351Y-78970500D01*
X198122352Y-78970500D01*
X198324534Y-78938477D01*
X198519219Y-78875220D01*
X198701610Y-78782287D01*
X198834398Y-78685812D01*
X198867213Y-78661971D01*
X198867215Y-78661968D01*
X198867219Y-78661966D01*
X199011966Y-78517219D01*
X199011968Y-78517215D01*
X199011971Y-78517213D01*
X199066804Y-78441740D01*
X199132287Y-78351610D01*
X199225220Y-78169219D01*
X199288477Y-77974534D01*
X199320500Y-77772352D01*
X199320500Y-77567648D01*
X199307216Y-77483776D01*
X199288477Y-77365465D01*
X199246904Y-77237517D01*
X199225220Y-77170781D01*
X199225218Y-77170778D01*
X199225218Y-77170776D01*
X199167283Y-77057074D01*
X199132287Y-76988390D01*
X199116772Y-76967035D01*
X199011971Y-76822786D01*
X198960492Y-76771307D01*
X204344499Y-76771307D01*
X204376222Y-76930783D01*
X204376225Y-76930793D01*
X204438450Y-77081019D01*
X204438452Y-77081023D01*
X204528788Y-77216220D01*
X204528794Y-77216228D01*
X204643771Y-77331205D01*
X204643779Y-77331211D01*
X204778976Y-77421547D01*
X204778980Y-77421549D01*
X204929206Y-77483774D01*
X204929211Y-77483776D01*
X204929215Y-77483776D01*
X204929216Y-77483777D01*
X205088692Y-77515500D01*
X205088695Y-77515500D01*
X205251307Y-77515500D01*
X205387618Y-77488385D01*
X205410789Y-77483776D01*
X205561021Y-77421548D01*
X205561023Y-77421547D01*
X205644954Y-77365466D01*
X205696225Y-77331208D01*
X205811208Y-77216225D01*
X205865803Y-77134517D01*
X205901547Y-77081023D01*
X205901549Y-77081019D01*
X205939917Y-76988390D01*
X205963776Y-76930789D01*
X205977538Y-76861602D01*
X205995500Y-76771307D01*
X205995500Y-76608700D01*
X205995500Y-76608695D01*
X205994835Y-76605350D01*
X225094500Y-76605350D01*
X225094500Y-76774649D01*
X225120981Y-76941847D01*
X225173296Y-77102853D01*
X225221928Y-77198296D01*
X225249974Y-77253340D01*
X225250152Y-77253688D01*
X225349648Y-77390634D01*
X225349652Y-77390639D01*
X225469360Y-77510347D01*
X225469365Y-77510351D01*
X225588817Y-77597137D01*
X225606315Y-77609850D01*
X225702425Y-77658820D01*
X225757146Y-77686703D01*
X225757148Y-77686703D01*
X225757151Y-77686705D01*
X225843450Y-77714745D01*
X225918152Y-77739018D01*
X226085351Y-77765500D01*
X226085356Y-77765500D01*
X226254649Y-77765500D01*
X226421847Y-77739018D01*
X226582849Y-77686705D01*
X226733685Y-77609850D01*
X226870641Y-77510346D01*
X226990346Y-77390641D01*
X227089850Y-77253685D01*
X227166705Y-77102849D01*
X227219018Y-76941847D01*
X227224775Y-76905500D01*
X227245500Y-76774649D01*
X227245500Y-76605350D01*
X227219018Y-76438152D01*
X227194745Y-76363450D01*
X227166705Y-76277151D01*
X227166703Y-76277148D01*
X227166703Y-76277146D01*
X227138820Y-76222425D01*
X227089850Y-76126315D01*
X227033528Y-76048794D01*
X226990351Y-75989365D01*
X226990347Y-75989360D01*
X226870639Y-75869652D01*
X226870634Y-75869648D01*
X226733688Y-75770152D01*
X226733687Y-75770151D01*
X226733685Y-75770150D01*
X226669647Y-75737521D01*
X226582853Y-75693296D01*
X226421847Y-75640981D01*
X226254649Y-75614500D01*
X226254644Y-75614500D01*
X226085356Y-75614500D01*
X226085351Y-75614500D01*
X225918152Y-75640981D01*
X225757146Y-75693296D01*
X225606311Y-75770152D01*
X225469365Y-75869648D01*
X225469360Y-75869652D01*
X225349652Y-75989360D01*
X225349648Y-75989365D01*
X225250152Y-76126311D01*
X225173296Y-76277146D01*
X225120981Y-76438152D01*
X225094500Y-76605350D01*
X205994835Y-76605350D01*
X205982561Y-76543650D01*
X205963777Y-76449216D01*
X205963776Y-76449215D01*
X205963776Y-76449211D01*
X205959195Y-76438152D01*
X205901549Y-76298980D01*
X205901547Y-76298976D01*
X205811211Y-76163779D01*
X205811205Y-76163771D01*
X205696228Y-76048794D01*
X205696220Y-76048788D01*
X205561023Y-75958452D01*
X205561019Y-75958450D01*
X205410793Y-75896225D01*
X205410783Y-75896222D01*
X205251307Y-75864500D01*
X205251305Y-75864500D01*
X205088695Y-75864500D01*
X205088693Y-75864500D01*
X204929216Y-75896222D01*
X204929206Y-75896225D01*
X204778980Y-75958450D01*
X204778976Y-75958452D01*
X204643779Y-76048788D01*
X204643771Y-76048794D01*
X204528794Y-76163771D01*
X204528788Y-76163779D01*
X204438452Y-76298976D01*
X204438450Y-76298980D01*
X204376225Y-76449206D01*
X204376222Y-76449216D01*
X204344500Y-76608692D01*
X204344500Y-76608695D01*
X204344500Y-76771305D01*
X204344500Y-76771307D01*
X204344499Y-76771307D01*
X198960492Y-76771307D01*
X198867213Y-76678028D01*
X198701613Y-76557715D01*
X198701612Y-76557714D01*
X198701610Y-76557713D01*
X198644653Y-76528691D01*
X198519223Y-76464781D01*
X198324534Y-76401522D01*
X198149995Y-76373878D01*
X198122352Y-76369500D01*
X197917648Y-76369500D01*
X197893329Y-76373351D01*
X197715465Y-76401522D01*
X197520776Y-76464781D01*
X197338386Y-76557715D01*
X197172786Y-76678028D01*
X197028028Y-76822786D01*
X196907715Y-76988386D01*
X196814781Y-77170776D01*
X196751522Y-77365465D01*
X196719500Y-77567648D01*
X176730613Y-77567648D01*
X176719620Y-77512385D01*
X176719619Y-77512384D01*
X176719619Y-77512380D01*
X176664929Y-77380347D01*
X176664928Y-77380346D01*
X176664925Y-77380340D01*
X176585532Y-77261521D01*
X176585529Y-77261517D01*
X176484482Y-77160470D01*
X176484478Y-77160467D01*
X176365659Y-77081074D01*
X176365650Y-77081069D01*
X176233620Y-77026381D01*
X176233614Y-77026379D01*
X176093457Y-76998500D01*
X176093455Y-76998500D01*
X175950545Y-76998500D01*
X175950543Y-76998500D01*
X175810385Y-77026379D01*
X175810379Y-77026381D01*
X175678349Y-77081069D01*
X175678340Y-77081074D01*
X175559521Y-77160467D01*
X175559517Y-77160470D01*
X175458470Y-77261517D01*
X175458467Y-77261521D01*
X175379074Y-77380340D01*
X175379069Y-77380349D01*
X175324381Y-77512379D01*
X175324379Y-77512385D01*
X175296500Y-77652542D01*
X175296500Y-77652545D01*
X175296500Y-77795455D01*
X175296500Y-77795457D01*
X175296499Y-77795457D01*
X175324379Y-77935614D01*
X175324381Y-77935620D01*
X175379069Y-78067650D01*
X175379074Y-78067659D01*
X175458467Y-78186478D01*
X175458470Y-78186482D01*
X175470016Y-78198028D01*
X175503501Y-78259351D01*
X175498517Y-78329043D01*
X175456645Y-78384976D01*
X175391181Y-78409393D01*
X175383327Y-78409705D01*
X171380380Y-78441740D01*
X171313185Y-78422593D01*
X171267009Y-78370156D01*
X171256513Y-78301080D01*
X171285028Y-78237294D01*
X171310494Y-78214644D01*
X171391479Y-78160532D01*
X171492532Y-78059479D01*
X171571929Y-77940653D01*
X171626619Y-77808620D01*
X171650870Y-77686705D01*
X171654500Y-77668457D01*
X171654500Y-77525542D01*
X171626620Y-77385385D01*
X171626619Y-77385384D01*
X171626619Y-77385380D01*
X171571929Y-77253347D01*
X171571928Y-77253346D01*
X171571925Y-77253340D01*
X171492532Y-77134521D01*
X171492529Y-77134517D01*
X171391482Y-77033470D01*
X171391478Y-77033467D01*
X171272659Y-76954074D01*
X171272650Y-76954069D01*
X171140620Y-76899381D01*
X171140614Y-76899379D01*
X171000457Y-76871500D01*
X171000455Y-76871500D01*
X170857545Y-76871500D01*
X170857543Y-76871500D01*
X170717385Y-76899379D01*
X170717379Y-76899381D01*
X170585349Y-76954069D01*
X170585340Y-76954074D01*
X170466521Y-77033467D01*
X170466517Y-77033470D01*
X170365470Y-77134517D01*
X170365467Y-77134521D01*
X170286074Y-77253340D01*
X170286069Y-77253349D01*
X170231381Y-77385379D01*
X170231379Y-77385385D01*
X170203500Y-77525542D01*
X170203500Y-77525545D01*
X170203500Y-77668455D01*
X170203500Y-77668457D01*
X170203499Y-77668457D01*
X170231379Y-77808614D01*
X170231381Y-77808620D01*
X170286069Y-77940650D01*
X170286074Y-77940659D01*
X170365467Y-78059478D01*
X170365470Y-78059482D01*
X170466517Y-78160529D01*
X170466521Y-78160532D01*
X170558163Y-78221766D01*
X170602968Y-78275378D01*
X170611675Y-78344703D01*
X170581520Y-78407731D01*
X170522077Y-78444450D01*
X170490264Y-78448864D01*
X154400580Y-78577629D01*
X154333385Y-78558482D01*
X154287209Y-78506045D01*
X154276713Y-78436969D01*
X154305228Y-78373183D01*
X154338593Y-78346322D01*
X154338588Y-78346314D01*
X154338687Y-78346247D01*
X154341144Y-78344270D01*
X154343649Y-78342930D01*
X154343653Y-78342929D01*
X154462479Y-78263532D01*
X154563532Y-78162479D01*
X154642929Y-78043653D01*
X154697619Y-77911620D01*
X154706742Y-77865751D01*
X154725500Y-77771457D01*
X154725500Y-77628542D01*
X154697620Y-77488385D01*
X154697619Y-77488384D01*
X154697619Y-77488380D01*
X154642929Y-77356347D01*
X154642928Y-77356346D01*
X154642925Y-77356340D01*
X154563532Y-77237521D01*
X154563529Y-77237517D01*
X154462482Y-77136470D01*
X154462478Y-77136467D01*
X154343659Y-77057074D01*
X154343649Y-77057069D01*
X154337596Y-77054562D01*
X154283192Y-77010722D01*
X154261125Y-76944429D01*
X154278403Y-76876729D01*
X154329539Y-76829117D01*
X154337596Y-76825438D01*
X154338409Y-76825100D01*
X154343653Y-76822929D01*
X154343875Y-76822781D01*
X154415909Y-76774649D01*
X154462479Y-76743532D01*
X154563532Y-76642479D01*
X154642929Y-76523653D01*
X154697619Y-76391620D01*
X154716047Y-76298979D01*
X154725500Y-76251457D01*
X154725500Y-76108542D01*
X154697620Y-75968385D01*
X154697619Y-75968384D01*
X154697619Y-75968380D01*
X154642929Y-75836347D01*
X154642928Y-75836346D01*
X154642925Y-75836340D01*
X154563532Y-75717521D01*
X154563529Y-75717517D01*
X154462482Y-75616470D01*
X154462478Y-75616467D01*
X154343659Y-75537074D01*
X154343650Y-75537069D01*
X154211620Y-75482381D01*
X154211614Y-75482379D01*
X154071457Y-75454500D01*
X154071455Y-75454500D01*
X153928545Y-75454500D01*
X153928543Y-75454500D01*
X153788385Y-75482379D01*
X153788379Y-75482381D01*
X153656349Y-75537069D01*
X153656340Y-75537074D01*
X153537521Y-75616467D01*
X153537517Y-75616470D01*
X153482681Y-75671307D01*
X153474735Y-75675645D01*
X153469310Y-75682893D01*
X153444550Y-75692127D01*
X153421358Y-75704792D01*
X153412328Y-75704146D01*
X153403846Y-75707310D01*
X153378025Y-75701693D01*
X153351666Y-75699808D01*
X153342612Y-75693989D01*
X153335573Y-75692458D01*
X153307319Y-75671307D01*
X153278692Y-75642680D01*
X153245207Y-75581357D01*
X153250191Y-75511665D01*
X153278692Y-75467318D01*
X153323532Y-75422479D01*
X153402929Y-75303653D01*
X153457619Y-75171620D01*
X153485500Y-75031455D01*
X153485500Y-74888545D01*
X153485500Y-74888542D01*
X153457620Y-74748385D01*
X153457619Y-74748384D01*
X153457619Y-74748380D01*
X153412519Y-74639500D01*
X153402930Y-74616349D01*
X153402925Y-74616340D01*
X153323532Y-74497521D01*
X153323529Y-74497517D01*
X153222482Y-74396470D01*
X153222478Y-74396467D01*
X153103659Y-74317074D01*
X153103650Y-74317069D01*
X152971620Y-74262381D01*
X152971614Y-74262379D01*
X152825480Y-74233311D01*
X152825832Y-74231537D01*
X152768933Y-74208549D01*
X152728584Y-74151507D01*
X152724275Y-74087130D01*
X152744500Y-73985455D01*
X152744500Y-73860920D01*
X167397499Y-73860920D01*
X167426340Y-74005907D01*
X167426343Y-74005917D01*
X167467404Y-74105048D01*
X167474873Y-74174517D01*
X167467404Y-74199952D01*
X167426343Y-74299082D01*
X167426340Y-74299092D01*
X167397500Y-74444079D01*
X167397500Y-74444082D01*
X167397500Y-74591918D01*
X167397500Y-74591920D01*
X167397499Y-74591920D01*
X167426340Y-74736907D01*
X167426343Y-74736917D01*
X167482912Y-74873488D01*
X167482919Y-74873501D01*
X167565048Y-74996415D01*
X167565051Y-74996419D01*
X167669580Y-75100948D01*
X167669584Y-75100951D01*
X167792498Y-75183080D01*
X167792511Y-75183087D01*
X167929082Y-75239656D01*
X167929087Y-75239658D01*
X167929091Y-75239658D01*
X167929092Y-75239659D01*
X168074079Y-75268500D01*
X168074082Y-75268500D01*
X168221920Y-75268500D01*
X168319462Y-75249096D01*
X168366913Y-75239658D01*
X168503495Y-75183084D01*
X168626416Y-75100951D01*
X168730951Y-74996416D01*
X168813084Y-74873495D01*
X168869658Y-74736913D01*
X168889035Y-74639500D01*
X168898500Y-74591920D01*
X168898500Y-74444079D01*
X168869659Y-74299092D01*
X168869658Y-74299091D01*
X168869658Y-74299087D01*
X168828594Y-74199951D01*
X168821126Y-74130484D01*
X168828595Y-74105047D01*
X168869658Y-74005913D01*
X168888447Y-73911457D01*
X168898500Y-73860920D01*
X168898500Y-73713079D01*
X168884451Y-73642453D01*
X168890678Y-73572861D01*
X168933541Y-73517684D01*
X168981876Y-73496644D01*
X168993988Y-73494234D01*
X169001913Y-73492658D01*
X169138495Y-73436084D01*
X169261416Y-73353951D01*
X169365951Y-73249416D01*
X169448084Y-73126495D01*
X169449980Y-73121919D01*
X169473414Y-73065342D01*
X169504658Y-72989913D01*
X169508727Y-72969457D01*
X178979499Y-72969457D01*
X179007379Y-73109614D01*
X179007381Y-73109620D01*
X179062069Y-73241650D01*
X179062074Y-73241659D01*
X179141467Y-73360478D01*
X179141470Y-73360482D01*
X179242517Y-73461529D01*
X179242521Y-73461532D01*
X179361340Y-73540925D01*
X179361346Y-73540928D01*
X179361347Y-73540929D01*
X179493380Y-73595619D01*
X179493384Y-73595619D01*
X179493385Y-73595620D01*
X179633542Y-73623500D01*
X179633545Y-73623500D01*
X179776457Y-73623500D01*
X179870751Y-73604742D01*
X179916620Y-73595619D01*
X180048653Y-73540929D01*
X180167479Y-73461532D01*
X180268532Y-73360479D01*
X180347929Y-73241653D01*
X180402619Y-73109620D01*
X180426432Y-72989907D01*
X180430500Y-72969457D01*
X180430500Y-72826542D01*
X180402620Y-72686385D01*
X180402619Y-72686384D01*
X180402619Y-72686380D01*
X180347929Y-72554347D01*
X180347928Y-72554346D01*
X180347925Y-72554340D01*
X180268532Y-72435521D01*
X180268529Y-72435517D01*
X180167482Y-72334470D01*
X180167478Y-72334467D01*
X180048659Y-72255074D01*
X180048650Y-72255069D01*
X179916620Y-72200381D01*
X179916614Y-72200379D01*
X179776457Y-72172500D01*
X179776455Y-72172500D01*
X179633545Y-72172500D01*
X179633543Y-72172500D01*
X179493385Y-72200379D01*
X179493379Y-72200381D01*
X179361349Y-72255069D01*
X179361340Y-72255074D01*
X179242521Y-72334467D01*
X179242517Y-72334470D01*
X179141470Y-72435517D01*
X179141467Y-72435521D01*
X179062074Y-72554340D01*
X179062069Y-72554349D01*
X179007381Y-72686379D01*
X179007379Y-72686385D01*
X178979500Y-72826542D01*
X178979500Y-72826545D01*
X178979500Y-72969455D01*
X178979500Y-72969457D01*
X178979499Y-72969457D01*
X169508727Y-72969457D01*
X169530202Y-72861500D01*
X169533500Y-72844920D01*
X169533500Y-72697079D01*
X169504659Y-72552092D01*
X169504658Y-72552091D01*
X169504658Y-72552087D01*
X169493407Y-72524925D01*
X169448087Y-72415511D01*
X169448080Y-72415498D01*
X169365951Y-72292584D01*
X169365948Y-72292580D01*
X169261419Y-72188051D01*
X169261415Y-72188048D01*
X169138501Y-72105919D01*
X169138488Y-72105912D01*
X169001917Y-72049343D01*
X169001907Y-72049340D01*
X168856920Y-72020500D01*
X168856918Y-72020500D01*
X168709082Y-72020500D01*
X168709080Y-72020500D01*
X168564092Y-72049340D01*
X168564082Y-72049343D01*
X168427511Y-72105912D01*
X168427498Y-72105919D01*
X168304584Y-72188048D01*
X168304580Y-72188051D01*
X168200051Y-72292580D01*
X168200048Y-72292584D01*
X168117919Y-72415498D01*
X168117912Y-72415511D01*
X168061343Y-72552082D01*
X168061340Y-72552092D01*
X168032500Y-72697079D01*
X168032500Y-72844922D01*
X168046548Y-72915547D01*
X168040321Y-72985139D01*
X167997457Y-73040316D01*
X167949128Y-73061354D01*
X167929095Y-73065339D01*
X167929082Y-73065343D01*
X167792511Y-73121912D01*
X167792498Y-73121919D01*
X167669584Y-73204048D01*
X167669580Y-73204051D01*
X167565051Y-73308580D01*
X167565048Y-73308584D01*
X167482919Y-73431498D01*
X167482912Y-73431511D01*
X167426343Y-73568082D01*
X167426340Y-73568092D01*
X167397500Y-73713079D01*
X167397500Y-73713082D01*
X167397500Y-73860918D01*
X167397500Y-73860920D01*
X167397499Y-73860920D01*
X152744500Y-73860920D01*
X152744500Y-73842545D01*
X152744500Y-73842542D01*
X152744499Y-73842540D01*
X152722349Y-73731181D01*
X152716620Y-73702384D01*
X152716619Y-73702382D01*
X152716619Y-73702380D01*
X152661929Y-73570347D01*
X152661928Y-73570346D01*
X152661925Y-73570340D01*
X152582532Y-73451521D01*
X152582529Y-73451517D01*
X152481482Y-73350470D01*
X152481478Y-73350467D01*
X152362659Y-73271074D01*
X152362650Y-73271069D01*
X152230620Y-73216381D01*
X152230614Y-73216379D01*
X152090457Y-73188500D01*
X152090455Y-73188500D01*
X151947545Y-73188500D01*
X151947543Y-73188500D01*
X151807385Y-73216379D01*
X151807379Y-73216381D01*
X151675349Y-73271069D01*
X151675340Y-73271074D01*
X151556521Y-73350467D01*
X151556517Y-73350470D01*
X151455470Y-73451517D01*
X151455467Y-73451521D01*
X151376074Y-73570340D01*
X151376069Y-73570349D01*
X151321381Y-73702379D01*
X151321379Y-73702385D01*
X151293500Y-73842542D01*
X151293500Y-73842545D01*
X151293500Y-73985455D01*
X151293500Y-73985457D01*
X151293499Y-73985457D01*
X151321379Y-74125614D01*
X151321381Y-74125620D01*
X151376069Y-74257650D01*
X151376074Y-74257659D01*
X151455467Y-74376478D01*
X151455470Y-74376482D01*
X151556517Y-74477529D01*
X151556521Y-74477532D01*
X151675340Y-74556925D01*
X151675349Y-74556930D01*
X151677015Y-74557620D01*
X151807380Y-74611619D01*
X151807384Y-74611619D01*
X151807385Y-74611620D01*
X151953520Y-74640689D01*
X151953166Y-74642468D01*
X152010043Y-74665432D01*
X152050405Y-74722464D01*
X152054724Y-74786869D01*
X152034500Y-74888540D01*
X152034500Y-74888545D01*
X152034500Y-75031455D01*
X152034500Y-75031457D01*
X152034499Y-75031457D01*
X152062379Y-75171614D01*
X152062381Y-75171620D01*
X152117069Y-75303650D01*
X152117074Y-75303659D01*
X152196467Y-75422478D01*
X152196470Y-75422482D01*
X152291307Y-75517319D01*
X152324792Y-75578642D01*
X152319808Y-75648334D01*
X152291307Y-75692681D01*
X152246470Y-75737517D01*
X152246467Y-75737521D01*
X152167074Y-75856340D01*
X152167069Y-75856349D01*
X152112381Y-75988379D01*
X152112379Y-75988385D01*
X152084500Y-76128542D01*
X152084500Y-76128545D01*
X152084500Y-76271455D01*
X152084500Y-76271457D01*
X152084499Y-76271457D01*
X152112379Y-76411614D01*
X152112381Y-76411620D01*
X152167069Y-76543650D01*
X152167074Y-76543659D01*
X152246467Y-76662478D01*
X152246470Y-76662482D01*
X152347517Y-76763529D01*
X152347521Y-76763532D01*
X152471412Y-76846314D01*
X152469999Y-76848427D01*
X152511924Y-76889628D01*
X152527369Y-76957770D01*
X152503523Y-77023444D01*
X152470388Y-77052154D01*
X152471412Y-77053686D01*
X152347521Y-77136467D01*
X152347517Y-77136470D01*
X152246470Y-77237517D01*
X152246467Y-77237521D01*
X152167074Y-77356340D01*
X152167069Y-77356349D01*
X152112381Y-77488379D01*
X152112379Y-77488385D01*
X152084500Y-77628542D01*
X152084500Y-77628545D01*
X152084500Y-77771455D01*
X152084500Y-77771457D01*
X152084499Y-77771457D01*
X152112379Y-77911614D01*
X152112381Y-77911620D01*
X152167069Y-78043650D01*
X152167074Y-78043659D01*
X152246467Y-78162478D01*
X152246470Y-78162482D01*
X152347517Y-78263529D01*
X152347521Y-78263532D01*
X152466340Y-78342925D01*
X152466353Y-78342932D01*
X152494754Y-78354696D01*
X152549158Y-78398537D01*
X152571223Y-78464831D01*
X152553944Y-78532530D01*
X152502807Y-78580141D01*
X152448294Y-78593253D01*
X140882676Y-78685812D01*
X140815481Y-78666665D01*
X140769305Y-78614228D01*
X140757685Y-78561683D01*
X140762831Y-73911457D01*
X146744499Y-73911457D01*
X146772379Y-74051614D01*
X146772381Y-74051620D01*
X146827069Y-74183650D01*
X146827074Y-74183659D01*
X146906467Y-74302478D01*
X146906470Y-74302482D01*
X147007517Y-74403529D01*
X147007521Y-74403532D01*
X147126340Y-74482925D01*
X147126346Y-74482928D01*
X147126347Y-74482929D01*
X147258380Y-74537619D01*
X147258384Y-74537619D01*
X147258385Y-74537620D01*
X147398542Y-74565500D01*
X147398545Y-74565500D01*
X147541457Y-74565500D01*
X147635751Y-74546742D01*
X147681620Y-74537619D01*
X147813653Y-74482929D01*
X147932479Y-74403532D01*
X148022761Y-74313249D01*
X148084082Y-74279766D01*
X148153774Y-74284750D01*
X148201492Y-74318839D01*
X148202160Y-74318172D01*
X148206166Y-74322178D01*
X148206300Y-74322274D01*
X148206473Y-74322485D01*
X148307517Y-74423529D01*
X148307521Y-74423532D01*
X148426340Y-74502925D01*
X148426346Y-74502928D01*
X148426347Y-74502929D01*
X148558380Y-74557619D01*
X148558384Y-74557619D01*
X148558385Y-74557620D01*
X148698542Y-74585500D01*
X148698545Y-74585500D01*
X148841457Y-74585500D01*
X148942000Y-74565500D01*
X148981620Y-74557619D01*
X149113653Y-74502929D01*
X149232479Y-74423532D01*
X149333532Y-74322479D01*
X149412929Y-74203653D01*
X149419580Y-74187593D01*
X149463420Y-74133191D01*
X149529714Y-74111125D01*
X149597414Y-74128403D01*
X149643970Y-74178406D01*
X149644201Y-74178283D01*
X149644666Y-74179153D01*
X149645025Y-74179539D01*
X149645921Y-74181501D01*
X149647074Y-74183659D01*
X149726467Y-74302478D01*
X149726470Y-74302482D01*
X149827517Y-74403529D01*
X149827521Y-74403532D01*
X149946340Y-74482925D01*
X149946346Y-74482928D01*
X149946347Y-74482929D01*
X150078380Y-74537619D01*
X150078384Y-74537619D01*
X150078385Y-74537620D01*
X150218542Y-74565500D01*
X150218545Y-74565500D01*
X150361457Y-74565500D01*
X150455751Y-74546742D01*
X150501620Y-74537619D01*
X150633653Y-74482929D01*
X150752479Y-74403532D01*
X150853532Y-74302479D01*
X150932929Y-74183653D01*
X150987619Y-74051620D01*
X151015500Y-73911455D01*
X151015500Y-73768545D01*
X151015500Y-73768542D01*
X150987620Y-73628385D01*
X150987619Y-73628384D01*
X150987619Y-73628380D01*
X150932929Y-73496347D01*
X150932928Y-73496346D01*
X150932925Y-73496340D01*
X150853532Y-73377521D01*
X150853529Y-73377517D01*
X150752482Y-73276470D01*
X150752478Y-73276467D01*
X150633659Y-73197074D01*
X150633650Y-73197069D01*
X150501620Y-73142381D01*
X150501614Y-73142379D01*
X150361457Y-73114500D01*
X150361455Y-73114500D01*
X150218545Y-73114500D01*
X150218543Y-73114500D01*
X150078385Y-73142379D01*
X150078379Y-73142381D01*
X149946349Y-73197069D01*
X149946340Y-73197074D01*
X149827521Y-73276467D01*
X149827517Y-73276470D01*
X149726470Y-73377517D01*
X149726467Y-73377521D01*
X149647074Y-73496340D01*
X149647066Y-73496354D01*
X149640416Y-73512410D01*
X149596573Y-73566812D01*
X149530278Y-73588874D01*
X149462580Y-73571592D01*
X149416031Y-73521592D01*
X149415799Y-73521717D01*
X149415328Y-73520837D01*
X149414971Y-73520453D01*
X149414078Y-73518498D01*
X149412925Y-73516340D01*
X149333532Y-73397521D01*
X149333529Y-73397517D01*
X149232482Y-73296470D01*
X149232478Y-73296467D01*
X149113659Y-73217074D01*
X149113650Y-73217069D01*
X148981620Y-73162381D01*
X148981614Y-73162379D01*
X148841457Y-73134500D01*
X148841455Y-73134500D01*
X148698545Y-73134500D01*
X148698543Y-73134500D01*
X148558385Y-73162379D01*
X148558379Y-73162381D01*
X148426349Y-73217069D01*
X148426340Y-73217074D01*
X148307521Y-73296467D01*
X148217239Y-73386749D01*
X148155915Y-73420233D01*
X148086224Y-73415249D01*
X148038508Y-73381159D01*
X148037840Y-73381828D01*
X148033827Y-73377815D01*
X148033698Y-73377723D01*
X148033528Y-73377516D01*
X147932482Y-73276470D01*
X147932478Y-73276467D01*
X147813659Y-73197074D01*
X147813650Y-73197069D01*
X147681620Y-73142381D01*
X147681614Y-73142379D01*
X147541457Y-73114500D01*
X147541455Y-73114500D01*
X147398545Y-73114500D01*
X147398543Y-73114500D01*
X147258385Y-73142379D01*
X147258379Y-73142381D01*
X147126349Y-73197069D01*
X147126340Y-73197074D01*
X147007521Y-73276467D01*
X147007517Y-73276470D01*
X146906470Y-73377517D01*
X146906467Y-73377521D01*
X146827074Y-73496340D01*
X146827069Y-73496349D01*
X146772381Y-73628379D01*
X146772379Y-73628385D01*
X146744500Y-73768542D01*
X146744500Y-73768545D01*
X146744500Y-73911455D01*
X146744500Y-73911457D01*
X146744499Y-73911457D01*
X140762831Y-73911457D01*
X140765420Y-71572457D01*
X202220499Y-71572457D01*
X202248379Y-71712614D01*
X202248381Y-71712620D01*
X202303069Y-71844650D01*
X202303074Y-71844659D01*
X202382467Y-71963478D01*
X202382470Y-71963482D01*
X202483517Y-72064529D01*
X202483521Y-72064532D01*
X202602340Y-72143925D01*
X202602346Y-72143928D01*
X202602347Y-72143929D01*
X202734380Y-72198619D01*
X202734384Y-72198619D01*
X202734385Y-72198620D01*
X202874542Y-72226500D01*
X202874545Y-72226500D01*
X203017457Y-72226500D01*
X203113199Y-72207455D01*
X203157620Y-72198619D01*
X203289653Y-72143929D01*
X203408479Y-72064532D01*
X203509532Y-71963479D01*
X203516228Y-71953457D01*
X210475499Y-71953457D01*
X210503379Y-72093614D01*
X210503381Y-72093620D01*
X210558069Y-72225650D01*
X210558074Y-72225659D01*
X210637467Y-72344478D01*
X210637470Y-72344482D01*
X210738517Y-72445529D01*
X210738521Y-72445532D01*
X210857340Y-72524925D01*
X210857346Y-72524928D01*
X210857347Y-72524929D01*
X210989380Y-72579619D01*
X210989384Y-72579619D01*
X210989385Y-72579620D01*
X211129542Y-72607500D01*
X211129545Y-72607500D01*
X211272457Y-72607500D01*
X211366751Y-72588742D01*
X211412620Y-72579619D01*
X211544653Y-72524929D01*
X211663479Y-72445532D01*
X211764532Y-72344479D01*
X211843929Y-72225653D01*
X211851466Y-72207457D01*
X217714499Y-72207457D01*
X217742379Y-72347614D01*
X217742381Y-72347620D01*
X217797069Y-72479650D01*
X217797074Y-72479659D01*
X217876467Y-72598478D01*
X217876470Y-72598482D01*
X217977517Y-72699529D01*
X217977521Y-72699532D01*
X218096340Y-72778925D01*
X218096346Y-72778928D01*
X218096347Y-72778929D01*
X218228380Y-72833619D01*
X218228384Y-72833619D01*
X218228385Y-72833620D01*
X218368542Y-72861500D01*
X218368545Y-72861500D01*
X218511457Y-72861500D01*
X218605751Y-72842742D01*
X218651620Y-72833619D01*
X218783653Y-72778929D01*
X218902479Y-72699532D01*
X219003532Y-72598479D01*
X219082929Y-72479653D01*
X219137619Y-72347620D01*
X219156028Y-72255074D01*
X219165500Y-72207457D01*
X219165500Y-72064542D01*
X219143403Y-71953457D01*
X225461499Y-71953457D01*
X225489379Y-72093614D01*
X225489381Y-72093620D01*
X225544069Y-72225650D01*
X225544074Y-72225659D01*
X225623467Y-72344478D01*
X225623470Y-72344482D01*
X225724517Y-72445529D01*
X225724521Y-72445532D01*
X225843340Y-72524925D01*
X225843346Y-72524928D01*
X225843347Y-72524929D01*
X225975380Y-72579619D01*
X225975384Y-72579619D01*
X225975385Y-72579620D01*
X226115542Y-72607500D01*
X226115545Y-72607500D01*
X226258457Y-72607500D01*
X226352751Y-72588742D01*
X226398620Y-72579619D01*
X226530653Y-72524929D01*
X226649479Y-72445532D01*
X226750532Y-72344479D01*
X226829929Y-72225653D01*
X226884619Y-72093620D01*
X226899164Y-72020500D01*
X226912500Y-71953457D01*
X226912500Y-71810542D01*
X226884620Y-71670385D01*
X226884619Y-71670384D01*
X226884619Y-71670380D01*
X226829929Y-71538347D01*
X226829928Y-71538346D01*
X226829925Y-71538340D01*
X226750532Y-71419521D01*
X226750529Y-71419517D01*
X226649482Y-71318470D01*
X226649478Y-71318467D01*
X226530659Y-71239074D01*
X226530650Y-71239069D01*
X226398620Y-71184381D01*
X226398614Y-71184379D01*
X226258457Y-71156500D01*
X226258455Y-71156500D01*
X226115545Y-71156500D01*
X226115543Y-71156500D01*
X225975385Y-71184379D01*
X225975379Y-71184381D01*
X225843349Y-71239069D01*
X225843340Y-71239074D01*
X225724521Y-71318467D01*
X225724517Y-71318470D01*
X225623470Y-71419517D01*
X225623467Y-71419521D01*
X225544074Y-71538340D01*
X225544069Y-71538349D01*
X225489381Y-71670379D01*
X225489379Y-71670385D01*
X225461500Y-71810542D01*
X225461500Y-71810545D01*
X225461500Y-71953455D01*
X225461500Y-71953457D01*
X225461499Y-71953457D01*
X219143403Y-71953457D01*
X219137620Y-71924385D01*
X219137619Y-71924384D01*
X219137619Y-71924380D01*
X219090466Y-71810542D01*
X219082932Y-71792353D01*
X219082925Y-71792340D01*
X219003532Y-71673521D01*
X219003529Y-71673517D01*
X218902482Y-71572470D01*
X218902478Y-71572467D01*
X218783659Y-71493074D01*
X218783650Y-71493069D01*
X218651620Y-71438381D01*
X218651614Y-71438379D01*
X218511457Y-71410500D01*
X218511455Y-71410500D01*
X218368545Y-71410500D01*
X218368543Y-71410500D01*
X218228385Y-71438379D01*
X218228379Y-71438381D01*
X218096349Y-71493069D01*
X218096340Y-71493074D01*
X217977521Y-71572467D01*
X217977517Y-71572470D01*
X217876470Y-71673517D01*
X217876467Y-71673521D01*
X217797074Y-71792340D01*
X217797069Y-71792349D01*
X217742381Y-71924379D01*
X217742379Y-71924385D01*
X217714500Y-72064542D01*
X217714500Y-72064545D01*
X217714500Y-72207455D01*
X217714500Y-72207457D01*
X217714499Y-72207457D01*
X211851466Y-72207457D01*
X211898619Y-72093620D01*
X211901608Y-72078592D01*
X211910427Y-72034261D01*
X211910427Y-72034260D01*
X211926499Y-71953459D01*
X211926500Y-71953457D01*
X211926500Y-71810542D01*
X211898620Y-71670385D01*
X211898619Y-71670384D01*
X211898619Y-71670380D01*
X211843929Y-71538347D01*
X211843928Y-71538346D01*
X211843925Y-71538340D01*
X211764532Y-71419521D01*
X211764529Y-71419517D01*
X211663482Y-71318470D01*
X211663478Y-71318467D01*
X211544659Y-71239074D01*
X211544650Y-71239069D01*
X211412620Y-71184381D01*
X211412614Y-71184379D01*
X211272457Y-71156500D01*
X211272455Y-71156500D01*
X211129545Y-71156500D01*
X211129543Y-71156500D01*
X210989385Y-71184379D01*
X210989379Y-71184381D01*
X210857349Y-71239069D01*
X210857340Y-71239074D01*
X210738521Y-71318467D01*
X210738517Y-71318470D01*
X210637470Y-71419517D01*
X210637467Y-71419521D01*
X210558074Y-71538340D01*
X210558069Y-71538349D01*
X210503381Y-71670379D01*
X210503379Y-71670385D01*
X210475500Y-71810542D01*
X210475500Y-71810545D01*
X210475500Y-71953455D01*
X210475500Y-71953457D01*
X210475499Y-71953457D01*
X203516228Y-71953457D01*
X203588929Y-71844653D01*
X203603058Y-71810542D01*
X203625236Y-71757001D01*
X203625236Y-71757000D01*
X203643619Y-71712620D01*
X203671497Y-71572470D01*
X203671500Y-71572457D01*
X203671500Y-71429542D01*
X203643620Y-71289385D01*
X203643619Y-71289384D01*
X203643619Y-71289380D01*
X203588929Y-71157347D01*
X203588928Y-71157346D01*
X203588925Y-71157340D01*
X203509532Y-71038521D01*
X203509529Y-71038517D01*
X203408482Y-70937470D01*
X203408478Y-70937467D01*
X203289659Y-70858074D01*
X203289650Y-70858069D01*
X203157620Y-70803381D01*
X203157614Y-70803379D01*
X203017457Y-70775500D01*
X203017455Y-70775500D01*
X202874545Y-70775500D01*
X202874543Y-70775500D01*
X202734385Y-70803379D01*
X202734379Y-70803381D01*
X202602349Y-70858069D01*
X202602340Y-70858074D01*
X202483521Y-70937467D01*
X202483517Y-70937470D01*
X202382470Y-71038517D01*
X202382467Y-71038521D01*
X202303074Y-71157340D01*
X202303069Y-71157349D01*
X202248381Y-71289379D01*
X202248379Y-71289385D01*
X202220500Y-71429542D01*
X202220500Y-71429545D01*
X202220500Y-71572455D01*
X202220500Y-71572457D01*
X202220499Y-71572457D01*
X140765420Y-71572457D01*
X140771043Y-66491957D01*
X214285499Y-66491957D01*
X214313379Y-66632114D01*
X214313381Y-66632120D01*
X214368069Y-66764150D01*
X214368074Y-66764159D01*
X214447467Y-66882978D01*
X214447470Y-66882982D01*
X214548517Y-66984029D01*
X214548521Y-66984032D01*
X214667340Y-67063425D01*
X214667346Y-67063428D01*
X214667347Y-67063429D01*
X214799380Y-67118119D01*
X214799384Y-67118119D01*
X214799385Y-67118120D01*
X214939542Y-67146000D01*
X214939545Y-67146000D01*
X215082457Y-67146000D01*
X215176751Y-67127242D01*
X215222620Y-67118119D01*
X215354653Y-67063429D01*
X215473479Y-66984032D01*
X215574532Y-66882979D01*
X215653929Y-66764153D01*
X215660239Y-66748920D01*
X227849499Y-66748920D01*
X227878340Y-66893907D01*
X227878343Y-66893917D01*
X227934912Y-67030488D01*
X227934919Y-67030501D01*
X228017048Y-67153415D01*
X228017051Y-67153419D01*
X228121580Y-67257948D01*
X228121584Y-67257951D01*
X228244498Y-67340080D01*
X228244511Y-67340087D01*
X228381082Y-67396656D01*
X228381087Y-67396658D01*
X228381091Y-67396658D01*
X228381092Y-67396659D01*
X228526079Y-67425500D01*
X228526082Y-67425500D01*
X228673920Y-67425500D01*
X228771462Y-67406096D01*
X228818913Y-67396658D01*
X228955495Y-67340084D01*
X229078416Y-67257951D01*
X229182951Y-67153416D01*
X229265084Y-67030495D01*
X229321658Y-66893913D01*
X229331096Y-66846462D01*
X229350500Y-66748920D01*
X229350500Y-66601079D01*
X229321659Y-66456092D01*
X229321658Y-66456091D01*
X229321658Y-66456087D01*
X229274740Y-66342816D01*
X229265087Y-66319511D01*
X229265080Y-66319498D01*
X229182951Y-66196584D01*
X229182948Y-66196580D01*
X229078419Y-66092051D01*
X229078415Y-66092048D01*
X228955501Y-66009919D01*
X228955488Y-66009912D01*
X228818917Y-65953343D01*
X228818907Y-65953340D01*
X228673920Y-65924500D01*
X228673918Y-65924500D01*
X228526082Y-65924500D01*
X228526080Y-65924500D01*
X228381092Y-65953340D01*
X228381082Y-65953343D01*
X228244511Y-66009912D01*
X228244498Y-66009919D01*
X228121584Y-66092048D01*
X228121580Y-66092051D01*
X228017051Y-66196580D01*
X228017048Y-66196584D01*
X227934919Y-66319498D01*
X227934912Y-66319511D01*
X227878343Y-66456082D01*
X227878340Y-66456092D01*
X227849500Y-66601079D01*
X227849500Y-66601082D01*
X227849500Y-66748918D01*
X227849500Y-66748920D01*
X227849499Y-66748920D01*
X215660239Y-66748920D01*
X215708619Y-66632120D01*
X215736500Y-66491955D01*
X215736500Y-66349045D01*
X215736500Y-66349042D01*
X215708620Y-66208885D01*
X215708619Y-66208884D01*
X215708619Y-66208880D01*
X215660226Y-66092049D01*
X215653930Y-66076849D01*
X215653925Y-66076840D01*
X215574532Y-65958021D01*
X215574529Y-65958017D01*
X215473482Y-65856970D01*
X215473478Y-65856967D01*
X215354659Y-65777574D01*
X215354650Y-65777569D01*
X215222620Y-65722881D01*
X215222614Y-65722879D01*
X215082457Y-65695000D01*
X215082455Y-65695000D01*
X214939545Y-65695000D01*
X214939543Y-65695000D01*
X214799385Y-65722879D01*
X214799379Y-65722881D01*
X214667349Y-65777569D01*
X214667340Y-65777574D01*
X214548521Y-65856967D01*
X214548517Y-65856970D01*
X214447470Y-65958017D01*
X214447467Y-65958021D01*
X214368074Y-66076840D01*
X214368069Y-66076849D01*
X214313381Y-66208879D01*
X214313379Y-66208885D01*
X214285500Y-66349042D01*
X214285500Y-66349045D01*
X214285500Y-66491955D01*
X214285500Y-66491957D01*
X214285499Y-66491957D01*
X140771043Y-66491957D01*
X140775259Y-62682457D01*
X174788499Y-62682457D01*
X174816379Y-62822614D01*
X174816381Y-62822620D01*
X174871069Y-62954650D01*
X174871074Y-62954659D01*
X174950467Y-63073478D01*
X174950470Y-63073482D01*
X175051517Y-63174529D01*
X175051521Y-63174532D01*
X175170340Y-63253925D01*
X175170346Y-63253928D01*
X175170347Y-63253929D01*
X175302380Y-63308619D01*
X175302384Y-63308619D01*
X175302385Y-63308620D01*
X175442542Y-63336500D01*
X175442545Y-63336500D01*
X175585457Y-63336500D01*
X175679751Y-63317742D01*
X175725620Y-63308619D01*
X175857653Y-63253929D01*
X175976479Y-63174532D01*
X176077532Y-63073479D01*
X176156929Y-62954653D01*
X176211619Y-62822620D01*
X176238805Y-62685951D01*
X176239500Y-62682457D01*
X176239500Y-62539542D01*
X176211620Y-62399385D01*
X176211619Y-62399384D01*
X176211619Y-62399380D01*
X176156929Y-62267347D01*
X176156928Y-62267346D01*
X176156925Y-62267340D01*
X176096508Y-62176920D01*
X183272499Y-62176920D01*
X183301340Y-62321907D01*
X183301343Y-62321917D01*
X183357912Y-62458488D01*
X183357919Y-62458501D01*
X183440048Y-62581415D01*
X183440051Y-62581419D01*
X183544580Y-62685948D01*
X183544584Y-62685951D01*
X183667498Y-62768080D01*
X183667511Y-62768087D01*
X183799152Y-62822614D01*
X183804087Y-62824658D01*
X183804091Y-62824658D01*
X183804092Y-62824659D01*
X183949079Y-62853500D01*
X183949082Y-62853500D01*
X184096920Y-62853500D01*
X184194462Y-62834096D01*
X184241913Y-62824658D01*
X184378495Y-62768084D01*
X184501416Y-62685951D01*
X184605951Y-62581416D01*
X184688084Y-62458495D01*
X184744658Y-62321913D01*
X184773500Y-62176918D01*
X184773500Y-62029082D01*
X184773500Y-62029079D01*
X184744659Y-61884092D01*
X184744658Y-61884091D01*
X184744658Y-61884087D01*
X184744656Y-61884082D01*
X184688087Y-61747511D01*
X184688080Y-61747498D01*
X184605951Y-61624584D01*
X184605948Y-61624580D01*
X184501419Y-61520051D01*
X184501415Y-61520048D01*
X184378501Y-61437919D01*
X184378488Y-61437912D01*
X184241917Y-61381343D01*
X184241907Y-61381340D01*
X184096920Y-61352500D01*
X184096918Y-61352500D01*
X183949082Y-61352500D01*
X183949080Y-61352500D01*
X183804092Y-61381340D01*
X183804082Y-61381343D01*
X183667511Y-61437912D01*
X183667498Y-61437919D01*
X183544584Y-61520048D01*
X183544580Y-61520051D01*
X183440051Y-61624580D01*
X183440048Y-61624584D01*
X183357919Y-61747498D01*
X183357912Y-61747511D01*
X183301343Y-61884082D01*
X183301340Y-61884092D01*
X183272500Y-62029079D01*
X183272500Y-62029082D01*
X183272500Y-62176918D01*
X183272500Y-62176920D01*
X183272499Y-62176920D01*
X176096508Y-62176920D01*
X176077532Y-62148521D01*
X176077529Y-62148517D01*
X175976482Y-62047470D01*
X175976478Y-62047467D01*
X175857659Y-61968074D01*
X175857650Y-61968069D01*
X175725620Y-61913381D01*
X175725614Y-61913379D01*
X175585457Y-61885500D01*
X175585455Y-61885500D01*
X175442545Y-61885500D01*
X175442543Y-61885500D01*
X175302385Y-61913379D01*
X175302379Y-61913381D01*
X175170349Y-61968069D01*
X175170340Y-61968074D01*
X175051521Y-62047467D01*
X175051517Y-62047470D01*
X174950470Y-62148517D01*
X174950467Y-62148521D01*
X174871074Y-62267340D01*
X174871069Y-62267349D01*
X174816381Y-62399379D01*
X174816379Y-62399385D01*
X174788500Y-62539542D01*
X174788500Y-62539545D01*
X174788500Y-62682455D01*
X174788500Y-62682457D01*
X174788499Y-62682457D01*
X140775259Y-62682457D01*
X140776383Y-61666457D01*
X149642499Y-61666457D01*
X149670379Y-61806614D01*
X149670381Y-61806620D01*
X149725069Y-61938650D01*
X149725074Y-61938659D01*
X149804467Y-62057478D01*
X149804470Y-62057482D01*
X149905517Y-62158529D01*
X149905521Y-62158532D01*
X150024340Y-62237925D01*
X150024346Y-62237928D01*
X150024347Y-62237929D01*
X150156380Y-62292619D01*
X150156384Y-62292619D01*
X150156385Y-62292620D01*
X150296542Y-62320500D01*
X150296545Y-62320500D01*
X150439457Y-62320500D01*
X150533751Y-62301742D01*
X150579620Y-62292619D01*
X150711653Y-62237929D01*
X150830479Y-62158532D01*
X150931532Y-62057479D01*
X151010929Y-61938653D01*
X151065619Y-61806620D01*
X151093500Y-61666455D01*
X151093500Y-61523545D01*
X151093500Y-61523542D01*
X151065620Y-61383385D01*
X151065619Y-61383384D01*
X151065619Y-61383380D01*
X151017255Y-61266619D01*
X151010930Y-61251349D01*
X151010925Y-61251340D01*
X150931532Y-61132521D01*
X150931529Y-61132517D01*
X150830482Y-61031470D01*
X150830478Y-61031467D01*
X150711659Y-60952074D01*
X150711650Y-60952069D01*
X150579620Y-60897381D01*
X150579614Y-60897379D01*
X150439457Y-60869500D01*
X150439455Y-60869500D01*
X150296545Y-60869500D01*
X150296543Y-60869500D01*
X150156385Y-60897379D01*
X150156379Y-60897381D01*
X150024349Y-60952069D01*
X150024340Y-60952074D01*
X149905521Y-61031467D01*
X149905517Y-61031470D01*
X149804470Y-61132517D01*
X149804467Y-61132521D01*
X149725074Y-61251340D01*
X149725069Y-61251349D01*
X149670381Y-61383379D01*
X149670379Y-61383385D01*
X149642500Y-61523542D01*
X149642500Y-61523545D01*
X149642500Y-61666455D01*
X149642500Y-61666457D01*
X149642499Y-61666457D01*
X140776383Y-61666457D01*
X140777645Y-60525920D01*
X210577499Y-60525920D01*
X210606340Y-60670907D01*
X210606343Y-60670917D01*
X210662912Y-60807488D01*
X210662919Y-60807501D01*
X210745048Y-60930415D01*
X210745051Y-60930419D01*
X210849580Y-61034948D01*
X210849584Y-61034951D01*
X210972498Y-61117080D01*
X210972511Y-61117087D01*
X211109082Y-61173656D01*
X211109087Y-61173658D01*
X211109091Y-61173658D01*
X211109092Y-61173659D01*
X211254079Y-61202500D01*
X211254082Y-61202500D01*
X211401920Y-61202500D01*
X211499462Y-61183096D01*
X211546913Y-61173658D01*
X211683495Y-61117084D01*
X211806416Y-61034951D01*
X211910951Y-60930416D01*
X211993084Y-60807495D01*
X212049658Y-60670913D01*
X212055716Y-60640457D01*
X216317499Y-60640457D01*
X216345379Y-60780614D01*
X216345381Y-60780620D01*
X216400069Y-60912650D01*
X216400074Y-60912659D01*
X216479467Y-61031478D01*
X216479470Y-61031482D01*
X216580517Y-61132529D01*
X216580521Y-61132532D01*
X216699340Y-61211925D01*
X216699346Y-61211928D01*
X216699347Y-61211929D01*
X216831380Y-61266619D01*
X216831384Y-61266619D01*
X216831385Y-61266620D01*
X216971542Y-61294500D01*
X216971545Y-61294500D01*
X217114457Y-61294500D01*
X217208751Y-61275742D01*
X217254620Y-61266619D01*
X217386653Y-61211929D01*
X217505479Y-61132532D01*
X217606532Y-61031479D01*
X217685929Y-60912653D01*
X217740619Y-60780620D01*
X217749742Y-60734751D01*
X217768500Y-60640457D01*
X217768500Y-60497542D01*
X217740620Y-60357385D01*
X217740619Y-60357384D01*
X217740619Y-60357380D01*
X217685929Y-60225347D01*
X217685928Y-60225346D01*
X217685925Y-60225340D01*
X217606532Y-60106521D01*
X217606529Y-60106517D01*
X217505482Y-60005470D01*
X217505478Y-60005467D01*
X217386659Y-59926074D01*
X217386650Y-59926069D01*
X217254620Y-59871381D01*
X217254614Y-59871379D01*
X217114457Y-59843500D01*
X217114455Y-59843500D01*
X216971545Y-59843500D01*
X216971543Y-59843500D01*
X216831385Y-59871379D01*
X216831379Y-59871381D01*
X216699349Y-59926069D01*
X216699340Y-59926074D01*
X216580521Y-60005467D01*
X216580517Y-60005470D01*
X216479470Y-60106517D01*
X216479467Y-60106521D01*
X216400074Y-60225340D01*
X216400069Y-60225349D01*
X216345381Y-60357379D01*
X216345379Y-60357385D01*
X216317500Y-60497542D01*
X216317500Y-60497545D01*
X216317500Y-60640455D01*
X216317500Y-60640457D01*
X216317499Y-60640457D01*
X212055716Y-60640457D01*
X212059096Y-60623462D01*
X212078500Y-60525920D01*
X212078500Y-60378079D01*
X212049659Y-60233092D01*
X212049658Y-60233091D01*
X212049658Y-60233087D01*
X212038800Y-60206873D01*
X211993087Y-60096511D01*
X211993080Y-60096498D01*
X211910951Y-59973584D01*
X211910948Y-59973580D01*
X211806418Y-59869050D01*
X211806415Y-59869048D01*
X211683501Y-59786919D01*
X211683488Y-59786912D01*
X211546917Y-59730343D01*
X211546907Y-59730340D01*
X211401920Y-59701500D01*
X211401918Y-59701500D01*
X211254082Y-59701500D01*
X211254080Y-59701500D01*
X211109092Y-59730340D01*
X211109082Y-59730343D01*
X210972511Y-59786912D01*
X210972498Y-59786919D01*
X210849584Y-59869048D01*
X210849582Y-59869050D01*
X210745051Y-59973580D01*
X210745048Y-59973584D01*
X210662919Y-60096498D01*
X210662912Y-60096511D01*
X210606343Y-60233082D01*
X210606340Y-60233092D01*
X210577500Y-60378079D01*
X210577500Y-60378082D01*
X210577500Y-60525918D01*
X210577500Y-60525920D01*
X210577499Y-60525920D01*
X140777645Y-60525920D01*
X140778491Y-59761457D01*
X187234499Y-59761457D01*
X187262379Y-59901614D01*
X187262381Y-59901620D01*
X187317069Y-60033650D01*
X187317074Y-60033659D01*
X187396467Y-60152478D01*
X187396470Y-60152482D01*
X187497517Y-60253529D01*
X187497521Y-60253532D01*
X187616340Y-60332925D01*
X187616346Y-60332928D01*
X187616347Y-60332929D01*
X187748380Y-60387619D01*
X187748384Y-60387619D01*
X187748385Y-60387620D01*
X187888542Y-60415500D01*
X187888545Y-60415500D01*
X188031457Y-60415500D01*
X188125751Y-60396742D01*
X188171620Y-60387619D01*
X188303653Y-60332929D01*
X188341637Y-60307549D01*
X188399498Y-60268888D01*
X188410232Y-60261714D01*
X188422479Y-60253532D01*
X188523532Y-60152479D01*
X188602929Y-60033653D01*
X188657619Y-59901620D01*
X188680435Y-59786919D01*
X188685500Y-59761457D01*
X188685500Y-59618542D01*
X188660391Y-59492316D01*
X227450895Y-59492316D01*
X227479736Y-59637303D01*
X227479739Y-59637313D01*
X227536308Y-59773884D01*
X227536315Y-59773897D01*
X227618444Y-59896811D01*
X227618447Y-59896815D01*
X227722976Y-60001344D01*
X227722980Y-60001347D01*
X227845894Y-60083476D01*
X227845907Y-60083483D01*
X227982478Y-60140052D01*
X227982483Y-60140054D01*
X227982487Y-60140054D01*
X227982488Y-60140055D01*
X228127475Y-60168896D01*
X228127478Y-60168896D01*
X228275315Y-60168896D01*
X228299872Y-60164011D01*
X228331175Y-60157784D01*
X228400767Y-60164011D01*
X228455945Y-60206873D01*
X228479190Y-60272762D01*
X228463123Y-60340760D01*
X228443050Y-60367081D01*
X228398052Y-60412079D01*
X228398048Y-60412084D01*
X228315919Y-60534998D01*
X228315912Y-60535011D01*
X228259343Y-60671582D01*
X228259340Y-60671592D01*
X228230500Y-60816579D01*
X228230500Y-60816582D01*
X228230500Y-60964418D01*
X228230500Y-60964420D01*
X228230499Y-60964420D01*
X228259340Y-61109407D01*
X228259343Y-61109417D01*
X228315912Y-61245988D01*
X228315919Y-61246001D01*
X228398048Y-61368915D01*
X228398051Y-61368919D01*
X228502580Y-61473448D01*
X228502584Y-61473451D01*
X228625498Y-61555580D01*
X228625511Y-61555587D01*
X228762082Y-61612156D01*
X228762087Y-61612158D01*
X228762091Y-61612158D01*
X228762092Y-61612159D01*
X228907079Y-61641000D01*
X228907082Y-61641000D01*
X229054920Y-61641000D01*
X229152462Y-61621596D01*
X229199913Y-61612158D01*
X229336495Y-61555584D01*
X229459416Y-61473451D01*
X229563951Y-61368916D01*
X229646084Y-61245995D01*
X229702658Y-61109413D01*
X229718160Y-61031482D01*
X229731500Y-60964420D01*
X229731500Y-60816579D01*
X229702659Y-60671592D01*
X229702658Y-60671591D01*
X229702658Y-60671587D01*
X229702656Y-60671582D01*
X229646087Y-60535011D01*
X229646080Y-60534998D01*
X229563951Y-60412084D01*
X229563948Y-60412080D01*
X229459419Y-60307551D01*
X229459415Y-60307548D01*
X229336501Y-60225419D01*
X229336488Y-60225412D01*
X229199917Y-60168843D01*
X229199907Y-60168840D01*
X229054920Y-60140000D01*
X229054918Y-60140000D01*
X228907082Y-60140000D01*
X228906806Y-60140055D01*
X228851218Y-60151112D01*
X228781626Y-60144884D01*
X228726449Y-60102020D01*
X228703205Y-60036130D01*
X228719273Y-59968133D01*
X228739347Y-59941812D01*
X228784344Y-59896815D01*
X228784347Y-59896812D01*
X228866480Y-59773891D01*
X228923054Y-59637309D01*
X228951896Y-59492314D01*
X228951896Y-59344478D01*
X228951896Y-59344475D01*
X228923055Y-59199488D01*
X228923054Y-59199487D01*
X228923054Y-59199483D01*
X228892811Y-59126470D01*
X228866483Y-59062907D01*
X228866476Y-59062894D01*
X228784347Y-58939980D01*
X228784344Y-58939976D01*
X228679815Y-58835447D01*
X228679811Y-58835444D01*
X228556897Y-58753315D01*
X228556884Y-58753308D01*
X228420313Y-58696739D01*
X228420303Y-58696736D01*
X228275316Y-58667896D01*
X228275314Y-58667896D01*
X228127478Y-58667896D01*
X228127476Y-58667896D01*
X227982488Y-58696736D01*
X227982478Y-58696739D01*
X227845907Y-58753308D01*
X227845894Y-58753315D01*
X227722980Y-58835444D01*
X227722976Y-58835447D01*
X227618447Y-58939976D01*
X227618444Y-58939980D01*
X227536315Y-59062894D01*
X227536308Y-59062907D01*
X227479739Y-59199478D01*
X227479736Y-59199488D01*
X227450896Y-59344475D01*
X227450896Y-59344478D01*
X227450896Y-59492314D01*
X227450896Y-59492316D01*
X227450895Y-59492316D01*
X188660391Y-59492316D01*
X188657620Y-59478385D01*
X188657619Y-59478384D01*
X188657619Y-59478380D01*
X188612830Y-59370251D01*
X188602932Y-59346353D01*
X188602925Y-59346340D01*
X188523532Y-59227521D01*
X188523529Y-59227517D01*
X188422482Y-59126470D01*
X188422478Y-59126467D01*
X188303659Y-59047074D01*
X188303650Y-59047069D01*
X188171620Y-58992381D01*
X188171614Y-58992379D01*
X188031457Y-58964500D01*
X188031455Y-58964500D01*
X187888545Y-58964500D01*
X187888543Y-58964500D01*
X187748385Y-58992379D01*
X187748379Y-58992381D01*
X187616349Y-59047069D01*
X187616340Y-59047074D01*
X187497521Y-59126467D01*
X187497517Y-59126470D01*
X187396470Y-59227517D01*
X187396467Y-59227521D01*
X187317074Y-59346340D01*
X187317069Y-59346349D01*
X187262381Y-59478379D01*
X187262379Y-59478385D01*
X187234500Y-59618542D01*
X187234500Y-59618545D01*
X187234500Y-59761455D01*
X187234500Y-59761457D01*
X187234499Y-59761457D01*
X140778491Y-59761457D01*
X140784356Y-54462074D01*
X151533500Y-54462074D01*
X151533500Y-54635925D01*
X151560697Y-54807639D01*
X151560697Y-54807642D01*
X151614418Y-54972978D01*
X151660869Y-55064142D01*
X151693347Y-55127884D01*
X151795535Y-55268533D01*
X151918467Y-55391465D01*
X151918473Y-55391469D01*
X151928401Y-55398683D01*
X151971067Y-55454013D01*
X151977045Y-55523626D01*
X151944438Y-55585421D01*
X151928401Y-55599317D01*
X151918473Y-55606530D01*
X151918464Y-55606537D01*
X151795537Y-55729464D01*
X151795537Y-55729465D01*
X151795535Y-55729467D01*
X151751649Y-55789869D01*
X151693347Y-55870115D01*
X151614418Y-56025021D01*
X151560697Y-56190357D01*
X151560697Y-56190360D01*
X151533500Y-56362074D01*
X151533500Y-56535925D01*
X151560697Y-56707639D01*
X151560697Y-56707642D01*
X151614418Y-56872978D01*
X151642413Y-56927920D01*
X151693347Y-57027884D01*
X151795535Y-57168533D01*
X151918467Y-57291465D01*
X152059116Y-57393653D01*
X152148782Y-57439340D01*
X152214021Y-57472581D01*
X152379358Y-57526302D01*
X152379359Y-57526302D01*
X152379362Y-57526303D01*
X152551074Y-57553500D01*
X152551075Y-57553500D01*
X152724925Y-57553500D01*
X152724926Y-57553500D01*
X152896638Y-57526303D01*
X152896641Y-57526302D01*
X152896642Y-57526302D01*
X153045546Y-57477920D01*
X198639499Y-57477920D01*
X198668340Y-57622907D01*
X198668343Y-57622917D01*
X198724912Y-57759488D01*
X198724919Y-57759501D01*
X198807048Y-57882415D01*
X198807051Y-57882419D01*
X198911580Y-57986948D01*
X198911584Y-57986951D01*
X199034498Y-58069080D01*
X199034511Y-58069087D01*
X199171082Y-58125656D01*
X199171087Y-58125658D01*
X199171091Y-58125658D01*
X199171092Y-58125659D01*
X199316079Y-58154500D01*
X199316082Y-58154500D01*
X199463920Y-58154500D01*
X199561462Y-58135096D01*
X199608913Y-58125658D01*
X199745495Y-58069084D01*
X199868416Y-57986951D01*
X199972951Y-57882416D01*
X200055084Y-57759495D01*
X200111658Y-57622913D01*
X200124869Y-57556498D01*
X200140500Y-57477920D01*
X200140500Y-57330079D01*
X200111659Y-57185092D01*
X200111658Y-57185091D01*
X200111658Y-57185087D01*
X200095377Y-57145780D01*
X200055087Y-57048511D01*
X200055080Y-57048498D01*
X199974512Y-56927920D01*
X213879499Y-56927920D01*
X213908340Y-57072907D01*
X213908343Y-57072917D01*
X213964912Y-57209488D01*
X213964919Y-57209501D01*
X214047048Y-57332415D01*
X214047051Y-57332419D01*
X214151580Y-57436948D01*
X214151584Y-57436951D01*
X214274498Y-57519080D01*
X214274511Y-57519087D01*
X214411082Y-57575656D01*
X214411087Y-57575658D01*
X214411091Y-57575658D01*
X214411092Y-57575659D01*
X214556079Y-57604500D01*
X214556082Y-57604500D01*
X214703920Y-57604500D01*
X214801462Y-57585096D01*
X214848913Y-57575658D01*
X214985495Y-57519084D01*
X215108416Y-57436951D01*
X215212951Y-57332416D01*
X215295084Y-57209495D01*
X215351658Y-57072913D01*
X215380500Y-56927918D01*
X215380500Y-56780082D01*
X215380500Y-56780079D01*
X215351659Y-56635092D01*
X215351658Y-56635091D01*
X215351658Y-56635087D01*
X215314366Y-56545055D01*
X215295087Y-56498511D01*
X215295080Y-56498498D01*
X215212951Y-56375584D01*
X215212948Y-56375580D01*
X215108419Y-56271051D01*
X215108415Y-56271048D01*
X214985501Y-56188919D01*
X214985488Y-56188912D01*
X214848917Y-56132343D01*
X214848907Y-56132340D01*
X214703920Y-56103500D01*
X214703918Y-56103500D01*
X214556082Y-56103500D01*
X214556080Y-56103500D01*
X214411092Y-56132340D01*
X214411082Y-56132343D01*
X214274511Y-56188912D01*
X214274498Y-56188919D01*
X214151584Y-56271048D01*
X214151580Y-56271051D01*
X214047051Y-56375580D01*
X214047048Y-56375584D01*
X213964919Y-56498498D01*
X213964912Y-56498511D01*
X213908343Y-56635082D01*
X213908340Y-56635092D01*
X213879500Y-56780079D01*
X213879500Y-56780082D01*
X213879500Y-56927918D01*
X213879500Y-56927920D01*
X213879499Y-56927920D01*
X199974512Y-56927920D01*
X199972951Y-56925584D01*
X199972948Y-56925580D01*
X199868419Y-56821051D01*
X199868415Y-56821048D01*
X199745501Y-56738919D01*
X199745488Y-56738912D01*
X199608917Y-56682343D01*
X199608907Y-56682340D01*
X199463920Y-56653500D01*
X199463918Y-56653500D01*
X199316082Y-56653500D01*
X199316080Y-56653500D01*
X199171092Y-56682340D01*
X199171082Y-56682343D01*
X199034511Y-56738912D01*
X199034498Y-56738919D01*
X198911584Y-56821048D01*
X198911580Y-56821051D01*
X198807051Y-56925580D01*
X198807048Y-56925584D01*
X198724919Y-57048498D01*
X198724912Y-57048511D01*
X198668343Y-57185082D01*
X198668340Y-57185092D01*
X198639500Y-57330079D01*
X198639500Y-57330082D01*
X198639500Y-57477918D01*
X198639500Y-57477920D01*
X198639499Y-57477920D01*
X153045546Y-57477920D01*
X153061978Y-57472581D01*
X153061978Y-57472580D01*
X153061981Y-57472580D01*
X153216884Y-57393653D01*
X153357533Y-57291465D01*
X153480465Y-57168533D01*
X153582653Y-57027884D01*
X153661580Y-56872981D01*
X153678454Y-56821048D01*
X153713413Y-56713457D01*
X165517499Y-56713457D01*
X165545379Y-56853614D01*
X165545381Y-56853620D01*
X165600069Y-56985650D01*
X165600074Y-56985659D01*
X165679467Y-57104478D01*
X165679470Y-57104482D01*
X165780517Y-57205529D01*
X165780521Y-57205532D01*
X165899340Y-57284925D01*
X165899346Y-57284928D01*
X165899347Y-57284929D01*
X166031380Y-57339619D01*
X166031384Y-57339619D01*
X166031385Y-57339620D01*
X166171542Y-57367500D01*
X166171545Y-57367500D01*
X166314457Y-57367500D01*
X166408751Y-57348742D01*
X166454620Y-57339619D01*
X166586653Y-57284929D01*
X166637255Y-57251118D01*
X166682498Y-57220888D01*
X166693232Y-57213714D01*
X166705479Y-57205532D01*
X166806532Y-57104479D01*
X166885929Y-56985653D01*
X166940619Y-56853620D01*
X166955247Y-56780082D01*
X166968500Y-56713457D01*
X166968500Y-56570542D01*
X166940620Y-56430385D01*
X166940619Y-56430384D01*
X166940619Y-56430380D01*
X166885929Y-56298347D01*
X166885928Y-56298346D01*
X166885925Y-56298340D01*
X166806532Y-56179521D01*
X166806529Y-56179517D01*
X166705482Y-56078470D01*
X166705478Y-56078467D01*
X166586659Y-55999074D01*
X166586650Y-55999069D01*
X166454620Y-55944381D01*
X166454614Y-55944379D01*
X166314457Y-55916500D01*
X166314455Y-55916500D01*
X166171545Y-55916500D01*
X166171543Y-55916500D01*
X166031385Y-55944379D01*
X166031379Y-55944381D01*
X165899349Y-55999069D01*
X165899340Y-55999074D01*
X165780521Y-56078467D01*
X165780517Y-56078470D01*
X165679470Y-56179517D01*
X165679467Y-56179521D01*
X165600074Y-56298340D01*
X165600069Y-56298349D01*
X165545381Y-56430379D01*
X165545379Y-56430385D01*
X165517500Y-56570542D01*
X165517500Y-56570545D01*
X165517500Y-56713455D01*
X165517500Y-56713457D01*
X165517499Y-56713457D01*
X153713413Y-56713457D01*
X153715302Y-56707642D01*
X153715302Y-56707641D01*
X153715303Y-56707638D01*
X153742500Y-56535926D01*
X153742500Y-56362074D01*
X153715303Y-56190362D01*
X153715302Y-56190358D01*
X153715302Y-56190357D01*
X153661581Y-56025021D01*
X153620492Y-55944379D01*
X153582653Y-55870116D01*
X153480465Y-55729467D01*
X153357533Y-55606535D01*
X153347599Y-55599317D01*
X153304934Y-55543991D01*
X153298953Y-55474378D01*
X153331558Y-55412582D01*
X153347598Y-55398683D01*
X153357533Y-55391465D01*
X153480465Y-55268533D01*
X153582653Y-55127884D01*
X153661580Y-54972981D01*
X153687215Y-54894084D01*
X153715302Y-54807642D01*
X153715302Y-54807641D01*
X153715303Y-54807638D01*
X153742500Y-54635926D01*
X153742500Y-54462074D01*
X153715303Y-54290362D01*
X153715302Y-54290358D01*
X153715302Y-54290357D01*
X153661581Y-54125021D01*
X153645754Y-54093958D01*
X153621551Y-54046457D01*
X156119499Y-54046457D01*
X156147379Y-54186614D01*
X156147381Y-54186620D01*
X156202069Y-54318650D01*
X156202074Y-54318659D01*
X156281467Y-54437478D01*
X156281470Y-54437482D01*
X156382517Y-54538529D01*
X156382521Y-54538532D01*
X156501340Y-54617925D01*
X156501346Y-54617928D01*
X156501347Y-54617929D01*
X156633380Y-54672619D01*
X156633384Y-54672619D01*
X156633385Y-54672620D01*
X156773542Y-54700500D01*
X156773545Y-54700500D01*
X156916457Y-54700500D01*
X157010751Y-54681742D01*
X157056620Y-54672619D01*
X157188653Y-54617929D01*
X157307479Y-54538532D01*
X157408532Y-54437479D01*
X157487929Y-54318653D01*
X157542619Y-54186620D01*
X157570500Y-54046455D01*
X157570500Y-53903545D01*
X157570500Y-53903542D01*
X157542620Y-53763385D01*
X157542619Y-53763384D01*
X157542619Y-53763380D01*
X157491375Y-53639666D01*
X157487930Y-53631349D01*
X157487925Y-53631340D01*
X157408532Y-53512521D01*
X157408529Y-53512517D01*
X157307482Y-53411470D01*
X157307478Y-53411467D01*
X157188659Y-53332074D01*
X157188650Y-53332069D01*
X157056620Y-53277381D01*
X157056614Y-53277379D01*
X156916457Y-53249500D01*
X156916455Y-53249500D01*
X156773545Y-53249500D01*
X156773543Y-53249500D01*
X156633385Y-53277379D01*
X156633379Y-53277381D01*
X156501349Y-53332069D01*
X156501340Y-53332074D01*
X156382521Y-53411467D01*
X156382517Y-53411470D01*
X156281470Y-53512517D01*
X156281467Y-53512521D01*
X156202074Y-53631340D01*
X156202069Y-53631349D01*
X156147381Y-53763379D01*
X156147379Y-53763385D01*
X156119500Y-53903542D01*
X156119500Y-53903545D01*
X156119500Y-54046455D01*
X156119500Y-54046457D01*
X156119499Y-54046457D01*
X153621551Y-54046457D01*
X153582653Y-53970116D01*
X153480465Y-53829467D01*
X153357533Y-53706535D01*
X153216884Y-53604347D01*
X153115651Y-53552766D01*
X153061978Y-53525418D01*
X152896641Y-53471697D01*
X152767854Y-53451299D01*
X152724926Y-53444500D01*
X152551074Y-53444500D01*
X152493836Y-53453565D01*
X152379360Y-53471697D01*
X152379357Y-53471697D01*
X152214021Y-53525418D01*
X152059115Y-53604347D01*
X152001718Y-53646049D01*
X151918467Y-53706535D01*
X151918465Y-53706537D01*
X151918464Y-53706537D01*
X151795537Y-53829464D01*
X151795537Y-53829465D01*
X151795535Y-53829467D01*
X151763535Y-53873511D01*
X151693347Y-53970115D01*
X151614418Y-54125021D01*
X151560697Y-54290357D01*
X151560697Y-54290360D01*
X151533500Y-54462074D01*
X140784356Y-54462074D01*
X140785993Y-52982920D01*
X161047499Y-52982920D01*
X161076340Y-53127907D01*
X161076343Y-53127917D01*
X161132912Y-53264488D01*
X161132919Y-53264501D01*
X161215048Y-53387415D01*
X161215051Y-53387419D01*
X161308951Y-53481319D01*
X161342436Y-53542642D01*
X161337452Y-53612334D01*
X161308951Y-53656681D01*
X161215051Y-53750580D01*
X161215048Y-53750584D01*
X161132919Y-53873498D01*
X161132912Y-53873511D01*
X161076343Y-54010082D01*
X161076340Y-54010092D01*
X161047500Y-54155079D01*
X161047500Y-54155082D01*
X161047500Y-54302918D01*
X161047500Y-54302920D01*
X161047499Y-54302920D01*
X161076340Y-54447907D01*
X161076343Y-54447917D01*
X161132912Y-54584488D01*
X161132919Y-54584501D01*
X161215048Y-54707415D01*
X161215051Y-54707419D01*
X161319580Y-54811948D01*
X161319584Y-54811951D01*
X161442498Y-54894080D01*
X161442511Y-54894087D01*
X161579082Y-54950656D01*
X161579087Y-54950658D01*
X161579091Y-54950658D01*
X161579092Y-54950659D01*
X161724079Y-54979500D01*
X161724082Y-54979500D01*
X161871920Y-54979500D01*
X161969462Y-54960096D01*
X162016913Y-54950658D01*
X162153495Y-54894084D01*
X162276416Y-54811951D01*
X162380951Y-54707416D01*
X162446380Y-54609495D01*
X220959499Y-54609495D01*
X220986418Y-54744822D01*
X220986421Y-54744832D01*
X221039221Y-54872304D01*
X221039228Y-54872317D01*
X221115885Y-54987041D01*
X221115888Y-54987045D01*
X221131662Y-55002819D01*
X221165147Y-55064142D01*
X221160163Y-55133834D01*
X221131662Y-55178181D01*
X221115888Y-55193954D01*
X221115885Y-55193958D01*
X221039228Y-55308682D01*
X221039221Y-55308695D01*
X220986421Y-55436167D01*
X220986418Y-55436177D01*
X220959500Y-55571504D01*
X220959500Y-55571507D01*
X220959500Y-55709493D01*
X220959500Y-55709495D01*
X220959499Y-55709495D01*
X220986418Y-55844822D01*
X220986421Y-55844832D01*
X221039221Y-55972304D01*
X221039228Y-55972317D01*
X221115885Y-56087041D01*
X221115888Y-56087045D01*
X221213454Y-56184611D01*
X221213458Y-56184614D01*
X221328182Y-56261271D01*
X221328195Y-56261278D01*
X221461299Y-56316411D01*
X221460688Y-56317885D01*
X221512639Y-56351931D01*
X221533195Y-56389571D01*
X221534089Y-56389201D01*
X221589221Y-56522304D01*
X221589228Y-56522317D01*
X221665885Y-56637041D01*
X221665888Y-56637045D01*
X221763454Y-56734611D01*
X221763458Y-56734614D01*
X221878182Y-56811271D01*
X221878195Y-56811278D01*
X221980419Y-56853620D01*
X222005672Y-56864080D01*
X222005676Y-56864080D01*
X222005677Y-56864081D01*
X222141004Y-56891000D01*
X222141007Y-56891000D01*
X222278995Y-56891000D01*
X222370041Y-56872889D01*
X222414328Y-56864080D01*
X222541811Y-56811275D01*
X222656542Y-56734614D01*
X222657249Y-56733907D01*
X222672319Y-56718838D01*
X222733642Y-56685353D01*
X222803334Y-56690337D01*
X222847681Y-56718838D01*
X222863454Y-56734611D01*
X222863458Y-56734614D01*
X222978182Y-56811271D01*
X222978195Y-56811278D01*
X223080419Y-56853620D01*
X223105672Y-56864080D01*
X223105676Y-56864080D01*
X223105677Y-56864081D01*
X223241004Y-56891000D01*
X223241007Y-56891000D01*
X223378995Y-56891000D01*
X223470041Y-56872889D01*
X223514328Y-56864080D01*
X223641811Y-56811275D01*
X223756542Y-56734614D01*
X223854114Y-56637042D01*
X223930775Y-56522311D01*
X223968854Y-56430380D01*
X223985911Y-56389201D01*
X223987386Y-56389812D01*
X224021425Y-56337865D01*
X224059072Y-56317307D01*
X224058701Y-56316411D01*
X224191804Y-56261278D01*
X224191804Y-56261277D01*
X224191811Y-56261275D01*
X224306542Y-56184614D01*
X224404114Y-56087042D01*
X224480775Y-55972311D01*
X224515780Y-55887802D01*
X227785761Y-55887802D01*
X227814602Y-56032789D01*
X227814605Y-56032799D01*
X227871174Y-56169370D01*
X227874051Y-56174752D01*
X227873030Y-56175297D01*
X227892055Y-56236048D01*
X227882638Y-56285715D01*
X227878342Y-56296086D01*
X227878340Y-56296093D01*
X227849500Y-56441079D01*
X227849500Y-56441082D01*
X227849500Y-56588918D01*
X227849500Y-56588920D01*
X227849499Y-56588920D01*
X227878340Y-56733907D01*
X227878343Y-56733917D01*
X227934912Y-56870488D01*
X227934919Y-56870501D01*
X228017048Y-56993415D01*
X228017051Y-56993419D01*
X228121580Y-57097948D01*
X228121584Y-57097951D01*
X228244498Y-57180080D01*
X228244511Y-57180087D01*
X228381082Y-57236656D01*
X228381087Y-57236658D01*
X228381091Y-57236658D01*
X228381092Y-57236659D01*
X228442291Y-57248833D01*
X228504202Y-57281218D01*
X228538776Y-57341934D01*
X228535035Y-57411704D01*
X228521202Y-57439340D01*
X228442918Y-57556500D01*
X228442912Y-57556511D01*
X228386343Y-57693082D01*
X228386340Y-57693092D01*
X228357500Y-57838079D01*
X228357500Y-57838082D01*
X228357500Y-57985918D01*
X228357500Y-57985920D01*
X228357499Y-57985920D01*
X228386340Y-58130907D01*
X228386343Y-58130917D01*
X228442912Y-58267488D01*
X228442919Y-58267501D01*
X228525048Y-58390415D01*
X228525051Y-58390419D01*
X228629580Y-58494948D01*
X228629584Y-58494951D01*
X228752498Y-58577080D01*
X228752511Y-58577087D01*
X228889082Y-58633656D01*
X228889087Y-58633658D01*
X228889091Y-58633658D01*
X228889092Y-58633659D01*
X229034079Y-58662500D01*
X229034082Y-58662500D01*
X229181920Y-58662500D01*
X229279462Y-58643096D01*
X229326913Y-58633658D01*
X229463495Y-58577084D01*
X229586416Y-58494951D01*
X229690951Y-58390416D01*
X229773084Y-58267495D01*
X229829658Y-58130913D01*
X229858295Y-57986951D01*
X229858500Y-57985920D01*
X229858500Y-57838079D01*
X229829659Y-57693092D01*
X229829658Y-57693091D01*
X229829658Y-57693087D01*
X229781018Y-57575659D01*
X229773087Y-57556511D01*
X229773080Y-57556498D01*
X229690951Y-57433584D01*
X229690948Y-57433580D01*
X229586419Y-57329051D01*
X229586415Y-57329048D01*
X229463501Y-57246919D01*
X229463488Y-57246912D01*
X229326917Y-57190343D01*
X229326908Y-57190340D01*
X229265707Y-57178166D01*
X229203796Y-57145780D01*
X229169223Y-57085063D01*
X229172964Y-57015294D01*
X229186798Y-56987658D01*
X229265080Y-56870501D01*
X229265080Y-56870500D01*
X229265084Y-56870495D01*
X229321658Y-56733913D01*
X229340927Y-56637045D01*
X229350500Y-56588920D01*
X229350500Y-56441079D01*
X229321659Y-56296092D01*
X229321658Y-56296091D01*
X229321658Y-56296087D01*
X229307240Y-56261278D01*
X229265086Y-56159509D01*
X229262215Y-56154138D01*
X229263233Y-56153593D01*
X229244206Y-56092834D01*
X229253628Y-56043156D01*
X229257919Y-56032797D01*
X229257921Y-56032790D01*
X229286762Y-55887802D01*
X229286762Y-55739961D01*
X229257921Y-55594974D01*
X229257920Y-55594973D01*
X229257920Y-55594969D01*
X229248202Y-55571507D01*
X229201349Y-55458393D01*
X229201342Y-55458380D01*
X229119213Y-55335466D01*
X229119210Y-55335462D01*
X229014681Y-55230933D01*
X229014677Y-55230930D01*
X228891763Y-55148801D01*
X228891750Y-55148794D01*
X228755179Y-55092225D01*
X228755169Y-55092222D01*
X228610182Y-55063382D01*
X228610180Y-55063382D01*
X228462344Y-55063382D01*
X228462342Y-55063382D01*
X228317354Y-55092222D01*
X228317344Y-55092225D01*
X228180773Y-55148794D01*
X228180760Y-55148801D01*
X228057846Y-55230930D01*
X228057842Y-55230933D01*
X227953313Y-55335462D01*
X227953310Y-55335466D01*
X227871181Y-55458380D01*
X227871174Y-55458393D01*
X227814605Y-55594964D01*
X227814602Y-55594974D01*
X227785762Y-55739961D01*
X227785762Y-55739964D01*
X227785762Y-55887800D01*
X227785762Y-55887802D01*
X227785761Y-55887802D01*
X224515780Y-55887802D01*
X224533580Y-55844828D01*
X224554439Y-55739964D01*
X224560463Y-55709681D01*
X224560464Y-55709675D01*
X224560500Y-55709494D01*
X224560500Y-55571504D01*
X224533581Y-55436177D01*
X224533580Y-55436176D01*
X224533580Y-55436172D01*
X224518052Y-55398683D01*
X224480778Y-55308695D01*
X224480771Y-55308682D01*
X224404114Y-55193958D01*
X224404111Y-55193954D01*
X224388338Y-55178181D01*
X224354853Y-55116858D01*
X224359837Y-55047166D01*
X224388338Y-55002819D01*
X224404111Y-54987045D01*
X224404114Y-54987042D01*
X224480775Y-54872311D01*
X224533580Y-54744828D01*
X224555242Y-54635926D01*
X224560500Y-54609495D01*
X224560500Y-54471504D01*
X224533581Y-54336177D01*
X224533580Y-54336176D01*
X224533580Y-54336172D01*
X224526326Y-54318659D01*
X224480778Y-54208695D01*
X224480771Y-54208682D01*
X224404114Y-54093958D01*
X224404111Y-54093954D01*
X224306545Y-53996388D01*
X224306541Y-53996385D01*
X224191817Y-53919728D01*
X224191804Y-53919721D01*
X224058701Y-53864589D01*
X224059310Y-53863118D01*
X224007348Y-53829054D01*
X223986806Y-53791428D01*
X223985911Y-53791799D01*
X223930778Y-53658695D01*
X223930771Y-53658682D01*
X223854114Y-53543958D01*
X223854111Y-53543954D01*
X223756545Y-53446388D01*
X223756541Y-53446385D01*
X223641817Y-53369728D01*
X223641804Y-53369721D01*
X223514332Y-53316921D01*
X223514322Y-53316918D01*
X223378995Y-53290000D01*
X223378993Y-53290000D01*
X223241007Y-53290000D01*
X223241005Y-53290000D01*
X223105677Y-53316918D01*
X223105667Y-53316921D01*
X222978195Y-53369721D01*
X222978182Y-53369728D01*
X222863458Y-53446385D01*
X222863454Y-53446388D01*
X222847681Y-53462162D01*
X222786358Y-53495647D01*
X222716666Y-53490663D01*
X222672319Y-53462162D01*
X222656545Y-53446388D01*
X222656541Y-53446385D01*
X222541817Y-53369728D01*
X222541804Y-53369721D01*
X222414332Y-53316921D01*
X222414322Y-53316918D01*
X222278995Y-53290000D01*
X222278993Y-53290000D01*
X222141007Y-53290000D01*
X222141005Y-53290000D01*
X222005677Y-53316918D01*
X222005667Y-53316921D01*
X221878195Y-53369721D01*
X221878182Y-53369728D01*
X221763458Y-53446385D01*
X221763454Y-53446388D01*
X221665888Y-53543954D01*
X221665885Y-53543958D01*
X221589228Y-53658682D01*
X221589221Y-53658695D01*
X221534089Y-53791799D01*
X221532619Y-53791190D01*
X221498548Y-53843156D01*
X221460929Y-53863697D01*
X221461299Y-53864589D01*
X221328195Y-53919721D01*
X221328182Y-53919728D01*
X221213458Y-53996385D01*
X221213454Y-53996388D01*
X221115888Y-54093954D01*
X221115885Y-54093958D01*
X221039228Y-54208682D01*
X221039221Y-54208695D01*
X220986421Y-54336167D01*
X220986418Y-54336177D01*
X220959500Y-54471504D01*
X220959500Y-54471507D01*
X220959500Y-54609493D01*
X220959500Y-54609495D01*
X220959499Y-54609495D01*
X162446380Y-54609495D01*
X162463084Y-54584495D01*
X162519658Y-54447913D01*
X162521734Y-54437478D01*
X162548500Y-54302920D01*
X162548500Y-54155079D01*
X162519659Y-54010092D01*
X162519658Y-54010091D01*
X162519658Y-54010087D01*
X162513983Y-53996386D01*
X162463087Y-53873511D01*
X162463080Y-53873498D01*
X162380951Y-53750584D01*
X162380948Y-53750580D01*
X162287049Y-53656681D01*
X162253564Y-53595358D01*
X162258548Y-53525666D01*
X162287049Y-53481319D01*
X162380948Y-53387419D01*
X162380951Y-53387416D01*
X162463084Y-53264495D01*
X162475231Y-53235170D01*
X219848499Y-53235170D01*
X219877340Y-53380157D01*
X219877343Y-53380167D01*
X219933912Y-53516738D01*
X219933919Y-53516751D01*
X220016048Y-53639665D01*
X220016051Y-53639669D01*
X220120580Y-53744198D01*
X220120584Y-53744201D01*
X220243498Y-53826330D01*
X220243511Y-53826337D01*
X220380082Y-53882906D01*
X220380087Y-53882908D01*
X220380091Y-53882908D01*
X220380092Y-53882909D01*
X220525079Y-53911750D01*
X220525082Y-53911750D01*
X220672920Y-53911750D01*
X220770462Y-53892346D01*
X220817913Y-53882908D01*
X220946936Y-53829465D01*
X220954488Y-53826337D01*
X220954488Y-53826336D01*
X220954495Y-53826334D01*
X221077416Y-53744201D01*
X221181951Y-53639666D01*
X221264084Y-53516745D01*
X221274888Y-53490663D01*
X221293227Y-53446388D01*
X221320658Y-53380163D01*
X221343665Y-53264501D01*
X221349500Y-53235170D01*
X221349500Y-53087329D01*
X221320659Y-52942342D01*
X221320658Y-52942341D01*
X221320658Y-52942337D01*
X221276232Y-52835082D01*
X221264087Y-52805761D01*
X221264080Y-52805748D01*
X221181951Y-52682834D01*
X221181948Y-52682830D01*
X221077419Y-52578301D01*
X221077415Y-52578298D01*
X220954501Y-52496169D01*
X220954488Y-52496162D01*
X220817917Y-52439593D01*
X220817907Y-52439590D01*
X220672920Y-52410750D01*
X220672918Y-52410750D01*
X220525082Y-52410750D01*
X220525080Y-52410750D01*
X220380092Y-52439590D01*
X220380082Y-52439593D01*
X220243511Y-52496162D01*
X220243498Y-52496169D01*
X220120584Y-52578298D01*
X220120580Y-52578301D01*
X220016051Y-52682830D01*
X220016048Y-52682834D01*
X219933919Y-52805748D01*
X219933912Y-52805761D01*
X219877343Y-52942332D01*
X219877340Y-52942342D01*
X219848500Y-53087329D01*
X219848500Y-53087332D01*
X219848500Y-53235168D01*
X219848500Y-53235170D01*
X219848499Y-53235170D01*
X162475231Y-53235170D01*
X162519658Y-53127913D01*
X162548500Y-52982918D01*
X162548500Y-52835082D01*
X162548500Y-52835079D01*
X162519659Y-52690092D01*
X162519658Y-52690091D01*
X162519658Y-52690087D01*
X162473354Y-52578298D01*
X162463087Y-52553511D01*
X162463080Y-52553498D01*
X162380951Y-52430584D01*
X162380948Y-52430580D01*
X162276419Y-52326051D01*
X162276415Y-52326048D01*
X162153501Y-52243919D01*
X162153488Y-52243912D01*
X162016917Y-52187343D01*
X162016907Y-52187340D01*
X161871920Y-52158500D01*
X161871918Y-52158500D01*
X161724082Y-52158500D01*
X161724080Y-52158500D01*
X161579092Y-52187340D01*
X161579082Y-52187343D01*
X161442511Y-52243912D01*
X161442498Y-52243919D01*
X161319584Y-52326048D01*
X161319580Y-52326051D01*
X161215051Y-52430580D01*
X161215048Y-52430584D01*
X161132919Y-52553498D01*
X161132912Y-52553511D01*
X161076343Y-52690082D01*
X161076340Y-52690092D01*
X161047500Y-52835079D01*
X161047500Y-52835082D01*
X161047500Y-52982918D01*
X161047500Y-52982920D01*
X161047499Y-52982920D01*
X140785993Y-52982920D01*
X140787205Y-51887457D01*
X191298499Y-51887457D01*
X191326379Y-52027614D01*
X191326381Y-52027620D01*
X191381069Y-52159650D01*
X191381074Y-52159659D01*
X191460467Y-52278478D01*
X191460470Y-52278482D01*
X191561517Y-52379529D01*
X191561521Y-52379532D01*
X191680340Y-52458925D01*
X191680346Y-52458928D01*
X191680347Y-52458929D01*
X191812380Y-52513619D01*
X191812384Y-52513619D01*
X191812385Y-52513620D01*
X191952542Y-52541500D01*
X191952545Y-52541500D01*
X192095457Y-52541500D01*
X192189751Y-52522742D01*
X192235620Y-52513619D01*
X192367653Y-52458929D01*
X192462646Y-52395457D01*
X204887499Y-52395457D01*
X204915379Y-52535614D01*
X204915381Y-52535620D01*
X204970069Y-52667650D01*
X204970074Y-52667659D01*
X205049467Y-52786478D01*
X205049470Y-52786482D01*
X205150517Y-52887529D01*
X205150521Y-52887532D01*
X205269340Y-52966925D01*
X205269346Y-52966928D01*
X205269347Y-52966929D01*
X205401380Y-53021619D01*
X205401384Y-53021619D01*
X205401385Y-53021620D01*
X205541542Y-53049500D01*
X205541545Y-53049500D01*
X205684457Y-53049500D01*
X205778751Y-53030742D01*
X205824620Y-53021619D01*
X205956653Y-52966929D01*
X206075479Y-52887532D01*
X206176532Y-52786479D01*
X206255929Y-52667653D01*
X206310619Y-52535620D01*
X206329720Y-52439593D01*
X206338500Y-52395457D01*
X206338500Y-52252542D01*
X206310620Y-52112385D01*
X206310619Y-52112384D01*
X206310619Y-52112380D01*
X206255929Y-51980347D01*
X206255928Y-51980346D01*
X206255925Y-51980340D01*
X206176532Y-51861521D01*
X206176529Y-51861517D01*
X206075482Y-51760470D01*
X206075478Y-51760467D01*
X205956659Y-51681074D01*
X205956650Y-51681069D01*
X205824620Y-51626381D01*
X205824614Y-51626379D01*
X205684457Y-51598500D01*
X205684455Y-51598500D01*
X205541545Y-51598500D01*
X205541543Y-51598500D01*
X205401385Y-51626379D01*
X205401379Y-51626381D01*
X205269349Y-51681069D01*
X205269340Y-51681074D01*
X205150521Y-51760467D01*
X205150517Y-51760470D01*
X205049470Y-51861517D01*
X205049467Y-51861521D01*
X204970074Y-51980340D01*
X204970069Y-51980349D01*
X204915381Y-52112379D01*
X204915379Y-52112385D01*
X204887500Y-52252542D01*
X204887500Y-52252545D01*
X204887500Y-52395455D01*
X204887500Y-52395457D01*
X204887499Y-52395457D01*
X192462646Y-52395457D01*
X192486479Y-52379532D01*
X192587532Y-52278479D01*
X192666929Y-52159653D01*
X192721619Y-52027620D01*
X192749500Y-51887455D01*
X192749500Y-51744545D01*
X192749500Y-51744542D01*
X192721620Y-51604385D01*
X192721619Y-51604384D01*
X192721619Y-51604380D01*
X192709661Y-51575511D01*
X214066908Y-51575511D01*
X214095749Y-51720498D01*
X214095752Y-51720508D01*
X214152321Y-51857079D01*
X214152328Y-51857092D01*
X214234457Y-51980006D01*
X214234460Y-51980010D01*
X214338989Y-52084539D01*
X214338993Y-52084542D01*
X214461907Y-52166671D01*
X214461920Y-52166678D01*
X214598491Y-52223247D01*
X214598496Y-52223249D01*
X214598500Y-52223249D01*
X214598501Y-52223250D01*
X214743488Y-52252091D01*
X214743491Y-52252091D01*
X214891329Y-52252091D01*
X214988871Y-52232687D01*
X215036322Y-52223249D01*
X215172904Y-52166675D01*
X215295825Y-52084542D01*
X215400360Y-51980007D01*
X215482493Y-51857086D01*
X215539067Y-51720504D01*
X215562166Y-51604380D01*
X215567909Y-51575511D01*
X215567909Y-51427670D01*
X215539068Y-51282683D01*
X215539067Y-51282682D01*
X215539067Y-51282678D01*
X215527995Y-51255948D01*
X215482496Y-51146102D01*
X215482489Y-51146089D01*
X215400360Y-51023175D01*
X215400357Y-51023171D01*
X215295828Y-50918642D01*
X215295824Y-50918639D01*
X215172910Y-50836510D01*
X215172897Y-50836503D01*
X215036326Y-50779934D01*
X215036316Y-50779931D01*
X214891329Y-50751091D01*
X214891327Y-50751091D01*
X214743491Y-50751091D01*
X214743489Y-50751091D01*
X214598501Y-50779931D01*
X214598491Y-50779934D01*
X214461920Y-50836503D01*
X214461907Y-50836510D01*
X214338993Y-50918639D01*
X214338989Y-50918642D01*
X214234460Y-51023171D01*
X214234457Y-51023175D01*
X214152328Y-51146089D01*
X214152321Y-51146102D01*
X214095752Y-51282673D01*
X214095749Y-51282683D01*
X214066909Y-51427670D01*
X214066909Y-51427673D01*
X214066909Y-51575509D01*
X214066909Y-51575511D01*
X214066908Y-51575511D01*
X192709661Y-51575511D01*
X192666929Y-51472347D01*
X192666927Y-51472344D01*
X192666925Y-51472340D01*
X192587532Y-51353521D01*
X192587529Y-51353517D01*
X192486482Y-51252470D01*
X192486478Y-51252467D01*
X192367659Y-51173074D01*
X192367650Y-51173069D01*
X192235620Y-51118381D01*
X192235614Y-51118379D01*
X192095457Y-51090500D01*
X192095455Y-51090500D01*
X191952545Y-51090500D01*
X191952543Y-51090500D01*
X191812385Y-51118379D01*
X191812379Y-51118381D01*
X191680349Y-51173069D01*
X191680340Y-51173074D01*
X191561521Y-51252467D01*
X191561517Y-51252470D01*
X191460470Y-51353517D01*
X191460467Y-51353521D01*
X191381074Y-51472340D01*
X191381069Y-51472349D01*
X191326381Y-51604379D01*
X191326379Y-51604385D01*
X191298500Y-51744542D01*
X191298500Y-51744545D01*
X191298500Y-51887455D01*
X191298500Y-51887457D01*
X191298499Y-51887457D01*
X140787205Y-51887457D01*
X140788611Y-50617457D01*
X164247499Y-50617457D01*
X164275379Y-50757614D01*
X164275381Y-50757620D01*
X164330069Y-50889650D01*
X164330074Y-50889659D01*
X164409467Y-51008478D01*
X164409470Y-51008482D01*
X164510517Y-51109529D01*
X164510521Y-51109532D01*
X164629340Y-51188925D01*
X164629346Y-51188928D01*
X164629347Y-51188929D01*
X164761380Y-51243619D01*
X164761384Y-51243619D01*
X164761385Y-51243620D01*
X164901542Y-51271500D01*
X164901545Y-51271500D01*
X165044457Y-51271500D01*
X165140139Y-51252467D01*
X165184620Y-51243619D01*
X165316653Y-51188929D01*
X165435479Y-51109532D01*
X165536532Y-51008479D01*
X165615929Y-50889653D01*
X165670619Y-50757620D01*
X165672747Y-50746920D01*
X228230499Y-50746920D01*
X228259340Y-50891907D01*
X228259343Y-50891917D01*
X228315912Y-51028488D01*
X228315919Y-51028501D01*
X228398048Y-51151415D01*
X228398051Y-51151419D01*
X228502580Y-51255948D01*
X228502584Y-51255951D01*
X228625498Y-51338080D01*
X228625511Y-51338087D01*
X228762082Y-51394656D01*
X228762087Y-51394658D01*
X228762091Y-51394658D01*
X228762092Y-51394659D01*
X228907079Y-51423500D01*
X228907082Y-51423500D01*
X229054920Y-51423500D01*
X229152462Y-51404096D01*
X229199913Y-51394658D01*
X229336495Y-51338084D01*
X229459416Y-51255951D01*
X229563951Y-51151416D01*
X229646084Y-51028495D01*
X229702658Y-50891913D01*
X229724933Y-50779931D01*
X229731500Y-50746920D01*
X229731500Y-50599079D01*
X229702659Y-50454092D01*
X229702658Y-50454091D01*
X229702658Y-50454087D01*
X229653074Y-50334380D01*
X229646087Y-50317511D01*
X229646080Y-50317498D01*
X229563951Y-50194584D01*
X229563948Y-50194580D01*
X229459419Y-50090051D01*
X229459415Y-50090048D01*
X229336501Y-50007919D01*
X229336488Y-50007912D01*
X229199917Y-49951343D01*
X229199907Y-49951340D01*
X229054920Y-49922500D01*
X229054918Y-49922500D01*
X228907082Y-49922500D01*
X228907080Y-49922500D01*
X228762092Y-49951340D01*
X228762082Y-49951343D01*
X228625511Y-50007912D01*
X228625498Y-50007919D01*
X228502584Y-50090048D01*
X228502580Y-50090051D01*
X228398051Y-50194580D01*
X228398048Y-50194584D01*
X228315919Y-50317498D01*
X228315912Y-50317511D01*
X228259343Y-50454082D01*
X228259340Y-50454092D01*
X228230500Y-50599079D01*
X228230500Y-50599082D01*
X228230500Y-50746918D01*
X228230500Y-50746920D01*
X228230499Y-50746920D01*
X165672747Y-50746920D01*
X165698500Y-50617455D01*
X165698500Y-50474545D01*
X165698500Y-50474542D01*
X165670620Y-50334385D01*
X165670619Y-50334384D01*
X165670619Y-50334380D01*
X165615929Y-50202347D01*
X165615928Y-50202346D01*
X165615925Y-50202340D01*
X165536532Y-50083521D01*
X165536529Y-50083517D01*
X165435482Y-49982470D01*
X165435478Y-49982467D01*
X165316659Y-49903074D01*
X165316650Y-49903069D01*
X165184620Y-49848381D01*
X165184614Y-49848379D01*
X165044457Y-49820500D01*
X165044455Y-49820500D01*
X164901545Y-49820500D01*
X164901543Y-49820500D01*
X164761385Y-49848379D01*
X164761379Y-49848381D01*
X164629349Y-49903069D01*
X164629340Y-49903074D01*
X164510521Y-49982467D01*
X164510517Y-49982470D01*
X164409470Y-50083517D01*
X164409467Y-50083521D01*
X164330074Y-50202340D01*
X164330069Y-50202349D01*
X164275381Y-50334379D01*
X164275379Y-50334385D01*
X164247500Y-50474542D01*
X164247500Y-50474545D01*
X164247500Y-50617455D01*
X164247500Y-50617457D01*
X164247499Y-50617457D01*
X140788611Y-50617457D01*
X140790719Y-48712457D01*
X189520499Y-48712457D01*
X189548379Y-48852614D01*
X189548381Y-48852620D01*
X189603069Y-48984650D01*
X189603074Y-48984659D01*
X189682467Y-49103478D01*
X189682470Y-49103482D01*
X189783517Y-49204529D01*
X189783521Y-49204532D01*
X189902340Y-49283925D01*
X189902346Y-49283928D01*
X189902347Y-49283929D01*
X190034380Y-49338619D01*
X190034384Y-49338619D01*
X190034385Y-49338620D01*
X190174542Y-49366500D01*
X190174545Y-49366500D01*
X190317457Y-49366500D01*
X190411751Y-49347742D01*
X190457620Y-49338619D01*
X190589653Y-49283929D01*
X190708479Y-49204532D01*
X190809532Y-49103479D01*
X190888929Y-48984653D01*
X190943619Y-48852620D01*
X190954898Y-48795920D01*
X190971500Y-48712457D01*
X190971500Y-48569542D01*
X190943620Y-48429385D01*
X190943619Y-48429384D01*
X190943619Y-48429380D01*
X190888929Y-48297347D01*
X190888928Y-48297346D01*
X190888925Y-48297340D01*
X190809532Y-48178521D01*
X190809529Y-48178517D01*
X190708482Y-48077470D01*
X190708478Y-48077467D01*
X190589659Y-47998074D01*
X190589650Y-47998069D01*
X190457620Y-47943381D01*
X190457614Y-47943379D01*
X190317457Y-47915500D01*
X190317455Y-47915500D01*
X190174545Y-47915500D01*
X190174543Y-47915500D01*
X190034385Y-47943379D01*
X190034379Y-47943381D01*
X189902349Y-47998069D01*
X189902340Y-47998074D01*
X189783521Y-48077467D01*
X189783517Y-48077470D01*
X189682470Y-48178517D01*
X189682467Y-48178521D01*
X189603074Y-48297340D01*
X189603069Y-48297349D01*
X189548381Y-48429379D01*
X189548379Y-48429385D01*
X189520500Y-48569542D01*
X189520500Y-48569545D01*
X189520500Y-48712455D01*
X189520500Y-48712457D01*
X189520499Y-48712457D01*
X140790719Y-48712457D01*
X140793480Y-46217648D01*
X143119500Y-46217648D01*
X143119500Y-46422351D01*
X143151522Y-46624534D01*
X143214781Y-46819223D01*
X143307715Y-47001613D01*
X143428028Y-47167213D01*
X143572786Y-47311971D01*
X143727749Y-47424556D01*
X143738390Y-47432287D01*
X143854607Y-47491503D01*
X143920776Y-47525218D01*
X143920778Y-47525218D01*
X143920781Y-47525220D01*
X144025137Y-47559127D01*
X144115465Y-47588477D01*
X144216557Y-47604488D01*
X144317648Y-47620500D01*
X144317649Y-47620500D01*
X144522351Y-47620500D01*
X144522352Y-47620500D01*
X144724534Y-47588477D01*
X144919219Y-47525220D01*
X145101610Y-47432287D01*
X145194590Y-47364732D01*
X145267213Y-47311971D01*
X145267215Y-47311968D01*
X145267219Y-47311966D01*
X145411966Y-47167219D01*
X145411968Y-47167215D01*
X145411971Y-47167213D01*
X145483992Y-47068083D01*
X145532287Y-47001610D01*
X145625220Y-46819219D01*
X145688477Y-46624534D01*
X145720500Y-46422352D01*
X145720500Y-46217648D01*
X145701168Y-46095591D01*
X145688477Y-46015465D01*
X145628721Y-45831557D01*
X145625220Y-45820781D01*
X145625218Y-45820778D01*
X145625218Y-45820776D01*
X145553757Y-45680528D01*
X145532287Y-45638390D01*
X145461187Y-45540528D01*
X145411971Y-45472786D01*
X145267213Y-45328028D01*
X145101613Y-45207715D01*
X145101612Y-45207714D01*
X145101610Y-45207713D01*
X145044653Y-45178691D01*
X144919223Y-45114781D01*
X144724534Y-45051522D01*
X144549995Y-45023878D01*
X144522352Y-45019500D01*
X144317648Y-45019500D01*
X144293329Y-45023351D01*
X144115465Y-45051522D01*
X143920776Y-45114781D01*
X143738386Y-45207715D01*
X143572786Y-45328028D01*
X143428028Y-45472786D01*
X143307715Y-45638386D01*
X143214781Y-45820776D01*
X143151522Y-46015465D01*
X143119500Y-46217648D01*
X140793480Y-46217648D01*
X140793549Y-46154947D01*
X140793616Y-46153968D01*
X140793616Y-46095591D01*
X140793634Y-46079235D01*
X140793647Y-46067580D01*
X140793646Y-46067578D01*
X140793655Y-46059946D01*
X140793616Y-46059333D01*
X140793616Y-44473713D01*
X150329500Y-44473713D01*
X150329500Y-44686286D01*
X150345265Y-44785826D01*
X150362754Y-44896243D01*
X150413207Y-45051522D01*
X150428444Y-45098414D01*
X150524951Y-45287820D01*
X150649890Y-45459786D01*
X150800213Y-45610109D01*
X150972179Y-45735048D01*
X150972181Y-45735049D01*
X150972184Y-45735051D01*
X151161588Y-45831557D01*
X151363757Y-45897246D01*
X151573713Y-45930500D01*
X151573714Y-45930500D01*
X151786286Y-45930500D01*
X151786287Y-45930500D01*
X151996243Y-45897246D01*
X152198412Y-45831557D01*
X152387816Y-45735051D01*
X152462861Y-45680528D01*
X152559786Y-45610109D01*
X152559788Y-45610106D01*
X152559792Y-45610104D01*
X152710104Y-45459792D01*
X152710106Y-45459788D01*
X152710109Y-45459786D01*
X152835048Y-45287820D01*
X152835047Y-45287820D01*
X152835051Y-45287816D01*
X152839514Y-45279054D01*
X152887488Y-45228259D01*
X152955308Y-45211463D01*
X153021444Y-45233999D01*
X153060486Y-45279056D01*
X153064951Y-45287820D01*
X153189890Y-45459786D01*
X153340213Y-45610109D01*
X153512179Y-45735048D01*
X153512181Y-45735049D01*
X153512184Y-45735051D01*
X153701588Y-45831557D01*
X153903757Y-45897246D01*
X154113713Y-45930500D01*
X154113714Y-45930500D01*
X154326286Y-45930500D01*
X154326287Y-45930500D01*
X154536243Y-45897246D01*
X154738412Y-45831557D01*
X154927816Y-45735051D01*
X155002861Y-45680528D01*
X155099786Y-45610109D01*
X155099788Y-45610106D01*
X155099792Y-45610104D01*
X155250104Y-45459792D01*
X155250106Y-45459788D01*
X155250109Y-45459786D01*
X155375048Y-45287820D01*
X155375047Y-45287820D01*
X155375051Y-45287816D01*
X155379514Y-45279054D01*
X155427488Y-45228259D01*
X155495308Y-45211463D01*
X155561444Y-45233999D01*
X155600486Y-45279056D01*
X155604951Y-45287820D01*
X155729890Y-45459786D01*
X155880213Y-45610109D01*
X156052179Y-45735048D01*
X156052181Y-45735049D01*
X156052184Y-45735051D01*
X156241588Y-45831557D01*
X156443757Y-45897246D01*
X156653713Y-45930500D01*
X156653714Y-45930500D01*
X156866286Y-45930500D01*
X156866287Y-45930500D01*
X157076243Y-45897246D01*
X157278412Y-45831557D01*
X157467816Y-45735051D01*
X157542861Y-45680528D01*
X157639786Y-45610109D01*
X157639788Y-45610106D01*
X157639792Y-45610104D01*
X157790104Y-45459792D01*
X157790106Y-45459788D01*
X157790109Y-45459786D01*
X157915048Y-45287820D01*
X157915047Y-45287820D01*
X157915051Y-45287816D01*
X157919514Y-45279054D01*
X157967488Y-45228259D01*
X158035308Y-45211463D01*
X158101444Y-45233999D01*
X158140486Y-45279056D01*
X158144951Y-45287820D01*
X158269890Y-45459786D01*
X158420213Y-45610109D01*
X158592179Y-45735048D01*
X158592181Y-45735049D01*
X158592184Y-45735051D01*
X158781588Y-45831557D01*
X158983757Y-45897246D01*
X159193713Y-45930500D01*
X159193714Y-45930500D01*
X159406286Y-45930500D01*
X159406287Y-45930500D01*
X159616243Y-45897246D01*
X159818412Y-45831557D01*
X160007816Y-45735051D01*
X160094478Y-45672088D01*
X160179784Y-45610110D01*
X160179784Y-45610109D01*
X160179792Y-45610104D01*
X160293717Y-45496178D01*
X160355036Y-45462696D01*
X160424728Y-45467680D01*
X160480662Y-45509551D01*
X160497577Y-45540528D01*
X160546646Y-45672088D01*
X160546649Y-45672093D01*
X160632809Y-45787187D01*
X160632812Y-45787190D01*
X160747906Y-45873350D01*
X160747913Y-45873354D01*
X160882620Y-45923596D01*
X160882627Y-45923598D01*
X160942155Y-45929999D01*
X160942172Y-45930000D01*
X161590000Y-45930000D01*
X161590000Y-45013012D01*
X161647007Y-45045925D01*
X161774174Y-45080000D01*
X161905826Y-45080000D01*
X162032993Y-45045925D01*
X162090000Y-45013012D01*
X162090000Y-45930000D01*
X162737828Y-45930000D01*
X162737844Y-45929999D01*
X162797372Y-45923598D01*
X162797379Y-45923596D01*
X162932086Y-45873354D01*
X162932093Y-45873350D01*
X163047187Y-45787190D01*
X163047190Y-45787187D01*
X163133350Y-45672093D01*
X163133354Y-45672086D01*
X163183596Y-45537379D01*
X163183598Y-45537372D01*
X163189999Y-45477844D01*
X163190000Y-45477827D01*
X163190000Y-44830000D01*
X162273012Y-44830000D01*
X162305925Y-44772993D01*
X162340000Y-44645826D01*
X162340000Y-44613713D01*
X172239500Y-44613713D01*
X172239500Y-44826286D01*
X172263861Y-44980099D01*
X172272754Y-45036243D01*
X172328468Y-45207713D01*
X172338444Y-45238414D01*
X172434951Y-45427820D01*
X172559890Y-45599786D01*
X172710213Y-45750109D01*
X172882179Y-45875048D01*
X172882181Y-45875049D01*
X172882184Y-45875051D01*
X173071588Y-45971557D01*
X173273757Y-46037246D01*
X173483713Y-46070500D01*
X173483714Y-46070500D01*
X173696286Y-46070500D01*
X173696287Y-46070500D01*
X173906243Y-46037246D01*
X174108412Y-45971557D01*
X174297816Y-45875051D01*
X174384478Y-45812088D01*
X174469786Y-45750109D01*
X174469788Y-45750106D01*
X174469792Y-45750104D01*
X174620104Y-45599792D01*
X174620106Y-45599788D01*
X174620109Y-45599786D01*
X174745048Y-45427820D01*
X174745047Y-45427820D01*
X174745051Y-45427816D01*
X174749514Y-45419054D01*
X174797488Y-45368259D01*
X174865308Y-45351463D01*
X174931444Y-45373999D01*
X174970486Y-45419056D01*
X174974951Y-45427820D01*
X175099890Y-45599786D01*
X175250213Y-45750109D01*
X175422179Y-45875048D01*
X175422181Y-45875049D01*
X175422184Y-45875051D01*
X175611588Y-45971557D01*
X175813757Y-46037246D01*
X176023713Y-46070500D01*
X176023714Y-46070500D01*
X176236286Y-46070500D01*
X176236287Y-46070500D01*
X176446243Y-46037246D01*
X176648412Y-45971557D01*
X176837816Y-45875051D01*
X176924478Y-45812088D01*
X177009786Y-45750109D01*
X177009788Y-45750106D01*
X177009792Y-45750104D01*
X177160104Y-45599792D01*
X177160106Y-45599788D01*
X177160109Y-45599786D01*
X177285048Y-45427820D01*
X177285047Y-45427820D01*
X177285051Y-45427816D01*
X177289514Y-45419054D01*
X177337488Y-45368259D01*
X177405308Y-45351463D01*
X177471444Y-45373999D01*
X177510486Y-45419056D01*
X177514951Y-45427820D01*
X177639890Y-45599786D01*
X177790213Y-45750109D01*
X177962179Y-45875048D01*
X177962181Y-45875049D01*
X177962184Y-45875051D01*
X178151588Y-45971557D01*
X178353757Y-46037246D01*
X178563713Y-46070500D01*
X178563714Y-46070500D01*
X178776286Y-46070500D01*
X178776287Y-46070500D01*
X178986243Y-46037246D01*
X179188412Y-45971557D01*
X179377816Y-45875051D01*
X179464478Y-45812088D01*
X179549784Y-45750110D01*
X179549784Y-45750109D01*
X179549792Y-45750104D01*
X179663717Y-45636178D01*
X179725036Y-45602696D01*
X179794728Y-45607680D01*
X179850662Y-45649551D01*
X179867577Y-45680528D01*
X179916646Y-45812088D01*
X179916649Y-45812093D01*
X180002809Y-45927187D01*
X180002812Y-45927190D01*
X180117906Y-46013350D01*
X180117913Y-46013354D01*
X180252620Y-46063596D01*
X180252627Y-46063598D01*
X180312155Y-46069999D01*
X180312172Y-46070000D01*
X180960000Y-46070000D01*
X180960000Y-45153012D01*
X181017007Y-45185925D01*
X181144174Y-45220000D01*
X181275826Y-45220000D01*
X181402993Y-45185925D01*
X181460000Y-45153012D01*
X181460000Y-46070000D01*
X182107828Y-46070000D01*
X182107844Y-46069999D01*
X182167372Y-46063598D01*
X182167379Y-46063596D01*
X182302086Y-46013354D01*
X182302093Y-46013350D01*
X182417187Y-45927190D01*
X182417190Y-45927187D01*
X182503350Y-45812093D01*
X182503354Y-45812086D01*
X182553596Y-45677379D01*
X182553598Y-45677372D01*
X182559999Y-45617844D01*
X182560000Y-45617827D01*
X182560000Y-44970000D01*
X181643012Y-44970000D01*
X181675925Y-44912993D01*
X181710000Y-44785826D01*
X181710000Y-44654174D01*
X181675925Y-44527007D01*
X181643012Y-44470000D01*
X182560000Y-44470000D01*
X182560000Y-43822172D01*
X182559999Y-43822155D01*
X182553598Y-43762627D01*
X182553596Y-43762620D01*
X182503354Y-43627913D01*
X182503350Y-43627906D01*
X182417190Y-43512812D01*
X182417187Y-43512809D01*
X182302093Y-43426649D01*
X182302086Y-43426645D01*
X182167379Y-43376403D01*
X182167372Y-43376401D01*
X182107844Y-43370000D01*
X181460000Y-43370000D01*
X181460000Y-44286988D01*
X181402993Y-44254075D01*
X181275826Y-44220000D01*
X181144174Y-44220000D01*
X181017007Y-44254075D01*
X180960000Y-44286988D01*
X180960000Y-43370000D01*
X180312155Y-43370000D01*
X180252627Y-43376401D01*
X180252620Y-43376403D01*
X180117913Y-43426645D01*
X180117906Y-43426649D01*
X180002812Y-43512809D01*
X180002809Y-43512812D01*
X179916649Y-43627906D01*
X179916646Y-43627912D01*
X179867577Y-43759471D01*
X179825705Y-43815404D01*
X179760241Y-43839821D01*
X179691968Y-43824969D01*
X179663714Y-43803818D01*
X179549786Y-43689890D01*
X179377820Y-43564951D01*
X179188414Y-43468444D01*
X179188413Y-43468443D01*
X179188412Y-43468443D01*
X178986243Y-43402754D01*
X178986241Y-43402753D01*
X178986240Y-43402753D01*
X178824957Y-43377208D01*
X178776287Y-43369500D01*
X178563713Y-43369500D01*
X178515042Y-43377208D01*
X178353760Y-43402753D01*
X178151585Y-43468444D01*
X177962179Y-43564951D01*
X177790213Y-43689890D01*
X177639890Y-43840213D01*
X177514949Y-44012182D01*
X177510484Y-44020946D01*
X177462509Y-44071742D01*
X177394688Y-44088536D01*
X177328553Y-44065998D01*
X177289516Y-44020946D01*
X177285050Y-44012182D01*
X177160109Y-43840213D01*
X177009786Y-43689890D01*
X176837820Y-43564951D01*
X176648414Y-43468444D01*
X176648413Y-43468443D01*
X176648412Y-43468443D01*
X176446243Y-43402754D01*
X176446241Y-43402753D01*
X176446240Y-43402753D01*
X176284957Y-43377208D01*
X176236287Y-43369500D01*
X176023713Y-43369500D01*
X175975042Y-43377208D01*
X175813760Y-43402753D01*
X175611585Y-43468444D01*
X175422179Y-43564951D01*
X175250213Y-43689890D01*
X175099890Y-43840213D01*
X174974949Y-44012182D01*
X174970484Y-44020946D01*
X174922509Y-44071742D01*
X174854688Y-44088536D01*
X174788553Y-44065998D01*
X174749516Y-44020946D01*
X174745050Y-44012182D01*
X174620109Y-43840213D01*
X174469786Y-43689890D01*
X174297820Y-43564951D01*
X174108414Y-43468444D01*
X174108413Y-43468443D01*
X174108412Y-43468443D01*
X173906243Y-43402754D01*
X173906241Y-43402753D01*
X173906240Y-43402753D01*
X173744957Y-43377208D01*
X173696287Y-43369500D01*
X173483713Y-43369500D01*
X173435042Y-43377208D01*
X173273760Y-43402753D01*
X173071585Y-43468444D01*
X172882179Y-43564951D01*
X172710213Y-43689890D01*
X172559890Y-43840213D01*
X172434951Y-44012179D01*
X172338444Y-44201585D01*
X172272753Y-44403760D01*
X172239500Y-44613713D01*
X162340000Y-44613713D01*
X162340000Y-44514174D01*
X162305925Y-44387007D01*
X162273012Y-44330000D01*
X163190000Y-44330000D01*
X163190000Y-43682172D01*
X163189999Y-43682155D01*
X163183598Y-43622627D01*
X163183596Y-43622620D01*
X163133354Y-43487913D01*
X163133350Y-43487906D01*
X163047190Y-43372812D01*
X163047187Y-43372809D01*
X162932093Y-43286649D01*
X162932086Y-43286645D01*
X162797379Y-43236403D01*
X162797372Y-43236401D01*
X162737844Y-43230000D01*
X162090000Y-43230000D01*
X162090000Y-44146988D01*
X162032993Y-44114075D01*
X161905826Y-44080000D01*
X161774174Y-44080000D01*
X161647007Y-44114075D01*
X161590000Y-44146988D01*
X161590000Y-43230000D01*
X160942155Y-43230000D01*
X160882627Y-43236401D01*
X160882620Y-43236403D01*
X160747913Y-43286645D01*
X160747906Y-43286649D01*
X160632812Y-43372809D01*
X160632809Y-43372812D01*
X160546649Y-43487906D01*
X160546646Y-43487912D01*
X160497577Y-43619471D01*
X160455705Y-43675404D01*
X160390241Y-43699821D01*
X160321968Y-43684969D01*
X160293714Y-43663818D01*
X160179786Y-43549890D01*
X160007820Y-43424951D01*
X159818414Y-43328444D01*
X159818413Y-43328443D01*
X159818412Y-43328443D01*
X159616243Y-43262754D01*
X159616241Y-43262753D01*
X159616240Y-43262753D01*
X159454957Y-43237208D01*
X159406287Y-43229500D01*
X159193713Y-43229500D01*
X159145042Y-43237208D01*
X158983760Y-43262753D01*
X158781585Y-43328444D01*
X158592179Y-43424951D01*
X158420213Y-43549890D01*
X158269890Y-43700213D01*
X158144949Y-43872182D01*
X158140484Y-43880946D01*
X158092509Y-43931742D01*
X158024688Y-43948536D01*
X157958553Y-43925998D01*
X157919516Y-43880946D01*
X157915050Y-43872182D01*
X157790109Y-43700213D01*
X157639786Y-43549890D01*
X157467820Y-43424951D01*
X157278414Y-43328444D01*
X157278413Y-43328443D01*
X157278412Y-43328443D01*
X157076243Y-43262754D01*
X157076241Y-43262753D01*
X157076240Y-43262753D01*
X156914957Y-43237208D01*
X156866287Y-43229500D01*
X156653713Y-43229500D01*
X156605042Y-43237208D01*
X156443760Y-43262753D01*
X156241585Y-43328444D01*
X156052179Y-43424951D01*
X155880213Y-43549890D01*
X155729890Y-43700213D01*
X155604949Y-43872182D01*
X155600484Y-43880946D01*
X155552509Y-43931742D01*
X155484688Y-43948536D01*
X155418553Y-43925998D01*
X155379516Y-43880946D01*
X155375050Y-43872182D01*
X155250109Y-43700213D01*
X155099786Y-43549890D01*
X154927820Y-43424951D01*
X154738414Y-43328444D01*
X154738413Y-43328443D01*
X154738412Y-43328443D01*
X154536243Y-43262754D01*
X154536241Y-43262753D01*
X154536240Y-43262753D01*
X154374957Y-43237208D01*
X154326287Y-43229500D01*
X154113713Y-43229500D01*
X154065042Y-43237208D01*
X153903760Y-43262753D01*
X153701585Y-43328444D01*
X153512179Y-43424951D01*
X153340213Y-43549890D01*
X153189890Y-43700213D01*
X153064949Y-43872182D01*
X153060484Y-43880946D01*
X153012509Y-43931742D01*
X152944688Y-43948536D01*
X152878553Y-43925998D01*
X152839516Y-43880946D01*
X152835050Y-43872182D01*
X152710109Y-43700213D01*
X152559786Y-43549890D01*
X152387820Y-43424951D01*
X152198414Y-43328444D01*
X152198413Y-43328443D01*
X152198412Y-43328443D01*
X151996243Y-43262754D01*
X151996241Y-43262753D01*
X151996240Y-43262753D01*
X151834957Y-43237208D01*
X151786287Y-43229500D01*
X151573713Y-43229500D01*
X151525042Y-43237208D01*
X151363760Y-43262753D01*
X151161585Y-43328444D01*
X150972179Y-43424951D01*
X150800213Y-43549890D01*
X150649890Y-43700213D01*
X150524951Y-43872179D01*
X150428444Y-44061585D01*
X150362753Y-44263760D01*
X150329500Y-44473713D01*
X140793616Y-44473713D01*
X140793616Y-43762140D01*
X140793941Y-43753163D01*
X140803032Y-43627913D01*
X140810311Y-43527635D01*
X140812842Y-43510157D01*
X140860186Y-43293519D01*
X140865182Y-43276565D01*
X140880202Y-43236401D01*
X140942851Y-43068872D01*
X140950199Y-43052815D01*
X141056629Y-42858257D01*
X141066185Y-42843411D01*
X141199195Y-42665975D01*
X141210767Y-42652636D01*
X141367672Y-42495909D01*
X141381011Y-42484363D01*
X141558601Y-42351550D01*
X141573474Y-42342002D01*
X141768124Y-42235809D01*
X141784208Y-42228469D01*
X141991992Y-42151033D01*
X142008950Y-42146058D01*
X142225636Y-42098960D01*
X142243122Y-42096448D01*
X142468931Y-42080315D01*
X142477765Y-42080001D01*
X142520737Y-42080002D01*
X142520737Y-42080001D01*
X142545174Y-42080002D01*
X142545299Y-42080001D01*
X196010486Y-42080998D01*
G37*
%TD.AperFunction*%
%TD*%
%TA.AperFunction,Conductor*%
%TO.N,/+5V_USB*%
G36*
X166101715Y-79350470D02*
G01*
X166148176Y-79402654D01*
X166160084Y-79455567D01*
X166166217Y-86374014D01*
X166146592Y-86441071D01*
X166111108Y-86477226D01*
X166018584Y-86539048D01*
X166018580Y-86539051D01*
X165914051Y-86643580D01*
X165914048Y-86643584D01*
X165831919Y-86766498D01*
X165831912Y-86766511D01*
X165775343Y-86903082D01*
X165775340Y-86903092D01*
X165746500Y-87048079D01*
X165746500Y-87048082D01*
X165746500Y-87195918D01*
X165746500Y-87195920D01*
X165746499Y-87195920D01*
X165775340Y-87340907D01*
X165775343Y-87340917D01*
X165831912Y-87477488D01*
X165831919Y-87477501D01*
X165914048Y-87600415D01*
X165914051Y-87600419D01*
X166018581Y-87704949D01*
X166018584Y-87704951D01*
X166112434Y-87767659D01*
X166157240Y-87821272D01*
X166167544Y-87870652D01*
X166178506Y-100235790D01*
X166158881Y-100302847D01*
X166106117Y-100348649D01*
X166054610Y-100359900D01*
X146058807Y-100376670D01*
X145991751Y-100357042D01*
X145945952Y-100304276D01*
X145935950Y-100235126D01*
X145964922Y-100171546D01*
X145971023Y-100164988D01*
X146003529Y-100132482D01*
X146003532Y-100132479D01*
X146082929Y-100013653D01*
X146137619Y-99881620D01*
X146154686Y-99795822D01*
X146165500Y-99741457D01*
X146165500Y-99598542D01*
X146137620Y-99458385D01*
X146137619Y-99458384D01*
X146137619Y-99458380D01*
X146104954Y-99379523D01*
X146097486Y-99310055D01*
X146104953Y-99284623D01*
X146147619Y-99181620D01*
X146175500Y-99041455D01*
X146175500Y-98898545D01*
X146175500Y-98898542D01*
X146147620Y-98758385D01*
X146147619Y-98758384D01*
X146147619Y-98758380D01*
X146118238Y-98687449D01*
X146110770Y-98617985D01*
X146118235Y-98592556D01*
X146147619Y-98521620D01*
X146175500Y-98381455D01*
X146175500Y-98238545D01*
X146175500Y-98238542D01*
X146147620Y-98098385D01*
X146147619Y-98098384D01*
X146147619Y-98098380D01*
X146092929Y-97966347D01*
X146092928Y-97966346D01*
X146092925Y-97966340D01*
X146013532Y-97847521D01*
X146013529Y-97847517D01*
X145912482Y-97746470D01*
X145912478Y-97746467D01*
X145894504Y-97734457D01*
X158024499Y-97734457D01*
X158052379Y-97874614D01*
X158052381Y-97874620D01*
X158107069Y-98006650D01*
X158107074Y-98006659D01*
X158186467Y-98125478D01*
X158186470Y-98125482D01*
X158287517Y-98226529D01*
X158287521Y-98226532D01*
X158406340Y-98305925D01*
X158406346Y-98305928D01*
X158406347Y-98305929D01*
X158538380Y-98360619D01*
X158538384Y-98360619D01*
X158538385Y-98360620D01*
X158678542Y-98388500D01*
X158678545Y-98388500D01*
X158821457Y-98388500D01*
X158915751Y-98369742D01*
X158961620Y-98360619D01*
X159093653Y-98305929D01*
X159212479Y-98226532D01*
X159313532Y-98125479D01*
X159392929Y-98006653D01*
X159447619Y-97874620D01*
X159473110Y-97746470D01*
X159475500Y-97734457D01*
X159475500Y-97591542D01*
X159447620Y-97451385D01*
X159447619Y-97451384D01*
X159447619Y-97451380D01*
X159392929Y-97319347D01*
X159392928Y-97319346D01*
X159392925Y-97319340D01*
X159313532Y-97200521D01*
X159313529Y-97200517D01*
X159212482Y-97099470D01*
X159212478Y-97099467D01*
X159093659Y-97020074D01*
X159093650Y-97020069D01*
X158961620Y-96965381D01*
X158961614Y-96965379D01*
X158821457Y-96937500D01*
X158821455Y-96937500D01*
X158678545Y-96937500D01*
X158678543Y-96937500D01*
X158538385Y-96965379D01*
X158538379Y-96965381D01*
X158406349Y-97020069D01*
X158406340Y-97020074D01*
X158287521Y-97099467D01*
X158287517Y-97099470D01*
X158186470Y-97200517D01*
X158186467Y-97200521D01*
X158107074Y-97319340D01*
X158107069Y-97319349D01*
X158052381Y-97451379D01*
X158052379Y-97451385D01*
X158024500Y-97591542D01*
X158024500Y-97591545D01*
X158024500Y-97734455D01*
X158024500Y-97734457D01*
X158024499Y-97734457D01*
X145894504Y-97734457D01*
X145825807Y-97688555D01*
X145793659Y-97667074D01*
X145793650Y-97667069D01*
X145661620Y-97612381D01*
X145661614Y-97612379D01*
X145521457Y-97584500D01*
X145521455Y-97584500D01*
X145378545Y-97584500D01*
X145378543Y-97584500D01*
X145238385Y-97612379D01*
X145238379Y-97612381D01*
X145106349Y-97667069D01*
X145106340Y-97667074D01*
X144987521Y-97746467D01*
X144987517Y-97746470D01*
X144886470Y-97847517D01*
X144886467Y-97847521D01*
X144807074Y-97966340D01*
X144807069Y-97966349D01*
X144752381Y-98098379D01*
X144752379Y-98098385D01*
X144724500Y-98238542D01*
X144724500Y-98238545D01*
X144724500Y-98381455D01*
X144724500Y-98381457D01*
X144724499Y-98381457D01*
X144752379Y-98521613D01*
X144752381Y-98521621D01*
X144781760Y-98592548D01*
X144789229Y-98662017D01*
X144781760Y-98687452D01*
X144752381Y-98758378D01*
X144752379Y-98758386D01*
X144724500Y-98898542D01*
X144724500Y-98898545D01*
X144724500Y-99041455D01*
X144724500Y-99041457D01*
X144724499Y-99041457D01*
X144752379Y-99181614D01*
X144752382Y-99181624D01*
X144785044Y-99260477D01*
X144792513Y-99329946D01*
X144785044Y-99355381D01*
X144742382Y-99458375D01*
X144742379Y-99458385D01*
X144714500Y-99598542D01*
X144714500Y-99598545D01*
X144714500Y-99741455D01*
X144714500Y-99741457D01*
X144714499Y-99741457D01*
X144742379Y-99881614D01*
X144742381Y-99881620D01*
X144797069Y-100013650D01*
X144797074Y-100013659D01*
X144876467Y-100132478D01*
X144876470Y-100132482D01*
X144910014Y-100166026D01*
X144943499Y-100227349D01*
X144938515Y-100297041D01*
X144896643Y-100352974D01*
X144831179Y-100377391D01*
X144822437Y-100377707D01*
X142420030Y-100379722D01*
X142411077Y-100379406D01*
X142184397Y-100363188D01*
X142166813Y-100360654D01*
X141949094Y-100313151D01*
X141932054Y-100308131D01*
X141902430Y-100297041D01*
X141723354Y-100230002D01*
X141707213Y-100222602D01*
X141511817Y-100115450D01*
X141496893Y-100105814D01*
X141318824Y-99971848D01*
X141305433Y-99960182D01*
X141148322Y-99802132D01*
X141136742Y-99788679D01*
X141101654Y-99741457D01*
X141003829Y-99609800D01*
X140994285Y-99594822D01*
X140920518Y-99458380D01*
X140888302Y-99398792D01*
X140880997Y-99382603D01*
X140879865Y-99379524D01*
X140804116Y-99173446D01*
X140799198Y-99156378D01*
X140787151Y-99099540D01*
X140752993Y-98938377D01*
X140750565Y-98920783D01*
X140735695Y-98693946D01*
X140735432Y-98685106D01*
X140735703Y-98641941D01*
X140735701Y-98641937D01*
X140735748Y-98634564D01*
X140735474Y-98630912D01*
X140744053Y-90878920D01*
X146569499Y-90878920D01*
X146598340Y-91023907D01*
X146598343Y-91023917D01*
X146654912Y-91160488D01*
X146654919Y-91160501D01*
X146737048Y-91283415D01*
X146737051Y-91283419D01*
X146841580Y-91387948D01*
X146841584Y-91387951D01*
X146964498Y-91470080D01*
X146964511Y-91470087D01*
X147047305Y-91504381D01*
X147101087Y-91526658D01*
X147101091Y-91526658D01*
X147101092Y-91526659D01*
X147246079Y-91555500D01*
X147246082Y-91555500D01*
X147393920Y-91555500D01*
X147491462Y-91536096D01*
X147538913Y-91526658D01*
X147675495Y-91470084D01*
X147675496Y-91470083D01*
X147681122Y-91467753D01*
X147681479Y-91468614D01*
X147733840Y-91455500D01*
X152210071Y-91455500D01*
X152310613Y-91435500D01*
X152335744Y-91430501D01*
X152454127Y-91381465D01*
X152464392Y-91374606D01*
X152560669Y-91310277D01*
X153141127Y-90729819D01*
X153202450Y-90696334D01*
X153228808Y-90693500D01*
X153389678Y-90693500D01*
X153456717Y-90713185D01*
X153502472Y-90765989D01*
X153512416Y-90835147D01*
X153483391Y-90898703D01*
X153457528Y-90919363D01*
X153458412Y-90920686D01*
X153334521Y-91003467D01*
X153334517Y-91003470D01*
X153233470Y-91104517D01*
X153233467Y-91104521D01*
X153154074Y-91223340D01*
X153154069Y-91223349D01*
X153099381Y-91355379D01*
X153099379Y-91355385D01*
X153071500Y-91495542D01*
X153071500Y-91495545D01*
X153071500Y-91638455D01*
X153071500Y-91638457D01*
X153071499Y-91638457D01*
X153099379Y-91778614D01*
X153099381Y-91778620D01*
X153154069Y-91910650D01*
X153154074Y-91910659D01*
X153233467Y-92029478D01*
X153233470Y-92029482D01*
X153334517Y-92130529D01*
X153334521Y-92130532D01*
X153453340Y-92209925D01*
X153453346Y-92209928D01*
X153453347Y-92209929D01*
X153585380Y-92264619D01*
X153585384Y-92264619D01*
X153585385Y-92264620D01*
X153725542Y-92292500D01*
X153725545Y-92292500D01*
X153868457Y-92292500D01*
X153964189Y-92273457D01*
X162850499Y-92273457D01*
X162878379Y-92413614D01*
X162878381Y-92413620D01*
X162933069Y-92545650D01*
X162933074Y-92545659D01*
X163012467Y-92664478D01*
X163012470Y-92664482D01*
X163113517Y-92765529D01*
X163113521Y-92765532D01*
X163232340Y-92844925D01*
X163232346Y-92844928D01*
X163232347Y-92844929D01*
X163364380Y-92899619D01*
X163364384Y-92899619D01*
X163364385Y-92899620D01*
X163504542Y-92927500D01*
X163504545Y-92927500D01*
X163647457Y-92927500D01*
X163741751Y-92908742D01*
X163787620Y-92899619D01*
X163919653Y-92844929D01*
X164038479Y-92765532D01*
X164139532Y-92664479D01*
X164218929Y-92545653D01*
X164273619Y-92413620D01*
X164301500Y-92273455D01*
X164301500Y-92130545D01*
X164301500Y-92130542D01*
X164273620Y-91990385D01*
X164273619Y-91990384D01*
X164273619Y-91990380D01*
X164231318Y-91888258D01*
X164218930Y-91858349D01*
X164218925Y-91858340D01*
X164139532Y-91739521D01*
X164139529Y-91739517D01*
X164038482Y-91638470D01*
X164038478Y-91638467D01*
X163919659Y-91559074D01*
X163919650Y-91559069D01*
X163787620Y-91504381D01*
X163787614Y-91504379D01*
X163647457Y-91476500D01*
X163647455Y-91476500D01*
X163504545Y-91476500D01*
X163504543Y-91476500D01*
X163364385Y-91504379D01*
X163364379Y-91504381D01*
X163232349Y-91559069D01*
X163232340Y-91559074D01*
X163113521Y-91638467D01*
X163113517Y-91638470D01*
X163012470Y-91739517D01*
X163012467Y-91739521D01*
X162933074Y-91858340D01*
X162933069Y-91858349D01*
X162878381Y-91990379D01*
X162878379Y-91990385D01*
X162850500Y-92130542D01*
X162850500Y-92130545D01*
X162850500Y-92273455D01*
X162850500Y-92273457D01*
X162850499Y-92273457D01*
X153964189Y-92273457D01*
X153964199Y-92273455D01*
X154008620Y-92264619D01*
X154140653Y-92209929D01*
X154259479Y-92130532D01*
X154360532Y-92029479D01*
X154439929Y-91910653D01*
X154494619Y-91778620D01*
X154522497Y-91638470D01*
X154522500Y-91638457D01*
X154522500Y-91559500D01*
X154542185Y-91492461D01*
X154594989Y-91446706D01*
X154646500Y-91435500D01*
X154771457Y-91435500D01*
X154894306Y-91411063D01*
X154911620Y-91407619D01*
X154967538Y-91384457D01*
X159802499Y-91384457D01*
X159830379Y-91524614D01*
X159830381Y-91524620D01*
X159885069Y-91656650D01*
X159885074Y-91656659D01*
X159964467Y-91775478D01*
X159964470Y-91775482D01*
X160065517Y-91876529D01*
X160065521Y-91876532D01*
X160184340Y-91955925D01*
X160184346Y-91955928D01*
X160184347Y-91955929D01*
X160316380Y-92010619D01*
X160316384Y-92010619D01*
X160316385Y-92010620D01*
X160456542Y-92038500D01*
X160456545Y-92038500D01*
X160599457Y-92038500D01*
X160693751Y-92019742D01*
X160739620Y-92010619D01*
X160871653Y-91955929D01*
X160990479Y-91876532D01*
X161091532Y-91775479D01*
X161170929Y-91656653D01*
X161225619Y-91524620D01*
X161236468Y-91470080D01*
X161253500Y-91384457D01*
X161253500Y-91241542D01*
X161225620Y-91101385D01*
X161225619Y-91101384D01*
X161225619Y-91101380D01*
X161170929Y-90969347D01*
X161170928Y-90969346D01*
X161170925Y-90969340D01*
X161091532Y-90850521D01*
X161091529Y-90850517D01*
X160990482Y-90749470D01*
X160990478Y-90749467D01*
X160871659Y-90670074D01*
X160871650Y-90670069D01*
X160739620Y-90615381D01*
X160739614Y-90615379D01*
X160599457Y-90587500D01*
X160599455Y-90587500D01*
X160456545Y-90587500D01*
X160456543Y-90587500D01*
X160316385Y-90615379D01*
X160316379Y-90615381D01*
X160184349Y-90670069D01*
X160184340Y-90670074D01*
X160065521Y-90749467D01*
X160065517Y-90749470D01*
X159964470Y-90850517D01*
X159964467Y-90850521D01*
X159885074Y-90969340D01*
X159885069Y-90969349D01*
X159830381Y-91101379D01*
X159830379Y-91101385D01*
X159802500Y-91241542D01*
X159802500Y-91241545D01*
X159802500Y-91384455D01*
X159802500Y-91384457D01*
X159802499Y-91384457D01*
X154967538Y-91384457D01*
X155043653Y-91352929D01*
X155162479Y-91273532D01*
X155263532Y-91172479D01*
X155342929Y-91053653D01*
X155397619Y-90921620D01*
X155408010Y-90869381D01*
X155423143Y-90793308D01*
X155455528Y-90731397D01*
X155516244Y-90696823D01*
X155544760Y-90693500D01*
X156309249Y-90693500D01*
X156376288Y-90713185D01*
X156396930Y-90729819D01*
X156596381Y-90929271D01*
X156596384Y-90929274D01*
X156694366Y-90994743D01*
X156697233Y-90996658D01*
X156702930Y-91000465D01*
X156821313Y-91049501D01*
X156821317Y-91049501D01*
X156821318Y-91049502D01*
X156946985Y-91074500D01*
X156946988Y-91074500D01*
X158463160Y-91074500D01*
X158515520Y-91087614D01*
X158515878Y-91086753D01*
X158521504Y-91089083D01*
X158521505Y-91089084D01*
X158658087Y-91145658D01*
X158658091Y-91145658D01*
X158658092Y-91145659D01*
X158803079Y-91174500D01*
X158803082Y-91174500D01*
X158950920Y-91174500D01*
X159048462Y-91155096D01*
X159095913Y-91145658D01*
X159232495Y-91089084D01*
X159355416Y-91006951D01*
X159459951Y-90902416D01*
X159542084Y-90779495D01*
X159598658Y-90642913D01*
X159627500Y-90497918D01*
X159627500Y-90350082D01*
X159627500Y-90350079D01*
X159598659Y-90205092D01*
X159598658Y-90205091D01*
X159598658Y-90205087D01*
X159571665Y-90139919D01*
X159542087Y-90068511D01*
X159542080Y-90068498D01*
X159459951Y-89945584D01*
X159459948Y-89945580D01*
X159355419Y-89841051D01*
X159355415Y-89841048D01*
X159232501Y-89758919D01*
X159232488Y-89758912D01*
X159095915Y-89702342D01*
X159095909Y-89702340D01*
X159092558Y-89701674D01*
X159090966Y-89700841D01*
X159090079Y-89700572D01*
X159090130Y-89700403D01*
X159030649Y-89669284D01*
X158996079Y-89608565D01*
X158992758Y-89580058D01*
X158992758Y-89457262D01*
X158963917Y-89312275D01*
X158963916Y-89312274D01*
X158963916Y-89312270D01*
X158947066Y-89271590D01*
X158907345Y-89175694D01*
X158907338Y-89175681D01*
X158825209Y-89052767D01*
X158825206Y-89052763D01*
X158720677Y-88948234D01*
X158720673Y-88948231D01*
X158597759Y-88866102D01*
X158597746Y-88866095D01*
X158461175Y-88809526D01*
X158461165Y-88809523D01*
X158316178Y-88780683D01*
X158316176Y-88780683D01*
X158168340Y-88780683D01*
X158168338Y-88780683D01*
X158023350Y-88809523D01*
X158023340Y-88809526D01*
X157886769Y-88866095D01*
X157886756Y-88866102D01*
X157763842Y-88948231D01*
X157763838Y-88948234D01*
X157659309Y-89052763D01*
X157655443Y-89057475D01*
X157653583Y-89055948D01*
X157608100Y-89093940D01*
X157538773Y-89102630D01*
X157511187Y-89094793D01*
X157444917Y-89067343D01*
X157444907Y-89067340D01*
X157299920Y-89038500D01*
X157299918Y-89038500D01*
X157152082Y-89038500D01*
X157152080Y-89038500D01*
X157007092Y-89067340D01*
X157007082Y-89067343D01*
X156870511Y-89123912D01*
X156870498Y-89123919D01*
X156747584Y-89206048D01*
X156747580Y-89206051D01*
X156643053Y-89310578D01*
X156625137Y-89337392D01*
X156571524Y-89382196D01*
X156522035Y-89392500D01*
X152843929Y-89392500D01*
X152718261Y-89417497D01*
X152718255Y-89417499D01*
X152622253Y-89457265D01*
X152599877Y-89466533D01*
X152599869Y-89466537D01*
X152551230Y-89499037D01*
X152515164Y-89523134D01*
X152500264Y-89527799D01*
X152487607Y-89536940D01*
X152467604Y-89538025D01*
X152448489Y-89544011D01*
X152432485Y-89539932D01*
X152417840Y-89540727D01*
X152392689Y-89529788D01*
X152384988Y-89527826D01*
X152381098Y-89525614D01*
X152282495Y-89459730D01*
X152218849Y-89433367D01*
X152212141Y-89429553D01*
X152193009Y-89409752D01*
X152171573Y-89392478D01*
X152169079Y-89384986D01*
X152163592Y-89379307D01*
X152158202Y-89352305D01*
X152149508Y-89326184D01*
X152151160Y-89317026D01*
X152149915Y-89310789D01*
X152154300Y-89299620D01*
X152158868Y-89274306D01*
X152216567Y-89135006D01*
X152216569Y-89135002D01*
X152230028Y-89067340D01*
X152245411Y-88990009D01*
X152245411Y-88842168D01*
X152216570Y-88697181D01*
X152216569Y-88697180D01*
X152216569Y-88697176D01*
X152216567Y-88697171D01*
X152159998Y-88560600D01*
X152159991Y-88560587D01*
X152077862Y-88437673D01*
X152077859Y-88437669D01*
X151973330Y-88333140D01*
X151973326Y-88333137D01*
X151850412Y-88251008D01*
X151850399Y-88251001D01*
X151713828Y-88194432D01*
X151713818Y-88194429D01*
X151568831Y-88165589D01*
X151568829Y-88165589D01*
X151420993Y-88165589D01*
X151420991Y-88165589D01*
X151276003Y-88194429D01*
X151275993Y-88194432D01*
X151139422Y-88251001D01*
X151139409Y-88251008D01*
X151016495Y-88333137D01*
X151016491Y-88333140D01*
X150911962Y-88437669D01*
X150911959Y-88437673D01*
X150829830Y-88560587D01*
X150829823Y-88560600D01*
X150773254Y-88697171D01*
X150773251Y-88697181D01*
X150744411Y-88842168D01*
X150744411Y-88842171D01*
X150744411Y-88990007D01*
X150744411Y-88990009D01*
X150744410Y-88990009D01*
X150773251Y-89134996D01*
X150773254Y-89135006D01*
X150829823Y-89271577D01*
X150829830Y-89271590D01*
X150911959Y-89394504D01*
X150911962Y-89394508D01*
X151016491Y-89499037D01*
X151016495Y-89499040D01*
X151139409Y-89581169D01*
X151139413Y-89581171D01*
X151139416Y-89581173D01*
X151195935Y-89604584D01*
X151250336Y-89648423D01*
X151272402Y-89714717D01*
X151263043Y-89766596D01*
X151232204Y-89841051D01*
X151205342Y-89905901D01*
X151205341Y-89905904D01*
X151205341Y-89905905D01*
X151205340Y-89905906D01*
X151175744Y-90054692D01*
X151143359Y-90116603D01*
X151082643Y-90151177D01*
X151054127Y-90154500D01*
X147733840Y-90154500D01*
X147681479Y-90141385D01*
X147681122Y-90142247D01*
X147675495Y-90139916D01*
X147538913Y-90083342D01*
X147538907Y-90083340D01*
X147393920Y-90054500D01*
X147393918Y-90054500D01*
X147246082Y-90054500D01*
X147246080Y-90054500D01*
X147101092Y-90083340D01*
X147101082Y-90083343D01*
X146964511Y-90139912D01*
X146964498Y-90139919D01*
X146841584Y-90222048D01*
X146841580Y-90222051D01*
X146737051Y-90326580D01*
X146737048Y-90326584D01*
X146654919Y-90449498D01*
X146654912Y-90449511D01*
X146598343Y-90586082D01*
X146598340Y-90586092D01*
X146569500Y-90731079D01*
X146569500Y-90731082D01*
X146569500Y-90878918D01*
X146569500Y-90878920D01*
X146569499Y-90878920D01*
X140744053Y-90878920D01*
X140748668Y-86708957D01*
X153452499Y-86708957D01*
X153480379Y-86849114D01*
X153480381Y-86849120D01*
X153535069Y-86981150D01*
X153535074Y-86981159D01*
X153614467Y-87099978D01*
X153614470Y-87099982D01*
X153715517Y-87201029D01*
X153715521Y-87201032D01*
X153834340Y-87280425D01*
X153834346Y-87280428D01*
X153834347Y-87280429D01*
X153966380Y-87335119D01*
X153966384Y-87335119D01*
X153966385Y-87335120D01*
X154106542Y-87363000D01*
X154106545Y-87363000D01*
X154249457Y-87363000D01*
X154360522Y-87340907D01*
X154389620Y-87335119D01*
X154521653Y-87280429D01*
X154640479Y-87201032D01*
X154741532Y-87099979D01*
X154820929Y-86981153D01*
X154875619Y-86849120D01*
X154892051Y-86766511D01*
X154903500Y-86708957D01*
X155865499Y-86708957D01*
X155893379Y-86849114D01*
X155893381Y-86849120D01*
X155948069Y-86981150D01*
X155948074Y-86981159D01*
X156027467Y-87099978D01*
X156027470Y-87099982D01*
X156128517Y-87201029D01*
X156128521Y-87201032D01*
X156247340Y-87280425D01*
X156247346Y-87280428D01*
X156247347Y-87280429D01*
X156379380Y-87335119D01*
X156379384Y-87335119D01*
X156379385Y-87335120D01*
X156519542Y-87363000D01*
X156519545Y-87363000D01*
X156662457Y-87363000D01*
X156773522Y-87340907D01*
X156802620Y-87335119D01*
X156934653Y-87280429D01*
X157053479Y-87201032D01*
X157154532Y-87099979D01*
X157233929Y-86981153D01*
X157288619Y-86849120D01*
X157305051Y-86766511D01*
X157316500Y-86708957D01*
X157316500Y-86638957D01*
X158151499Y-86638957D01*
X158179379Y-86779114D01*
X158179381Y-86779120D01*
X158234069Y-86911150D01*
X158234074Y-86911159D01*
X158313467Y-87029978D01*
X158313470Y-87029982D01*
X158414517Y-87131029D01*
X158414521Y-87131032D01*
X158533340Y-87210425D01*
X158533346Y-87210428D01*
X158533347Y-87210429D01*
X158665380Y-87265119D01*
X158665384Y-87265119D01*
X158665385Y-87265120D01*
X158805542Y-87293000D01*
X158805545Y-87293000D01*
X158948457Y-87293000D01*
X159042751Y-87274242D01*
X159088620Y-87265119D01*
X159220653Y-87210429D01*
X159339479Y-87131032D01*
X159440532Y-87029979D01*
X159519929Y-86911153D01*
X159574619Y-86779120D01*
X159588576Y-86708955D01*
X159602500Y-86638957D01*
X159602500Y-86496042D01*
X159574620Y-86355885D01*
X159574619Y-86355884D01*
X159574619Y-86355880D01*
X159519929Y-86223847D01*
X159519928Y-86223846D01*
X159519925Y-86223840D01*
X159440532Y-86105021D01*
X159440529Y-86105017D01*
X159339482Y-86003970D01*
X159339478Y-86003967D01*
X159220659Y-85924574D01*
X159220650Y-85924569D01*
X159088620Y-85869881D01*
X159088614Y-85869879D01*
X158948457Y-85842000D01*
X158948455Y-85842000D01*
X158805545Y-85842000D01*
X158805543Y-85842000D01*
X158665385Y-85869879D01*
X158665379Y-85869881D01*
X158533349Y-85924569D01*
X158533340Y-85924574D01*
X158414521Y-86003967D01*
X158414517Y-86003970D01*
X158313470Y-86105017D01*
X158313467Y-86105021D01*
X158234074Y-86223840D01*
X158234069Y-86223849D01*
X158179381Y-86355879D01*
X158179379Y-86355885D01*
X158151500Y-86496042D01*
X158151500Y-86496045D01*
X158151500Y-86638955D01*
X158151500Y-86638957D01*
X158151499Y-86638957D01*
X157316500Y-86638957D01*
X157316500Y-86566042D01*
X157316499Y-86566040D01*
X157306177Y-86514144D01*
X157288620Y-86425885D01*
X157288619Y-86425884D01*
X157288619Y-86425880D01*
X157233929Y-86293847D01*
X157233928Y-86293846D01*
X157233925Y-86293840D01*
X157154532Y-86175021D01*
X157154529Y-86175017D01*
X157053482Y-86073970D01*
X157053478Y-86073967D01*
X156934659Y-85994574D01*
X156934650Y-85994569D01*
X156802620Y-85939881D01*
X156802614Y-85939879D01*
X156662457Y-85912000D01*
X156662455Y-85912000D01*
X156519545Y-85912000D01*
X156519543Y-85912000D01*
X156379385Y-85939879D01*
X156379379Y-85939881D01*
X156247349Y-85994569D01*
X156247340Y-85994574D01*
X156128521Y-86073967D01*
X156128517Y-86073970D01*
X156027470Y-86175017D01*
X156027467Y-86175021D01*
X155948074Y-86293840D01*
X155948069Y-86293849D01*
X155893381Y-86425879D01*
X155893379Y-86425885D01*
X155865500Y-86566042D01*
X155865500Y-86566045D01*
X155865500Y-86708955D01*
X155865500Y-86708957D01*
X155865499Y-86708957D01*
X154903500Y-86708957D01*
X154903500Y-86566042D01*
X154875620Y-86425885D01*
X154875619Y-86425884D01*
X154875619Y-86425880D01*
X154820929Y-86293847D01*
X154820928Y-86293846D01*
X154820925Y-86293840D01*
X154741532Y-86175021D01*
X154741529Y-86175017D01*
X154640482Y-86073970D01*
X154640478Y-86073967D01*
X154521659Y-85994574D01*
X154521650Y-85994569D01*
X154389620Y-85939881D01*
X154389614Y-85939879D01*
X154249457Y-85912000D01*
X154249455Y-85912000D01*
X154106545Y-85912000D01*
X154106543Y-85912000D01*
X153966385Y-85939879D01*
X153966379Y-85939881D01*
X153834349Y-85994569D01*
X153834340Y-85994574D01*
X153715521Y-86073967D01*
X153715517Y-86073970D01*
X153614470Y-86175017D01*
X153614467Y-86175021D01*
X153535074Y-86293840D01*
X153535069Y-86293849D01*
X153480381Y-86425879D01*
X153480379Y-86425885D01*
X153452500Y-86566042D01*
X153452500Y-86566045D01*
X153452500Y-86708955D01*
X153452500Y-86708957D01*
X153452499Y-86708957D01*
X140748668Y-86708957D01*
X140756321Y-79793778D01*
X140776079Y-79726766D01*
X140828933Y-79681070D01*
X140878646Y-79669933D01*
X166034419Y-79331688D01*
X166101715Y-79350470D01*
G37*
%TD.AperFunction*%
%TD*%
%TA.AperFunction,Conductor*%
%TO.N,/VBUS*%
G36*
X170860901Y-79232550D02*
G01*
X170869863Y-79231262D01*
X170893903Y-79242240D01*
X170919255Y-79249685D01*
X170925182Y-79256525D01*
X170933419Y-79260287D01*
X170947708Y-79282521D01*
X170965010Y-79302489D01*
X170967297Y-79313003D01*
X170971193Y-79319065D01*
X170976216Y-79354000D01*
X170976216Y-79431307D01*
X170976216Y-79431309D01*
X170976215Y-79431309D01*
X171004095Y-79571466D01*
X171004097Y-79571472D01*
X171058785Y-79703502D01*
X171058790Y-79703511D01*
X171138183Y-79822330D01*
X171138186Y-79822334D01*
X171239233Y-79923381D01*
X171239237Y-79923384D01*
X171358056Y-80002777D01*
X171358062Y-80002780D01*
X171358063Y-80002781D01*
X171490096Y-80057471D01*
X171490100Y-80057471D01*
X171490101Y-80057472D01*
X171630258Y-80085352D01*
X171630261Y-80085352D01*
X171773173Y-80085352D01*
X171867467Y-80066594D01*
X171913336Y-80057471D01*
X172045369Y-80002781D01*
X172164195Y-79923384D01*
X172265248Y-79822331D01*
X172344645Y-79703505D01*
X172399335Y-79571472D01*
X172408458Y-79525603D01*
X172427216Y-79431309D01*
X172427216Y-79354000D01*
X172446901Y-79286961D01*
X172499705Y-79241206D01*
X172551216Y-79230000D01*
X177168638Y-79230000D01*
X177235677Y-79249685D01*
X177256319Y-79266319D01*
X178350437Y-80360437D01*
X178383922Y-80421760D01*
X178378938Y-80491452D01*
X178337066Y-80547385D01*
X178286949Y-80569735D01*
X178223384Y-80582379D01*
X178223379Y-80582381D01*
X178091349Y-80637069D01*
X178091340Y-80637074D01*
X177972521Y-80716467D01*
X177972517Y-80716470D01*
X177871470Y-80817517D01*
X177871467Y-80817521D01*
X177792074Y-80936340D01*
X177792069Y-80936349D01*
X177737381Y-81068379D01*
X177737379Y-81068385D01*
X177709500Y-81208542D01*
X177709500Y-81208545D01*
X177709500Y-81351455D01*
X177709500Y-81351457D01*
X177709499Y-81351457D01*
X177737379Y-81491614D01*
X177737381Y-81491620D01*
X177792069Y-81623650D01*
X177792074Y-81623659D01*
X177871467Y-81742478D01*
X177871470Y-81742482D01*
X177972517Y-81843529D01*
X177972521Y-81843532D01*
X178091340Y-81922925D01*
X178091346Y-81922928D01*
X178091347Y-81922929D01*
X178223380Y-81977619D01*
X178223384Y-81977619D01*
X178223385Y-81977620D01*
X178363542Y-82005500D01*
X178363545Y-82005500D01*
X178506457Y-82005500D01*
X178600751Y-81986742D01*
X178646620Y-81977619D01*
X178768547Y-81927114D01*
X178838017Y-81919646D01*
X178900496Y-81950921D01*
X178936148Y-82011010D01*
X178940000Y-82041676D01*
X178940000Y-91218638D01*
X178920315Y-91285677D01*
X178903681Y-91306319D01*
X177546406Y-92663593D01*
X177485083Y-92697078D01*
X177459891Y-92699907D01*
X177450000Y-92700000D01*
X176825930Y-92705869D01*
X176758708Y-92686815D01*
X176712459Y-92634444D01*
X176701866Y-92565382D01*
X176730292Y-92501556D01*
X176737084Y-92494192D01*
X176770558Y-92460718D01*
X176882782Y-92292762D01*
X176882782Y-92292761D01*
X176882786Y-92292756D01*
X176960091Y-92106127D01*
X176999500Y-91908003D01*
X176999500Y-90655997D01*
X176960091Y-90457873D01*
X176882786Y-90271244D01*
X176882784Y-90271241D01*
X176882782Y-90271237D01*
X176770558Y-90103281D01*
X176627718Y-89960441D01*
X176459762Y-89848217D01*
X176459752Y-89848212D01*
X176273127Y-89770909D01*
X176273119Y-89770907D01*
X176075007Y-89731500D01*
X176075003Y-89731500D01*
X175872997Y-89731500D01*
X175872992Y-89731500D01*
X175674880Y-89770907D01*
X175674872Y-89770909D01*
X175488247Y-89848212D01*
X175488236Y-89848218D01*
X175450742Y-89873270D01*
X175384065Y-89894146D01*
X175316685Y-89875660D01*
X175269996Y-89823680D01*
X175267293Y-89817618D01*
X175235549Y-89740980D01*
X175235547Y-89740976D01*
X175145211Y-89605779D01*
X175145205Y-89605771D01*
X175030228Y-89490794D01*
X175030220Y-89490788D01*
X174895023Y-89400452D01*
X174895019Y-89400450D01*
X174744793Y-89338225D01*
X174744783Y-89338222D01*
X174585307Y-89306500D01*
X174585305Y-89306500D01*
X174422695Y-89306500D01*
X174422693Y-89306500D01*
X174263216Y-89338222D01*
X174263210Y-89338224D01*
X174207640Y-89361242D01*
X174151451Y-89384516D01*
X174081984Y-89391985D01*
X174056550Y-89384517D01*
X173944789Y-89338224D01*
X173944783Y-89338222D01*
X173785307Y-89306500D01*
X173785305Y-89306500D01*
X173622695Y-89306500D01*
X173622693Y-89306500D01*
X173463216Y-89338222D01*
X173463215Y-89338223D01*
X173463214Y-89338223D01*
X173463211Y-89338224D01*
X173398049Y-89365214D01*
X173350799Y-89384786D01*
X173281329Y-89392254D01*
X173255895Y-89384785D01*
X173144648Y-89338705D01*
X173144636Y-89338702D01*
X172985259Y-89307000D01*
X172878500Y-89307000D01*
X172811461Y-89287315D01*
X172765706Y-89234511D01*
X172754500Y-89183000D01*
X172754500Y-88346928D01*
X172737883Y-88263393D01*
X172735500Y-88239201D01*
X172735500Y-88200928D01*
X172710502Y-88075261D01*
X172710501Y-88075260D01*
X172710501Y-88075256D01*
X172661465Y-87956873D01*
X172590277Y-87850331D01*
X172590275Y-87850329D01*
X172590273Y-87850326D01*
X172590272Y-87850325D01*
X171541644Y-86801698D01*
X171508159Y-86740375D01*
X171513143Y-86670683D01*
X171526224Y-86645125D01*
X171565079Y-86586975D01*
X171565080Y-86586972D01*
X171565084Y-86586967D01*
X171621658Y-86450385D01*
X171650500Y-86305390D01*
X171650500Y-86157554D01*
X171650500Y-86157551D01*
X171621659Y-86012564D01*
X171621658Y-86012563D01*
X171621658Y-86012559D01*
X171621656Y-86012554D01*
X171565087Y-85875983D01*
X171565080Y-85875970D01*
X171482951Y-85753056D01*
X171482948Y-85753052D01*
X171378419Y-85648523D01*
X171378415Y-85648520D01*
X171255501Y-85566391D01*
X171255488Y-85566384D01*
X171118917Y-85509815D01*
X171118907Y-85509812D01*
X170973920Y-85480972D01*
X170973918Y-85480972D01*
X170954500Y-85480972D01*
X170887461Y-85461287D01*
X170841706Y-85408483D01*
X170830500Y-85356972D01*
X170830500Y-83852840D01*
X170843616Y-83800481D01*
X170842753Y-83800124D01*
X170899377Y-83663419D01*
X170901658Y-83657913D01*
X170911096Y-83610462D01*
X170930500Y-83512920D01*
X170930500Y-83365079D01*
X170909383Y-83258920D01*
X172731499Y-83258920D01*
X172760340Y-83403907D01*
X172760343Y-83403917D01*
X172816912Y-83540488D01*
X172816919Y-83540501D01*
X172899048Y-83663415D01*
X172899051Y-83663419D01*
X173003580Y-83767948D01*
X173003584Y-83767951D01*
X173126498Y-83850080D01*
X173126511Y-83850087D01*
X173263082Y-83906656D01*
X173263087Y-83906658D01*
X173263091Y-83906658D01*
X173263092Y-83906659D01*
X173408079Y-83935500D01*
X173408082Y-83935500D01*
X173555920Y-83935500D01*
X173653462Y-83916096D01*
X173700913Y-83906658D01*
X173806547Y-83862902D01*
X173837488Y-83850087D01*
X173837488Y-83850086D01*
X173837495Y-83850084D01*
X173960416Y-83767951D01*
X174064951Y-83663416D01*
X174147084Y-83540495D01*
X174203658Y-83403913D01*
X174232500Y-83258918D01*
X174232500Y-83111082D01*
X174232500Y-83111079D01*
X174203659Y-82966092D01*
X174203658Y-82966091D01*
X174203658Y-82966087D01*
X174158079Y-82856049D01*
X174147087Y-82829511D01*
X174147080Y-82829498D01*
X174064951Y-82706584D01*
X174064948Y-82706580D01*
X173960419Y-82602051D01*
X173960415Y-82602048D01*
X173837501Y-82519919D01*
X173837488Y-82519912D01*
X173700917Y-82463343D01*
X173700907Y-82463340D01*
X173555920Y-82434500D01*
X173555918Y-82434500D01*
X173408082Y-82434500D01*
X173408080Y-82434500D01*
X173263092Y-82463340D01*
X173263082Y-82463343D01*
X173126511Y-82519912D01*
X173126498Y-82519919D01*
X173003584Y-82602048D01*
X173003580Y-82602051D01*
X172899051Y-82706580D01*
X172899048Y-82706584D01*
X172816919Y-82829498D01*
X172816912Y-82829511D01*
X172760343Y-82966082D01*
X172760340Y-82966092D01*
X172731500Y-83111079D01*
X172731500Y-83111082D01*
X172731500Y-83258918D01*
X172731500Y-83258920D01*
X172731499Y-83258920D01*
X170909383Y-83258920D01*
X170901659Y-83220092D01*
X170901658Y-83220091D01*
X170901658Y-83220087D01*
X170856506Y-83111079D01*
X170845087Y-83083511D01*
X170845080Y-83083498D01*
X170762951Y-82960584D01*
X170762948Y-82960580D01*
X170658419Y-82856051D01*
X170658415Y-82856048D01*
X170535501Y-82773919D01*
X170535488Y-82773912D01*
X170398917Y-82717343D01*
X170398907Y-82717340D01*
X170253920Y-82688500D01*
X170253918Y-82688500D01*
X170106082Y-82688500D01*
X170106080Y-82688500D01*
X169961092Y-82717340D01*
X169961082Y-82717343D01*
X169824511Y-82773912D01*
X169824498Y-82773919D01*
X169701584Y-82856048D01*
X169701580Y-82856051D01*
X169597051Y-82960580D01*
X169597048Y-82960584D01*
X169514919Y-83083498D01*
X169514912Y-83083511D01*
X169458343Y-83220082D01*
X169458340Y-83220092D01*
X169429500Y-83365079D01*
X169429500Y-83365082D01*
X169429500Y-83512918D01*
X169429500Y-83512920D01*
X169429499Y-83512920D01*
X169458340Y-83657907D01*
X169458343Y-83657917D01*
X169517247Y-83800124D01*
X169516383Y-83800481D01*
X169529500Y-83852840D01*
X169529500Y-86424071D01*
X169545266Y-86503330D01*
X169551226Y-86533290D01*
X169554499Y-86549744D01*
X169564269Y-86573332D01*
X169603535Y-86668127D01*
X169674723Y-86774669D01*
X169801721Y-86901667D01*
X171417181Y-88517127D01*
X171450666Y-88578450D01*
X171453500Y-88604808D01*
X171453500Y-89182500D01*
X171433815Y-89249539D01*
X171381011Y-89295294D01*
X171329500Y-89306500D01*
X171222693Y-89306500D01*
X171063216Y-89338222D01*
X171063215Y-89338223D01*
X171063214Y-89338223D01*
X171063211Y-89338224D01*
X170998049Y-89365214D01*
X170950799Y-89384786D01*
X170881329Y-89392254D01*
X170855895Y-89384785D01*
X170744648Y-89338705D01*
X170744636Y-89338702D01*
X170585259Y-89307000D01*
X170422740Y-89307000D01*
X170263363Y-89338702D01*
X170263360Y-89338703D01*
X170152103Y-89384786D01*
X170082633Y-89392254D01*
X170057199Y-89384785D01*
X169944793Y-89338225D01*
X169944783Y-89338222D01*
X169785307Y-89306500D01*
X169785305Y-89306500D01*
X169622695Y-89306500D01*
X169622693Y-89306500D01*
X169463216Y-89338222D01*
X169463210Y-89338224D01*
X169407640Y-89361242D01*
X169351451Y-89384516D01*
X169281984Y-89391985D01*
X169256550Y-89384517D01*
X169144789Y-89338224D01*
X169144783Y-89338222D01*
X168985307Y-89306500D01*
X168985305Y-89306500D01*
X168822695Y-89306500D01*
X168822693Y-89306500D01*
X168663216Y-89338222D01*
X168663206Y-89338225D01*
X168512980Y-89400450D01*
X168512976Y-89400452D01*
X168377779Y-89490788D01*
X168377771Y-89490794D01*
X168262794Y-89605771D01*
X168262788Y-89605779D01*
X168172452Y-89740976D01*
X168172452Y-89740977D01*
X168140706Y-89817619D01*
X168096865Y-89872023D01*
X168030570Y-89894087D01*
X167962871Y-89876807D01*
X167957255Y-89873269D01*
X167919760Y-89848216D01*
X167919752Y-89848212D01*
X167733127Y-89770909D01*
X167733119Y-89770907D01*
X167535007Y-89731500D01*
X167535003Y-89731500D01*
X167332997Y-89731500D01*
X167332992Y-89731500D01*
X167134880Y-89770907D01*
X167134872Y-89770909D01*
X166948247Y-89848212D01*
X166948239Y-89848216D01*
X166867643Y-89902069D01*
X166800966Y-89922946D01*
X166733586Y-89904461D01*
X166686896Y-89852482D01*
X166674753Y-89799078D01*
X166673109Y-87944348D01*
X166692734Y-87877294D01*
X166745498Y-87831492D01*
X166749593Y-87829707D01*
X166852495Y-87787084D01*
X166975416Y-87704951D01*
X167079951Y-87600416D01*
X167097296Y-87574457D01*
X167676499Y-87574457D01*
X167704379Y-87714614D01*
X167704381Y-87714620D01*
X167759069Y-87846650D01*
X167759074Y-87846659D01*
X167838467Y-87965478D01*
X167838470Y-87965482D01*
X167939517Y-88066529D01*
X167939521Y-88066532D01*
X168058340Y-88145925D01*
X168058346Y-88145928D01*
X168058347Y-88145929D01*
X168190380Y-88200619D01*
X168190384Y-88200619D01*
X168190385Y-88200620D01*
X168330542Y-88228500D01*
X168330545Y-88228500D01*
X168473457Y-88228500D01*
X168612051Y-88200931D01*
X168613620Y-88200619D01*
X168745653Y-88145929D01*
X168864479Y-88066532D01*
X168965532Y-87965479D01*
X169044929Y-87846653D01*
X169099619Y-87714620D01*
X169108742Y-87668751D01*
X169127500Y-87574457D01*
X169127500Y-87431542D01*
X169099620Y-87291385D01*
X169099619Y-87291384D01*
X169099619Y-87291380D01*
X169044929Y-87159347D01*
X169044928Y-87159346D01*
X169044925Y-87159340D01*
X168965532Y-87040521D01*
X168965529Y-87040517D01*
X168864482Y-86939470D01*
X168864478Y-86939467D01*
X168745659Y-86860074D01*
X168745650Y-86860069D01*
X168613620Y-86805381D01*
X168613614Y-86805379D01*
X168473457Y-86777500D01*
X168473455Y-86777500D01*
X168330545Y-86777500D01*
X168330543Y-86777500D01*
X168190385Y-86805379D01*
X168190379Y-86805381D01*
X168058349Y-86860069D01*
X168058340Y-86860074D01*
X167939521Y-86939467D01*
X167939517Y-86939470D01*
X167838470Y-87040517D01*
X167838467Y-87040521D01*
X167759074Y-87159340D01*
X167759069Y-87159349D01*
X167704381Y-87291379D01*
X167704379Y-87291385D01*
X167676500Y-87431542D01*
X167676500Y-87431545D01*
X167676500Y-87574455D01*
X167676500Y-87574457D01*
X167676499Y-87574457D01*
X167097296Y-87574457D01*
X167162084Y-87477495D01*
X167181117Y-87431545D01*
X167203296Y-87378001D01*
X167218656Y-87340917D01*
X167218658Y-87340913D01*
X167247500Y-87195918D01*
X167247500Y-87048082D01*
X167247500Y-87048079D01*
X167218659Y-86903092D01*
X167218658Y-86903091D01*
X167218658Y-86903087D01*
X167218069Y-86901666D01*
X167162087Y-86766511D01*
X167162080Y-86766498D01*
X167079951Y-86643584D01*
X167079948Y-86643580D01*
X166975419Y-86539051D01*
X166975415Y-86539048D01*
X166852501Y-86456919D01*
X166852488Y-86456912D01*
X166748199Y-86413715D01*
X166693795Y-86369874D01*
X166671730Y-86303580D01*
X166671651Y-86299264D01*
X166666434Y-80415032D01*
X166686059Y-80347979D01*
X166702744Y-80327255D01*
X167763681Y-79266319D01*
X167825004Y-79232834D01*
X167851362Y-79230000D01*
X170852216Y-79230000D01*
X170860901Y-79232550D01*
G37*
%TD.AperFunction*%
%TD*%
M02*
