%TF.GenerationSoftware,KiCad,Pcbnew,9.0.4*%
%TF.CreationDate,2025-12-21T22:50:03+05:30*%
%TF.ProjectId,ESP-32 C3 demo project004,4553502d-3332-4204-9333-2064656d6f20,rev?*%
%TF.SameCoordinates,Original*%
%TF.FileFunction,Copper,L4,Bot*%
%TF.FilePolarity,Positive*%
%FSLAX46Y46*%
G04 Gerber Fmt 4.6, Leading zero omitted, Abs format (unit mm)*
G04 Created by KiCad (PCBNEW 9.0.4) date 2025-12-21 22:50:03*
%MOMM*%
%LPD*%
G01*
G04 APERTURE LIST*
%TA.AperFunction,ComponentPad*%
%ADD10O,1.050000X2.100000*%
%TD*%
%TA.AperFunction,ComponentPad*%
%ADD11C,0.650000*%
%TD*%
%TA.AperFunction,ComponentPad*%
%ADD12C,0.400000*%
%TD*%
%TA.AperFunction,ComponentPad*%
%ADD13C,1.208000*%
%TD*%
%TA.AperFunction,ComponentPad*%
%ADD14R,1.700000X1.700000*%
%TD*%
%TA.AperFunction,ComponentPad*%
%ADD15C,1.700000*%
%TD*%
%TA.AperFunction,ViaPad*%
%ADD16C,0.450000*%
%TD*%
%TA.AperFunction,ViaPad*%
%ADD17C,0.500000*%
%TD*%
%TA.AperFunction,Conductor*%
%ADD18C,0.300000*%
%TD*%
%TA.AperFunction,Conductor*%
%ADD19C,0.250000*%
%TD*%
G04 APERTURE END LIST*
D10*
%TO.P,J1,S4,GND/SHIELD*%
%TO.N,GND*%
X175974000Y-96012000D03*
%TO.P,J1,S3,GND/SHIELD*%
X167434000Y-96012000D03*
%TO.P,J1,S2,GND/SHIELD*%
X175974000Y-91282000D03*
%TO.P,J1,S1,GND/SHIELD*%
X167434000Y-91282000D03*
D11*
%TO.P,J1,G2,GND/SHIELD*%
X169704000Y-90132000D03*
%TO.P,J1,G1,GND/SHIELD*%
X173704000Y-90132000D03*
%TO.P,J1,B12,GNDB2*%
X168904000Y-90132000D03*
%TO.P,J1,B11,SSRXP1*%
%TO.N,unconnected-(J1-SSRXP1-PadB11)*%
X169304000Y-90842000D03*
%TO.P,J1,B10,SSRXN1*%
%TO.N,unconnected-(J1-SSRXN1-PadB10)*%
X170104000Y-90842000D03*
%TO.P,J1,B9,VBUSB2*%
%TO.N,/VBUS*%
X170504000Y-90132000D03*
%TO.P,J1,B8,SBU2*%
%TO.N,unconnected-(J1-SBU2-PadB8)*%
X170904000Y-90842000D03*
%TO.P,J1,B7,DN2*%
%TO.N,/USB_DN*%
X171304000Y-90132000D03*
%TO.P,J1,B6,DP2*%
%TO.N,/USB_DP*%
X172104000Y-90132000D03*
%TO.P,J1,B5,CC2*%
%TO.N,Net-(J1-CC2)*%
X172504000Y-90842000D03*
%TO.P,J1,B4,VBUSB1*%
%TO.N,/VBUS*%
X172904000Y-90132000D03*
%TO.P,J1,B3,SSTXN2*%
%TO.N,unconnected-(J1-SSTXN2-PadB3)*%
X173304000Y-90842000D03*
%TO.P,J1,B2,SSTXP2*%
%TO.N,unconnected-(J1-SSTXP2-PadB2)*%
X174104000Y-90842000D03*
%TO.P,J1,B1,GNDB1*%
%TO.N,GND*%
X174504000Y-90132000D03*
%TD*%
D12*
%TO.P,U3,28,GND*%
%TO.N,GND*%
X222210000Y-53990500D03*
%TO.P,U3,29,GND*%
X223310000Y-53990500D03*
%TO.P,U3,30,GND*%
X221660000Y-54540500D03*
%TO.P,U3,31,GND*%
X222760000Y-54540500D03*
%TO.P,U3,32,GND*%
X223860000Y-54540500D03*
%TO.P,U3,33,GND*%
X222210000Y-55090500D03*
%TO.P,U3,34,GND*%
X223310000Y-55090500D03*
%TO.P,U3,35,GND*%
X221660000Y-55640500D03*
%TO.P,U3,36,GND*%
X222760000Y-55640500D03*
%TO.P,U3,37,GND*%
X223860000Y-55640500D03*
%TO.P,U3,38,GND*%
X222210000Y-56190500D03*
%TO.P,U3,39,GND*%
X223310000Y-56190500D03*
%TD*%
D13*
%TO.P,MK1,GND*%
%TO.N,GND*%
X152638000Y-54549000D03*
%TO.P,MK1,OUT*%
%TO.N,Net-(C17-Pad2)*%
X152638000Y-56449000D03*
%TD*%
D14*
%TO.P,J4,1,Pin_1*%
%TO.N,+3.3V*%
X181210000Y-44720000D03*
D15*
%TO.P,J4,2,Pin_2*%
%TO.N,/ESP32-C3-02/SDA*%
X178670000Y-44720000D03*
%TO.P,J4,3,Pin_3*%
%TO.N,/ESP32-C3-02/SCL*%
X176130000Y-44720000D03*
%TO.P,J4,4,Pin_4*%
%TO.N,GND*%
X173590000Y-44720000D03*
%TD*%
D14*
%TO.P,J5,1,Pin_1*%
%TO.N,+3.3V*%
X161840000Y-44580000D03*
D15*
%TO.P,J5,2,Pin_2*%
%TO.N,/ESP32-C3-02/GPIO8*%
X159300000Y-44580000D03*
%TO.P,J5,3,Pin_3*%
%TO.N,/ESP32-C3-02/GPIO18*%
X156760000Y-44580000D03*
%TO.P,J5,4,Pin_4*%
%TO.N,/ESP32-C3-02/GPIO19*%
X154220000Y-44580000D03*
%TO.P,J5,5,Pin_5*%
%TO.N,GND*%
X151680000Y-44580000D03*
%TD*%
D16*
%TO.N,GND*%
X187960000Y-59690000D03*
X166243000Y-56642000D03*
X171701716Y-79359852D03*
X170929000Y-77597000D03*
X176022000Y-77724000D03*
X179705000Y-72898000D03*
X156845000Y-53975000D03*
X226187000Y-71882000D03*
X217043000Y-60569000D03*
X215011000Y-66420500D03*
X205613000Y-52324000D03*
X202946000Y-71501000D03*
X211201000Y-71882000D03*
X218440000Y-72136000D03*
X192405000Y-97340000D03*
X227330000Y-97409000D03*
X190246000Y-48641000D03*
X192024000Y-51816000D03*
X164973000Y-50546000D03*
X175514000Y-62611000D03*
X153797000Y-91567000D03*
X163576000Y-92202000D03*
X168402000Y-87503000D03*
X178435000Y-81280000D03*
X150368000Y-61595000D03*
X158877000Y-86567500D03*
X156591000Y-86637500D03*
X154178000Y-86637500D03*
X158750000Y-97663000D03*
X160528000Y-91313000D03*
X154000000Y-76180000D03*
X154000000Y-77700000D03*
X152810000Y-77700000D03*
X152810000Y-76200000D03*
X152760000Y-74960000D03*
X152019000Y-73914000D03*
X150290000Y-73840000D03*
X148770000Y-73860000D03*
X147470000Y-73840000D03*
X154700000Y-90710000D03*
X145440000Y-99670000D03*
X145450000Y-98970000D03*
X145450000Y-98310000D03*
D17*
%TO.N,/ESP32-C3-02/TX_RX*%
X228201396Y-59418396D03*
%TO.N,/ESP32-C3-02/RX_TX*%
X229108000Y-57912000D03*
X168148000Y-73787000D03*
%TO.N,/ESP32-C3-02/TX_RX*%
X168148000Y-74518000D03*
%TO.N,/ESP32-C3-02/PHOTO_C*%
X228981000Y-50673000D03*
X184023000Y-62103000D03*
%TO.N,Net-(C19-Pad2)*%
X161798000Y-52909000D03*
X161798000Y-54229000D03*
%TO.N,/ESP32-C3-02/GPIO19*%
X228536262Y-55813882D03*
%TO.N,/ESP32-C3-02/GPIO18*%
X228600000Y-56515000D03*
%TO.N,/ESP32-C3-02/GPIO8*%
X214630000Y-56854000D03*
%TO.N,/ESP32-C3-02/EN*%
X190373000Y-87503000D03*
X214817409Y-51501591D03*
%TO.N,/ESP32-C3-02/RTS*%
X168783000Y-72771000D03*
%TO.N,/VBUS*%
X172509535Y-84714535D03*
%TO.N,+3.3V*%
X173990000Y-75565000D03*
X179451000Y-74803000D03*
%TO.N,/ESP32-C3-02/BOOT*%
X211328000Y-60452000D03*
X198247000Y-87122000D03*
%TO.N,/ESP32-C3-02/DTR*%
X193167000Y-90551000D03*
X189900000Y-92583000D03*
%TO.N,/ESP32-C3-02/RTS*%
X191516000Y-90170000D03*
X189950000Y-90043000D03*
%TO.N,/ESP32-C3-02/BOOT*%
X199390000Y-98044000D03*
X199390000Y-96393000D03*
%TO.N,/ESP32-C3-02/EN*%
X190754000Y-98171000D03*
X190754000Y-96393000D03*
%TO.N,Net-(J1-CC1)*%
X170900000Y-86231472D03*
X166497000Y-87122000D03*
%TO.N,Net-(J1-CC2)*%
X168275000Y-93345000D03*
%TO.N,/CHARGING*%
X158877000Y-90424000D03*
X147320000Y-90805000D03*
%TO.N,/CHARGED*%
X157226000Y-89789000D03*
X151927000Y-90124814D03*
%TO.N,/CHARGING_POWER_GOOD*%
X158242258Y-89531183D03*
X151494911Y-88916089D03*
%TO.N,+3.3V*%
X205867000Y-49918000D03*
X220472000Y-68580000D03*
X210947000Y-68326000D03*
X181229000Y-91059000D03*
X185928000Y-64262000D03*
X195326000Y-60325000D03*
X176276000Y-59944000D03*
X193675000Y-48768000D03*
X191008000Y-48514000D03*
X189103000Y-44704000D03*
X188976000Y-51816000D03*
X164846000Y-60579000D03*
X170053000Y-50673000D03*
%TO.N,/USB_DP*%
X170180000Y-83439000D03*
%TO.N,/USB_DN*%
X173482000Y-83185000D03*
%TO.N,/VBUS*%
X170053000Y-87122000D03*
X171704000Y-83947000D03*
%TO.N,+3.3V*%
X179451000Y-67437000D03*
X166624000Y-67183000D03*
X163957000Y-67437000D03*
X145034000Y-65913000D03*
X145542000Y-69342000D03*
%TO.N,/+5V_USB*%
X148590000Y-80720000D03*
X145288000Y-80720000D03*
X160020000Y-93664003D03*
X160020000Y-92263997D03*
X157622003Y-95758000D03*
X156972000Y-95758000D03*
X154432000Y-98044000D03*
%TO.N,/VBUS*%
X167671000Y-82042000D03*
X167671000Y-81026000D03*
X167671000Y-80137000D03*
%TO.N,/ESP32-C3-02/CS*%
X228981000Y-60890500D03*
X199390000Y-57404000D03*
%TO.N,/ESP32-C3-02/CS_SD*%
X228600000Y-66675000D03*
X231809631Y-49114369D03*
%TO.N,/ESP32-C3-02/SDA*%
X220599000Y-53161250D03*
X204203998Y-49318000D03*
%TO.N,/ESP32-C3-02/SCL*%
X225425000Y-48768000D03*
X204724000Y-48768000D03*
%TO.N,+3.3V*%
X152273000Y-61722000D03*
X153797000Y-61722000D03*
X159258000Y-61722000D03*
X157861000Y-61722000D03*
X156464000Y-61722000D03*
X155067000Y-61722000D03*
%TO.N,/+5V_USB*%
X161927000Y-82036000D03*
X161907000Y-81076000D03*
X161897000Y-80146000D03*
%TD*%
D18*
%TO.N,/ESP32-C3-02/CS*%
X228022500Y-60890500D02*
X224536000Y-57404000D01*
X228981000Y-60890500D02*
X228022500Y-60890500D01*
X224536000Y-57404000D02*
X199390000Y-57404000D01*
%TO.N,Net-(C19-Pad2)*%
X161798000Y-54229000D02*
X161798000Y-52909000D01*
%TO.N,/ESP32-C3-02/EN*%
X204513177Y-51501591D02*
X214817409Y-51501591D01*
X190373000Y-66294000D02*
X198839000Y-57828000D01*
X190373000Y-87503000D02*
X190373000Y-66294000D01*
X198839000Y-57175768D02*
X204513177Y-51501591D01*
X198839000Y-57828000D02*
X198839000Y-57175768D01*
%TO.N,/ESP32-C3-02/RTS*%
X186055000Y-90043000D02*
X189950000Y-90043000D01*
X168783000Y-72771000D02*
X186055000Y-90043000D01*
%TO.N,/VBUS*%
X171742000Y-83947000D02*
X172509535Y-84714535D01*
X171704000Y-83947000D02*
X171742000Y-83947000D01*
%TO.N,/ESP32-C3-02/BOOT*%
X211836000Y-60960000D02*
X211328000Y-60452000D01*
X211836000Y-73533000D02*
X211836000Y-60960000D01*
X198247000Y-87122000D02*
X211836000Y-73533000D01*
%TO.N,/ESP32-C3-02/DTR*%
X191135000Y-92583000D02*
X189900000Y-92583000D01*
X193167000Y-90551000D02*
X191135000Y-92583000D01*
%TO.N,/ESP32-C3-02/RTS*%
X191643000Y-90170000D02*
X191516000Y-90170000D01*
X190077000Y-90170000D02*
X191643000Y-90170000D01*
X189950000Y-90043000D02*
X190077000Y-90170000D01*
%TO.N,/ESP32-C3-02/BOOT*%
X199390000Y-98044000D02*
X199390000Y-96393000D01*
%TO.N,/ESP32-C3-02/EN*%
X190754000Y-98171000D02*
X190754000Y-96393000D01*
%TO.N,Net-(J1-CC1)*%
X170900000Y-86231472D02*
X167387528Y-86231472D01*
X167387528Y-86231472D02*
X166497000Y-87122000D01*
%TO.N,Net-(J1-CC2)*%
X170001000Y-93345000D02*
X172504000Y-90842000D01*
X168275000Y-93345000D02*
X170001000Y-93345000D01*
%TO.N,/CHARGED*%
X152027000Y-90024814D02*
X151927000Y-90124814D01*
X155539707Y-90024814D02*
X152027000Y-90024814D01*
X155775521Y-89789000D02*
X155539707Y-90024814D01*
X157226000Y-89789000D02*
X155775521Y-89789000D01*
%TO.N,/CHARGING_POWER_GOOD*%
X158242000Y-89530925D02*
X158242258Y-89531183D01*
X157734000Y-88138000D02*
X158242000Y-88646000D01*
X158242000Y-88646000D02*
X158242000Y-89530925D01*
X156718000Y-88138000D02*
X157734000Y-88138000D01*
X152102636Y-89523814D02*
X155332186Y-89523814D01*
X155332186Y-89523814D02*
X156718000Y-88138000D01*
X151494911Y-88916089D02*
X152102636Y-89523814D01*
%TO.N,/USB_DN*%
X173482000Y-86233000D02*
X173482000Y-83185000D01*
X171323000Y-88392000D02*
X173482000Y-86233000D01*
X171304000Y-90132000D02*
X171304000Y-88411000D01*
X171304000Y-88411000D02*
X171323000Y-88392000D01*
D19*
%TO.N,/ESP32-C3-02/CS_SD*%
X228727000Y-66548000D02*
X228600000Y-66675000D01*
X231521000Y-65024000D02*
X229997000Y-66548000D01*
X231521000Y-50135738D02*
X231521000Y-65024000D01*
X231809631Y-49847107D02*
X231521000Y-50135738D01*
X231809631Y-49114369D02*
X231809631Y-49847107D01*
X229997000Y-66548000D02*
X228727000Y-66548000D01*
D18*
%TO.N,/ESP32-C3-02/SDA*%
X221615000Y-52145250D02*
X220599000Y-53161250D01*
X221615000Y-51228000D02*
X221615000Y-52145250D01*
X221187000Y-50800000D02*
X221615000Y-51228000D01*
X219599125Y-50546000D02*
X219599124Y-50545999D01*
X219837000Y-50783875D02*
X219599125Y-50546000D01*
X219245571Y-50192446D02*
X219599124Y-50545999D01*
X220467000Y-49953875D02*
X220467000Y-50603875D01*
X221097000Y-50783875D02*
X221187000Y-50783875D01*
X220917000Y-51613875D02*
X220917000Y-50963875D01*
X220647000Y-51793875D02*
X220737000Y-51793875D01*
X220467000Y-50963875D02*
X220467000Y-51613875D01*
X220467000Y-50603875D02*
X220467000Y-50963875D01*
X220017000Y-50603875D02*
X220017000Y-49953875D01*
X220197000Y-49773875D02*
X220287000Y-49773875D01*
X220287000Y-49773875D02*
G75*
G02*
X220467025Y-49953875I0J-180025D01*
G01*
X220917000Y-50963875D02*
G75*
G02*
X221097000Y-50783900I180000J-25D01*
G01*
X220737000Y-51793875D02*
G75*
G03*
X220916975Y-51613875I0J179975D01*
G01*
X220467000Y-51613875D02*
G75*
G03*
X220647000Y-51793900I180000J-25D01*
G01*
X220017000Y-49953875D02*
G75*
G02*
X220197000Y-49773900I180000J-25D01*
G01*
X219837000Y-50783875D02*
G75*
G03*
X220016975Y-50603875I0J179975D01*
G01*
X217752500Y-50959375D02*
X217662500Y-50959375D01*
X218652500Y-50959375D02*
X218562500Y-50959375D01*
X217302500Y-49209375D02*
X217212500Y-49209375D01*
X218832500Y-50139375D02*
X218832500Y-50779375D01*
X219245571Y-50192446D02*
X219012500Y-49959375D01*
X216582500Y-50779375D02*
X216582500Y-49959375D01*
X217032500Y-49959375D02*
X217032500Y-50779375D01*
X215862500Y-49959375D02*
X215265000Y-49959375D01*
X217032500Y-49389375D02*
X217032500Y-49959375D01*
X216402500Y-49209375D02*
X216312500Y-49209375D01*
X218202500Y-49209375D02*
X218112500Y-49209375D01*
X216582500Y-49779375D02*
X216582500Y-49389375D01*
X216132500Y-49389375D02*
X216132500Y-49779375D01*
X216582500Y-49959375D02*
X216582500Y-49779375D01*
X214607500Y-49318000D02*
X204203998Y-49318000D01*
X217482500Y-50779375D02*
X217482500Y-49959375D01*
X217932500Y-49389375D02*
X217932500Y-49959375D01*
X218382500Y-49959375D02*
X218382500Y-49389375D01*
X215952500Y-49959375D02*
X215862500Y-49959375D01*
X216852500Y-50959375D02*
X216762500Y-50959375D01*
X217932500Y-49959375D02*
X217932500Y-50779375D01*
X218382500Y-50779375D02*
X218382500Y-50139375D01*
X218382500Y-50139375D02*
X218382500Y-49959375D01*
X217482500Y-49959375D02*
X217482500Y-49389375D01*
X215265000Y-49975500D02*
X214607500Y-49318000D01*
X217482500Y-49389375D02*
G75*
G03*
X217302500Y-49209400I-180000J-25D01*
G01*
X218562500Y-50959375D02*
G75*
G02*
X218382525Y-50779375I0J179975D01*
G01*
X217932500Y-50779375D02*
G75*
G02*
X217752500Y-50959400I-180000J-25D01*
G01*
X216582500Y-49389375D02*
G75*
G03*
X216402500Y-49209400I-180000J-25D01*
G01*
X216132500Y-49779375D02*
G75*
G02*
X215952500Y-49959400I-180000J-25D01*
G01*
X216312500Y-49209375D02*
G75*
G03*
X216132475Y-49389375I0J-180025D01*
G01*
X218832500Y-50779375D02*
G75*
G02*
X218652500Y-50959400I-180000J-25D01*
G01*
X219012500Y-49959375D02*
G75*
G03*
X218832475Y-50139375I0J-180025D01*
G01*
X218382500Y-49389375D02*
G75*
G03*
X218202500Y-49209400I-180000J-25D01*
G01*
X218112500Y-49209375D02*
G75*
G03*
X217932475Y-49389375I0J-180025D01*
G01*
X217032500Y-50779375D02*
G75*
G02*
X216852500Y-50959400I-180000J-25D01*
G01*
X217662500Y-50959375D02*
G75*
G02*
X217482525Y-50779375I0J179975D01*
G01*
X216762500Y-50959375D02*
G75*
G02*
X216582525Y-50779375I0J179975D01*
G01*
X217212500Y-49209375D02*
G75*
G03*
X217032475Y-49389375I0J-180025D01*
G01*
%TO.N,/ESP32-C3-02/SCL*%
X204724000Y-48768000D02*
X225425000Y-48768000D01*
%TD*%
M02*
