%TF.GenerationSoftware,KiCad,Pcbnew,9.0.4*%
%TF.CreationDate,2025-12-21T22:50:02+05:30*%
%TF.ProjectId,ESP-32 C3 demo project004,4553502d-3332-4204-9333-2064656d6f20,rev?*%
%TF.SameCoordinates,Original*%
%TF.FileFunction,Copper,L1,Top*%
%TF.FilePolarity,Positive*%
%FSLAX46Y46*%
G04 Gerber Fmt 4.6, Leading zero omitted, Abs format (unit mm)*
G04 Created by KiCad (PCBNEW 9.0.4) date 2025-12-21 22:50:02*
%MOMM*%
%LPD*%
G01*
G04 APERTURE LIST*
G04 Aperture macros list*
%AMRoundRect*
0 Rectangle with rounded corners*
0 $1 Rounding radius*
0 $2 $3 $4 $5 $6 $7 $8 $9 X,Y pos of 4 corners*
0 Add a 4 corners polygon primitive as box body*
4,1,4,$2,$3,$4,$5,$6,$7,$8,$9,$2,$3,0*
0 Add four circle primitives for the rounded corners*
1,1,$1+$1,$2,$3*
1,1,$1+$1,$4,$5*
1,1,$1+$1,$6,$7*
1,1,$1+$1,$8,$9*
0 Add four rect primitives between the rounded corners*
20,1,$1+$1,$2,$3,$4,$5,0*
20,1,$1+$1,$4,$5,$6,$7,0*
20,1,$1+$1,$6,$7,$8,$9,0*
20,1,$1+$1,$8,$9,$2,$3,0*%
G04 Aperture macros list end*
%TA.AperFunction,ComponentPad*%
%ADD10O,1.050000X2.100000*%
%TD*%
%TA.AperFunction,SMDPad,CuDef*%
%ADD11R,0.200000X1.000000*%
%TD*%
%TA.AperFunction,ComponentPad*%
%ADD12C,0.650000*%
%TD*%
%TA.AperFunction,SMDPad,CuDef*%
%ADD13R,0.300000X1.200000*%
%TD*%
%TA.AperFunction,SMDPad,CuDef*%
%ADD14RoundRect,0.056250X0.168750X-0.188750X0.168750X0.188750X-0.168750X0.188750X-0.168750X-0.188750X0*%
%TD*%
%TA.AperFunction,SMDPad,CuDef*%
%ADD15RoundRect,0.250000X0.450000X-0.262500X0.450000X0.262500X-0.450000X0.262500X-0.450000X-0.262500X0*%
%TD*%
%TA.AperFunction,SMDPad,CuDef*%
%ADD16RoundRect,0.250000X-0.475000X0.250000X-0.475000X-0.250000X0.475000X-0.250000X0.475000X0.250000X0*%
%TD*%
%TA.AperFunction,SMDPad,CuDef*%
%ADD17R,1.500000X0.900000*%
%TD*%
%TA.AperFunction,SMDPad,CuDef*%
%ADD18R,0.700000X0.700000*%
%TD*%
%TA.AperFunction,ComponentPad*%
%ADD19C,0.400000*%
%TD*%
%TA.AperFunction,SMDPad,CuDef*%
%ADD20C,1.000000*%
%TD*%
%TA.AperFunction,SMDPad,CuDef*%
%ADD21R,1.230000X1.800000*%
%TD*%
%TA.AperFunction,SMDPad,CuDef*%
%ADD22RoundRect,0.250000X-0.450000X0.262500X-0.450000X-0.262500X0.450000X-0.262500X0.450000X0.262500X0*%
%TD*%
%TA.AperFunction,SMDPad,CuDef*%
%ADD23RoundRect,0.250000X-0.262500X-0.450000X0.262500X-0.450000X0.262500X0.450000X-0.262500X0.450000X0*%
%TD*%
%TA.AperFunction,SMDPad,CuDef*%
%ADD24RoundRect,0.250000X0.262500X0.450000X-0.262500X0.450000X-0.262500X-0.450000X0.262500X-0.450000X0*%
%TD*%
%TA.AperFunction,SMDPad,CuDef*%
%ADD25RoundRect,0.150000X0.150000X-0.587500X0.150000X0.587500X-0.150000X0.587500X-0.150000X-0.587500X0*%
%TD*%
%TA.AperFunction,SMDPad,CuDef*%
%ADD26O,1.600000X0.600000*%
%TD*%
%TA.AperFunction,SMDPad,CuDef*%
%ADD27R,1.400000X1.000000*%
%TD*%
%TA.AperFunction,SMDPad,CuDef*%
%ADD28RoundRect,0.250000X0.475000X-0.250000X0.475000X0.250000X-0.475000X0.250000X-0.475000X-0.250000X0*%
%TD*%
%TA.AperFunction,SMDPad,CuDef*%
%ADD29RoundRect,0.100000X0.100000X-0.495000X0.100000X0.495000X-0.100000X0.495000X-0.100000X-0.495000X0*%
%TD*%
%TA.AperFunction,SMDPad,CuDef*%
%ADD30RoundRect,0.250000X-0.250000X-0.475000X0.250000X-0.475000X0.250000X0.475000X-0.250000X0.475000X0*%
%TD*%
%TA.AperFunction,SMDPad,CuDef*%
%ADD31R,1.000000X1.400000*%
%TD*%
%TA.AperFunction,SMDPad,CuDef*%
%ADD32RoundRect,0.065000X0.065000X-0.355000X0.065000X0.355000X-0.065000X0.355000X-0.065000X-0.355000X0*%
%TD*%
%TA.AperFunction,SMDPad,CuDef*%
%ADD33RoundRect,0.065000X0.355000X-0.065000X0.355000X0.065000X-0.355000X0.065000X-0.355000X-0.065000X0*%
%TD*%
%TA.AperFunction,SMDPad,CuDef*%
%ADD34R,2.700000X2.700000*%
%TD*%
%TA.AperFunction,SMDPad,CuDef*%
%ADD35RoundRect,0.150000X-0.150000X0.512500X-0.150000X-0.512500X0.150000X-0.512500X0.150000X0.512500X0*%
%TD*%
%TA.AperFunction,SMDPad,CuDef*%
%ADD36RoundRect,0.250000X0.250000X0.475000X-0.250000X0.475000X-0.250000X-0.475000X0.250000X-0.475000X0*%
%TD*%
%TA.AperFunction,SMDPad,CuDef*%
%ADD37R,1.000000X5.500000*%
%TD*%
%TA.AperFunction,SMDPad,CuDef*%
%ADD38R,1.600000X3.000000*%
%TD*%
%TA.AperFunction,ComponentPad*%
%ADD39C,1.208000*%
%TD*%
%TA.AperFunction,SMDPad,CuDef*%
%ADD40R,0.550000X0.570000*%
%TD*%
%TA.AperFunction,SMDPad,CuDef*%
%ADD41R,1.800000X1.230000*%
%TD*%
%TA.AperFunction,SMDPad,CuDef*%
%ADD42R,1.100000X0.800000*%
%TD*%
%TA.AperFunction,SMDPad,CuDef*%
%ADD43R,1.100000X1.000000*%
%TD*%
%TA.AperFunction,ComponentPad*%
%ADD44R,1.700000X1.700000*%
%TD*%
%TA.AperFunction,ComponentPad*%
%ADD45C,1.700000*%
%TD*%
%TA.AperFunction,SMDPad,CuDef*%
%ADD46RoundRect,0.065000X0.355000X0.065000X-0.355000X0.065000X-0.355000X-0.065000X0.355000X-0.065000X0*%
%TD*%
%TA.AperFunction,SMDPad,CuDef*%
%ADD47RoundRect,0.065000X0.065000X0.355000X-0.065000X0.355000X-0.065000X-0.355000X0.065000X-0.355000X0*%
%TD*%
%TA.AperFunction,SMDPad,CuDef*%
%ADD48R,0.910000X2.810000*%
%TD*%
%TA.AperFunction,SMDPad,CuDef*%
%ADD49R,0.950000X2.150000*%
%TD*%
%TA.AperFunction,SMDPad,CuDef*%
%ADD50R,3.250000X2.150000*%
%TD*%
%TA.AperFunction,SMDPad,CuDef*%
%ADD51R,1.000000X1.500000*%
%TD*%
%TA.AperFunction,SMDPad,CuDef*%
%ADD52R,0.700000X1.500000*%
%TD*%
%TA.AperFunction,SMDPad,CuDef*%
%ADD53R,1.500000X2.800000*%
%TD*%
%TA.AperFunction,ViaPad*%
%ADD54C,0.450000*%
%TD*%
%TA.AperFunction,ViaPad*%
%ADD55C,0.500000*%
%TD*%
%TA.AperFunction,Conductor*%
%ADD56C,0.300000*%
%TD*%
%TA.AperFunction,Conductor*%
%ADD57C,0.500000*%
%TD*%
%TA.AperFunction,Conductor*%
%ADD58C,0.800000*%
%TD*%
%TA.AperFunction,Conductor*%
%ADD59C,0.250000*%
%TD*%
%TA.AperFunction,Conductor*%
%ADD60C,0.200000*%
%TD*%
%TA.AperFunction,Conductor*%
%ADD61C,0.600000*%
%TD*%
G04 APERTURE END LIST*
D10*
%TO.P,J1,S4,GND/SHIELD*%
%TO.N,GND*%
X175974000Y-96012000D03*
%TO.P,J1,S3,GND/SHIELD*%
X167434000Y-96012000D03*
%TO.P,J1,S2,GND/SHIELD*%
X175974000Y-91282000D03*
%TO.P,J1,S1,GND/SHIELD*%
X167434000Y-91282000D03*
D11*
%TO.P,J1,G4,GND/SHIELD*%
X171704000Y-96562000D03*
%TO.P,J1,G3,GND/SHIELD*%
X171704000Y-93462000D03*
D12*
%TO.P,J1,G2,GND/SHIELD*%
X169704000Y-90132000D03*
%TO.P,J1,G1,GND/SHIELD*%
X173704000Y-90132000D03*
%TO.P,J1,B12,GNDB2*%
X168904000Y-90132000D03*
%TO.P,J1,B11,SSRXP1*%
%TO.N,unconnected-(J1-SSRXP1-PadB11)*%
X169304000Y-90842000D03*
%TO.P,J1,B10,SSRXN1*%
%TO.N,unconnected-(J1-SSRXN1-PadB10)*%
X170104000Y-90842000D03*
%TO.P,J1,B9,VBUSB2*%
%TO.N,/VBUS*%
X170504000Y-90132000D03*
%TO.P,J1,B8,SBU2*%
%TO.N,unconnected-(J1-SBU2-PadB8)*%
X170904000Y-90842000D03*
%TO.P,J1,B7,DN2*%
%TO.N,/USB_DN*%
X171304000Y-90132000D03*
%TO.P,J1,B6,DP2*%
%TO.N,/USB_DP*%
X172104000Y-90132000D03*
%TO.P,J1,B5,CC2*%
%TO.N,Net-(J1-CC2)*%
X172504000Y-90842000D03*
%TO.P,J1,B4,VBUSB1*%
%TO.N,/VBUS*%
X172904000Y-90132000D03*
%TO.P,J1,B3,SSTXN2*%
%TO.N,unconnected-(J1-SSTXN2-PadB3)*%
X173304000Y-90842000D03*
%TO.P,J1,B2,SSTXP2*%
%TO.N,unconnected-(J1-SSTXP2-PadB2)*%
X174104000Y-90842000D03*
%TO.P,J1,B1,GNDB1*%
%TO.N,GND*%
X174504000Y-90132000D03*
D13*
%TO.P,J1,A12,GNDA2*%
X174454000Y-88882000D03*
%TO.P,J1,A11,SSRXP2*%
%TO.N,unconnected-(J1-SSRXP2-PadA11)*%
X173954000Y-88882000D03*
%TO.P,J1,A10,SSRXN2*%
%TO.N,unconnected-(J1-SSRXN2-PadA10)*%
X173454000Y-88882000D03*
%TO.P,J1,A9,VBUSA2*%
%TO.N,/VBUS*%
X172954000Y-88882000D03*
%TO.P,J1,A8,SBU1*%
%TO.N,unconnected-(J1-SBU1-PadA8)*%
X172454000Y-88882000D03*
%TO.P,J1,A7,DN1*%
%TO.N,/USB_DN*%
X171954000Y-88882000D03*
%TO.P,J1,A6,DP1*%
%TO.N,/USB_DP*%
X171454000Y-88882000D03*
%TO.P,J1,A5,CC1*%
%TO.N,Net-(J1-CC1)*%
X170954000Y-88882000D03*
%TO.P,J1,A4,VBUSA1*%
%TO.N,/VBUS*%
X170454000Y-88882000D03*
%TO.P,J1,A3,SSTXN1*%
%TO.N,unconnected-(J1-SSTXN1-PadA3)*%
X169954000Y-88882000D03*
%TO.P,J1,A2,SSTXP1*%
%TO.N,unconnected-(J1-SSTXP1-PadA2)*%
X169454000Y-88882000D03*
%TO.P,J1,A1,GNDA1*%
%TO.N,GND*%
X168954000Y-88882000D03*
%TD*%
D14*
%TO.P,U2,1,GND*%
%TO.N,GND*%
X189517000Y-45836000D03*
%TO.P,U2,2,CSB*%
%TO.N,+3.3V*%
X190257000Y-45856000D03*
%TO.P,U2,3,SDI*%
%TO.N,/ESP32-C3-02/SDA*%
X190987000Y-45856000D03*
%TO.P,U2,4,SCK*%
%TO.N,/ESP32-C3-02/SCL*%
X191727000Y-45846000D03*
%TO.P,U2,5,SDO*%
%TO.N,GND*%
X191727000Y-47616000D03*
%TO.P,U2,6,VDDIO*%
%TO.N,+3.3V*%
X191007000Y-47626000D03*
%TO.P,U2,7,GND*%
%TO.N,GND*%
X190267000Y-47616000D03*
%TO.P,U2,8,VDD*%
%TO.N,+3.3V*%
X189527000Y-47616000D03*
%TD*%
D15*
%TO.P,R20,2*%
%TO.N,Net-(U3-IO6)*%
X207595500Y-56914000D03*
%TO.P,R20,1*%
%TO.N,/ESP32-C3-02/SCLK*%
X207595500Y-58739000D03*
%TD*%
D16*
%TO.P,C8,2*%
%TO.N,GND*%
X210980000Y-50840500D03*
%TO.P,C8,1*%
%TO.N,+3.3V*%
X210980000Y-48940500D03*
%TD*%
D17*
%TO.P,U3,1,3V3*%
%TO.N,+3.3V*%
X213050000Y-48890500D03*
%TO.P,U3,2,EN*%
%TO.N,/ESP32-C3-02/EN*%
X213050000Y-50390500D03*
%TO.P,U3,3,IO4*%
%TO.N,/ESP32-C3-02/SDA*%
X213050000Y-51890500D03*
%TO.P,U3,4,IO5*%
%TO.N,/ESP32-C3-02/MIC_OUT*%
X213050000Y-53390500D03*
%TO.P,U3,5,IO6*%
%TO.N,Net-(U3-IO6)*%
X213050000Y-54890500D03*
%TO.P,U3,6,IO7*%
%TO.N,Net-(U3-IO7)*%
X213050000Y-56390500D03*
%TO.P,U3,7,IO8*%
%TO.N,/ESP32-C3-02/GPIO8*%
X213050000Y-57890500D03*
%TO.P,U3,8,IO9*%
%TO.N,/ESP32-C3-02/BOOT*%
X213050000Y-59390500D03*
%TO.P,U3,9,GND*%
%TO.N,GND*%
X213050000Y-60890500D03*
%TO.P,U3,10,IO10*%
%TO.N,/ESP32-C3-02/CS*%
X230550000Y-60890500D03*
%TO.P,U3,11,RXD*%
%TO.N,/ESP32-C3-02/TX_RX*%
X230550000Y-59390500D03*
%TO.P,U3,12,TXD*%
%TO.N,/ESP32-C3-02/RX_TX*%
X230550000Y-57890500D03*
%TO.P,U3,13,IO18*%
%TO.N,/ESP32-C3-02/GPIO18*%
X230550000Y-56390500D03*
%TO.P,U3,14,IO19*%
%TO.N,/ESP32-C3-02/GPIO19*%
X230550000Y-54890500D03*
%TO.P,U3,15,IO3*%
%TO.N,/ESP32-C3-02/SCL*%
X230550000Y-53390500D03*
%TO.P,U3,16,IO2*%
%TO.N,/ESP32-C3-02/MISO_DO*%
X230550000Y-51890500D03*
%TO.P,U3,17,IO1*%
%TO.N,/ESP32-C3-02/PHOTO_C*%
X230550000Y-50390500D03*
%TO.P,U3,18,IO0*%
%TO.N,/ESP32-C3-02/CS_SD*%
X230550000Y-48890500D03*
D18*
%TO.P,U3,19,GND*%
%TO.N,GND*%
X221660000Y-53990500D03*
%TO.P,U3,20,GND*%
X222760000Y-53990500D03*
%TO.P,U3,21,GND*%
X223860000Y-53990500D03*
%TO.P,U3,22,GND*%
X221660000Y-55090500D03*
%TO.P,U3,23,GND*%
X222760000Y-55090500D03*
%TO.P,U3,24,GND*%
X223860000Y-55090500D03*
%TO.P,U3,25,GND*%
X221660000Y-56190500D03*
%TO.P,U3,26,GND*%
X222760000Y-56190500D03*
%TO.P,U3,27,GND*%
X223860000Y-56190500D03*
D19*
%TO.P,U3,28,GND*%
X222210000Y-53990500D03*
%TO.P,U3,29,GND*%
X223310000Y-53990500D03*
%TO.P,U3,30,GND*%
X221660000Y-54540500D03*
%TO.P,U3,31,GND*%
X222760000Y-54540500D03*
%TO.P,U3,32,GND*%
X223860000Y-54540500D03*
%TO.P,U3,33,GND*%
X222210000Y-55090500D03*
%TO.P,U3,34,GND*%
X223310000Y-55090500D03*
%TO.P,U3,35,GND*%
X221660000Y-55640500D03*
%TO.P,U3,36,GND*%
X222760000Y-55640500D03*
%TO.P,U3,37,GND*%
X223860000Y-55640500D03*
%TO.P,U3,38,GND*%
X222210000Y-56190500D03*
%TO.P,U3,39,GND*%
X223310000Y-56190500D03*
%TD*%
D20*
%TO.P,TP1,1,1*%
%TO.N,/ESP32-C3-02/MOSI_DI*%
X201041000Y-72263000D03*
%TD*%
%TO.P,TP3,1,1*%
%TO.N,/ESP32-C3-02/SCLK*%
X203327000Y-60706000D03*
%TD*%
%TO.P,TP5,1,1*%
%TO.N,/ESP32-C3-02/CS*%
X191897000Y-56007000D03*
%TD*%
D21*
%TO.P,C7,2*%
%TO.N,GND*%
X208060000Y-52310500D03*
%TO.P,C7,1*%
%TO.N,+3.3V*%
X208060000Y-49690500D03*
%TD*%
D20*
%TO.P,TP4,1,1*%
%TO.N,/ESP32-C3-02/CS_SD*%
X226695000Y-68453000D03*
%TD*%
D22*
%TO.P,R15,2*%
%TO.N,/ESP32-C3-02/MOSI_DI*%
X209795500Y-58739000D03*
%TO.P,R15,1*%
%TO.N,Net-(U3-IO7)*%
X209795500Y-56914000D03*
%TD*%
D20*
%TO.P,TP2,1,1*%
%TO.N,/ESP32-C3-02/MISO_DO*%
X198755000Y-72263000D03*
%TD*%
D22*
%TO.P,R3,1*%
%TO.N,Net-(J1-CC2)*%
X164973000Y-94210500D03*
%TO.P,R3,2*%
%TO.N,GND*%
X164973000Y-96035500D03*
%TD*%
D23*
%TO.P,R34,1*%
%TO.N,/ESP32-C3-02/RTS*%
X195627500Y-92350000D03*
%TO.P,R34,2*%
%TO.N,Net-(Q3-B)*%
X197452500Y-92350000D03*
%TD*%
D21*
%TO.P,C4,1*%
%TO.N,+3.3V*%
X150400000Y-69100000D03*
%TO.P,C4,2*%
%TO.N,GND*%
X150400000Y-71720000D03*
%TD*%
D15*
%TO.P,R24,1*%
%TO.N,+3.3V*%
X193675000Y-47648500D03*
%TO.P,R24,2*%
%TO.N,/ESP32-C3-02/SCL*%
X193675000Y-45823500D03*
%TD*%
D24*
%TO.P,R16,1*%
%TO.N,Net-(J3-DAT0)*%
X199540500Y-65913000D03*
%TO.P,R16,2*%
%TO.N,/ESP32-C3-02/MISO_DO*%
X197715500Y-65913000D03*
%TD*%
D25*
%TO.P,Q2,1,B*%
%TO.N,Net-(Q2-B)*%
X187130000Y-89997500D03*
%TO.P,Q2,2,E*%
%TO.N,/ESP32-C3-02/RTS*%
X189030000Y-89997500D03*
%TO.P,Q2,3,C*%
%TO.N,/ESP32-C3-02/EN*%
X188080000Y-88122500D03*
%TD*%
D24*
%TO.P,R29,1*%
%TO.N,GND*%
X165082500Y-56810000D03*
%TO.P,R29,2*%
%TO.N,Net-(U7-IN+)*%
X163257500Y-56810000D03*
%TD*%
D26*
%TO.P,U6,8,VCC*%
%TO.N,+3.3V*%
X197783000Y-59436000D03*
%TO.P,U6,7,~{HOLD}/~{RESET}(IO3)*%
X197783000Y-60706000D03*
%TO.P,U6,6,CLK*%
%TO.N,/ESP32-C3-02/SCLK*%
X197783000Y-61976000D03*
%TO.P,U6,5,DI(IO0)*%
%TO.N,/ESP32-C3-02/MOSI_DI*%
X197783000Y-63246000D03*
%TO.P,U6,4,GND*%
%TO.N,GND*%
X190583000Y-63246000D03*
%TO.P,U6,3,~{WP}(IO2)*%
%TO.N,+3.3V*%
X190583000Y-61976000D03*
%TO.P,U6,2,DO(IO1)*%
%TO.N,Net-(U6-DO(IO1))*%
X190583000Y-60706000D03*
%TO.P,U6,1,~{CS}*%
%TO.N,/ESP32-C3-02/CS*%
X190583000Y-59436000D03*
%TD*%
D15*
%TO.P,R14,1*%
%TO.N,Net-(U4-~{TXT}{slash}GPIO.2)*%
X166770000Y-75593500D03*
%TO.P,R14,2*%
%TO.N,Net-(LED5-K)*%
X166770000Y-73768500D03*
%TD*%
D27*
%TO.P,LED2,1,K*%
%TO.N,Net-(LED2-K)*%
X146920000Y-82520000D03*
%TO.P,LED2,2,A*%
%TO.N,/+5V_USB*%
X146920000Y-80720000D03*
%TD*%
D23*
%TO.P,R12,1*%
%TO.N,/VBUS*%
X188607500Y-78465000D03*
%TO.P,R12,2*%
%TO.N,Net-(U4-VBUS)*%
X190432500Y-78465000D03*
%TD*%
D27*
%TO.P,LED1,1,K*%
%TO.N,Net-(LED1-K)*%
X143570000Y-82520000D03*
%TO.P,LED1,2,A*%
%TO.N,/+5V_USB*%
X143570000Y-80720000D03*
%TD*%
D23*
%TO.P,R23,1*%
%TO.N,+3.3V*%
X177717500Y-59930000D03*
%TO.P,R23,2*%
%TO.N,/ESP32-C3-02/PHOTO_C*%
X179542500Y-59930000D03*
%TD*%
D21*
%TO.P,C12,1*%
%TO.N,+3.3V*%
X217900000Y-68650500D03*
%TO.P,C12,2*%
%TO.N,GND*%
X217900000Y-66030500D03*
%TD*%
D28*
%TO.P,C13,1*%
%TO.N,+3.3V*%
X212830000Y-68320500D03*
%TO.P,C13,2*%
%TO.N,GND*%
X212830000Y-66420500D03*
%TD*%
D27*
%TO.P,LED6,1,K*%
%TO.N,Net-(LED6-K)*%
X163830000Y-71131000D03*
%TO.P,LED6,2,A*%
%TO.N,+3.3V*%
X163830000Y-69331000D03*
%TD*%
D28*
%TO.P,C20,1*%
%TO.N,Net-(U7-IN-)*%
X174270000Y-56430000D03*
%TO.P,C20,2*%
%TO.N,/ESP32-C3-02/MIC_OUT*%
X174270000Y-54530000D03*
%TD*%
D29*
%TO.P,U7,1,IN+*%
%TO.N,Net-(U7-IN+)*%
X167340000Y-56580000D03*
%TO.P,U7,2,GND*%
%TO.N,Net-(U7-GND)*%
X167990000Y-56580000D03*
%TO.P,U7,3,IN-*%
%TO.N,Net-(U7-IN-)*%
X168640000Y-56580000D03*
%TO.P,U7,4,OUT*%
%TO.N,/ESP32-C3-02/MIC_OUT*%
X168640000Y-54660000D03*
%TO.P,U7,5,VCC*%
%TO.N,+3.3V*%
X167340000Y-54660000D03*
%TD*%
D27*
%TO.P,LED3,1,K*%
%TO.N,Net-(LED3-K)*%
X150270000Y-82520000D03*
%TO.P,LED3,2,A*%
%TO.N,/+5V_USB*%
X150270000Y-80720000D03*
%TD*%
D15*
%TO.P,R2,1*%
%TO.N,Net-(U1-THERM)*%
X160100000Y-88462500D03*
%TO.P,R2,2*%
%TO.N,GND*%
X160100000Y-86637500D03*
%TD*%
D30*
%TO.P,C6,1*%
%TO.N,/+5V_USB*%
X155590000Y-97720000D03*
%TO.P,C6,2*%
%TO.N,GND*%
X157490000Y-97720000D03*
%TD*%
D24*
%TO.P,R10,1*%
%TO.N,GND*%
X150842500Y-63600000D03*
%TO.P,R10,2*%
%TO.N,/PWD_LED*%
X149017500Y-63600000D03*
%TD*%
D31*
%TO.P,LED4,1,K*%
%TO.N,/PWD_LED*%
X146760000Y-63800000D03*
%TO.P,LED4,2,A*%
%TO.N,+3.3V*%
X144960000Y-63800000D03*
%TD*%
D32*
%TO.P,U4,1,RS485/GPIO.1*%
%TO.N,unconnected-(U4-RS485{slash}GPIO.1-Pad1)*%
X169942000Y-76503000D03*
%TO.P,U4,2,CLK/GPIO.0*%
%TO.N,unconnected-(U4-CLK{slash}GPIO.0-Pad2)*%
X170442000Y-76503000D03*
%TO.P,U4,3,GND*%
%TO.N,GND*%
X170942000Y-76503000D03*
%TO.P,U4,4,D+*%
%TO.N,/ESP32-C3-02/USB_D+*%
X171442000Y-76503000D03*
%TO.P,U4,5,D-*%
%TO.N,/ESP32-C3-02/USB_D-*%
X171942000Y-76503000D03*
D33*
%TO.P,U4,6,VDD*%
%TO.N,+3.3V*%
X172877000Y-75568000D03*
%TO.P,U4,7,VREGIN*%
X172877000Y-75068000D03*
%TO.P,U4,8,VBUS*%
%TO.N,Net-(U4-VBUS)*%
X172877000Y-74568000D03*
%TO.P,U4,9,~{RST}*%
%TO.N,Net-(U4-~{RST})*%
X172877000Y-74068000D03*
%TO.P,U4,10,NC*%
%TO.N,unconnected-(U4-NC-Pad10)*%
X172877000Y-73568000D03*
D32*
%TO.P,U4,11,~{SUSPEND}*%
%TO.N,unconnected-(U4-~{SUSPEND}-Pad11)*%
X171942000Y-72633000D03*
%TO.P,U4,12,GND*%
%TO.N,GND*%
X171442000Y-72633000D03*
%TO.P,U4,13,~{WAKEUP}*%
%TO.N,unconnected-(U4-~{WAKEUP}-Pad13)*%
X170942000Y-72633000D03*
%TO.P,U4,14,SUSPEND*%
%TO.N,unconnected-(U4-SUSPEND-Pad14)*%
X170442000Y-72633000D03*
%TO.P,U4,15,~{CTS}*%
%TO.N,unconnected-(U4-~{CTS}-Pad15)*%
X169942000Y-72633000D03*
D33*
%TO.P,U4,16,~{RTS}*%
%TO.N,/ESP32-C3-02/RTS*%
X169007000Y-73568000D03*
%TO.P,U4,17,RXD*%
%TO.N,/ESP32-C3-02/RX_TX*%
X169007000Y-74068000D03*
%TO.P,U4,18,TXD*%
%TO.N,/ESP32-C3-02/TX_RX*%
X169007000Y-74568000D03*
%TO.P,U4,19,~{RXT}/GPIO.3*%
%TO.N,Net-(U4-~{RXT}{slash}GPIO.3)*%
X169007000Y-75068000D03*
%TO.P,U4,20,~{TXT}/GPIO.2*%
%TO.N,Net-(U4-~{TXT}{slash}GPIO.2)*%
X169007000Y-75568000D03*
D34*
%TO.P,U4,21,GND*%
%TO.N,GND*%
X170942000Y-74568000D03*
%TD*%
D22*
%TO.P,R4,1*%
%TO.N,Net-(J1-CC1)*%
X164973000Y-90146500D03*
%TO.P,R4,2*%
%TO.N,GND*%
X164973000Y-91971500D03*
%TD*%
%TO.P,R32,1*%
%TO.N,+3.3V*%
X181240000Y-92467500D03*
%TO.P,R32,2*%
%TO.N,/ESP32-C3-02/EN*%
X181240000Y-94292500D03*
%TD*%
D35*
%TO.P,U5,1,I/O1*%
%TO.N,/ESP32-C3-02/USB_D-*%
X172654000Y-80523500D03*
%TO.P,U5,2,GND*%
%TO.N,GND*%
X171704000Y-80523500D03*
%TO.P,U5,3,I/O2*%
%TO.N,/ESP32-C3-02/USB_D+*%
X170754000Y-80523500D03*
%TO.P,U5,4,I/O2*%
%TO.N,/USB_DP*%
X170754000Y-82798500D03*
%TO.P,U5,5,VBUS*%
%TO.N,/VBUS*%
X171704000Y-82798500D03*
%TO.P,U5,6,I/O1*%
%TO.N,/USB_DN*%
X172654000Y-82798500D03*
%TD*%
D28*
%TO.P,C11,1*%
%TO.N,Net-(U4-VBUS)*%
X189650000Y-73895000D03*
%TO.P,C11,2*%
%TO.N,GND*%
X189650000Y-71995000D03*
%TD*%
D36*
%TO.P,C2,1*%
%TO.N,+5V*%
X157320000Y-77640000D03*
%TO.P,C2,2*%
%TO.N,GND*%
X155420000Y-77640000D03*
%TD*%
D23*
%TO.P,R13,1*%
%TO.N,Net-(U4-VBUS)*%
X188607500Y-76285000D03*
%TO.P,R13,2*%
%TO.N,GND*%
X190432500Y-76285000D03*
%TD*%
D27*
%TO.P,LED5,1,K*%
%TO.N,Net-(LED5-K)*%
X166680000Y-71171000D03*
%TO.P,LED5,2,A*%
%TO.N,+3.3V*%
X166680000Y-69371000D03*
%TD*%
D23*
%TO.P,R27,1*%
%TO.N,Net-(U7-IN+)*%
X163017500Y-59060000D03*
%TO.P,R27,2*%
%TO.N,+3.3V*%
X164842500Y-59060000D03*
%TD*%
D37*
%TO.P,J2,1,1*%
%TO.N,GND*%
X146640000Y-97530000D03*
%TO.P,J2,2,2*%
%TO.N,/VBAT*%
X148640000Y-97530000D03*
D38*
%TO.P,J2,S1*%
%TO.N,N/C*%
X144240000Y-95280000D03*
%TO.P,J2,S2*%
X151040000Y-95280000D03*
%TD*%
D15*
%TO.P,R31,1*%
%TO.N,Net-(U7-IN-)*%
X171730000Y-56392500D03*
%TO.P,R31,2*%
%TO.N,/ESP32-C3-02/MIC_OUT*%
X171730000Y-54567500D03*
%TD*%
D39*
%TO.P,MK1,GND*%
%TO.N,GND*%
X152638000Y-54549000D03*
%TO.P,MK1,OUT*%
%TO.N,Net-(C17-Pad2)*%
X152638000Y-56449000D03*
%TD*%
D23*
%TO.P,R28,1*%
%TO.N,Net-(C17-Pad2)*%
X158107500Y-56390000D03*
%TO.P,R28,2*%
%TO.N,Net-(C16-Pad2)*%
X159932500Y-56390000D03*
%TD*%
D40*
%TO.P,S1,1*%
%TO.N,GND*%
X195382500Y-97340000D03*
%TO.P,S1,2*%
X197932500Y-97340000D03*
%TO.P,S1,3*%
%TO.N,/ESP32-C3-02/BOOT*%
X195382500Y-98500000D03*
%TO.P,S1,4*%
X197932500Y-98500000D03*
%TD*%
D24*
%TO.P,R19,1*%
%TO.N,/ESP32-C3-02/CS_SD*%
X223402500Y-68600500D03*
%TO.P,R19,2*%
%TO.N,+3.3V*%
X221577500Y-68600500D03*
%TD*%
D41*
%TO.P,C3,1*%
%TO.N,+5V*%
X157610000Y-73640000D03*
%TO.P,C3,2*%
%TO.N,GND*%
X154990000Y-73640000D03*
%TD*%
D40*
%TO.P,S2,1*%
%TO.N,GND*%
X186815000Y-97340000D03*
%TO.P,S2,2*%
X189365000Y-97340000D03*
%TO.P,S2,3*%
%TO.N,/ESP32-C3-02/EN*%
X186815000Y-98500000D03*
%TO.P,S2,4*%
X189365000Y-98500000D03*
%TD*%
D15*
%TO.P,R8,1*%
%TO.N,/CHARGED*%
X146890000Y-88392500D03*
%TO.P,R8,2*%
%TO.N,Net-(LED2-K)*%
X146890000Y-86567500D03*
%TD*%
%TO.P,R9,1*%
%TO.N,/CHARGING*%
X143290000Y-88322500D03*
%TO.P,R9,2*%
%TO.N,Net-(LED1-K)*%
X143290000Y-86497500D03*
%TD*%
D42*
%TO.P,Q1,1*%
%TO.N,GND*%
X177545000Y-62460000D03*
%TO.P,Q1,2*%
%TO.N,N/C*%
X177545000Y-63560000D03*
D43*
%TO.P,Q1,3*%
%TO.N,/ESP32-C3-02/PHOTO_C*%
X181055000Y-63010000D03*
%TD*%
D23*
%TO.P,R30,1*%
%TO.N,Net-(C19-Pad2)*%
X163217500Y-54560000D03*
%TO.P,R30,2*%
%TO.N,Net-(U7-IN-)*%
X165042500Y-54560000D03*
%TD*%
D16*
%TO.P,C5,1*%
%TO.N,+3.3V*%
X147480000Y-69370000D03*
%TO.P,C5,2*%
%TO.N,GND*%
X147480000Y-71270000D03*
%TD*%
D30*
%TO.P,C16,1*%
%TO.N,GND*%
X158050000Y-53860000D03*
%TO.P,C16,2*%
%TO.N,Net-(C16-Pad2)*%
X159950000Y-53860000D03*
%TD*%
D24*
%TO.P,R33,1*%
%TO.N,/ESP32-C3-02/DTR*%
X188942500Y-92530000D03*
%TO.P,R33,2*%
%TO.N,Net-(Q2-B)*%
X187117500Y-92530000D03*
%TD*%
D36*
%TO.P,C19,1*%
%TO.N,GND*%
X165080000Y-52280000D03*
%TO.P,C19,2*%
%TO.N,Net-(C19-Pad2)*%
X163180000Y-52280000D03*
%TD*%
D44*
%TO.P,J4,1,Pin_1*%
%TO.N,+3.3V*%
X181210000Y-44720000D03*
D45*
%TO.P,J4,2,Pin_2*%
%TO.N,/ESP32-C3-02/SDA*%
X178670000Y-44720000D03*
%TO.P,J4,3,Pin_3*%
%TO.N,/ESP32-C3-02/SCL*%
X176130000Y-44720000D03*
%TO.P,J4,4,Pin_4*%
%TO.N,GND*%
X173590000Y-44720000D03*
%TD*%
D15*
%TO.P,R25,1*%
%TO.N,+3.3V*%
X195961000Y-47648500D03*
%TO.P,R25,2*%
%TO.N,/ESP32-C3-02/SDA*%
X195961000Y-45823500D03*
%TD*%
D23*
%TO.P,R26,1*%
%TO.N,Net-(C16-Pad2)*%
X167147500Y-52410000D03*
%TO.P,R26,2*%
%TO.N,+3.3V*%
X168972500Y-52410000D03*
%TD*%
D46*
%TO.P,U1,1,OUT*%
%TO.N,+5V*%
X158875000Y-93920000D03*
%TO.P,U1,2,VPCC*%
%TO.N,/+5V_USB*%
X158875000Y-93420000D03*
%TO.P,U1,3,SEL*%
%TO.N,GND*%
X158875000Y-92920000D03*
%TO.P,U1,4,PROG2*%
%TO.N,/+5V_USB*%
X158875000Y-92420000D03*
%TO.P,U1,5,THERM*%
%TO.N,Net-(U1-THERM)*%
X158875000Y-91920000D03*
D47*
%TO.P,U1,6,~{PG}*%
%TO.N,/CHARGING*%
X157940000Y-90985000D03*
%TO.P,U1,7,STAT2*%
%TO.N,/CHARGING_POWER_GOOD*%
X157440000Y-90985000D03*
%TO.P,U1,8,STAT1/~{LBO}*%
%TO.N,/CHARGED*%
X156940000Y-90985000D03*
%TO.P,U1,9,~{TE}*%
%TO.N,Net-(U1-~{TE})*%
X156440000Y-90985000D03*
%TO.P,U1,10,VSS*%
%TO.N,GND*%
X155940000Y-90985000D03*
D46*
%TO.P,U1,11,VSS*%
X155005000Y-91920000D03*
%TO.P,U1,12,PROG3*%
%TO.N,Net-(U1-PROG3)*%
X155005000Y-92420000D03*
%TO.P,U1,13,PROG1*%
%TO.N,Net-(U1-PROG1)*%
X155005000Y-92920000D03*
%TO.P,U1,14,VBAT*%
%TO.N,/VBAT*%
X155005000Y-93420000D03*
%TO.P,U1,15,VBAT*%
X155005000Y-93920000D03*
D47*
%TO.P,U1,16,VBAT_SENSE*%
X155940000Y-94855000D03*
%TO.P,U1,17,CE*%
%TO.N,/+5V_USB*%
X156440000Y-94855000D03*
%TO.P,U1,18,IN*%
X156940000Y-94855000D03*
%TO.P,U1,19,IN*%
X157440000Y-94855000D03*
%TO.P,U1,20,out*%
%TO.N,+5V*%
X157940000Y-94855000D03*
D34*
%TO.P,U1,21,VSS*%
%TO.N,GND*%
X156940000Y-92920000D03*
%TD*%
D15*
%TO.P,R18,1*%
%TO.N,Net-(U4-~{RXT}{slash}GPIO.3)*%
X163920000Y-75683500D03*
%TO.P,R18,2*%
%TO.N,Net-(LED6-K)*%
X163920000Y-73858500D03*
%TD*%
D21*
%TO.P,C9,1*%
%TO.N,GND*%
X185340000Y-72705000D03*
%TO.P,C9,2*%
%TO.N,+3.3V*%
X185340000Y-75325000D03*
%TD*%
D22*
%TO.P,R11,1*%
%TO.N,+3.3V*%
X179360000Y-68992500D03*
%TO.P,R11,2*%
%TO.N,Net-(U4-~{RST})*%
X179360000Y-70817500D03*
%TD*%
D15*
%TO.P,R5,1*%
%TO.N,Net-(U1-PROG1)*%
X153030000Y-88462500D03*
%TO.P,R5,2*%
%TO.N,GND*%
X153030000Y-86637500D03*
%TD*%
D16*
%TO.P,C10,1*%
%TO.N,GND*%
X181110000Y-72885000D03*
%TO.P,C10,2*%
%TO.N,+3.3V*%
X181110000Y-74785000D03*
%TD*%
D48*
%TO.P,F1,1,1*%
%TO.N,/VBUS*%
X166497000Y-81026000D03*
%TO.P,F1,2,2*%
%TO.N,/+5V_USB*%
X163257000Y-81026000D03*
%TD*%
D15*
%TO.P,R1,1*%
%TO.N,Net-(U1-~{TE})*%
X157640000Y-88392500D03*
%TO.P,R1,2*%
%TO.N,GND*%
X157640000Y-86567500D03*
%TD*%
D36*
%TO.P,C22,1*%
%TO.N,/ESP32-C3-02/EN*%
X188910000Y-95320000D03*
%TO.P,C22,2*%
%TO.N,GND*%
X187010000Y-95320000D03*
%TD*%
D44*
%TO.P,J5,1,Pin_1*%
%TO.N,+3.3V*%
X161840000Y-44580000D03*
D45*
%TO.P,J5,2,Pin_2*%
%TO.N,/ESP32-C3-02/GPIO8*%
X159300000Y-44580000D03*
%TO.P,J5,3,Pin_3*%
%TO.N,/ESP32-C3-02/GPIO18*%
X156760000Y-44580000D03*
%TO.P,J5,4,Pin_4*%
%TO.N,/ESP32-C3-02/GPIO19*%
X154220000Y-44580000D03*
%TO.P,J5,5,Pin_5*%
%TO.N,GND*%
X151680000Y-44580000D03*
%TD*%
D16*
%TO.P,C14,1*%
%TO.N,GND*%
X187999000Y-61029000D03*
%TO.P,C14,2*%
%TO.N,+3.3V*%
X187999000Y-62929000D03*
%TD*%
D30*
%TO.P,C15,1*%
%TO.N,+3.3V*%
X190058000Y-50165000D03*
%TO.P,C15,2*%
%TO.N,GND*%
X191958000Y-50165000D03*
%TD*%
D49*
%TO.P,VR1,1,GND*%
%TO.N,GND*%
X153770000Y-69440000D03*
%TO.P,VR1,2,VOUT_2*%
%TO.N,+3.3V*%
X156070000Y-69440000D03*
%TO.P,VR1,3,VIN*%
%TO.N,+5V*%
X158370000Y-69440000D03*
D50*
%TO.P,VR1,4,VOUT_4*%
%TO.N,+3.3V*%
X156070000Y-63640000D03*
%TD*%
D36*
%TO.P,C17,1*%
%TO.N,Net-(U7-IN+)*%
X159980000Y-59000000D03*
%TO.P,C17,2*%
%TO.N,Net-(C17-Pad2)*%
X158080000Y-59000000D03*
%TD*%
D15*
%TO.P,R6,1*%
%TO.N,Net-(U1-PROG3)*%
X155370000Y-88462500D03*
%TO.P,R6,2*%
%TO.N,GND*%
X155370000Y-86637500D03*
%TD*%
D51*
%TO.P,J3,1,CD/DAT3*%
%TO.N,/ESP32-C3-02/CS_SD*%
X223545000Y-73890000D03*
%TO.P,J3,2,CMD*%
%TO.N,/ESP32-C3-02/MOSI_DI*%
X221045000Y-73890000D03*
%TO.P,J3,3,VSS1*%
%TO.N,GND*%
X218545000Y-73890000D03*
%TO.P,J3,4,VDD1*%
%TO.N,+3.3V*%
X216045000Y-73890000D03*
%TO.P,J3,5,CLK*%
%TO.N,/ESP32-C3-02/SCLK*%
X213545000Y-73890000D03*
%TO.P,J3,6,VSS2*%
%TO.N,GND*%
X211045000Y-73890000D03*
%TO.P,J3,7,DAT0*%
%TO.N,Net-(J3-DAT0)*%
X208620000Y-73890000D03*
%TO.P,J3,8,DAT1*%
%TO.N,GND*%
X206920000Y-73890000D03*
%TO.P,J3,9,DAT2*%
X226045000Y-73890000D03*
D52*
%TO.P,J3,CD_IND,CD_IND*%
%TO.N,unconnected-(J3-PadCD_IND)*%
X205620000Y-73890000D03*
D53*
%TO.P,J3,G1,SHIELD_GND*%
%TO.N,GND*%
X203020000Y-75690000D03*
%TO.P,J3,G2,SHIELD_GND*%
X228120000Y-75690000D03*
%TO.P,J3,G3,SHIELD_GND*%
X230320000Y-97190000D03*
%TO.P,J3,G4,SHIELD_GND*%
X203020000Y-97190000D03*
D52*
%TO.P,J3,WP,WP*%
%TO.N,unconnected-(J3-PadWP)*%
X204420000Y-73890000D03*
%TD*%
D28*
%TO.P,C1,1*%
%TO.N,/VBUS*%
X176022000Y-82357000D03*
%TO.P,C1,2*%
%TO.N,GND*%
X176022000Y-80457000D03*
%TD*%
D36*
%TO.P,C21,1*%
%TO.N,/ESP32-C3-02/BOOT*%
X197520000Y-95320000D03*
%TO.P,C21,2*%
%TO.N,GND*%
X195620000Y-95320000D03*
%TD*%
D15*
%TO.P,R7,1*%
%TO.N,/CHARGING_POWER_GOOD*%
X150360000Y-88322500D03*
%TO.P,R7,2*%
%TO.N,Net-(LED3-K)*%
X150360000Y-86497500D03*
%TD*%
D30*
%TO.P,C18,1*%
%TO.N,+3.3V*%
X167240000Y-59090000D03*
%TO.P,C18,2*%
%TO.N,Net-(U7-GND)*%
X169140000Y-59090000D03*
%TD*%
D25*
%TO.P,Q3,1,B*%
%TO.N,Net-(Q3-B)*%
X195680000Y-89787500D03*
%TO.P,Q3,2,E*%
%TO.N,/ESP32-C3-02/BOOT*%
X197580000Y-89787500D03*
%TO.P,Q3,3,C*%
%TO.N,/ESP32-C3-02/DTR*%
X196630000Y-87912500D03*
%TD*%
D24*
%TO.P,R22,1*%
%TO.N,/ESP32-C3-02/MISO_DO*%
X195857500Y-65913000D03*
%TO.P,R22,2*%
%TO.N,Net-(U6-DO(IO1))*%
X194032500Y-65913000D03*
%TD*%
D54*
%TO.N,GND*%
X187960000Y-59690000D03*
X166243000Y-56642000D03*
X171701716Y-79359852D03*
X170929000Y-77597000D03*
X176022000Y-77724000D03*
X179705000Y-72898000D03*
X156845000Y-53975000D03*
X226187000Y-71882000D03*
X217043000Y-60569000D03*
X215011000Y-66420500D03*
X205613000Y-52324000D03*
X202946000Y-71501000D03*
X211201000Y-71882000D03*
X218440000Y-72136000D03*
X192405000Y-97340000D03*
X227330000Y-97409000D03*
X190246000Y-48641000D03*
X192024000Y-51816000D03*
X164973000Y-50546000D03*
X175514000Y-62611000D03*
X153797000Y-91567000D03*
X163576000Y-92202000D03*
X168402000Y-87503000D03*
X178435000Y-81280000D03*
X150368000Y-61595000D03*
X158877000Y-86567500D03*
X156591000Y-86637500D03*
X154178000Y-86637500D03*
X158750000Y-97663000D03*
X160528000Y-91313000D03*
X154000000Y-76180000D03*
X154000000Y-77700000D03*
X152810000Y-77700000D03*
X152810000Y-76200000D03*
X152760000Y-74960000D03*
X152019000Y-73914000D03*
X150290000Y-73840000D03*
X148770000Y-73860000D03*
X147470000Y-73840000D03*
X154700000Y-90710000D03*
X145440000Y-99670000D03*
X145450000Y-98970000D03*
X145450000Y-98310000D03*
D55*
%TO.N,/ESP32-C3-02/TX_RX*%
X228201396Y-59418396D03*
%TO.N,/ESP32-C3-02/RX_TX*%
X229108000Y-57912000D03*
X168148000Y-73787000D03*
%TO.N,/ESP32-C3-02/TX_RX*%
X168148000Y-74518000D03*
%TO.N,/ESP32-C3-02/PHOTO_C*%
X228981000Y-50673000D03*
X184023000Y-62103000D03*
%TO.N,Net-(C19-Pad2)*%
X161798000Y-52909000D03*
X161798000Y-54229000D03*
%TO.N,/ESP32-C3-02/GPIO19*%
X228536262Y-55813882D03*
%TO.N,/ESP32-C3-02/GPIO18*%
X228600000Y-56515000D03*
%TO.N,/ESP32-C3-02/GPIO8*%
X214630000Y-56854000D03*
%TO.N,/ESP32-C3-02/EN*%
X190373000Y-87503000D03*
X214817409Y-51501591D03*
%TO.N,/ESP32-C3-02/RTS*%
X168783000Y-72771000D03*
%TO.N,/VBUS*%
X172509535Y-84714535D03*
%TO.N,+3.3V*%
X173990000Y-75565000D03*
X179451000Y-74803000D03*
%TO.N,/ESP32-C3-02/BOOT*%
X211328000Y-60452000D03*
X198247000Y-87122000D03*
%TO.N,/ESP32-C3-02/DTR*%
X193167000Y-90551000D03*
X189900000Y-92583000D03*
%TO.N,/ESP32-C3-02/RTS*%
X191516000Y-90170000D03*
X189950000Y-90043000D03*
%TO.N,/ESP32-C3-02/BOOT*%
X199390000Y-98044000D03*
X199390000Y-96393000D03*
%TO.N,/ESP32-C3-02/EN*%
X190754000Y-98171000D03*
X190754000Y-96393000D03*
%TO.N,Net-(J1-CC1)*%
X170900000Y-86231472D03*
X166497000Y-87122000D03*
%TO.N,Net-(J1-CC2)*%
X168275000Y-93345000D03*
%TO.N,/CHARGING*%
X158877000Y-90424000D03*
X147320000Y-90805000D03*
%TO.N,/CHARGED*%
X157226000Y-89789000D03*
X151927000Y-90124814D03*
%TO.N,/CHARGING_POWER_GOOD*%
X158242258Y-89531183D03*
X151494911Y-88916089D03*
%TO.N,+3.3V*%
X205867000Y-49918000D03*
X220472000Y-68580000D03*
X210947000Y-68326000D03*
X181229000Y-91059000D03*
X185928000Y-64262000D03*
X195326000Y-60325000D03*
X176276000Y-59944000D03*
X193675000Y-48768000D03*
X191008000Y-48514000D03*
X189103000Y-44704000D03*
X188976000Y-51816000D03*
X164846000Y-60579000D03*
X170053000Y-50673000D03*
%TO.N,/USB_DP*%
X170180000Y-83439000D03*
%TO.N,/USB_DN*%
X173482000Y-83185000D03*
%TO.N,/VBUS*%
X170053000Y-87122000D03*
X171704000Y-83947000D03*
%TO.N,+3.3V*%
X179451000Y-67437000D03*
X166624000Y-67183000D03*
X163957000Y-67437000D03*
X145034000Y-65913000D03*
X145542000Y-69342000D03*
%TO.N,/+5V_USB*%
X148590000Y-80720000D03*
X145288000Y-80720000D03*
X160020000Y-93664003D03*
X160020000Y-92263997D03*
X157622003Y-95758000D03*
X156972000Y-95758000D03*
X154432000Y-98044000D03*
%TO.N,/VBUS*%
X167671000Y-82042000D03*
X167671000Y-81026000D03*
X167671000Y-80137000D03*
%TO.N,/ESP32-C3-02/CS*%
X228981000Y-60890500D03*
X199390000Y-57404000D03*
%TO.N,/ESP32-C3-02/CS_SD*%
X228600000Y-66675000D03*
X231809631Y-49114369D03*
%TO.N,/ESP32-C3-02/SDA*%
X220599000Y-53161250D03*
X204203998Y-49318000D03*
%TO.N,/ESP32-C3-02/SCL*%
X225425000Y-48768000D03*
X204724000Y-48768000D03*
%TO.N,+3.3V*%
X152273000Y-61722000D03*
X153797000Y-61722000D03*
X159258000Y-61722000D03*
X157861000Y-61722000D03*
X156464000Y-61722000D03*
X155067000Y-61722000D03*
%TO.N,/+5V_USB*%
X161927000Y-82036000D03*
X161907000Y-81076000D03*
X161897000Y-80146000D03*
%TD*%
D56*
%TO.N,GND*%
X160294114Y-92920000D02*
X158875000Y-92920000D01*
X160571000Y-92643114D02*
X160294114Y-92920000D01*
X160571000Y-91356000D02*
X160571000Y-92643114D01*
X160528000Y-91313000D02*
X160571000Y-91356000D01*
X190583000Y-71062000D02*
X189650000Y-71995000D01*
X190583000Y-63246000D02*
X190583000Y-71062000D01*
X187999000Y-59729000D02*
X187960000Y-59690000D01*
X187999000Y-61029000D02*
X187999000Y-59729000D01*
X190626000Y-76091500D02*
X190432500Y-76285000D01*
X190626000Y-72971000D02*
X190626000Y-76091500D01*
X189650000Y-71995000D02*
X190626000Y-72971000D01*
X217281500Y-60569000D02*
X221660000Y-56190500D01*
X217043000Y-60569000D02*
X217281500Y-60569000D01*
X216721500Y-60890500D02*
X213050000Y-60890500D01*
X217043000Y-60569000D02*
X216721500Y-60890500D01*
X185608000Y-72705000D02*
X186318000Y-71995000D01*
X185340000Y-72705000D02*
X185608000Y-72705000D01*
X186318000Y-71995000D02*
X189650000Y-71995000D01*
X166075000Y-56810000D02*
X166243000Y-56642000D01*
X165082500Y-56810000D02*
X166075000Y-56810000D01*
X171704000Y-79502000D02*
X171704000Y-80523500D01*
X171701716Y-79359852D02*
X171701716Y-79499716D01*
X171701716Y-79499716D02*
X171704000Y-79502000D01*
X170942000Y-77584000D02*
X170929000Y-77597000D01*
X170942000Y-76503000D02*
X170942000Y-77584000D01*
X171442000Y-74068000D02*
X170942000Y-74568000D01*
X171442000Y-72633000D02*
X171442000Y-74068000D01*
X170942000Y-76503000D02*
X170942000Y-74568000D01*
X176022000Y-80457000D02*
X176022000Y-77724000D01*
X179718000Y-72885000D02*
X179705000Y-72898000D01*
X181110000Y-72885000D02*
X179718000Y-72885000D01*
X156960000Y-53860000D02*
X156845000Y-53975000D01*
X158050000Y-53860000D02*
X156960000Y-53860000D01*
X226045000Y-72024000D02*
X226187000Y-71882000D01*
X226045000Y-73890000D02*
X226045000Y-72024000D01*
X215011000Y-66420500D02*
X217510000Y-66420500D01*
X222760000Y-53990500D02*
X223860000Y-53990500D01*
X221660000Y-53990500D02*
X222760000Y-53990500D01*
X221660000Y-55090500D02*
X221660000Y-53990500D01*
X222760000Y-55090500D02*
X221660000Y-55090500D01*
X222760000Y-55090500D02*
X222210000Y-55090500D01*
X223860000Y-55090500D02*
X222760000Y-55090500D01*
X223860000Y-56190500D02*
X223860000Y-55090500D01*
X222760000Y-56190500D02*
X223860000Y-56190500D01*
X221660000Y-56190500D02*
X222760000Y-56190500D01*
X205626500Y-52310500D02*
X205613000Y-52324000D01*
X208060000Y-52310500D02*
X205626500Y-52310500D01*
X209510000Y-52310500D02*
X210980000Y-50840500D01*
X208060000Y-52310500D02*
X209510000Y-52310500D01*
X203020000Y-71575000D02*
X202946000Y-71501000D01*
X203020000Y-75690000D02*
X203020000Y-71575000D01*
X205488000Y-75690000D02*
X203020000Y-75690000D01*
X206920000Y-73890000D02*
X206920000Y-74258000D01*
X206920000Y-74258000D02*
X205488000Y-75690000D01*
X211045000Y-72038000D02*
X211201000Y-71882000D01*
X211045000Y-73890000D02*
X211045000Y-72038000D01*
X218545000Y-72241000D02*
X218440000Y-72136000D01*
X218545000Y-73890000D02*
X218545000Y-72241000D01*
X192405000Y-97340000D02*
X195382500Y-97340000D01*
X187010000Y-97145000D02*
X186815000Y-97340000D01*
X187010000Y-95320000D02*
X187010000Y-97145000D01*
X189296000Y-97409000D02*
X189365000Y-97340000D01*
X189141000Y-96857454D02*
X189141000Y-97409000D01*
X189052546Y-96769000D02*
X189141000Y-96857454D01*
X187127454Y-96769000D02*
X189052546Y-96769000D01*
X186815000Y-97081454D02*
X187127454Y-96769000D01*
X189141000Y-97409000D02*
X189296000Y-97409000D01*
X186815000Y-97340000D02*
X186815000Y-97081454D01*
X189365000Y-97340000D02*
X192405000Y-97340000D01*
X195382500Y-95557500D02*
X195620000Y-95320000D01*
X195382500Y-97340000D02*
X195382500Y-95557500D01*
X195382500Y-97081454D02*
X195382500Y-97340000D01*
X195694954Y-96769000D02*
X195382500Y-97081454D01*
X197932500Y-97081454D02*
X197620046Y-96769000D01*
X197620046Y-96769000D02*
X195694954Y-96769000D01*
X197932500Y-97340000D02*
X197932500Y-97081454D01*
X198082500Y-97190000D02*
X197932500Y-97340000D01*
X203020000Y-97190000D02*
X198082500Y-97190000D01*
X227549000Y-97190000D02*
X227330000Y-97409000D01*
X230320000Y-97190000D02*
X227549000Y-97190000D01*
X226320000Y-73890000D02*
X228120000Y-75690000D01*
X226045000Y-73890000D02*
X226320000Y-73890000D01*
X217510000Y-66420500D02*
X217900000Y-66030500D01*
X212830000Y-66420500D02*
X215011000Y-66420500D01*
X190267000Y-48620000D02*
X190246000Y-48641000D01*
X190267000Y-47616000D02*
X190267000Y-48620000D01*
X189517000Y-46050998D02*
X189517000Y-45836000D01*
X190267000Y-46800998D02*
X189517000Y-46050998D01*
X190267000Y-47616000D02*
X190267000Y-46800998D01*
X191727000Y-49934000D02*
X191958000Y-50165000D01*
X191727000Y-47616000D02*
X191727000Y-49934000D01*
X191958000Y-51750000D02*
X192024000Y-51816000D01*
X191958000Y-50165000D02*
X191958000Y-51750000D01*
X165080000Y-50653000D02*
X164973000Y-50546000D01*
X165080000Y-52280000D02*
X165080000Y-50653000D01*
X175665000Y-62460000D02*
X175514000Y-62611000D01*
X177545000Y-62460000D02*
X175665000Y-62460000D01*
X154150000Y-91920000D02*
X153797000Y-91567000D01*
X155005000Y-91920000D02*
X154150000Y-91920000D01*
X185160000Y-72885000D02*
X185340000Y-72705000D01*
X181110000Y-72885000D02*
X185160000Y-72885000D01*
X163806500Y-91971500D02*
X163576000Y-92202000D01*
X164973000Y-91971500D02*
X163806500Y-91971500D01*
X173794000Y-93832000D02*
X175974000Y-96012000D01*
X173794000Y-93462000D02*
X173794000Y-93832000D01*
X171704000Y-93462000D02*
X171704000Y-96562000D01*
X169614000Y-93832000D02*
X167434000Y-96012000D01*
X169614000Y-93462000D02*
X169614000Y-93832000D01*
X168584000Y-90132000D02*
X167434000Y-91282000D01*
X168904000Y-90132000D02*
X168584000Y-90132000D01*
X173794000Y-93462000D02*
X171704000Y-93462000D01*
X175974000Y-91282000D02*
X173794000Y-93462000D01*
X169614000Y-93462000D02*
X167434000Y-91282000D01*
X171704000Y-93462000D02*
X169614000Y-93462000D01*
X174504000Y-90132000D02*
X173704000Y-90132000D01*
X174454000Y-90082000D02*
X174504000Y-90132000D01*
X174454000Y-88882000D02*
X174454000Y-90082000D01*
X174824000Y-90132000D02*
X175974000Y-91282000D01*
X174504000Y-90132000D02*
X174824000Y-90132000D01*
X166744500Y-91971500D02*
X167434000Y-91282000D01*
X164973000Y-91971500D02*
X166744500Y-91971500D01*
X167404500Y-95982500D02*
X167434000Y-96012000D01*
X164973000Y-96035500D02*
X165026000Y-95982500D01*
X165026000Y-95982500D02*
X167404500Y-95982500D01*
X169704000Y-90132000D02*
X168904000Y-90132000D01*
X168904000Y-88932000D02*
X168954000Y-88882000D01*
X168904000Y-90132000D02*
X168904000Y-88932000D01*
X168954000Y-88055000D02*
X168402000Y-87503000D01*
X168954000Y-88882000D02*
X168954000Y-88055000D01*
X177612000Y-80457000D02*
X178435000Y-81280000D01*
X176022000Y-80457000D02*
X177612000Y-80457000D01*
X150842500Y-62069500D02*
X150368000Y-61595000D01*
X150842500Y-63600000D02*
X150842500Y-62069500D01*
X158877000Y-86567500D02*
X160030000Y-86567500D01*
X156591000Y-86637500D02*
X157570000Y-86637500D01*
X154178000Y-86637500D02*
X155370000Y-86637500D01*
X160030000Y-86567500D02*
X160100000Y-86637500D01*
X157640000Y-86567500D02*
X158877000Y-86567500D01*
X157570000Y-86637500D02*
X157640000Y-86567500D01*
X155370000Y-86637500D02*
X156591000Y-86637500D01*
X153030000Y-86637500D02*
X154178000Y-86637500D01*
X158693000Y-97720000D02*
X158750000Y-97663000D01*
X157490000Y-97720000D02*
X158693000Y-97720000D01*
X155940000Y-91920000D02*
X155005000Y-91920000D01*
X156940000Y-92920000D02*
X155940000Y-91920000D01*
X155940000Y-91920000D02*
X155940000Y-90985000D01*
X156940000Y-92920000D02*
X158875000Y-92920000D01*
X157690000Y-92920000D02*
X157734000Y-92964000D01*
%TO.N,Net-(LED3-K)*%
X150360000Y-82610000D02*
X150270000Y-82520000D01*
X150360000Y-86497500D02*
X150360000Y-82610000D01*
%TO.N,Net-(LED2-K)*%
X146890000Y-82550000D02*
X146920000Y-82520000D01*
X146890000Y-86567500D02*
X146890000Y-82550000D01*
%TO.N,Net-(LED1-K)*%
X143290000Y-82800000D02*
X143570000Y-82520000D01*
X143290000Y-86497500D02*
X143290000Y-82800000D01*
%TO.N,/ESP32-C3-02/GPIO19*%
X229459644Y-54890500D02*
X230550000Y-54890500D01*
X228536262Y-55813882D02*
X229459644Y-54890500D01*
%TO.N,/ESP32-C3-02/TX_RX*%
X230522104Y-59418396D02*
X230550000Y-59390500D01*
X228201396Y-59418396D02*
X230522104Y-59418396D01*
%TO.N,/ESP32-C3-02/CS*%
X228981000Y-60890500D02*
X230550000Y-60890500D01*
D57*
%TO.N,+3.3V*%
X187261000Y-62929000D02*
X187999000Y-62929000D01*
X185928000Y-64262000D02*
X187261000Y-62929000D01*
D56*
%TO.N,/ESP32-C3-02/RX_TX*%
X229108000Y-57912000D02*
X230528500Y-57912000D01*
X230528500Y-57912000D02*
X230550000Y-57890500D01*
X168275000Y-73787000D02*
X168148000Y-73787000D01*
X168556000Y-74068000D02*
X168275000Y-73787000D01*
X169007000Y-74068000D02*
X168556000Y-74068000D01*
%TO.N,/ESP32-C3-02/TX_RX*%
X168198000Y-74568000D02*
X168148000Y-74518000D01*
X169007000Y-74568000D02*
X168198000Y-74568000D01*
%TO.N,Net-(U4-~{RXT}{slash}GPIO.3)*%
X167851000Y-75068000D02*
X169007000Y-75068000D01*
X167513000Y-74730000D02*
X167851000Y-75068000D01*
X164873500Y-74730000D02*
X167513000Y-74730000D01*
X163920000Y-75683500D02*
X164873500Y-74730000D01*
%TO.N,Net-(U4-~{RST})*%
X176109500Y-74068000D02*
X179360000Y-70817500D01*
X172877000Y-74068000D02*
X176109500Y-74068000D01*
%TO.N,Net-(U4-VBUS)*%
X187930500Y-76962000D02*
X177281114Y-76962000D01*
X174887114Y-74568000D02*
X172877000Y-74568000D01*
X188607500Y-76285000D02*
X187930500Y-76962000D01*
X177281114Y-76962000D02*
X174887114Y-74568000D01*
%TO.N,+3.3V*%
X173493000Y-75068000D02*
X172877000Y-75068000D01*
X173990000Y-75565000D02*
X173493000Y-75068000D01*
%TO.N,Net-(U4-VBUS)*%
X188607500Y-76640000D02*
X190432500Y-78465000D01*
X188607500Y-76285000D02*
X188607500Y-76640000D01*
X188607500Y-76285000D02*
X188607500Y-74937500D01*
X188607500Y-74937500D02*
X189650000Y-73895000D01*
%TO.N,/VBUS*%
X179771000Y-82357000D02*
X183663000Y-78465000D01*
X176022000Y-82357000D02*
X179771000Y-82357000D01*
X183663000Y-78465000D02*
X188607500Y-78465000D01*
%TO.N,/ESP32-C3-02/PHOTO_C*%
X228981000Y-50673000D02*
X230267500Y-50673000D01*
X230267500Y-50673000D02*
X230550000Y-50390500D01*
X183116000Y-63010000D02*
X184023000Y-62103000D01*
X181055000Y-63010000D02*
X183116000Y-63010000D01*
%TO.N,/ESP32-C3-02/MIC_OUT*%
X212410438Y-54030062D02*
X213050000Y-53390500D01*
X174270000Y-54530000D02*
X174769938Y-54030062D01*
X174769938Y-54030062D02*
X212410438Y-54030062D01*
X174232500Y-54567500D02*
X174270000Y-54530000D01*
X171730000Y-54567500D02*
X174232500Y-54567500D01*
X168732500Y-54567500D02*
X168640000Y-54660000D01*
X171730000Y-54567500D02*
X168732500Y-54567500D01*
%TO.N,Net-(U7-IN-)*%
X174232500Y-56392500D02*
X174270000Y-56430000D01*
X171730000Y-56392500D02*
X174232500Y-56392500D01*
X168975000Y-56580000D02*
X169162500Y-56392500D01*
X168640000Y-56580000D02*
X168975000Y-56580000D01*
X169162500Y-56392500D02*
X171730000Y-56392500D01*
%TO.N,Net-(U7-GND)*%
X167990000Y-57940000D02*
X167990000Y-56580000D01*
X169140000Y-59090000D02*
X167990000Y-57940000D01*
%TO.N,Net-(C19-Pad2)*%
X162350000Y-52280000D02*
X163180000Y-52280000D01*
X161798000Y-52832000D02*
X162350000Y-52280000D01*
X161798000Y-52909000D02*
X161798000Y-52832000D01*
X162129000Y-54560000D02*
X161798000Y-54229000D01*
X163217500Y-54560000D02*
X162129000Y-54560000D01*
%TO.N,Net-(U7-IN+)*%
X166059000Y-57861000D02*
X167340000Y-56580000D01*
X164308500Y-57861000D02*
X166059000Y-57861000D01*
X163257500Y-56810000D02*
X164308500Y-57861000D01*
%TO.N,Net-(C16-Pad2)*%
X160301000Y-53509000D02*
X159950000Y-53860000D01*
X166048500Y-53509000D02*
X160301000Y-53509000D01*
X167147500Y-52410000D02*
X166048500Y-53509000D01*
%TO.N,Net-(U7-IN-)*%
X168640000Y-55985001D02*
X168640000Y-56580000D01*
X166116500Y-55634000D02*
X168288999Y-55634000D01*
X165042500Y-54560000D02*
X166116500Y-55634000D01*
X168288999Y-55634000D02*
X168640000Y-55985001D01*
%TO.N,Net-(U7-IN+)*%
X163257500Y-58700000D02*
X163257500Y-56810000D01*
X159980000Y-59000000D02*
X162957500Y-59000000D01*
X162957500Y-59000000D02*
X163257500Y-58700000D01*
%TO.N,Net-(C17-Pad2)*%
X152730000Y-56390000D02*
X152660000Y-56460000D01*
X158107500Y-56390000D02*
X152730000Y-56390000D01*
X158107500Y-58972500D02*
X158080000Y-59000000D01*
X158107500Y-56390000D02*
X158107500Y-58972500D01*
%TO.N,Net-(C16-Pad2)*%
X159932500Y-53877500D02*
X159950000Y-53860000D01*
X159932500Y-56390000D02*
X159932500Y-53877500D01*
%TO.N,/ESP32-C3-02/GPIO8*%
X213113500Y-57954000D02*
X213050000Y-57890500D01*
X213530000Y-57954000D02*
X213113500Y-57954000D01*
X214630000Y-56854000D02*
X213530000Y-57954000D01*
%TO.N,/ESP32-C3-02/GPIO18*%
X230425500Y-56515000D02*
X230550000Y-56390500D01*
X228600000Y-56515000D02*
X230425500Y-56515000D01*
%TO.N,/ESP32-C3-02/EN*%
X213706318Y-50390500D02*
X213050000Y-50390500D01*
X214817409Y-51501591D02*
X213706318Y-50390500D01*
X189865000Y-88011000D02*
X190373000Y-87503000D01*
X189865000Y-88519000D02*
X189865000Y-88011000D01*
%TO.N,/ESP32-C3-02/RTS*%
X169007000Y-72995000D02*
X168783000Y-72771000D01*
X169007000Y-73568000D02*
X169007000Y-72995000D01*
%TO.N,Net-(U4-~{TXT}{slash}GPIO.2)*%
X166770000Y-75593500D02*
X168981500Y-75593500D01*
X168981500Y-75593500D02*
X169007000Y-75568000D01*
%TO.N,Net-(LED5-K)*%
X166770000Y-71261000D02*
X166680000Y-71171000D01*
X166770000Y-73768500D02*
X166770000Y-71261000D01*
%TO.N,Net-(LED6-K)*%
X163920000Y-71221000D02*
X163830000Y-71131000D01*
X163920000Y-73858500D02*
X163920000Y-71221000D01*
%TO.N,/VBUS*%
X172509535Y-84980535D02*
X172954000Y-85425000D01*
X172509535Y-84714535D02*
X172509535Y-84980535D01*
%TO.N,+3.3V*%
X172877000Y-75568000D02*
X172877000Y-75068000D01*
D57*
X179469000Y-74785000D02*
X179451000Y-74803000D01*
X181110000Y-74785000D02*
X179469000Y-74785000D01*
D56*
%TO.N,/ESP32-C3-02/BOOT*%
X212389500Y-59390500D02*
X213050000Y-59390500D01*
X211328000Y-60452000D02*
X212389500Y-59390500D01*
X197580000Y-89787500D02*
X197580000Y-87789000D01*
X197580000Y-87789000D02*
X198247000Y-87122000D01*
%TO.N,/ESP32-C3-02/DTR*%
X188995500Y-92583000D02*
X188942500Y-92530000D01*
X189900000Y-92583000D02*
X188995500Y-92583000D01*
X195805500Y-87912500D02*
X193167000Y-90551000D01*
X196630000Y-87912500D02*
X195805500Y-87912500D01*
%TO.N,/ESP32-C3-02/RTS*%
X193823000Y-92350000D02*
X195627500Y-92350000D01*
X191643000Y-90170000D02*
X193823000Y-92350000D01*
X191516000Y-90170000D02*
X191643000Y-90170000D01*
X189904500Y-89997500D02*
X189950000Y-90043000D01*
X189030000Y-89997500D02*
X189904500Y-89997500D01*
%TO.N,/ESP32-C3-02/BOOT*%
X198085000Y-95885000D02*
X197520000Y-95320000D01*
X198882000Y-95885000D02*
X198085000Y-95885000D01*
X199390000Y-96393000D02*
X198882000Y-95885000D01*
X198934000Y-98500000D02*
X199390000Y-98044000D01*
X197932500Y-98500000D02*
X198934000Y-98500000D01*
X197932500Y-98758546D02*
X197932500Y-98500000D01*
X197620046Y-99071000D02*
X197932500Y-98758546D01*
X195694954Y-99071000D02*
X197620046Y-99071000D01*
X195382500Y-98758546D02*
X195694954Y-99071000D01*
X195382500Y-98500000D02*
X195382500Y-98758546D01*
X198316000Y-94524000D02*
X197520000Y-95320000D01*
X197580000Y-89787500D02*
X198316000Y-90523500D01*
X198316000Y-90523500D02*
X198316000Y-94524000D01*
%TO.N,Net-(Q3-B)*%
X195680000Y-90577500D02*
X197452500Y-92350000D01*
X195680000Y-89787500D02*
X195680000Y-90577500D01*
%TO.N,Net-(Q2-B)*%
X187130000Y-92517500D02*
X187117500Y-92530000D01*
X187130000Y-89997500D02*
X187130000Y-92517500D01*
%TO.N,/ESP32-C3-02/EN*%
X188476500Y-88519000D02*
X188080000Y-88122500D01*
X189865000Y-88519000D02*
X188476500Y-88519000D01*
X190500000Y-89154000D02*
X189865000Y-88519000D01*
X190500000Y-93730000D02*
X190500000Y-89154000D01*
X188910000Y-95320000D02*
X190500000Y-93730000D01*
X189475000Y-95885000D02*
X188910000Y-95320000D01*
X190246000Y-95885000D02*
X189475000Y-95885000D01*
X190754000Y-96393000D02*
X190246000Y-95885000D01*
X190425000Y-98500000D02*
X190754000Y-98171000D01*
X189365000Y-98500000D02*
X190425000Y-98500000D01*
X189365000Y-98758546D02*
X189365000Y-98500000D01*
X187127454Y-99071000D02*
X189052546Y-99071000D01*
X186815000Y-98758546D02*
X187127454Y-99071000D01*
X186815000Y-98500000D02*
X186815000Y-98758546D01*
X189052546Y-99071000D02*
X189365000Y-98758546D01*
X181240000Y-97039000D02*
X182701000Y-98500000D01*
X181240000Y-94292500D02*
X181240000Y-97039000D01*
X182701000Y-98500000D02*
X186815000Y-98500000D01*
%TO.N,/VBUS*%
X170454000Y-87523000D02*
X170053000Y-87122000D01*
X170454000Y-88882000D02*
X170454000Y-87523000D01*
%TO.N,Net-(J1-CC1)*%
X170955000Y-86286472D02*
X170955000Y-87931000D01*
X170900000Y-86231472D02*
X170955000Y-86286472D01*
X170955000Y-87931000D02*
X170954000Y-87932000D01*
X170954000Y-87932000D02*
X170954000Y-88882000D01*
X164973000Y-88646000D02*
X166497000Y-87122000D01*
X164973000Y-90146500D02*
X164973000Y-88646000D01*
%TO.N,Net-(J1-CC2)*%
X167409500Y-94210500D02*
X168275000Y-93345000D01*
X164973000Y-94210500D02*
X167409500Y-94210500D01*
%TO.N,/ESP32-C3-02/PHOTO_C*%
X179542500Y-61497500D02*
X181055000Y-63010000D01*
X179542500Y-59930000D02*
X179542500Y-61497500D01*
%TO.N,/CHARGING*%
X157960000Y-90965000D02*
X157960000Y-90985000D01*
X158369000Y-90932000D02*
X157993000Y-90932000D01*
X158877000Y-90424000D02*
X158369000Y-90932000D01*
X157993000Y-90932000D02*
X157960000Y-90965000D01*
X144837500Y-88322500D02*
X147320000Y-90805000D01*
X143290000Y-88322500D02*
X144837500Y-88322500D01*
%TO.N,/CHARGED*%
X157226000Y-89916000D02*
X156941000Y-90201000D01*
X156941000Y-90201000D02*
X156941000Y-90762479D01*
X157226000Y-89789000D02*
X157226000Y-89916000D01*
%TO.N,/CHARGING_POWER_GOOD*%
X157440000Y-90972000D02*
X157440000Y-90985000D01*
X157459000Y-90455886D02*
X157459000Y-90953000D01*
X157700886Y-90214000D02*
X157459000Y-90455886D01*
X158179114Y-90214000D02*
X157700886Y-90214000D01*
X157459000Y-90953000D02*
X157440000Y-90972000D01*
X158188557Y-90223443D02*
X158179114Y-90214000D01*
X158496000Y-89784925D02*
X158496000Y-89916000D01*
X158242258Y-89531183D02*
X158496000Y-89784925D01*
X158496000Y-89916000D02*
X158188557Y-90223443D01*
X151494911Y-88916089D02*
X150901322Y-88322500D01*
X150901322Y-88322500D02*
X150360000Y-88322500D01*
%TO.N,/CHARGED*%
X148622314Y-90124814D02*
X151927000Y-90124814D01*
X146890000Y-88392500D02*
X148622314Y-90124814D01*
%TO.N,Net-(U1-THERM)*%
X160100000Y-90687000D02*
X158875000Y-91912000D01*
X160100000Y-88462500D02*
X160100000Y-90687000D01*
%TO.N,Net-(U1-~{TE})*%
X156440000Y-89592500D02*
X156440000Y-90985000D01*
X157640000Y-88392500D02*
X156440000Y-89592500D01*
%TO.N,Net-(U1-PROG3)*%
X153835412Y-92420000D02*
X155005000Y-92420000D01*
X153221000Y-89857000D02*
X153221000Y-91805588D01*
X153221000Y-91805588D02*
X153835412Y-92420000D01*
X154615500Y-88462500D02*
X153221000Y-89857000D01*
X155370000Y-88462500D02*
X154615500Y-88462500D01*
%TO.N,Net-(U1-PROG1)*%
X152527000Y-91948000D02*
X152527000Y-88965500D01*
X153499000Y-92920000D02*
X152527000Y-91948000D01*
X155005000Y-92920000D02*
X153499000Y-92920000D01*
X152527000Y-88965500D02*
X153030000Y-88462500D01*
D57*
%TO.N,+3.3V*%
X167340000Y-54042500D02*
X168972500Y-52410000D01*
X167340000Y-54660000D02*
X167340000Y-54042500D01*
X206094500Y-49690500D02*
X205867000Y-49918000D01*
X208060000Y-49690500D02*
X206094500Y-49690500D01*
X213000000Y-48940500D02*
X213050000Y-48890500D01*
X210980000Y-48940500D02*
X213000000Y-48940500D01*
X210230000Y-49690500D02*
X210980000Y-48940500D01*
X208060000Y-49690500D02*
X210230000Y-49690500D01*
X220492500Y-68600500D02*
X220472000Y-68580000D01*
X221577500Y-68600500D02*
X220492500Y-68600500D01*
X210952500Y-68320500D02*
X210947000Y-68326000D01*
X212830000Y-68320500D02*
X210952500Y-68320500D01*
X213160000Y-68650500D02*
X212830000Y-68320500D01*
X217900000Y-68650500D02*
X213160000Y-68650500D01*
X216045000Y-70505500D02*
X217900000Y-68650500D01*
X216045000Y-73890000D02*
X216045000Y-70505500D01*
X181240000Y-91070000D02*
X181229000Y-91059000D01*
X181240000Y-92467500D02*
X181240000Y-91070000D01*
D56*
%TO.N,/ESP32-C3-02/SCLK*%
X198291000Y-61976000D02*
X198799000Y-62484000D01*
X197783000Y-61976000D02*
X198291000Y-61976000D01*
D57*
%TO.N,+3.3V*%
X196215000Y-59436000D02*
X195326000Y-60325000D01*
X197783000Y-59436000D02*
X196215000Y-59436000D01*
X195707000Y-60706000D02*
X195326000Y-60325000D01*
X197783000Y-60706000D02*
X195707000Y-60706000D01*
X188952000Y-61976000D02*
X190583000Y-61976000D01*
X187999000Y-62929000D02*
X188952000Y-61976000D01*
X176290000Y-59930000D02*
X176276000Y-59944000D01*
X177717500Y-59930000D02*
X176290000Y-59930000D01*
X193675000Y-47648500D02*
X193675000Y-48768000D01*
X191007000Y-48513000D02*
X191008000Y-48514000D01*
X191007000Y-47626000D02*
X191007000Y-48513000D01*
X193675000Y-47648500D02*
X195961000Y-47648500D01*
X188341000Y-45466000D02*
X189103000Y-44704000D01*
X188341000Y-47244000D02*
X188341000Y-45466000D01*
X188713000Y-47616000D02*
X188341000Y-47244000D01*
X189527000Y-47616000D02*
X188713000Y-47616000D01*
X189319998Y-44704000D02*
X189103000Y-44704000D01*
X190257000Y-45641002D02*
X189319998Y-44704000D01*
X190257000Y-45856000D02*
X190257000Y-45641002D01*
X190058000Y-50734000D02*
X188976000Y-51816000D01*
X190058000Y-50165000D02*
X190058000Y-50734000D01*
X164842500Y-60575500D02*
X164846000Y-60579000D01*
X164842500Y-59060000D02*
X164842500Y-60575500D01*
X164872500Y-59090000D02*
X164842500Y-59060000D01*
X167240000Y-59090000D02*
X164872500Y-59090000D01*
X168972500Y-51753500D02*
X170053000Y-50673000D01*
X168972500Y-52410000D02*
X168972500Y-51753500D01*
X156070000Y-62116000D02*
X156464000Y-61722000D01*
X156070000Y-63640000D02*
X156070000Y-62116000D01*
D56*
%TO.N,/PWD_LED*%
X148817500Y-63800000D02*
X149017500Y-63600000D01*
X146760000Y-63800000D02*
X148817500Y-63800000D01*
D57*
%TO.N,+3.3V*%
X149729000Y-69370000D02*
X147480000Y-69370000D01*
X149999000Y-69100000D02*
X149729000Y-69370000D01*
X150400000Y-69100000D02*
X149999000Y-69100000D01*
X150610000Y-69100000D02*
X156070000Y-63640000D01*
X150400000Y-69100000D02*
X150610000Y-69100000D01*
X156070000Y-63640000D02*
X156070000Y-69440000D01*
D56*
%TO.N,/USB_DP*%
X170180000Y-83372500D02*
X170754000Y-82798500D01*
X170180000Y-83439000D02*
X170180000Y-83372500D01*
%TO.N,/USB_DN*%
X173482000Y-83185000D02*
X173040500Y-83185000D01*
X173040500Y-83185000D02*
X172654000Y-82798500D01*
D57*
%TO.N,+3.3V*%
X184800000Y-74785000D02*
X185340000Y-75325000D01*
X181110000Y-74785000D02*
X184800000Y-74785000D01*
D56*
%TO.N,/VBUS*%
X172955000Y-90081000D02*
X172955000Y-88882000D01*
X172904000Y-90132000D02*
X172955000Y-90081000D01*
X170454000Y-90082000D02*
X170504000Y-90132000D01*
X170454000Y-88882000D02*
X170454000Y-90082000D01*
X176022000Y-82357000D02*
X172954000Y-85425000D01*
X172954000Y-85425000D02*
X172954000Y-88882000D01*
X171704000Y-82798500D02*
X171704000Y-83947000D01*
D57*
%TO.N,+3.3V*%
X179360000Y-67528000D02*
X179451000Y-67437000D01*
X179360000Y-68992500D02*
X179360000Y-67528000D01*
X166680000Y-67239000D02*
X166624000Y-67183000D01*
X166680000Y-69371000D02*
X166680000Y-67239000D01*
X163830000Y-67564000D02*
X163957000Y-67437000D01*
X163830000Y-69331000D02*
X163830000Y-67564000D01*
X144960000Y-65839000D02*
X145034000Y-65913000D01*
X144960000Y-63800000D02*
X144960000Y-65839000D01*
X145570000Y-69370000D02*
X145542000Y-69342000D01*
X147480000Y-69370000D02*
X145570000Y-69370000D01*
D56*
%TO.N,/+5V_USB*%
X148590000Y-80720000D02*
X150270000Y-80720000D01*
X145288000Y-80720000D02*
X148590000Y-80720000D01*
X143570000Y-80720000D02*
X145288000Y-80720000D01*
D58*
%TO.N,+5V*%
X157610000Y-70200000D02*
X158370000Y-69440000D01*
X157610000Y-73640000D02*
X157610000Y-70200000D01*
X157320000Y-73930000D02*
X157610000Y-73640000D01*
X157320000Y-77640000D02*
X157320000Y-73930000D01*
X157320000Y-78872000D02*
X157320000Y-77640000D01*
X157226000Y-78966000D02*
X157320000Y-78872000D01*
X157226000Y-80772000D02*
X157226000Y-78966000D01*
X161417000Y-84963000D02*
X157226000Y-80772000D01*
X161417000Y-94361000D02*
X161417000Y-84963000D01*
X160909000Y-94869000D02*
X161417000Y-94361000D01*
X158750000Y-94869000D02*
X160909000Y-94869000D01*
D59*
%TO.N,/+5V_USB*%
X159905415Y-93664003D02*
X160020000Y-93664003D01*
X159661412Y-93420000D02*
X159905415Y-93664003D01*
X158875000Y-93420000D02*
X159661412Y-93420000D01*
X159895997Y-92388000D02*
X160020000Y-92263997D01*
X158907000Y-92388000D02*
X159895997Y-92388000D01*
X158875000Y-92420000D02*
X158907000Y-92388000D01*
X157440000Y-95575997D02*
X157622003Y-95758000D01*
X157440000Y-94855000D02*
X157440000Y-95575997D01*
X156940000Y-95726000D02*
X156972000Y-95758000D01*
X156940000Y-94855000D02*
X156940000Y-95726000D01*
X154756000Y-97720000D02*
X154432000Y-98044000D01*
X155590000Y-97720000D02*
X154756000Y-97720000D01*
X156440000Y-96870000D02*
X156440000Y-94855000D01*
X155590000Y-97720000D02*
X156440000Y-96870000D01*
D56*
%TO.N,/ESP32-C3-02/MOSI_DI*%
X198529000Y-63992000D02*
X197783000Y-63246000D01*
X198529000Y-69243000D02*
X198529000Y-63992000D01*
X201041000Y-71755000D02*
X198529000Y-69243000D01*
X201041000Y-77470000D02*
X201041000Y-71755000D01*
X216916000Y-80137000D02*
X203708000Y-80137000D01*
X222948500Y-76390500D02*
X221558000Y-77781000D01*
X221045000Y-74487000D02*
X222948500Y-76390500D01*
X219272000Y-77781000D02*
X216916000Y-80137000D01*
X203708000Y-80137000D02*
X201041000Y-77470000D01*
X221045000Y-73890000D02*
X221045000Y-74487000D01*
X221558000Y-77781000D02*
X219272000Y-77781000D01*
%TO.N,/ESP32-C3-02/MISO_DO*%
X198078000Y-71586000D02*
X198755000Y-72263000D01*
X197715500Y-65913000D02*
X198078000Y-66275500D01*
X198078000Y-66275500D02*
X198078000Y-71586000D01*
X230850000Y-51890500D02*
X230550000Y-51890500D01*
X231775000Y-75438000D02*
X231775000Y-52815500D01*
X228981000Y-78232000D02*
X231775000Y-75438000D01*
X219458810Y-78232000D02*
X228981000Y-78232000D01*
X203521190Y-80588000D02*
X217102810Y-80588000D01*
X199320000Y-76386810D02*
X203521190Y-80588000D01*
X217102810Y-80588000D02*
X219458810Y-78232000D01*
X199320000Y-76003000D02*
X199320000Y-76386810D01*
X199186000Y-75869000D02*
X199320000Y-76003000D01*
X231775000Y-52815500D02*
X230850000Y-51890500D01*
X199263000Y-72771000D02*
X199263000Y-75792000D01*
X198755000Y-72263000D02*
X199263000Y-72771000D01*
X199263000Y-75792000D02*
X199186000Y-75869000D01*
%TO.N,/ESP32-C3-02/CS*%
X197993000Y-56007000D02*
X199390000Y-57404000D01*
X191897000Y-56007000D02*
X197993000Y-56007000D01*
X190583000Y-57321000D02*
X191897000Y-56007000D01*
X190583000Y-59436000D02*
X190583000Y-57321000D01*
%TO.N,/ESP32-C3-02/SCLK*%
X210312000Y-76200000D02*
X212471000Y-76200000D01*
X209677000Y-75565000D02*
X210312000Y-76200000D01*
X212471000Y-76200000D02*
X213545000Y-75126000D01*
X209677000Y-63484500D02*
X209677000Y-75565000D01*
X206263500Y-60071000D02*
X209677000Y-63484500D01*
X213545000Y-75126000D02*
X213545000Y-73890000D01*
D59*
%TO.N,Net-(J3-DAT0)*%
X208620000Y-73640000D02*
X208620000Y-73890000D01*
X200893000Y-65913000D02*
X208620000Y-73640000D01*
X199540500Y-65913000D02*
X200893000Y-65913000D01*
D56*
%TO.N,/ESP32-C3-02/MISO_DO*%
X195857500Y-65913000D02*
X197715500Y-65913000D01*
D59*
%TO.N,Net-(U6-DO(IO1))*%
X194032500Y-63655500D02*
X194032500Y-65913000D01*
X191083000Y-60706000D02*
X194032500Y-63655500D01*
X190583000Y-60706000D02*
X191083000Y-60706000D01*
D56*
%TO.N,/ESP32-C3-02/MOSI_DI*%
X212217000Y-63754000D02*
X209804000Y-61341000D01*
X209804000Y-61341000D02*
X209804000Y-58747500D01*
X219456000Y-65024000D02*
X218186000Y-63754000D01*
X218186000Y-63754000D02*
X212217000Y-63754000D01*
X219456000Y-70104000D02*
X219456000Y-65024000D01*
X221045000Y-71693000D02*
X219456000Y-70104000D01*
X221045000Y-73890000D02*
X221045000Y-71693000D01*
X209804000Y-58747500D02*
X209795500Y-58739000D01*
D59*
%TO.N,Net-(U3-IO6)*%
X209619000Y-54890500D02*
X213050000Y-54890500D01*
X207595500Y-56914000D02*
X209619000Y-54890500D01*
%TO.N,Net-(U3-IO7)*%
X212526500Y-56914000D02*
X213050000Y-56390500D01*
X209795500Y-56914000D02*
X212526500Y-56914000D01*
D56*
%TO.N,/ESP32-C3-02/SCLK*%
X206263500Y-60071000D02*
X207595500Y-58739000D01*
X203962000Y-60071000D02*
X206263500Y-60071000D01*
X203327000Y-60706000D02*
X203962000Y-60071000D01*
X201549000Y-62484000D02*
X203327000Y-60706000D01*
X198799000Y-62484000D02*
X201549000Y-62484000D01*
D59*
%TO.N,Net-(J3-DAT0)*%
X209112500Y-73397500D02*
X208620000Y-73890000D01*
%TO.N,/ESP32-C3-02/CS_SD*%
X231809631Y-49114369D02*
X231585762Y-48890500D01*
X231585762Y-48890500D02*
X230550000Y-48890500D01*
X223402500Y-68951500D02*
X223545000Y-69094000D01*
X223402500Y-68600500D02*
X223402500Y-68951500D01*
X223545000Y-69094000D02*
X223545000Y-73890000D01*
X228600000Y-66675000D02*
X226674500Y-68600500D01*
X226674500Y-68600500D02*
X223402500Y-68600500D01*
D56*
%TO.N,/ESP32-C3-02/SDA*%
X220599000Y-53161250D02*
X220523750Y-53161250D01*
X220523750Y-53161250D02*
X220091000Y-53594000D01*
X217211000Y-54414000D02*
X217211000Y-53594000D01*
X219731000Y-52594000D02*
X219641000Y-52594000D01*
X219461000Y-53594000D02*
X219461000Y-54414000D01*
X218561000Y-53594000D02*
X218561000Y-54414000D01*
X219461000Y-53414000D02*
X219461000Y-53594000D01*
X218381000Y-54594000D02*
X218291000Y-54594000D01*
X218561000Y-52774000D02*
X218561000Y-53594000D01*
X216491000Y-53594000D02*
X216132000Y-53594000D01*
X215254000Y-52716000D02*
X214428500Y-51890500D01*
X219461000Y-52774000D02*
X219461000Y-53414000D01*
X216761000Y-52774000D02*
X216761000Y-53414000D01*
X217211000Y-53594000D02*
X217211000Y-53414000D01*
X217661000Y-52774000D02*
X217661000Y-53594000D01*
X217931000Y-52594000D02*
X217841000Y-52594000D01*
X218111000Y-54414000D02*
X218111000Y-53594000D01*
X219011000Y-53594000D02*
X219011000Y-52774000D01*
X219281000Y-54594000D02*
X219191000Y-54594000D01*
X217211000Y-53414000D02*
X217211000Y-52774000D01*
X217661000Y-53594000D02*
X217661000Y-54414000D01*
X219911000Y-53414000D02*
X219911000Y-52774000D01*
X216581000Y-53594000D02*
X216491000Y-53594000D01*
X216132000Y-53594000D02*
X215254000Y-52716000D01*
X217481000Y-54594000D02*
X217391000Y-54594000D01*
X218831000Y-52594000D02*
X218741000Y-52594000D01*
X217031000Y-52594000D02*
X216941000Y-52594000D01*
X214428500Y-51890500D02*
X213050000Y-51890500D01*
X218111000Y-53594000D02*
X218111000Y-52774000D01*
X219011000Y-54414000D02*
X219011000Y-53594000D01*
X217391000Y-54594000D02*
G75*
G02*
X217211000Y-54414000I0J180000D01*
G01*
X219191000Y-54594000D02*
G75*
G02*
X219011000Y-54414000I0J180000D01*
G01*
X217841000Y-52594000D02*
G75*
G03*
X217661000Y-52774000I0J-180000D01*
G01*
X218291000Y-54594000D02*
G75*
G02*
X218111000Y-54414000I0J180000D01*
G01*
X219461000Y-54414000D02*
G75*
G02*
X219281000Y-54594000I-180000J0D01*
G01*
X218741000Y-52594000D02*
G75*
G03*
X218561000Y-52774000I0J-180000D01*
G01*
X219011000Y-52774000D02*
G75*
G03*
X218831000Y-52594000I-180000J0D01*
G01*
X219911000Y-52774000D02*
G75*
G03*
X219731000Y-52594000I-180000J0D01*
G01*
X220091000Y-53594000D02*
G75*
G02*
X219911000Y-53414000I0J180000D01*
G01*
X217661000Y-54414000D02*
G75*
G02*
X217481000Y-54594000I-180000J0D01*
G01*
X216761000Y-53414000D02*
G75*
G02*
X216581000Y-53594000I-180000J0D01*
G01*
X216941000Y-52594000D02*
G75*
G03*
X216761000Y-52774000I0J-180000D01*
G01*
X217211000Y-52774000D02*
G75*
G03*
X217031000Y-52594000I-180000J0D01*
G01*
X218111000Y-52774000D02*
G75*
G03*
X217931000Y-52594000I-180000J0D01*
G01*
X218561000Y-54414000D02*
G75*
G02*
X218381000Y-54594000I-180000J0D01*
G01*
X219641000Y-52594000D02*
G75*
G03*
X219461000Y-52774000I0J-180000D01*
G01*
%TO.N,/ESP32-C3-02/SCL*%
X204433230Y-48768000D02*
X204724000Y-48768000D01*
X204432230Y-48767000D02*
X204433230Y-48768000D01*
X203975766Y-48767000D02*
X204432230Y-48767000D01*
X203974766Y-48768000D02*
X203975766Y-48767000D01*
X199009000Y-48768000D02*
X203974766Y-48768000D01*
X197866000Y-47625000D02*
X199009000Y-48768000D01*
X197866000Y-47090690D02*
X197866000Y-47625000D01*
X197231000Y-44069000D02*
X197485000Y-44323000D01*
X197485000Y-46709690D02*
X197866000Y-47090690D01*
X197485000Y-44323000D02*
X197485000Y-46709690D01*
X194691000Y-44069000D02*
X197231000Y-44069000D01*
X193675000Y-45085000D02*
X194691000Y-44069000D01*
X193675000Y-45823500D02*
X193675000Y-45085000D01*
%TO.N,/ESP32-C3-02/SDA*%
X198921190Y-49318000D02*
X204203998Y-49318000D01*
X197415000Y-47277500D02*
X197415000Y-47811810D01*
X197415000Y-47811810D02*
X198921190Y-49318000D01*
X195961000Y-45823500D02*
X197415000Y-47277500D01*
X195147500Y-46637000D02*
X195961000Y-45823500D01*
X191544000Y-46637000D02*
X195147500Y-46637000D01*
X190987000Y-45856000D02*
X190987000Y-46080000D01*
X190987000Y-46080000D02*
X191544000Y-46637000D01*
%TO.N,/ESP32-C3-02/SCL*%
X230047500Y-53390500D02*
X230550000Y-53390500D01*
X225425000Y-48768000D02*
X230047500Y-53390500D01*
X193652500Y-45846000D02*
X193675000Y-45823500D01*
X191727000Y-45846000D02*
X193652500Y-45846000D01*
%TO.N,/ESP32-C3-02/SDA*%
X190987000Y-45651002D02*
X190987000Y-45856000D01*
X188854998Y-43519000D02*
X190987000Y-45651002D01*
X179871000Y-43519000D02*
X188854998Y-43519000D01*
X178670000Y-44720000D02*
X179871000Y-43519000D01*
%TO.N,/ESP32-C3-02/SCL*%
X191727000Y-45601000D02*
X191727000Y-45846000D01*
X188798000Y-42672000D02*
X191727000Y-45601000D01*
X176911000Y-42672000D02*
X188798000Y-42672000D01*
X176130000Y-43453000D02*
X176911000Y-42672000D01*
X176130000Y-44720000D02*
X176130000Y-43453000D01*
D60*
%TO.N,/USB_DP*%
X170754000Y-83792251D02*
X170754000Y-82798500D01*
X171450000Y-87977999D02*
X171450000Y-84488251D01*
X171454000Y-87981999D02*
X171450000Y-87977999D01*
X171454000Y-88882000D02*
X171454000Y-87981999D01*
X171450000Y-84488251D02*
X170754000Y-83792251D01*
%TO.N,/USB_DN*%
X172654000Y-83792251D02*
X172654000Y-82798500D01*
X171954000Y-88882000D02*
X171954000Y-84492251D01*
X171954000Y-84492251D02*
X172654000Y-83792251D01*
%TO.N,/ESP32-C3-02/USB_D-*%
X171929000Y-78804749D02*
X171929000Y-76443002D01*
X172654000Y-79529749D02*
X171929000Y-78804749D01*
X172654000Y-80523500D02*
X172654000Y-79529749D01*
%TO.N,/ESP32-C3-02/USB_D+*%
X171479000Y-78804749D02*
X171479000Y-76443002D01*
X170754000Y-79529749D02*
X171479000Y-78804749D01*
X170754000Y-80523500D02*
X170754000Y-79529749D01*
D61*
%TO.N,/VBAT*%
X152190000Y-97530000D02*
X154830000Y-94890000D01*
X148640000Y-97530000D02*
X152190000Y-97530000D01*
%TD*%
%TA.AperFunction,Conductor*%
%TO.N,/+5V_USB*%
G36*
X163894039Y-79549685D02*
G01*
X163939794Y-79602489D01*
X163951000Y-79654000D01*
X163951000Y-82586000D01*
X163931315Y-82653039D01*
X163878511Y-82698794D01*
X163827000Y-82710000D01*
X161515000Y-82710000D01*
X161447961Y-82690315D01*
X161402206Y-82637511D01*
X161391000Y-82586000D01*
X161391000Y-79654000D01*
X161410685Y-79586961D01*
X161463489Y-79541206D01*
X161515000Y-79530000D01*
X163827000Y-79530000D01*
X163894039Y-79549685D01*
G37*
%TD.AperFunction*%
%TD*%
%TA.AperFunction,Conductor*%
%TO.N,GND*%
G36*
X146583039Y-97969685D02*
G01*
X146628794Y-98022489D01*
X146640000Y-98074000D01*
X146640000Y-99996000D01*
X146620315Y-100063039D01*
X146567511Y-100108794D01*
X146516000Y-100120000D01*
X144914000Y-100120000D01*
X144846961Y-100100315D01*
X144801206Y-100047511D01*
X144790000Y-99996000D01*
X144790000Y-98074000D01*
X144809685Y-98006961D01*
X144862489Y-97961206D01*
X144914000Y-97950000D01*
X146516000Y-97950000D01*
X146583039Y-97969685D01*
G37*
%TD.AperFunction*%
%TD*%
%TA.AperFunction,Conductor*%
%TO.N,/VBAT*%
G36*
X155332539Y-93270184D02*
G01*
X155378294Y-93322988D01*
X155389500Y-93374499D01*
X155389500Y-94289752D01*
X155401131Y-94348229D01*
X155401132Y-94348230D01*
X155445447Y-94414552D01*
X155511769Y-94458867D01*
X155511770Y-94458868D01*
X155570247Y-94470499D01*
X155570250Y-94470500D01*
X155570252Y-94470500D01*
X155985500Y-94470500D01*
X156052539Y-94490185D01*
X156098294Y-94542989D01*
X156109500Y-94594500D01*
X156109500Y-95236144D01*
X156112118Y-95249302D01*
X156114500Y-95273492D01*
X156114500Y-95356000D01*
X156094815Y-95423039D01*
X156042011Y-95468794D01*
X155990500Y-95480000D01*
X154501362Y-95480000D01*
X154434323Y-95460315D01*
X154413681Y-95443681D01*
X154406319Y-95436319D01*
X154372834Y-95374996D01*
X154370000Y-95348638D01*
X154370000Y-93394500D01*
X154389685Y-93327461D01*
X154442489Y-93281706D01*
X154494000Y-93270500D01*
X155051142Y-93270500D01*
X155051144Y-93270500D01*
X155110019Y-93254723D01*
X155142113Y-93250499D01*
X155265500Y-93250499D01*
X155332539Y-93270184D01*
G37*
%TD.AperFunction*%
%TD*%
%TA.AperFunction,Conductor*%
%TO.N,GND*%
G36*
X156032539Y-90359685D02*
G01*
X156078294Y-90412489D01*
X156089500Y-90464000D01*
X156089500Y-91031145D01*
X156105275Y-91090019D01*
X156109500Y-91122110D01*
X156109501Y-91315999D01*
X156089817Y-91383039D01*
X156037013Y-91428794D01*
X155985501Y-91440000D01*
X155639999Y-91440000D01*
X155600000Y-91479999D01*
X155600000Y-91980943D01*
X155580315Y-92047982D01*
X155527511Y-92093737D01*
X155458353Y-92103681D01*
X155451809Y-92102560D01*
X155386151Y-92089500D01*
X155386147Y-92089500D01*
X155142111Y-92089500D01*
X155110019Y-92085275D01*
X155051145Y-92069500D01*
X155051144Y-92069500D01*
X154494000Y-92069500D01*
X154426961Y-92049815D01*
X154381206Y-91997011D01*
X154370000Y-91945500D01*
X154370000Y-90464000D01*
X154389685Y-90396961D01*
X154442489Y-90351206D01*
X154494000Y-90340000D01*
X155965500Y-90340000D01*
X156032539Y-90359685D01*
G37*
%TD.AperFunction*%
%TD*%
%TA.AperFunction,Conductor*%
%TO.N,GND*%
G36*
X154930923Y-68204931D02*
G01*
X154951565Y-68221565D01*
X154980568Y-68250568D01*
X155014053Y-68311891D01*
X155016823Y-68334259D01*
X155129573Y-71836742D01*
X155127613Y-71863046D01*
X155095634Y-72037851D01*
X154955246Y-72805246D01*
X154995246Y-72845246D01*
X156103789Y-71999666D01*
X156169029Y-71974660D01*
X156237433Y-71988894D01*
X156287283Y-72037851D01*
X156302983Y-72096760D01*
X156379508Y-78426466D01*
X156360635Y-78493738D01*
X156308388Y-78540128D01*
X156254724Y-78551962D01*
X152225704Y-78526199D01*
X152158792Y-78506087D01*
X152113376Y-78452991D01*
X152102510Y-78403979D01*
X152045083Y-74392274D01*
X152045083Y-74392273D01*
X146813253Y-74360742D01*
X146746333Y-74340654D01*
X146700897Y-74287575D01*
X146690000Y-74236744D01*
X146690000Y-70733390D01*
X146709685Y-70666351D01*
X146762489Y-70620596D01*
X146813388Y-70609392D01*
X152780000Y-70580000D01*
X152775258Y-70236116D01*
X152775246Y-70234406D01*
X152775246Y-68309246D01*
X152794931Y-68242207D01*
X152847735Y-68196452D01*
X152899246Y-68185246D01*
X154863884Y-68185246D01*
X154930923Y-68204931D01*
G37*
%TD.AperFunction*%
%TD*%
%TA.AperFunction,Conductor*%
%TO.N,+3.3V*%
G36*
X159709039Y-61106685D02*
G01*
X159754794Y-61159489D01*
X159766000Y-61211000D01*
X159766000Y-65153020D01*
X159746315Y-65220059D01*
X159693511Y-65265814D01*
X159641024Y-65277016D01*
X154813005Y-65239015D01*
X153672111Y-65277928D01*
X153667884Y-65278000D01*
X153162000Y-65278000D01*
X152654000Y-65278000D01*
X151889000Y-65278000D01*
X151821961Y-65258315D01*
X151776206Y-65205511D01*
X151765000Y-65154000D01*
X151765000Y-61211000D01*
X151784685Y-61143961D01*
X151837489Y-61098206D01*
X151889000Y-61087000D01*
X159642000Y-61087000D01*
X159709039Y-61106685D01*
G37*
%TD.AperFunction*%
%TD*%
%TA.AperFunction,Conductor*%
%TO.N,/VBUS*%
G36*
X167995039Y-79521685D02*
G01*
X168040794Y-79574489D01*
X168052000Y-79626000D01*
X168052000Y-82426000D01*
X168032315Y-82493039D01*
X167979511Y-82538794D01*
X167928000Y-82550000D01*
X166017000Y-82550000D01*
X165949961Y-82530315D01*
X165904206Y-82477511D01*
X165893000Y-82426000D01*
X165893000Y-79626000D01*
X165912685Y-79558961D01*
X165965489Y-79513206D01*
X166017000Y-79502000D01*
X167928000Y-79502000D01*
X167995039Y-79521685D01*
G37*
%TD.AperFunction*%
%TD*%
%TA.AperFunction,Conductor*%
%TO.N,+5V*%
G36*
X159455039Y-93765185D02*
G01*
X159500794Y-93817989D01*
X159512000Y-93869500D01*
X159512000Y-95380000D01*
X159492315Y-95447039D01*
X159439511Y-95492794D01*
X159388000Y-95504000D01*
X158056468Y-95504000D01*
X158033742Y-95497326D01*
X158010169Y-95495032D01*
X157997570Y-95486705D01*
X157989429Y-95484315D01*
X157979637Y-95477329D01*
X157973924Y-95472819D01*
X157898616Y-95397511D01*
X157823820Y-95354327D01*
X157816764Y-95348757D01*
X157801537Y-95327291D01*
X157783379Y-95308246D01*
X157781644Y-95299246D01*
X157776340Y-95291768D01*
X157775136Y-95265476D01*
X157770658Y-95242239D01*
X157770500Y-95242239D01*
X157770499Y-95241418D01*
X157770157Y-95239639D01*
X157770192Y-95239274D01*
X157770497Y-95236157D01*
X157770500Y-95236147D01*
X157770499Y-94594499D01*
X157790183Y-94527461D01*
X157842987Y-94481706D01*
X157894499Y-94470500D01*
X158309750Y-94470500D01*
X158309751Y-94470499D01*
X158324568Y-94467552D01*
X158368229Y-94458868D01*
X158368229Y-94458867D01*
X158368231Y-94458867D01*
X158434552Y-94414552D01*
X158478867Y-94348231D01*
X158478867Y-94348229D01*
X158478868Y-94348229D01*
X158490499Y-94289752D01*
X158490500Y-94289750D01*
X158490500Y-93874499D01*
X158510185Y-93807460D01*
X158562989Y-93761705D01*
X158614496Y-93750499D01*
X159256146Y-93750499D01*
X159269304Y-93747881D01*
X159293492Y-93745500D01*
X159388000Y-93745500D01*
X159455039Y-93765185D01*
G37*
%TD.AperFunction*%
%TD*%
M02*
