%TF.GenerationSoftware,KiCad,Pcbnew,9.0.4*%
%TF.CreationDate,2025-12-21T22:50:03+05:30*%
%TF.ProjectId,ESP-32 C3 demo project004,4553502d-3332-4204-9333-2064656d6f20,rev?*%
%TF.SameCoordinates,Original*%
%TF.FileFunction,Legend,Bot*%
%TF.FilePolarity,Positive*%
%FSLAX46Y46*%
G04 Gerber Fmt 4.6, Leading zero omitted, Abs format (unit mm)*
G04 Created by KiCad (PCBNEW 9.0.4) date 2025-12-21 22:50:03*
%MOMM*%
%LPD*%
G01*
G04 APERTURE LIST*
%ADD10C,0.400000*%
%ADD11C,0.500000*%
%ADD12C,0.010000*%
G04 APERTURE END LIST*
D10*
X223288795Y-87211185D02*
X223384033Y-87306424D01*
X223384033Y-87306424D02*
X223669747Y-87401662D01*
X223669747Y-87401662D02*
X223860223Y-87401662D01*
X223860223Y-87401662D02*
X224145938Y-87306424D01*
X224145938Y-87306424D02*
X224336414Y-87115947D01*
X224336414Y-87115947D02*
X224431652Y-86925471D01*
X224431652Y-86925471D02*
X224526890Y-86544519D01*
X224526890Y-86544519D02*
X224526890Y-86258804D01*
X224526890Y-86258804D02*
X224431652Y-85877852D01*
X224431652Y-85877852D02*
X224336414Y-85687376D01*
X224336414Y-85687376D02*
X224145938Y-85496900D01*
X224145938Y-85496900D02*
X223860223Y-85401662D01*
X223860223Y-85401662D02*
X223669747Y-85401662D01*
X223669747Y-85401662D02*
X223384033Y-85496900D01*
X223384033Y-85496900D02*
X223288795Y-85592138D01*
X222431652Y-87401662D02*
X222431652Y-86068328D01*
X222431652Y-86449281D02*
X222336414Y-86258804D01*
X222336414Y-86258804D02*
X222241176Y-86163566D01*
X222241176Y-86163566D02*
X222050700Y-86068328D01*
X222050700Y-86068328D02*
X221860223Y-86068328D01*
X220431652Y-87306424D02*
X220622128Y-87401662D01*
X220622128Y-87401662D02*
X221003081Y-87401662D01*
X221003081Y-87401662D02*
X221193557Y-87306424D01*
X221193557Y-87306424D02*
X221288795Y-87115947D01*
X221288795Y-87115947D02*
X221288795Y-86354043D01*
X221288795Y-86354043D02*
X221193557Y-86163566D01*
X221193557Y-86163566D02*
X221003081Y-86068328D01*
X221003081Y-86068328D02*
X220622128Y-86068328D01*
X220622128Y-86068328D02*
X220431652Y-86163566D01*
X220431652Y-86163566D02*
X220336414Y-86354043D01*
X220336414Y-86354043D02*
X220336414Y-86544519D01*
X220336414Y-86544519D02*
X221288795Y-86734995D01*
X218622128Y-87401662D02*
X218622128Y-86354043D01*
X218622128Y-86354043D02*
X218717366Y-86163566D01*
X218717366Y-86163566D02*
X218907842Y-86068328D01*
X218907842Y-86068328D02*
X219288795Y-86068328D01*
X219288795Y-86068328D02*
X219479271Y-86163566D01*
X218622128Y-87306424D02*
X218812604Y-87401662D01*
X218812604Y-87401662D02*
X219288795Y-87401662D01*
X219288795Y-87401662D02*
X219479271Y-87306424D01*
X219479271Y-87306424D02*
X219574509Y-87115947D01*
X219574509Y-87115947D02*
X219574509Y-86925471D01*
X219574509Y-86925471D02*
X219479271Y-86734995D01*
X219479271Y-86734995D02*
X219288795Y-86639757D01*
X219288795Y-86639757D02*
X218812604Y-86639757D01*
X218812604Y-86639757D02*
X218622128Y-86544519D01*
X217955461Y-86068328D02*
X217193557Y-86068328D01*
X217669747Y-85401662D02*
X217669747Y-87115947D01*
X217669747Y-87115947D02*
X217574509Y-87306424D01*
X217574509Y-87306424D02*
X217384033Y-87401662D01*
X217384033Y-87401662D02*
X217193557Y-87401662D01*
X215764985Y-87306424D02*
X215955461Y-87401662D01*
X215955461Y-87401662D02*
X216336414Y-87401662D01*
X216336414Y-87401662D02*
X216526890Y-87306424D01*
X216526890Y-87306424D02*
X216622128Y-87115947D01*
X216622128Y-87115947D02*
X216622128Y-86354043D01*
X216622128Y-86354043D02*
X216526890Y-86163566D01*
X216526890Y-86163566D02*
X216336414Y-86068328D01*
X216336414Y-86068328D02*
X215955461Y-86068328D01*
X215955461Y-86068328D02*
X215764985Y-86163566D01*
X215764985Y-86163566D02*
X215669747Y-86354043D01*
X215669747Y-86354043D02*
X215669747Y-86544519D01*
X215669747Y-86544519D02*
X216622128Y-86734995D01*
X213955461Y-87401662D02*
X213955461Y-85401662D01*
X213955461Y-87306424D02*
X214145937Y-87401662D01*
X214145937Y-87401662D02*
X214526890Y-87401662D01*
X214526890Y-87401662D02*
X214717366Y-87306424D01*
X214717366Y-87306424D02*
X214812604Y-87211185D01*
X214812604Y-87211185D02*
X214907842Y-87020709D01*
X214907842Y-87020709D02*
X214907842Y-86449281D01*
X214907842Y-86449281D02*
X214812604Y-86258804D01*
X214812604Y-86258804D02*
X214717366Y-86163566D01*
X214717366Y-86163566D02*
X214526890Y-86068328D01*
X214526890Y-86068328D02*
X214145937Y-86068328D01*
X214145937Y-86068328D02*
X213955461Y-86163566D01*
X210812603Y-86354043D02*
X210526889Y-86449281D01*
X210526889Y-86449281D02*
X210431651Y-86544519D01*
X210431651Y-86544519D02*
X210336413Y-86734995D01*
X210336413Y-86734995D02*
X210336413Y-87020709D01*
X210336413Y-87020709D02*
X210431651Y-87211185D01*
X210431651Y-87211185D02*
X210526889Y-87306424D01*
X210526889Y-87306424D02*
X210717365Y-87401662D01*
X210717365Y-87401662D02*
X211479270Y-87401662D01*
X211479270Y-87401662D02*
X211479270Y-85401662D01*
X211479270Y-85401662D02*
X210812603Y-85401662D01*
X210812603Y-85401662D02*
X210622127Y-85496900D01*
X210622127Y-85496900D02*
X210526889Y-85592138D01*
X210526889Y-85592138D02*
X210431651Y-85782614D01*
X210431651Y-85782614D02*
X210431651Y-85973090D01*
X210431651Y-85973090D02*
X210526889Y-86163566D01*
X210526889Y-86163566D02*
X210622127Y-86258804D01*
X210622127Y-86258804D02*
X210812603Y-86354043D01*
X210812603Y-86354043D02*
X211479270Y-86354043D01*
X209669746Y-86068328D02*
X209193556Y-87401662D01*
X208717365Y-86068328D02*
X209193556Y-87401662D01*
X209193556Y-87401662D02*
X209384032Y-87877852D01*
X209384032Y-87877852D02*
X209479270Y-87973090D01*
X209479270Y-87973090D02*
X209669746Y-88068328D01*
X207860222Y-87306424D02*
X207860222Y-87401662D01*
X207860222Y-87401662D02*
X207955460Y-87592138D01*
X207955460Y-87592138D02*
X208050698Y-87687376D01*
X224050700Y-89669169D02*
X224050700Y-90621550D01*
X224717366Y-88621550D02*
X224050700Y-89669169D01*
X224050700Y-89669169D02*
X223384033Y-88621550D01*
X222717366Y-88621550D02*
X222717366Y-90240597D01*
X222717366Y-90240597D02*
X222622128Y-90431073D01*
X222622128Y-90431073D02*
X222526890Y-90526312D01*
X222526890Y-90526312D02*
X222336414Y-90621550D01*
X222336414Y-90621550D02*
X221955461Y-90621550D01*
X221955461Y-90621550D02*
X221764985Y-90526312D01*
X221764985Y-90526312D02*
X221669747Y-90431073D01*
X221669747Y-90431073D02*
X221574509Y-90240597D01*
X221574509Y-90240597D02*
X221574509Y-88621550D01*
X220622128Y-90621550D02*
X220622128Y-88621550D01*
X219479271Y-90621550D02*
X220336414Y-89478692D01*
X219479271Y-88621550D02*
X220622128Y-89764407D01*
X218622128Y-89573931D02*
X217955461Y-89573931D01*
X217669747Y-90621550D02*
X218622128Y-90621550D01*
X218622128Y-90621550D02*
X218622128Y-88621550D01*
X218622128Y-88621550D02*
X217669747Y-88621550D01*
X216907842Y-90526312D02*
X216622128Y-90621550D01*
X216622128Y-90621550D02*
X216145937Y-90621550D01*
X216145937Y-90621550D02*
X215955461Y-90526312D01*
X215955461Y-90526312D02*
X215860223Y-90431073D01*
X215860223Y-90431073D02*
X215764985Y-90240597D01*
X215764985Y-90240597D02*
X215764985Y-90050121D01*
X215764985Y-90050121D02*
X215860223Y-89859645D01*
X215860223Y-89859645D02*
X215955461Y-89764407D01*
X215955461Y-89764407D02*
X216145937Y-89669169D01*
X216145937Y-89669169D02*
X216526890Y-89573931D01*
X216526890Y-89573931D02*
X216717366Y-89478692D01*
X216717366Y-89478692D02*
X216812604Y-89383454D01*
X216812604Y-89383454D02*
X216907842Y-89192978D01*
X216907842Y-89192978D02*
X216907842Y-89002502D01*
X216907842Y-89002502D02*
X216812604Y-88812026D01*
X216812604Y-88812026D02*
X216717366Y-88716788D01*
X216717366Y-88716788D02*
X216526890Y-88621550D01*
X216526890Y-88621550D02*
X216050699Y-88621550D01*
X216050699Y-88621550D02*
X215764985Y-88716788D01*
X214907842Y-90621550D02*
X214907842Y-88621550D01*
X214907842Y-89573931D02*
X213764985Y-89573931D01*
X213764985Y-90621550D02*
X213764985Y-88621550D01*
X211384032Y-90526312D02*
X211098318Y-90621550D01*
X211098318Y-90621550D02*
X210622127Y-90621550D01*
X210622127Y-90621550D02*
X210431651Y-90526312D01*
X210431651Y-90526312D02*
X210336413Y-90431073D01*
X210336413Y-90431073D02*
X210241175Y-90240597D01*
X210241175Y-90240597D02*
X210241175Y-90050121D01*
X210241175Y-90050121D02*
X210336413Y-89859645D01*
X210336413Y-89859645D02*
X210431651Y-89764407D01*
X210431651Y-89764407D02*
X210622127Y-89669169D01*
X210622127Y-89669169D02*
X211003080Y-89573931D01*
X211003080Y-89573931D02*
X211193556Y-89478692D01*
X211193556Y-89478692D02*
X211288794Y-89383454D01*
X211288794Y-89383454D02*
X211384032Y-89192978D01*
X211384032Y-89192978D02*
X211384032Y-89002502D01*
X211384032Y-89002502D02*
X211288794Y-88812026D01*
X211288794Y-88812026D02*
X211193556Y-88716788D01*
X211193556Y-88716788D02*
X211003080Y-88621550D01*
X211003080Y-88621550D02*
X210526889Y-88621550D01*
X210526889Y-88621550D02*
X210241175Y-88716788D01*
X224526890Y-92031914D02*
X224431652Y-91936676D01*
X224431652Y-91936676D02*
X224241176Y-91841438D01*
X224241176Y-91841438D02*
X223764985Y-91841438D01*
X223764985Y-91841438D02*
X223574509Y-91936676D01*
X223574509Y-91936676D02*
X223479271Y-92031914D01*
X223479271Y-92031914D02*
X223384033Y-92222390D01*
X223384033Y-92222390D02*
X223384033Y-92412866D01*
X223384033Y-92412866D02*
X223479271Y-92698580D01*
X223479271Y-92698580D02*
X224622128Y-93841438D01*
X224622128Y-93841438D02*
X223384033Y-93841438D01*
X222145938Y-91841438D02*
X221955461Y-91841438D01*
X221955461Y-91841438D02*
X221764985Y-91936676D01*
X221764985Y-91936676D02*
X221669747Y-92031914D01*
X221669747Y-92031914D02*
X221574509Y-92222390D01*
X221574509Y-92222390D02*
X221479271Y-92603342D01*
X221479271Y-92603342D02*
X221479271Y-93079533D01*
X221479271Y-93079533D02*
X221574509Y-93460485D01*
X221574509Y-93460485D02*
X221669747Y-93650961D01*
X221669747Y-93650961D02*
X221764985Y-93746200D01*
X221764985Y-93746200D02*
X221955461Y-93841438D01*
X221955461Y-93841438D02*
X222145938Y-93841438D01*
X222145938Y-93841438D02*
X222336414Y-93746200D01*
X222336414Y-93746200D02*
X222431652Y-93650961D01*
X222431652Y-93650961D02*
X222526890Y-93460485D01*
X222526890Y-93460485D02*
X222622128Y-93079533D01*
X222622128Y-93079533D02*
X222622128Y-92603342D01*
X222622128Y-92603342D02*
X222526890Y-92222390D01*
X222526890Y-92222390D02*
X222431652Y-92031914D01*
X222431652Y-92031914D02*
X222336414Y-91936676D01*
X222336414Y-91936676D02*
X222145938Y-91841438D01*
X220717366Y-92031914D02*
X220622128Y-91936676D01*
X220622128Y-91936676D02*
X220431652Y-91841438D01*
X220431652Y-91841438D02*
X219955461Y-91841438D01*
X219955461Y-91841438D02*
X219764985Y-91936676D01*
X219764985Y-91936676D02*
X219669747Y-92031914D01*
X219669747Y-92031914D02*
X219574509Y-92222390D01*
X219574509Y-92222390D02*
X219574509Y-92412866D01*
X219574509Y-92412866D02*
X219669747Y-92698580D01*
X219669747Y-92698580D02*
X220812604Y-93841438D01*
X220812604Y-93841438D02*
X219574509Y-93841438D01*
X217860223Y-92508104D02*
X217860223Y-93841438D01*
X218336414Y-91746200D02*
X218812604Y-93174771D01*
X218812604Y-93174771D02*
X217574509Y-93174771D01*
X215764985Y-93841438D02*
X216907842Y-93841438D01*
X216336414Y-93841438D02*
X216336414Y-91841438D01*
X216336414Y-91841438D02*
X216526890Y-92127152D01*
X216526890Y-92127152D02*
X216717366Y-92317628D01*
X216717366Y-92317628D02*
X216907842Y-92412866D01*
X214526890Y-91841438D02*
X214336413Y-91841438D01*
X214336413Y-91841438D02*
X214145937Y-91936676D01*
X214145937Y-91936676D02*
X214050699Y-92031914D01*
X214050699Y-92031914D02*
X213955461Y-92222390D01*
X213955461Y-92222390D02*
X213860223Y-92603342D01*
X213860223Y-92603342D02*
X213860223Y-93079533D01*
X213860223Y-93079533D02*
X213955461Y-93460485D01*
X213955461Y-93460485D02*
X214050699Y-93650961D01*
X214050699Y-93650961D02*
X214145937Y-93746200D01*
X214145937Y-93746200D02*
X214336413Y-93841438D01*
X214336413Y-93841438D02*
X214526890Y-93841438D01*
X214526890Y-93841438D02*
X214717366Y-93746200D01*
X214717366Y-93746200D02*
X214812604Y-93650961D01*
X214812604Y-93650961D02*
X214907842Y-93460485D01*
X214907842Y-93460485D02*
X215003080Y-93079533D01*
X215003080Y-93079533D02*
X215003080Y-92603342D01*
X215003080Y-92603342D02*
X214907842Y-92222390D01*
X214907842Y-92222390D02*
X214812604Y-92031914D01*
X214812604Y-92031914D02*
X214717366Y-91936676D01*
X214717366Y-91936676D02*
X214526890Y-91841438D01*
X212145937Y-92508104D02*
X212145937Y-93841438D01*
X212622128Y-91746200D02*
X213098318Y-93174771D01*
X213098318Y-93174771D02*
X211860223Y-93174771D01*
X210717366Y-91841438D02*
X210526889Y-91841438D01*
X210526889Y-91841438D02*
X210336413Y-91936676D01*
X210336413Y-91936676D02*
X210241175Y-92031914D01*
X210241175Y-92031914D02*
X210145937Y-92222390D01*
X210145937Y-92222390D02*
X210050699Y-92603342D01*
X210050699Y-92603342D02*
X210050699Y-93079533D01*
X210050699Y-93079533D02*
X210145937Y-93460485D01*
X210145937Y-93460485D02*
X210241175Y-93650961D01*
X210241175Y-93650961D02*
X210336413Y-93746200D01*
X210336413Y-93746200D02*
X210526889Y-93841438D01*
X210526889Y-93841438D02*
X210717366Y-93841438D01*
X210717366Y-93841438D02*
X210907842Y-93746200D01*
X210907842Y-93746200D02*
X211003080Y-93650961D01*
X211003080Y-93650961D02*
X211098318Y-93460485D01*
X211098318Y-93460485D02*
X211193556Y-93079533D01*
X211193556Y-93079533D02*
X211193556Y-92603342D01*
X211193556Y-92603342D02*
X211098318Y-92222390D01*
X211098318Y-92222390D02*
X211003080Y-92031914D01*
X211003080Y-92031914D02*
X210907842Y-91936676D01*
X210907842Y-91936676D02*
X210717366Y-91841438D01*
X208145937Y-93841438D02*
X209288794Y-93841438D01*
X208717366Y-93841438D02*
X208717366Y-91841438D01*
X208717366Y-91841438D02*
X208907842Y-92127152D01*
X208907842Y-92127152D02*
X209098318Y-92317628D01*
X209098318Y-92317628D02*
X209288794Y-92412866D01*
X206907842Y-91841438D02*
X206717365Y-91841438D01*
X206717365Y-91841438D02*
X206526889Y-91936676D01*
X206526889Y-91936676D02*
X206431651Y-92031914D01*
X206431651Y-92031914D02*
X206336413Y-92222390D01*
X206336413Y-92222390D02*
X206241175Y-92603342D01*
X206241175Y-92603342D02*
X206241175Y-93079533D01*
X206241175Y-93079533D02*
X206336413Y-93460485D01*
X206336413Y-93460485D02*
X206431651Y-93650961D01*
X206431651Y-93650961D02*
X206526889Y-93746200D01*
X206526889Y-93746200D02*
X206717365Y-93841438D01*
X206717365Y-93841438D02*
X206907842Y-93841438D01*
X206907842Y-93841438D02*
X207098318Y-93746200D01*
X207098318Y-93746200D02*
X207193556Y-93650961D01*
X207193556Y-93650961D02*
X207288794Y-93460485D01*
X207288794Y-93460485D02*
X207384032Y-93079533D01*
X207384032Y-93079533D02*
X207384032Y-92603342D01*
X207384032Y-92603342D02*
X207288794Y-92222390D01*
X207288794Y-92222390D02*
X207193556Y-92031914D01*
X207193556Y-92031914D02*
X207098318Y-91936676D01*
X207098318Y-91936676D02*
X206907842Y-91841438D01*
D11*
X219301767Y-55820428D02*
X218301767Y-55820428D01*
X217873195Y-57391857D02*
X219301767Y-57391857D01*
X219301767Y-57391857D02*
X219301767Y-54391857D01*
X219301767Y-54391857D02*
X217873195Y-54391857D01*
X216730338Y-57249000D02*
X216301767Y-57391857D01*
X216301767Y-57391857D02*
X215587481Y-57391857D01*
X215587481Y-57391857D02*
X215301767Y-57249000D01*
X215301767Y-57249000D02*
X215158909Y-57106142D01*
X215158909Y-57106142D02*
X215016052Y-56820428D01*
X215016052Y-56820428D02*
X215016052Y-56534714D01*
X215016052Y-56534714D02*
X215158909Y-56249000D01*
X215158909Y-56249000D02*
X215301767Y-56106142D01*
X215301767Y-56106142D02*
X215587481Y-55963285D01*
X215587481Y-55963285D02*
X216158909Y-55820428D01*
X216158909Y-55820428D02*
X216444624Y-55677571D01*
X216444624Y-55677571D02*
X216587481Y-55534714D01*
X216587481Y-55534714D02*
X216730338Y-55249000D01*
X216730338Y-55249000D02*
X216730338Y-54963285D01*
X216730338Y-54963285D02*
X216587481Y-54677571D01*
X216587481Y-54677571D02*
X216444624Y-54534714D01*
X216444624Y-54534714D02*
X216158909Y-54391857D01*
X216158909Y-54391857D02*
X215444624Y-54391857D01*
X215444624Y-54391857D02*
X215016052Y-54534714D01*
X213730338Y-57391857D02*
X213730338Y-54391857D01*
X213730338Y-54391857D02*
X212587481Y-54391857D01*
X212587481Y-54391857D02*
X212301766Y-54534714D01*
X212301766Y-54534714D02*
X212158909Y-54677571D01*
X212158909Y-54677571D02*
X212016052Y-54963285D01*
X212016052Y-54963285D02*
X212016052Y-55391857D01*
X212016052Y-55391857D02*
X212158909Y-55677571D01*
X212158909Y-55677571D02*
X212301766Y-55820428D01*
X212301766Y-55820428D02*
X212587481Y-55963285D01*
X212587481Y-55963285D02*
X213730338Y-55963285D01*
X211016052Y-54391857D02*
X209158909Y-54391857D01*
X209158909Y-54391857D02*
X210158909Y-55534714D01*
X210158909Y-55534714D02*
X209730338Y-55534714D01*
X209730338Y-55534714D02*
X209444624Y-55677571D01*
X209444624Y-55677571D02*
X209301766Y-55820428D01*
X209301766Y-55820428D02*
X209158909Y-56106142D01*
X209158909Y-56106142D02*
X209158909Y-56820428D01*
X209158909Y-56820428D02*
X209301766Y-57106142D01*
X209301766Y-57106142D02*
X209444624Y-57249000D01*
X209444624Y-57249000D02*
X209730338Y-57391857D01*
X209730338Y-57391857D02*
X210587481Y-57391857D01*
X210587481Y-57391857D02*
X210873195Y-57249000D01*
X210873195Y-57249000D02*
X211016052Y-57106142D01*
X208016052Y-54677571D02*
X207873195Y-54534714D01*
X207873195Y-54534714D02*
X207587481Y-54391857D01*
X207587481Y-54391857D02*
X206873195Y-54391857D01*
X206873195Y-54391857D02*
X206587481Y-54534714D01*
X206587481Y-54534714D02*
X206444623Y-54677571D01*
X206444623Y-54677571D02*
X206301766Y-54963285D01*
X206301766Y-54963285D02*
X206301766Y-55249000D01*
X206301766Y-55249000D02*
X206444623Y-55677571D01*
X206444623Y-55677571D02*
X208158909Y-57391857D01*
X208158909Y-57391857D02*
X206301766Y-57391857D01*
X205016052Y-56249000D02*
X202730338Y-56249000D01*
X199587480Y-57106142D02*
X199730337Y-57249000D01*
X199730337Y-57249000D02*
X200158909Y-57391857D01*
X200158909Y-57391857D02*
X200444623Y-57391857D01*
X200444623Y-57391857D02*
X200873194Y-57249000D01*
X200873194Y-57249000D02*
X201158909Y-56963285D01*
X201158909Y-56963285D02*
X201301766Y-56677571D01*
X201301766Y-56677571D02*
X201444623Y-56106142D01*
X201444623Y-56106142D02*
X201444623Y-55677571D01*
X201444623Y-55677571D02*
X201301766Y-55106142D01*
X201301766Y-55106142D02*
X201158909Y-54820428D01*
X201158909Y-54820428D02*
X200873194Y-54534714D01*
X200873194Y-54534714D02*
X200444623Y-54391857D01*
X200444623Y-54391857D02*
X200158909Y-54391857D01*
X200158909Y-54391857D02*
X199730337Y-54534714D01*
X199730337Y-54534714D02*
X199587480Y-54677571D01*
X198587480Y-54391857D02*
X196730337Y-54391857D01*
X196730337Y-54391857D02*
X197730337Y-55534714D01*
X197730337Y-55534714D02*
X197301766Y-55534714D01*
X197301766Y-55534714D02*
X197016052Y-55677571D01*
X197016052Y-55677571D02*
X196873194Y-55820428D01*
X196873194Y-55820428D02*
X196730337Y-56106142D01*
X196730337Y-56106142D02*
X196730337Y-56820428D01*
X196730337Y-56820428D02*
X196873194Y-57106142D01*
X196873194Y-57106142D02*
X197016052Y-57249000D01*
X197016052Y-57249000D02*
X197301766Y-57391857D01*
X197301766Y-57391857D02*
X198158909Y-57391857D01*
X198158909Y-57391857D02*
X198444623Y-57249000D01*
X198444623Y-57249000D02*
X198587480Y-57106142D01*
X193301766Y-57249000D02*
X192873195Y-57391857D01*
X192873195Y-57391857D02*
X192158909Y-57391857D01*
X192158909Y-57391857D02*
X191873195Y-57249000D01*
X191873195Y-57249000D02*
X191730337Y-57106142D01*
X191730337Y-57106142D02*
X191587480Y-56820428D01*
X191587480Y-56820428D02*
X191587480Y-56534714D01*
X191587480Y-56534714D02*
X191730337Y-56249000D01*
X191730337Y-56249000D02*
X191873195Y-56106142D01*
X191873195Y-56106142D02*
X192158909Y-55963285D01*
X192158909Y-55963285D02*
X192730337Y-55820428D01*
X192730337Y-55820428D02*
X193016052Y-55677571D01*
X193016052Y-55677571D02*
X193158909Y-55534714D01*
X193158909Y-55534714D02*
X193301766Y-55249000D01*
X193301766Y-55249000D02*
X193301766Y-54963285D01*
X193301766Y-54963285D02*
X193158909Y-54677571D01*
X193158909Y-54677571D02*
X193016052Y-54534714D01*
X193016052Y-54534714D02*
X192730337Y-54391857D01*
X192730337Y-54391857D02*
X192016052Y-54391857D01*
X192016052Y-54391857D02*
X191587480Y-54534714D01*
X189158909Y-57249000D02*
X189444623Y-57391857D01*
X189444623Y-57391857D02*
X190016052Y-57391857D01*
X190016052Y-57391857D02*
X190301766Y-57249000D01*
X190301766Y-57249000D02*
X190444623Y-56963285D01*
X190444623Y-56963285D02*
X190444623Y-55820428D01*
X190444623Y-55820428D02*
X190301766Y-55534714D01*
X190301766Y-55534714D02*
X190016052Y-55391857D01*
X190016052Y-55391857D02*
X189444623Y-55391857D01*
X189444623Y-55391857D02*
X189158909Y-55534714D01*
X189158909Y-55534714D02*
X189016052Y-55820428D01*
X189016052Y-55820428D02*
X189016052Y-56106142D01*
X189016052Y-56106142D02*
X190444623Y-56391857D01*
X187730337Y-55391857D02*
X187730337Y-57391857D01*
X187730337Y-55677571D02*
X187587480Y-55534714D01*
X187587480Y-55534714D02*
X187301765Y-55391857D01*
X187301765Y-55391857D02*
X186873194Y-55391857D01*
X186873194Y-55391857D02*
X186587480Y-55534714D01*
X186587480Y-55534714D02*
X186444623Y-55820428D01*
X186444623Y-55820428D02*
X186444623Y-57391857D01*
X185158908Y-57249000D02*
X184873194Y-57391857D01*
X184873194Y-57391857D02*
X184301765Y-57391857D01*
X184301765Y-57391857D02*
X184016051Y-57249000D01*
X184016051Y-57249000D02*
X183873194Y-56963285D01*
X183873194Y-56963285D02*
X183873194Y-56820428D01*
X183873194Y-56820428D02*
X184016051Y-56534714D01*
X184016051Y-56534714D02*
X184301765Y-56391857D01*
X184301765Y-56391857D02*
X184730337Y-56391857D01*
X184730337Y-56391857D02*
X185016051Y-56249000D01*
X185016051Y-56249000D02*
X185158908Y-55963285D01*
X185158908Y-55963285D02*
X185158908Y-55820428D01*
X185158908Y-55820428D02*
X185016051Y-55534714D01*
X185016051Y-55534714D02*
X184730337Y-55391857D01*
X184730337Y-55391857D02*
X184301765Y-55391857D01*
X184301765Y-55391857D02*
X184016051Y-55534714D01*
X182158908Y-57391857D02*
X182444623Y-57249000D01*
X182444623Y-57249000D02*
X182587480Y-57106142D01*
X182587480Y-57106142D02*
X182730337Y-56820428D01*
X182730337Y-56820428D02*
X182730337Y-55963285D01*
X182730337Y-55963285D02*
X182587480Y-55677571D01*
X182587480Y-55677571D02*
X182444623Y-55534714D01*
X182444623Y-55534714D02*
X182158908Y-55391857D01*
X182158908Y-55391857D02*
X181730337Y-55391857D01*
X181730337Y-55391857D02*
X181444623Y-55534714D01*
X181444623Y-55534714D02*
X181301766Y-55677571D01*
X181301766Y-55677571D02*
X181158908Y-55963285D01*
X181158908Y-55963285D02*
X181158908Y-56820428D01*
X181158908Y-56820428D02*
X181301766Y-57106142D01*
X181301766Y-57106142D02*
X181444623Y-57249000D01*
X181444623Y-57249000D02*
X181730337Y-57391857D01*
X181730337Y-57391857D02*
X182158908Y-57391857D01*
X179873194Y-57391857D02*
X179873194Y-55391857D01*
X179873194Y-55963285D02*
X179730337Y-55677571D01*
X179730337Y-55677571D02*
X179587480Y-55534714D01*
X179587480Y-55534714D02*
X179301765Y-55391857D01*
X179301765Y-55391857D02*
X179016051Y-55391857D01*
X174730337Y-55820428D02*
X174301765Y-55963285D01*
X174301765Y-55963285D02*
X174158908Y-56106142D01*
X174158908Y-56106142D02*
X174016051Y-56391857D01*
X174016051Y-56391857D02*
X174016051Y-56820428D01*
X174016051Y-56820428D02*
X174158908Y-57106142D01*
X174158908Y-57106142D02*
X174301765Y-57249000D01*
X174301765Y-57249000D02*
X174587480Y-57391857D01*
X174587480Y-57391857D02*
X175730337Y-57391857D01*
X175730337Y-57391857D02*
X175730337Y-54391857D01*
X175730337Y-54391857D02*
X174730337Y-54391857D01*
X174730337Y-54391857D02*
X174444623Y-54534714D01*
X174444623Y-54534714D02*
X174301765Y-54677571D01*
X174301765Y-54677571D02*
X174158908Y-54963285D01*
X174158908Y-54963285D02*
X174158908Y-55249000D01*
X174158908Y-55249000D02*
X174301765Y-55534714D01*
X174301765Y-55534714D02*
X174444623Y-55677571D01*
X174444623Y-55677571D02*
X174730337Y-55820428D01*
X174730337Y-55820428D02*
X175730337Y-55820428D01*
X172301765Y-57391857D02*
X172587480Y-57249000D01*
X172587480Y-57249000D02*
X172730337Y-57106142D01*
X172730337Y-57106142D02*
X172873194Y-56820428D01*
X172873194Y-56820428D02*
X172873194Y-55963285D01*
X172873194Y-55963285D02*
X172730337Y-55677571D01*
X172730337Y-55677571D02*
X172587480Y-55534714D01*
X172587480Y-55534714D02*
X172301765Y-55391857D01*
X172301765Y-55391857D02*
X171873194Y-55391857D01*
X171873194Y-55391857D02*
X171587480Y-55534714D01*
X171587480Y-55534714D02*
X171444623Y-55677571D01*
X171444623Y-55677571D02*
X171301765Y-55963285D01*
X171301765Y-55963285D02*
X171301765Y-56820428D01*
X171301765Y-56820428D02*
X171444623Y-57106142D01*
X171444623Y-57106142D02*
X171587480Y-57249000D01*
X171587480Y-57249000D02*
X171873194Y-57391857D01*
X171873194Y-57391857D02*
X172301765Y-57391857D01*
X168730337Y-57391857D02*
X168730337Y-55820428D01*
X168730337Y-55820428D02*
X168873194Y-55534714D01*
X168873194Y-55534714D02*
X169158908Y-55391857D01*
X169158908Y-55391857D02*
X169730337Y-55391857D01*
X169730337Y-55391857D02*
X170016051Y-55534714D01*
X168730337Y-57249000D02*
X169016051Y-57391857D01*
X169016051Y-57391857D02*
X169730337Y-57391857D01*
X169730337Y-57391857D02*
X170016051Y-57249000D01*
X170016051Y-57249000D02*
X170158908Y-56963285D01*
X170158908Y-56963285D02*
X170158908Y-56677571D01*
X170158908Y-56677571D02*
X170016051Y-56391857D01*
X170016051Y-56391857D02*
X169730337Y-56249000D01*
X169730337Y-56249000D02*
X169016051Y-56249000D01*
X169016051Y-56249000D02*
X168730337Y-56106142D01*
X167301765Y-57391857D02*
X167301765Y-55391857D01*
X167301765Y-55963285D02*
X167158908Y-55677571D01*
X167158908Y-55677571D02*
X167016051Y-55534714D01*
X167016051Y-55534714D02*
X166730336Y-55391857D01*
X166730336Y-55391857D02*
X166444622Y-55391857D01*
X164158908Y-57391857D02*
X164158908Y-54391857D01*
X164158908Y-57249000D02*
X164444622Y-57391857D01*
X164444622Y-57391857D02*
X165016050Y-57391857D01*
X165016050Y-57391857D02*
X165301765Y-57249000D01*
X165301765Y-57249000D02*
X165444622Y-57106142D01*
X165444622Y-57106142D02*
X165587479Y-56820428D01*
X165587479Y-56820428D02*
X165587479Y-55963285D01*
X165587479Y-55963285D02*
X165444622Y-55677571D01*
X165444622Y-55677571D02*
X165301765Y-55534714D01*
X165301765Y-55534714D02*
X165016050Y-55391857D01*
X165016050Y-55391857D02*
X164444622Y-55391857D01*
X164444622Y-55391857D02*
X164158908Y-55534714D01*
D12*
%TO.C,REF\u002A\u002A*%
X156360678Y-85534039D02*
X156412351Y-85565575D01*
X156465891Y-85608929D01*
X156465891Y-86909622D01*
X156412351Y-86952976D01*
X156349350Y-86988081D01*
X156277430Y-86989760D01*
X156214272Y-86948591D01*
X156206485Y-86939219D01*
X156195504Y-86920199D01*
X156187052Y-86892714D01*
X156180801Y-86851492D01*
X156176422Y-86791265D01*
X156173588Y-86706761D01*
X156171970Y-86592710D01*
X156171240Y-86443844D01*
X156171069Y-86254891D01*
X156171069Y-85608929D01*
X156224608Y-85565575D01*
X156272246Y-85535903D01*
X156318480Y-85522222D01*
X156360678Y-85534039D01*
G36*
X156360678Y-85534039D02*
G01*
X156412351Y-85565575D01*
X156465891Y-85608929D01*
X156465891Y-86909622D01*
X156412351Y-86952976D01*
X156349350Y-86988081D01*
X156277430Y-86989760D01*
X156214272Y-86948591D01*
X156206485Y-86939219D01*
X156195504Y-86920199D01*
X156187052Y-86892714D01*
X156180801Y-86851492D01*
X156176422Y-86791265D01*
X156173588Y-86706761D01*
X156171970Y-86592710D01*
X156171240Y-86443844D01*
X156171069Y-86254891D01*
X156171069Y-85608929D01*
X156224608Y-85565575D01*
X156272246Y-85535903D01*
X156318480Y-85522222D01*
X156360678Y-85534039D01*
G37*
X170685807Y-85531054D02*
X170754421Y-85577887D01*
X170810087Y-85633553D01*
X170810087Y-86262452D01*
X170810005Y-86431263D01*
X170809485Y-86580369D01*
X170808138Y-86694380D01*
X170805571Y-86778697D01*
X170801395Y-86838718D01*
X170795218Y-86879844D01*
X170786650Y-86907473D01*
X170775300Y-86927006D01*
X170760777Y-86943840D01*
X170697569Y-86986960D01*
X170626924Y-86990509D01*
X170560623Y-86950972D01*
X170549962Y-86939182D01*
X170539014Y-86920933D01*
X170530645Y-86894131D01*
X170524509Y-86853519D01*
X170520262Y-86793838D01*
X170517559Y-86709830D01*
X170516055Y-86596239D01*
X170515406Y-86447807D01*
X170515266Y-86259275D01*
X170515345Y-86107277D01*
X170515857Y-85950763D01*
X170517151Y-85830207D01*
X170519570Y-85740353D01*
X170523460Y-85675942D01*
X170529166Y-85631717D01*
X170537032Y-85602420D01*
X170547402Y-85582793D01*
X170560623Y-85567579D01*
X170619250Y-85529367D01*
X170685807Y-85531054D01*
G36*
X170685807Y-85531054D02*
G01*
X170754421Y-85577887D01*
X170810087Y-85633553D01*
X170810087Y-86262452D01*
X170810005Y-86431263D01*
X170809485Y-86580369D01*
X170808138Y-86694380D01*
X170805571Y-86778697D01*
X170801395Y-86838718D01*
X170795218Y-86879844D01*
X170786650Y-86907473D01*
X170775300Y-86927006D01*
X170760777Y-86943840D01*
X170697569Y-86986960D01*
X170626924Y-86990509D01*
X170560623Y-86950972D01*
X170549962Y-86939182D01*
X170539014Y-86920933D01*
X170530645Y-86894131D01*
X170524509Y-86853519D01*
X170520262Y-86793838D01*
X170517559Y-86709830D01*
X170516055Y-86596239D01*
X170515406Y-86447807D01*
X170515266Y-86259275D01*
X170515345Y-86107277D01*
X170515857Y-85950763D01*
X170517151Y-85830207D01*
X170519570Y-85740353D01*
X170523460Y-85675942D01*
X170529166Y-85631717D01*
X170537032Y-85602420D01*
X170547402Y-85582793D01*
X170560623Y-85567579D01*
X170619250Y-85529367D01*
X170685807Y-85531054D01*
G37*
X170742293Y-72690240D02*
X170952206Y-72741672D01*
X171151180Y-72833982D01*
X171332945Y-72967186D01*
X171491231Y-73141296D01*
X171619766Y-73356329D01*
X171654226Y-73432080D01*
X171682143Y-73508859D01*
X171697807Y-73585615D01*
X171704673Y-73680554D01*
X171706195Y-73811880D01*
X171705275Y-73921186D01*
X171699732Y-74021641D01*
X171686142Y-74100016D01*
X171661110Y-74174311D01*
X171621245Y-74262525D01*
X171609713Y-74286033D01*
X171473408Y-74501289D01*
X171301974Y-74678396D01*
X171100278Y-74813197D01*
X170873184Y-74901536D01*
X170756660Y-74926188D01*
X170520268Y-74937723D01*
X170291307Y-74900398D01*
X170076491Y-74818039D01*
X169882535Y-74694473D01*
X169716151Y-74533528D01*
X169584055Y-74339030D01*
X169492960Y-74114805D01*
X169459631Y-73931311D01*
X169456628Y-73728817D01*
X169483735Y-73531849D01*
X169539661Y-73361235D01*
X169604280Y-73239257D01*
X169748136Y-73045731D01*
X169918678Y-72892995D01*
X170109635Y-72781063D01*
X170314737Y-72709950D01*
X170527714Y-72679671D01*
X170742293Y-72690240D01*
G36*
X170742293Y-72690240D02*
G01*
X170952206Y-72741672D01*
X171151180Y-72833982D01*
X171332945Y-72967186D01*
X171491231Y-73141296D01*
X171619766Y-73356329D01*
X171654226Y-73432080D01*
X171682143Y-73508859D01*
X171697807Y-73585615D01*
X171704673Y-73680554D01*
X171706195Y-73811880D01*
X171705275Y-73921186D01*
X171699732Y-74021641D01*
X171686142Y-74100016D01*
X171661110Y-74174311D01*
X171621245Y-74262525D01*
X171609713Y-74286033D01*
X171473408Y-74501289D01*
X171301974Y-74678396D01*
X171100278Y-74813197D01*
X170873184Y-74901536D01*
X170756660Y-74926188D01*
X170520268Y-74937723D01*
X170291307Y-74900398D01*
X170076491Y-74818039D01*
X169882535Y-74694473D01*
X169716151Y-74533528D01*
X169584055Y-74339030D01*
X169492960Y-74114805D01*
X169459631Y-73931311D01*
X169456628Y-73728817D01*
X169483735Y-73531849D01*
X169539661Y-73361235D01*
X169604280Y-73239257D01*
X169748136Y-73045731D01*
X169918678Y-72892995D01*
X170109635Y-72781063D01*
X170314737Y-72709950D01*
X170527714Y-72679671D01*
X170742293Y-72690240D01*
G37*
X154955155Y-85522225D02*
X155144241Y-85522405D01*
X155293935Y-85523088D01*
X155409261Y-85524578D01*
X155495243Y-85527180D01*
X155556903Y-85531201D01*
X155599265Y-85536946D01*
X155627353Y-85544721D01*
X155646191Y-85554830D01*
X155660801Y-85567579D01*
X155698581Y-85633306D01*
X155701487Y-85708796D01*
X155668626Y-85775570D01*
X155665893Y-85778490D01*
X155643387Y-85795285D01*
X155609030Y-85806445D01*
X155554448Y-85813062D01*
X155471271Y-85816230D01*
X155351126Y-85817043D01*
X155071158Y-85817043D01*
X155071158Y-86346931D01*
X155071007Y-86499264D01*
X155070187Y-86633192D01*
X155068214Y-86733204D01*
X155064606Y-86805359D01*
X155058879Y-86855715D01*
X155050550Y-86890331D01*
X155039136Y-86915264D01*
X155024155Y-86936574D01*
X155019553Y-86942211D01*
X154956919Y-86987698D01*
X154887854Y-86990840D01*
X154821694Y-86950972D01*
X154807675Y-86934748D01*
X154796682Y-86913457D01*
X154788606Y-86881629D01*
X154782999Y-86833462D01*
X154779415Y-86763151D01*
X154777407Y-86664895D01*
X154776530Y-86532888D01*
X154776337Y-86361329D01*
X154776337Y-85817043D01*
X154483162Y-85817043D01*
X154460863Y-85817041D01*
X154347323Y-85816589D01*
X154269287Y-85814301D01*
X154218276Y-85808676D01*
X154185808Y-85798216D01*
X154163405Y-85781418D01*
X154142586Y-85756783D01*
X154110750Y-85695134D01*
X154116982Y-85627271D01*
X154168499Y-85561909D01*
X154178425Y-85554441D01*
X154198936Y-85544726D01*
X154229925Y-85537166D01*
X154276374Y-85531496D01*
X154343267Y-85527451D01*
X154435585Y-85524766D01*
X154558312Y-85523176D01*
X154716430Y-85522416D01*
X154914921Y-85522222D01*
X154955155Y-85522225D01*
G36*
X154955155Y-85522225D02*
G01*
X155144241Y-85522405D01*
X155293935Y-85523088D01*
X155409261Y-85524578D01*
X155495243Y-85527180D01*
X155556903Y-85531201D01*
X155599265Y-85536946D01*
X155627353Y-85544721D01*
X155646191Y-85554830D01*
X155660801Y-85567579D01*
X155698581Y-85633306D01*
X155701487Y-85708796D01*
X155668626Y-85775570D01*
X155665893Y-85778490D01*
X155643387Y-85795285D01*
X155609030Y-85806445D01*
X155554448Y-85813062D01*
X155471271Y-85816230D01*
X155351126Y-85817043D01*
X155071158Y-85817043D01*
X155071158Y-86346931D01*
X155071007Y-86499264D01*
X155070187Y-86633192D01*
X155068214Y-86733204D01*
X155064606Y-86805359D01*
X155058879Y-86855715D01*
X155050550Y-86890331D01*
X155039136Y-86915264D01*
X155024155Y-86936574D01*
X155019553Y-86942211D01*
X154956919Y-86987698D01*
X154887854Y-86990840D01*
X154821694Y-86950972D01*
X154807675Y-86934748D01*
X154796682Y-86913457D01*
X154788606Y-86881629D01*
X154782999Y-86833462D01*
X154779415Y-86763151D01*
X154777407Y-86664895D01*
X154776530Y-86532888D01*
X154776337Y-86361329D01*
X154776337Y-85817043D01*
X154483162Y-85817043D01*
X154460863Y-85817041D01*
X154347323Y-85816589D01*
X154269287Y-85814301D01*
X154218276Y-85808676D01*
X154185808Y-85798216D01*
X154163405Y-85781418D01*
X154142586Y-85756783D01*
X154110750Y-85695134D01*
X154116982Y-85627271D01*
X154168499Y-85561909D01*
X154178425Y-85554441D01*
X154198936Y-85544726D01*
X154229925Y-85537166D01*
X154276374Y-85531496D01*
X154343267Y-85527451D01*
X154435585Y-85524766D01*
X154558312Y-85523176D01*
X154716430Y-85522416D01*
X154914921Y-85522222D01*
X154955155Y-85522225D01*
G37*
X153597051Y-85567579D02*
X153608366Y-85580015D01*
X153618593Y-85596499D01*
X153626802Y-85620158D01*
X153633186Y-85655232D01*
X153637940Y-85705965D01*
X153641256Y-85776599D01*
X153643328Y-85871377D01*
X153644349Y-85994541D01*
X153644512Y-86150334D01*
X153644011Y-86342998D01*
X153643039Y-86576775D01*
X153642902Y-86605252D01*
X153641724Y-86729328D01*
X153639068Y-86817084D01*
X153633954Y-86876107D01*
X153625405Y-86913983D01*
X153612445Y-86938299D01*
X153594094Y-86956641D01*
X153526881Y-86991631D01*
X153456672Y-86985802D01*
X153394590Y-86936574D01*
X153376491Y-86910050D01*
X153361522Y-86872814D01*
X153352747Y-86820524D01*
X153348619Y-86743088D01*
X153347587Y-86630413D01*
X153347587Y-86384008D01*
X152349730Y-86384008D01*
X152349730Y-86654864D01*
X152349583Y-86726766D01*
X152348051Y-86819839D01*
X152343679Y-86881181D01*
X152335047Y-86919411D01*
X152320736Y-86943152D01*
X152299327Y-86961025D01*
X152234536Y-86991299D01*
X152163648Y-86985941D01*
X152101912Y-86936574D01*
X152092559Y-86924009D01*
X152080635Y-86902866D01*
X152071532Y-86874883D01*
X152064871Y-86834555D01*
X152060273Y-86776382D01*
X152057356Y-86694861D01*
X152055743Y-86584489D01*
X152055054Y-86439765D01*
X152054908Y-86255186D01*
X152054908Y-85633553D01*
X152110574Y-85577887D01*
X152173611Y-85533203D01*
X152240366Y-85527800D01*
X152304373Y-85567579D01*
X152321018Y-85587207D01*
X152335908Y-85619133D01*
X152344622Y-85667282D01*
X152348712Y-85741357D01*
X152349730Y-85851061D01*
X152349730Y-86089186D01*
X153347587Y-86089186D01*
X153347587Y-85861370D01*
X153347588Y-85857128D01*
X153348467Y-85753272D01*
X153352412Y-85683914D01*
X153361484Y-85638561D01*
X153377744Y-85606716D01*
X153403253Y-85577887D01*
X153466290Y-85533203D01*
X153533044Y-85527800D01*
X153597051Y-85567579D01*
G36*
X153597051Y-85567579D02*
G01*
X153608366Y-85580015D01*
X153618593Y-85596499D01*
X153626802Y-85620158D01*
X153633186Y-85655232D01*
X153637940Y-85705965D01*
X153641256Y-85776599D01*
X153643328Y-85871377D01*
X153644349Y-85994541D01*
X153644512Y-86150334D01*
X153644011Y-86342998D01*
X153643039Y-86576775D01*
X153642902Y-86605252D01*
X153641724Y-86729328D01*
X153639068Y-86817084D01*
X153633954Y-86876107D01*
X153625405Y-86913983D01*
X153612445Y-86938299D01*
X153594094Y-86956641D01*
X153526881Y-86991631D01*
X153456672Y-86985802D01*
X153394590Y-86936574D01*
X153376491Y-86910050D01*
X153361522Y-86872814D01*
X153352747Y-86820524D01*
X153348619Y-86743088D01*
X153347587Y-86630413D01*
X153347587Y-86384008D01*
X152349730Y-86384008D01*
X152349730Y-86654864D01*
X152349583Y-86726766D01*
X152348051Y-86819839D01*
X152343679Y-86881181D01*
X152335047Y-86919411D01*
X152320736Y-86943152D01*
X152299327Y-86961025D01*
X152234536Y-86991299D01*
X152163648Y-86985941D01*
X152101912Y-86936574D01*
X152092559Y-86924009D01*
X152080635Y-86902866D01*
X152071532Y-86874883D01*
X152064871Y-86834555D01*
X152060273Y-86776382D01*
X152057356Y-86694861D01*
X152055743Y-86584489D01*
X152055054Y-86439765D01*
X152054908Y-86255186D01*
X152054908Y-85633553D01*
X152110574Y-85577887D01*
X152173611Y-85533203D01*
X152240366Y-85527800D01*
X152304373Y-85567579D01*
X152321018Y-85587207D01*
X152335908Y-85619133D01*
X152344622Y-85667282D01*
X152348712Y-85741357D01*
X152349730Y-85851061D01*
X152349730Y-86089186D01*
X153347587Y-86089186D01*
X153347587Y-85861370D01*
X153347588Y-85857128D01*
X153348467Y-85753272D01*
X153352412Y-85683914D01*
X153361484Y-85638561D01*
X153377744Y-85606716D01*
X153403253Y-85577887D01*
X153466290Y-85533203D01*
X153533044Y-85527800D01*
X153597051Y-85567579D01*
G37*
X163049862Y-86750339D02*
X163045906Y-86816188D01*
X163040022Y-86862235D01*
X163031832Y-86893979D01*
X163020955Y-86916925D01*
X163007012Y-86936574D01*
X162960009Y-86996329D01*
X162627146Y-86995136D01*
X162557244Y-86994537D01*
X162359398Y-86987645D01*
X162196752Y-86972212D01*
X162061964Y-86946985D01*
X161947689Y-86910714D01*
X161846586Y-86862148D01*
X161839839Y-86858297D01*
X161723699Y-86784533D01*
X161638613Y-86710271D01*
X161572687Y-86622912D01*
X161514027Y-86509855D01*
X161505425Y-86490539D01*
X161460068Y-86363603D01*
X161448548Y-86272086D01*
X161748371Y-86272086D01*
X161759646Y-86321764D01*
X161771150Y-86353661D01*
X161837303Y-86474013D01*
X161932403Y-86565928D01*
X162060503Y-86632494D01*
X162225655Y-86676800D01*
X162231268Y-86677809D01*
X162324252Y-86689787D01*
X162437548Y-86698280D01*
X162547913Y-86701508D01*
X162736516Y-86701508D01*
X162736516Y-85817043D01*
X162560757Y-85817943D01*
X162426320Y-85822918D01*
X162240699Y-85845521D01*
X162081361Y-85884774D01*
X161956858Y-85938963D01*
X161894702Y-85980605D01*
X161838211Y-86040403D01*
X161791324Y-86125638D01*
X161777006Y-86157713D01*
X161753253Y-86223006D01*
X161748371Y-86272086D01*
X161448548Y-86272086D01*
X161446064Y-86252352D01*
X161463344Y-86141808D01*
X161511843Y-86016989D01*
X161513442Y-86013588D01*
X161594706Y-85874125D01*
X161696527Y-85760422D01*
X161822538Y-85670889D01*
X161976374Y-85603934D01*
X162161667Y-85557969D01*
X162382052Y-85531401D01*
X162641163Y-85522640D01*
X162648338Y-85522630D01*
X162768915Y-85522911D01*
X162853150Y-85524993D01*
X162909629Y-85530204D01*
X162946932Y-85539872D01*
X162973645Y-85555324D01*
X162998350Y-85577887D01*
X163054016Y-85633553D01*
X163054016Y-86255186D01*
X163053965Y-86378947D01*
X163053512Y-86537221D01*
X163052271Y-86659184D01*
X163051152Y-86701508D01*
X163049862Y-86750339D01*
G36*
X163049862Y-86750339D02*
G01*
X163045906Y-86816188D01*
X163040022Y-86862235D01*
X163031832Y-86893979D01*
X163020955Y-86916925D01*
X163007012Y-86936574D01*
X162960009Y-86996329D01*
X162627146Y-86995136D01*
X162557244Y-86994537D01*
X162359398Y-86987645D01*
X162196752Y-86972212D01*
X162061964Y-86946985D01*
X161947689Y-86910714D01*
X161846586Y-86862148D01*
X161839839Y-86858297D01*
X161723699Y-86784533D01*
X161638613Y-86710271D01*
X161572687Y-86622912D01*
X161514027Y-86509855D01*
X161505425Y-86490539D01*
X161460068Y-86363603D01*
X161448548Y-86272086D01*
X161748371Y-86272086D01*
X161759646Y-86321764D01*
X161771150Y-86353661D01*
X161837303Y-86474013D01*
X161932403Y-86565928D01*
X162060503Y-86632494D01*
X162225655Y-86676800D01*
X162231268Y-86677809D01*
X162324252Y-86689787D01*
X162437548Y-86698280D01*
X162547913Y-86701508D01*
X162736516Y-86701508D01*
X162736516Y-85817043D01*
X162560757Y-85817943D01*
X162426320Y-85822918D01*
X162240699Y-85845521D01*
X162081361Y-85884774D01*
X161956858Y-85938963D01*
X161894702Y-85980605D01*
X161838211Y-86040403D01*
X161791324Y-86125638D01*
X161777006Y-86157713D01*
X161753253Y-86223006D01*
X161748371Y-86272086D01*
X161448548Y-86272086D01*
X161446064Y-86252352D01*
X161463344Y-86141808D01*
X161511843Y-86016989D01*
X161513442Y-86013588D01*
X161594706Y-85874125D01*
X161696527Y-85760422D01*
X161822538Y-85670889D01*
X161976374Y-85603934D01*
X162161667Y-85557969D01*
X162382052Y-85531401D01*
X162641163Y-85522640D01*
X162648338Y-85522630D01*
X162768915Y-85522911D01*
X162853150Y-85524993D01*
X162909629Y-85530204D01*
X162946932Y-85539872D01*
X162973645Y-85555324D01*
X162998350Y-85577887D01*
X163054016Y-85633553D01*
X163054016Y-86255186D01*
X163053965Y-86378947D01*
X163053512Y-86537221D01*
X163052271Y-86659184D01*
X163051152Y-86701508D01*
X163049862Y-86750339D01*
G37*
X177296550Y-85894597D02*
X177296658Y-86056546D01*
X177296158Y-86259275D01*
X177296079Y-86411273D01*
X177295567Y-86567788D01*
X177294273Y-86688343D01*
X177291854Y-86778198D01*
X177287964Y-86842609D01*
X177282258Y-86886834D01*
X177274393Y-86916131D01*
X177264022Y-86935758D01*
X177250801Y-86950972D01*
X177236805Y-86963495D01*
X177210693Y-86978161D01*
X177172226Y-86987710D01*
X177113155Y-86993210D01*
X177025233Y-86995727D01*
X176900210Y-86996329D01*
X176801880Y-86995575D01*
X176587207Y-86986678D01*
X176407955Y-86966413D01*
X176257691Y-86933089D01*
X176129981Y-86885015D01*
X176018392Y-86820500D01*
X175916490Y-86737856D01*
X175904460Y-86726098D01*
X175830397Y-86628648D01*
X175767920Y-86506488D01*
X175724763Y-86377428D01*
X175714154Y-86299595D01*
X176009903Y-86299595D01*
X176046630Y-86401920D01*
X176106236Y-86494164D01*
X176200047Y-86579362D01*
X176323373Y-86639233D01*
X176482373Y-86677675D01*
X176485366Y-86678154D01*
X176583745Y-86689789D01*
X176701657Y-86698107D01*
X176814239Y-86701336D01*
X177001337Y-86701508D01*
X177001337Y-85817043D01*
X176848257Y-85817014D01*
X176842174Y-85817033D01*
X176739478Y-85820979D01*
X176618736Y-85830472D01*
X176504812Y-85843587D01*
X176404450Y-85862262D01*
X176254279Y-85915033D01*
X176138747Y-85993982D01*
X176055375Y-86100525D01*
X176012751Y-86203515D01*
X176009903Y-86299595D01*
X175714154Y-86299595D01*
X175708658Y-86259275D01*
X175711228Y-86216653D01*
X175735962Y-86101309D01*
X175781221Y-85980952D01*
X175839942Y-85872371D01*
X175905064Y-85792354D01*
X175944322Y-85758156D01*
X176054234Y-85679431D01*
X176175379Y-85618903D01*
X176314389Y-85574786D01*
X176477899Y-85545291D01*
X176672542Y-85528634D01*
X176904953Y-85523026D01*
X176984270Y-85522220D01*
X177076100Y-85521390D01*
X177148021Y-85525015D01*
X177202444Y-85537635D01*
X177241783Y-85563792D01*
X177268451Y-85608026D01*
X177284859Y-85674877D01*
X177293422Y-85768888D01*
X177294621Y-85817043D01*
X177296550Y-85894597D01*
G36*
X177296550Y-85894597D02*
G01*
X177296658Y-86056546D01*
X177296158Y-86259275D01*
X177296079Y-86411273D01*
X177295567Y-86567788D01*
X177294273Y-86688343D01*
X177291854Y-86778198D01*
X177287964Y-86842609D01*
X177282258Y-86886834D01*
X177274393Y-86916131D01*
X177264022Y-86935758D01*
X177250801Y-86950972D01*
X177236805Y-86963495D01*
X177210693Y-86978161D01*
X177172226Y-86987710D01*
X177113155Y-86993210D01*
X177025233Y-86995727D01*
X176900210Y-86996329D01*
X176801880Y-86995575D01*
X176587207Y-86986678D01*
X176407955Y-86966413D01*
X176257691Y-86933089D01*
X176129981Y-86885015D01*
X176018392Y-86820500D01*
X175916490Y-86737856D01*
X175904460Y-86726098D01*
X175830397Y-86628648D01*
X175767920Y-86506488D01*
X175724763Y-86377428D01*
X175714154Y-86299595D01*
X176009903Y-86299595D01*
X176046630Y-86401920D01*
X176106236Y-86494164D01*
X176200047Y-86579362D01*
X176323373Y-86639233D01*
X176482373Y-86677675D01*
X176485366Y-86678154D01*
X176583745Y-86689789D01*
X176701657Y-86698107D01*
X176814239Y-86701336D01*
X177001337Y-86701508D01*
X177001337Y-85817043D01*
X176848257Y-85817014D01*
X176842174Y-85817033D01*
X176739478Y-85820979D01*
X176618736Y-85830472D01*
X176504812Y-85843587D01*
X176404450Y-85862262D01*
X176254279Y-85915033D01*
X176138747Y-85993982D01*
X176055375Y-86100525D01*
X176012751Y-86203515D01*
X176009903Y-86299595D01*
X175714154Y-86299595D01*
X175708658Y-86259275D01*
X175711228Y-86216653D01*
X175735962Y-86101309D01*
X175781221Y-85980952D01*
X175839942Y-85872371D01*
X175905064Y-85792354D01*
X175944322Y-85758156D01*
X176054234Y-85679431D01*
X176175379Y-85618903D01*
X176314389Y-85574786D01*
X176477899Y-85545291D01*
X176672542Y-85528634D01*
X176904953Y-85523026D01*
X176984270Y-85522220D01*
X177076100Y-85521390D01*
X177148021Y-85525015D01*
X177202444Y-85537635D01*
X177241783Y-85563792D01*
X177268451Y-85608026D01*
X177284859Y-85674877D01*
X177293422Y-85768888D01*
X177294621Y-85817043D01*
X177296550Y-85894597D01*
G37*
X167362551Y-85519861D02*
X167385468Y-85532191D01*
X167406659Y-85553609D01*
X167429334Y-85581977D01*
X167438279Y-85593952D01*
X167450330Y-85615036D01*
X167459530Y-85642810D01*
X167466262Y-85682797D01*
X167470912Y-85740522D01*
X167473860Y-85821509D01*
X167475492Y-85931281D01*
X167476190Y-86075362D01*
X167476337Y-86259275D01*
X167476291Y-86376858D01*
X167475852Y-86535740D01*
X167474629Y-86658168D01*
X167472237Y-86749669D01*
X167468293Y-86815764D01*
X167462414Y-86861978D01*
X167454217Y-86893835D01*
X167443318Y-86916859D01*
X167429334Y-86936574D01*
X167368205Y-86985578D01*
X167298007Y-86991363D01*
X167223716Y-86953012D01*
X167215310Y-86946030D01*
X167198885Y-86928899D01*
X167186710Y-86905694D01*
X167177906Y-86869870D01*
X167171594Y-86814881D01*
X167166898Y-86734183D01*
X167162938Y-86621230D01*
X167158837Y-86469476D01*
X167147498Y-86029258D01*
X166614551Y-86512688D01*
X166466224Y-86646837D01*
X166335283Y-86763588D01*
X166230428Y-86853905D01*
X166147913Y-86920043D01*
X166083991Y-86964255D01*
X166034916Y-86988794D01*
X165996943Y-86995917D01*
X165966326Y-86987875D01*
X165939317Y-86966924D01*
X165912173Y-86935317D01*
X165899626Y-86918274D01*
X165888313Y-86897025D01*
X165879853Y-86868582D01*
X165873923Y-86827495D01*
X165870196Y-86768311D01*
X165868350Y-86685580D01*
X165868058Y-86573850D01*
X165868996Y-86427670D01*
X165870839Y-86241588D01*
X165877498Y-85608871D01*
X165931037Y-85565546D01*
X165983400Y-85533019D01*
X166049410Y-85527452D01*
X166118780Y-85565527D01*
X166127442Y-85572728D01*
X166143779Y-85589864D01*
X166155891Y-85613151D01*
X166164652Y-85649122D01*
X166170935Y-85704309D01*
X166175615Y-85785246D01*
X166179564Y-85898463D01*
X166183658Y-86050494D01*
X166194998Y-86492156D01*
X166557855Y-86163105D01*
X166732105Y-86005136D01*
X166884325Y-85867739D01*
X167009153Y-85756546D01*
X167109796Y-85669418D01*
X167189465Y-85604214D01*
X167251366Y-85558796D01*
X167298708Y-85531024D01*
X167334701Y-85518759D01*
X167362551Y-85519861D01*
G36*
X167362551Y-85519861D02*
G01*
X167385468Y-85532191D01*
X167406659Y-85553609D01*
X167429334Y-85581977D01*
X167438279Y-85593952D01*
X167450330Y-85615036D01*
X167459530Y-85642810D01*
X167466262Y-85682797D01*
X167470912Y-85740522D01*
X167473860Y-85821509D01*
X167475492Y-85931281D01*
X167476190Y-86075362D01*
X167476337Y-86259275D01*
X167476291Y-86376858D01*
X167475852Y-86535740D01*
X167474629Y-86658168D01*
X167472237Y-86749669D01*
X167468293Y-86815764D01*
X167462414Y-86861978D01*
X167454217Y-86893835D01*
X167443318Y-86916859D01*
X167429334Y-86936574D01*
X167368205Y-86985578D01*
X167298007Y-86991363D01*
X167223716Y-86953012D01*
X167215310Y-86946030D01*
X167198885Y-86928899D01*
X167186710Y-86905694D01*
X167177906Y-86869870D01*
X167171594Y-86814881D01*
X167166898Y-86734183D01*
X167162938Y-86621230D01*
X167158837Y-86469476D01*
X167147498Y-86029258D01*
X166614551Y-86512688D01*
X166466224Y-86646837D01*
X166335283Y-86763588D01*
X166230428Y-86853905D01*
X166147913Y-86920043D01*
X166083991Y-86964255D01*
X166034916Y-86988794D01*
X165996943Y-86995917D01*
X165966326Y-86987875D01*
X165939317Y-86966924D01*
X165912173Y-86935317D01*
X165899626Y-86918274D01*
X165888313Y-86897025D01*
X165879853Y-86868582D01*
X165873923Y-86827495D01*
X165870196Y-86768311D01*
X165868350Y-86685580D01*
X165868058Y-86573850D01*
X165868996Y-86427670D01*
X165870839Y-86241588D01*
X165877498Y-85608871D01*
X165931037Y-85565546D01*
X165983400Y-85533019D01*
X166049410Y-85527452D01*
X166118780Y-85565527D01*
X166127442Y-85572728D01*
X166143779Y-85589864D01*
X166155891Y-85613151D01*
X166164652Y-85649122D01*
X166170935Y-85704309D01*
X166175615Y-85785246D01*
X166179564Y-85898463D01*
X166183658Y-86050494D01*
X166194998Y-86492156D01*
X166557855Y-86163105D01*
X166732105Y-86005136D01*
X166884325Y-85867739D01*
X167009153Y-85756546D01*
X167109796Y-85669418D01*
X167189465Y-85604214D01*
X167251366Y-85558796D01*
X167298708Y-85531024D01*
X167334701Y-85518759D01*
X167362551Y-85519861D01*
G37*
X168964183Y-85532492D02*
X169177142Y-85565268D01*
X169365605Y-85621621D01*
X169523899Y-85699781D01*
X169646352Y-85797981D01*
X169698725Y-85863998D01*
X169758004Y-85962835D01*
X169808773Y-86071032D01*
X169844229Y-86173823D01*
X169857569Y-86256440D01*
X169854436Y-86296046D01*
X169828437Y-86399169D01*
X169781904Y-86512727D01*
X169721854Y-86621042D01*
X169655301Y-86708438D01*
X169634817Y-86729227D01*
X169500047Y-86833239D01*
X169339081Y-86913380D01*
X169165891Y-86962401D01*
X169055471Y-86978698D01*
X168867731Y-86991966D01*
X168687369Y-86987773D01*
X168521653Y-86967191D01*
X168377848Y-86931291D01*
X168263223Y-86881145D01*
X168185042Y-86817822D01*
X168182279Y-86813853D01*
X168168040Y-86763176D01*
X168159525Y-86668252D01*
X168156694Y-86528704D01*
X168158422Y-86403683D01*
X168167903Y-86308495D01*
X168191387Y-86244002D01*
X168235120Y-86204722D01*
X168305350Y-86185175D01*
X168408324Y-86179877D01*
X168550288Y-86183349D01*
X168647963Y-86189400D01*
X168748803Y-86205858D01*
X168814081Y-86234090D01*
X168849154Y-86276751D01*
X168859383Y-86336496D01*
X168859169Y-86345619D01*
X168841687Y-86415518D01*
X168793454Y-86462561D01*
X168710555Y-86489079D01*
X168589078Y-86497400D01*
X168451516Y-86497400D01*
X168451516Y-86574447D01*
X168451617Y-86592799D01*
X168456078Y-86627455D01*
X168474695Y-86648135D01*
X168517647Y-86662072D01*
X168595114Y-86676501D01*
X168606111Y-86678377D01*
X168800878Y-86698272D01*
X168981664Y-86692408D01*
X169144202Y-86662816D01*
X169284222Y-86611527D01*
X169397455Y-86540571D01*
X169479632Y-86451979D01*
X169526484Y-86347782D01*
X169533741Y-86230011D01*
X169522654Y-86171963D01*
X169469049Y-86059685D01*
X169376259Y-85967958D01*
X169245716Y-85897975D01*
X169078851Y-85850929D01*
X169029282Y-85841992D01*
X168849827Y-85820899D01*
X168689499Y-85823369D01*
X168532617Y-85849355D01*
X168462016Y-85862994D01*
X168370735Y-85865039D01*
X168307826Y-85839864D01*
X168267339Y-85786051D01*
X168254514Y-85729304D01*
X168273572Y-85666577D01*
X168292313Y-85639607D01*
X168361087Y-85592334D01*
X168466801Y-85556431D01*
X168604446Y-85533335D01*
X168769016Y-85524483D01*
X168964183Y-85532492D01*
G36*
X168964183Y-85532492D02*
G01*
X169177142Y-85565268D01*
X169365605Y-85621621D01*
X169523899Y-85699781D01*
X169646352Y-85797981D01*
X169698725Y-85863998D01*
X169758004Y-85962835D01*
X169808773Y-86071032D01*
X169844229Y-86173823D01*
X169857569Y-86256440D01*
X169854436Y-86296046D01*
X169828437Y-86399169D01*
X169781904Y-86512727D01*
X169721854Y-86621042D01*
X169655301Y-86708438D01*
X169634817Y-86729227D01*
X169500047Y-86833239D01*
X169339081Y-86913380D01*
X169165891Y-86962401D01*
X169055471Y-86978698D01*
X168867731Y-86991966D01*
X168687369Y-86987773D01*
X168521653Y-86967191D01*
X168377848Y-86931291D01*
X168263223Y-86881145D01*
X168185042Y-86817822D01*
X168182279Y-86813853D01*
X168168040Y-86763176D01*
X168159525Y-86668252D01*
X168156694Y-86528704D01*
X168158422Y-86403683D01*
X168167903Y-86308495D01*
X168191387Y-86244002D01*
X168235120Y-86204722D01*
X168305350Y-86185175D01*
X168408324Y-86179877D01*
X168550288Y-86183349D01*
X168647963Y-86189400D01*
X168748803Y-86205858D01*
X168814081Y-86234090D01*
X168849154Y-86276751D01*
X168859383Y-86336496D01*
X168859169Y-86345619D01*
X168841687Y-86415518D01*
X168793454Y-86462561D01*
X168710555Y-86489079D01*
X168589078Y-86497400D01*
X168451516Y-86497400D01*
X168451516Y-86574447D01*
X168451617Y-86592799D01*
X168456078Y-86627455D01*
X168474695Y-86648135D01*
X168517647Y-86662072D01*
X168595114Y-86676501D01*
X168606111Y-86678377D01*
X168800878Y-86698272D01*
X168981664Y-86692408D01*
X169144202Y-86662816D01*
X169284222Y-86611527D01*
X169397455Y-86540571D01*
X169479632Y-86451979D01*
X169526484Y-86347782D01*
X169533741Y-86230011D01*
X169522654Y-86171963D01*
X169469049Y-86059685D01*
X169376259Y-85967958D01*
X169245716Y-85897975D01*
X169078851Y-85850929D01*
X169029282Y-85841992D01*
X168849827Y-85820899D01*
X168689499Y-85823369D01*
X168532617Y-85849355D01*
X168462016Y-85862994D01*
X168370735Y-85865039D01*
X168307826Y-85839864D01*
X168267339Y-85786051D01*
X168254514Y-85729304D01*
X168273572Y-85666577D01*
X168292313Y-85639607D01*
X168361087Y-85592334D01*
X168466801Y-85556431D01*
X168604446Y-85533335D01*
X168769016Y-85524483D01*
X168964183Y-85532492D01*
G37*
X165048084Y-85581977D02*
X165058026Y-85595404D01*
X165069767Y-85616641D01*
X165078729Y-85644940D01*
X165085286Y-85685772D01*
X165089812Y-85744607D01*
X165092681Y-85826917D01*
X165094267Y-85938171D01*
X165094944Y-86083841D01*
X165095087Y-86269397D01*
X165095029Y-86401819D01*
X165094563Y-86559153D01*
X165093316Y-86680226D01*
X165090920Y-86770423D01*
X165087009Y-86835127D01*
X165081213Y-86879722D01*
X165073165Y-86909593D01*
X165062499Y-86930123D01*
X165048846Y-86946695D01*
X165039776Y-86956052D01*
X165023243Y-86969083D01*
X165000422Y-86978950D01*
X164965732Y-86986092D01*
X164913590Y-86990950D01*
X164838417Y-86993963D01*
X164734631Y-86995571D01*
X164596649Y-86996213D01*
X164418893Y-86996329D01*
X164379368Y-86996316D01*
X164204540Y-86995781D01*
X164068632Y-86994242D01*
X163966268Y-86991401D01*
X163892075Y-86986958D01*
X163840678Y-86980614D01*
X163806703Y-86972069D01*
X163784776Y-86961025D01*
X163763698Y-86940964D01*
X163737057Y-86878453D01*
X163739433Y-86806355D01*
X163771906Y-86742981D01*
X163776304Y-86738408D01*
X163793757Y-86725816D01*
X163820560Y-86716443D01*
X163862713Y-86709821D01*
X163926218Y-86705483D01*
X164017076Y-86702963D01*
X164141287Y-86701794D01*
X164304852Y-86701508D01*
X164800266Y-86701508D01*
X164800266Y-86384008D01*
X164473939Y-86384008D01*
X164402283Y-86383846D01*
X164290245Y-86382244D01*
X164211620Y-86378217D01*
X164158476Y-86370902D01*
X164122883Y-86359434D01*
X164096908Y-86342950D01*
X164089589Y-86336554D01*
X164052610Y-86274327D01*
X164051336Y-86201330D01*
X164086571Y-86133792D01*
X164086695Y-86133654D01*
X164106123Y-86116324D01*
X164132829Y-86104159D01*
X164174428Y-86096261D01*
X164238536Y-86091732D01*
X164332766Y-86089673D01*
X164464734Y-86089186D01*
X164802529Y-86089186D01*
X164795728Y-85958784D01*
X164788926Y-85828383D01*
X164302610Y-85822249D01*
X164252354Y-85821590D01*
X164088386Y-85818618D01*
X163963191Y-85813828D01*
X163871557Y-85805802D01*
X163808271Y-85793118D01*
X163768122Y-85774357D01*
X163745898Y-85748098D01*
X163736385Y-85712920D01*
X163734373Y-85667404D01*
X163734385Y-85662652D01*
X163736703Y-85622411D01*
X163746341Y-85590685D01*
X163768053Y-85566464D01*
X163806593Y-85548739D01*
X163866717Y-85536501D01*
X163953178Y-85528740D01*
X164070731Y-85524446D01*
X164224130Y-85522609D01*
X164418130Y-85522222D01*
X165001081Y-85522222D01*
X165048084Y-85581977D01*
G36*
X165048084Y-85581977D02*
G01*
X165058026Y-85595404D01*
X165069767Y-85616641D01*
X165078729Y-85644940D01*
X165085286Y-85685772D01*
X165089812Y-85744607D01*
X165092681Y-85826917D01*
X165094267Y-85938171D01*
X165094944Y-86083841D01*
X165095087Y-86269397D01*
X165095029Y-86401819D01*
X165094563Y-86559153D01*
X165093316Y-86680226D01*
X165090920Y-86770423D01*
X165087009Y-86835127D01*
X165081213Y-86879722D01*
X165073165Y-86909593D01*
X165062499Y-86930123D01*
X165048846Y-86946695D01*
X165039776Y-86956052D01*
X165023243Y-86969083D01*
X165000422Y-86978950D01*
X164965732Y-86986092D01*
X164913590Y-86990950D01*
X164838417Y-86993963D01*
X164734631Y-86995571D01*
X164596649Y-86996213D01*
X164418893Y-86996329D01*
X164379368Y-86996316D01*
X164204540Y-86995781D01*
X164068632Y-86994242D01*
X163966268Y-86991401D01*
X163892075Y-86986958D01*
X163840678Y-86980614D01*
X163806703Y-86972069D01*
X163784776Y-86961025D01*
X163763698Y-86940964D01*
X163737057Y-86878453D01*
X163739433Y-86806355D01*
X163771906Y-86742981D01*
X163776304Y-86738408D01*
X163793757Y-86725816D01*
X163820560Y-86716443D01*
X163862713Y-86709821D01*
X163926218Y-86705483D01*
X164017076Y-86702963D01*
X164141287Y-86701794D01*
X164304852Y-86701508D01*
X164800266Y-86701508D01*
X164800266Y-86384008D01*
X164473939Y-86384008D01*
X164402283Y-86383846D01*
X164290245Y-86382244D01*
X164211620Y-86378217D01*
X164158476Y-86370902D01*
X164122883Y-86359434D01*
X164096908Y-86342950D01*
X164089589Y-86336554D01*
X164052610Y-86274327D01*
X164051336Y-86201330D01*
X164086571Y-86133792D01*
X164086695Y-86133654D01*
X164106123Y-86116324D01*
X164132829Y-86104159D01*
X164174428Y-86096261D01*
X164238536Y-86091732D01*
X164332766Y-86089673D01*
X164464734Y-86089186D01*
X164802529Y-86089186D01*
X164795728Y-85958784D01*
X164788926Y-85828383D01*
X164302610Y-85822249D01*
X164252354Y-85821590D01*
X164088386Y-85818618D01*
X163963191Y-85813828D01*
X163871557Y-85805802D01*
X163808271Y-85793118D01*
X163768122Y-85774357D01*
X163745898Y-85748098D01*
X163736385Y-85712920D01*
X163734373Y-85667404D01*
X163734385Y-85662652D01*
X163736703Y-85622411D01*
X163746341Y-85590685D01*
X163768053Y-85566464D01*
X163806593Y-85548739D01*
X163866717Y-85536501D01*
X163953178Y-85528740D01*
X164070731Y-85524446D01*
X164224130Y-85522609D01*
X164418130Y-85522222D01*
X165001081Y-85522222D01*
X165048084Y-85581977D01*
G37*
X174443704Y-85522254D02*
X174598586Y-85522640D01*
X174717005Y-85523815D01*
X174804568Y-85526208D01*
X174866882Y-85530251D01*
X174909557Y-85536374D01*
X174938198Y-85545009D01*
X174958414Y-85556584D01*
X174975813Y-85571532D01*
X174979398Y-85574909D01*
X174993951Y-85590054D01*
X175005285Y-85608170D01*
X175013804Y-85634556D01*
X175019909Y-85674509D01*
X175024002Y-85733328D01*
X175026486Y-85816311D01*
X175027763Y-85928757D01*
X175028234Y-86075963D01*
X175028301Y-86263229D01*
X175028228Y-86409457D01*
X175027729Y-86566507D01*
X175026450Y-86687473D01*
X175024045Y-86777632D01*
X175020166Y-86842259D01*
X175014464Y-86886630D01*
X175006592Y-86916022D01*
X174996201Y-86935711D01*
X174982944Y-86950972D01*
X174976246Y-86957354D01*
X174959126Y-86969630D01*
X174935015Y-86979021D01*
X174898432Y-86985912D01*
X174843895Y-86990688D01*
X174765925Y-86993733D01*
X174659041Y-86995431D01*
X174517761Y-86996169D01*
X174336605Y-86996329D01*
X174252011Y-86996305D01*
X174088993Y-86995940D01*
X173963451Y-86994829D01*
X173869903Y-86992588D01*
X173802870Y-86988832D01*
X173756871Y-86983177D01*
X173726424Y-86975239D01*
X173706049Y-86964632D01*
X173690266Y-86950972D01*
X173660682Y-86907580D01*
X173644908Y-86848918D01*
X173655955Y-86800892D01*
X173690266Y-86746865D01*
X173700268Y-86737608D01*
X173719906Y-86724977D01*
X173748263Y-86715686D01*
X173791445Y-86709224D01*
X173855559Y-86705085D01*
X173946710Y-86702758D01*
X174071006Y-86701735D01*
X174234551Y-86701508D01*
X174733480Y-86701508D01*
X174733480Y-86384008D01*
X174409687Y-86384008D01*
X174337731Y-86383716D01*
X174205897Y-86380255D01*
X174110993Y-86371345D01*
X174047240Y-86355064D01*
X174008857Y-86329489D01*
X173990066Y-86292697D01*
X173985087Y-86242766D01*
X173986689Y-86202073D01*
X173997240Y-86158227D01*
X174022942Y-86127387D01*
X174069830Y-86107307D01*
X174143937Y-86095743D01*
X174251299Y-86090451D01*
X174397948Y-86089186D01*
X174735743Y-86089186D01*
X174728942Y-85958784D01*
X174722141Y-85828383D01*
X174224496Y-85822258D01*
X174098755Y-85820493D01*
X173961222Y-85817591D01*
X173858959Y-85813712D01*
X173786129Y-85808388D01*
X173736896Y-85801149D01*
X173705425Y-85791527D01*
X173685880Y-85779056D01*
X173673796Y-85766193D01*
X173647662Y-85702547D01*
X173654815Y-85630856D01*
X173694542Y-85568462D01*
X173701074Y-85562590D01*
X173719114Y-85549830D01*
X173743430Y-85540082D01*
X173779603Y-85532942D01*
X173833217Y-85528006D01*
X173909856Y-85524869D01*
X174015103Y-85523129D01*
X174154539Y-85522381D01*
X174333750Y-85522222D01*
X174443704Y-85522254D01*
G36*
X174443704Y-85522254D02*
G01*
X174598586Y-85522640D01*
X174717005Y-85523815D01*
X174804568Y-85526208D01*
X174866882Y-85530251D01*
X174909557Y-85536374D01*
X174938198Y-85545009D01*
X174958414Y-85556584D01*
X174975813Y-85571532D01*
X174979398Y-85574909D01*
X174993951Y-85590054D01*
X175005285Y-85608170D01*
X175013804Y-85634556D01*
X175019909Y-85674509D01*
X175024002Y-85733328D01*
X175026486Y-85816311D01*
X175027763Y-85928757D01*
X175028234Y-86075963D01*
X175028301Y-86263229D01*
X175028228Y-86409457D01*
X175027729Y-86566507D01*
X175026450Y-86687473D01*
X175024045Y-86777632D01*
X175020166Y-86842259D01*
X175014464Y-86886630D01*
X175006592Y-86916022D01*
X174996201Y-86935711D01*
X174982944Y-86950972D01*
X174976246Y-86957354D01*
X174959126Y-86969630D01*
X174935015Y-86979021D01*
X174898432Y-86985912D01*
X174843895Y-86990688D01*
X174765925Y-86993733D01*
X174659041Y-86995431D01*
X174517761Y-86996169D01*
X174336605Y-86996329D01*
X174252011Y-86996305D01*
X174088993Y-86995940D01*
X173963451Y-86994829D01*
X173869903Y-86992588D01*
X173802870Y-86988832D01*
X173756871Y-86983177D01*
X173726424Y-86975239D01*
X173706049Y-86964632D01*
X173690266Y-86950972D01*
X173660682Y-86907580D01*
X173644908Y-86848918D01*
X173655955Y-86800892D01*
X173690266Y-86746865D01*
X173700268Y-86737608D01*
X173719906Y-86724977D01*
X173748263Y-86715686D01*
X173791445Y-86709224D01*
X173855559Y-86705085D01*
X173946710Y-86702758D01*
X174071006Y-86701735D01*
X174234551Y-86701508D01*
X174733480Y-86701508D01*
X174733480Y-86384008D01*
X174409687Y-86384008D01*
X174337731Y-86383716D01*
X174205897Y-86380255D01*
X174110993Y-86371345D01*
X174047240Y-86355064D01*
X174008857Y-86329489D01*
X173990066Y-86292697D01*
X173985087Y-86242766D01*
X173986689Y-86202073D01*
X173997240Y-86158227D01*
X174022942Y-86127387D01*
X174069830Y-86107307D01*
X174143937Y-86095743D01*
X174251299Y-86090451D01*
X174397948Y-86089186D01*
X174735743Y-86089186D01*
X174728942Y-85958784D01*
X174722141Y-85828383D01*
X174224496Y-85822258D01*
X174098755Y-85820493D01*
X173961222Y-85817591D01*
X173858959Y-85813712D01*
X173786129Y-85808388D01*
X173736896Y-85801149D01*
X173705425Y-85791527D01*
X173685880Y-85779056D01*
X173673796Y-85766193D01*
X173647662Y-85702547D01*
X173654815Y-85630856D01*
X173694542Y-85568462D01*
X173701074Y-85562590D01*
X173719114Y-85549830D01*
X173743430Y-85540082D01*
X173779603Y-85532942D01*
X173833217Y-85528006D01*
X173909856Y-85524869D01*
X174015103Y-85523129D01*
X174154539Y-85522381D01*
X174333750Y-85522222D01*
X174443704Y-85522254D01*
G37*
X157233149Y-85541129D02*
X157269230Y-85578316D01*
X157310615Y-85640757D01*
X157360501Y-85732535D01*
X157422085Y-85857736D01*
X157498564Y-86020445D01*
X157527962Y-86083492D01*
X157587725Y-86210422D01*
X157640148Y-86320122D01*
X157682324Y-86406599D01*
X157711347Y-86463860D01*
X157724310Y-86485912D01*
X157727040Y-86484745D01*
X157747113Y-86456726D01*
X157781849Y-86397386D01*
X157827245Y-86313781D01*
X157879293Y-86212964D01*
X157911381Y-86149706D01*
X157969539Y-86038504D01*
X158014717Y-85960122D01*
X158051311Y-85908940D01*
X158083717Y-85879338D01*
X158116331Y-85865698D01*
X158153549Y-85862400D01*
X158174648Y-85863355D01*
X158207024Y-85871807D01*
X158237789Y-85893631D01*
X158271133Y-85934358D01*
X158311249Y-85999517D01*
X158362328Y-86094641D01*
X158428562Y-86225258D01*
X158448114Y-86263940D01*
X158497248Y-86357694D01*
X158537900Y-86430342D01*
X158566291Y-86475319D01*
X158578644Y-86486061D01*
X158581391Y-86479490D01*
X158600223Y-86437484D01*
X158634096Y-86363277D01*
X158680133Y-86263129D01*
X158735461Y-86143301D01*
X158797206Y-86010052D01*
X158850874Y-85895100D01*
X158910385Y-85770569D01*
X158956733Y-85678681D01*
X158992851Y-85614313D01*
X159021673Y-85572340D01*
X159046134Y-85547636D01*
X159069169Y-85535078D01*
X159088072Y-85529267D01*
X159138507Y-85528969D01*
X159193034Y-85559791D01*
X159195647Y-85561769D01*
X159240012Y-85607243D01*
X159262208Y-85651891D01*
X159262301Y-85653176D01*
X159253178Y-85688658D01*
X159227335Y-85758098D01*
X159187641Y-85855220D01*
X159136967Y-85973746D01*
X159078183Y-86107399D01*
X159014159Y-86249903D01*
X158947766Y-86394981D01*
X158881874Y-86536355D01*
X158819353Y-86667749D01*
X158763074Y-86782885D01*
X158715907Y-86875487D01*
X158680722Y-86939278D01*
X158660389Y-86967981D01*
X158591267Y-86994838D01*
X158507500Y-86982058D01*
X158496723Y-86972622D01*
X158464924Y-86928122D01*
X158420322Y-86854273D01*
X158367252Y-86758412D01*
X158310050Y-86647878D01*
X158149791Y-86327969D01*
X158002763Y-86622462D01*
X157983285Y-86661215D01*
X157929087Y-86766378D01*
X157880815Y-86856357D01*
X157843119Y-86922621D01*
X157820647Y-86956641D01*
X157818345Y-86959139D01*
X157761853Y-86989849D01*
X157691415Y-86993231D01*
X157629056Y-86967981D01*
X157624182Y-86962257D01*
X157599552Y-86920822D01*
X157559902Y-86845385D01*
X157507861Y-86741266D01*
X157446062Y-86613786D01*
X157377134Y-86468264D01*
X157303709Y-86310022D01*
X157263047Y-86221381D01*
X157189173Y-86059205D01*
X157132006Y-85931280D01*
X157089769Y-85832974D01*
X157060685Y-85759657D01*
X157042978Y-85706697D01*
X157034871Y-85669466D01*
X157034586Y-85643330D01*
X157040348Y-85623661D01*
X157069793Y-85581710D01*
X157123235Y-85540926D01*
X157124754Y-85540238D01*
X157164108Y-85526174D01*
X157199174Y-85525110D01*
X157233149Y-85541129D01*
G36*
X157233149Y-85541129D02*
G01*
X157269230Y-85578316D01*
X157310615Y-85640757D01*
X157360501Y-85732535D01*
X157422085Y-85857736D01*
X157498564Y-86020445D01*
X157527962Y-86083492D01*
X157587725Y-86210422D01*
X157640148Y-86320122D01*
X157682324Y-86406599D01*
X157711347Y-86463860D01*
X157724310Y-86485912D01*
X157727040Y-86484745D01*
X157747113Y-86456726D01*
X157781849Y-86397386D01*
X157827245Y-86313781D01*
X157879293Y-86212964D01*
X157911381Y-86149706D01*
X157969539Y-86038504D01*
X158014717Y-85960122D01*
X158051311Y-85908940D01*
X158083717Y-85879338D01*
X158116331Y-85865698D01*
X158153549Y-85862400D01*
X158174648Y-85863355D01*
X158207024Y-85871807D01*
X158237789Y-85893631D01*
X158271133Y-85934358D01*
X158311249Y-85999517D01*
X158362328Y-86094641D01*
X158428562Y-86225258D01*
X158448114Y-86263940D01*
X158497248Y-86357694D01*
X158537900Y-86430342D01*
X158566291Y-86475319D01*
X158578644Y-86486061D01*
X158581391Y-86479490D01*
X158600223Y-86437484D01*
X158634096Y-86363277D01*
X158680133Y-86263129D01*
X158735461Y-86143301D01*
X158797206Y-86010052D01*
X158850874Y-85895100D01*
X158910385Y-85770569D01*
X158956733Y-85678681D01*
X158992851Y-85614313D01*
X159021673Y-85572340D01*
X159046134Y-85547636D01*
X159069169Y-85535078D01*
X159088072Y-85529267D01*
X159138507Y-85528969D01*
X159193034Y-85559791D01*
X159195647Y-85561769D01*
X159240012Y-85607243D01*
X159262208Y-85651891D01*
X159262301Y-85653176D01*
X159253178Y-85688658D01*
X159227335Y-85758098D01*
X159187641Y-85855220D01*
X159136967Y-85973746D01*
X159078183Y-86107399D01*
X159014159Y-86249903D01*
X158947766Y-86394981D01*
X158881874Y-86536355D01*
X158819353Y-86667749D01*
X158763074Y-86782885D01*
X158715907Y-86875487D01*
X158680722Y-86939278D01*
X158660389Y-86967981D01*
X158591267Y-86994838D01*
X158507500Y-86982058D01*
X158496723Y-86972622D01*
X158464924Y-86928122D01*
X158420322Y-86854273D01*
X158367252Y-86758412D01*
X158310050Y-86647878D01*
X158149791Y-86327969D01*
X158002763Y-86622462D01*
X157983285Y-86661215D01*
X157929087Y-86766378D01*
X157880815Y-86856357D01*
X157843119Y-86922621D01*
X157820647Y-86956641D01*
X157818345Y-86959139D01*
X157761853Y-86989849D01*
X157691415Y-86993231D01*
X157629056Y-86967981D01*
X157624182Y-86962257D01*
X157599552Y-86920822D01*
X157559902Y-86845385D01*
X157507861Y-86741266D01*
X157446062Y-86613786D01*
X157377134Y-86468264D01*
X157303709Y-86310022D01*
X157263047Y-86221381D01*
X157189173Y-86059205D01*
X157132006Y-85931280D01*
X157089769Y-85832974D01*
X157060685Y-85759657D01*
X157042978Y-85706697D01*
X157034871Y-85669466D01*
X157034586Y-85643330D01*
X157040348Y-85623661D01*
X157069793Y-85581710D01*
X157123235Y-85540926D01*
X157124754Y-85540238D01*
X157164108Y-85526174D01*
X157199174Y-85525110D01*
X157233149Y-85541129D01*
G37*
X172402872Y-85523968D02*
X172535956Y-85534876D01*
X172647051Y-85554158D01*
X172749271Y-85584013D01*
X172892532Y-85650574D01*
X172995302Y-85736320D01*
X173057224Y-85840914D01*
X173077944Y-85964018D01*
X173076062Y-86026794D01*
X173064425Y-86076610D01*
X173034679Y-86120143D01*
X172978484Y-86175088D01*
X172962456Y-86189811D01*
X172914826Y-86231804D01*
X172869838Y-86265897D01*
X172821556Y-86293928D01*
X172764044Y-86317736D01*
X172691368Y-86339159D01*
X172597590Y-86360035D01*
X172476777Y-86382202D01*
X172322991Y-86407499D01*
X172130297Y-86437765D01*
X172093405Y-86443860D01*
X171968189Y-86471223D01*
X171877350Y-86502830D01*
X171824548Y-86537125D01*
X171813441Y-86572551D01*
X171818706Y-86581130D01*
X171854730Y-86611394D01*
X171911233Y-86644811D01*
X171936946Y-86656846D01*
X171979733Y-86671295D01*
X172032741Y-86680892D01*
X172104749Y-86686555D01*
X172204539Y-86689202D01*
X172340891Y-86689752D01*
X172376619Y-86689605D01*
X172512465Y-86687373D01*
X172642922Y-86682903D01*
X172754670Y-86676743D01*
X172834385Y-86669442D01*
X172905725Y-86661269D01*
X172964491Y-86659696D01*
X173002461Y-86668936D01*
X173032823Y-86690382D01*
X173040168Y-86697600D01*
X173072998Y-86761431D01*
X173070347Y-86833058D01*
X173032263Y-86894568D01*
X172991340Y-86917884D01*
X172919052Y-86943387D01*
X172833826Y-86963576D01*
X172826893Y-86964779D01*
X172741174Y-86975259D01*
X172625888Y-86984045D01*
X172495274Y-86990248D01*
X172363569Y-86992978D01*
X172330959Y-86993062D01*
X172133457Y-86988085D01*
X171972638Y-86972001D01*
X171841697Y-86942808D01*
X171733825Y-86898503D01*
X171642217Y-86837083D01*
X171560066Y-86756545D01*
X171519644Y-86703859D01*
X171496288Y-86644500D01*
X171490444Y-86564712D01*
X171490727Y-86540668D01*
X171498508Y-86475013D01*
X171523387Y-86421724D01*
X171573942Y-86359752D01*
X171616555Y-86315274D01*
X171669583Y-86269981D01*
X171729283Y-86233082D01*
X171802064Y-86202434D01*
X171894339Y-86175892D01*
X172012518Y-86151313D01*
X172163011Y-86126552D01*
X172352230Y-86099465D01*
X172443258Y-86085383D01*
X172579774Y-86056135D01*
X172678484Y-86022989D01*
X172737883Y-85987033D01*
X172756466Y-85949356D01*
X172732728Y-85911046D01*
X172665164Y-85873191D01*
X172659045Y-85870752D01*
X172565913Y-85846488D01*
X172440053Y-85830014D01*
X172292529Y-85821656D01*
X172134407Y-85821742D01*
X171976750Y-85830598D01*
X171830623Y-85848550D01*
X171822734Y-85849853D01*
X171724665Y-85865336D01*
X171659874Y-85872592D01*
X171617692Y-85871391D01*
X171587450Y-85861505D01*
X171558480Y-85842704D01*
X171556130Y-85840956D01*
X171506877Y-85779937D01*
X171497248Y-85708617D01*
X171529002Y-85639146D01*
X171538134Y-85630193D01*
X171597627Y-85599779D01*
X171692010Y-85573416D01*
X171813156Y-85551720D01*
X171952941Y-85535309D01*
X172103239Y-85524802D01*
X172255925Y-85520816D01*
X172402872Y-85523968D01*
G36*
X172402872Y-85523968D02*
G01*
X172535956Y-85534876D01*
X172647051Y-85554158D01*
X172749271Y-85584013D01*
X172892532Y-85650574D01*
X172995302Y-85736320D01*
X173057224Y-85840914D01*
X173077944Y-85964018D01*
X173076062Y-86026794D01*
X173064425Y-86076610D01*
X173034679Y-86120143D01*
X172978484Y-86175088D01*
X172962456Y-86189811D01*
X172914826Y-86231804D01*
X172869838Y-86265897D01*
X172821556Y-86293928D01*
X172764044Y-86317736D01*
X172691368Y-86339159D01*
X172597590Y-86360035D01*
X172476777Y-86382202D01*
X172322991Y-86407499D01*
X172130297Y-86437765D01*
X172093405Y-86443860D01*
X171968189Y-86471223D01*
X171877350Y-86502830D01*
X171824548Y-86537125D01*
X171813441Y-86572551D01*
X171818706Y-86581130D01*
X171854730Y-86611394D01*
X171911233Y-86644811D01*
X171936946Y-86656846D01*
X171979733Y-86671295D01*
X172032741Y-86680892D01*
X172104749Y-86686555D01*
X172204539Y-86689202D01*
X172340891Y-86689752D01*
X172376619Y-86689605D01*
X172512465Y-86687373D01*
X172642922Y-86682903D01*
X172754670Y-86676743D01*
X172834385Y-86669442D01*
X172905725Y-86661269D01*
X172964491Y-86659696D01*
X173002461Y-86668936D01*
X173032823Y-86690382D01*
X173040168Y-86697600D01*
X173072998Y-86761431D01*
X173070347Y-86833058D01*
X173032263Y-86894568D01*
X172991340Y-86917884D01*
X172919052Y-86943387D01*
X172833826Y-86963576D01*
X172826893Y-86964779D01*
X172741174Y-86975259D01*
X172625888Y-86984045D01*
X172495274Y-86990248D01*
X172363569Y-86992978D01*
X172330959Y-86993062D01*
X172133457Y-86988085D01*
X171972638Y-86972001D01*
X171841697Y-86942808D01*
X171733825Y-86898503D01*
X171642217Y-86837083D01*
X171560066Y-86756545D01*
X171519644Y-86703859D01*
X171496288Y-86644500D01*
X171490444Y-86564712D01*
X171490727Y-86540668D01*
X171498508Y-86475013D01*
X171523387Y-86421724D01*
X171573942Y-86359752D01*
X171616555Y-86315274D01*
X171669583Y-86269981D01*
X171729283Y-86233082D01*
X171802064Y-86202434D01*
X171894339Y-86175892D01*
X172012518Y-86151313D01*
X172163011Y-86126552D01*
X172352230Y-86099465D01*
X172443258Y-86085383D01*
X172579774Y-86056135D01*
X172678484Y-86022989D01*
X172737883Y-85987033D01*
X172756466Y-85949356D01*
X172732728Y-85911046D01*
X172665164Y-85873191D01*
X172659045Y-85870752D01*
X172565913Y-85846488D01*
X172440053Y-85830014D01*
X172292529Y-85821656D01*
X172134407Y-85821742D01*
X171976750Y-85830598D01*
X171830623Y-85848550D01*
X171822734Y-85849853D01*
X171724665Y-85865336D01*
X171659874Y-85872592D01*
X171617692Y-85871391D01*
X171587450Y-85861505D01*
X171558480Y-85842704D01*
X171556130Y-85840956D01*
X171506877Y-85779937D01*
X171497248Y-85708617D01*
X171529002Y-85639146D01*
X171538134Y-85630193D01*
X171597627Y-85599779D01*
X171692010Y-85573416D01*
X171813156Y-85551720D01*
X171952941Y-85535309D01*
X172103239Y-85524802D01*
X172255925Y-85520816D01*
X172402872Y-85523968D01*
G37*
X164551428Y-74941066D02*
X164918445Y-74974759D01*
X165259404Y-75042709D01*
X165586989Y-75147776D01*
X165913880Y-75292820D01*
X166237467Y-75478010D01*
X166584739Y-75730472D01*
X166906778Y-76022366D01*
X167196491Y-76346466D01*
X167446787Y-76695546D01*
X167650576Y-77062381D01*
X167669074Y-77101624D01*
X167823990Y-77480410D01*
X167941704Y-77874011D01*
X168023737Y-78289948D01*
X168071610Y-78735740D01*
X168086844Y-79218905D01*
X168068321Y-79718373D01*
X168009529Y-80210252D01*
X167909555Y-80670706D01*
X167767504Y-81103001D01*
X167582482Y-81510404D01*
X167353594Y-81896181D01*
X167138593Y-82190911D01*
X166841721Y-82522530D01*
X166518145Y-82806572D01*
X166168005Y-83042945D01*
X165791444Y-83231555D01*
X165388602Y-83372311D01*
X164959623Y-83465118D01*
X164954727Y-83465841D01*
X164872116Y-83473090D01*
X164747450Y-83478466D01*
X164592260Y-83481720D01*
X164418070Y-83482600D01*
X164236410Y-83480855D01*
X164109092Y-83478298D01*
X163920190Y-83472376D01*
X163768820Y-83463897D01*
X163644061Y-83451957D01*
X163534998Y-83435652D01*
X163430711Y-83414075D01*
X163313380Y-83386192D01*
X163190967Y-83354439D01*
X163080257Y-83321129D01*
X162971202Y-83282359D01*
X162853754Y-83234228D01*
X162717866Y-83172835D01*
X162553489Y-83094278D01*
X162350576Y-82994655D01*
X161789367Y-82717307D01*
X162238860Y-81979002D01*
X162297707Y-81882371D01*
X162403431Y-81708906D01*
X162498060Y-81553827D01*
X162578136Y-81422791D01*
X162640201Y-81321454D01*
X162680796Y-81255473D01*
X162696463Y-81230504D01*
X162700821Y-81231250D01*
X162735923Y-81255685D01*
X162797592Y-81306397D01*
X162876084Y-81375518D01*
X163015873Y-81494943D01*
X163265427Y-81671542D01*
X163507553Y-81794653D01*
X163682520Y-81856132D01*
X163978464Y-81918963D01*
X164269237Y-81930100D01*
X164550623Y-81890301D01*
X164818405Y-81800326D01*
X165068368Y-81660934D01*
X165296293Y-81472881D01*
X165423119Y-81334374D01*
X165601790Y-81078184D01*
X165748398Y-80780889D01*
X165863642Y-80440966D01*
X165948226Y-80056892D01*
X165952063Y-80033049D01*
X165969792Y-79878508D01*
X165982990Y-79686495D01*
X165991550Y-79470128D01*
X165995366Y-79242528D01*
X165994330Y-79016815D01*
X165988337Y-78806110D01*
X165977279Y-78623532D01*
X165961048Y-78482203D01*
X165898839Y-78162061D01*
X165794164Y-77788093D01*
X165662518Y-77460690D01*
X165504077Y-77180105D01*
X165319017Y-76946591D01*
X165107515Y-76760402D01*
X164869746Y-76621791D01*
X164605886Y-76531011D01*
X164547345Y-76519744D01*
X164400637Y-76505032D01*
X164229186Y-76500230D01*
X164052200Y-76505073D01*
X163888886Y-76519299D01*
X163758453Y-76542643D01*
X163541167Y-76616974D01*
X163289011Y-76752674D01*
X163064487Y-76931253D01*
X163024859Y-76968871D01*
X162953054Y-77035426D01*
X162902305Y-77080223D01*
X162881688Y-77095124D01*
X162876612Y-77087997D01*
X162845368Y-77042996D01*
X162788924Y-76961284D01*
X162711010Y-76848274D01*
X162615354Y-76709376D01*
X162505687Y-76550001D01*
X162385738Y-76375559D01*
X161895119Y-75661820D01*
X162004720Y-75628982D01*
X162016157Y-75625261D01*
X162090606Y-75595705D01*
X162197942Y-75548045D01*
X162325569Y-75488016D01*
X162460892Y-75421349D01*
X162519859Y-75391873D01*
X162847297Y-75239699D01*
X163149093Y-75122023D01*
X163436854Y-75035835D01*
X163722187Y-74978125D01*
X164016700Y-74945883D01*
X164332001Y-74936098D01*
X164551428Y-74941066D01*
G36*
X164551428Y-74941066D02*
G01*
X164918445Y-74974759D01*
X165259404Y-75042709D01*
X165586989Y-75147776D01*
X165913880Y-75292820D01*
X166237467Y-75478010D01*
X166584739Y-75730472D01*
X166906778Y-76022366D01*
X167196491Y-76346466D01*
X167446787Y-76695546D01*
X167650576Y-77062381D01*
X167669074Y-77101624D01*
X167823990Y-77480410D01*
X167941704Y-77874011D01*
X168023737Y-78289948D01*
X168071610Y-78735740D01*
X168086844Y-79218905D01*
X168068321Y-79718373D01*
X168009529Y-80210252D01*
X167909555Y-80670706D01*
X167767504Y-81103001D01*
X167582482Y-81510404D01*
X167353594Y-81896181D01*
X167138593Y-82190911D01*
X166841721Y-82522530D01*
X166518145Y-82806572D01*
X166168005Y-83042945D01*
X165791444Y-83231555D01*
X165388602Y-83372311D01*
X164959623Y-83465118D01*
X164954727Y-83465841D01*
X164872116Y-83473090D01*
X164747450Y-83478466D01*
X164592260Y-83481720D01*
X164418070Y-83482600D01*
X164236410Y-83480855D01*
X164109092Y-83478298D01*
X163920190Y-83472376D01*
X163768820Y-83463897D01*
X163644061Y-83451957D01*
X163534998Y-83435652D01*
X163430711Y-83414075D01*
X163313380Y-83386192D01*
X163190967Y-83354439D01*
X163080257Y-83321129D01*
X162971202Y-83282359D01*
X162853754Y-83234228D01*
X162717866Y-83172835D01*
X162553489Y-83094278D01*
X162350576Y-82994655D01*
X161789367Y-82717307D01*
X162238860Y-81979002D01*
X162297707Y-81882371D01*
X162403431Y-81708906D01*
X162498060Y-81553827D01*
X162578136Y-81422791D01*
X162640201Y-81321454D01*
X162680796Y-81255473D01*
X162696463Y-81230504D01*
X162700821Y-81231250D01*
X162735923Y-81255685D01*
X162797592Y-81306397D01*
X162876084Y-81375518D01*
X163015873Y-81494943D01*
X163265427Y-81671542D01*
X163507553Y-81794653D01*
X163682520Y-81856132D01*
X163978464Y-81918963D01*
X164269237Y-81930100D01*
X164550623Y-81890301D01*
X164818405Y-81800326D01*
X165068368Y-81660934D01*
X165296293Y-81472881D01*
X165423119Y-81334374D01*
X165601790Y-81078184D01*
X165748398Y-80780889D01*
X165863642Y-80440966D01*
X165948226Y-80056892D01*
X165952063Y-80033049D01*
X165969792Y-79878508D01*
X165982990Y-79686495D01*
X165991550Y-79470128D01*
X165995366Y-79242528D01*
X165994330Y-79016815D01*
X165988337Y-78806110D01*
X165977279Y-78623532D01*
X165961048Y-78482203D01*
X165898839Y-78162061D01*
X165794164Y-77788093D01*
X165662518Y-77460690D01*
X165504077Y-77180105D01*
X165319017Y-76946591D01*
X165107515Y-76760402D01*
X164869746Y-76621791D01*
X164605886Y-76531011D01*
X164547345Y-76519744D01*
X164400637Y-76505032D01*
X164229186Y-76500230D01*
X164052200Y-76505073D01*
X163888886Y-76519299D01*
X163758453Y-76542643D01*
X163541167Y-76616974D01*
X163289011Y-76752674D01*
X163064487Y-76931253D01*
X163024859Y-76968871D01*
X162953054Y-77035426D01*
X162902305Y-77080223D01*
X162881688Y-77095124D01*
X162876612Y-77087997D01*
X162845368Y-77042996D01*
X162788924Y-76961284D01*
X162711010Y-76848274D01*
X162615354Y-76709376D01*
X162505687Y-76550001D01*
X162385738Y-76375559D01*
X161895119Y-75661820D01*
X162004720Y-75628982D01*
X162016157Y-75625261D01*
X162090606Y-75595705D01*
X162197942Y-75548045D01*
X162325569Y-75488016D01*
X162460892Y-75421349D01*
X162519859Y-75391873D01*
X162847297Y-75239699D01*
X163149093Y-75122023D01*
X163436854Y-75035835D01*
X163722187Y-74978125D01*
X164016700Y-74945883D01*
X164332001Y-74936098D01*
X164551428Y-74941066D01*
G37*
X155629470Y-80632151D02*
X155623675Y-80884897D01*
X155607104Y-81107796D01*
X155578475Y-81312973D01*
X155536504Y-81512551D01*
X155479909Y-81718654D01*
X155394087Y-81965010D01*
X155236463Y-82297578D01*
X155043115Y-82595457D01*
X154817001Y-82855832D01*
X154561079Y-83075886D01*
X154278306Y-83252806D01*
X153971640Y-83383775D01*
X153644040Y-83465979D01*
X153640098Y-83466638D01*
X153400682Y-83489675D01*
X153137627Y-83486600D01*
X152869686Y-83459310D01*
X152615619Y-83409701D01*
X152394180Y-83339667D01*
X152299662Y-83297049D01*
X152176562Y-83232273D01*
X152050068Y-83158186D01*
X151933380Y-83082943D01*
X151839696Y-83014697D01*
X151782216Y-82961604D01*
X151769021Y-82947028D01*
X151753290Y-82941933D01*
X151742776Y-82967228D01*
X151735028Y-83030979D01*
X151727592Y-83141248D01*
X151713937Y-83371020D01*
X150667917Y-83378174D01*
X149621897Y-83385327D01*
X149694274Y-83261826D01*
X149698588Y-83254524D01*
X149719635Y-83220247D01*
X149738728Y-83189710D01*
X149755970Y-83160262D01*
X149771465Y-83129249D01*
X149785314Y-83094018D01*
X149797621Y-83051917D01*
X149808488Y-83000293D01*
X149818018Y-82936492D01*
X149826313Y-82857862D01*
X149833477Y-82761750D01*
X149839613Y-82645504D01*
X149844822Y-82506469D01*
X149849208Y-82341993D01*
X149852873Y-82149424D01*
X149855921Y-81926108D01*
X149858453Y-81669392D01*
X149860573Y-81376625D01*
X149862384Y-81045151D01*
X149863987Y-80672320D01*
X149865487Y-80255477D01*
X149866985Y-79791970D01*
X149868585Y-79279147D01*
X149869994Y-78837812D01*
X151850496Y-78837812D01*
X151850496Y-81676911D01*
X151987055Y-81766482D01*
X152039570Y-81798749D01*
X152159818Y-81863208D01*
X152273829Y-81914539D01*
X152323759Y-81931919D01*
X152482632Y-81966616D01*
X152683506Y-81984334D01*
X152785651Y-81988021D01*
X152880466Y-81987183D01*
X152951046Y-81977713D01*
X153014353Y-81957015D01*
X153087347Y-81922491D01*
X153227627Y-81830012D01*
X153349155Y-81699192D01*
X153446435Y-81530608D01*
X153520390Y-81321616D01*
X153571947Y-81069573D01*
X153602031Y-80771838D01*
X153611568Y-80425768D01*
X153611104Y-80347090D01*
X153597393Y-79982547D01*
X153564100Y-79665345D01*
X153510416Y-79392137D01*
X153435529Y-79159577D01*
X153338631Y-78964317D01*
X153218912Y-78803012D01*
X153169244Y-78753782D01*
X153015316Y-78651219D01*
X152834620Y-78588807D01*
X152634984Y-78566902D01*
X152424235Y-78585857D01*
X152210201Y-78646029D01*
X152000711Y-78747771D01*
X151850496Y-78837812D01*
X149869994Y-78837812D01*
X149870388Y-78714353D01*
X149884044Y-74549299D01*
X150969689Y-74542158D01*
X151048639Y-74541677D01*
X151280926Y-74540724D01*
X151493387Y-74540530D01*
X151680224Y-74541057D01*
X151835636Y-74542264D01*
X151953824Y-74544112D01*
X152028990Y-74546561D01*
X152055334Y-74549572D01*
X152051964Y-74559114D01*
X152026822Y-74604351D01*
X151985180Y-74670137D01*
X151981026Y-74676427D01*
X151948739Y-74727221D01*
X151921668Y-74776642D01*
X151899354Y-74829780D01*
X151881338Y-74891726D01*
X151867160Y-74967571D01*
X151856362Y-75062405D01*
X151848484Y-75181318D01*
X151843068Y-75329402D01*
X151839655Y-75511747D01*
X151837785Y-75733443D01*
X151836999Y-75999582D01*
X151836840Y-76315253D01*
X151837126Y-76561713D01*
X151838002Y-76803680D01*
X151839405Y-77023079D01*
X151841272Y-77214568D01*
X151843538Y-77372804D01*
X151846140Y-77492445D01*
X151849014Y-77568147D01*
X151852097Y-77594568D01*
X151862040Y-77590467D01*
X151905749Y-77561590D01*
X151968172Y-77514164D01*
X152058669Y-77450386D01*
X152228698Y-77356413D01*
X152423036Y-77272588D01*
X152623541Y-77207401D01*
X152792001Y-77174161D01*
X153001809Y-77152972D01*
X153228879Y-77145631D01*
X153455688Y-77152147D01*
X153664715Y-77172528D01*
X153838434Y-77206784D01*
X154015319Y-77264488D01*
X154310406Y-77404374D01*
X154583634Y-77590343D01*
X154829963Y-77818113D01*
X155044353Y-78083402D01*
X155221762Y-78381928D01*
X155265806Y-78473469D01*
X155389232Y-78782243D01*
X155485729Y-79117363D01*
X155556515Y-79484734D01*
X155602811Y-79890264D01*
X155625835Y-80339862D01*
X155626904Y-80425768D01*
X155629470Y-80632151D01*
G36*
X155629470Y-80632151D02*
G01*
X155623675Y-80884897D01*
X155607104Y-81107796D01*
X155578475Y-81312973D01*
X155536504Y-81512551D01*
X155479909Y-81718654D01*
X155394087Y-81965010D01*
X155236463Y-82297578D01*
X155043115Y-82595457D01*
X154817001Y-82855832D01*
X154561079Y-83075886D01*
X154278306Y-83252806D01*
X153971640Y-83383775D01*
X153644040Y-83465979D01*
X153640098Y-83466638D01*
X153400682Y-83489675D01*
X153137627Y-83486600D01*
X152869686Y-83459310D01*
X152615619Y-83409701D01*
X152394180Y-83339667D01*
X152299662Y-83297049D01*
X152176562Y-83232273D01*
X152050068Y-83158186D01*
X151933380Y-83082943D01*
X151839696Y-83014697D01*
X151782216Y-82961604D01*
X151769021Y-82947028D01*
X151753290Y-82941933D01*
X151742776Y-82967228D01*
X151735028Y-83030979D01*
X151727592Y-83141248D01*
X151713937Y-83371020D01*
X150667917Y-83378174D01*
X149621897Y-83385327D01*
X149694274Y-83261826D01*
X149698588Y-83254524D01*
X149719635Y-83220247D01*
X149738728Y-83189710D01*
X149755970Y-83160262D01*
X149771465Y-83129249D01*
X149785314Y-83094018D01*
X149797621Y-83051917D01*
X149808488Y-83000293D01*
X149818018Y-82936492D01*
X149826313Y-82857862D01*
X149833477Y-82761750D01*
X149839613Y-82645504D01*
X149844822Y-82506469D01*
X149849208Y-82341993D01*
X149852873Y-82149424D01*
X149855921Y-81926108D01*
X149858453Y-81669392D01*
X149860573Y-81376625D01*
X149862384Y-81045151D01*
X149863987Y-80672320D01*
X149865487Y-80255477D01*
X149866985Y-79791970D01*
X149868585Y-79279147D01*
X149869994Y-78837812D01*
X151850496Y-78837812D01*
X151850496Y-81676911D01*
X151987055Y-81766482D01*
X152039570Y-81798749D01*
X152159818Y-81863208D01*
X152273829Y-81914539D01*
X152323759Y-81931919D01*
X152482632Y-81966616D01*
X152683506Y-81984334D01*
X152785651Y-81988021D01*
X152880466Y-81987183D01*
X152951046Y-81977713D01*
X153014353Y-81957015D01*
X153087347Y-81922491D01*
X153227627Y-81830012D01*
X153349155Y-81699192D01*
X153446435Y-81530608D01*
X153520390Y-81321616D01*
X153571947Y-81069573D01*
X153602031Y-80771838D01*
X153611568Y-80425768D01*
X153611104Y-80347090D01*
X153597393Y-79982547D01*
X153564100Y-79665345D01*
X153510416Y-79392137D01*
X153435529Y-79159577D01*
X153338631Y-78964317D01*
X153218912Y-78803012D01*
X153169244Y-78753782D01*
X153015316Y-78651219D01*
X152834620Y-78588807D01*
X152634984Y-78566902D01*
X152424235Y-78585857D01*
X152210201Y-78646029D01*
X152000711Y-78747771D01*
X151850496Y-78837812D01*
X149869994Y-78837812D01*
X149870388Y-78714353D01*
X149884044Y-74549299D01*
X150969689Y-74542158D01*
X151048639Y-74541677D01*
X151280926Y-74540724D01*
X151493387Y-74540530D01*
X151680224Y-74541057D01*
X151835636Y-74542264D01*
X151953824Y-74544112D01*
X152028990Y-74546561D01*
X152055334Y-74549572D01*
X152051964Y-74559114D01*
X152026822Y-74604351D01*
X151985180Y-74670137D01*
X151981026Y-74676427D01*
X151948739Y-74727221D01*
X151921668Y-74776642D01*
X151899354Y-74829780D01*
X151881338Y-74891726D01*
X151867160Y-74967571D01*
X151856362Y-75062405D01*
X151848484Y-75181318D01*
X151843068Y-75329402D01*
X151839655Y-75511747D01*
X151837785Y-75733443D01*
X151836999Y-75999582D01*
X151836840Y-76315253D01*
X151837126Y-76561713D01*
X151838002Y-76803680D01*
X151839405Y-77023079D01*
X151841272Y-77214568D01*
X151843538Y-77372804D01*
X151846140Y-77492445D01*
X151849014Y-77568147D01*
X151852097Y-77594568D01*
X151862040Y-77590467D01*
X151905749Y-77561590D01*
X151968172Y-77514164D01*
X152058669Y-77450386D01*
X152228698Y-77356413D01*
X152423036Y-77272588D01*
X152623541Y-77207401D01*
X152792001Y-77174161D01*
X153001809Y-77152972D01*
X153228879Y-77145631D01*
X153455688Y-77152147D01*
X153664715Y-77172528D01*
X153838434Y-77206784D01*
X154015319Y-77264488D01*
X154310406Y-77404374D01*
X154583634Y-77590343D01*
X154829963Y-77818113D01*
X155044353Y-78083402D01*
X155221762Y-78381928D01*
X155265806Y-78473469D01*
X155389232Y-78782243D01*
X155485729Y-79117363D01*
X155556515Y-79484734D01*
X155602811Y-79890264D01*
X155625835Y-80339862D01*
X155626904Y-80425768D01*
X155629470Y-80632151D01*
G37*
X161802846Y-81491570D02*
X161790580Y-81711784D01*
X161764070Y-81916682D01*
X161724068Y-82087364D01*
X161660240Y-82262970D01*
X161512287Y-82552367D01*
X161323172Y-82806982D01*
X161094854Y-83025080D01*
X160829290Y-83204925D01*
X160528439Y-83344782D01*
X160194259Y-83442917D01*
X160057989Y-83465051D01*
X159863261Y-83480433D01*
X159651189Y-83483893D01*
X159439496Y-83475708D01*
X159245902Y-83456157D01*
X159088130Y-83425520D01*
X159008850Y-83401399D01*
X158828793Y-83330812D01*
X158645760Y-83241195D01*
X158478636Y-83142266D01*
X158346304Y-83043744D01*
X158344678Y-83042322D01*
X158272162Y-82980837D01*
X158216370Y-82937056D01*
X158189261Y-82920375D01*
X158186297Y-82924357D01*
X158179591Y-82967377D01*
X158174930Y-83047613D01*
X158173184Y-83152525D01*
X158173184Y-83384676D01*
X157148990Y-83384676D01*
X157121726Y-83384671D01*
X156893061Y-83384271D01*
X156683193Y-83383276D01*
X156498093Y-83381759D01*
X156343732Y-83379795D01*
X156226082Y-83377457D01*
X156151113Y-83374821D01*
X156124797Y-83371960D01*
X156125410Y-83369460D01*
X156142627Y-83332554D01*
X156178718Y-83263217D01*
X156227216Y-83173949D01*
X156329635Y-82988654D01*
X156344653Y-81159261D01*
X158282431Y-81159261D01*
X158283193Y-81303798D01*
X158286884Y-81455666D01*
X158294115Y-81565439D01*
X158305412Y-81640263D01*
X158321302Y-81687287D01*
X158341742Y-81720866D01*
X158418718Y-81812401D01*
X158521856Y-81907695D01*
X158634898Y-81992602D01*
X158741587Y-82052975D01*
X158800781Y-82075127D01*
X158937079Y-82104620D01*
X159115095Y-82119699D01*
X159302780Y-82117415D01*
X159481008Y-82086400D01*
X159629773Y-82022327D01*
X159758482Y-81922309D01*
X159794689Y-81885314D01*
X159888958Y-81759148D01*
X159939963Y-81623159D01*
X159955281Y-81459526D01*
X159951131Y-81373078D01*
X159910092Y-81195116D01*
X159823879Y-81042368D01*
X159690920Y-80913116D01*
X159509647Y-80805641D01*
X159278491Y-80718224D01*
X159185302Y-80695283D01*
X159072486Y-80679575D01*
X158930507Y-80670852D01*
X158746732Y-80667919D01*
X158716879Y-80667921D01*
X158579393Y-80669599D01*
X158461293Y-80673656D01*
X158374323Y-80679559D01*
X158330227Y-80686776D01*
X158325153Y-80689119D01*
X158308747Y-80703832D01*
X158297128Y-80733398D01*
X158289491Y-80785772D01*
X158285033Y-80868905D01*
X158282947Y-80990750D01*
X158282431Y-81159261D01*
X156344653Y-81159261D01*
X156345442Y-81063170D01*
X156347791Y-80782724D01*
X156351078Y-80425053D01*
X156354528Y-80114543D01*
X156358420Y-79846804D01*
X156363032Y-79617442D01*
X156368645Y-79422068D01*
X156375535Y-79256289D01*
X156383982Y-79115715D01*
X156394266Y-78995953D01*
X156406663Y-78892614D01*
X156421454Y-78801305D01*
X156438916Y-78717635D01*
X156459329Y-78637213D01*
X156482972Y-78555647D01*
X156510122Y-78468547D01*
X156617082Y-78195490D01*
X156763559Y-77943128D01*
X156945977Y-77727068D01*
X157166005Y-77546178D01*
X157425313Y-77399328D01*
X157725572Y-77285389D01*
X158068451Y-77203228D01*
X158455621Y-77151717D01*
X158590942Y-77141474D01*
X158818844Y-77133984D01*
X159044731Y-77140729D01*
X159279178Y-77162844D01*
X159532761Y-77201468D01*
X159816055Y-77257737D01*
X160139635Y-77332789D01*
X160214430Y-77350948D01*
X160402260Y-77395634D01*
X160580285Y-77436779D01*
X160737710Y-77471953D01*
X160863739Y-77498725D01*
X160947574Y-77514665D01*
X161140996Y-77546434D01*
X160869069Y-78205501D01*
X160801051Y-78370055D01*
X160734136Y-78531296D01*
X160676723Y-78668961D01*
X160631631Y-78776316D01*
X160601678Y-78846624D01*
X160589682Y-78873149D01*
X160587796Y-78873529D01*
X160553035Y-78861686D01*
X160484682Y-78831337D01*
X160395069Y-78787884D01*
X160208811Y-78703261D01*
X159952508Y-78610735D01*
X159690183Y-78539878D01*
X159432093Y-78492469D01*
X159188499Y-78470289D01*
X158969658Y-78475116D01*
X158785829Y-78508730D01*
X158657529Y-78562066D01*
X158511820Y-78671368D01*
X158399652Y-78819649D01*
X158324236Y-79002349D01*
X158288784Y-79214904D01*
X158276299Y-79410805D01*
X158928021Y-79412589D01*
X159147806Y-79414432D01*
X159390904Y-79420977D01*
X159598576Y-79433330D01*
X159781564Y-79452691D01*
X159950611Y-79480261D01*
X160116459Y-79517242D01*
X160289850Y-79564833D01*
X160549286Y-79655420D01*
X160854436Y-79804598D01*
X161122245Y-79987327D01*
X161350070Y-80201038D01*
X161535270Y-80443160D01*
X161675203Y-80711123D01*
X161767229Y-81002358D01*
X161781641Y-81080795D01*
X161800117Y-81274940D01*
X161802443Y-81459526D01*
X161802846Y-81491570D01*
G36*
X161802846Y-81491570D02*
G01*
X161790580Y-81711784D01*
X161764070Y-81916682D01*
X161724068Y-82087364D01*
X161660240Y-82262970D01*
X161512287Y-82552367D01*
X161323172Y-82806982D01*
X161094854Y-83025080D01*
X160829290Y-83204925D01*
X160528439Y-83344782D01*
X160194259Y-83442917D01*
X160057989Y-83465051D01*
X159863261Y-83480433D01*
X159651189Y-83483893D01*
X159439496Y-83475708D01*
X159245902Y-83456157D01*
X159088130Y-83425520D01*
X159008850Y-83401399D01*
X158828793Y-83330812D01*
X158645760Y-83241195D01*
X158478636Y-83142266D01*
X158346304Y-83043744D01*
X158344678Y-83042322D01*
X158272162Y-82980837D01*
X158216370Y-82937056D01*
X158189261Y-82920375D01*
X158186297Y-82924357D01*
X158179591Y-82967377D01*
X158174930Y-83047613D01*
X158173184Y-83152525D01*
X158173184Y-83384676D01*
X157148990Y-83384676D01*
X157121726Y-83384671D01*
X156893061Y-83384271D01*
X156683193Y-83383276D01*
X156498093Y-83381759D01*
X156343732Y-83379795D01*
X156226082Y-83377457D01*
X156151113Y-83374821D01*
X156124797Y-83371960D01*
X156125410Y-83369460D01*
X156142627Y-83332554D01*
X156178718Y-83263217D01*
X156227216Y-83173949D01*
X156329635Y-82988654D01*
X156344653Y-81159261D01*
X158282431Y-81159261D01*
X158283193Y-81303798D01*
X158286884Y-81455666D01*
X158294115Y-81565439D01*
X158305412Y-81640263D01*
X158321302Y-81687287D01*
X158341742Y-81720866D01*
X158418718Y-81812401D01*
X158521856Y-81907695D01*
X158634898Y-81992602D01*
X158741587Y-82052975D01*
X158800781Y-82075127D01*
X158937079Y-82104620D01*
X159115095Y-82119699D01*
X159302780Y-82117415D01*
X159481008Y-82086400D01*
X159629773Y-82022327D01*
X159758482Y-81922309D01*
X159794689Y-81885314D01*
X159888958Y-81759148D01*
X159939963Y-81623159D01*
X159955281Y-81459526D01*
X159951131Y-81373078D01*
X159910092Y-81195116D01*
X159823879Y-81042368D01*
X159690920Y-80913116D01*
X159509647Y-80805641D01*
X159278491Y-80718224D01*
X159185302Y-80695283D01*
X159072486Y-80679575D01*
X158930507Y-80670852D01*
X158746732Y-80667919D01*
X158716879Y-80667921D01*
X158579393Y-80669599D01*
X158461293Y-80673656D01*
X158374323Y-80679559D01*
X158330227Y-80686776D01*
X158325153Y-80689119D01*
X158308747Y-80703832D01*
X158297128Y-80733398D01*
X158289491Y-80785772D01*
X158285033Y-80868905D01*
X158282947Y-80990750D01*
X158282431Y-81159261D01*
X156344653Y-81159261D01*
X156345442Y-81063170D01*
X156347791Y-80782724D01*
X156351078Y-80425053D01*
X156354528Y-80114543D01*
X156358420Y-79846804D01*
X156363032Y-79617442D01*
X156368645Y-79422068D01*
X156375535Y-79256289D01*
X156383982Y-79115715D01*
X156394266Y-78995953D01*
X156406663Y-78892614D01*
X156421454Y-78801305D01*
X156438916Y-78717635D01*
X156459329Y-78637213D01*
X156482972Y-78555647D01*
X156510122Y-78468547D01*
X156617082Y-78195490D01*
X156763559Y-77943128D01*
X156945977Y-77727068D01*
X157166005Y-77546178D01*
X157425313Y-77399328D01*
X157725572Y-77285389D01*
X158068451Y-77203228D01*
X158455621Y-77151717D01*
X158590942Y-77141474D01*
X158818844Y-77133984D01*
X159044731Y-77140729D01*
X159279178Y-77162844D01*
X159532761Y-77201468D01*
X159816055Y-77257737D01*
X160139635Y-77332789D01*
X160214430Y-77350948D01*
X160402260Y-77395634D01*
X160580285Y-77436779D01*
X160737710Y-77471953D01*
X160863739Y-77498725D01*
X160947574Y-77514665D01*
X161140996Y-77546434D01*
X160869069Y-78205501D01*
X160801051Y-78370055D01*
X160734136Y-78531296D01*
X160676723Y-78668961D01*
X160631631Y-78776316D01*
X160601678Y-78846624D01*
X160589682Y-78873149D01*
X160587796Y-78873529D01*
X160553035Y-78861686D01*
X160484682Y-78831337D01*
X160395069Y-78787884D01*
X160208811Y-78703261D01*
X159952508Y-78610735D01*
X159690183Y-78539878D01*
X159432093Y-78492469D01*
X159188499Y-78470289D01*
X158969658Y-78475116D01*
X158785829Y-78508730D01*
X158657529Y-78562066D01*
X158511820Y-78671368D01*
X158399652Y-78819649D01*
X158324236Y-79002349D01*
X158288784Y-79214904D01*
X158276299Y-79410805D01*
X158928021Y-79412589D01*
X159147806Y-79414432D01*
X159390904Y-79420977D01*
X159598576Y-79433330D01*
X159781564Y-79452691D01*
X159950611Y-79480261D01*
X160116459Y-79517242D01*
X160289850Y-79564833D01*
X160549286Y-79655420D01*
X160854436Y-79804598D01*
X161122245Y-79987327D01*
X161350070Y-80201038D01*
X161535270Y-80443160D01*
X161675203Y-80711123D01*
X161767229Y-81002358D01*
X161781641Y-81080795D01*
X161800117Y-81274940D01*
X161802443Y-81459526D01*
X161802846Y-81491570D01*
G37*
X180125440Y-83438659D02*
X180122628Y-83650454D01*
X180119138Y-83832895D01*
X180114898Y-83988241D01*
X180109838Y-84118750D01*
X180103887Y-84226680D01*
X180096973Y-84314291D01*
X180089026Y-84383839D01*
X180079973Y-84437585D01*
X180069745Y-84477785D01*
X180058270Y-84506700D01*
X180045477Y-84526586D01*
X180031295Y-84539703D01*
X180015653Y-84548309D01*
X179998480Y-84554663D01*
X179979705Y-84561022D01*
X179959256Y-84569646D01*
X179947750Y-84573968D01*
X179926645Y-84578687D01*
X179895284Y-84583011D01*
X179851451Y-84586957D01*
X179792927Y-84590542D01*
X179717493Y-84593784D01*
X179622930Y-84596700D01*
X179507020Y-84599307D01*
X179367545Y-84601622D01*
X179202287Y-84603663D01*
X179009026Y-84605447D01*
X178785545Y-84606992D01*
X178529625Y-84608315D01*
X178239047Y-84609433D01*
X177911593Y-84610364D01*
X177545044Y-84611124D01*
X177137183Y-84611732D01*
X176685790Y-84612204D01*
X176188648Y-84612559D01*
X175643537Y-84612812D01*
X175048240Y-84612982D01*
X174400537Y-84613086D01*
X174195282Y-84613106D01*
X173561636Y-84613119D01*
X172979749Y-84613040D01*
X172447428Y-84612851D01*
X171962481Y-84612538D01*
X171522715Y-84612085D01*
X171125940Y-84611475D01*
X170769961Y-84610693D01*
X170452587Y-84609723D01*
X170171627Y-84608549D01*
X169924886Y-84607155D01*
X169710174Y-84605525D01*
X169525299Y-84603643D01*
X169368067Y-84601493D01*
X169236287Y-84599060D01*
X169127766Y-84596327D01*
X169040313Y-84593279D01*
X168971735Y-84589899D01*
X168919839Y-84586172D01*
X168882434Y-84582082D01*
X168857327Y-84577612D01*
X168842327Y-84572748D01*
X168837554Y-84570583D01*
X168818016Y-84563472D01*
X168800099Y-84558279D01*
X168783730Y-84552742D01*
X168768836Y-84544599D01*
X168755346Y-84531590D01*
X168743186Y-84511452D01*
X168732283Y-84481924D01*
X168722566Y-84440744D01*
X168713961Y-84385650D01*
X168706395Y-84314381D01*
X168699797Y-84224675D01*
X168694093Y-84114270D01*
X168689211Y-83980906D01*
X168685078Y-83822319D01*
X168681622Y-83636249D01*
X168678769Y-83420434D01*
X168677833Y-83320497D01*
X169398046Y-83320497D01*
X169398836Y-83330067D01*
X169413323Y-83337823D01*
X169446055Y-83343955D01*
X169501578Y-83348652D01*
X169584441Y-83352106D01*
X169699191Y-83354506D01*
X169850375Y-83356041D01*
X170042540Y-83356903D01*
X170280234Y-83357280D01*
X170568004Y-83357364D01*
X171773441Y-83357364D01*
X171569635Y-82988654D01*
X171569635Y-77635536D01*
X171773441Y-77266826D01*
X169618764Y-77266826D01*
X169610974Y-80100428D01*
X169603184Y-82934031D01*
X169526801Y-83097161D01*
X169486530Y-83178016D01*
X169440929Y-83259013D01*
X169406492Y-83308827D01*
X169406406Y-83308923D01*
X169398046Y-83320497D01*
X168677833Y-83320497D01*
X168676448Y-83172612D01*
X168674586Y-82890521D01*
X168673109Y-82571901D01*
X168671946Y-82214488D01*
X168671024Y-81816023D01*
X168670269Y-81374242D01*
X168669610Y-80886884D01*
X168668974Y-80351688D01*
X168668288Y-79766393D01*
X168667480Y-79128735D01*
X168667375Y-79051539D01*
X168666474Y-78417923D01*
X168665612Y-77836404D01*
X168664853Y-77304720D01*
X168664261Y-76820608D01*
X168663900Y-76381806D01*
X168663833Y-75986052D01*
X168664125Y-75631081D01*
X168664840Y-75314633D01*
X168666040Y-75034443D01*
X168667790Y-74788250D01*
X168670153Y-74573790D01*
X168673195Y-74388802D01*
X168676977Y-74231022D01*
X168681564Y-74098188D01*
X168687020Y-73988036D01*
X168693409Y-73898305D01*
X168700794Y-73826732D01*
X168709239Y-73771053D01*
X168718808Y-73729007D01*
X168729565Y-73698331D01*
X168741574Y-73676761D01*
X168754898Y-73662036D01*
X168769601Y-73651893D01*
X168785748Y-73644068D01*
X168803401Y-73636300D01*
X168822624Y-73626325D01*
X168828249Y-73623146D01*
X168913363Y-73592379D01*
X169006538Y-73579734D01*
X169111571Y-73579738D01*
X169113321Y-73818712D01*
X169113765Y-73846212D01*
X169147149Y-74125749D01*
X169232177Y-74388767D01*
X169367666Y-74632482D01*
X169552436Y-74854107D01*
X169651589Y-74944499D01*
X169872362Y-75094323D01*
X170113246Y-75198803D01*
X170367226Y-75257882D01*
X170627286Y-75271505D01*
X170886410Y-75239616D01*
X171137583Y-75162158D01*
X171344059Y-75054568D01*
X172257891Y-75054568D01*
X172378064Y-75141027D01*
X172479698Y-75222286D01*
X172622909Y-75354826D01*
X172785345Y-75520936D01*
X172960856Y-75714286D01*
X173143291Y-75928547D01*
X173190272Y-75985844D01*
X173270259Y-76084116D01*
X173374814Y-76213045D01*
X173500472Y-76368327D01*
X173643770Y-76545660D01*
X173801243Y-76740739D01*
X173969429Y-76949263D01*
X174144862Y-77166927D01*
X174225328Y-77266826D01*
X174324080Y-77389429D01*
X174503619Y-77612465D01*
X174680014Y-77831733D01*
X174849802Y-78042928D01*
X175009519Y-78241749D01*
X175155701Y-78423890D01*
X175284885Y-78585051D01*
X175393606Y-78720926D01*
X175478401Y-78827214D01*
X175535806Y-78899610D01*
X175562357Y-78933812D01*
X175564548Y-78946665D01*
X175557259Y-78971110D01*
X175538370Y-79009569D01*
X175505996Y-79064768D01*
X175458250Y-79139437D01*
X175393248Y-79236302D01*
X175309105Y-79358092D01*
X175203934Y-79507536D01*
X175075850Y-79687360D01*
X174922968Y-79900293D01*
X174743401Y-80149063D01*
X174535265Y-80436398D01*
X174296675Y-80765026D01*
X174106568Y-81026610D01*
X173874633Y-81345503D01*
X173670615Y-81625552D01*
X173492144Y-81869866D01*
X173336845Y-82081552D01*
X173202347Y-82263720D01*
X173086276Y-82419476D01*
X172986260Y-82551929D01*
X172899927Y-82664187D01*
X172824904Y-82759357D01*
X172758818Y-82840549D01*
X172699297Y-82910870D01*
X172643969Y-82973428D01*
X172590459Y-83031331D01*
X172536397Y-83087688D01*
X172479409Y-83145606D01*
X172269398Y-83357364D01*
X173681129Y-83357421D01*
X175092861Y-83357478D01*
X175083990Y-83186380D01*
X175083560Y-83177783D01*
X175081876Y-83109383D01*
X175085068Y-83043848D01*
X175095271Y-82977586D01*
X175114621Y-82907009D01*
X175145252Y-82828526D01*
X175189300Y-82738547D01*
X175248900Y-82633484D01*
X175326188Y-82509746D01*
X175423298Y-82363743D01*
X175542366Y-82191886D01*
X175685528Y-81990584D01*
X175854918Y-81756249D01*
X176052672Y-81485289D01*
X176280926Y-81174116D01*
X177086625Y-80077229D01*
X177093723Y-81349038D01*
X177094352Y-81467672D01*
X177095462Y-81787218D01*
X177094957Y-82059013D01*
X177092245Y-82288201D01*
X177086730Y-82479926D01*
X177077819Y-82639331D01*
X177064918Y-82771559D01*
X177047433Y-82881754D01*
X177024770Y-82975059D01*
X176996334Y-83056618D01*
X176961533Y-83131575D01*
X176919771Y-83205074D01*
X176870454Y-83282256D01*
X176820880Y-83357364D01*
X179397254Y-83357364D01*
X179330704Y-83268600D01*
X179320282Y-83254558D01*
X179236957Y-83125856D01*
X179179517Y-82995753D01*
X179141798Y-82846674D01*
X179117638Y-82661047D01*
X179116975Y-82652955D01*
X179113469Y-82576389D01*
X179110303Y-82448641D01*
X179107492Y-82272633D01*
X179105049Y-82051283D01*
X179102987Y-81787510D01*
X179101322Y-81484233D01*
X179100065Y-81144371D01*
X179099231Y-80770844D01*
X179098834Y-80366570D01*
X179098887Y-79934468D01*
X179099405Y-79477459D01*
X179100401Y-78998460D01*
X179101455Y-78568797D01*
X179102583Y-78101100D01*
X179103694Y-77682649D01*
X179104926Y-77310515D01*
X179106420Y-76981764D01*
X179108315Y-76693465D01*
X179110750Y-76442687D01*
X179113864Y-76226499D01*
X179117797Y-76041967D01*
X179122689Y-75886161D01*
X179128679Y-75756149D01*
X179135906Y-75649000D01*
X179144509Y-75561781D01*
X179154629Y-75491561D01*
X179166404Y-75435409D01*
X179179974Y-75390392D01*
X179195479Y-75353580D01*
X179213057Y-75322039D01*
X179232848Y-75292840D01*
X179254992Y-75263050D01*
X179279628Y-75229737D01*
X179303457Y-75196354D01*
X179349513Y-75130349D01*
X179377101Y-75088708D01*
X179377767Y-75086964D01*
X179368134Y-75079089D01*
X179334141Y-75072519D01*
X179272004Y-75067151D01*
X179177941Y-75062886D01*
X179048169Y-75059623D01*
X178878907Y-75057260D01*
X178666370Y-75055697D01*
X178406778Y-75054834D01*
X178096346Y-75054568D01*
X176794995Y-75054568D01*
X176863580Y-75136078D01*
X176903330Y-75192060D01*
X176969495Y-75324056D01*
X177027477Y-75488223D01*
X177071731Y-75670326D01*
X177074552Y-75687614D01*
X177082944Y-75778750D01*
X177089300Y-75919599D01*
X177093635Y-76111136D01*
X177095967Y-76354336D01*
X177096313Y-76650175D01*
X177094689Y-76999628D01*
X177086625Y-78166301D01*
X176253614Y-77112889D01*
X176229755Y-77082715D01*
X176018511Y-76815291D01*
X175838166Y-76586266D01*
X175685848Y-76391748D01*
X175558689Y-76227841D01*
X175453816Y-76090653D01*
X175368362Y-75976287D01*
X175299454Y-75880852D01*
X175244224Y-75800451D01*
X175199802Y-75731192D01*
X175163316Y-75669180D01*
X175131897Y-75610522D01*
X175102675Y-75551322D01*
X175057721Y-75446532D01*
X175028681Y-75335989D01*
X175020957Y-75216752D01*
X175021733Y-75054568D01*
X172257891Y-75054568D01*
X171344059Y-75054568D01*
X171373788Y-75039077D01*
X171588011Y-74870316D01*
X171647563Y-74810820D01*
X171823579Y-74590530D01*
X171948477Y-74351465D01*
X172022925Y-74092082D01*
X172047592Y-73810840D01*
X172047592Y-73579729D01*
X175968196Y-73579729D01*
X176213137Y-73579719D01*
X176739339Y-73579647D01*
X177214687Y-73579596D01*
X177641811Y-73579667D01*
X178023338Y-73579966D01*
X178361897Y-73580597D01*
X178660117Y-73581662D01*
X178920626Y-73583267D01*
X179146054Y-73585515D01*
X179339028Y-73588510D01*
X179502177Y-73592356D01*
X179638131Y-73597156D01*
X179749517Y-73603016D01*
X179838964Y-73610038D01*
X179909101Y-73618327D01*
X179962556Y-73627986D01*
X180001958Y-73639120D01*
X180029936Y-73651832D01*
X180049119Y-73666227D01*
X180062134Y-73682407D01*
X180071611Y-73700478D01*
X180080178Y-73720543D01*
X180090463Y-73742706D01*
X180090648Y-73743068D01*
X180095642Y-73757576D01*
X180100223Y-73781870D01*
X180104408Y-73818190D01*
X180108214Y-73868780D01*
X180111660Y-73935881D01*
X180114762Y-74021735D01*
X180117538Y-74128584D01*
X180120006Y-74258670D01*
X180122181Y-74414234D01*
X180124083Y-74597519D01*
X180125729Y-74810767D01*
X180127135Y-75056219D01*
X180128319Y-75336118D01*
X180129299Y-75652705D01*
X180130091Y-76008222D01*
X180130715Y-76404911D01*
X180131185Y-76845015D01*
X180131521Y-77330774D01*
X180131740Y-77864431D01*
X180131858Y-78448228D01*
X180131893Y-79084407D01*
X180131895Y-79209385D01*
X180131955Y-79838934D01*
X180132049Y-80416544D01*
X180132104Y-80944474D01*
X180132049Y-81424983D01*
X180131815Y-81860329D01*
X180131328Y-82252770D01*
X180130518Y-82604565D01*
X180129314Y-82917973D01*
X180127645Y-83195251D01*
X180126176Y-83357364D01*
X180125440Y-83438659D01*
G36*
X180125440Y-83438659D02*
G01*
X180122628Y-83650454D01*
X180119138Y-83832895D01*
X180114898Y-83988241D01*
X180109838Y-84118750D01*
X180103887Y-84226680D01*
X180096973Y-84314291D01*
X180089026Y-84383839D01*
X180079973Y-84437585D01*
X180069745Y-84477785D01*
X180058270Y-84506700D01*
X180045477Y-84526586D01*
X180031295Y-84539703D01*
X180015653Y-84548309D01*
X179998480Y-84554663D01*
X179979705Y-84561022D01*
X179959256Y-84569646D01*
X179947750Y-84573968D01*
X179926645Y-84578687D01*
X179895284Y-84583011D01*
X179851451Y-84586957D01*
X179792927Y-84590542D01*
X179717493Y-84593784D01*
X179622930Y-84596700D01*
X179507020Y-84599307D01*
X179367545Y-84601622D01*
X179202287Y-84603663D01*
X179009026Y-84605447D01*
X178785545Y-84606992D01*
X178529625Y-84608315D01*
X178239047Y-84609433D01*
X177911593Y-84610364D01*
X177545044Y-84611124D01*
X177137183Y-84611732D01*
X176685790Y-84612204D01*
X176188648Y-84612559D01*
X175643537Y-84612812D01*
X175048240Y-84612982D01*
X174400537Y-84613086D01*
X174195282Y-84613106D01*
X173561636Y-84613119D01*
X172979749Y-84613040D01*
X172447428Y-84612851D01*
X171962481Y-84612538D01*
X171522715Y-84612085D01*
X171125940Y-84611475D01*
X170769961Y-84610693D01*
X170452587Y-84609723D01*
X170171627Y-84608549D01*
X169924886Y-84607155D01*
X169710174Y-84605525D01*
X169525299Y-84603643D01*
X169368067Y-84601493D01*
X169236287Y-84599060D01*
X169127766Y-84596327D01*
X169040313Y-84593279D01*
X168971735Y-84589899D01*
X168919839Y-84586172D01*
X168882434Y-84582082D01*
X168857327Y-84577612D01*
X168842327Y-84572748D01*
X168837554Y-84570583D01*
X168818016Y-84563472D01*
X168800099Y-84558279D01*
X168783730Y-84552742D01*
X168768836Y-84544599D01*
X168755346Y-84531590D01*
X168743186Y-84511452D01*
X168732283Y-84481924D01*
X168722566Y-84440744D01*
X168713961Y-84385650D01*
X168706395Y-84314381D01*
X168699797Y-84224675D01*
X168694093Y-84114270D01*
X168689211Y-83980906D01*
X168685078Y-83822319D01*
X168681622Y-83636249D01*
X168678769Y-83420434D01*
X168677833Y-83320497D01*
X169398046Y-83320497D01*
X169398836Y-83330067D01*
X169413323Y-83337823D01*
X169446055Y-83343955D01*
X169501578Y-83348652D01*
X169584441Y-83352106D01*
X169699191Y-83354506D01*
X169850375Y-83356041D01*
X170042540Y-83356903D01*
X170280234Y-83357280D01*
X170568004Y-83357364D01*
X171773441Y-83357364D01*
X171569635Y-82988654D01*
X171569635Y-77635536D01*
X171773441Y-77266826D01*
X169618764Y-77266826D01*
X169610974Y-80100428D01*
X169603184Y-82934031D01*
X169526801Y-83097161D01*
X169486530Y-83178016D01*
X169440929Y-83259013D01*
X169406492Y-83308827D01*
X169406406Y-83308923D01*
X169398046Y-83320497D01*
X168677833Y-83320497D01*
X168676448Y-83172612D01*
X168674586Y-82890521D01*
X168673109Y-82571901D01*
X168671946Y-82214488D01*
X168671024Y-81816023D01*
X168670269Y-81374242D01*
X168669610Y-80886884D01*
X168668974Y-80351688D01*
X168668288Y-79766393D01*
X168667480Y-79128735D01*
X168667375Y-79051539D01*
X168666474Y-78417923D01*
X168665612Y-77836404D01*
X168664853Y-77304720D01*
X168664261Y-76820608D01*
X168663900Y-76381806D01*
X168663833Y-75986052D01*
X168664125Y-75631081D01*
X168664840Y-75314633D01*
X168666040Y-75034443D01*
X168667790Y-74788250D01*
X168670153Y-74573790D01*
X168673195Y-74388802D01*
X168676977Y-74231022D01*
X168681564Y-74098188D01*
X168687020Y-73988036D01*
X168693409Y-73898305D01*
X168700794Y-73826732D01*
X168709239Y-73771053D01*
X168718808Y-73729007D01*
X168729565Y-73698331D01*
X168741574Y-73676761D01*
X168754898Y-73662036D01*
X168769601Y-73651893D01*
X168785748Y-73644068D01*
X168803401Y-73636300D01*
X168822624Y-73626325D01*
X168828249Y-73623146D01*
X168913363Y-73592379D01*
X169006538Y-73579734D01*
X169111571Y-73579738D01*
X169113321Y-73818712D01*
X169113765Y-73846212D01*
X169147149Y-74125749D01*
X169232177Y-74388767D01*
X169367666Y-74632482D01*
X169552436Y-74854107D01*
X169651589Y-74944499D01*
X169872362Y-75094323D01*
X170113246Y-75198803D01*
X170367226Y-75257882D01*
X170627286Y-75271505D01*
X170886410Y-75239616D01*
X171137583Y-75162158D01*
X171344059Y-75054568D01*
X172257891Y-75054568D01*
X172378064Y-75141027D01*
X172479698Y-75222286D01*
X172622909Y-75354826D01*
X172785345Y-75520936D01*
X172960856Y-75714286D01*
X173143291Y-75928547D01*
X173190272Y-75985844D01*
X173270259Y-76084116D01*
X173374814Y-76213045D01*
X173500472Y-76368327D01*
X173643770Y-76545660D01*
X173801243Y-76740739D01*
X173969429Y-76949263D01*
X174144862Y-77166927D01*
X174225328Y-77266826D01*
X174324080Y-77389429D01*
X174503619Y-77612465D01*
X174680014Y-77831733D01*
X174849802Y-78042928D01*
X175009519Y-78241749D01*
X175155701Y-78423890D01*
X175284885Y-78585051D01*
X175393606Y-78720926D01*
X175478401Y-78827214D01*
X175535806Y-78899610D01*
X175562357Y-78933812D01*
X175564548Y-78946665D01*
X175557259Y-78971110D01*
X175538370Y-79009569D01*
X175505996Y-79064768D01*
X175458250Y-79139437D01*
X175393248Y-79236302D01*
X175309105Y-79358092D01*
X175203934Y-79507536D01*
X175075850Y-79687360D01*
X174922968Y-79900293D01*
X174743401Y-80149063D01*
X174535265Y-80436398D01*
X174296675Y-80765026D01*
X174106568Y-81026610D01*
X173874633Y-81345503D01*
X173670615Y-81625552D01*
X173492144Y-81869866D01*
X173336845Y-82081552D01*
X173202347Y-82263720D01*
X173086276Y-82419476D01*
X172986260Y-82551929D01*
X172899927Y-82664187D01*
X172824904Y-82759357D01*
X172758818Y-82840549D01*
X172699297Y-82910870D01*
X172643969Y-82973428D01*
X172590459Y-83031331D01*
X172536397Y-83087688D01*
X172479409Y-83145606D01*
X172269398Y-83357364D01*
X173681129Y-83357421D01*
X175092861Y-83357478D01*
X175083990Y-83186380D01*
X175083560Y-83177783D01*
X175081876Y-83109383D01*
X175085068Y-83043848D01*
X175095271Y-82977586D01*
X175114621Y-82907009D01*
X175145252Y-82828526D01*
X175189300Y-82738547D01*
X175248900Y-82633484D01*
X175326188Y-82509746D01*
X175423298Y-82363743D01*
X175542366Y-82191886D01*
X175685528Y-81990584D01*
X175854918Y-81756249D01*
X176052672Y-81485289D01*
X176280926Y-81174116D01*
X177086625Y-80077229D01*
X177093723Y-81349038D01*
X177094352Y-81467672D01*
X177095462Y-81787218D01*
X177094957Y-82059013D01*
X177092245Y-82288201D01*
X177086730Y-82479926D01*
X177077819Y-82639331D01*
X177064918Y-82771559D01*
X177047433Y-82881754D01*
X177024770Y-82975059D01*
X176996334Y-83056618D01*
X176961533Y-83131575D01*
X176919771Y-83205074D01*
X176870454Y-83282256D01*
X176820880Y-83357364D01*
X179397254Y-83357364D01*
X179330704Y-83268600D01*
X179320282Y-83254558D01*
X179236957Y-83125856D01*
X179179517Y-82995753D01*
X179141798Y-82846674D01*
X179117638Y-82661047D01*
X179116975Y-82652955D01*
X179113469Y-82576389D01*
X179110303Y-82448641D01*
X179107492Y-82272633D01*
X179105049Y-82051283D01*
X179102987Y-81787510D01*
X179101322Y-81484233D01*
X179100065Y-81144371D01*
X179099231Y-80770844D01*
X179098834Y-80366570D01*
X179098887Y-79934468D01*
X179099405Y-79477459D01*
X179100401Y-78998460D01*
X179101455Y-78568797D01*
X179102583Y-78101100D01*
X179103694Y-77682649D01*
X179104926Y-77310515D01*
X179106420Y-76981764D01*
X179108315Y-76693465D01*
X179110750Y-76442687D01*
X179113864Y-76226499D01*
X179117797Y-76041967D01*
X179122689Y-75886161D01*
X179128679Y-75756149D01*
X179135906Y-75649000D01*
X179144509Y-75561781D01*
X179154629Y-75491561D01*
X179166404Y-75435409D01*
X179179974Y-75390392D01*
X179195479Y-75353580D01*
X179213057Y-75322039D01*
X179232848Y-75292840D01*
X179254992Y-75263050D01*
X179279628Y-75229737D01*
X179303457Y-75196354D01*
X179349513Y-75130349D01*
X179377101Y-75088708D01*
X179377767Y-75086964D01*
X179368134Y-75079089D01*
X179334141Y-75072519D01*
X179272004Y-75067151D01*
X179177941Y-75062886D01*
X179048169Y-75059623D01*
X178878907Y-75057260D01*
X178666370Y-75055697D01*
X178406778Y-75054834D01*
X178096346Y-75054568D01*
X176794995Y-75054568D01*
X176863580Y-75136078D01*
X176903330Y-75192060D01*
X176969495Y-75324056D01*
X177027477Y-75488223D01*
X177071731Y-75670326D01*
X177074552Y-75687614D01*
X177082944Y-75778750D01*
X177089300Y-75919599D01*
X177093635Y-76111136D01*
X177095967Y-76354336D01*
X177096313Y-76650175D01*
X177094689Y-76999628D01*
X177086625Y-78166301D01*
X176253614Y-77112889D01*
X176229755Y-77082715D01*
X176018511Y-76815291D01*
X175838166Y-76586266D01*
X175685848Y-76391748D01*
X175558689Y-76227841D01*
X175453816Y-76090653D01*
X175368362Y-75976287D01*
X175299454Y-75880852D01*
X175244224Y-75800451D01*
X175199802Y-75731192D01*
X175163316Y-75669180D01*
X175131897Y-75610522D01*
X175102675Y-75551322D01*
X175057721Y-75446532D01*
X175028681Y-75335989D01*
X175020957Y-75216752D01*
X175021733Y-75054568D01*
X172257891Y-75054568D01*
X171344059Y-75054568D01*
X171373788Y-75039077D01*
X171588011Y-74870316D01*
X171647563Y-74810820D01*
X171823579Y-74590530D01*
X171948477Y-74351465D01*
X172022925Y-74092082D01*
X172047592Y-73810840D01*
X172047592Y-73579729D01*
X175968196Y-73579729D01*
X176213137Y-73579719D01*
X176739339Y-73579647D01*
X177214687Y-73579596D01*
X177641811Y-73579667D01*
X178023338Y-73579966D01*
X178361897Y-73580597D01*
X178660117Y-73581662D01*
X178920626Y-73583267D01*
X179146054Y-73585515D01*
X179339028Y-73588510D01*
X179502177Y-73592356D01*
X179638131Y-73597156D01*
X179749517Y-73603016D01*
X179838964Y-73610038D01*
X179909101Y-73618327D01*
X179962556Y-73627986D01*
X180001958Y-73639120D01*
X180029936Y-73651832D01*
X180049119Y-73666227D01*
X180062134Y-73682407D01*
X180071611Y-73700478D01*
X180080178Y-73720543D01*
X180090463Y-73742706D01*
X180090648Y-73743068D01*
X180095642Y-73757576D01*
X180100223Y-73781870D01*
X180104408Y-73818190D01*
X180108214Y-73868780D01*
X180111660Y-73935881D01*
X180114762Y-74021735D01*
X180117538Y-74128584D01*
X180120006Y-74258670D01*
X180122181Y-74414234D01*
X180124083Y-74597519D01*
X180125729Y-74810767D01*
X180127135Y-75056219D01*
X180128319Y-75336118D01*
X180129299Y-75652705D01*
X180130091Y-76008222D01*
X180130715Y-76404911D01*
X180131185Y-76845015D01*
X180131521Y-77330774D01*
X180131740Y-77864431D01*
X180131858Y-78448228D01*
X180131893Y-79084407D01*
X180131895Y-79209385D01*
X180131955Y-79838934D01*
X180132049Y-80416544D01*
X180132104Y-80944474D01*
X180132049Y-81424983D01*
X180131815Y-81860329D01*
X180131328Y-82252770D01*
X180130518Y-82604565D01*
X180129314Y-82917973D01*
X180127645Y-83195251D01*
X180126176Y-83357364D01*
X180125440Y-83438659D01*
G37*
%TD*%
M02*
