%TF.GenerationSoftware,KiCad,Pcbnew,9.0.4*%
%TF.CreationDate,2025-12-21T22:50:07+05:30*%
%TF.ProjectId,ESP-32 C3 demo project004,4553502d-3332-4204-9333-2064656d6f20,rev?*%
%TF.SameCoordinates,Original*%
%TF.FileFunction,Plated,1,4,PTH,Mixed*%
%TF.FilePolarity,Positive*%
%FSLAX46Y46*%
G04 Gerber Fmt 4.6, Leading zero omitted, Abs format (unit mm)*
G04 Created by KiCad (PCBNEW 9.0.4) date 2025-12-21 22:50:07*
%MOMM*%
%LPD*%
G01*
G04 APERTURE LIST*
%TA.AperFunction,ViaDrill*%
%ADD10C,0.250000*%
%TD*%
%TA.AperFunction,ViaDrill*%
%ADD11C,0.300000*%
%TD*%
%TA.AperFunction,ComponentDrill*%
%ADD12C,0.300000*%
%TD*%
%TA.AperFunction,ComponentDrill*%
%ADD13C,0.450000*%
%TD*%
G04 aperture for slot hole*
%TA.AperFunction,ComponentDrill*%
%ADD14C,0.650000*%
%TD*%
%TA.AperFunction,ComponentDrill*%
%ADD15C,0.700000*%
%TD*%
%TA.AperFunction,ComponentDrill*%
%ADD16C,1.000000*%
%TD*%
G04 APERTURE END LIST*
D10*
X145440000Y-99670000D03*
X145450000Y-98310000D03*
X145450000Y-98970000D03*
X147470000Y-73840000D03*
X148770000Y-73860000D03*
X150290000Y-73840000D03*
X150368000Y-61595000D03*
X152019000Y-73914000D03*
X152760000Y-74960000D03*
X152810000Y-76200000D03*
X152810000Y-77700000D03*
X153797000Y-91567000D03*
X154000000Y-76180000D03*
X154000000Y-77700000D03*
X154178000Y-86637500D03*
X154700000Y-90710000D03*
X156591000Y-86637500D03*
X156845000Y-53975000D03*
X158750000Y-97663000D03*
X158877000Y-86567500D03*
X160528000Y-91313000D03*
X163576000Y-92202000D03*
X164973000Y-50546000D03*
X166243000Y-56642000D03*
X168402000Y-87503000D03*
X170929000Y-77597000D03*
X171701716Y-79359852D03*
X175514000Y-62611000D03*
X176022000Y-77724000D03*
X178435000Y-81280000D03*
X179705000Y-72898000D03*
X187960000Y-59690000D03*
X190246000Y-48641000D03*
X192024000Y-51816000D03*
X192405000Y-97340000D03*
X202946000Y-71501000D03*
X205613000Y-52324000D03*
X211201000Y-71882000D03*
X215011000Y-66420500D03*
X217043000Y-60569000D03*
X218440000Y-72136000D03*
X226187000Y-71882000D03*
X227330000Y-97409000D03*
D11*
X145034000Y-65913000D03*
X145288000Y-80720000D03*
X145542000Y-69342000D03*
X147320000Y-90805000D03*
X148590000Y-80720000D03*
X151494911Y-88916089D03*
X151927000Y-90124814D03*
X152273000Y-61722000D03*
X153797000Y-61722000D03*
X154432000Y-98044000D03*
X155067000Y-61722000D03*
X156464000Y-61722000D03*
X156972000Y-95758000D03*
X157226000Y-89789000D03*
X157622003Y-95758000D03*
X157861000Y-61722000D03*
X158242258Y-89531183D03*
X158877000Y-90424000D03*
X159258000Y-61722000D03*
X160020000Y-92263997D03*
X160020000Y-93664003D03*
X161798000Y-52909000D03*
X161798000Y-54229000D03*
X161897000Y-80146000D03*
X161907000Y-81076000D03*
X161927000Y-82036000D03*
X163957000Y-67437000D03*
X164846000Y-60579000D03*
X166497000Y-87122000D03*
X166624000Y-67183000D03*
X167671000Y-80137000D03*
X167671000Y-81026000D03*
X167671000Y-82042000D03*
X168148000Y-73787000D03*
X168148000Y-74518000D03*
X168275000Y-93345000D03*
X168783000Y-72771000D03*
X170053000Y-50673000D03*
X170053000Y-87122000D03*
X170180000Y-83439000D03*
X170900000Y-86231472D03*
X171704000Y-83947000D03*
X172509535Y-84714535D03*
X173482000Y-83185000D03*
X173990000Y-75565000D03*
X176276000Y-59944000D03*
X179451000Y-67437000D03*
X179451000Y-74803000D03*
X181229000Y-91059000D03*
X184023000Y-62103000D03*
X185928000Y-64262000D03*
X188976000Y-51816000D03*
X189103000Y-44704000D03*
X189900000Y-92583000D03*
X189950000Y-90043000D03*
X190373000Y-87503000D03*
X190754000Y-96393000D03*
X190754000Y-98171000D03*
X191008000Y-48514000D03*
X191516000Y-90170000D03*
X193167000Y-90551000D03*
X193675000Y-48768000D03*
X195326000Y-60325000D03*
X198247000Y-87122000D03*
X199390000Y-57404000D03*
X199390000Y-96393000D03*
X199390000Y-98044000D03*
X204203998Y-49318000D03*
X204724000Y-48768000D03*
X205867000Y-49918000D03*
X210947000Y-68326000D03*
X211328000Y-60452000D03*
X214630000Y-56854000D03*
X214817409Y-51501591D03*
X220472000Y-68580000D03*
X220599000Y-53161250D03*
X225425000Y-48768000D03*
X228201396Y-59418396D03*
X228536262Y-55813882D03*
X228600000Y-56515000D03*
X228600000Y-66675000D03*
X228981000Y-50673000D03*
X228981000Y-60890500D03*
X229108000Y-57912000D03*
X231809631Y-49114369D03*
D12*
%TO.C,U3*%
X221660000Y-54540500D03*
X221660000Y-55640500D03*
X222210000Y-53990500D03*
X222210000Y-55090500D03*
X222210000Y-56190500D03*
X222760000Y-54540500D03*
X222760000Y-55640500D03*
X223310000Y-53990500D03*
X223310000Y-55090500D03*
X223310000Y-56190500D03*
X223860000Y-54540500D03*
X223860000Y-55640500D03*
D13*
%TO.C,J1*%
X168904000Y-90132000D03*
X169304000Y-90842000D03*
X169704000Y-90132000D03*
X170104000Y-90842000D03*
X170504000Y-90132000D03*
X170904000Y-90842000D03*
X171304000Y-90132000D03*
X172104000Y-90132000D03*
X172504000Y-90842000D03*
X172904000Y-90132000D03*
X173304000Y-90842000D03*
X173704000Y-90132000D03*
X174104000Y-90842000D03*
X174504000Y-90132000D03*
D14*
X167434000Y-91582000D02*
X167434000Y-90982000D01*
X167434000Y-96312000D02*
X167434000Y-95712000D01*
X175974000Y-91582000D02*
X175974000Y-90982000D01*
X175974000Y-96312000D02*
X175974000Y-95712000D01*
D15*
%TO.C,MK1*%
X152638000Y-54549000D03*
X152638000Y-56449000D03*
D16*
%TO.C,J5*%
X151680000Y-44580000D03*
X154220000Y-44580000D03*
X156760000Y-44580000D03*
X159300000Y-44580000D03*
X161840000Y-44580000D03*
%TO.C,J4*%
X173590000Y-44720000D03*
X176130000Y-44720000D03*
X178670000Y-44720000D03*
X181210000Y-44720000D03*
M02*
