M48
; DRILL file {KiCad 9.0.4} date 2025-12-28T12:05:50+0530
; FORMAT={-:-/ absolute / inch / decimal}
; #@! TF.CreationDate,2025-12-28T12:05:50+05:30
; #@! TF.GenerationSoftware,Kicad,Pcbnew,9.0.4
; #@! TF.FileFunction,MixedPlating,1,4
FMAT,2
INCH
; #@! TA.AperFunction,Plated,PTH,ViaDrill
T1C0.0098
; #@! TA.AperFunction,Plated,PTH,ViaDrill
T2C0.0118
; #@! TA.AperFunction,Plated,PTH,ComponentDrill
T3C0.0118
; #@! TA.AperFunction,Plated,PTH,ViaDrill
T4C0.0157
; #@! TA.AperFunction,Plated,PTH,ComponentDrill
T5C0.0177
; #@! TA.AperFunction,Plated,PTH,ComponentDrill
T6C0.0256
; #@! TA.AperFunction,Plated,PTH,ComponentDrill
T7C0.0276
; #@! TA.AperFunction,Plated,PTH,ComponentDrill
T8C0.0394
; #@! TA.AperFunction,NonPlated,NPTH,ComponentDrill
T9C0.0453
; #@! TA.AperFunction,NonPlated,NPTH,ComponentDrill
T10C0.0650
; #@! TA.AperFunction,NonPlated,NPTH,ComponentDrill
T11C0.0827
%
G90
G05
T1
X5.726Y-3.924
X5.7264Y-3.8705
X5.7264Y-3.8965
X5.8059Y-2.9071
X5.8571Y-2.9079
X5.9169Y-2.9071
X5.92Y-2.425
X5.985Y-2.91
X6.0142Y-2.9512
X6.0161Y-3.0
X6.0161Y-3.0591
X6.055Y-3.605
X6.063Y-2.9992
X6.063Y-3.0591
X6.07Y-3.4109
X6.0906Y-3.5713
X6.165Y-3.4109
X6.175Y-2.125
X6.25Y-3.845
X6.255Y-3.4082
X6.32Y-3.595
X6.44Y-3.63
X6.495Y-1.99
X6.545Y-2.23
X6.63Y-3.445
X6.7295Y-3.055
X6.7599Y-3.1244
X6.93Y-3.06
X7.025Y-3.2
X7.4Y-2.35
X7.49Y-1.915
X7.56Y-2.04
X7.99Y-2.815
X8.095Y-2.06
X8.315Y-2.83
X8.465Y-2.615
X8.545Y-2.3846
X8.6Y-2.84
X8.905Y-2.83
X8.95Y-3.835
T2
X5.71Y-2.595
X5.72Y-3.178
X5.73Y-2.73
X5.8Y-3.575
X5.85Y-3.178
X5.9644Y-3.5006
X5.9814Y-3.5482
X5.995Y-2.43
X6.055Y-2.43
X6.08Y-3.86
X6.105Y-2.43
X6.16Y-2.43
X6.18Y-3.77
X6.19Y-3.535
X6.2056Y-3.77
X6.215Y-2.43
X6.23Y-3.5248
X6.255Y-3.56
X6.265Y-3.775
X6.27Y-2.43
X6.3Y-3.6324
X6.3Y-3.6876
X6.325Y-3.695
X6.37Y-2.083
X6.37Y-2.135
X6.3739Y-3.1554
X6.3743Y-3.192
X6.3751Y-3.2298
X6.455Y-2.655
X6.48Y-3.465
X6.49Y-2.385
X6.555Y-3.43
X6.56Y-2.645
X6.6012Y-3.155
X6.6012Y-3.19
X6.6012Y-3.23
X6.62Y-2.905
X6.62Y-2.9338
X6.625Y-3.675
X6.645Y-2.865
X6.695Y-1.995
X6.695Y-3.43
X6.7Y-2.175
X6.7Y-3.285
X6.7283Y-3.3949
X6.76Y-3.305
X6.775Y-2.275
X6.7917Y-3.3352
X6.83Y-3.275
X6.85Y-2.975
X6.94Y-2.36
X6.98Y-2.145
X7.065Y-2.655
X7.065Y-2.945
X7.245Y-2.445
X7.32Y-2.53
X7.44Y-2.04
X7.445Y-1.76
X7.4848Y-3.5472
X7.4868Y-3.4472
X7.5034Y-3.3472
X7.52Y-1.91
X7.5484Y-3.4522
X7.6134Y-3.4672
X7.625Y-1.92
X7.69Y-2.375
X7.8134Y-3.3322
X7.85Y-2.26
X8.0395Y-1.9417
X8.06Y-1.92
X8.105Y-1.9653
X8.305Y-2.69
X8.32Y-2.38
X8.45Y-2.2383
X8.4574Y-2.0276
X8.58Y-2.305
X8.68Y-2.7
X8.685Y-2.093
X8.795Y-2.615
X8.875Y-1.92
X8.975Y-1.965
X8.9843Y-2.3393
X8.9975Y-2.1974
X9.0Y-2.225
X9.015Y-1.995
X9.015Y-2.3973
X9.02Y-2.28
T3
X8.7268Y-2.1473
X8.7268Y-2.1906
X8.7484Y-2.1256
X8.7484Y-2.1689
X8.7484Y-2.2122
X8.7701Y-2.1473
X8.7701Y-2.1906
X8.7917Y-2.1256
X8.7917Y-2.1689
X8.7917Y-2.2122
X8.8134Y-2.1473
X8.8134Y-2.1906
T4
X7.11Y-2.36
X7.19Y-3.495
X7.445Y-2.53
X7.61Y-3.655
X7.94Y-3.825
X9.16Y-2.145
T5
X6.6498Y-3.5485
X6.6655Y-3.5765
X6.6813Y-3.5485
X6.697Y-3.5765
X6.7128Y-3.5485
X6.7285Y-3.5765
X6.7443Y-3.5485
X6.7757Y-3.5485
X6.7915Y-3.5765
X6.8072Y-3.5485
X6.823Y-3.5765
X6.8387Y-3.5485
X6.8545Y-3.5765
X6.8702Y-3.5485
T7
X6.0094Y-2.1476
X6.0094Y-2.2224
T8
X5.9717Y-1.7551
X6.0717Y-1.7551
X6.1717Y-1.7551
X6.2717Y-1.7551
X6.3717Y-1.7551
X6.8343Y-1.7606
X6.9343Y-1.7606
X7.0343Y-1.7606
X7.1343Y-1.7606
T9
X8.0776Y-3.0193
T10
X8.9043Y-3.0193
T11
X5.6858Y-1.8236
X7.7961Y-3.0579
T6
X6.5919Y-3.582G85X6.5919Y-3.6056
G05
X6.5919Y-3.7682G85X6.5919Y-3.7918
G05
X6.9281Y-3.582G85X6.9281Y-3.6056
G05
X6.9281Y-3.7682G85X6.9281Y-3.7918
G05
M30
