%TF.GenerationSoftware,KiCad,Pcbnew,9.0.4*%
%TF.CreationDate,2025-12-28T12:05:50+05:30*%
%TF.ProjectId,ESP-32 C3 demo project004,4553502d-3332-4204-9333-2064656d6f20,rev?*%
%TF.SameCoordinates,Original*%
%TF.FileFunction,Legend,Top*%
%TF.FilePolarity,Positive*%
%FSLAX45Y45*%
G04 Gerber Fmt 4.5, Leading zero omitted, Abs format (unit mm)*
G04 Created by KiCad (PCBNEW 9.0.4) date 2025-12-28 12:05:50*
%MOMM*%
%LPD*%
G01*
G04 APERTURE LIST*
%ADD10C,0.100000*%
%ADD11C,0.240000*%
%ADD12C,0.200000*%
%ADD13C,0.500000*%
%ADD14C,0.280000*%
%ADD15C,0.125000*%
%ADD16C,0.150000*%
%ADD17C,0.120000*%
%ADD18C,0.254000*%
%ADD19C,0.127000*%
%ADD20C,0.152400*%
%ADD21C,0.203200*%
G04 APERTURE END LIST*
D10*
X16090900Y-7198100D02*
X16090900Y-6330950D01*
X18592800Y-4381500D02*
X19812000Y-4381500D01*
X19526250Y-8407400D02*
X19526250Y-6858000D01*
X16230600Y-10033000D02*
X14173200Y-10033000D01*
X14605000Y-6057900D02*
X14185900Y-6057900D01*
X17970500Y-10045700D02*
X20129500Y-10045700D01*
X18592800Y-5397500D02*
X18592800Y-4381500D01*
X19812000Y-5397500D02*
X18592800Y-5397500D01*
X16230600Y-8318500D02*
X16230600Y-8407400D01*
X18440400Y-6858000D02*
X20154900Y-6858000D01*
X17691100Y-5727700D02*
X18440400Y-5740400D01*
X18440400Y-6654800D02*
X17411700Y-6654800D01*
X14173200Y-6057900D02*
X14173200Y-7480300D01*
X18440400Y-5740400D02*
X18440400Y-6654800D01*
X20154900Y-5422900D02*
X18440400Y-5422900D01*
X17411700Y-6330950D02*
X16014700Y-6330950D01*
X15176500Y-8318500D02*
X16230600Y-8318500D01*
X14173200Y-10033000D02*
X14173200Y-7480300D01*
X19812000Y-4381500D02*
X19812000Y-5397500D01*
X20154900Y-6858000D02*
X20154900Y-5422900D01*
X20129500Y-8407400D02*
X18923000Y-8407400D01*
X15176500Y-7480300D02*
X15176500Y-8318500D01*
X18923000Y-8407400D02*
X17970500Y-9004300D01*
X17691100Y-4940300D02*
X17691100Y-5727700D01*
X16014700Y-6330950D02*
X16014700Y-6057900D01*
X16230600Y-8318500D02*
X16230600Y-7198100D01*
X17970500Y-9004300D02*
X17970500Y-10045700D01*
X16014700Y-6057900D02*
X14605000Y-6057900D01*
X18440400Y-5422900D02*
X18440400Y-6858000D01*
X14605000Y-6057900D02*
X14605000Y-4940300D01*
X14605000Y-4940300D02*
X17691100Y-4940300D01*
X14173200Y-7480300D02*
X15176500Y-7480300D01*
X20129500Y-10045700D02*
X20129500Y-8407400D01*
X17411700Y-6654800D02*
X17411700Y-6007100D01*
X16230600Y-8407400D02*
X16230600Y-10033000D01*
X16230600Y-7198100D02*
X16090900Y-7198100D01*
X17411700Y-6007100D02*
X17691100Y-5727700D01*
X17787212Y-4724680D02*
X17797212Y-4728013D01*
X17797212Y-4728013D02*
X17813879Y-4728013D01*
X17813879Y-4728013D02*
X17820546Y-4724680D01*
X17820546Y-4724680D02*
X17823879Y-4721347D01*
X17823879Y-4721347D02*
X17827212Y-4714680D01*
X17827212Y-4714680D02*
X17827212Y-4708013D01*
X17827212Y-4708013D02*
X17823879Y-4701347D01*
X17823879Y-4701347D02*
X17820546Y-4698013D01*
X17820546Y-4698013D02*
X17813879Y-4694680D01*
X17813879Y-4694680D02*
X17800546Y-4691347D01*
X17800546Y-4691347D02*
X17793879Y-4688013D01*
X17793879Y-4688013D02*
X17790546Y-4684680D01*
X17790546Y-4684680D02*
X17787212Y-4678013D01*
X17787212Y-4678013D02*
X17787212Y-4671347D01*
X17787212Y-4671347D02*
X17790546Y-4664680D01*
X17790546Y-4664680D02*
X17793879Y-4661347D01*
X17793879Y-4661347D02*
X17800546Y-4658013D01*
X17800546Y-4658013D02*
X17817212Y-4658013D01*
X17817212Y-4658013D02*
X17827212Y-4661347D01*
X17857212Y-4728013D02*
X17857212Y-4658013D01*
X17857212Y-4658013D02*
X17873879Y-4658013D01*
X17873879Y-4658013D02*
X17883879Y-4661347D01*
X17883879Y-4661347D02*
X17890546Y-4668013D01*
X17890546Y-4668013D02*
X17893879Y-4674680D01*
X17893879Y-4674680D02*
X17897212Y-4688013D01*
X17897212Y-4688013D02*
X17897212Y-4698013D01*
X17897212Y-4698013D02*
X17893879Y-4711347D01*
X17893879Y-4711347D02*
X17890546Y-4718013D01*
X17890546Y-4718013D02*
X17883879Y-4724680D01*
X17883879Y-4724680D02*
X17873879Y-4728013D01*
X17873879Y-4728013D02*
X17857212Y-4728013D01*
X17923879Y-4708013D02*
X17957212Y-4708013D01*
X17917212Y-4728013D02*
X17940546Y-4658013D01*
X17940546Y-4658013D02*
X17963879Y-4728013D01*
D11*
X18613661Y-5521909D02*
X18573661Y-5521909D01*
X18573661Y-5584766D02*
X18573661Y-5464766D01*
X18573661Y-5464766D02*
X18630804Y-5464766D01*
X18733661Y-5584766D02*
X18676518Y-5584766D01*
X18676518Y-5584766D02*
X18676518Y-5464766D01*
X18767947Y-5550481D02*
X18825089Y-5550481D01*
X18756518Y-5584766D02*
X18796518Y-5464766D01*
X18796518Y-5464766D02*
X18836518Y-5584766D01*
X18870804Y-5579052D02*
X18887947Y-5584766D01*
X18887947Y-5584766D02*
X18916518Y-5584766D01*
X18916518Y-5584766D02*
X18927947Y-5579052D01*
X18927947Y-5579052D02*
X18933661Y-5573338D01*
X18933661Y-5573338D02*
X18939375Y-5561909D01*
X18939375Y-5561909D02*
X18939375Y-5550481D01*
X18939375Y-5550481D02*
X18933661Y-5539052D01*
X18933661Y-5539052D02*
X18927947Y-5533338D01*
X18927947Y-5533338D02*
X18916518Y-5527623D01*
X18916518Y-5527623D02*
X18893661Y-5521909D01*
X18893661Y-5521909D02*
X18882232Y-5516195D01*
X18882232Y-5516195D02*
X18876518Y-5510481D01*
X18876518Y-5510481D02*
X18870804Y-5499052D01*
X18870804Y-5499052D02*
X18870804Y-5487623D01*
X18870804Y-5487623D02*
X18876518Y-5476195D01*
X18876518Y-5476195D02*
X18882232Y-5470481D01*
X18882232Y-5470481D02*
X18893661Y-5464766D01*
X18893661Y-5464766D02*
X18922232Y-5464766D01*
X18922232Y-5464766D02*
X18939375Y-5470481D01*
X18990804Y-5584766D02*
X18990804Y-5464766D01*
X18990804Y-5521909D02*
X19059375Y-5521909D01*
X19059375Y-5584766D02*
X19059375Y-5464766D01*
D10*
X15903165Y-4634090D02*
X15910784Y-4634090D01*
X15910784Y-4634090D02*
X15918403Y-4637899D01*
X15918403Y-4637899D02*
X15922212Y-4641709D01*
X15922212Y-4641709D02*
X15926022Y-4649328D01*
X15926022Y-4649328D02*
X15929831Y-4664566D01*
X15929831Y-4664566D02*
X15929831Y-4683613D01*
X15929831Y-4683613D02*
X15926022Y-4698851D01*
X15926022Y-4698851D02*
X15922212Y-4706470D01*
X15922212Y-4706470D02*
X15918403Y-4710280D01*
X15918403Y-4710280D02*
X15910784Y-4714090D01*
X15910784Y-4714090D02*
X15903165Y-4714090D01*
X15903165Y-4714090D02*
X15895545Y-4710280D01*
X15895545Y-4710280D02*
X15891736Y-4706470D01*
X15891736Y-4706470D02*
X15887926Y-4698851D01*
X15887926Y-4698851D02*
X15884117Y-4683613D01*
X15884117Y-4683613D02*
X15884117Y-4664566D01*
X15884117Y-4664566D02*
X15887926Y-4649328D01*
X15887926Y-4649328D02*
X15891736Y-4641709D01*
X15891736Y-4641709D02*
X15895545Y-4637899D01*
X15895545Y-4637899D02*
X15903165Y-4634090D01*
X15975545Y-4668375D02*
X15967926Y-4664566D01*
X15967926Y-4664566D02*
X15964117Y-4660756D01*
X15964117Y-4660756D02*
X15960307Y-4653137D01*
X15960307Y-4653137D02*
X15960307Y-4649328D01*
X15960307Y-4649328D02*
X15964117Y-4641709D01*
X15964117Y-4641709D02*
X15967926Y-4637899D01*
X15967926Y-4637899D02*
X15975545Y-4634090D01*
X15975545Y-4634090D02*
X15990784Y-4634090D01*
X15990784Y-4634090D02*
X15998403Y-4637899D01*
X15998403Y-4637899D02*
X16002212Y-4641709D01*
X16002212Y-4641709D02*
X16006022Y-4649328D01*
X16006022Y-4649328D02*
X16006022Y-4653137D01*
X16006022Y-4653137D02*
X16002212Y-4660756D01*
X16002212Y-4660756D02*
X15998403Y-4664566D01*
X15998403Y-4664566D02*
X15990784Y-4668375D01*
X15990784Y-4668375D02*
X15975545Y-4668375D01*
X15975545Y-4668375D02*
X15967926Y-4672185D01*
X15967926Y-4672185D02*
X15964117Y-4675994D01*
X15964117Y-4675994D02*
X15960307Y-4683613D01*
X15960307Y-4683613D02*
X15960307Y-4698851D01*
X15960307Y-4698851D02*
X15964117Y-4706470D01*
X15964117Y-4706470D02*
X15967926Y-4710280D01*
X15967926Y-4710280D02*
X15975545Y-4714090D01*
X15975545Y-4714090D02*
X15990784Y-4714090D01*
X15990784Y-4714090D02*
X15998403Y-4710280D01*
X15998403Y-4710280D02*
X16002212Y-4706470D01*
X16002212Y-4706470D02*
X16006022Y-4698851D01*
X16006022Y-4698851D02*
X16006022Y-4683613D01*
X16006022Y-4683613D02*
X16002212Y-4675994D01*
X16002212Y-4675994D02*
X15998403Y-4672185D01*
X15998403Y-4672185D02*
X15990784Y-4668375D01*
D12*
X18010636Y-6641522D02*
X17963017Y-6641522D01*
X17963017Y-6641522D02*
X17963017Y-6541522D01*
X18043970Y-6641522D02*
X18043970Y-6541522D01*
X18143970Y-6546284D02*
X18134446Y-6541522D01*
X18134446Y-6541522D02*
X18120160Y-6541522D01*
X18120160Y-6541522D02*
X18105874Y-6546284D01*
X18105874Y-6546284D02*
X18096351Y-6555808D01*
X18096351Y-6555808D02*
X18091589Y-6565331D01*
X18091589Y-6565331D02*
X18086827Y-6584379D01*
X18086827Y-6584379D02*
X18086827Y-6598665D01*
X18086827Y-6598665D02*
X18091589Y-6617712D01*
X18091589Y-6617712D02*
X18096351Y-6627236D01*
X18096351Y-6627236D02*
X18105874Y-6636760D01*
X18105874Y-6636760D02*
X18120160Y-6641522D01*
X18120160Y-6641522D02*
X18129684Y-6641522D01*
X18129684Y-6641522D02*
X18143970Y-6636760D01*
X18143970Y-6636760D02*
X18148732Y-6631998D01*
X18148732Y-6631998D02*
X18148732Y-6598665D01*
X18148732Y-6598665D02*
X18129684Y-6598665D01*
X18191589Y-6641522D02*
X18191589Y-6541522D01*
X18191589Y-6589141D02*
X18248732Y-6589141D01*
X18248732Y-6641522D02*
X18248732Y-6541522D01*
X18282065Y-6541522D02*
X18339208Y-6541522D01*
X18310636Y-6641522D02*
X18310636Y-6541522D01*
D10*
X15025399Y-7801545D02*
X15027780Y-7803926D01*
X15027780Y-7803926D02*
X15030161Y-7811069D01*
X15030161Y-7811069D02*
X15030161Y-7815831D01*
X15030161Y-7815831D02*
X15027780Y-7822973D01*
X15027780Y-7822973D02*
X15023018Y-7827735D01*
X15023018Y-7827735D02*
X15018256Y-7830116D01*
X15018256Y-7830116D02*
X15008732Y-7832497D01*
X15008732Y-7832497D02*
X15001589Y-7832497D01*
X15001589Y-7832497D02*
X14992066Y-7830116D01*
X14992066Y-7830116D02*
X14987304Y-7827735D01*
X14987304Y-7827735D02*
X14982542Y-7822973D01*
X14982542Y-7822973D02*
X14980161Y-7815831D01*
X14980161Y-7815831D02*
X14980161Y-7811069D01*
X14980161Y-7811069D02*
X14982542Y-7803926D01*
X14982542Y-7803926D02*
X14984923Y-7801545D01*
X15030161Y-7780116D02*
X14980161Y-7780116D01*
X15030161Y-7758688D02*
X15003970Y-7758688D01*
X15003970Y-7758688D02*
X14999208Y-7761069D01*
X14999208Y-7761069D02*
X14996828Y-7765831D01*
X14996828Y-7765831D02*
X14996828Y-7772973D01*
X14996828Y-7772973D02*
X14999208Y-7777735D01*
X14999208Y-7777735D02*
X15001589Y-7780116D01*
X15030161Y-7713450D02*
X15003970Y-7713450D01*
X15003970Y-7713450D02*
X14999208Y-7715831D01*
X14999208Y-7715831D02*
X14996828Y-7720592D01*
X14996828Y-7720592D02*
X14996828Y-7730116D01*
X14996828Y-7730116D02*
X14999208Y-7734878D01*
X15027780Y-7713450D02*
X15030161Y-7718211D01*
X15030161Y-7718211D02*
X15030161Y-7730116D01*
X15030161Y-7730116D02*
X15027780Y-7734878D01*
X15027780Y-7734878D02*
X15023018Y-7737259D01*
X15023018Y-7737259D02*
X15018256Y-7737259D01*
X15018256Y-7737259D02*
X15013494Y-7734878D01*
X15013494Y-7734878D02*
X15011113Y-7730116D01*
X15011113Y-7730116D02*
X15011113Y-7718211D01*
X15011113Y-7718211D02*
X15008732Y-7713450D01*
X15030161Y-7689640D02*
X14996828Y-7689640D01*
X15006351Y-7689640D02*
X15001589Y-7687259D01*
X15001589Y-7687259D02*
X14999208Y-7684878D01*
X14999208Y-7684878D02*
X14996828Y-7680116D01*
X14996828Y-7680116D02*
X14996828Y-7675354D01*
X14996828Y-7637259D02*
X15037304Y-7637259D01*
X15037304Y-7637259D02*
X15042066Y-7639640D01*
X15042066Y-7639640D02*
X15044447Y-7642021D01*
X15044447Y-7642021D02*
X15046828Y-7646783D01*
X15046828Y-7646783D02*
X15046828Y-7653926D01*
X15046828Y-7653926D02*
X15044447Y-7658688D01*
X15027780Y-7637259D02*
X15030161Y-7642021D01*
X15030161Y-7642021D02*
X15030161Y-7651545D01*
X15030161Y-7651545D02*
X15027780Y-7656307D01*
X15027780Y-7656307D02*
X15025399Y-7658688D01*
X15025399Y-7658688D02*
X15020637Y-7661069D01*
X15020637Y-7661069D02*
X15006351Y-7661069D01*
X15006351Y-7661069D02*
X15001589Y-7658688D01*
X15001589Y-7658688D02*
X14999208Y-7656307D01*
X14999208Y-7656307D02*
X14996828Y-7651545D01*
X14996828Y-7651545D02*
X14996828Y-7642021D01*
X14996828Y-7642021D02*
X14999208Y-7637259D01*
X15030161Y-7613450D02*
X14996828Y-7613450D01*
X14980161Y-7613450D02*
X14982542Y-7615830D01*
X14982542Y-7615830D02*
X14984923Y-7613450D01*
X14984923Y-7613450D02*
X14982542Y-7611069D01*
X14982542Y-7611069D02*
X14980161Y-7613450D01*
X14980161Y-7613450D02*
X14984923Y-7613450D01*
X14996828Y-7589640D02*
X15030161Y-7589640D01*
X15001589Y-7589640D02*
X14999208Y-7587259D01*
X14999208Y-7587259D02*
X14996828Y-7582497D01*
X14996828Y-7582497D02*
X14996828Y-7575354D01*
X14996828Y-7575354D02*
X14999208Y-7570592D01*
X14999208Y-7570592D02*
X15003970Y-7568211D01*
X15003970Y-7568211D02*
X15030161Y-7568211D01*
X14996828Y-7522973D02*
X15037304Y-7522973D01*
X15037304Y-7522973D02*
X15042066Y-7525354D01*
X15042066Y-7525354D02*
X15044447Y-7527735D01*
X15044447Y-7527735D02*
X15046828Y-7532497D01*
X15046828Y-7532497D02*
X15046828Y-7539640D01*
X15046828Y-7539640D02*
X15044447Y-7544402D01*
X15027780Y-7522973D02*
X15030161Y-7527735D01*
X15030161Y-7527735D02*
X15030161Y-7537259D01*
X15030161Y-7537259D02*
X15027780Y-7542021D01*
X15027780Y-7542021D02*
X15025399Y-7544402D01*
X15025399Y-7544402D02*
X15020637Y-7546783D01*
X15020637Y-7546783D02*
X15006351Y-7546783D01*
X15006351Y-7546783D02*
X15001589Y-7544402D01*
X15001589Y-7544402D02*
X14999208Y-7542021D01*
X14999208Y-7542021D02*
X14996828Y-7537259D01*
X14996828Y-7537259D02*
X14996828Y-7527735D01*
X14996828Y-7527735D02*
X14999208Y-7522973D01*
D11*
X19147061Y-5280609D02*
X19164204Y-5286323D01*
X19164204Y-5286323D02*
X19169918Y-5292038D01*
X19169918Y-5292038D02*
X19175632Y-5303466D01*
X19175632Y-5303466D02*
X19175632Y-5320609D01*
X19175632Y-5320609D02*
X19169918Y-5332038D01*
X19169918Y-5332038D02*
X19164204Y-5337752D01*
X19164204Y-5337752D02*
X19152775Y-5343466D01*
X19152775Y-5343466D02*
X19107061Y-5343466D01*
X19107061Y-5343466D02*
X19107061Y-5223466D01*
X19107061Y-5223466D02*
X19147061Y-5223466D01*
X19147061Y-5223466D02*
X19158489Y-5229181D01*
X19158489Y-5229181D02*
X19164204Y-5234895D01*
X19164204Y-5234895D02*
X19169918Y-5246323D01*
X19169918Y-5246323D02*
X19169918Y-5257752D01*
X19169918Y-5257752D02*
X19164204Y-5269181D01*
X19164204Y-5269181D02*
X19158489Y-5274895D01*
X19158489Y-5274895D02*
X19147061Y-5280609D01*
X19147061Y-5280609D02*
X19107061Y-5280609D01*
X19227061Y-5343466D02*
X19227061Y-5223466D01*
X19227061Y-5223466D02*
X19267061Y-5309181D01*
X19267061Y-5309181D02*
X19307061Y-5223466D01*
X19307061Y-5223466D02*
X19307061Y-5343466D01*
X19364204Y-5280609D02*
X19404204Y-5280609D01*
X19421347Y-5343466D02*
X19364204Y-5343466D01*
X19364204Y-5343466D02*
X19364204Y-5223466D01*
X19364204Y-5223466D02*
X19421347Y-5223466D01*
X19467061Y-5234895D02*
X19472775Y-5229181D01*
X19472775Y-5229181D02*
X19484204Y-5223466D01*
X19484204Y-5223466D02*
X19512775Y-5223466D01*
X19512775Y-5223466D02*
X19524204Y-5229181D01*
X19524204Y-5229181D02*
X19529918Y-5234895D01*
X19529918Y-5234895D02*
X19535632Y-5246323D01*
X19535632Y-5246323D02*
X19535632Y-5257752D01*
X19535632Y-5257752D02*
X19529918Y-5274895D01*
X19529918Y-5274895D02*
X19461347Y-5343466D01*
X19461347Y-5343466D02*
X19535632Y-5343466D01*
X19604204Y-5274895D02*
X19592775Y-5269181D01*
X19592775Y-5269181D02*
X19587061Y-5263466D01*
X19587061Y-5263466D02*
X19581347Y-5252038D01*
X19581347Y-5252038D02*
X19581347Y-5246323D01*
X19581347Y-5246323D02*
X19587061Y-5234895D01*
X19587061Y-5234895D02*
X19592775Y-5229181D01*
X19592775Y-5229181D02*
X19604204Y-5223466D01*
X19604204Y-5223466D02*
X19627061Y-5223466D01*
X19627061Y-5223466D02*
X19638489Y-5229181D01*
X19638489Y-5229181D02*
X19644204Y-5234895D01*
X19644204Y-5234895D02*
X19649918Y-5246323D01*
X19649918Y-5246323D02*
X19649918Y-5252038D01*
X19649918Y-5252038D02*
X19644204Y-5263466D01*
X19644204Y-5263466D02*
X19638489Y-5269181D01*
X19638489Y-5269181D02*
X19627061Y-5274895D01*
X19627061Y-5274895D02*
X19604204Y-5274895D01*
X19604204Y-5274895D02*
X19592775Y-5280609D01*
X19592775Y-5280609D02*
X19587061Y-5286323D01*
X19587061Y-5286323D02*
X19581347Y-5297752D01*
X19581347Y-5297752D02*
X19581347Y-5320609D01*
X19581347Y-5320609D02*
X19587061Y-5332038D01*
X19587061Y-5332038D02*
X19592775Y-5337752D01*
X19592775Y-5337752D02*
X19604204Y-5343466D01*
X19604204Y-5343466D02*
X19627061Y-5343466D01*
X19627061Y-5343466D02*
X19638489Y-5337752D01*
X19638489Y-5337752D02*
X19644204Y-5332038D01*
X19644204Y-5332038D02*
X19649918Y-5320609D01*
X19649918Y-5320609D02*
X19649918Y-5297752D01*
X19649918Y-5297752D02*
X19644204Y-5286323D01*
X19644204Y-5286323D02*
X19638489Y-5280609D01*
X19638489Y-5280609D02*
X19627061Y-5274895D01*
X19724204Y-5223466D02*
X19735632Y-5223466D01*
X19735632Y-5223466D02*
X19747061Y-5229181D01*
X19747061Y-5229181D02*
X19752775Y-5234895D01*
X19752775Y-5234895D02*
X19758489Y-5246323D01*
X19758489Y-5246323D02*
X19764204Y-5269181D01*
X19764204Y-5269181D02*
X19764204Y-5297752D01*
X19764204Y-5297752D02*
X19758489Y-5320609D01*
X19758489Y-5320609D02*
X19752775Y-5332038D01*
X19752775Y-5332038D02*
X19747061Y-5337752D01*
X19747061Y-5337752D02*
X19735632Y-5343466D01*
X19735632Y-5343466D02*
X19724204Y-5343466D01*
X19724204Y-5343466D02*
X19712775Y-5337752D01*
X19712775Y-5337752D02*
X19707061Y-5332038D01*
X19707061Y-5332038D02*
X19701347Y-5320609D01*
X19701347Y-5320609D02*
X19695632Y-5297752D01*
X19695632Y-5297752D02*
X19695632Y-5269181D01*
X19695632Y-5269181D02*
X19701347Y-5246323D01*
X19701347Y-5246323D02*
X19707061Y-5234895D01*
X19707061Y-5234895D02*
X19712775Y-5229181D01*
X19712775Y-5229181D02*
X19724204Y-5223466D01*
D10*
X14369080Y-7828054D02*
X14370985Y-7831864D01*
X14370985Y-7831864D02*
X14370985Y-7839483D01*
X14370985Y-7839483D02*
X14369080Y-7843292D01*
X14369080Y-7843292D02*
X14367175Y-7845197D01*
X14367175Y-7845197D02*
X14363366Y-7847102D01*
X14363366Y-7847102D02*
X14351937Y-7847102D01*
X14351937Y-7847102D02*
X14348128Y-7845197D01*
X14348128Y-7845197D02*
X14346223Y-7843292D01*
X14346223Y-7843292D02*
X14344318Y-7839483D01*
X14344318Y-7839483D02*
X14344318Y-7831864D01*
X14344318Y-7831864D02*
X14346223Y-7828054D01*
X14370985Y-7810911D02*
X14330985Y-7810911D01*
X14370985Y-7793769D02*
X14350032Y-7793769D01*
X14350032Y-7793769D02*
X14346223Y-7795673D01*
X14346223Y-7795673D02*
X14344318Y-7799483D01*
X14344318Y-7799483D02*
X14344318Y-7805197D01*
X14344318Y-7805197D02*
X14346223Y-7809007D01*
X14346223Y-7809007D02*
X14348128Y-7810911D01*
X14370985Y-7774721D02*
X14344318Y-7774721D01*
X14351937Y-7774721D02*
X14348128Y-7772816D01*
X14348128Y-7772816D02*
X14346223Y-7770911D01*
X14346223Y-7770911D02*
X14344318Y-7767102D01*
X14344318Y-7767102D02*
X14344318Y-7763292D01*
X14370985Y-7719483D02*
X14330985Y-7719483D01*
X14330985Y-7719483D02*
X14330985Y-7704245D01*
X14330985Y-7704245D02*
X14332889Y-7700435D01*
X14332889Y-7700435D02*
X14334794Y-7698531D01*
X14334794Y-7698531D02*
X14338604Y-7696626D01*
X14338604Y-7696626D02*
X14344318Y-7696626D01*
X14344318Y-7696626D02*
X14348128Y-7698531D01*
X14348128Y-7698531D02*
X14350032Y-7700435D01*
X14350032Y-7700435D02*
X14351937Y-7704245D01*
X14351937Y-7704245D02*
X14351937Y-7719483D01*
X14330985Y-7683292D02*
X14370985Y-7673769D01*
X14370985Y-7673769D02*
X14342413Y-7666150D01*
X14342413Y-7666150D02*
X14370985Y-7658531D01*
X14370985Y-7658531D02*
X14330985Y-7649007D01*
X14370985Y-7610911D02*
X14351937Y-7624245D01*
X14370985Y-7633769D02*
X14330985Y-7633769D01*
X14330985Y-7633769D02*
X14330985Y-7618530D01*
X14330985Y-7618530D02*
X14332889Y-7614721D01*
X14332889Y-7614721D02*
X14334794Y-7612816D01*
X14334794Y-7612816D02*
X14338604Y-7610911D01*
X14338604Y-7610911D02*
X14344318Y-7610911D01*
X14344318Y-7610911D02*
X14348128Y-7612816D01*
X14348128Y-7612816D02*
X14350032Y-7614721D01*
X14350032Y-7614721D02*
X14351937Y-7618530D01*
X14351937Y-7618530D02*
X14351937Y-7633769D01*
X14330985Y-7555673D02*
X14330985Y-7548054D01*
X14330985Y-7548054D02*
X14332889Y-7544245D01*
X14332889Y-7544245D02*
X14336699Y-7540435D01*
X14336699Y-7540435D02*
X14344318Y-7538530D01*
X14344318Y-7538530D02*
X14357651Y-7538530D01*
X14357651Y-7538530D02*
X14365270Y-7540435D01*
X14365270Y-7540435D02*
X14369080Y-7544245D01*
X14369080Y-7544245D02*
X14370985Y-7548054D01*
X14370985Y-7548054D02*
X14370985Y-7555673D01*
X14370985Y-7555673D02*
X14369080Y-7559483D01*
X14369080Y-7559483D02*
X14365270Y-7563292D01*
X14365270Y-7563292D02*
X14357651Y-7565197D01*
X14357651Y-7565197D02*
X14344318Y-7565197D01*
X14344318Y-7565197D02*
X14336699Y-7563292D01*
X14336699Y-7563292D02*
X14332889Y-7559483D01*
X14332889Y-7559483D02*
X14330985Y-7555673D01*
X14370985Y-7521388D02*
X14330985Y-7521388D01*
X14370985Y-7498530D02*
X14348128Y-7515673D01*
X14330985Y-7498530D02*
X14353842Y-7521388D01*
X16121607Y-4634090D02*
X16171131Y-4634090D01*
X16171131Y-4634090D02*
X16144465Y-4664566D01*
X16144465Y-4664566D02*
X16155893Y-4664566D01*
X16155893Y-4664566D02*
X16163512Y-4668375D01*
X16163512Y-4668375D02*
X16167322Y-4672185D01*
X16167322Y-4672185D02*
X16171131Y-4679804D01*
X16171131Y-4679804D02*
X16171131Y-4698851D01*
X16171131Y-4698851D02*
X16167322Y-4706470D01*
X16167322Y-4706470D02*
X16163512Y-4710280D01*
X16163512Y-4710280D02*
X16155893Y-4714090D01*
X16155893Y-4714090D02*
X16133036Y-4714090D01*
X16133036Y-4714090D02*
X16125417Y-4710280D01*
X16125417Y-4710280D02*
X16121607Y-4706470D01*
X16193988Y-4634090D02*
X16220655Y-4714090D01*
X16220655Y-4714090D02*
X16247322Y-4634090D01*
X16266369Y-4634090D02*
X16315893Y-4634090D01*
X16315893Y-4634090D02*
X16289226Y-4664566D01*
X16289226Y-4664566D02*
X16300655Y-4664566D01*
X16300655Y-4664566D02*
X16308274Y-4668375D01*
X16308274Y-4668375D02*
X16312084Y-4672185D01*
X16312084Y-4672185D02*
X16315893Y-4679804D01*
X16315893Y-4679804D02*
X16315893Y-4698851D01*
X16315893Y-4698851D02*
X16312084Y-4706470D01*
X16312084Y-4706470D02*
X16308274Y-4710280D01*
X16308274Y-4710280D02*
X16300655Y-4714090D01*
X16300655Y-4714090D02*
X16277798Y-4714090D01*
X16277798Y-4714090D02*
X16270179Y-4710280D01*
X16270179Y-4710280D02*
X16266369Y-4706470D01*
X15078931Y-4637899D02*
X15071312Y-4634090D01*
X15071312Y-4634090D02*
X15059884Y-4634090D01*
X15059884Y-4634090D02*
X15048455Y-4637899D01*
X15048455Y-4637899D02*
X15040836Y-4645518D01*
X15040836Y-4645518D02*
X15037026Y-4653137D01*
X15037026Y-4653137D02*
X15033217Y-4668375D01*
X15033217Y-4668375D02*
X15033217Y-4679804D01*
X15033217Y-4679804D02*
X15037026Y-4695042D01*
X15037026Y-4695042D02*
X15040836Y-4702661D01*
X15040836Y-4702661D02*
X15048455Y-4710280D01*
X15048455Y-4710280D02*
X15059884Y-4714090D01*
X15059884Y-4714090D02*
X15067503Y-4714090D01*
X15067503Y-4714090D02*
X15078931Y-4710280D01*
X15078931Y-4710280D02*
X15082741Y-4706470D01*
X15082741Y-4706470D02*
X15082741Y-4679804D01*
X15082741Y-4679804D02*
X15067503Y-4679804D01*
X15117026Y-4714090D02*
X15117026Y-4634090D01*
X15117026Y-4634090D02*
X15162741Y-4714090D01*
X15162741Y-4714090D02*
X15162741Y-4634090D01*
X15200836Y-4714090D02*
X15200836Y-4634090D01*
X15200836Y-4634090D02*
X15219884Y-4634090D01*
X15219884Y-4634090D02*
X15231312Y-4637899D01*
X15231312Y-4637899D02*
X15238931Y-4645518D01*
X15238931Y-4645518D02*
X15242741Y-4653137D01*
X15242741Y-4653137D02*
X15246550Y-4668375D01*
X15246550Y-4668375D02*
X15246550Y-4679804D01*
X15246550Y-4679804D02*
X15242741Y-4695042D01*
X15242741Y-4695042D02*
X15238931Y-4702661D01*
X15238931Y-4702661D02*
X15231312Y-4710280D01*
X15231312Y-4710280D02*
X15219884Y-4714090D01*
X15219884Y-4714090D02*
X15200836Y-4714090D01*
X15416431Y-8435918D02*
X15411669Y-8440680D01*
X15411669Y-8440680D02*
X15397384Y-8445442D01*
X15397384Y-8445442D02*
X15387860Y-8445442D01*
X15387860Y-8445442D02*
X15373574Y-8440680D01*
X15373574Y-8440680D02*
X15364050Y-8431156D01*
X15364050Y-8431156D02*
X15359288Y-8421632D01*
X15359288Y-8421632D02*
X15354526Y-8402585D01*
X15354526Y-8402585D02*
X15354526Y-8388299D01*
X15354526Y-8388299D02*
X15359288Y-8369251D01*
X15359288Y-8369251D02*
X15364050Y-8359728D01*
X15364050Y-8359728D02*
X15373574Y-8350204D01*
X15373574Y-8350204D02*
X15387860Y-8345442D01*
X15387860Y-8345442D02*
X15397384Y-8345442D01*
X15397384Y-8345442D02*
X15411669Y-8350204D01*
X15411669Y-8350204D02*
X15416431Y-8354966D01*
X15459288Y-8445442D02*
X15459288Y-8345442D01*
X15459288Y-8393061D02*
X15516431Y-8393061D01*
X15516431Y-8445442D02*
X15516431Y-8345442D01*
X15559288Y-8416870D02*
X15606907Y-8416870D01*
X15549765Y-8445442D02*
X15583098Y-8345442D01*
X15583098Y-8345442D02*
X15616431Y-8445442D01*
X15706907Y-8445442D02*
X15673574Y-8397823D01*
X15649765Y-8445442D02*
X15649765Y-8345442D01*
X15649765Y-8345442D02*
X15687860Y-8345442D01*
X15687860Y-8345442D02*
X15697384Y-8350204D01*
X15697384Y-8350204D02*
X15702145Y-8354966D01*
X15702145Y-8354966D02*
X15706907Y-8364489D01*
X15706907Y-8364489D02*
X15706907Y-8378775D01*
X15706907Y-8378775D02*
X15702145Y-8388299D01*
X15702145Y-8388299D02*
X15697384Y-8393061D01*
X15697384Y-8393061D02*
X15687860Y-8397823D01*
X15687860Y-8397823D02*
X15649765Y-8397823D01*
X15802145Y-8350204D02*
X15792622Y-8345442D01*
X15792622Y-8345442D02*
X15778336Y-8345442D01*
X15778336Y-8345442D02*
X15764050Y-8350204D01*
X15764050Y-8350204D02*
X15754526Y-8359728D01*
X15754526Y-8359728D02*
X15749765Y-8369251D01*
X15749765Y-8369251D02*
X15745003Y-8388299D01*
X15745003Y-8388299D02*
X15745003Y-8402585D01*
X15745003Y-8402585D02*
X15749765Y-8421632D01*
X15749765Y-8421632D02*
X15754526Y-8431156D01*
X15754526Y-8431156D02*
X15764050Y-8440680D01*
X15764050Y-8440680D02*
X15778336Y-8445442D01*
X15778336Y-8445442D02*
X15787860Y-8445442D01*
X15787860Y-8445442D02*
X15802145Y-8440680D01*
X15802145Y-8440680D02*
X15806907Y-8435918D01*
X15806907Y-8435918D02*
X15806907Y-8402585D01*
X15806907Y-8402585D02*
X15787860Y-8402585D01*
X15849765Y-8393061D02*
X15883098Y-8393061D01*
X15897384Y-8445442D02*
X15849765Y-8445442D01*
X15849765Y-8445442D02*
X15849765Y-8345442D01*
X15849765Y-8345442D02*
X15897384Y-8345442D01*
X15997384Y-8445442D02*
X15964050Y-8397823D01*
X15940241Y-8445442D02*
X15940241Y-8345442D01*
X15940241Y-8345442D02*
X15978336Y-8345442D01*
X15978336Y-8345442D02*
X15987860Y-8350204D01*
X15987860Y-8350204D02*
X15992622Y-8354966D01*
X15992622Y-8354966D02*
X15997384Y-8364489D01*
X15997384Y-8364489D02*
X15997384Y-8378775D01*
X15997384Y-8378775D02*
X15992622Y-8388299D01*
X15992622Y-8388299D02*
X15987860Y-8393061D01*
X15987860Y-8393061D02*
X15978336Y-8397823D01*
X15978336Y-8397823D02*
X15940241Y-8397823D01*
D13*
X17955761Y-7823833D02*
X17955761Y-8050500D01*
X17955761Y-8050500D02*
X17969095Y-8077167D01*
X17969095Y-8077167D02*
X17982428Y-8090500D01*
X17982428Y-8090500D02*
X18009095Y-8103833D01*
X18009095Y-8103833D02*
X18062428Y-8103833D01*
X18062428Y-8103833D02*
X18089095Y-8090500D01*
X18089095Y-8090500D02*
X18102428Y-8077167D01*
X18102428Y-8077167D02*
X18115761Y-8050500D01*
X18115761Y-8050500D02*
X18115761Y-7823833D01*
X18235761Y-8090500D02*
X18275761Y-8103833D01*
X18275761Y-8103833D02*
X18342428Y-8103833D01*
X18342428Y-8103833D02*
X18369095Y-8090500D01*
X18369095Y-8090500D02*
X18382428Y-8077167D01*
X18382428Y-8077167D02*
X18395761Y-8050500D01*
X18395761Y-8050500D02*
X18395761Y-8023833D01*
X18395761Y-8023833D02*
X18382428Y-7997167D01*
X18382428Y-7997167D02*
X18369095Y-7983833D01*
X18369095Y-7983833D02*
X18342428Y-7970500D01*
X18342428Y-7970500D02*
X18289095Y-7957167D01*
X18289095Y-7957167D02*
X18262428Y-7943833D01*
X18262428Y-7943833D02*
X18249095Y-7930500D01*
X18249095Y-7930500D02*
X18235761Y-7903833D01*
X18235761Y-7903833D02*
X18235761Y-7877167D01*
X18235761Y-7877167D02*
X18249095Y-7850500D01*
X18249095Y-7850500D02*
X18262428Y-7837167D01*
X18262428Y-7837167D02*
X18289095Y-7823833D01*
X18289095Y-7823833D02*
X18355761Y-7823833D01*
X18355761Y-7823833D02*
X18395761Y-7837167D01*
X18609095Y-7957167D02*
X18649095Y-7970500D01*
X18649095Y-7970500D02*
X18662428Y-7983833D01*
X18662428Y-7983833D02*
X18675761Y-8010500D01*
X18675761Y-8010500D02*
X18675761Y-8050500D01*
X18675761Y-8050500D02*
X18662428Y-8077167D01*
X18662428Y-8077167D02*
X18649095Y-8090500D01*
X18649095Y-8090500D02*
X18622428Y-8103833D01*
X18622428Y-8103833D02*
X18515761Y-8103833D01*
X18515761Y-8103833D02*
X18515761Y-7823833D01*
X18515761Y-7823833D02*
X18609095Y-7823833D01*
X18609095Y-7823833D02*
X18635761Y-7837167D01*
X18635761Y-7837167D02*
X18649095Y-7850500D01*
X18649095Y-7850500D02*
X18662428Y-7877167D01*
X18662428Y-7877167D02*
X18662428Y-7903833D01*
X18662428Y-7903833D02*
X18649095Y-7930500D01*
X18649095Y-7930500D02*
X18635761Y-7943833D01*
X18635761Y-7943833D02*
X18609095Y-7957167D01*
X18609095Y-7957167D02*
X18515761Y-7957167D01*
D11*
X18905761Y-8316133D02*
X18922904Y-8320895D01*
X18922904Y-8320895D02*
X18928618Y-8325657D01*
X18928618Y-8325657D02*
X18934332Y-8335180D01*
X18934332Y-8335180D02*
X18934332Y-8349466D01*
X18934332Y-8349466D02*
X18928618Y-8358990D01*
X18928618Y-8358990D02*
X18922904Y-8363752D01*
X18922904Y-8363752D02*
X18911475Y-8368514D01*
X18911475Y-8368514D02*
X18865761Y-8368514D01*
X18865761Y-8368514D02*
X18865761Y-8268514D01*
X18865761Y-8268514D02*
X18905761Y-8268514D01*
X18905761Y-8268514D02*
X18917189Y-8273276D01*
X18917189Y-8273276D02*
X18922904Y-8278038D01*
X18922904Y-8278038D02*
X18928618Y-8287561D01*
X18928618Y-8287561D02*
X18928618Y-8297085D01*
X18928618Y-8297085D02*
X18922904Y-8306609D01*
X18922904Y-8306609D02*
X18917189Y-8311371D01*
X18917189Y-8311371D02*
X18905761Y-8316133D01*
X18905761Y-8316133D02*
X18865761Y-8316133D01*
X19002904Y-8368514D02*
X18991475Y-8363752D01*
X18991475Y-8363752D02*
X18985761Y-8358990D01*
X18985761Y-8358990D02*
X18980047Y-8349466D01*
X18980047Y-8349466D02*
X18980047Y-8320895D01*
X18980047Y-8320895D02*
X18985761Y-8311371D01*
X18985761Y-8311371D02*
X18991475Y-8306609D01*
X18991475Y-8306609D02*
X19002904Y-8301847D01*
X19002904Y-8301847D02*
X19020047Y-8301847D01*
X19020047Y-8301847D02*
X19031475Y-8306609D01*
X19031475Y-8306609D02*
X19037189Y-8311371D01*
X19037189Y-8311371D02*
X19042904Y-8320895D01*
X19042904Y-8320895D02*
X19042904Y-8349466D01*
X19042904Y-8349466D02*
X19037189Y-8358990D01*
X19037189Y-8358990D02*
X19031475Y-8363752D01*
X19031475Y-8363752D02*
X19020047Y-8368514D01*
X19020047Y-8368514D02*
X19002904Y-8368514D01*
X19111475Y-8368514D02*
X19100047Y-8363752D01*
X19100047Y-8363752D02*
X19094332Y-8358990D01*
X19094332Y-8358990D02*
X19088618Y-8349466D01*
X19088618Y-8349466D02*
X19088618Y-8320895D01*
X19088618Y-8320895D02*
X19094332Y-8311371D01*
X19094332Y-8311371D02*
X19100047Y-8306609D01*
X19100047Y-8306609D02*
X19111475Y-8301847D01*
X19111475Y-8301847D02*
X19128618Y-8301847D01*
X19128618Y-8301847D02*
X19140047Y-8306609D01*
X19140047Y-8306609D02*
X19145761Y-8311371D01*
X19145761Y-8311371D02*
X19151475Y-8320895D01*
X19151475Y-8320895D02*
X19151475Y-8349466D01*
X19151475Y-8349466D02*
X19145761Y-8358990D01*
X19145761Y-8358990D02*
X19140047Y-8363752D01*
X19140047Y-8363752D02*
X19128618Y-8368514D01*
X19128618Y-8368514D02*
X19111475Y-8368514D01*
X19185761Y-8301847D02*
X19231475Y-8301847D01*
X19202904Y-8268514D02*
X19202904Y-8354228D01*
X19202904Y-8354228D02*
X19208618Y-8363752D01*
X19208618Y-8363752D02*
X19220046Y-8368514D01*
X19220046Y-8368514D02*
X19231475Y-8368514D01*
X19357189Y-8339942D02*
X19414332Y-8339942D01*
X19345761Y-8368514D02*
X19385761Y-8268514D01*
X19385761Y-8268514D02*
X19425761Y-8368514D01*
X19465761Y-8301847D02*
X19465761Y-8368514D01*
X19465761Y-8311371D02*
X19471475Y-8306609D01*
X19471475Y-8306609D02*
X19482904Y-8301847D01*
X19482904Y-8301847D02*
X19500046Y-8301847D01*
X19500046Y-8301847D02*
X19511475Y-8306609D01*
X19511475Y-8306609D02*
X19517189Y-8316133D01*
X19517189Y-8316133D02*
X19517189Y-8368514D01*
X19625761Y-8368514D02*
X19625761Y-8268514D01*
X19625761Y-8363752D02*
X19614332Y-8368514D01*
X19614332Y-8368514D02*
X19591475Y-8368514D01*
X19591475Y-8368514D02*
X19580046Y-8363752D01*
X19580046Y-8363752D02*
X19574332Y-8358990D01*
X19574332Y-8358990D02*
X19568618Y-8349466D01*
X19568618Y-8349466D02*
X19568618Y-8320895D01*
X19568618Y-8320895D02*
X19574332Y-8311371D01*
X19574332Y-8311371D02*
X19580046Y-8306609D01*
X19580046Y-8306609D02*
X19591475Y-8301847D01*
X19591475Y-8301847D02*
X19614332Y-8301847D01*
X19614332Y-8301847D02*
X19625761Y-8306609D01*
X19842904Y-8368514D02*
X19802904Y-8320895D01*
X19774332Y-8368514D02*
X19774332Y-8268514D01*
X19774332Y-8268514D02*
X19820046Y-8268514D01*
X19820046Y-8268514D02*
X19831475Y-8273276D01*
X19831475Y-8273276D02*
X19837189Y-8278038D01*
X19837189Y-8278038D02*
X19842904Y-8287561D01*
X19842904Y-8287561D02*
X19842904Y-8301847D01*
X19842904Y-8301847D02*
X19837189Y-8311371D01*
X19837189Y-8311371D02*
X19831475Y-8316133D01*
X19831475Y-8316133D02*
X19820046Y-8320895D01*
X19820046Y-8320895D02*
X19774332Y-8320895D01*
X19940046Y-8363752D02*
X19928618Y-8368514D01*
X19928618Y-8368514D02*
X19905761Y-8368514D01*
X19905761Y-8368514D02*
X19894332Y-8363752D01*
X19894332Y-8363752D02*
X19888618Y-8354228D01*
X19888618Y-8354228D02*
X19888618Y-8316133D01*
X19888618Y-8316133D02*
X19894332Y-8306609D01*
X19894332Y-8306609D02*
X19905761Y-8301847D01*
X19905761Y-8301847D02*
X19928618Y-8301847D01*
X19928618Y-8301847D02*
X19940046Y-8306609D01*
X19940046Y-8306609D02*
X19945761Y-8316133D01*
X19945761Y-8316133D02*
X19945761Y-8325657D01*
X19945761Y-8325657D02*
X19888618Y-8335180D01*
X19991475Y-8363752D02*
X20002904Y-8368514D01*
X20002904Y-8368514D02*
X20025761Y-8368514D01*
X20025761Y-8368514D02*
X20037189Y-8363752D01*
X20037189Y-8363752D02*
X20042904Y-8354228D01*
X20042904Y-8354228D02*
X20042904Y-8349466D01*
X20042904Y-8349466D02*
X20037189Y-8339942D01*
X20037189Y-8339942D02*
X20025761Y-8335180D01*
X20025761Y-8335180D02*
X20008618Y-8335180D01*
X20008618Y-8335180D02*
X19997189Y-8330419D01*
X19997189Y-8330419D02*
X19991475Y-8320895D01*
X19991475Y-8320895D02*
X19991475Y-8316133D01*
X19991475Y-8316133D02*
X19997189Y-8306609D01*
X19997189Y-8306609D02*
X20008618Y-8301847D01*
X20008618Y-8301847D02*
X20025761Y-8301847D01*
X20025761Y-8301847D02*
X20037189Y-8306609D01*
X20140046Y-8363752D02*
X20128618Y-8368514D01*
X20128618Y-8368514D02*
X20105761Y-8368514D01*
X20105761Y-8368514D02*
X20094332Y-8363752D01*
X20094332Y-8363752D02*
X20088618Y-8354228D01*
X20088618Y-8354228D02*
X20088618Y-8316133D01*
X20088618Y-8316133D02*
X20094332Y-8306609D01*
X20094332Y-8306609D02*
X20105761Y-8301847D01*
X20105761Y-8301847D02*
X20128618Y-8301847D01*
X20128618Y-8301847D02*
X20140046Y-8306609D01*
X20140046Y-8306609D02*
X20145761Y-8316133D01*
X20145761Y-8316133D02*
X20145761Y-8325657D01*
X20145761Y-8325657D02*
X20088618Y-8335180D01*
X20180046Y-8301847D02*
X20225761Y-8301847D01*
X20197189Y-8268514D02*
X20197189Y-8354228D01*
X20197189Y-8354228D02*
X20202904Y-8363752D01*
X20202904Y-8363752D02*
X20214332Y-8368514D01*
X20214332Y-8368514D02*
X20225761Y-8368514D01*
D14*
X14370511Y-7225346D02*
X14230511Y-7225346D01*
X14230511Y-7225346D02*
X14230511Y-7172012D01*
X14230511Y-7172012D02*
X14237177Y-7158679D01*
X14237177Y-7158679D02*
X14243844Y-7152012D01*
X14243844Y-7152012D02*
X14257177Y-7145346D01*
X14257177Y-7145346D02*
X14277177Y-7145346D01*
X14277177Y-7145346D02*
X14290511Y-7152012D01*
X14290511Y-7152012D02*
X14297177Y-7158679D01*
X14297177Y-7158679D02*
X14303844Y-7172012D01*
X14303844Y-7172012D02*
X14303844Y-7225346D01*
X14230511Y-7098679D02*
X14370511Y-7065346D01*
X14370511Y-7065346D02*
X14270511Y-7038679D01*
X14270511Y-7038679D02*
X14370511Y-7012012D01*
X14370511Y-7012012D02*
X14230511Y-6978679D01*
X14370511Y-6845346D02*
X14303844Y-6892012D01*
X14370511Y-6925346D02*
X14230511Y-6925346D01*
X14230511Y-6925346D02*
X14230511Y-6872012D01*
X14230511Y-6872012D02*
X14237177Y-6858679D01*
X14237177Y-6858679D02*
X14243844Y-6852012D01*
X14243844Y-6852012D02*
X14257177Y-6845346D01*
X14257177Y-6845346D02*
X14277177Y-6845346D01*
X14277177Y-6845346D02*
X14290511Y-6852012D01*
X14290511Y-6852012D02*
X14297177Y-6858679D01*
X14297177Y-6858679D02*
X14303844Y-6872012D01*
X14303844Y-6872012D02*
X14303844Y-6925346D01*
D10*
X17301431Y-4663299D02*
X17293812Y-4659490D01*
X17293812Y-4659490D02*
X17282384Y-4659490D01*
X17282384Y-4659490D02*
X17270955Y-4663299D01*
X17270955Y-4663299D02*
X17263336Y-4670918D01*
X17263336Y-4670918D02*
X17259527Y-4678537D01*
X17259527Y-4678537D02*
X17255717Y-4693775D01*
X17255717Y-4693775D02*
X17255717Y-4705204D01*
X17255717Y-4705204D02*
X17259527Y-4720442D01*
X17259527Y-4720442D02*
X17263336Y-4728061D01*
X17263336Y-4728061D02*
X17270955Y-4735680D01*
X17270955Y-4735680D02*
X17282384Y-4739490D01*
X17282384Y-4739490D02*
X17290003Y-4739490D01*
X17290003Y-4739490D02*
X17301431Y-4735680D01*
X17301431Y-4735680D02*
X17305241Y-4731870D01*
X17305241Y-4731870D02*
X17305241Y-4705204D01*
X17305241Y-4705204D02*
X17290003Y-4705204D01*
X17339527Y-4739490D02*
X17339527Y-4659490D01*
X17339527Y-4659490D02*
X17385241Y-4739490D01*
X17385241Y-4739490D02*
X17385241Y-4659490D01*
X17423336Y-4739490D02*
X17423336Y-4659490D01*
X17423336Y-4659490D02*
X17442384Y-4659490D01*
X17442384Y-4659490D02*
X17453812Y-4663299D01*
X17453812Y-4663299D02*
X17461431Y-4670918D01*
X17461431Y-4670918D02*
X17465241Y-4678537D01*
X17465241Y-4678537D02*
X17469050Y-4693775D01*
X17469050Y-4693775D02*
X17469050Y-4705204D01*
X17469050Y-4705204D02*
X17465241Y-4720442D01*
X17465241Y-4720442D02*
X17461431Y-4728061D01*
X17461431Y-4728061D02*
X17453812Y-4735680D01*
X17453812Y-4735680D02*
X17442384Y-4739490D01*
X17442384Y-4739490D02*
X17423336Y-4739490D01*
D12*
X16215815Y-6265060D02*
X16232958Y-6270774D01*
X16232958Y-6270774D02*
X16261529Y-6270774D01*
X16261529Y-6270774D02*
X16272958Y-6265060D01*
X16272958Y-6265060D02*
X16278672Y-6259346D01*
X16278672Y-6259346D02*
X16284386Y-6247917D01*
X16284386Y-6247917D02*
X16284386Y-6236488D01*
X16284386Y-6236488D02*
X16278672Y-6225060D01*
X16278672Y-6225060D02*
X16272958Y-6219346D01*
X16272958Y-6219346D02*
X16261529Y-6213631D01*
X16261529Y-6213631D02*
X16238672Y-6207917D01*
X16238672Y-6207917D02*
X16227243Y-6202203D01*
X16227243Y-6202203D02*
X16221529Y-6196488D01*
X16221529Y-6196488D02*
X16215815Y-6185060D01*
X16215815Y-6185060D02*
X16215815Y-6173631D01*
X16215815Y-6173631D02*
X16221529Y-6162203D01*
X16221529Y-6162203D02*
X16227243Y-6156488D01*
X16227243Y-6156488D02*
X16238672Y-6150774D01*
X16238672Y-6150774D02*
X16267243Y-6150774D01*
X16267243Y-6150774D02*
X16284386Y-6156488D01*
X16358672Y-6150774D02*
X16381529Y-6150774D01*
X16381529Y-6150774D02*
X16392958Y-6156488D01*
X16392958Y-6156488D02*
X16404386Y-6167917D01*
X16404386Y-6167917D02*
X16410101Y-6190774D01*
X16410101Y-6190774D02*
X16410101Y-6230774D01*
X16410101Y-6230774D02*
X16404386Y-6253631D01*
X16404386Y-6253631D02*
X16392958Y-6265060D01*
X16392958Y-6265060D02*
X16381529Y-6270774D01*
X16381529Y-6270774D02*
X16358672Y-6270774D01*
X16358672Y-6270774D02*
X16347243Y-6265060D01*
X16347243Y-6265060D02*
X16335815Y-6253631D01*
X16335815Y-6253631D02*
X16330101Y-6230774D01*
X16330101Y-6230774D02*
X16330101Y-6190774D01*
X16330101Y-6190774D02*
X16335815Y-6167917D01*
X16335815Y-6167917D02*
X16347243Y-6156488D01*
X16347243Y-6156488D02*
X16358672Y-6150774D01*
X16461529Y-6150774D02*
X16461529Y-6247917D01*
X16461529Y-6247917D02*
X16467243Y-6259346D01*
X16467243Y-6259346D02*
X16472958Y-6265060D01*
X16472958Y-6265060D02*
X16484386Y-6270774D01*
X16484386Y-6270774D02*
X16507243Y-6270774D01*
X16507243Y-6270774D02*
X16518672Y-6265060D01*
X16518672Y-6265060D02*
X16524386Y-6259346D01*
X16524386Y-6259346D02*
X16530101Y-6247917D01*
X16530101Y-6247917D02*
X16530101Y-6150774D01*
X16587243Y-6270774D02*
X16587243Y-6150774D01*
X16587243Y-6150774D02*
X16655815Y-6270774D01*
X16655815Y-6270774D02*
X16655815Y-6150774D01*
X16712958Y-6270774D02*
X16712958Y-6150774D01*
X16712958Y-6150774D02*
X16741529Y-6150774D01*
X16741529Y-6150774D02*
X16758672Y-6156488D01*
X16758672Y-6156488D02*
X16770101Y-6167917D01*
X16770101Y-6167917D02*
X16775815Y-6179346D01*
X16775815Y-6179346D02*
X16781529Y-6202203D01*
X16781529Y-6202203D02*
X16781529Y-6219346D01*
X16781529Y-6219346D02*
X16775815Y-6242203D01*
X16775815Y-6242203D02*
X16770101Y-6253631D01*
X16770101Y-6253631D02*
X16758672Y-6265060D01*
X16758672Y-6265060D02*
X16741529Y-6270774D01*
X16741529Y-6270774D02*
X16712958Y-6270774D01*
D10*
X15650431Y-4714090D02*
X15604717Y-4714090D01*
X15627574Y-4714090D02*
X15627574Y-4634090D01*
X15627574Y-4634090D02*
X15619955Y-4645518D01*
X15619955Y-4645518D02*
X15612336Y-4653137D01*
X15612336Y-4653137D02*
X15604717Y-4656947D01*
X15696145Y-4668375D02*
X15688526Y-4664566D01*
X15688526Y-4664566D02*
X15684717Y-4660756D01*
X15684717Y-4660756D02*
X15680907Y-4653137D01*
X15680907Y-4653137D02*
X15680907Y-4649328D01*
X15680907Y-4649328D02*
X15684717Y-4641709D01*
X15684717Y-4641709D02*
X15688526Y-4637899D01*
X15688526Y-4637899D02*
X15696145Y-4634090D01*
X15696145Y-4634090D02*
X15711384Y-4634090D01*
X15711384Y-4634090D02*
X15719003Y-4637899D01*
X15719003Y-4637899D02*
X15722812Y-4641709D01*
X15722812Y-4641709D02*
X15726622Y-4649328D01*
X15726622Y-4649328D02*
X15726622Y-4653137D01*
X15726622Y-4653137D02*
X15722812Y-4660756D01*
X15722812Y-4660756D02*
X15719003Y-4664566D01*
X15719003Y-4664566D02*
X15711384Y-4668375D01*
X15711384Y-4668375D02*
X15696145Y-4668375D01*
X15696145Y-4668375D02*
X15688526Y-4672185D01*
X15688526Y-4672185D02*
X15684717Y-4675994D01*
X15684717Y-4675994D02*
X15680907Y-4683613D01*
X15680907Y-4683613D02*
X15680907Y-4698851D01*
X15680907Y-4698851D02*
X15684717Y-4706470D01*
X15684717Y-4706470D02*
X15688526Y-4710280D01*
X15688526Y-4710280D02*
X15696145Y-4714090D01*
X15696145Y-4714090D02*
X15711384Y-4714090D01*
X15711384Y-4714090D02*
X15719003Y-4710280D01*
X15719003Y-4710280D02*
X15722812Y-4706470D01*
X15722812Y-4706470D02*
X15726622Y-4698851D01*
X15726622Y-4698851D02*
X15726622Y-4683613D01*
X15726622Y-4683613D02*
X15722812Y-4675994D01*
X15722812Y-4675994D02*
X15719003Y-4672185D01*
X15719003Y-4672185D02*
X15711384Y-4668375D01*
X14695199Y-7801545D02*
X14697580Y-7803926D01*
X14697580Y-7803926D02*
X14699961Y-7811069D01*
X14699961Y-7811069D02*
X14699961Y-7815831D01*
X14699961Y-7815831D02*
X14697580Y-7822973D01*
X14697580Y-7822973D02*
X14692818Y-7827735D01*
X14692818Y-7827735D02*
X14688056Y-7830116D01*
X14688056Y-7830116D02*
X14678532Y-7832497D01*
X14678532Y-7832497D02*
X14671389Y-7832497D01*
X14671389Y-7832497D02*
X14661866Y-7830116D01*
X14661866Y-7830116D02*
X14657104Y-7827735D01*
X14657104Y-7827735D02*
X14652342Y-7822973D01*
X14652342Y-7822973D02*
X14649961Y-7815831D01*
X14649961Y-7815831D02*
X14649961Y-7811069D01*
X14649961Y-7811069D02*
X14652342Y-7803926D01*
X14652342Y-7803926D02*
X14654723Y-7801545D01*
X14699961Y-7780116D02*
X14649961Y-7780116D01*
X14699961Y-7758688D02*
X14673770Y-7758688D01*
X14673770Y-7758688D02*
X14669008Y-7761069D01*
X14669008Y-7761069D02*
X14666628Y-7765831D01*
X14666628Y-7765831D02*
X14666628Y-7772973D01*
X14666628Y-7772973D02*
X14669008Y-7777735D01*
X14669008Y-7777735D02*
X14671389Y-7780116D01*
X14699961Y-7713450D02*
X14673770Y-7713450D01*
X14673770Y-7713450D02*
X14669008Y-7715831D01*
X14669008Y-7715831D02*
X14666628Y-7720592D01*
X14666628Y-7720592D02*
X14666628Y-7730116D01*
X14666628Y-7730116D02*
X14669008Y-7734878D01*
X14697580Y-7713450D02*
X14699961Y-7718211D01*
X14699961Y-7718211D02*
X14699961Y-7730116D01*
X14699961Y-7730116D02*
X14697580Y-7734878D01*
X14697580Y-7734878D02*
X14692818Y-7737259D01*
X14692818Y-7737259D02*
X14688056Y-7737259D01*
X14688056Y-7737259D02*
X14683294Y-7734878D01*
X14683294Y-7734878D02*
X14680913Y-7730116D01*
X14680913Y-7730116D02*
X14680913Y-7718211D01*
X14680913Y-7718211D02*
X14678532Y-7713450D01*
X14699961Y-7689640D02*
X14666628Y-7689640D01*
X14676151Y-7689640D02*
X14671389Y-7687259D01*
X14671389Y-7687259D02*
X14669008Y-7684878D01*
X14669008Y-7684878D02*
X14666628Y-7680116D01*
X14666628Y-7680116D02*
X14666628Y-7675354D01*
X14666628Y-7637259D02*
X14707104Y-7637259D01*
X14707104Y-7637259D02*
X14711866Y-7639640D01*
X14711866Y-7639640D02*
X14714247Y-7642021D01*
X14714247Y-7642021D02*
X14716628Y-7646783D01*
X14716628Y-7646783D02*
X14716628Y-7653926D01*
X14716628Y-7653926D02*
X14714247Y-7658688D01*
X14697580Y-7637259D02*
X14699961Y-7642021D01*
X14699961Y-7642021D02*
X14699961Y-7651545D01*
X14699961Y-7651545D02*
X14697580Y-7656307D01*
X14697580Y-7656307D02*
X14695199Y-7658688D01*
X14695199Y-7658688D02*
X14690437Y-7661069D01*
X14690437Y-7661069D02*
X14676151Y-7661069D01*
X14676151Y-7661069D02*
X14671389Y-7658688D01*
X14671389Y-7658688D02*
X14669008Y-7656307D01*
X14669008Y-7656307D02*
X14666628Y-7651545D01*
X14666628Y-7651545D02*
X14666628Y-7642021D01*
X14666628Y-7642021D02*
X14669008Y-7637259D01*
X14697580Y-7594402D02*
X14699961Y-7599164D01*
X14699961Y-7599164D02*
X14699961Y-7608688D01*
X14699961Y-7608688D02*
X14697580Y-7613450D01*
X14697580Y-7613450D02*
X14692818Y-7615830D01*
X14692818Y-7615830D02*
X14673770Y-7615830D01*
X14673770Y-7615830D02*
X14669008Y-7613450D01*
X14669008Y-7613450D02*
X14666628Y-7608688D01*
X14666628Y-7608688D02*
X14666628Y-7599164D01*
X14666628Y-7599164D02*
X14669008Y-7594402D01*
X14669008Y-7594402D02*
X14673770Y-7592021D01*
X14673770Y-7592021D02*
X14678532Y-7592021D01*
X14678532Y-7592021D02*
X14683294Y-7615830D01*
X14699961Y-7549164D02*
X14649961Y-7549164D01*
X14697580Y-7549164D02*
X14699961Y-7553926D01*
X14699961Y-7553926D02*
X14699961Y-7563450D01*
X14699961Y-7563450D02*
X14697580Y-7568211D01*
X14697580Y-7568211D02*
X14695199Y-7570592D01*
X14695199Y-7570592D02*
X14690437Y-7572973D01*
X14690437Y-7572973D02*
X14676151Y-7572973D01*
X14676151Y-7572973D02*
X14671389Y-7570592D01*
X14671389Y-7570592D02*
X14669008Y-7568211D01*
X14669008Y-7568211D02*
X14666628Y-7563450D01*
X14666628Y-7563450D02*
X14666628Y-7553926D01*
X14666628Y-7553926D02*
X14669008Y-7549164D01*
X17533212Y-4724680D02*
X17543212Y-4728013D01*
X17543212Y-4728013D02*
X17559879Y-4728013D01*
X17559879Y-4728013D02*
X17566546Y-4724680D01*
X17566546Y-4724680D02*
X17569879Y-4721347D01*
X17569879Y-4721347D02*
X17573212Y-4714680D01*
X17573212Y-4714680D02*
X17573212Y-4708013D01*
X17573212Y-4708013D02*
X17569879Y-4701347D01*
X17569879Y-4701347D02*
X17566546Y-4698013D01*
X17566546Y-4698013D02*
X17559879Y-4694680D01*
X17559879Y-4694680D02*
X17546546Y-4691347D01*
X17546546Y-4691347D02*
X17539879Y-4688013D01*
X17539879Y-4688013D02*
X17536546Y-4684680D01*
X17536546Y-4684680D02*
X17533212Y-4678013D01*
X17533212Y-4678013D02*
X17533212Y-4671347D01*
X17533212Y-4671347D02*
X17536546Y-4664680D01*
X17536546Y-4664680D02*
X17539879Y-4661347D01*
X17539879Y-4661347D02*
X17546546Y-4658013D01*
X17546546Y-4658013D02*
X17563212Y-4658013D01*
X17563212Y-4658013D02*
X17573212Y-4661347D01*
X17643212Y-4721347D02*
X17639879Y-4724680D01*
X17639879Y-4724680D02*
X17629879Y-4728013D01*
X17629879Y-4728013D02*
X17623212Y-4728013D01*
X17623212Y-4728013D02*
X17613212Y-4724680D01*
X17613212Y-4724680D02*
X17606546Y-4718013D01*
X17606546Y-4718013D02*
X17603212Y-4711347D01*
X17603212Y-4711347D02*
X17599879Y-4698013D01*
X17599879Y-4698013D02*
X17599879Y-4688013D01*
X17599879Y-4688013D02*
X17603212Y-4674680D01*
X17603212Y-4674680D02*
X17606546Y-4668013D01*
X17606546Y-4668013D02*
X17613212Y-4661347D01*
X17613212Y-4661347D02*
X17623212Y-4658013D01*
X17623212Y-4658013D02*
X17629879Y-4658013D01*
X17629879Y-4658013D02*
X17639879Y-4661347D01*
X17639879Y-4661347D02*
X17643212Y-4664680D01*
X17706546Y-4728013D02*
X17673212Y-4728013D01*
X17673212Y-4728013D02*
X17673212Y-4658013D01*
X15421831Y-4714090D02*
X15376117Y-4714090D01*
X15398974Y-4714090D02*
X15398974Y-4634090D01*
X15398974Y-4634090D02*
X15391355Y-4645518D01*
X15391355Y-4645518D02*
X15383736Y-4653137D01*
X15383736Y-4653137D02*
X15376117Y-4656947D01*
X15459926Y-4714090D02*
X15475165Y-4714090D01*
X15475165Y-4714090D02*
X15482784Y-4710280D01*
X15482784Y-4710280D02*
X15486593Y-4706470D01*
X15486593Y-4706470D02*
X15494212Y-4695042D01*
X15494212Y-4695042D02*
X15498022Y-4679804D01*
X15498022Y-4679804D02*
X15498022Y-4649328D01*
X15498022Y-4649328D02*
X15494212Y-4641709D01*
X15494212Y-4641709D02*
X15490403Y-4637899D01*
X15490403Y-4637899D02*
X15482784Y-4634090D01*
X15482784Y-4634090D02*
X15467545Y-4634090D01*
X15467545Y-4634090D02*
X15459926Y-4637899D01*
X15459926Y-4637899D02*
X15456117Y-4641709D01*
X15456117Y-4641709D02*
X15452307Y-4649328D01*
X15452307Y-4649328D02*
X15452307Y-4668375D01*
X15452307Y-4668375D02*
X15456117Y-4675994D01*
X15456117Y-4675994D02*
X15459926Y-4679804D01*
X15459926Y-4679804D02*
X15467545Y-4683613D01*
X15467545Y-4683613D02*
X15482784Y-4683613D01*
X15482784Y-4683613D02*
X15490403Y-4679804D01*
X15490403Y-4679804D02*
X15494212Y-4675994D01*
X15494212Y-4675994D02*
X15498022Y-4668375D01*
X18074550Y-4681937D02*
X18111693Y-4681937D01*
X18111693Y-4681937D02*
X18091693Y-4704794D01*
X18091693Y-4704794D02*
X18100265Y-4704794D01*
X18100265Y-4704794D02*
X18105979Y-4707651D01*
X18105979Y-4707651D02*
X18108836Y-4710509D01*
X18108836Y-4710509D02*
X18111693Y-4716223D01*
X18111693Y-4716223D02*
X18111693Y-4730509D01*
X18111693Y-4730509D02*
X18108836Y-4736223D01*
X18108836Y-4736223D02*
X18105979Y-4739080D01*
X18105979Y-4739080D02*
X18100265Y-4741937D01*
X18100265Y-4741937D02*
X18083122Y-4741937D01*
X18083122Y-4741937D02*
X18077407Y-4739080D01*
X18077407Y-4739080D02*
X18074550Y-4736223D01*
X18128836Y-4681937D02*
X18148836Y-4741937D01*
X18148836Y-4741937D02*
X18168836Y-4681937D01*
X18183122Y-4681937D02*
X18220265Y-4681937D01*
X18220265Y-4681937D02*
X18200265Y-4704794D01*
X18200265Y-4704794D02*
X18208836Y-4704794D01*
X18208836Y-4704794D02*
X18214550Y-4707651D01*
X18214550Y-4707651D02*
X18217408Y-4710509D01*
X18217408Y-4710509D02*
X18220265Y-4716223D01*
X18220265Y-4716223D02*
X18220265Y-4730509D01*
X18220265Y-4730509D02*
X18217408Y-4736223D01*
X18217408Y-4736223D02*
X18214550Y-4739080D01*
X18214550Y-4739080D02*
X18208836Y-4741937D01*
X18208836Y-4741937D02*
X18191693Y-4741937D01*
X18191693Y-4741937D02*
X18185979Y-4739080D01*
X18185979Y-4739080D02*
X18183122Y-4736223D01*
D15*
X16346607Y-9520633D02*
X16318036Y-9537300D01*
X16346607Y-9549205D02*
X16286607Y-9549205D01*
X16286607Y-9549205D02*
X16286607Y-9530157D01*
X16286607Y-9530157D02*
X16289464Y-9525395D01*
X16289464Y-9525395D02*
X16292321Y-9523014D01*
X16292321Y-9523014D02*
X16298036Y-9520633D01*
X16298036Y-9520633D02*
X16306607Y-9520633D01*
X16306607Y-9520633D02*
X16312321Y-9523014D01*
X16312321Y-9523014D02*
X16315178Y-9525395D01*
X16315178Y-9525395D02*
X16318036Y-9530157D01*
X16318036Y-9530157D02*
X16318036Y-9549205D01*
X16286607Y-9503967D02*
X16286607Y-9473014D01*
X16286607Y-9473014D02*
X16309464Y-9489681D01*
X16309464Y-9489681D02*
X16309464Y-9482538D01*
X16309464Y-9482538D02*
X16312321Y-9477776D01*
X16312321Y-9477776D02*
X16315178Y-9475395D01*
X16315178Y-9475395D02*
X16320893Y-9473014D01*
X16320893Y-9473014D02*
X16335178Y-9473014D01*
X16335178Y-9473014D02*
X16340893Y-9475395D01*
X16340893Y-9475395D02*
X16343750Y-9477776D01*
X16343750Y-9477776D02*
X16346607Y-9482538D01*
X16346607Y-9482538D02*
X16346607Y-9496824D01*
X16346607Y-9496824D02*
X16343750Y-9501586D01*
X16343750Y-9501586D02*
X16340893Y-9503967D01*
X19984257Y-9025807D02*
X19967591Y-8997236D01*
X19955686Y-9025807D02*
X19955686Y-8965807D01*
X19955686Y-8965807D02*
X19974733Y-8965807D01*
X19974733Y-8965807D02*
X19979495Y-8968664D01*
X19979495Y-8968664D02*
X19981876Y-8971521D01*
X19981876Y-8971521D02*
X19984257Y-8977236D01*
X19984257Y-8977236D02*
X19984257Y-8985807D01*
X19984257Y-8985807D02*
X19981876Y-8991521D01*
X19981876Y-8991521D02*
X19979495Y-8994379D01*
X19979495Y-8994379D02*
X19974733Y-8997236D01*
X19974733Y-8997236D02*
X19955686Y-8997236D01*
X20000924Y-8965807D02*
X20031876Y-8965807D01*
X20031876Y-8965807D02*
X20015210Y-8988664D01*
X20015210Y-8988664D02*
X20022352Y-8988664D01*
X20022352Y-8988664D02*
X20027114Y-8991521D01*
X20027114Y-8991521D02*
X20029495Y-8994379D01*
X20029495Y-8994379D02*
X20031876Y-9000093D01*
X20031876Y-9000093D02*
X20031876Y-9014379D01*
X20031876Y-9014379D02*
X20029495Y-9020093D01*
X20029495Y-9020093D02*
X20027114Y-9022950D01*
X20027114Y-9022950D02*
X20022352Y-9025807D01*
X20022352Y-9025807D02*
X20008067Y-9025807D01*
X20008067Y-9025807D02*
X20003305Y-9022950D01*
X20003305Y-9022950D02*
X20000924Y-9020093D01*
X20074733Y-8985807D02*
X20074733Y-9025807D01*
X20062829Y-8962950D02*
X20050924Y-9005807D01*
X20050924Y-9005807D02*
X20081876Y-9005807D01*
X15044667Y-7456393D02*
X15042286Y-7459250D01*
X15042286Y-7459250D02*
X15035143Y-7462107D01*
X15035143Y-7462107D02*
X15030381Y-7462107D01*
X15030381Y-7462107D02*
X15023238Y-7459250D01*
X15023238Y-7459250D02*
X15018476Y-7453536D01*
X15018476Y-7453536D02*
X15016095Y-7447821D01*
X15016095Y-7447821D02*
X15013714Y-7436393D01*
X15013714Y-7436393D02*
X15013714Y-7427821D01*
X15013714Y-7427821D02*
X15016095Y-7416393D01*
X15016095Y-7416393D02*
X15018476Y-7410678D01*
X15018476Y-7410678D02*
X15023238Y-7404964D01*
X15023238Y-7404964D02*
X15030381Y-7402107D01*
X15030381Y-7402107D02*
X15035143Y-7402107D01*
X15035143Y-7402107D02*
X15042286Y-7404964D01*
X15042286Y-7404964D02*
X15044667Y-7407821D01*
X15087524Y-7422107D02*
X15087524Y-7462107D01*
X15075619Y-7399250D02*
X15063714Y-7442107D01*
X15063714Y-7442107D02*
X15094667Y-7442107D01*
X19348057Y-4942007D02*
X19331391Y-4913436D01*
X19319486Y-4942007D02*
X19319486Y-4882007D01*
X19319486Y-4882007D02*
X19338533Y-4882007D01*
X19338533Y-4882007D02*
X19343295Y-4884864D01*
X19343295Y-4884864D02*
X19345676Y-4887721D01*
X19345676Y-4887721D02*
X19348057Y-4893436D01*
X19348057Y-4893436D02*
X19348057Y-4902007D01*
X19348057Y-4902007D02*
X19345676Y-4907721D01*
X19345676Y-4907721D02*
X19343295Y-4910579D01*
X19343295Y-4910579D02*
X19338533Y-4913436D01*
X19338533Y-4913436D02*
X19319486Y-4913436D01*
X19367105Y-4887721D02*
X19369486Y-4884864D01*
X19369486Y-4884864D02*
X19374248Y-4882007D01*
X19374248Y-4882007D02*
X19386152Y-4882007D01*
X19386152Y-4882007D02*
X19390914Y-4884864D01*
X19390914Y-4884864D02*
X19393295Y-4887721D01*
X19393295Y-4887721D02*
X19395676Y-4893436D01*
X19395676Y-4893436D02*
X19395676Y-4899150D01*
X19395676Y-4899150D02*
X19393295Y-4907721D01*
X19393295Y-4907721D02*
X19364724Y-4942007D01*
X19364724Y-4942007D02*
X19395676Y-4942007D01*
X19438533Y-4902007D02*
X19438533Y-4942007D01*
X19426629Y-4879150D02*
X19414724Y-4922007D01*
X19414724Y-4922007D02*
X19445676Y-4922007D01*
X19830657Y-6783407D02*
X19813991Y-6754836D01*
X19802086Y-6783407D02*
X19802086Y-6723407D01*
X19802086Y-6723407D02*
X19821133Y-6723407D01*
X19821133Y-6723407D02*
X19825895Y-6726264D01*
X19825895Y-6726264D02*
X19828276Y-6729121D01*
X19828276Y-6729121D02*
X19830657Y-6734836D01*
X19830657Y-6734836D02*
X19830657Y-6743407D01*
X19830657Y-6743407D02*
X19828276Y-6749121D01*
X19828276Y-6749121D02*
X19825895Y-6751978D01*
X19825895Y-6751978D02*
X19821133Y-6754836D01*
X19821133Y-6754836D02*
X19802086Y-6754836D01*
X19878276Y-6783407D02*
X19849705Y-6783407D01*
X19863991Y-6783407D02*
X19863991Y-6723407D01*
X19863991Y-6723407D02*
X19859229Y-6731978D01*
X19859229Y-6731978D02*
X19854467Y-6737693D01*
X19854467Y-6737693D02*
X19849705Y-6740550D01*
X19921133Y-6723407D02*
X19911610Y-6723407D01*
X19911610Y-6723407D02*
X19906848Y-6726264D01*
X19906848Y-6726264D02*
X19904467Y-6729121D01*
X19904467Y-6729121D02*
X19899705Y-6737693D01*
X19899705Y-6737693D02*
X19897324Y-6749121D01*
X19897324Y-6749121D02*
X19897324Y-6771978D01*
X19897324Y-6771978D02*
X19899705Y-6777693D01*
X19899705Y-6777693D02*
X19902086Y-6780550D01*
X19902086Y-6780550D02*
X19906848Y-6783407D01*
X19906848Y-6783407D02*
X19916371Y-6783407D01*
X19916371Y-6783407D02*
X19921133Y-6780550D01*
X19921133Y-6780550D02*
X19923514Y-6777693D01*
X19923514Y-6777693D02*
X19925895Y-6771978D01*
X19925895Y-6771978D02*
X19925895Y-6757693D01*
X19925895Y-6757693D02*
X19923514Y-6751978D01*
X19923514Y-6751978D02*
X19921133Y-6749121D01*
X19921133Y-6749121D02*
X19916371Y-6746264D01*
X19916371Y-6746264D02*
X19906848Y-6746264D01*
X19906848Y-6746264D02*
X19902086Y-6749121D01*
X19902086Y-6749121D02*
X19899705Y-6751978D01*
X19899705Y-6751978D02*
X19897324Y-6757693D01*
X18622221Y-8662462D02*
X18619364Y-8667224D01*
X18619364Y-8667224D02*
X18613650Y-8671986D01*
X18613650Y-8671986D02*
X18605079Y-8679129D01*
X18605079Y-8679129D02*
X18602221Y-8683890D01*
X18602221Y-8683890D02*
X18602221Y-8688652D01*
X18616507Y-8686271D02*
X18613650Y-8691033D01*
X18613650Y-8691033D02*
X18607936Y-8695795D01*
X18607936Y-8695795D02*
X18596507Y-8698176D01*
X18596507Y-8698176D02*
X18576507Y-8698176D01*
X18576507Y-8698176D02*
X18565079Y-8695795D01*
X18565079Y-8695795D02*
X18559364Y-8691033D01*
X18559364Y-8691033D02*
X18556507Y-8686271D01*
X18556507Y-8686271D02*
X18556507Y-8676748D01*
X18556507Y-8676748D02*
X18559364Y-8671986D01*
X18559364Y-8671986D02*
X18565079Y-8667224D01*
X18565079Y-8667224D02*
X18576507Y-8664843D01*
X18576507Y-8664843D02*
X18596507Y-8664843D01*
X18596507Y-8664843D02*
X18607936Y-8667224D01*
X18607936Y-8667224D02*
X18613650Y-8671986D01*
X18613650Y-8671986D02*
X18616507Y-8676748D01*
X18616507Y-8676748D02*
X18616507Y-8686271D01*
X18562221Y-8645795D02*
X18559364Y-8643414D01*
X18559364Y-8643414D02*
X18556507Y-8638652D01*
X18556507Y-8638652D02*
X18556507Y-8626748D01*
X18556507Y-8626748D02*
X18559364Y-8621986D01*
X18559364Y-8621986D02*
X18562221Y-8619605D01*
X18562221Y-8619605D02*
X18567936Y-8617224D01*
X18567936Y-8617224D02*
X18573650Y-8617224D01*
X18573650Y-8617224D02*
X18582221Y-8619605D01*
X18582221Y-8619605D02*
X18616507Y-8648176D01*
X18616507Y-8648176D02*
X18616507Y-8617224D01*
X20269605Y-5892907D02*
X20298176Y-5892907D01*
X20283891Y-5952907D02*
X20283891Y-5892907D01*
X20314843Y-5952907D02*
X20314843Y-5892907D01*
X20314843Y-5892907D02*
X20333890Y-5892907D01*
X20333890Y-5892907D02*
X20338652Y-5895764D01*
X20338652Y-5895764D02*
X20341033Y-5898621D01*
X20341033Y-5898621D02*
X20343414Y-5904336D01*
X20343414Y-5904336D02*
X20343414Y-5912907D01*
X20343414Y-5912907D02*
X20341033Y-5918621D01*
X20341033Y-5918621D02*
X20338652Y-5921478D01*
X20338652Y-5921478D02*
X20333890Y-5924336D01*
X20333890Y-5924336D02*
X20314843Y-5924336D01*
X20360081Y-5892907D02*
X20391033Y-5892907D01*
X20391033Y-5892907D02*
X20374367Y-5915764D01*
X20374367Y-5915764D02*
X20381510Y-5915764D01*
X20381510Y-5915764D02*
X20386271Y-5918621D01*
X20386271Y-5918621D02*
X20388652Y-5921478D01*
X20388652Y-5921478D02*
X20391033Y-5927193D01*
X20391033Y-5927193D02*
X20391033Y-5941478D01*
X20391033Y-5941478D02*
X20388652Y-5947193D01*
X20388652Y-5947193D02*
X20386271Y-5950050D01*
X20386271Y-5950050D02*
X20381510Y-5952907D01*
X20381510Y-5952907D02*
X20367224Y-5952907D01*
X20367224Y-5952907D02*
X20362462Y-5950050D01*
X20362462Y-5950050D02*
X20360081Y-5947193D01*
X19126605Y-5423007D02*
X19155176Y-5423007D01*
X19140891Y-5483007D02*
X19140891Y-5423007D01*
X19171843Y-5483007D02*
X19171843Y-5423007D01*
X19171843Y-5423007D02*
X19190890Y-5423007D01*
X19190890Y-5423007D02*
X19195652Y-5425864D01*
X19195652Y-5425864D02*
X19198033Y-5428721D01*
X19198033Y-5428721D02*
X19200414Y-5434436D01*
X19200414Y-5434436D02*
X19200414Y-5443007D01*
X19200414Y-5443007D02*
X19198033Y-5448721D01*
X19198033Y-5448721D02*
X19195652Y-5451579D01*
X19195652Y-5451579D02*
X19190890Y-5454436D01*
X19190890Y-5454436D02*
X19171843Y-5454436D01*
X19245652Y-5423007D02*
X19221843Y-5423007D01*
X19221843Y-5423007D02*
X19219462Y-5451579D01*
X19219462Y-5451579D02*
X19221843Y-5448721D01*
X19221843Y-5448721D02*
X19226605Y-5445864D01*
X19226605Y-5445864D02*
X19238510Y-5445864D01*
X19238510Y-5445864D02*
X19243271Y-5448721D01*
X19243271Y-5448721D02*
X19245652Y-5451579D01*
X19245652Y-5451579D02*
X19248033Y-5457293D01*
X19248033Y-5457293D02*
X19248033Y-5471579D01*
X19248033Y-5471579D02*
X19245652Y-5477293D01*
X19245652Y-5477293D02*
X19243271Y-5480150D01*
X19243271Y-5480150D02*
X19238510Y-5483007D01*
X19238510Y-5483007D02*
X19226605Y-5483007D01*
X19226605Y-5483007D02*
X19221843Y-5480150D01*
X19221843Y-5480150D02*
X19219462Y-5477293D01*
X16168107Y-5765143D02*
X16139536Y-5781809D01*
X16168107Y-5793714D02*
X16108107Y-5793714D01*
X16108107Y-5793714D02*
X16108107Y-5774667D01*
X16108107Y-5774667D02*
X16110964Y-5769905D01*
X16110964Y-5769905D02*
X16113821Y-5767524D01*
X16113821Y-5767524D02*
X16119536Y-5765143D01*
X16119536Y-5765143D02*
X16128107Y-5765143D01*
X16128107Y-5765143D02*
X16133821Y-5767524D01*
X16133821Y-5767524D02*
X16136678Y-5769905D01*
X16136678Y-5769905D02*
X16139536Y-5774667D01*
X16139536Y-5774667D02*
X16139536Y-5793714D01*
X16113821Y-5746095D02*
X16110964Y-5743714D01*
X16110964Y-5743714D02*
X16108107Y-5738952D01*
X16108107Y-5738952D02*
X16108107Y-5727047D01*
X16108107Y-5727047D02*
X16110964Y-5722286D01*
X16110964Y-5722286D02*
X16113821Y-5719905D01*
X16113821Y-5719905D02*
X16119536Y-5717524D01*
X16119536Y-5717524D02*
X16125250Y-5717524D01*
X16125250Y-5717524D02*
X16133821Y-5719905D01*
X16133821Y-5719905D02*
X16168107Y-5748476D01*
X16168107Y-5748476D02*
X16168107Y-5717524D01*
X16168107Y-5693714D02*
X16168107Y-5684190D01*
X16168107Y-5684190D02*
X16165250Y-5679428D01*
X16165250Y-5679428D02*
X16162393Y-5677048D01*
X16162393Y-5677048D02*
X16153821Y-5672286D01*
X16153821Y-5672286D02*
X16142393Y-5669905D01*
X16142393Y-5669905D02*
X16119536Y-5669905D01*
X16119536Y-5669905D02*
X16113821Y-5672286D01*
X16113821Y-5672286D02*
X16110964Y-5674667D01*
X16110964Y-5674667D02*
X16108107Y-5679428D01*
X16108107Y-5679428D02*
X16108107Y-5688952D01*
X16108107Y-5688952D02*
X16110964Y-5693714D01*
X16110964Y-5693714D02*
X16113821Y-5696095D01*
X16113821Y-5696095D02*
X16119536Y-5698476D01*
X16119536Y-5698476D02*
X16133821Y-5698476D01*
X16133821Y-5698476D02*
X16139536Y-5696095D01*
X16139536Y-5696095D02*
X16142393Y-5693714D01*
X16142393Y-5693714D02*
X16145250Y-5688952D01*
X16145250Y-5688952D02*
X16145250Y-5679428D01*
X16145250Y-5679428D02*
X16142393Y-5674667D01*
X16142393Y-5674667D02*
X16139536Y-5672286D01*
X16139536Y-5672286D02*
X16133821Y-5669905D01*
X19407736Y-5727290D02*
X19407736Y-5775861D01*
X19407736Y-5775861D02*
X19410117Y-5781576D01*
X19410117Y-5781576D02*
X19412498Y-5784433D01*
X19412498Y-5784433D02*
X19417260Y-5787290D01*
X19417260Y-5787290D02*
X19426783Y-5787290D01*
X19426783Y-5787290D02*
X19431545Y-5784433D01*
X19431545Y-5784433D02*
X19433926Y-5781576D01*
X19433926Y-5781576D02*
X19436307Y-5775861D01*
X19436307Y-5775861D02*
X19436307Y-5727290D01*
X19481545Y-5727290D02*
X19472022Y-5727290D01*
X19472022Y-5727290D02*
X19467260Y-5730147D01*
X19467260Y-5730147D02*
X19464879Y-5733004D01*
X19464879Y-5733004D02*
X19460117Y-5741576D01*
X19460117Y-5741576D02*
X19457736Y-5753004D01*
X19457736Y-5753004D02*
X19457736Y-5775861D01*
X19457736Y-5775861D02*
X19460117Y-5781576D01*
X19460117Y-5781576D02*
X19462498Y-5784433D01*
X19462498Y-5784433D02*
X19467260Y-5787290D01*
X19467260Y-5787290D02*
X19476783Y-5787290D01*
X19476783Y-5787290D02*
X19481545Y-5784433D01*
X19481545Y-5784433D02*
X19483926Y-5781576D01*
X19483926Y-5781576D02*
X19486307Y-5775861D01*
X19486307Y-5775861D02*
X19486307Y-5761576D01*
X19486307Y-5761576D02*
X19483926Y-5755861D01*
X19483926Y-5755861D02*
X19481545Y-5753004D01*
X19481545Y-5753004D02*
X19476783Y-5750147D01*
X19476783Y-5750147D02*
X19467260Y-5750147D01*
X19467260Y-5750147D02*
X19462498Y-5753004D01*
X19462498Y-5753004D02*
X19460117Y-5755861D01*
X19460117Y-5755861D02*
X19457736Y-5761576D01*
X20041005Y-7358507D02*
X20069576Y-7358507D01*
X20055291Y-7418507D02*
X20055291Y-7358507D01*
X20086243Y-7418507D02*
X20086243Y-7358507D01*
X20086243Y-7358507D02*
X20105290Y-7358507D01*
X20105290Y-7358507D02*
X20110052Y-7361364D01*
X20110052Y-7361364D02*
X20112433Y-7364221D01*
X20112433Y-7364221D02*
X20114814Y-7369936D01*
X20114814Y-7369936D02*
X20114814Y-7378507D01*
X20114814Y-7378507D02*
X20112433Y-7384221D01*
X20112433Y-7384221D02*
X20110052Y-7387078D01*
X20110052Y-7387078D02*
X20105290Y-7389936D01*
X20105290Y-7389936D02*
X20086243Y-7389936D01*
X20162433Y-7418507D02*
X20133862Y-7418507D01*
X20148148Y-7418507D02*
X20148148Y-7358507D01*
X20148148Y-7358507D02*
X20143386Y-7367078D01*
X20143386Y-7367078D02*
X20138624Y-7372793D01*
X20138624Y-7372793D02*
X20133862Y-7375650D01*
X16655657Y-7748707D02*
X16638990Y-7720136D01*
X16627086Y-7748707D02*
X16627086Y-7688707D01*
X16627086Y-7688707D02*
X16646133Y-7688707D01*
X16646133Y-7688707D02*
X16650895Y-7691564D01*
X16650895Y-7691564D02*
X16653276Y-7694421D01*
X16653276Y-7694421D02*
X16655657Y-7700136D01*
X16655657Y-7700136D02*
X16655657Y-7708707D01*
X16655657Y-7708707D02*
X16653276Y-7714421D01*
X16653276Y-7714421D02*
X16650895Y-7717278D01*
X16650895Y-7717278D02*
X16646133Y-7720136D01*
X16646133Y-7720136D02*
X16627086Y-7720136D01*
X16703276Y-7748707D02*
X16674705Y-7748707D01*
X16688990Y-7748707D02*
X16688990Y-7688707D01*
X16688990Y-7688707D02*
X16684229Y-7697278D01*
X16684229Y-7697278D02*
X16679467Y-7702993D01*
X16679467Y-7702993D02*
X16674705Y-7705850D01*
X16746133Y-7708707D02*
X16746133Y-7748707D01*
X16734228Y-7685850D02*
X16722324Y-7728707D01*
X16722324Y-7728707D02*
X16753276Y-7728707D01*
D16*
X14490228Y-7438063D02*
X14487371Y-7440920D01*
X14487371Y-7440920D02*
X14478800Y-7443777D01*
X14478800Y-7443777D02*
X14473086Y-7443777D01*
X14473086Y-7443777D02*
X14464514Y-7440920D01*
X14464514Y-7440920D02*
X14458800Y-7435206D01*
X14458800Y-7435206D02*
X14455943Y-7429491D01*
X14455943Y-7429491D02*
X14453086Y-7418063D01*
X14453086Y-7418063D02*
X14453086Y-7409491D01*
X14453086Y-7409491D02*
X14455943Y-7398063D01*
X14455943Y-7398063D02*
X14458800Y-7392348D01*
X14458800Y-7392348D02*
X14464514Y-7386634D01*
X14464514Y-7386634D02*
X14473086Y-7383777D01*
X14473086Y-7383777D02*
X14478800Y-7383777D01*
X14478800Y-7383777D02*
X14487371Y-7386634D01*
X14487371Y-7386634D02*
X14490228Y-7389491D01*
X14513086Y-7389491D02*
X14515943Y-7386634D01*
X14515943Y-7386634D02*
X14521657Y-7383777D01*
X14521657Y-7383777D02*
X14535943Y-7383777D01*
X14535943Y-7383777D02*
X14541657Y-7386634D01*
X14541657Y-7386634D02*
X14544514Y-7389491D01*
X14544514Y-7389491D02*
X14547371Y-7395206D01*
X14547371Y-7395206D02*
X14547371Y-7400920D01*
X14547371Y-7400920D02*
X14544514Y-7409491D01*
X14544514Y-7409491D02*
X14510228Y-7443777D01*
X14510228Y-7443777D02*
X14547371Y-7443777D01*
X14567371Y-7383777D02*
X14604514Y-7383777D01*
X14604514Y-7383777D02*
X14584514Y-7406634D01*
X14584514Y-7406634D02*
X14593086Y-7406634D01*
X14593086Y-7406634D02*
X14598800Y-7409491D01*
X14598800Y-7409491D02*
X14601657Y-7412348D01*
X14601657Y-7412348D02*
X14604514Y-7418063D01*
X14604514Y-7418063D02*
X14604514Y-7432348D01*
X14604514Y-7432348D02*
X14601657Y-7438063D01*
X14601657Y-7438063D02*
X14598800Y-7440920D01*
X14598800Y-7440920D02*
X14593086Y-7443777D01*
X14593086Y-7443777D02*
X14575943Y-7443777D01*
X14575943Y-7443777D02*
X14570228Y-7440920D01*
X14570228Y-7440920D02*
X14567371Y-7438063D01*
X17500129Y-6726863D02*
X17497271Y-6729720D01*
X17497271Y-6729720D02*
X17488700Y-6732577D01*
X17488700Y-6732577D02*
X17482986Y-6732577D01*
X17482986Y-6732577D02*
X17474414Y-6729720D01*
X17474414Y-6729720D02*
X17468700Y-6724006D01*
X17468700Y-6724006D02*
X17465843Y-6718291D01*
X17465843Y-6718291D02*
X17462986Y-6706863D01*
X17462986Y-6706863D02*
X17462986Y-6698291D01*
X17462986Y-6698291D02*
X17465843Y-6686863D01*
X17465843Y-6686863D02*
X17468700Y-6681148D01*
X17468700Y-6681148D02*
X17474414Y-6675434D01*
X17474414Y-6675434D02*
X17482986Y-6672577D01*
X17482986Y-6672577D02*
X17488700Y-6672577D01*
X17488700Y-6672577D02*
X17497271Y-6675434D01*
X17497271Y-6675434D02*
X17500129Y-6678291D01*
X17522986Y-6678291D02*
X17525843Y-6675434D01*
X17525843Y-6675434D02*
X17531557Y-6672577D01*
X17531557Y-6672577D02*
X17545843Y-6672577D01*
X17545843Y-6672577D02*
X17551557Y-6675434D01*
X17551557Y-6675434D02*
X17554414Y-6678291D01*
X17554414Y-6678291D02*
X17557271Y-6684006D01*
X17557271Y-6684006D02*
X17557271Y-6689720D01*
X17557271Y-6689720D02*
X17554414Y-6698291D01*
X17554414Y-6698291D02*
X17520129Y-6732577D01*
X17520129Y-6732577D02*
X17557271Y-6732577D01*
X17608700Y-6692577D02*
X17608700Y-6732577D01*
X17594414Y-6669720D02*
X17580129Y-6712577D01*
X17580129Y-6712577D02*
X17617271Y-6712577D01*
D15*
X22606405Y-6667607D02*
X22634976Y-6667607D01*
X22620690Y-6727607D02*
X22620690Y-6667607D01*
X22651643Y-6727607D02*
X22651643Y-6667607D01*
X22651643Y-6667607D02*
X22670690Y-6667607D01*
X22670690Y-6667607D02*
X22675452Y-6670464D01*
X22675452Y-6670464D02*
X22677833Y-6673321D01*
X22677833Y-6673321D02*
X22680214Y-6679036D01*
X22680214Y-6679036D02*
X22680214Y-6687607D01*
X22680214Y-6687607D02*
X22677833Y-6693321D01*
X22677833Y-6693321D02*
X22675452Y-6696178D01*
X22675452Y-6696178D02*
X22670690Y-6699036D01*
X22670690Y-6699036D02*
X22651643Y-6699036D01*
X22723071Y-6687607D02*
X22723071Y-6727607D01*
X22711167Y-6664750D02*
X22699262Y-6707607D01*
X22699262Y-6707607D02*
X22730214Y-6707607D01*
X14646048Y-7943107D02*
X14622238Y-7943107D01*
X14622238Y-7943107D02*
X14622238Y-7883107D01*
X14662714Y-7911678D02*
X14679381Y-7911678D01*
X14686524Y-7943107D02*
X14662714Y-7943107D01*
X14662714Y-7943107D02*
X14662714Y-7883107D01*
X14662714Y-7883107D02*
X14686524Y-7883107D01*
X14707952Y-7943107D02*
X14707952Y-7883107D01*
X14707952Y-7883107D02*
X14719857Y-7883107D01*
X14719857Y-7883107D02*
X14727000Y-7885964D01*
X14727000Y-7885964D02*
X14731762Y-7891678D01*
X14731762Y-7891678D02*
X14734143Y-7897393D01*
X14734143Y-7897393D02*
X14736524Y-7908821D01*
X14736524Y-7908821D02*
X14736524Y-7917393D01*
X14736524Y-7917393D02*
X14734143Y-7928821D01*
X14734143Y-7928821D02*
X14731762Y-7934536D01*
X14731762Y-7934536D02*
X14727000Y-7940250D01*
X14727000Y-7940250D02*
X14719857Y-7943107D01*
X14719857Y-7943107D02*
X14707952Y-7943107D01*
X14755571Y-7888821D02*
X14757952Y-7885964D01*
X14757952Y-7885964D02*
X14762714Y-7883107D01*
X14762714Y-7883107D02*
X14774619Y-7883107D01*
X14774619Y-7883107D02*
X14779381Y-7885964D01*
X14779381Y-7885964D02*
X14781762Y-7888821D01*
X14781762Y-7888821D02*
X14784143Y-7894536D01*
X14784143Y-7894536D02*
X14784143Y-7900250D01*
X14784143Y-7900250D02*
X14781762Y-7908821D01*
X14781762Y-7908821D02*
X14753190Y-7943107D01*
X14753190Y-7943107D02*
X14784143Y-7943107D01*
X19239857Y-7873607D02*
X19223191Y-7845036D01*
X19211286Y-7873607D02*
X19211286Y-7813607D01*
X19211286Y-7813607D02*
X19230333Y-7813607D01*
X19230333Y-7813607D02*
X19235095Y-7816464D01*
X19235095Y-7816464D02*
X19237476Y-7819321D01*
X19237476Y-7819321D02*
X19239857Y-7825036D01*
X19239857Y-7825036D02*
X19239857Y-7833607D01*
X19239857Y-7833607D02*
X19237476Y-7839321D01*
X19237476Y-7839321D02*
X19235095Y-7842178D01*
X19235095Y-7842178D02*
X19230333Y-7845036D01*
X19230333Y-7845036D02*
X19211286Y-7845036D01*
X19287476Y-7873607D02*
X19258905Y-7873607D01*
X19273191Y-7873607D02*
X19273191Y-7813607D01*
X19273191Y-7813607D02*
X19268429Y-7822178D01*
X19268429Y-7822178D02*
X19263667Y-7827893D01*
X19263667Y-7827893D02*
X19258905Y-7830750D01*
X19306524Y-7819321D02*
X19308905Y-7816464D01*
X19308905Y-7816464D02*
X19313667Y-7813607D01*
X19313667Y-7813607D02*
X19325571Y-7813607D01*
X19325571Y-7813607D02*
X19330333Y-7816464D01*
X19330333Y-7816464D02*
X19332714Y-7819321D01*
X19332714Y-7819321D02*
X19335095Y-7825036D01*
X19335095Y-7825036D02*
X19335095Y-7830750D01*
X19335095Y-7830750D02*
X19332714Y-7839321D01*
X19332714Y-7839321D02*
X19304143Y-7873607D01*
X19304143Y-7873607D02*
X19335095Y-7873607D01*
X14299048Y-7950107D02*
X14275238Y-7950107D01*
X14275238Y-7950107D02*
X14275238Y-7890107D01*
X14315714Y-7918678D02*
X14332381Y-7918678D01*
X14339524Y-7950107D02*
X14315714Y-7950107D01*
X14315714Y-7950107D02*
X14315714Y-7890107D01*
X14315714Y-7890107D02*
X14339524Y-7890107D01*
X14360952Y-7950107D02*
X14360952Y-7890107D01*
X14360952Y-7890107D02*
X14372857Y-7890107D01*
X14372857Y-7890107D02*
X14380000Y-7892964D01*
X14380000Y-7892964D02*
X14384762Y-7898678D01*
X14384762Y-7898678D02*
X14387143Y-7904393D01*
X14387143Y-7904393D02*
X14389524Y-7915821D01*
X14389524Y-7915821D02*
X14389524Y-7924393D01*
X14389524Y-7924393D02*
X14387143Y-7935821D01*
X14387143Y-7935821D02*
X14384762Y-7941536D01*
X14384762Y-7941536D02*
X14380000Y-7947250D01*
X14380000Y-7947250D02*
X14372857Y-7950107D01*
X14372857Y-7950107D02*
X14360952Y-7950107D01*
X14437143Y-7950107D02*
X14408571Y-7950107D01*
X14422857Y-7950107D02*
X14422857Y-7890107D01*
X14422857Y-7890107D02*
X14418095Y-7898678D01*
X14418095Y-7898678D02*
X14413333Y-7904393D01*
X14413333Y-7904393D02*
X14408571Y-7907250D01*
X17830857Y-5855107D02*
X17814191Y-5826536D01*
X17802286Y-5855107D02*
X17802286Y-5795107D01*
X17802286Y-5795107D02*
X17821333Y-5795107D01*
X17821333Y-5795107D02*
X17826095Y-5797964D01*
X17826095Y-5797964D02*
X17828476Y-5800821D01*
X17828476Y-5800821D02*
X17830857Y-5806536D01*
X17830857Y-5806536D02*
X17830857Y-5815107D01*
X17830857Y-5815107D02*
X17828476Y-5820821D01*
X17828476Y-5820821D02*
X17826095Y-5823678D01*
X17826095Y-5823678D02*
X17821333Y-5826536D01*
X17821333Y-5826536D02*
X17802286Y-5826536D01*
X17849905Y-5800821D02*
X17852286Y-5797964D01*
X17852286Y-5797964D02*
X17857048Y-5795107D01*
X17857048Y-5795107D02*
X17868952Y-5795107D01*
X17868952Y-5795107D02*
X17873714Y-5797964D01*
X17873714Y-5797964D02*
X17876095Y-5800821D01*
X17876095Y-5800821D02*
X17878476Y-5806536D01*
X17878476Y-5806536D02*
X17878476Y-5812250D01*
X17878476Y-5812250D02*
X17876095Y-5820821D01*
X17876095Y-5820821D02*
X17847524Y-5855107D01*
X17847524Y-5855107D02*
X17878476Y-5855107D01*
X17895143Y-5795107D02*
X17926095Y-5795107D01*
X17926095Y-5795107D02*
X17909429Y-5817964D01*
X17909429Y-5817964D02*
X17916571Y-5817964D01*
X17916571Y-5817964D02*
X17921333Y-5820821D01*
X17921333Y-5820821D02*
X17923714Y-5823678D01*
X17923714Y-5823678D02*
X17926095Y-5829393D01*
X17926095Y-5829393D02*
X17926095Y-5843678D01*
X17926095Y-5843678D02*
X17923714Y-5849393D01*
X17923714Y-5849393D02*
X17921333Y-5852250D01*
X17921333Y-5852250D02*
X17916571Y-5855107D01*
X17916571Y-5855107D02*
X17902286Y-5855107D01*
X17902286Y-5855107D02*
X17897524Y-5852250D01*
X17897524Y-5852250D02*
X17895143Y-5849393D01*
X20827393Y-5108383D02*
X20830250Y-5110764D01*
X20830250Y-5110764D02*
X20833107Y-5117907D01*
X20833107Y-5117907D02*
X20833107Y-5122669D01*
X20833107Y-5122669D02*
X20830250Y-5129812D01*
X20830250Y-5129812D02*
X20824536Y-5134574D01*
X20824536Y-5134574D02*
X20818821Y-5136955D01*
X20818821Y-5136955D02*
X20807393Y-5139336D01*
X20807393Y-5139336D02*
X20798821Y-5139336D01*
X20798821Y-5139336D02*
X20787393Y-5136955D01*
X20787393Y-5136955D02*
X20781679Y-5134574D01*
X20781679Y-5134574D02*
X20775964Y-5129812D01*
X20775964Y-5129812D02*
X20773107Y-5122669D01*
X20773107Y-5122669D02*
X20773107Y-5117907D01*
X20773107Y-5117907D02*
X20775964Y-5110764D01*
X20775964Y-5110764D02*
X20778821Y-5108383D01*
X20773107Y-5091717D02*
X20773107Y-5058383D01*
X20773107Y-5058383D02*
X20833107Y-5079812D01*
X21811393Y-6766193D02*
X21814250Y-6768574D01*
X21814250Y-6768574D02*
X21817107Y-6775717D01*
X21817107Y-6775717D02*
X21817107Y-6780478D01*
X21817107Y-6780478D02*
X21814250Y-6787621D01*
X21814250Y-6787621D02*
X21808536Y-6792383D01*
X21808536Y-6792383D02*
X21802821Y-6794764D01*
X21802821Y-6794764D02*
X21791393Y-6797145D01*
X21791393Y-6797145D02*
X21782821Y-6797145D01*
X21782821Y-6797145D02*
X21771393Y-6794764D01*
X21771393Y-6794764D02*
X21765679Y-6792383D01*
X21765679Y-6792383D02*
X21759964Y-6787621D01*
X21759964Y-6787621D02*
X21757107Y-6780478D01*
X21757107Y-6780478D02*
X21757107Y-6775717D01*
X21757107Y-6775717D02*
X21759964Y-6768574D01*
X21759964Y-6768574D02*
X21762821Y-6766193D01*
X21817107Y-6718574D02*
X21817107Y-6747145D01*
X21817107Y-6732859D02*
X21757107Y-6732859D01*
X21757107Y-6732859D02*
X21765679Y-6737621D01*
X21765679Y-6737621D02*
X21771393Y-6742383D01*
X21771393Y-6742383D02*
X21774250Y-6747145D01*
X21762821Y-6699526D02*
X21759964Y-6697145D01*
X21759964Y-6697145D02*
X21757107Y-6692383D01*
X21757107Y-6692383D02*
X21757107Y-6680478D01*
X21757107Y-6680478D02*
X21759964Y-6675717D01*
X21759964Y-6675717D02*
X21762821Y-6673336D01*
X21762821Y-6673336D02*
X21768536Y-6670955D01*
X21768536Y-6670955D02*
X21774250Y-6670955D01*
X21774250Y-6670955D02*
X21782821Y-6673336D01*
X21782821Y-6673336D02*
X21817107Y-6701907D01*
X21817107Y-6701907D02*
X21817107Y-6670955D01*
X21136393Y-6769193D02*
X21139250Y-6771574D01*
X21139250Y-6771574D02*
X21142107Y-6778717D01*
X21142107Y-6778717D02*
X21142107Y-6783478D01*
X21142107Y-6783478D02*
X21139250Y-6790621D01*
X21139250Y-6790621D02*
X21133536Y-6795383D01*
X21133536Y-6795383D02*
X21127821Y-6797764D01*
X21127821Y-6797764D02*
X21116393Y-6800145D01*
X21116393Y-6800145D02*
X21107821Y-6800145D01*
X21107821Y-6800145D02*
X21096393Y-6797764D01*
X21096393Y-6797764D02*
X21090679Y-6795383D01*
X21090679Y-6795383D02*
X21084964Y-6790621D01*
X21084964Y-6790621D02*
X21082107Y-6783478D01*
X21082107Y-6783478D02*
X21082107Y-6778717D01*
X21082107Y-6778717D02*
X21084964Y-6771574D01*
X21084964Y-6771574D02*
X21087821Y-6769193D01*
X21142107Y-6721574D02*
X21142107Y-6750145D01*
X21142107Y-6735859D02*
X21082107Y-6735859D01*
X21082107Y-6735859D02*
X21090679Y-6740621D01*
X21090679Y-6740621D02*
X21096393Y-6745383D01*
X21096393Y-6745383D02*
X21099250Y-6750145D01*
X21082107Y-6704907D02*
X21082107Y-6673955D01*
X21082107Y-6673955D02*
X21104964Y-6690621D01*
X21104964Y-6690621D02*
X21104964Y-6683478D01*
X21104964Y-6683478D02*
X21107821Y-6678717D01*
X21107821Y-6678717D02*
X21110679Y-6676336D01*
X21110679Y-6676336D02*
X21116393Y-6673955D01*
X21116393Y-6673955D02*
X21130679Y-6673955D01*
X21130679Y-6673955D02*
X21136393Y-6676336D01*
X21136393Y-6676336D02*
X21139250Y-6678717D01*
X21139250Y-6678717D02*
X21142107Y-6683478D01*
X21142107Y-6683478D02*
X21142107Y-6697764D01*
X21142107Y-6697764D02*
X21139250Y-6702526D01*
X21139250Y-6702526D02*
X21136393Y-6704907D01*
X16232307Y-7117152D02*
X16232307Y-7140962D01*
X16232307Y-7140962D02*
X16172307Y-7140962D01*
X16200878Y-7100486D02*
X16200878Y-7083819D01*
X16232307Y-7076676D02*
X16232307Y-7100486D01*
X16232307Y-7100486D02*
X16172307Y-7100486D01*
X16172307Y-7100486D02*
X16172307Y-7076676D01*
X16232307Y-7055247D02*
X16172307Y-7055247D01*
X16172307Y-7055247D02*
X16172307Y-7043343D01*
X16172307Y-7043343D02*
X16175164Y-7036200D01*
X16175164Y-7036200D02*
X16180878Y-7031438D01*
X16180878Y-7031438D02*
X16186593Y-7029057D01*
X16186593Y-7029057D02*
X16198021Y-7026676D01*
X16198021Y-7026676D02*
X16206593Y-7026676D01*
X16206593Y-7026676D02*
X16218021Y-7029057D01*
X16218021Y-7029057D02*
X16223736Y-7031438D01*
X16223736Y-7031438D02*
X16229450Y-7036200D01*
X16229450Y-7036200D02*
X16232307Y-7043343D01*
X16232307Y-7043343D02*
X16232307Y-7055247D01*
X16172307Y-6983819D02*
X16172307Y-6993343D01*
X16172307Y-6993343D02*
X16175164Y-6998105D01*
X16175164Y-6998105D02*
X16178021Y-7000486D01*
X16178021Y-7000486D02*
X16186593Y-7005247D01*
X16186593Y-7005247D02*
X16198021Y-7007628D01*
X16198021Y-7007628D02*
X16220878Y-7007628D01*
X16220878Y-7007628D02*
X16226593Y-7005247D01*
X16226593Y-7005247D02*
X16229450Y-7002866D01*
X16229450Y-7002866D02*
X16232307Y-6998105D01*
X16232307Y-6998105D02*
X16232307Y-6988581D01*
X16232307Y-6988581D02*
X16229450Y-6983819D01*
X16229450Y-6983819D02*
X16226593Y-6981438D01*
X16226593Y-6981438D02*
X16220878Y-6979057D01*
X16220878Y-6979057D02*
X16206593Y-6979057D01*
X16206593Y-6979057D02*
X16200878Y-6981438D01*
X16200878Y-6981438D02*
X16198021Y-6983819D01*
X16198021Y-6983819D02*
X16195164Y-6988581D01*
X16195164Y-6988581D02*
X16195164Y-6998105D01*
X16195164Y-6998105D02*
X16198021Y-7002866D01*
X16198021Y-7002866D02*
X16200878Y-7005247D01*
X16200878Y-7005247D02*
X16206593Y-7007628D01*
X17389857Y-5817393D02*
X17387476Y-5820250D01*
X17387476Y-5820250D02*
X17380333Y-5823107D01*
X17380333Y-5823107D02*
X17375571Y-5823107D01*
X17375571Y-5823107D02*
X17368429Y-5820250D01*
X17368429Y-5820250D02*
X17363667Y-5814536D01*
X17363667Y-5814536D02*
X17361286Y-5808821D01*
X17361286Y-5808821D02*
X17358905Y-5797393D01*
X17358905Y-5797393D02*
X17358905Y-5788821D01*
X17358905Y-5788821D02*
X17361286Y-5777393D01*
X17361286Y-5777393D02*
X17363667Y-5771678D01*
X17363667Y-5771678D02*
X17368429Y-5765964D01*
X17368429Y-5765964D02*
X17375571Y-5763107D01*
X17375571Y-5763107D02*
X17380333Y-5763107D01*
X17380333Y-5763107D02*
X17387476Y-5765964D01*
X17387476Y-5765964D02*
X17389857Y-5768821D01*
X17408905Y-5768821D02*
X17411286Y-5765964D01*
X17411286Y-5765964D02*
X17416048Y-5763107D01*
X17416048Y-5763107D02*
X17427952Y-5763107D01*
X17427952Y-5763107D02*
X17432714Y-5765964D01*
X17432714Y-5765964D02*
X17435095Y-5768821D01*
X17435095Y-5768821D02*
X17437476Y-5774536D01*
X17437476Y-5774536D02*
X17437476Y-5780250D01*
X17437476Y-5780250D02*
X17435095Y-5788821D01*
X17435095Y-5788821D02*
X17406524Y-5823107D01*
X17406524Y-5823107D02*
X17437476Y-5823107D01*
X17468429Y-5763107D02*
X17473190Y-5763107D01*
X17473190Y-5763107D02*
X17477952Y-5765964D01*
X17477952Y-5765964D02*
X17480333Y-5768821D01*
X17480333Y-5768821D02*
X17482714Y-5774536D01*
X17482714Y-5774536D02*
X17485095Y-5785964D01*
X17485095Y-5785964D02*
X17485095Y-5800250D01*
X17485095Y-5800250D02*
X17482714Y-5811678D01*
X17482714Y-5811678D02*
X17480333Y-5817393D01*
X17480333Y-5817393D02*
X17477952Y-5820250D01*
X17477952Y-5820250D02*
X17473190Y-5823107D01*
X17473190Y-5823107D02*
X17468429Y-5823107D01*
X17468429Y-5823107D02*
X17463667Y-5820250D01*
X17463667Y-5820250D02*
X17461286Y-5817393D01*
X17461286Y-5817393D02*
X17458905Y-5811678D01*
X17458905Y-5811678D02*
X17456524Y-5800250D01*
X17456524Y-5800250D02*
X17456524Y-5785964D01*
X17456524Y-5785964D02*
X17458905Y-5774536D01*
X17458905Y-5774536D02*
X17461286Y-5768821D01*
X17461286Y-5768821D02*
X17463667Y-5765964D01*
X17463667Y-5765964D02*
X17468429Y-5763107D01*
X16967107Y-5607095D02*
X17015679Y-5607095D01*
X17015679Y-5607095D02*
X17021393Y-5604714D01*
X17021393Y-5604714D02*
X17024250Y-5602333D01*
X17024250Y-5602333D02*
X17027107Y-5597571D01*
X17027107Y-5597571D02*
X17027107Y-5588048D01*
X17027107Y-5588048D02*
X17024250Y-5583286D01*
X17024250Y-5583286D02*
X17021393Y-5580905D01*
X17021393Y-5580905D02*
X17015679Y-5578524D01*
X17015679Y-5578524D02*
X16967107Y-5578524D01*
X16967107Y-5559476D02*
X16967107Y-5526143D01*
X16967107Y-5526143D02*
X17027107Y-5547571D01*
X14980048Y-7943107D02*
X14956238Y-7943107D01*
X14956238Y-7943107D02*
X14956238Y-7883107D01*
X14996714Y-7911678D02*
X15013381Y-7911678D01*
X15020524Y-7943107D02*
X14996714Y-7943107D01*
X14996714Y-7943107D02*
X14996714Y-7883107D01*
X14996714Y-7883107D02*
X15020524Y-7883107D01*
X15041952Y-7943107D02*
X15041952Y-7883107D01*
X15041952Y-7883107D02*
X15053857Y-7883107D01*
X15053857Y-7883107D02*
X15061000Y-7885964D01*
X15061000Y-7885964D02*
X15065762Y-7891678D01*
X15065762Y-7891678D02*
X15068143Y-7897393D01*
X15068143Y-7897393D02*
X15070524Y-7908821D01*
X15070524Y-7908821D02*
X15070524Y-7917393D01*
X15070524Y-7917393D02*
X15068143Y-7928821D01*
X15068143Y-7928821D02*
X15065762Y-7934536D01*
X15065762Y-7934536D02*
X15061000Y-7940250D01*
X15061000Y-7940250D02*
X15053857Y-7943107D01*
X15053857Y-7943107D02*
X15041952Y-7943107D01*
X15087190Y-7883107D02*
X15118143Y-7883107D01*
X15118143Y-7883107D02*
X15101476Y-7905964D01*
X15101476Y-7905964D02*
X15108619Y-7905964D01*
X15108619Y-7905964D02*
X15113381Y-7908821D01*
X15113381Y-7908821D02*
X15115762Y-7911678D01*
X15115762Y-7911678D02*
X15118143Y-7917393D01*
X15118143Y-7917393D02*
X15118143Y-7931678D01*
X15118143Y-7931678D02*
X15115762Y-7937393D01*
X15115762Y-7937393D02*
X15113381Y-7940250D01*
X15113381Y-7940250D02*
X15108619Y-7943107D01*
X15108619Y-7943107D02*
X15094333Y-7943107D01*
X15094333Y-7943107D02*
X15089571Y-7940250D01*
X15089571Y-7940250D02*
X15087190Y-7937393D01*
X16008667Y-8542107D02*
X15992000Y-8513536D01*
X15980095Y-8542107D02*
X15980095Y-8482107D01*
X15980095Y-8482107D02*
X15999143Y-8482107D01*
X15999143Y-8482107D02*
X16003905Y-8484964D01*
X16003905Y-8484964D02*
X16006286Y-8487821D01*
X16006286Y-8487821D02*
X16008667Y-8493536D01*
X16008667Y-8493536D02*
X16008667Y-8502107D01*
X16008667Y-8502107D02*
X16006286Y-8507821D01*
X16006286Y-8507821D02*
X16003905Y-8510679D01*
X16003905Y-8510679D02*
X15999143Y-8513536D01*
X15999143Y-8513536D02*
X15980095Y-8513536D01*
X16027714Y-8487821D02*
X16030095Y-8484964D01*
X16030095Y-8484964D02*
X16034857Y-8482107D01*
X16034857Y-8482107D02*
X16046762Y-8482107D01*
X16046762Y-8482107D02*
X16051524Y-8484964D01*
X16051524Y-8484964D02*
X16053905Y-8487821D01*
X16053905Y-8487821D02*
X16056286Y-8493536D01*
X16056286Y-8493536D02*
X16056286Y-8499250D01*
X16056286Y-8499250D02*
X16053905Y-8507821D01*
X16053905Y-8507821D02*
X16025333Y-8542107D01*
X16025333Y-8542107D02*
X16056286Y-8542107D01*
X15973667Y-9796393D02*
X15971286Y-9799250D01*
X15971286Y-9799250D02*
X15964143Y-9802107D01*
X15964143Y-9802107D02*
X15959381Y-9802107D01*
X15959381Y-9802107D02*
X15952238Y-9799250D01*
X15952238Y-9799250D02*
X15947476Y-9793536D01*
X15947476Y-9793536D02*
X15945095Y-9787821D01*
X15945095Y-9787821D02*
X15942714Y-9776393D01*
X15942714Y-9776393D02*
X15942714Y-9767821D01*
X15942714Y-9767821D02*
X15945095Y-9756393D01*
X15945095Y-9756393D02*
X15947476Y-9750679D01*
X15947476Y-9750679D02*
X15952238Y-9744964D01*
X15952238Y-9744964D02*
X15959381Y-9742107D01*
X15959381Y-9742107D02*
X15964143Y-9742107D01*
X15964143Y-9742107D02*
X15971286Y-9744964D01*
X15971286Y-9744964D02*
X15973667Y-9747821D01*
X16016524Y-9742107D02*
X16007000Y-9742107D01*
X16007000Y-9742107D02*
X16002238Y-9744964D01*
X16002238Y-9744964D02*
X15999857Y-9747821D01*
X15999857Y-9747821D02*
X15995095Y-9756393D01*
X15995095Y-9756393D02*
X15992714Y-9767821D01*
X15992714Y-9767821D02*
X15992714Y-9790679D01*
X15992714Y-9790679D02*
X15995095Y-9796393D01*
X15995095Y-9796393D02*
X15997476Y-9799250D01*
X15997476Y-9799250D02*
X16002238Y-9802107D01*
X16002238Y-9802107D02*
X16011762Y-9802107D01*
X16011762Y-9802107D02*
X16016524Y-9799250D01*
X16016524Y-9799250D02*
X16018905Y-9796393D01*
X16018905Y-9796393D02*
X16021286Y-9790679D01*
X16021286Y-9790679D02*
X16021286Y-9776393D01*
X16021286Y-9776393D02*
X16018905Y-9770679D01*
X16018905Y-9770679D02*
X16016524Y-9767821D01*
X16016524Y-9767821D02*
X16011762Y-9764964D01*
X16011762Y-9764964D02*
X16002238Y-9764964D01*
X16002238Y-9764964D02*
X15997476Y-9767821D01*
X15997476Y-9767821D02*
X15995095Y-9770679D01*
X15995095Y-9770679D02*
X15992714Y-9776393D01*
X14960857Y-6552107D02*
X14944190Y-6523536D01*
X14932286Y-6552107D02*
X14932286Y-6492107D01*
X14932286Y-6492107D02*
X14951333Y-6492107D01*
X14951333Y-6492107D02*
X14956095Y-6494964D01*
X14956095Y-6494964D02*
X14958476Y-6497821D01*
X14958476Y-6497821D02*
X14960857Y-6503536D01*
X14960857Y-6503536D02*
X14960857Y-6512107D01*
X14960857Y-6512107D02*
X14958476Y-6517821D01*
X14958476Y-6517821D02*
X14956095Y-6520678D01*
X14956095Y-6520678D02*
X14951333Y-6523536D01*
X14951333Y-6523536D02*
X14932286Y-6523536D01*
X15008476Y-6552107D02*
X14979905Y-6552107D01*
X14994190Y-6552107D02*
X14994190Y-6492107D01*
X14994190Y-6492107D02*
X14989429Y-6500678D01*
X14989429Y-6500678D02*
X14984667Y-6506393D01*
X14984667Y-6506393D02*
X14979905Y-6509250D01*
X15039428Y-6492107D02*
X15044190Y-6492107D01*
X15044190Y-6492107D02*
X15048952Y-6494964D01*
X15048952Y-6494964D02*
X15051333Y-6497821D01*
X15051333Y-6497821D02*
X15053714Y-6503536D01*
X15053714Y-6503536D02*
X15056095Y-6514964D01*
X15056095Y-6514964D02*
X15056095Y-6529250D01*
X15056095Y-6529250D02*
X15053714Y-6540678D01*
X15053714Y-6540678D02*
X15051333Y-6546393D01*
X15051333Y-6546393D02*
X15048952Y-6549250D01*
X15048952Y-6549250D02*
X15044190Y-6552107D01*
X15044190Y-6552107D02*
X15039428Y-6552107D01*
X15039428Y-6552107D02*
X15034667Y-6549250D01*
X15034667Y-6549250D02*
X15032286Y-6546393D01*
X15032286Y-6546393D02*
X15029905Y-6540678D01*
X15029905Y-6540678D02*
X15027524Y-6529250D01*
X15027524Y-6529250D02*
X15027524Y-6514964D01*
X15027524Y-6514964D02*
X15029905Y-6503536D01*
X15029905Y-6503536D02*
X15032286Y-6497821D01*
X15032286Y-6497821D02*
X15034667Y-6494964D01*
X15034667Y-6494964D02*
X15039428Y-6492107D01*
X14320507Y-6414452D02*
X14320507Y-6438262D01*
X14320507Y-6438262D02*
X14260507Y-6438262D01*
X14289078Y-6397786D02*
X14289078Y-6381119D01*
X14320507Y-6373976D02*
X14320507Y-6397786D01*
X14320507Y-6397786D02*
X14260507Y-6397786D01*
X14260507Y-6397786D02*
X14260507Y-6373976D01*
X14320507Y-6352547D02*
X14260507Y-6352547D01*
X14260507Y-6352547D02*
X14260507Y-6340643D01*
X14260507Y-6340643D02*
X14263364Y-6333500D01*
X14263364Y-6333500D02*
X14269078Y-6328738D01*
X14269078Y-6328738D02*
X14274793Y-6326357D01*
X14274793Y-6326357D02*
X14286221Y-6323976D01*
X14286221Y-6323976D02*
X14294793Y-6323976D01*
X14294793Y-6323976D02*
X14306221Y-6326357D01*
X14306221Y-6326357D02*
X14311936Y-6328738D01*
X14311936Y-6328738D02*
X14317650Y-6333500D01*
X14317650Y-6333500D02*
X14320507Y-6340643D01*
X14320507Y-6340643D02*
X14320507Y-6352547D01*
X14280507Y-6281119D02*
X14320507Y-6281119D01*
X14257650Y-6293024D02*
X14300507Y-6304928D01*
X14300507Y-6304928D02*
X14300507Y-6273976D01*
X17043405Y-7066407D02*
X17043405Y-7114978D01*
X17043405Y-7114978D02*
X17045786Y-7120693D01*
X17045786Y-7120693D02*
X17048167Y-7123550D01*
X17048167Y-7123550D02*
X17052929Y-7126407D01*
X17052929Y-7126407D02*
X17062452Y-7126407D01*
X17062452Y-7126407D02*
X17067214Y-7123550D01*
X17067214Y-7123550D02*
X17069595Y-7120693D01*
X17069595Y-7120693D02*
X17071976Y-7114978D01*
X17071976Y-7114978D02*
X17071976Y-7066407D01*
X17117214Y-7086407D02*
X17117214Y-7126407D01*
X17105310Y-7063550D02*
X17093405Y-7106407D01*
X17093405Y-7106407D02*
X17124357Y-7106407D01*
X16346607Y-9114233D02*
X16318036Y-9130900D01*
X16346607Y-9142805D02*
X16286607Y-9142805D01*
X16286607Y-9142805D02*
X16286607Y-9123757D01*
X16286607Y-9123757D02*
X16289464Y-9118995D01*
X16289464Y-9118995D02*
X16292321Y-9116614D01*
X16292321Y-9116614D02*
X16298036Y-9114233D01*
X16298036Y-9114233D02*
X16306607Y-9114233D01*
X16306607Y-9114233D02*
X16312321Y-9116614D01*
X16312321Y-9116614D02*
X16315178Y-9118995D01*
X16315178Y-9118995D02*
X16318036Y-9123757D01*
X16318036Y-9123757D02*
X16318036Y-9142805D01*
X16306607Y-9071376D02*
X16346607Y-9071376D01*
X16283750Y-9083281D02*
X16326607Y-9095186D01*
X16326607Y-9095186D02*
X16326607Y-9064233D01*
X18064007Y-9182843D02*
X18035436Y-9199509D01*
X18064007Y-9211414D02*
X18004007Y-9211414D01*
X18004007Y-9211414D02*
X18004007Y-9192367D01*
X18004007Y-9192367D02*
X18006864Y-9187605D01*
X18006864Y-9187605D02*
X18009721Y-9185224D01*
X18009721Y-9185224D02*
X18015436Y-9182843D01*
X18015436Y-9182843D02*
X18024007Y-9182843D01*
X18024007Y-9182843D02*
X18029721Y-9185224D01*
X18029721Y-9185224D02*
X18032579Y-9187605D01*
X18032579Y-9187605D02*
X18035436Y-9192367D01*
X18035436Y-9192367D02*
X18035436Y-9211414D01*
X18004007Y-9166176D02*
X18004007Y-9135224D01*
X18004007Y-9135224D02*
X18026864Y-9151890D01*
X18026864Y-9151890D02*
X18026864Y-9144748D01*
X18026864Y-9144748D02*
X18029721Y-9139986D01*
X18029721Y-9139986D02*
X18032579Y-9137605D01*
X18032579Y-9137605D02*
X18038293Y-9135224D01*
X18038293Y-9135224D02*
X18052579Y-9135224D01*
X18052579Y-9135224D02*
X18058293Y-9137605D01*
X18058293Y-9137605D02*
X18061150Y-9139986D01*
X18061150Y-9139986D02*
X18064007Y-9144748D01*
X18064007Y-9144748D02*
X18064007Y-9159033D01*
X18064007Y-9159033D02*
X18061150Y-9163795D01*
X18061150Y-9163795D02*
X18058293Y-9166176D01*
X18009721Y-9116176D02*
X18006864Y-9113795D01*
X18006864Y-9113795D02*
X18004007Y-9109033D01*
X18004007Y-9109033D02*
X18004007Y-9097129D01*
X18004007Y-9097129D02*
X18006864Y-9092367D01*
X18006864Y-9092367D02*
X18009721Y-9089986D01*
X18009721Y-9089986D02*
X18015436Y-9087605D01*
X18015436Y-9087605D02*
X18021150Y-9087605D01*
X18021150Y-9087605D02*
X18029721Y-9089986D01*
X18029721Y-9089986D02*
X18064007Y-9118557D01*
X18064007Y-9118557D02*
X18064007Y-9087605D01*
X17377507Y-8204195D02*
X17426079Y-8204195D01*
X17426079Y-8204195D02*
X17431793Y-8201814D01*
X17431793Y-8201814D02*
X17434650Y-8199433D01*
X17434650Y-8199433D02*
X17437507Y-8194671D01*
X17437507Y-8194671D02*
X17437507Y-8185148D01*
X17437507Y-8185148D02*
X17434650Y-8180386D01*
X17434650Y-8180386D02*
X17431793Y-8178005D01*
X17431793Y-8178005D02*
X17426079Y-8175624D01*
X17426079Y-8175624D02*
X17377507Y-8175624D01*
X17377507Y-8128005D02*
X17377507Y-8151814D01*
X17377507Y-8151814D02*
X17406079Y-8154195D01*
X17406079Y-8154195D02*
X17403221Y-8151814D01*
X17403221Y-8151814D02*
X17400364Y-8147052D01*
X17400364Y-8147052D02*
X17400364Y-8135147D01*
X17400364Y-8135147D02*
X17403221Y-8130386D01*
X17403221Y-8130386D02*
X17406079Y-8128005D01*
X17406079Y-8128005D02*
X17411793Y-8125624D01*
X17411793Y-8125624D02*
X17426079Y-8125624D01*
X17426079Y-8125624D02*
X17431793Y-8128005D01*
X17431793Y-8128005D02*
X17434650Y-8130386D01*
X17434650Y-8130386D02*
X17437507Y-8135147D01*
X17437507Y-8135147D02*
X17437507Y-8147052D01*
X17437507Y-8147052D02*
X17434650Y-8151814D01*
X17434650Y-8151814D02*
X17431793Y-8154195D01*
X21171657Y-5814793D02*
X21143086Y-5831459D01*
X21171657Y-5843364D02*
X21111657Y-5843364D01*
X21111657Y-5843364D02*
X21111657Y-5824317D01*
X21111657Y-5824317D02*
X21114514Y-5819555D01*
X21114514Y-5819555D02*
X21117371Y-5817174D01*
X21117371Y-5817174D02*
X21123086Y-5814793D01*
X21123086Y-5814793D02*
X21131657Y-5814793D01*
X21131657Y-5814793D02*
X21137371Y-5817174D01*
X21137371Y-5817174D02*
X21140229Y-5819555D01*
X21140229Y-5819555D02*
X21143086Y-5824317D01*
X21143086Y-5824317D02*
X21143086Y-5843364D01*
X21171657Y-5767174D02*
X21171657Y-5795745D01*
X21171657Y-5781459D02*
X21111657Y-5781459D01*
X21111657Y-5781459D02*
X21120229Y-5786221D01*
X21120229Y-5786221D02*
X21125943Y-5790983D01*
X21125943Y-5790983D02*
X21128800Y-5795745D01*
X21111657Y-5721936D02*
X21111657Y-5745745D01*
X21111657Y-5745745D02*
X21140229Y-5748126D01*
X21140229Y-5748126D02*
X21137371Y-5745745D01*
X21137371Y-5745745D02*
X21134514Y-5740983D01*
X21134514Y-5740983D02*
X21134514Y-5729078D01*
X21134514Y-5729078D02*
X21137371Y-5724317D01*
X21137371Y-5724317D02*
X21140229Y-5721936D01*
X21140229Y-5721936D02*
X21145943Y-5719555D01*
X21145943Y-5719555D02*
X21160229Y-5719555D01*
X21160229Y-5719555D02*
X21165943Y-5721936D01*
X21165943Y-5721936D02*
X21168800Y-5724317D01*
X21168800Y-5724317D02*
X21171657Y-5729078D01*
X21171657Y-5729078D02*
X21171657Y-5740983D01*
X21171657Y-5740983D02*
X21168800Y-5745745D01*
X21168800Y-5745745D02*
X21165943Y-5748126D01*
X19182393Y-7215643D02*
X19185250Y-7218024D01*
X19185250Y-7218024D02*
X19188107Y-7225167D01*
X19188107Y-7225167D02*
X19188107Y-7229928D01*
X19188107Y-7229928D02*
X19185250Y-7237071D01*
X19185250Y-7237071D02*
X19179536Y-7241833D01*
X19179536Y-7241833D02*
X19173821Y-7244214D01*
X19173821Y-7244214D02*
X19162393Y-7246595D01*
X19162393Y-7246595D02*
X19153821Y-7246595D01*
X19153821Y-7246595D02*
X19142393Y-7244214D01*
X19142393Y-7244214D02*
X19136679Y-7241833D01*
X19136679Y-7241833D02*
X19130964Y-7237071D01*
X19130964Y-7237071D02*
X19128107Y-7229928D01*
X19128107Y-7229928D02*
X19128107Y-7225167D01*
X19128107Y-7225167D02*
X19130964Y-7218024D01*
X19130964Y-7218024D02*
X19133821Y-7215643D01*
X19188107Y-7168024D02*
X19188107Y-7196595D01*
X19188107Y-7182309D02*
X19128107Y-7182309D01*
X19128107Y-7182309D02*
X19136679Y-7187071D01*
X19136679Y-7187071D02*
X19142393Y-7191833D01*
X19142393Y-7191833D02*
X19145250Y-7196595D01*
X19188107Y-7120405D02*
X19188107Y-7148976D01*
X19188107Y-7134690D02*
X19128107Y-7134690D01*
X19128107Y-7134690D02*
X19136679Y-7139452D01*
X19136679Y-7139452D02*
X19142393Y-7144214D01*
X19142393Y-7144214D02*
X19145250Y-7148976D01*
X15628667Y-7953393D02*
X15626286Y-7956250D01*
X15626286Y-7956250D02*
X15619143Y-7959107D01*
X15619143Y-7959107D02*
X15614381Y-7959107D01*
X15614381Y-7959107D02*
X15607238Y-7956250D01*
X15607238Y-7956250D02*
X15602476Y-7950536D01*
X15602476Y-7950536D02*
X15600095Y-7944821D01*
X15600095Y-7944821D02*
X15597714Y-7933393D01*
X15597714Y-7933393D02*
X15597714Y-7924821D01*
X15597714Y-7924821D02*
X15600095Y-7913393D01*
X15600095Y-7913393D02*
X15602476Y-7907678D01*
X15602476Y-7907678D02*
X15607238Y-7901964D01*
X15607238Y-7901964D02*
X15614381Y-7899107D01*
X15614381Y-7899107D02*
X15619143Y-7899107D01*
X15619143Y-7899107D02*
X15626286Y-7901964D01*
X15626286Y-7901964D02*
X15628667Y-7904821D01*
X15647714Y-7904821D02*
X15650095Y-7901964D01*
X15650095Y-7901964D02*
X15654857Y-7899107D01*
X15654857Y-7899107D02*
X15666762Y-7899107D01*
X15666762Y-7899107D02*
X15671524Y-7901964D01*
X15671524Y-7901964D02*
X15673905Y-7904821D01*
X15673905Y-7904821D02*
X15676286Y-7910536D01*
X15676286Y-7910536D02*
X15676286Y-7916250D01*
X15676286Y-7916250D02*
X15673905Y-7924821D01*
X15673905Y-7924821D02*
X15645333Y-7959107D01*
X15645333Y-7959107D02*
X15676286Y-7959107D01*
X19248857Y-7668607D02*
X19232191Y-7640036D01*
X19220286Y-7668607D02*
X19220286Y-7608607D01*
X19220286Y-7608607D02*
X19239333Y-7608607D01*
X19239333Y-7608607D02*
X19244095Y-7611464D01*
X19244095Y-7611464D02*
X19246476Y-7614321D01*
X19246476Y-7614321D02*
X19248857Y-7620036D01*
X19248857Y-7620036D02*
X19248857Y-7628607D01*
X19248857Y-7628607D02*
X19246476Y-7634321D01*
X19246476Y-7634321D02*
X19244095Y-7637178D01*
X19244095Y-7637178D02*
X19239333Y-7640036D01*
X19239333Y-7640036D02*
X19220286Y-7640036D01*
X19296476Y-7668607D02*
X19267905Y-7668607D01*
X19282191Y-7668607D02*
X19282191Y-7608607D01*
X19282191Y-7608607D02*
X19277429Y-7617178D01*
X19277429Y-7617178D02*
X19272667Y-7622893D01*
X19272667Y-7622893D02*
X19267905Y-7625750D01*
X19313143Y-7608607D02*
X19344095Y-7608607D01*
X19344095Y-7608607D02*
X19327429Y-7631464D01*
X19327429Y-7631464D02*
X19334571Y-7631464D01*
X19334571Y-7631464D02*
X19339333Y-7634321D01*
X19339333Y-7634321D02*
X19341714Y-7637178D01*
X19341714Y-7637178D02*
X19344095Y-7642893D01*
X19344095Y-7642893D02*
X19344095Y-7657178D01*
X19344095Y-7657178D02*
X19341714Y-7662893D01*
X19341714Y-7662893D02*
X19339333Y-7665750D01*
X19339333Y-7665750D02*
X19334571Y-7668607D01*
X19334571Y-7668607D02*
X19320286Y-7668607D01*
X19320286Y-7668607D02*
X19315524Y-7665750D01*
X19315524Y-7665750D02*
X19313143Y-7662893D01*
X16880007Y-7117152D02*
X16880007Y-7140962D01*
X16880007Y-7140962D02*
X16820007Y-7140962D01*
X16848579Y-7100486D02*
X16848579Y-7083819D01*
X16880007Y-7076676D02*
X16880007Y-7100486D01*
X16880007Y-7100486D02*
X16820007Y-7100486D01*
X16820007Y-7100486D02*
X16820007Y-7076676D01*
X16880007Y-7055247D02*
X16820007Y-7055247D01*
X16820007Y-7055247D02*
X16820007Y-7043343D01*
X16820007Y-7043343D02*
X16822864Y-7036200D01*
X16822864Y-7036200D02*
X16828579Y-7031438D01*
X16828579Y-7031438D02*
X16834293Y-7029057D01*
X16834293Y-7029057D02*
X16845721Y-7026676D01*
X16845721Y-7026676D02*
X16854293Y-7026676D01*
X16854293Y-7026676D02*
X16865721Y-7029057D01*
X16865721Y-7029057D02*
X16871436Y-7031438D01*
X16871436Y-7031438D02*
X16877150Y-7036200D01*
X16877150Y-7036200D02*
X16880007Y-7043343D01*
X16880007Y-7043343D02*
X16880007Y-7055247D01*
X16820007Y-6981438D02*
X16820007Y-7005247D01*
X16820007Y-7005247D02*
X16848579Y-7007628D01*
X16848579Y-7007628D02*
X16845721Y-7005247D01*
X16845721Y-7005247D02*
X16842864Y-7000486D01*
X16842864Y-7000486D02*
X16842864Y-6988581D01*
X16842864Y-6988581D02*
X16845721Y-6983819D01*
X16845721Y-6983819D02*
X16848579Y-6981438D01*
X16848579Y-6981438D02*
X16854293Y-6979057D01*
X16854293Y-6979057D02*
X16868579Y-6979057D01*
X16868579Y-6979057D02*
X16874293Y-6981438D01*
X16874293Y-6981438D02*
X16877150Y-6983819D01*
X16877150Y-6983819D02*
X16880007Y-6988581D01*
X16880007Y-6988581D02*
X16880007Y-7000486D01*
X16880007Y-7000486D02*
X16877150Y-7005247D01*
X16877150Y-7005247D02*
X16874293Y-7007628D01*
X19799705Y-7345807D02*
X19828276Y-7345807D01*
X19813991Y-7405807D02*
X19813991Y-7345807D01*
X19844943Y-7405807D02*
X19844943Y-7345807D01*
X19844943Y-7345807D02*
X19863990Y-7345807D01*
X19863990Y-7345807D02*
X19868752Y-7348664D01*
X19868752Y-7348664D02*
X19871133Y-7351521D01*
X19871133Y-7351521D02*
X19873514Y-7357236D01*
X19873514Y-7357236D02*
X19873514Y-7365807D01*
X19873514Y-7365807D02*
X19871133Y-7371521D01*
X19871133Y-7371521D02*
X19868752Y-7374378D01*
X19868752Y-7374378D02*
X19863990Y-7377236D01*
X19863990Y-7377236D02*
X19844943Y-7377236D01*
X19892562Y-7351521D02*
X19894943Y-7348664D01*
X19894943Y-7348664D02*
X19899705Y-7345807D01*
X19899705Y-7345807D02*
X19911610Y-7345807D01*
X19911610Y-7345807D02*
X19916371Y-7348664D01*
X19916371Y-7348664D02*
X19918752Y-7351521D01*
X19918752Y-7351521D02*
X19921133Y-7357236D01*
X19921133Y-7357236D02*
X19921133Y-7362950D01*
X19921133Y-7362950D02*
X19918752Y-7371521D01*
X19918752Y-7371521D02*
X19890181Y-7405807D01*
X19890181Y-7405807D02*
X19921133Y-7405807D01*
X16180107Y-6036143D02*
X16151536Y-6052809D01*
X16180107Y-6064714D02*
X16120107Y-6064714D01*
X16120107Y-6064714D02*
X16120107Y-6045667D01*
X16120107Y-6045667D02*
X16122964Y-6040905D01*
X16122964Y-6040905D02*
X16125821Y-6038524D01*
X16125821Y-6038524D02*
X16131536Y-6036143D01*
X16131536Y-6036143D02*
X16140107Y-6036143D01*
X16140107Y-6036143D02*
X16145821Y-6038524D01*
X16145821Y-6038524D02*
X16148678Y-6040905D01*
X16148678Y-6040905D02*
X16151536Y-6045667D01*
X16151536Y-6045667D02*
X16151536Y-6064714D01*
X16125821Y-6017095D02*
X16122964Y-6014714D01*
X16122964Y-6014714D02*
X16120107Y-6009952D01*
X16120107Y-6009952D02*
X16120107Y-5998047D01*
X16120107Y-5998047D02*
X16122964Y-5993286D01*
X16122964Y-5993286D02*
X16125821Y-5990905D01*
X16125821Y-5990905D02*
X16131536Y-5988524D01*
X16131536Y-5988524D02*
X16137250Y-5988524D01*
X16137250Y-5988524D02*
X16145821Y-5990905D01*
X16145821Y-5990905D02*
X16180107Y-6019476D01*
X16180107Y-6019476D02*
X16180107Y-5988524D01*
X16120107Y-5971857D02*
X16120107Y-5938524D01*
X16120107Y-5938524D02*
X16180107Y-5959952D01*
X14619833Y-9056607D02*
X14619833Y-9099464D01*
X14619833Y-9099464D02*
X14617452Y-9108036D01*
X14617452Y-9108036D02*
X14612690Y-9113750D01*
X14612690Y-9113750D02*
X14605548Y-9116607D01*
X14605548Y-9116607D02*
X14600786Y-9116607D01*
X14641262Y-9062321D02*
X14643643Y-9059464D01*
X14643643Y-9059464D02*
X14648405Y-9056607D01*
X14648405Y-9056607D02*
X14660309Y-9056607D01*
X14660309Y-9056607D02*
X14665071Y-9059464D01*
X14665071Y-9059464D02*
X14667452Y-9062321D01*
X14667452Y-9062321D02*
X14669833Y-9068036D01*
X14669833Y-9068036D02*
X14669833Y-9073750D01*
X14669833Y-9073750D02*
X14667452Y-9082321D01*
X14667452Y-9082321D02*
X14638881Y-9116607D01*
X14638881Y-9116607D02*
X14669833Y-9116607D01*
X17130857Y-5822107D02*
X17114191Y-5793536D01*
X17102286Y-5822107D02*
X17102286Y-5762107D01*
X17102286Y-5762107D02*
X17121333Y-5762107D01*
X17121333Y-5762107D02*
X17126095Y-5764964D01*
X17126095Y-5764964D02*
X17128476Y-5767821D01*
X17128476Y-5767821D02*
X17130857Y-5773536D01*
X17130857Y-5773536D02*
X17130857Y-5782107D01*
X17130857Y-5782107D02*
X17128476Y-5787821D01*
X17128476Y-5787821D02*
X17126095Y-5790678D01*
X17126095Y-5790678D02*
X17121333Y-5793536D01*
X17121333Y-5793536D02*
X17102286Y-5793536D01*
X17147524Y-5762107D02*
X17178476Y-5762107D01*
X17178476Y-5762107D02*
X17161810Y-5784964D01*
X17161810Y-5784964D02*
X17168952Y-5784964D01*
X17168952Y-5784964D02*
X17173714Y-5787821D01*
X17173714Y-5787821D02*
X17176095Y-5790678D01*
X17176095Y-5790678D02*
X17178476Y-5796393D01*
X17178476Y-5796393D02*
X17178476Y-5810678D01*
X17178476Y-5810678D02*
X17176095Y-5816393D01*
X17176095Y-5816393D02*
X17173714Y-5819250D01*
X17173714Y-5819250D02*
X17168952Y-5822107D01*
X17168952Y-5822107D02*
X17154667Y-5822107D01*
X17154667Y-5822107D02*
X17149905Y-5819250D01*
X17149905Y-5819250D02*
X17147524Y-5816393D01*
X17226095Y-5822107D02*
X17197524Y-5822107D01*
X17211810Y-5822107D02*
X17211810Y-5762107D01*
X17211810Y-5762107D02*
X17207048Y-5770678D01*
X17207048Y-5770678D02*
X17202286Y-5776393D01*
X17202286Y-5776393D02*
X17197524Y-5779250D01*
D17*
X15069538Y-5156833D02*
X15069538Y-5096833D01*
X15069538Y-5096833D02*
X15096205Y-5139690D01*
X15096205Y-5139690D02*
X15122871Y-5096833D01*
X15122871Y-5096833D02*
X15122871Y-5156833D01*
X15160967Y-5156833D02*
X15160967Y-5096833D01*
X15206681Y-5156833D02*
X15172395Y-5122547D01*
X15206681Y-5096833D02*
X15160967Y-5131119D01*
X15282871Y-5156833D02*
X15237157Y-5156833D01*
X15260014Y-5156833D02*
X15260014Y-5096833D01*
X15260014Y-5096833D02*
X15252395Y-5105405D01*
X15252395Y-5105405D02*
X15244776Y-5111119D01*
X15244776Y-5111119D02*
X15237157Y-5113976D01*
D15*
X15682107Y-5668143D02*
X15653536Y-5684809D01*
X15682107Y-5696714D02*
X15622107Y-5696714D01*
X15622107Y-5696714D02*
X15622107Y-5677667D01*
X15622107Y-5677667D02*
X15624964Y-5672905D01*
X15624964Y-5672905D02*
X15627821Y-5670524D01*
X15627821Y-5670524D02*
X15633536Y-5668143D01*
X15633536Y-5668143D02*
X15642107Y-5668143D01*
X15642107Y-5668143D02*
X15647821Y-5670524D01*
X15647821Y-5670524D02*
X15650678Y-5672905D01*
X15650678Y-5672905D02*
X15653536Y-5677667D01*
X15653536Y-5677667D02*
X15653536Y-5696714D01*
X15627821Y-5649095D02*
X15624964Y-5646714D01*
X15624964Y-5646714D02*
X15622107Y-5641952D01*
X15622107Y-5641952D02*
X15622107Y-5630047D01*
X15622107Y-5630047D02*
X15624964Y-5625286D01*
X15624964Y-5625286D02*
X15627821Y-5622905D01*
X15627821Y-5622905D02*
X15633536Y-5620524D01*
X15633536Y-5620524D02*
X15639250Y-5620524D01*
X15639250Y-5620524D02*
X15647821Y-5622905D01*
X15647821Y-5622905D02*
X15682107Y-5651476D01*
X15682107Y-5651476D02*
X15682107Y-5620524D01*
X15647821Y-5591952D02*
X15644964Y-5596714D01*
X15644964Y-5596714D02*
X15642107Y-5599095D01*
X15642107Y-5599095D02*
X15636393Y-5601476D01*
X15636393Y-5601476D02*
X15633536Y-5601476D01*
X15633536Y-5601476D02*
X15627821Y-5599095D01*
X15627821Y-5599095D02*
X15624964Y-5596714D01*
X15624964Y-5596714D02*
X15622107Y-5591952D01*
X15622107Y-5591952D02*
X15622107Y-5582429D01*
X15622107Y-5582429D02*
X15624964Y-5577667D01*
X15624964Y-5577667D02*
X15627821Y-5575286D01*
X15627821Y-5575286D02*
X15633536Y-5572905D01*
X15633536Y-5572905D02*
X15636393Y-5572905D01*
X15636393Y-5572905D02*
X15642107Y-5575286D01*
X15642107Y-5575286D02*
X15644964Y-5577667D01*
X15644964Y-5577667D02*
X15647821Y-5582429D01*
X15647821Y-5582429D02*
X15647821Y-5591952D01*
X15647821Y-5591952D02*
X15650678Y-5596714D01*
X15650678Y-5596714D02*
X15653536Y-5599095D01*
X15653536Y-5599095D02*
X15659250Y-5601476D01*
X15659250Y-5601476D02*
X15670678Y-5601476D01*
X15670678Y-5601476D02*
X15676393Y-5599095D01*
X15676393Y-5599095D02*
X15679250Y-5596714D01*
X15679250Y-5596714D02*
X15682107Y-5591952D01*
X15682107Y-5591952D02*
X15682107Y-5582429D01*
X15682107Y-5582429D02*
X15679250Y-5577667D01*
X15679250Y-5577667D02*
X15676393Y-5575286D01*
X15676393Y-5575286D02*
X15670678Y-5572905D01*
X15670678Y-5572905D02*
X15659250Y-5572905D01*
X15659250Y-5572905D02*
X15653536Y-5575286D01*
X15653536Y-5575286D02*
X15650678Y-5577667D01*
X15650678Y-5577667D02*
X15647821Y-5582429D01*
D16*
X19560548Y-10001920D02*
X19571976Y-10005730D01*
X19571976Y-10005730D02*
X19591024Y-10005730D01*
X19591024Y-10005730D02*
X19598643Y-10001920D01*
X19598643Y-10001920D02*
X19602452Y-9998110D01*
X19602452Y-9998110D02*
X19606262Y-9990491D01*
X19606262Y-9990491D02*
X19606262Y-9982872D01*
X19606262Y-9982872D02*
X19602452Y-9975253D01*
X19602452Y-9975253D02*
X19598643Y-9971444D01*
X19598643Y-9971444D02*
X19591024Y-9967634D01*
X19591024Y-9967634D02*
X19575786Y-9963825D01*
X19575786Y-9963825D02*
X19568167Y-9960015D01*
X19568167Y-9960015D02*
X19564357Y-9956206D01*
X19564357Y-9956206D02*
X19560548Y-9948587D01*
X19560548Y-9948587D02*
X19560548Y-9940968D01*
X19560548Y-9940968D02*
X19564357Y-9933349D01*
X19564357Y-9933349D02*
X19568167Y-9929539D01*
X19568167Y-9929539D02*
X19575786Y-9925730D01*
X19575786Y-9925730D02*
X19594833Y-9925730D01*
X19594833Y-9925730D02*
X19606262Y-9929539D01*
X19682452Y-10005730D02*
X19636738Y-10005730D01*
X19659595Y-10005730D02*
X19659595Y-9925730D01*
X19659595Y-9925730D02*
X19651976Y-9937158D01*
X19651976Y-9937158D02*
X19644357Y-9944777D01*
X19644357Y-9944777D02*
X19636738Y-9948587D01*
D15*
X20621657Y-5814793D02*
X20593086Y-5831459D01*
X20621657Y-5843364D02*
X20561657Y-5843364D01*
X20561657Y-5843364D02*
X20561657Y-5824317D01*
X20561657Y-5824317D02*
X20564514Y-5819555D01*
X20564514Y-5819555D02*
X20567371Y-5817174D01*
X20567371Y-5817174D02*
X20573086Y-5814793D01*
X20573086Y-5814793D02*
X20581657Y-5814793D01*
X20581657Y-5814793D02*
X20587371Y-5817174D01*
X20587371Y-5817174D02*
X20590229Y-5819555D01*
X20590229Y-5819555D02*
X20593086Y-5824317D01*
X20593086Y-5824317D02*
X20593086Y-5843364D01*
X20567371Y-5795745D02*
X20564514Y-5793364D01*
X20564514Y-5793364D02*
X20561657Y-5788602D01*
X20561657Y-5788602D02*
X20561657Y-5776697D01*
X20561657Y-5776697D02*
X20564514Y-5771936D01*
X20564514Y-5771936D02*
X20567371Y-5769555D01*
X20567371Y-5769555D02*
X20573086Y-5767174D01*
X20573086Y-5767174D02*
X20578800Y-5767174D01*
X20578800Y-5767174D02*
X20587371Y-5769555D01*
X20587371Y-5769555D02*
X20621657Y-5798126D01*
X20621657Y-5798126D02*
X20621657Y-5767174D01*
X20561657Y-5736221D02*
X20561657Y-5731459D01*
X20561657Y-5731459D02*
X20564514Y-5726698D01*
X20564514Y-5726698D02*
X20567371Y-5724317D01*
X20567371Y-5724317D02*
X20573086Y-5721936D01*
X20573086Y-5721936D02*
X20584514Y-5719555D01*
X20584514Y-5719555D02*
X20598800Y-5719555D01*
X20598800Y-5719555D02*
X20610229Y-5721936D01*
X20610229Y-5721936D02*
X20615943Y-5724317D01*
X20615943Y-5724317D02*
X20618800Y-5726698D01*
X20618800Y-5726698D02*
X20621657Y-5731459D01*
X20621657Y-5731459D02*
X20621657Y-5736221D01*
X20621657Y-5736221D02*
X20618800Y-5740983D01*
X20618800Y-5740983D02*
X20615943Y-5743364D01*
X20615943Y-5743364D02*
X20610229Y-5745745D01*
X20610229Y-5745745D02*
X20598800Y-5748126D01*
X20598800Y-5748126D02*
X20584514Y-5748126D01*
X20584514Y-5748126D02*
X20573086Y-5745745D01*
X20573086Y-5745745D02*
X20567371Y-5743364D01*
X20567371Y-5743364D02*
X20564514Y-5740983D01*
X20564514Y-5740983D02*
X20561657Y-5736221D01*
X22216857Y-7052157D02*
X22200191Y-7023586D01*
X22188286Y-7052157D02*
X22188286Y-6992157D01*
X22188286Y-6992157D02*
X22207333Y-6992157D01*
X22207333Y-6992157D02*
X22212095Y-6995014D01*
X22212095Y-6995014D02*
X22214476Y-6997871D01*
X22214476Y-6997871D02*
X22216857Y-7003586D01*
X22216857Y-7003586D02*
X22216857Y-7012157D01*
X22216857Y-7012157D02*
X22214476Y-7017871D01*
X22214476Y-7017871D02*
X22212095Y-7020728D01*
X22212095Y-7020728D02*
X22207333Y-7023586D01*
X22207333Y-7023586D02*
X22188286Y-7023586D01*
X22264476Y-7052157D02*
X22235905Y-7052157D01*
X22250191Y-7052157D02*
X22250191Y-6992157D01*
X22250191Y-6992157D02*
X22245429Y-7000728D01*
X22245429Y-7000728D02*
X22240667Y-7006443D01*
X22240667Y-7006443D02*
X22235905Y-7009300D01*
X22288286Y-7052157D02*
X22297810Y-7052157D01*
X22297810Y-7052157D02*
X22302571Y-7049300D01*
X22302571Y-7049300D02*
X22304952Y-7046443D01*
X22304952Y-7046443D02*
X22309714Y-7037871D01*
X22309714Y-7037871D02*
X22312095Y-7026443D01*
X22312095Y-7026443D02*
X22312095Y-7003586D01*
X22312095Y-7003586D02*
X22309714Y-6997871D01*
X22309714Y-6997871D02*
X22307333Y-6995014D01*
X22307333Y-6995014D02*
X22302571Y-6992157D01*
X22302571Y-6992157D02*
X22293048Y-6992157D01*
X22293048Y-6992157D02*
X22288286Y-6995014D01*
X22288286Y-6995014D02*
X22285905Y-6997871D01*
X22285905Y-6997871D02*
X22283524Y-7003586D01*
X22283524Y-7003586D02*
X22283524Y-7017871D01*
X22283524Y-7017871D02*
X22285905Y-7023586D01*
X22285905Y-7023586D02*
X22288286Y-7026443D01*
X22288286Y-7026443D02*
X22293048Y-7029300D01*
X22293048Y-7029300D02*
X22302571Y-7029300D01*
X22302571Y-7029300D02*
X22307333Y-7026443D01*
X22307333Y-7026443D02*
X22309714Y-7023586D01*
X22309714Y-7023586D02*
X22312095Y-7017871D01*
X16002667Y-7378393D02*
X16000286Y-7381250D01*
X16000286Y-7381250D02*
X15993143Y-7384107D01*
X15993143Y-7384107D02*
X15988381Y-7384107D01*
X15988381Y-7384107D02*
X15981238Y-7381250D01*
X15981238Y-7381250D02*
X15976476Y-7375536D01*
X15976476Y-7375536D02*
X15974095Y-7369821D01*
X15974095Y-7369821D02*
X15971714Y-7358393D01*
X15971714Y-7358393D02*
X15971714Y-7349821D01*
X15971714Y-7349821D02*
X15974095Y-7338393D01*
X15974095Y-7338393D02*
X15976476Y-7332678D01*
X15976476Y-7332678D02*
X15981238Y-7326964D01*
X15981238Y-7326964D02*
X15988381Y-7324107D01*
X15988381Y-7324107D02*
X15993143Y-7324107D01*
X15993143Y-7324107D02*
X16000286Y-7326964D01*
X16000286Y-7326964D02*
X16002667Y-7329821D01*
X16019333Y-7324107D02*
X16050286Y-7324107D01*
X16050286Y-7324107D02*
X16033619Y-7346964D01*
X16033619Y-7346964D02*
X16040762Y-7346964D01*
X16040762Y-7346964D02*
X16045524Y-7349821D01*
X16045524Y-7349821D02*
X16047905Y-7352678D01*
X16047905Y-7352678D02*
X16050286Y-7358393D01*
X16050286Y-7358393D02*
X16050286Y-7372678D01*
X16050286Y-7372678D02*
X16047905Y-7378393D01*
X16047905Y-7378393D02*
X16045524Y-7381250D01*
X16045524Y-7381250D02*
X16040762Y-7384107D01*
X16040762Y-7384107D02*
X16026476Y-7384107D01*
X16026476Y-7384107D02*
X16021714Y-7381250D01*
X16021714Y-7381250D02*
X16019333Y-7378393D01*
D16*
X18417548Y-10001920D02*
X18428976Y-10005730D01*
X18428976Y-10005730D02*
X18448024Y-10005730D01*
X18448024Y-10005730D02*
X18455643Y-10001920D01*
X18455643Y-10001920D02*
X18459452Y-9998110D01*
X18459452Y-9998110D02*
X18463262Y-9990491D01*
X18463262Y-9990491D02*
X18463262Y-9982872D01*
X18463262Y-9982872D02*
X18459452Y-9975253D01*
X18459452Y-9975253D02*
X18455643Y-9971444D01*
X18455643Y-9971444D02*
X18448024Y-9967634D01*
X18448024Y-9967634D02*
X18432786Y-9963825D01*
X18432786Y-9963825D02*
X18425167Y-9960015D01*
X18425167Y-9960015D02*
X18421357Y-9956206D01*
X18421357Y-9956206D02*
X18417548Y-9948587D01*
X18417548Y-9948587D02*
X18417548Y-9940968D01*
X18417548Y-9940968D02*
X18421357Y-9933349D01*
X18421357Y-9933349D02*
X18425167Y-9929539D01*
X18425167Y-9929539D02*
X18432786Y-9925730D01*
X18432786Y-9925730D02*
X18451833Y-9925730D01*
X18451833Y-9925730D02*
X18463262Y-9929539D01*
X18493738Y-9933349D02*
X18497548Y-9929539D01*
X18497548Y-9929539D02*
X18505167Y-9925730D01*
X18505167Y-9925730D02*
X18524214Y-9925730D01*
X18524214Y-9925730D02*
X18531833Y-9929539D01*
X18531833Y-9929539D02*
X18535643Y-9933349D01*
X18535643Y-9933349D02*
X18539452Y-9940968D01*
X18539452Y-9940968D02*
X18539452Y-9948587D01*
X18539452Y-9948587D02*
X18535643Y-9960015D01*
X18535643Y-9960015D02*
X18489929Y-10005730D01*
X18489929Y-10005730D02*
X18539452Y-10005730D01*
D15*
X14673667Y-8535107D02*
X14657000Y-8506536D01*
X14645095Y-8535107D02*
X14645095Y-8475107D01*
X14645095Y-8475107D02*
X14664143Y-8475107D01*
X14664143Y-8475107D02*
X14668905Y-8477964D01*
X14668905Y-8477964D02*
X14671286Y-8480821D01*
X14671286Y-8480821D02*
X14673667Y-8486536D01*
X14673667Y-8486536D02*
X14673667Y-8495107D01*
X14673667Y-8495107D02*
X14671286Y-8500821D01*
X14671286Y-8500821D02*
X14668905Y-8503679D01*
X14668905Y-8503679D02*
X14664143Y-8506536D01*
X14664143Y-8506536D02*
X14645095Y-8506536D01*
X14702238Y-8500821D02*
X14697476Y-8497964D01*
X14697476Y-8497964D02*
X14695095Y-8495107D01*
X14695095Y-8495107D02*
X14692714Y-8489393D01*
X14692714Y-8489393D02*
X14692714Y-8486536D01*
X14692714Y-8486536D02*
X14695095Y-8480821D01*
X14695095Y-8480821D02*
X14697476Y-8477964D01*
X14697476Y-8477964D02*
X14702238Y-8475107D01*
X14702238Y-8475107D02*
X14711762Y-8475107D01*
X14711762Y-8475107D02*
X14716524Y-8477964D01*
X14716524Y-8477964D02*
X14718905Y-8480821D01*
X14718905Y-8480821D02*
X14721286Y-8486536D01*
X14721286Y-8486536D02*
X14721286Y-8489393D01*
X14721286Y-8489393D02*
X14718905Y-8495107D01*
X14718905Y-8495107D02*
X14716524Y-8497964D01*
X14716524Y-8497964D02*
X14711762Y-8500821D01*
X14711762Y-8500821D02*
X14702238Y-8500821D01*
X14702238Y-8500821D02*
X14697476Y-8503679D01*
X14697476Y-8503679D02*
X14695095Y-8506536D01*
X14695095Y-8506536D02*
X14692714Y-8512250D01*
X14692714Y-8512250D02*
X14692714Y-8523679D01*
X14692714Y-8523679D02*
X14695095Y-8529393D01*
X14695095Y-8529393D02*
X14697476Y-8532250D01*
X14697476Y-8532250D02*
X14702238Y-8535107D01*
X14702238Y-8535107D02*
X14711762Y-8535107D01*
X14711762Y-8535107D02*
X14716524Y-8532250D01*
X14716524Y-8532250D02*
X14718905Y-8529393D01*
X14718905Y-8529393D02*
X14721286Y-8523679D01*
X14721286Y-8523679D02*
X14721286Y-8512250D01*
X14721286Y-8512250D02*
X14718905Y-8506536D01*
X14718905Y-8506536D02*
X14716524Y-8503679D01*
X14716524Y-8503679D02*
X14711762Y-8500821D01*
X14320667Y-8542107D02*
X14304000Y-8513536D01*
X14292095Y-8542107D02*
X14292095Y-8482107D01*
X14292095Y-8482107D02*
X14311143Y-8482107D01*
X14311143Y-8482107D02*
X14315905Y-8484964D01*
X14315905Y-8484964D02*
X14318286Y-8487821D01*
X14318286Y-8487821D02*
X14320667Y-8493536D01*
X14320667Y-8493536D02*
X14320667Y-8502107D01*
X14320667Y-8502107D02*
X14318286Y-8507821D01*
X14318286Y-8507821D02*
X14315905Y-8510679D01*
X14315905Y-8510679D02*
X14311143Y-8513536D01*
X14311143Y-8513536D02*
X14292095Y-8513536D01*
X14344476Y-8542107D02*
X14354000Y-8542107D01*
X14354000Y-8542107D02*
X14358762Y-8539250D01*
X14358762Y-8539250D02*
X14361143Y-8536393D01*
X14361143Y-8536393D02*
X14365905Y-8527821D01*
X14365905Y-8527821D02*
X14368286Y-8516393D01*
X14368286Y-8516393D02*
X14368286Y-8493536D01*
X14368286Y-8493536D02*
X14365905Y-8487821D01*
X14365905Y-8487821D02*
X14363524Y-8484964D01*
X14363524Y-8484964D02*
X14358762Y-8482107D01*
X14358762Y-8482107D02*
X14349238Y-8482107D01*
X14349238Y-8482107D02*
X14344476Y-8484964D01*
X14344476Y-8484964D02*
X14342095Y-8487821D01*
X14342095Y-8487821D02*
X14339714Y-8493536D01*
X14339714Y-8493536D02*
X14339714Y-8507821D01*
X14339714Y-8507821D02*
X14342095Y-8513536D01*
X14342095Y-8513536D02*
X14344476Y-8516393D01*
X14344476Y-8516393D02*
X14349238Y-8519250D01*
X14349238Y-8519250D02*
X14358762Y-8519250D01*
X14358762Y-8519250D02*
X14363524Y-8516393D01*
X14363524Y-8516393D02*
X14365905Y-8513536D01*
X14365905Y-8513536D02*
X14368286Y-8507821D01*
X17817480Y-6173106D02*
X17812718Y-6170248D01*
X17812718Y-6170248D02*
X17807956Y-6164534D01*
X17807956Y-6164534D02*
X17800813Y-6155963D01*
X17800813Y-6155963D02*
X17796051Y-6153106D01*
X17796051Y-6153106D02*
X17791289Y-6153106D01*
X17793670Y-6167391D02*
X17788908Y-6164534D01*
X17788908Y-6164534D02*
X17784146Y-6158820D01*
X17784146Y-6158820D02*
X17781766Y-6147391D01*
X17781766Y-6147391D02*
X17781766Y-6127391D01*
X17781766Y-6127391D02*
X17784146Y-6115963D01*
X17784146Y-6115963D02*
X17788908Y-6110248D01*
X17788908Y-6110248D02*
X17793670Y-6107391D01*
X17793670Y-6107391D02*
X17803194Y-6107391D01*
X17803194Y-6107391D02*
X17807956Y-6110248D01*
X17807956Y-6110248D02*
X17812718Y-6115963D01*
X17812718Y-6115963D02*
X17815099Y-6127391D01*
X17815099Y-6127391D02*
X17815099Y-6147391D01*
X17815099Y-6147391D02*
X17812718Y-6158820D01*
X17812718Y-6158820D02*
X17807956Y-6164534D01*
X17807956Y-6164534D02*
X17803194Y-6167391D01*
X17803194Y-6167391D02*
X17793670Y-6167391D01*
X17862718Y-6167391D02*
X17834147Y-6167391D01*
X17848432Y-6167391D02*
X17848432Y-6107391D01*
X17848432Y-6107391D02*
X17843670Y-6115963D01*
X17843670Y-6115963D02*
X17838908Y-6121677D01*
X17838908Y-6121677D02*
X17834147Y-6124534D01*
X16176107Y-5453143D02*
X16147536Y-5469809D01*
X16176107Y-5481714D02*
X16116107Y-5481714D01*
X16116107Y-5481714D02*
X16116107Y-5462667D01*
X16116107Y-5462667D02*
X16118964Y-5457905D01*
X16118964Y-5457905D02*
X16121821Y-5455524D01*
X16121821Y-5455524D02*
X16127536Y-5453143D01*
X16127536Y-5453143D02*
X16136107Y-5453143D01*
X16136107Y-5453143D02*
X16141821Y-5455524D01*
X16141821Y-5455524D02*
X16144678Y-5457905D01*
X16144678Y-5457905D02*
X16147536Y-5462667D01*
X16147536Y-5462667D02*
X16147536Y-5481714D01*
X16116107Y-5436476D02*
X16116107Y-5405524D01*
X16116107Y-5405524D02*
X16138964Y-5422190D01*
X16138964Y-5422190D02*
X16138964Y-5415048D01*
X16138964Y-5415048D02*
X16141821Y-5410286D01*
X16141821Y-5410286D02*
X16144678Y-5407905D01*
X16144678Y-5407905D02*
X16150393Y-5405524D01*
X16150393Y-5405524D02*
X16164678Y-5405524D01*
X16164678Y-5405524D02*
X16170393Y-5407905D01*
X16170393Y-5407905D02*
X16173250Y-5410286D01*
X16173250Y-5410286D02*
X16176107Y-5415048D01*
X16176107Y-5415048D02*
X16176107Y-5429333D01*
X16176107Y-5429333D02*
X16173250Y-5434095D01*
X16173250Y-5434095D02*
X16170393Y-5436476D01*
X16116107Y-5374571D02*
X16116107Y-5369810D01*
X16116107Y-5369810D02*
X16118964Y-5365048D01*
X16118964Y-5365048D02*
X16121821Y-5362667D01*
X16121821Y-5362667D02*
X16127536Y-5360286D01*
X16127536Y-5360286D02*
X16138964Y-5357905D01*
X16138964Y-5357905D02*
X16153250Y-5357905D01*
X16153250Y-5357905D02*
X16164678Y-5360286D01*
X16164678Y-5360286D02*
X16170393Y-5362667D01*
X16170393Y-5362667D02*
X16173250Y-5365048D01*
X16173250Y-5365048D02*
X16176107Y-5369810D01*
X16176107Y-5369810D02*
X16176107Y-5374571D01*
X16176107Y-5374571D02*
X16173250Y-5379333D01*
X16173250Y-5379333D02*
X16170393Y-5381714D01*
X16170393Y-5381714D02*
X16164678Y-5384095D01*
X16164678Y-5384095D02*
X16153250Y-5386476D01*
X16153250Y-5386476D02*
X16138964Y-5386476D01*
X16138964Y-5386476D02*
X16127536Y-5384095D01*
X16127536Y-5384095D02*
X16121821Y-5381714D01*
X16121821Y-5381714D02*
X16118964Y-5379333D01*
X16118964Y-5379333D02*
X16116107Y-5374571D01*
X14745667Y-6819393D02*
X14743286Y-6822250D01*
X14743286Y-6822250D02*
X14736143Y-6825107D01*
X14736143Y-6825107D02*
X14731381Y-6825107D01*
X14731381Y-6825107D02*
X14724238Y-6822250D01*
X14724238Y-6822250D02*
X14719476Y-6816536D01*
X14719476Y-6816536D02*
X14717095Y-6810821D01*
X14717095Y-6810821D02*
X14714714Y-6799393D01*
X14714714Y-6799393D02*
X14714714Y-6790821D01*
X14714714Y-6790821D02*
X14717095Y-6779393D01*
X14717095Y-6779393D02*
X14719476Y-6773678D01*
X14719476Y-6773678D02*
X14724238Y-6767964D01*
X14724238Y-6767964D02*
X14731381Y-6765107D01*
X14731381Y-6765107D02*
X14736143Y-6765107D01*
X14736143Y-6765107D02*
X14743286Y-6767964D01*
X14743286Y-6767964D02*
X14745667Y-6770821D01*
X14790905Y-6765107D02*
X14767095Y-6765107D01*
X14767095Y-6765107D02*
X14764714Y-6793678D01*
X14764714Y-6793678D02*
X14767095Y-6790821D01*
X14767095Y-6790821D02*
X14771857Y-6787964D01*
X14771857Y-6787964D02*
X14783762Y-6787964D01*
X14783762Y-6787964D02*
X14788524Y-6790821D01*
X14788524Y-6790821D02*
X14790905Y-6793678D01*
X14790905Y-6793678D02*
X14793286Y-6799393D01*
X14793286Y-6799393D02*
X14793286Y-6813678D01*
X14793286Y-6813678D02*
X14790905Y-6819393D01*
X14790905Y-6819393D02*
X14788524Y-6822250D01*
X14788524Y-6822250D02*
X14783762Y-6825107D01*
X14783762Y-6825107D02*
X14771857Y-6825107D01*
X14771857Y-6825107D02*
X14767095Y-6822250D01*
X14767095Y-6822250D02*
X14764714Y-6819393D01*
X15850857Y-5223393D02*
X15848476Y-5226250D01*
X15848476Y-5226250D02*
X15841333Y-5229107D01*
X15841333Y-5229107D02*
X15836571Y-5229107D01*
X15836571Y-5229107D02*
X15829429Y-5226250D01*
X15829429Y-5226250D02*
X15824667Y-5220536D01*
X15824667Y-5220536D02*
X15822286Y-5214821D01*
X15822286Y-5214821D02*
X15819905Y-5203393D01*
X15819905Y-5203393D02*
X15819905Y-5194821D01*
X15819905Y-5194821D02*
X15822286Y-5183393D01*
X15822286Y-5183393D02*
X15824667Y-5177679D01*
X15824667Y-5177679D02*
X15829429Y-5171964D01*
X15829429Y-5171964D02*
X15836571Y-5169107D01*
X15836571Y-5169107D02*
X15841333Y-5169107D01*
X15841333Y-5169107D02*
X15848476Y-5171964D01*
X15848476Y-5171964D02*
X15850857Y-5174821D01*
X15898476Y-5229107D02*
X15869905Y-5229107D01*
X15884190Y-5229107D02*
X15884190Y-5169107D01*
X15884190Y-5169107D02*
X15879429Y-5177679D01*
X15879429Y-5177679D02*
X15874667Y-5183393D01*
X15874667Y-5183393D02*
X15869905Y-5186250D01*
X15941333Y-5169107D02*
X15931809Y-5169107D01*
X15931809Y-5169107D02*
X15927048Y-5171964D01*
X15927048Y-5171964D02*
X15924667Y-5174821D01*
X15924667Y-5174821D02*
X15919905Y-5183393D01*
X15919905Y-5183393D02*
X15917524Y-5194821D01*
X15917524Y-5194821D02*
X15917524Y-5217679D01*
X15917524Y-5217679D02*
X15919905Y-5223393D01*
X15919905Y-5223393D02*
X15922286Y-5226250D01*
X15922286Y-5226250D02*
X15927048Y-5229107D01*
X15927048Y-5229107D02*
X15936571Y-5229107D01*
X15936571Y-5229107D02*
X15941333Y-5226250D01*
X15941333Y-5226250D02*
X15943714Y-5223393D01*
X15943714Y-5223393D02*
X15946095Y-5217679D01*
X15946095Y-5217679D02*
X15946095Y-5203393D01*
X15946095Y-5203393D02*
X15943714Y-5197679D01*
X15943714Y-5197679D02*
X15941333Y-5194821D01*
X15941333Y-5194821D02*
X15936571Y-5191964D01*
X15936571Y-5191964D02*
X15927048Y-5191964D01*
X15927048Y-5191964D02*
X15922286Y-5194821D01*
X15922286Y-5194821D02*
X15919905Y-5197679D01*
X15919905Y-5197679D02*
X15917524Y-5203393D01*
X18460257Y-9057807D02*
X18443591Y-9029236D01*
X18431686Y-9057807D02*
X18431686Y-8997807D01*
X18431686Y-8997807D02*
X18450733Y-8997807D01*
X18450733Y-8997807D02*
X18455495Y-9000664D01*
X18455495Y-9000664D02*
X18457876Y-9003521D01*
X18457876Y-9003521D02*
X18460257Y-9009236D01*
X18460257Y-9009236D02*
X18460257Y-9017807D01*
X18460257Y-9017807D02*
X18457876Y-9023521D01*
X18457876Y-9023521D02*
X18455495Y-9026379D01*
X18455495Y-9026379D02*
X18450733Y-9029236D01*
X18450733Y-9029236D02*
X18431686Y-9029236D01*
X18476924Y-8997807D02*
X18507876Y-8997807D01*
X18507876Y-8997807D02*
X18491210Y-9020664D01*
X18491210Y-9020664D02*
X18498352Y-9020664D01*
X18498352Y-9020664D02*
X18503114Y-9023521D01*
X18503114Y-9023521D02*
X18505495Y-9026379D01*
X18505495Y-9026379D02*
X18507876Y-9032093D01*
X18507876Y-9032093D02*
X18507876Y-9046379D01*
X18507876Y-9046379D02*
X18505495Y-9052093D01*
X18505495Y-9052093D02*
X18503114Y-9054950D01*
X18503114Y-9054950D02*
X18498352Y-9057807D01*
X18498352Y-9057807D02*
X18484067Y-9057807D01*
X18484067Y-9057807D02*
X18479305Y-9054950D01*
X18479305Y-9054950D02*
X18476924Y-9052093D01*
X18524543Y-8997807D02*
X18555495Y-8997807D01*
X18555495Y-8997807D02*
X18538829Y-9020664D01*
X18538829Y-9020664D02*
X18545971Y-9020664D01*
X18545971Y-9020664D02*
X18550733Y-9023521D01*
X18550733Y-9023521D02*
X18553114Y-9026379D01*
X18553114Y-9026379D02*
X18555495Y-9032093D01*
X18555495Y-9032093D02*
X18555495Y-9046379D01*
X18555495Y-9046379D02*
X18553114Y-9052093D01*
X18553114Y-9052093D02*
X18550733Y-9054950D01*
X18550733Y-9054950D02*
X18545971Y-9057807D01*
X18545971Y-9057807D02*
X18531686Y-9057807D01*
X18531686Y-9057807D02*
X18526924Y-9054950D01*
X18526924Y-9054950D02*
X18524543Y-9052093D01*
X16162393Y-5161143D02*
X16165250Y-5163524D01*
X16165250Y-5163524D02*
X16168107Y-5170667D01*
X16168107Y-5170667D02*
X16168107Y-5175429D01*
X16168107Y-5175429D02*
X16165250Y-5182571D01*
X16165250Y-5182571D02*
X16159536Y-5187333D01*
X16159536Y-5187333D02*
X16153821Y-5189714D01*
X16153821Y-5189714D02*
X16142393Y-5192095D01*
X16142393Y-5192095D02*
X16133821Y-5192095D01*
X16133821Y-5192095D02*
X16122393Y-5189714D01*
X16122393Y-5189714D02*
X16116678Y-5187333D01*
X16116678Y-5187333D02*
X16110964Y-5182571D01*
X16110964Y-5182571D02*
X16108107Y-5175429D01*
X16108107Y-5175429D02*
X16108107Y-5170667D01*
X16108107Y-5170667D02*
X16110964Y-5163524D01*
X16110964Y-5163524D02*
X16113821Y-5161143D01*
X16168107Y-5113524D02*
X16168107Y-5142095D01*
X16168107Y-5127809D02*
X16108107Y-5127809D01*
X16108107Y-5127809D02*
X16116678Y-5132571D01*
X16116678Y-5132571D02*
X16122393Y-5137333D01*
X16122393Y-5137333D02*
X16125250Y-5142095D01*
X16168107Y-5089714D02*
X16168107Y-5080190D01*
X16168107Y-5080190D02*
X16165250Y-5075429D01*
X16165250Y-5075429D02*
X16162393Y-5073048D01*
X16162393Y-5073048D02*
X16153821Y-5068286D01*
X16153821Y-5068286D02*
X16142393Y-5065905D01*
X16142393Y-5065905D02*
X16119536Y-5065905D01*
X16119536Y-5065905D02*
X16113821Y-5068286D01*
X16113821Y-5068286D02*
X16110964Y-5070667D01*
X16110964Y-5070667D02*
X16108107Y-5075429D01*
X16108107Y-5075429D02*
X16108107Y-5084952D01*
X16108107Y-5084952D02*
X16110964Y-5089714D01*
X16110964Y-5089714D02*
X16113821Y-5092095D01*
X16113821Y-5092095D02*
X16119536Y-5094476D01*
X16119536Y-5094476D02*
X16133821Y-5094476D01*
X16133821Y-5094476D02*
X16139536Y-5092095D01*
X16139536Y-5092095D02*
X16142393Y-5089714D01*
X16142393Y-5089714D02*
X16145250Y-5084952D01*
X16145250Y-5084952D02*
X16145250Y-5075429D01*
X16145250Y-5075429D02*
X16142393Y-5070667D01*
X16142393Y-5070667D02*
X16139536Y-5068286D01*
X16139536Y-5068286D02*
X16133821Y-5065905D01*
X18326107Y-4488667D02*
X18368964Y-4488667D01*
X18368964Y-4488667D02*
X18377536Y-4491048D01*
X18377536Y-4491048D02*
X18383250Y-4495809D01*
X18383250Y-4495809D02*
X18386107Y-4502952D01*
X18386107Y-4502952D02*
X18386107Y-4507714D01*
X18346107Y-4443429D02*
X18386107Y-4443429D01*
X18323250Y-4455333D02*
X18366107Y-4467238D01*
X18366107Y-4467238D02*
X18366107Y-4436286D01*
X21087117Y-5266843D02*
X21084736Y-5269700D01*
X21084736Y-5269700D02*
X21077593Y-5272557D01*
X21077593Y-5272557D02*
X21072831Y-5272557D01*
X21072831Y-5272557D02*
X21065688Y-5269700D01*
X21065688Y-5269700D02*
X21060926Y-5263986D01*
X21060926Y-5263986D02*
X21058545Y-5258271D01*
X21058545Y-5258271D02*
X21056164Y-5246843D01*
X21056164Y-5246843D02*
X21056164Y-5238271D01*
X21056164Y-5238271D02*
X21058545Y-5226843D01*
X21058545Y-5226843D02*
X21060926Y-5221129D01*
X21060926Y-5221129D02*
X21065688Y-5215414D01*
X21065688Y-5215414D02*
X21072831Y-5212557D01*
X21072831Y-5212557D02*
X21077593Y-5212557D01*
X21077593Y-5212557D02*
X21084736Y-5215414D01*
X21084736Y-5215414D02*
X21087117Y-5218271D01*
X21115688Y-5238271D02*
X21110926Y-5235414D01*
X21110926Y-5235414D02*
X21108545Y-5232557D01*
X21108545Y-5232557D02*
X21106164Y-5226843D01*
X21106164Y-5226843D02*
X21106164Y-5223986D01*
X21106164Y-5223986D02*
X21108545Y-5218271D01*
X21108545Y-5218271D02*
X21110926Y-5215414D01*
X21110926Y-5215414D02*
X21115688Y-5212557D01*
X21115688Y-5212557D02*
X21125212Y-5212557D01*
X21125212Y-5212557D02*
X21129974Y-5215414D01*
X21129974Y-5215414D02*
X21132355Y-5218271D01*
X21132355Y-5218271D02*
X21134736Y-5223986D01*
X21134736Y-5223986D02*
X21134736Y-5226843D01*
X21134736Y-5226843D02*
X21132355Y-5232557D01*
X21132355Y-5232557D02*
X21129974Y-5235414D01*
X21129974Y-5235414D02*
X21125212Y-5238271D01*
X21125212Y-5238271D02*
X21115688Y-5238271D01*
X21115688Y-5238271D02*
X21110926Y-5241129D01*
X21110926Y-5241129D02*
X21108545Y-5243986D01*
X21108545Y-5243986D02*
X21106164Y-5249700D01*
X21106164Y-5249700D02*
X21106164Y-5261129D01*
X21106164Y-5261129D02*
X21108545Y-5266843D01*
X21108545Y-5266843D02*
X21110926Y-5269700D01*
X21110926Y-5269700D02*
X21115688Y-5272557D01*
X21115688Y-5272557D02*
X21125212Y-5272557D01*
X21125212Y-5272557D02*
X21129974Y-5269700D01*
X21129974Y-5269700D02*
X21132355Y-5266843D01*
X21132355Y-5266843D02*
X21134736Y-5261129D01*
X21134736Y-5261129D02*
X21134736Y-5249700D01*
X21134736Y-5249700D02*
X21132355Y-5243986D01*
X21132355Y-5243986D02*
X21129974Y-5241129D01*
X21129974Y-5241129D02*
X21125212Y-5238271D01*
X19553707Y-4939707D02*
X19537041Y-4911136D01*
X19525136Y-4939707D02*
X19525136Y-4879707D01*
X19525136Y-4879707D02*
X19544183Y-4879707D01*
X19544183Y-4879707D02*
X19548945Y-4882564D01*
X19548945Y-4882564D02*
X19551326Y-4885421D01*
X19551326Y-4885421D02*
X19553707Y-4891136D01*
X19553707Y-4891136D02*
X19553707Y-4899707D01*
X19553707Y-4899707D02*
X19551326Y-4905421D01*
X19551326Y-4905421D02*
X19548945Y-4908279D01*
X19548945Y-4908279D02*
X19544183Y-4911136D01*
X19544183Y-4911136D02*
X19525136Y-4911136D01*
X19572755Y-4885421D02*
X19575136Y-4882564D01*
X19575136Y-4882564D02*
X19579898Y-4879707D01*
X19579898Y-4879707D02*
X19591802Y-4879707D01*
X19591802Y-4879707D02*
X19596564Y-4882564D01*
X19596564Y-4882564D02*
X19598945Y-4885421D01*
X19598945Y-4885421D02*
X19601326Y-4891136D01*
X19601326Y-4891136D02*
X19601326Y-4896850D01*
X19601326Y-4896850D02*
X19598945Y-4905421D01*
X19598945Y-4905421D02*
X19570374Y-4939707D01*
X19570374Y-4939707D02*
X19601326Y-4939707D01*
X19646564Y-4879707D02*
X19622755Y-4879707D01*
X19622755Y-4879707D02*
X19620374Y-4908279D01*
X19620374Y-4908279D02*
X19622755Y-4905421D01*
X19622755Y-4905421D02*
X19627517Y-4902564D01*
X19627517Y-4902564D02*
X19639421Y-4902564D01*
X19639421Y-4902564D02*
X19644183Y-4905421D01*
X19644183Y-4905421D02*
X19646564Y-4908279D01*
X19646564Y-4908279D02*
X19648945Y-4913993D01*
X19648945Y-4913993D02*
X19648945Y-4928279D01*
X19648945Y-4928279D02*
X19646564Y-4933993D01*
X19646564Y-4933993D02*
X19644183Y-4936850D01*
X19644183Y-4936850D02*
X19639421Y-4939707D01*
X19639421Y-4939707D02*
X19627517Y-4939707D01*
X19627517Y-4939707D02*
X19622755Y-4936850D01*
X19622755Y-4936850D02*
X19620374Y-4933993D01*
X16773857Y-5103107D02*
X16757190Y-5074536D01*
X16745286Y-5103107D02*
X16745286Y-5043107D01*
X16745286Y-5043107D02*
X16764333Y-5043107D01*
X16764333Y-5043107D02*
X16769095Y-5045964D01*
X16769095Y-5045964D02*
X16771476Y-5048821D01*
X16771476Y-5048821D02*
X16773857Y-5054536D01*
X16773857Y-5054536D02*
X16773857Y-5063107D01*
X16773857Y-5063107D02*
X16771476Y-5068821D01*
X16771476Y-5068821D02*
X16769095Y-5071679D01*
X16769095Y-5071679D02*
X16764333Y-5074536D01*
X16764333Y-5074536D02*
X16745286Y-5074536D01*
X16792905Y-5048821D02*
X16795286Y-5045964D01*
X16795286Y-5045964D02*
X16800048Y-5043107D01*
X16800048Y-5043107D02*
X16811952Y-5043107D01*
X16811952Y-5043107D02*
X16816714Y-5045964D01*
X16816714Y-5045964D02*
X16819095Y-5048821D01*
X16819095Y-5048821D02*
X16821476Y-5054536D01*
X16821476Y-5054536D02*
X16821476Y-5060250D01*
X16821476Y-5060250D02*
X16819095Y-5068821D01*
X16819095Y-5068821D02*
X16790524Y-5103107D01*
X16790524Y-5103107D02*
X16821476Y-5103107D01*
X16864333Y-5043107D02*
X16854810Y-5043107D01*
X16854810Y-5043107D02*
X16850048Y-5045964D01*
X16850048Y-5045964D02*
X16847667Y-5048821D01*
X16847667Y-5048821D02*
X16842905Y-5057393D01*
X16842905Y-5057393D02*
X16840524Y-5068821D01*
X16840524Y-5068821D02*
X16840524Y-5091679D01*
X16840524Y-5091679D02*
X16842905Y-5097393D01*
X16842905Y-5097393D02*
X16845286Y-5100250D01*
X16845286Y-5100250D02*
X16850048Y-5103107D01*
X16850048Y-5103107D02*
X16859571Y-5103107D01*
X16859571Y-5103107D02*
X16864333Y-5100250D01*
X16864333Y-5100250D02*
X16866714Y-5097393D01*
X16866714Y-5097393D02*
X16869095Y-5091679D01*
X16869095Y-5091679D02*
X16869095Y-5077393D01*
X16869095Y-5077393D02*
X16866714Y-5071679D01*
X16866714Y-5071679D02*
X16864333Y-5068821D01*
X16864333Y-5068821D02*
X16859571Y-5065964D01*
X16859571Y-5065964D02*
X16850048Y-5065964D01*
X16850048Y-5065964D02*
X16845286Y-5068821D01*
X16845286Y-5068821D02*
X16842905Y-5071679D01*
X16842905Y-5071679D02*
X16840524Y-5077393D01*
X15706705Y-9617247D02*
X15706705Y-9665819D01*
X15706705Y-9665819D02*
X15709086Y-9671533D01*
X15709086Y-9671533D02*
X15711467Y-9674390D01*
X15711467Y-9674390D02*
X15716228Y-9677247D01*
X15716228Y-9677247D02*
X15725752Y-9677247D01*
X15725752Y-9677247D02*
X15730514Y-9674390D01*
X15730514Y-9674390D02*
X15732895Y-9671533D01*
X15732895Y-9671533D02*
X15735276Y-9665819D01*
X15735276Y-9665819D02*
X15735276Y-9617247D01*
X15785276Y-9677247D02*
X15756705Y-9677247D01*
X15770990Y-9677247D02*
X15770990Y-9617247D01*
X15770990Y-9617247D02*
X15766229Y-9625819D01*
X15766229Y-9625819D02*
X15761467Y-9631533D01*
X15761467Y-9631533D02*
X15756705Y-9634390D01*
X16350857Y-7748707D02*
X16334190Y-7720136D01*
X16322286Y-7748707D02*
X16322286Y-7688707D01*
X16322286Y-7688707D02*
X16341333Y-7688707D01*
X16341333Y-7688707D02*
X16346095Y-7691564D01*
X16346095Y-7691564D02*
X16348476Y-7694421D01*
X16348476Y-7694421D02*
X16350857Y-7700136D01*
X16350857Y-7700136D02*
X16350857Y-7708707D01*
X16350857Y-7708707D02*
X16348476Y-7714421D01*
X16348476Y-7714421D02*
X16346095Y-7717278D01*
X16346095Y-7717278D02*
X16341333Y-7720136D01*
X16341333Y-7720136D02*
X16322286Y-7720136D01*
X16398476Y-7748707D02*
X16369905Y-7748707D01*
X16384190Y-7748707D02*
X16384190Y-7688707D01*
X16384190Y-7688707D02*
X16379429Y-7697278D01*
X16379429Y-7697278D02*
X16374667Y-7702993D01*
X16374667Y-7702993D02*
X16369905Y-7705850D01*
X16427048Y-7714421D02*
X16422286Y-7711564D01*
X16422286Y-7711564D02*
X16419905Y-7708707D01*
X16419905Y-7708707D02*
X16417524Y-7702993D01*
X16417524Y-7702993D02*
X16417524Y-7700136D01*
X16417524Y-7700136D02*
X16419905Y-7694421D01*
X16419905Y-7694421D02*
X16422286Y-7691564D01*
X16422286Y-7691564D02*
X16427048Y-7688707D01*
X16427048Y-7688707D02*
X16436571Y-7688707D01*
X16436571Y-7688707D02*
X16441333Y-7691564D01*
X16441333Y-7691564D02*
X16443714Y-7694421D01*
X16443714Y-7694421D02*
X16446095Y-7700136D01*
X16446095Y-7700136D02*
X16446095Y-7702993D01*
X16446095Y-7702993D02*
X16443714Y-7708707D01*
X16443714Y-7708707D02*
X16441333Y-7711564D01*
X16441333Y-7711564D02*
X16436571Y-7714421D01*
X16436571Y-7714421D02*
X16427048Y-7714421D01*
X16427048Y-7714421D02*
X16422286Y-7717278D01*
X16422286Y-7717278D02*
X16419905Y-7720136D01*
X16419905Y-7720136D02*
X16417524Y-7725850D01*
X16417524Y-7725850D02*
X16417524Y-7737278D01*
X16417524Y-7737278D02*
X16419905Y-7742993D01*
X16419905Y-7742993D02*
X16422286Y-7745850D01*
X16422286Y-7745850D02*
X16427048Y-7748707D01*
X16427048Y-7748707D02*
X16436571Y-7748707D01*
X16436571Y-7748707D02*
X16441333Y-7745850D01*
X16441333Y-7745850D02*
X16443714Y-7742993D01*
X16443714Y-7742993D02*
X16446095Y-7737278D01*
X16446095Y-7737278D02*
X16446095Y-7725850D01*
X16446095Y-7725850D02*
X16443714Y-7720136D01*
X16443714Y-7720136D02*
X16441333Y-7717278D01*
X16441333Y-7717278D02*
X16436571Y-7714421D01*
X18525667Y-7146093D02*
X18523286Y-7148950D01*
X18523286Y-7148950D02*
X18516143Y-7151807D01*
X18516143Y-7151807D02*
X18511381Y-7151807D01*
X18511381Y-7151807D02*
X18504238Y-7148950D01*
X18504238Y-7148950D02*
X18499476Y-7143236D01*
X18499476Y-7143236D02*
X18497095Y-7137521D01*
X18497095Y-7137521D02*
X18494714Y-7126093D01*
X18494714Y-7126093D02*
X18494714Y-7117521D01*
X18494714Y-7117521D02*
X18497095Y-7106093D01*
X18497095Y-7106093D02*
X18499476Y-7100378D01*
X18499476Y-7100378D02*
X18504238Y-7094664D01*
X18504238Y-7094664D02*
X18511381Y-7091807D01*
X18511381Y-7091807D02*
X18516143Y-7091807D01*
X18516143Y-7091807D02*
X18523286Y-7094664D01*
X18523286Y-7094664D02*
X18525667Y-7097521D01*
X18549476Y-7151807D02*
X18559000Y-7151807D01*
X18559000Y-7151807D02*
X18563762Y-7148950D01*
X18563762Y-7148950D02*
X18566143Y-7146093D01*
X18566143Y-7146093D02*
X18570905Y-7137521D01*
X18570905Y-7137521D02*
X18573286Y-7126093D01*
X18573286Y-7126093D02*
X18573286Y-7103236D01*
X18573286Y-7103236D02*
X18570905Y-7097521D01*
X18570905Y-7097521D02*
X18568524Y-7094664D01*
X18568524Y-7094664D02*
X18563762Y-7091807D01*
X18563762Y-7091807D02*
X18554238Y-7091807D01*
X18554238Y-7091807D02*
X18549476Y-7094664D01*
X18549476Y-7094664D02*
X18547095Y-7097521D01*
X18547095Y-7097521D02*
X18544714Y-7103236D01*
X18544714Y-7103236D02*
X18544714Y-7117521D01*
X18544714Y-7117521D02*
X18547095Y-7123236D01*
X18547095Y-7123236D02*
X18549476Y-7126093D01*
X18549476Y-7126093D02*
X18554238Y-7128950D01*
X18554238Y-7128950D02*
X18563762Y-7128950D01*
X18563762Y-7128950D02*
X18568524Y-7126093D01*
X18568524Y-7126093D02*
X18570905Y-7123236D01*
X18570905Y-7123236D02*
X18573286Y-7117521D01*
X18128107Y-7022643D02*
X18099536Y-7039309D01*
X18128107Y-7051214D02*
X18068107Y-7051214D01*
X18068107Y-7051214D02*
X18068107Y-7032167D01*
X18068107Y-7032167D02*
X18070964Y-7027405D01*
X18070964Y-7027405D02*
X18073821Y-7025024D01*
X18073821Y-7025024D02*
X18079536Y-7022643D01*
X18079536Y-7022643D02*
X18088107Y-7022643D01*
X18088107Y-7022643D02*
X18093821Y-7025024D01*
X18093821Y-7025024D02*
X18096679Y-7027405D01*
X18096679Y-7027405D02*
X18099536Y-7032167D01*
X18099536Y-7032167D02*
X18099536Y-7051214D01*
X18128107Y-6975024D02*
X18128107Y-7003595D01*
X18128107Y-6989309D02*
X18068107Y-6989309D01*
X18068107Y-6989309D02*
X18076679Y-6994071D01*
X18076679Y-6994071D02*
X18082393Y-6998833D01*
X18082393Y-6998833D02*
X18085250Y-7003595D01*
X18128107Y-6927405D02*
X18128107Y-6955976D01*
X18128107Y-6941690D02*
X18068107Y-6941690D01*
X18068107Y-6941690D02*
X18076679Y-6946452D01*
X18076679Y-6946452D02*
X18082393Y-6951214D01*
X18082393Y-6951214D02*
X18085250Y-6955976D01*
X15301667Y-8548107D02*
X15285000Y-8519536D01*
X15273095Y-8548107D02*
X15273095Y-8488107D01*
X15273095Y-8488107D02*
X15292143Y-8488107D01*
X15292143Y-8488107D02*
X15296905Y-8490964D01*
X15296905Y-8490964D02*
X15299286Y-8493821D01*
X15299286Y-8493821D02*
X15301667Y-8499536D01*
X15301667Y-8499536D02*
X15301667Y-8508107D01*
X15301667Y-8508107D02*
X15299286Y-8513821D01*
X15299286Y-8513821D02*
X15296905Y-8516679D01*
X15296905Y-8516679D02*
X15292143Y-8519536D01*
X15292143Y-8519536D02*
X15273095Y-8519536D01*
X15346905Y-8488107D02*
X15323095Y-8488107D01*
X15323095Y-8488107D02*
X15320714Y-8516679D01*
X15320714Y-8516679D02*
X15323095Y-8513821D01*
X15323095Y-8513821D02*
X15327857Y-8510964D01*
X15327857Y-8510964D02*
X15339762Y-8510964D01*
X15339762Y-8510964D02*
X15344524Y-8513821D01*
X15344524Y-8513821D02*
X15346905Y-8516679D01*
X15346905Y-8516679D02*
X15349286Y-8522393D01*
X15349286Y-8522393D02*
X15349286Y-8536679D01*
X15349286Y-8536679D02*
X15346905Y-8542393D01*
X15346905Y-8542393D02*
X15344524Y-8545250D01*
X15344524Y-8545250D02*
X15339762Y-8548107D01*
X15339762Y-8548107D02*
X15327857Y-8548107D01*
X15327857Y-8548107D02*
X15323095Y-8545250D01*
X15323095Y-8545250D02*
X15320714Y-8542393D01*
X18078057Y-7641393D02*
X18075676Y-7644250D01*
X18075676Y-7644250D02*
X18068533Y-7647107D01*
X18068533Y-7647107D02*
X18063771Y-7647107D01*
X18063771Y-7647107D02*
X18056629Y-7644250D01*
X18056629Y-7644250D02*
X18051867Y-7638536D01*
X18051867Y-7638536D02*
X18049486Y-7632821D01*
X18049486Y-7632821D02*
X18047105Y-7621393D01*
X18047105Y-7621393D02*
X18047105Y-7612821D01*
X18047105Y-7612821D02*
X18049486Y-7601393D01*
X18049486Y-7601393D02*
X18051867Y-7595678D01*
X18051867Y-7595678D02*
X18056629Y-7589964D01*
X18056629Y-7589964D02*
X18063771Y-7587107D01*
X18063771Y-7587107D02*
X18068533Y-7587107D01*
X18068533Y-7587107D02*
X18075676Y-7589964D01*
X18075676Y-7589964D02*
X18078057Y-7592821D01*
X18125676Y-7647107D02*
X18097105Y-7647107D01*
X18111391Y-7647107D02*
X18111391Y-7587107D01*
X18111391Y-7587107D02*
X18106629Y-7595678D01*
X18106629Y-7595678D02*
X18101867Y-7601393D01*
X18101867Y-7601393D02*
X18097105Y-7604250D01*
X18156629Y-7587107D02*
X18161390Y-7587107D01*
X18161390Y-7587107D02*
X18166152Y-7589964D01*
X18166152Y-7589964D02*
X18168533Y-7592821D01*
X18168533Y-7592821D02*
X18170914Y-7598536D01*
X18170914Y-7598536D02*
X18173295Y-7609964D01*
X18173295Y-7609964D02*
X18173295Y-7624250D01*
X18173295Y-7624250D02*
X18170914Y-7635678D01*
X18170914Y-7635678D02*
X18168533Y-7641393D01*
X18168533Y-7641393D02*
X18166152Y-7644250D01*
X18166152Y-7644250D02*
X18161390Y-7647107D01*
X18161390Y-7647107D02*
X18156629Y-7647107D01*
X18156629Y-7647107D02*
X18151867Y-7644250D01*
X18151867Y-7644250D02*
X18149486Y-7641393D01*
X18149486Y-7641393D02*
X18147105Y-7635678D01*
X18147105Y-7635678D02*
X18144724Y-7624250D01*
X18144724Y-7624250D02*
X18144724Y-7609964D01*
X18144724Y-7609964D02*
X18147105Y-7598536D01*
X18147105Y-7598536D02*
X18149486Y-7592821D01*
X18149486Y-7592821D02*
X18151867Y-7589964D01*
X18151867Y-7589964D02*
X18156629Y-7587107D01*
X16478033Y-8353278D02*
X16461367Y-8353278D01*
X16461367Y-8384707D02*
X16461367Y-8324707D01*
X16461367Y-8324707D02*
X16485176Y-8324707D01*
X16530414Y-8384707D02*
X16501843Y-8384707D01*
X16516129Y-8384707D02*
X16516129Y-8324707D01*
X16516129Y-8324707D02*
X16511367Y-8333278D01*
X16511367Y-8333278D02*
X16506605Y-8338993D01*
X16506605Y-8338993D02*
X16501843Y-8341850D01*
X15761667Y-8535107D02*
X15745000Y-8506536D01*
X15733095Y-8535107D02*
X15733095Y-8475107D01*
X15733095Y-8475107D02*
X15752143Y-8475107D01*
X15752143Y-8475107D02*
X15756905Y-8477964D01*
X15756905Y-8477964D02*
X15759286Y-8480821D01*
X15759286Y-8480821D02*
X15761667Y-8486536D01*
X15761667Y-8486536D02*
X15761667Y-8495107D01*
X15761667Y-8495107D02*
X15759286Y-8500821D01*
X15759286Y-8500821D02*
X15756905Y-8503679D01*
X15756905Y-8503679D02*
X15752143Y-8506536D01*
X15752143Y-8506536D02*
X15733095Y-8506536D01*
X15809286Y-8535107D02*
X15780714Y-8535107D01*
X15795000Y-8535107D02*
X15795000Y-8475107D01*
X15795000Y-8475107D02*
X15790238Y-8483679D01*
X15790238Y-8483679D02*
X15785476Y-8489393D01*
X15785476Y-8489393D02*
X15780714Y-8492250D01*
X18813907Y-4686295D02*
X18862479Y-4686295D01*
X18862479Y-4686295D02*
X18868193Y-4683914D01*
X18868193Y-4683914D02*
X18871050Y-4681533D01*
X18871050Y-4681533D02*
X18873907Y-4676771D01*
X18873907Y-4676771D02*
X18873907Y-4667248D01*
X18873907Y-4667248D02*
X18871050Y-4662486D01*
X18871050Y-4662486D02*
X18868193Y-4660105D01*
X18868193Y-4660105D02*
X18862479Y-4657724D01*
X18862479Y-4657724D02*
X18813907Y-4657724D01*
X18819621Y-4636295D02*
X18816764Y-4633914D01*
X18816764Y-4633914D02*
X18813907Y-4629152D01*
X18813907Y-4629152D02*
X18813907Y-4617248D01*
X18813907Y-4617248D02*
X18816764Y-4612486D01*
X18816764Y-4612486D02*
X18819621Y-4610105D01*
X18819621Y-4610105D02*
X18825336Y-4607724D01*
X18825336Y-4607724D02*
X18831050Y-4607724D01*
X18831050Y-4607724D02*
X18839621Y-4610105D01*
X18839621Y-4610105D02*
X18873907Y-4638676D01*
X18873907Y-4638676D02*
X18873907Y-4607724D01*
X18460257Y-9305093D02*
X18457876Y-9307950D01*
X18457876Y-9307950D02*
X18450733Y-9310807D01*
X18450733Y-9310807D02*
X18445971Y-9310807D01*
X18445971Y-9310807D02*
X18438829Y-9307950D01*
X18438829Y-9307950D02*
X18434067Y-9302236D01*
X18434067Y-9302236D02*
X18431686Y-9296521D01*
X18431686Y-9296521D02*
X18429305Y-9285093D01*
X18429305Y-9285093D02*
X18429305Y-9276521D01*
X18429305Y-9276521D02*
X18431686Y-9265093D01*
X18431686Y-9265093D02*
X18434067Y-9259379D01*
X18434067Y-9259379D02*
X18438829Y-9253664D01*
X18438829Y-9253664D02*
X18445971Y-9250807D01*
X18445971Y-9250807D02*
X18450733Y-9250807D01*
X18450733Y-9250807D02*
X18457876Y-9253664D01*
X18457876Y-9253664D02*
X18460257Y-9256521D01*
X18479305Y-9256521D02*
X18481686Y-9253664D01*
X18481686Y-9253664D02*
X18486448Y-9250807D01*
X18486448Y-9250807D02*
X18498352Y-9250807D01*
X18498352Y-9250807D02*
X18503114Y-9253664D01*
X18503114Y-9253664D02*
X18505495Y-9256521D01*
X18505495Y-9256521D02*
X18507876Y-9262236D01*
X18507876Y-9262236D02*
X18507876Y-9267950D01*
X18507876Y-9267950D02*
X18505495Y-9276521D01*
X18505495Y-9276521D02*
X18476924Y-9310807D01*
X18476924Y-9310807D02*
X18507876Y-9310807D01*
X18526924Y-9256521D02*
X18529305Y-9253664D01*
X18529305Y-9253664D02*
X18534067Y-9250807D01*
X18534067Y-9250807D02*
X18545971Y-9250807D01*
X18545971Y-9250807D02*
X18550733Y-9253664D01*
X18550733Y-9253664D02*
X18553114Y-9256521D01*
X18553114Y-9256521D02*
X18555495Y-9262236D01*
X18555495Y-9262236D02*
X18555495Y-9267950D01*
X18555495Y-9267950D02*
X18553114Y-9276521D01*
X18553114Y-9276521D02*
X18524543Y-9310807D01*
X18524543Y-9310807D02*
X18555495Y-9310807D01*
X16389107Y-4474667D02*
X16431964Y-4474667D01*
X16431964Y-4474667D02*
X16440536Y-4477048D01*
X16440536Y-4477048D02*
X16446250Y-4481809D01*
X16446250Y-4481809D02*
X16449107Y-4488952D01*
X16449107Y-4488952D02*
X16449107Y-4493714D01*
X16389107Y-4427048D02*
X16389107Y-4450857D01*
X16389107Y-4450857D02*
X16417678Y-4453238D01*
X16417678Y-4453238D02*
X16414821Y-4450857D01*
X16414821Y-4450857D02*
X16411964Y-4446095D01*
X16411964Y-4446095D02*
X16411964Y-4434190D01*
X16411964Y-4434190D02*
X16414821Y-4429429D01*
X16414821Y-4429429D02*
X16417678Y-4427048D01*
X16417678Y-4427048D02*
X16423393Y-4424667D01*
X16423393Y-4424667D02*
X16437678Y-4424667D01*
X16437678Y-4424667D02*
X16443393Y-4427048D01*
X16443393Y-4427048D02*
X16446250Y-4429429D01*
X16446250Y-4429429D02*
X16449107Y-4434190D01*
X16449107Y-4434190D02*
X16449107Y-4446095D01*
X16449107Y-4446095D02*
X16446250Y-4450857D01*
X16446250Y-4450857D02*
X16443393Y-4453238D01*
D16*
X17138100Y-6737203D02*
X17114767Y-6703870D01*
X17098100Y-6737203D02*
X17098100Y-6667203D01*
X17098100Y-6667203D02*
X17124767Y-6667203D01*
X17124767Y-6667203D02*
X17131433Y-6670537D01*
X17131433Y-6670537D02*
X17134767Y-6673870D01*
X17134767Y-6673870D02*
X17138100Y-6680537D01*
X17138100Y-6680537D02*
X17138100Y-6690537D01*
X17138100Y-6690537D02*
X17134767Y-6697203D01*
X17134767Y-6697203D02*
X17131433Y-6700537D01*
X17131433Y-6700537D02*
X17124767Y-6703870D01*
X17124767Y-6703870D02*
X17098100Y-6703870D01*
X17204767Y-6737203D02*
X17164767Y-6737203D01*
X17184767Y-6737203D02*
X17184767Y-6667203D01*
X17184767Y-6667203D02*
X17178100Y-6677203D01*
X17178100Y-6677203D02*
X17171433Y-6683870D01*
X17171433Y-6683870D02*
X17164767Y-6687203D01*
X17228100Y-6667203D02*
X17274767Y-6667203D01*
X17274767Y-6667203D02*
X17244767Y-6737203D01*
D15*
X19084293Y-6577043D02*
X19087150Y-6579424D01*
X19087150Y-6579424D02*
X19090007Y-6586567D01*
X19090007Y-6586567D02*
X19090007Y-6591328D01*
X19090007Y-6591328D02*
X19087150Y-6598471D01*
X19087150Y-6598471D02*
X19081436Y-6603233D01*
X19081436Y-6603233D02*
X19075721Y-6605614D01*
X19075721Y-6605614D02*
X19064293Y-6607995D01*
X19064293Y-6607995D02*
X19055721Y-6607995D01*
X19055721Y-6607995D02*
X19044293Y-6605614D01*
X19044293Y-6605614D02*
X19038579Y-6603233D01*
X19038579Y-6603233D02*
X19032864Y-6598471D01*
X19032864Y-6598471D02*
X19030007Y-6591328D01*
X19030007Y-6591328D02*
X19030007Y-6586567D01*
X19030007Y-6586567D02*
X19032864Y-6579424D01*
X19032864Y-6579424D02*
X19035721Y-6577043D01*
X19090007Y-6529424D02*
X19090007Y-6557995D01*
X19090007Y-6543709D02*
X19030007Y-6543709D01*
X19030007Y-6543709D02*
X19038579Y-6548471D01*
X19038579Y-6548471D02*
X19044293Y-6553233D01*
X19044293Y-6553233D02*
X19047150Y-6557995D01*
X19050007Y-6486567D02*
X19090007Y-6486567D01*
X19027150Y-6498471D02*
X19070007Y-6510376D01*
X19070007Y-6510376D02*
X19070007Y-6479424D01*
X18868193Y-5048643D02*
X18871050Y-5051024D01*
X18871050Y-5051024D02*
X18873907Y-5058167D01*
X18873907Y-5058167D02*
X18873907Y-5062929D01*
X18873907Y-5062929D02*
X18871050Y-5070071D01*
X18871050Y-5070071D02*
X18865336Y-5074833D01*
X18865336Y-5074833D02*
X18859621Y-5077214D01*
X18859621Y-5077214D02*
X18848193Y-5079595D01*
X18848193Y-5079595D02*
X18839621Y-5079595D01*
X18839621Y-5079595D02*
X18828193Y-5077214D01*
X18828193Y-5077214D02*
X18822479Y-5074833D01*
X18822479Y-5074833D02*
X18816764Y-5070071D01*
X18816764Y-5070071D02*
X18813907Y-5062929D01*
X18813907Y-5062929D02*
X18813907Y-5058167D01*
X18813907Y-5058167D02*
X18816764Y-5051024D01*
X18816764Y-5051024D02*
X18819621Y-5048643D01*
X18873907Y-5001024D02*
X18873907Y-5029595D01*
X18873907Y-5015309D02*
X18813907Y-5015309D01*
X18813907Y-5015309D02*
X18822479Y-5020071D01*
X18822479Y-5020071D02*
X18828193Y-5024833D01*
X18828193Y-5024833D02*
X18831050Y-5029595D01*
X18813907Y-4955786D02*
X18813907Y-4979595D01*
X18813907Y-4979595D02*
X18842479Y-4981976D01*
X18842479Y-4981976D02*
X18839621Y-4979595D01*
X18839621Y-4979595D02*
X18836764Y-4974833D01*
X18836764Y-4974833D02*
X18836764Y-4962929D01*
X18836764Y-4962929D02*
X18839621Y-4958167D01*
X18839621Y-4958167D02*
X18842479Y-4955786D01*
X18842479Y-4955786D02*
X18848193Y-4953405D01*
X18848193Y-4953405D02*
X18862479Y-4953405D01*
X18862479Y-4953405D02*
X18868193Y-4955786D01*
X18868193Y-4955786D02*
X18871050Y-4958167D01*
X18871050Y-4958167D02*
X18873907Y-4962929D01*
X18873907Y-4962929D02*
X18873907Y-4974833D01*
X18873907Y-4974833D02*
X18871050Y-4979595D01*
X18871050Y-4979595D02*
X18868193Y-4981976D01*
X15542824Y-7091807D02*
X15559490Y-7151807D01*
X15559490Y-7151807D02*
X15576157Y-7091807D01*
X15621395Y-7151807D02*
X15604729Y-7123236D01*
X15592824Y-7151807D02*
X15592824Y-7091807D01*
X15592824Y-7091807D02*
X15611871Y-7091807D01*
X15611871Y-7091807D02*
X15616633Y-7094664D01*
X15616633Y-7094664D02*
X15619014Y-7097521D01*
X15619014Y-7097521D02*
X15621395Y-7103236D01*
X15621395Y-7103236D02*
X15621395Y-7111807D01*
X15621395Y-7111807D02*
X15619014Y-7117521D01*
X15619014Y-7117521D02*
X15616633Y-7120378D01*
X15616633Y-7120378D02*
X15611871Y-7123236D01*
X15611871Y-7123236D02*
X15592824Y-7123236D01*
X15669014Y-7151807D02*
X15640443Y-7151807D01*
X15654729Y-7151807D02*
X15654729Y-7091807D01*
X15654729Y-7091807D02*
X15649967Y-7100378D01*
X15649967Y-7100378D02*
X15645205Y-7106093D01*
X15645205Y-7106093D02*
X15640443Y-7108950D01*
X15670393Y-5946143D02*
X15673250Y-5948524D01*
X15673250Y-5948524D02*
X15676107Y-5955667D01*
X15676107Y-5955667D02*
X15676107Y-5960428D01*
X15676107Y-5960428D02*
X15673250Y-5967571D01*
X15673250Y-5967571D02*
X15667536Y-5972333D01*
X15667536Y-5972333D02*
X15661821Y-5974714D01*
X15661821Y-5974714D02*
X15650393Y-5977095D01*
X15650393Y-5977095D02*
X15641821Y-5977095D01*
X15641821Y-5977095D02*
X15630393Y-5974714D01*
X15630393Y-5974714D02*
X15624678Y-5972333D01*
X15624678Y-5972333D02*
X15618964Y-5967571D01*
X15618964Y-5967571D02*
X15616107Y-5960428D01*
X15616107Y-5960428D02*
X15616107Y-5955667D01*
X15616107Y-5955667D02*
X15618964Y-5948524D01*
X15618964Y-5948524D02*
X15621821Y-5946143D01*
X15676107Y-5898524D02*
X15676107Y-5927095D01*
X15676107Y-5912809D02*
X15616107Y-5912809D01*
X15616107Y-5912809D02*
X15624678Y-5917571D01*
X15624678Y-5917571D02*
X15630393Y-5922333D01*
X15630393Y-5922333D02*
X15633250Y-5927095D01*
X15616107Y-5881857D02*
X15616107Y-5848524D01*
X15616107Y-5848524D02*
X15676107Y-5869952D01*
X17111233Y-8664807D02*
X17111233Y-8707664D01*
X17111233Y-8707664D02*
X17108852Y-8716236D01*
X17108852Y-8716236D02*
X17104091Y-8721950D01*
X17104091Y-8721950D02*
X17096948Y-8724807D01*
X17096948Y-8724807D02*
X17092186Y-8724807D01*
X17161233Y-8724807D02*
X17132662Y-8724807D01*
X17146948Y-8724807D02*
X17146948Y-8664807D01*
X17146948Y-8664807D02*
X17142186Y-8673379D01*
X17142186Y-8673379D02*
X17137424Y-8679093D01*
X17137424Y-8679093D02*
X17132662Y-8681950D01*
X22207905Y-6244107D02*
X22207905Y-6292678D01*
X22207905Y-6292678D02*
X22210286Y-6298393D01*
X22210286Y-6298393D02*
X22212667Y-6301250D01*
X22212667Y-6301250D02*
X22217429Y-6304107D01*
X22217429Y-6304107D02*
X22226952Y-6304107D01*
X22226952Y-6304107D02*
X22231714Y-6301250D01*
X22231714Y-6301250D02*
X22234095Y-6298393D01*
X22234095Y-6298393D02*
X22236476Y-6292678D01*
X22236476Y-6292678D02*
X22236476Y-6244107D01*
X22255524Y-6244107D02*
X22286476Y-6244107D01*
X22286476Y-6244107D02*
X22269810Y-6266964D01*
X22269810Y-6266964D02*
X22276952Y-6266964D01*
X22276952Y-6266964D02*
X22281714Y-6269821D01*
X22281714Y-6269821D02*
X22284095Y-6272678D01*
X22284095Y-6272678D02*
X22286476Y-6278393D01*
X22286476Y-6278393D02*
X22286476Y-6292678D01*
X22286476Y-6292678D02*
X22284095Y-6298393D01*
X22284095Y-6298393D02*
X22281714Y-6301250D01*
X22281714Y-6301250D02*
X22276952Y-6304107D01*
X22276952Y-6304107D02*
X22262667Y-6304107D01*
X22262667Y-6304107D02*
X22257905Y-6301250D01*
X22257905Y-6301250D02*
X22255524Y-6298393D01*
X15521667Y-8542107D02*
X15505000Y-8513536D01*
X15493095Y-8542107D02*
X15493095Y-8482107D01*
X15493095Y-8482107D02*
X15512143Y-8482107D01*
X15512143Y-8482107D02*
X15516905Y-8484964D01*
X15516905Y-8484964D02*
X15519286Y-8487821D01*
X15519286Y-8487821D02*
X15521667Y-8493536D01*
X15521667Y-8493536D02*
X15521667Y-8502107D01*
X15521667Y-8502107D02*
X15519286Y-8507821D01*
X15519286Y-8507821D02*
X15516905Y-8510679D01*
X15516905Y-8510679D02*
X15512143Y-8513536D01*
X15512143Y-8513536D02*
X15493095Y-8513536D01*
X15564524Y-8482107D02*
X15555000Y-8482107D01*
X15555000Y-8482107D02*
X15550238Y-8484964D01*
X15550238Y-8484964D02*
X15547857Y-8487821D01*
X15547857Y-8487821D02*
X15543095Y-8496393D01*
X15543095Y-8496393D02*
X15540714Y-8507821D01*
X15540714Y-8507821D02*
X15540714Y-8530679D01*
X15540714Y-8530679D02*
X15543095Y-8536393D01*
X15543095Y-8536393D02*
X15545476Y-8539250D01*
X15545476Y-8539250D02*
X15550238Y-8542107D01*
X15550238Y-8542107D02*
X15559762Y-8542107D01*
X15559762Y-8542107D02*
X15564524Y-8539250D01*
X15564524Y-8539250D02*
X15566905Y-8536393D01*
X15566905Y-8536393D02*
X15569286Y-8530679D01*
X15569286Y-8530679D02*
X15569286Y-8516393D01*
X15569286Y-8516393D02*
X15566905Y-8510679D01*
X15566905Y-8510679D02*
X15564524Y-8507821D01*
X15564524Y-8507821D02*
X15559762Y-8504964D01*
X15559762Y-8504964D02*
X15550238Y-8504964D01*
X15550238Y-8504964D02*
X15545476Y-8507821D01*
X15545476Y-8507821D02*
X15543095Y-8510679D01*
X15543095Y-8510679D02*
X15540714Y-8516393D01*
X20642833Y-7022607D02*
X20642833Y-7065464D01*
X20642833Y-7065464D02*
X20640452Y-7074036D01*
X20640452Y-7074036D02*
X20635691Y-7079750D01*
X20635691Y-7079750D02*
X20628548Y-7082607D01*
X20628548Y-7082607D02*
X20623786Y-7082607D01*
X20661881Y-7022607D02*
X20692833Y-7022607D01*
X20692833Y-7022607D02*
X20676167Y-7045464D01*
X20676167Y-7045464D02*
X20683310Y-7045464D01*
X20683310Y-7045464D02*
X20688071Y-7048321D01*
X20688071Y-7048321D02*
X20690452Y-7051178D01*
X20690452Y-7051178D02*
X20692833Y-7056893D01*
X20692833Y-7056893D02*
X20692833Y-7071178D01*
X20692833Y-7071178D02*
X20690452Y-7076893D01*
X20690452Y-7076893D02*
X20688071Y-7079750D01*
X20688071Y-7079750D02*
X20683310Y-7082607D01*
X20683310Y-7082607D02*
X20669024Y-7082607D01*
X20669024Y-7082607D02*
X20664262Y-7079750D01*
X20664262Y-7079750D02*
X20661881Y-7076893D01*
X17593867Y-8403393D02*
X17591486Y-8406250D01*
X17591486Y-8406250D02*
X17584343Y-8409107D01*
X17584343Y-8409107D02*
X17579581Y-8409107D01*
X17579581Y-8409107D02*
X17572438Y-8406250D01*
X17572438Y-8406250D02*
X17567676Y-8400536D01*
X17567676Y-8400536D02*
X17565295Y-8394821D01*
X17565295Y-8394821D02*
X17562914Y-8383393D01*
X17562914Y-8383393D02*
X17562914Y-8374821D01*
X17562914Y-8374821D02*
X17565295Y-8363393D01*
X17565295Y-8363393D02*
X17567676Y-8357678D01*
X17567676Y-8357678D02*
X17572438Y-8351964D01*
X17572438Y-8351964D02*
X17579581Y-8349107D01*
X17579581Y-8349107D02*
X17584343Y-8349107D01*
X17584343Y-8349107D02*
X17591486Y-8351964D01*
X17591486Y-8351964D02*
X17593867Y-8354821D01*
X17641486Y-8409107D02*
X17612914Y-8409107D01*
X17627200Y-8409107D02*
X17627200Y-8349107D01*
X17627200Y-8349107D02*
X17622438Y-8357678D01*
X17622438Y-8357678D02*
X17617676Y-8363393D01*
X17617676Y-8363393D02*
X17612914Y-8366250D01*
X19993257Y-9308093D02*
X19990876Y-9310950D01*
X19990876Y-9310950D02*
X19983733Y-9313807D01*
X19983733Y-9313807D02*
X19978971Y-9313807D01*
X19978971Y-9313807D02*
X19971829Y-9310950D01*
X19971829Y-9310950D02*
X19967067Y-9305236D01*
X19967067Y-9305236D02*
X19964686Y-9299521D01*
X19964686Y-9299521D02*
X19962305Y-9288093D01*
X19962305Y-9288093D02*
X19962305Y-9279521D01*
X19962305Y-9279521D02*
X19964686Y-9268093D01*
X19964686Y-9268093D02*
X19967067Y-9262379D01*
X19967067Y-9262379D02*
X19971829Y-9256664D01*
X19971829Y-9256664D02*
X19978971Y-9253807D01*
X19978971Y-9253807D02*
X19983733Y-9253807D01*
X19983733Y-9253807D02*
X19990876Y-9256664D01*
X19990876Y-9256664D02*
X19993257Y-9259521D01*
X20012305Y-9259521D02*
X20014686Y-9256664D01*
X20014686Y-9256664D02*
X20019448Y-9253807D01*
X20019448Y-9253807D02*
X20031352Y-9253807D01*
X20031352Y-9253807D02*
X20036114Y-9256664D01*
X20036114Y-9256664D02*
X20038495Y-9259521D01*
X20038495Y-9259521D02*
X20040876Y-9265236D01*
X20040876Y-9265236D02*
X20040876Y-9270950D01*
X20040876Y-9270950D02*
X20038495Y-9279521D01*
X20038495Y-9279521D02*
X20009924Y-9313807D01*
X20009924Y-9313807D02*
X20040876Y-9313807D01*
X20088495Y-9313807D02*
X20059924Y-9313807D01*
X20074210Y-9313807D02*
X20074210Y-9253807D01*
X20074210Y-9253807D02*
X20069448Y-9262379D01*
X20069448Y-9262379D02*
X20064686Y-9268093D01*
X20064686Y-9268093D02*
X20059924Y-9270950D01*
D18*
X16327967Y-8576108D02*
X16285633Y-8576108D01*
X16285633Y-8642632D02*
X16285633Y-8515632D01*
X16285633Y-8515632D02*
X16346109Y-8515632D01*
X16388443Y-8527727D02*
X16394490Y-8521679D01*
X16394490Y-8521679D02*
X16406586Y-8515632D01*
X16406586Y-8515632D02*
X16436824Y-8515632D01*
X16436824Y-8515632D02*
X16448919Y-8521679D01*
X16448919Y-8521679D02*
X16454967Y-8527727D01*
X16454967Y-8527727D02*
X16461014Y-8539822D01*
X16461014Y-8539822D02*
X16461014Y-8551918D01*
X16461014Y-8551918D02*
X16454967Y-8570060D01*
X16454967Y-8570060D02*
X16382395Y-8642632D01*
X16382395Y-8642632D02*
X16461014Y-8642632D01*
D15*
X15034667Y-8542107D02*
X15018000Y-8513536D01*
X15006095Y-8542107D02*
X15006095Y-8482107D01*
X15006095Y-8482107D02*
X15025143Y-8482107D01*
X15025143Y-8482107D02*
X15029905Y-8484964D01*
X15029905Y-8484964D02*
X15032286Y-8487821D01*
X15032286Y-8487821D02*
X15034667Y-8493536D01*
X15034667Y-8493536D02*
X15034667Y-8502107D01*
X15034667Y-8502107D02*
X15032286Y-8507821D01*
X15032286Y-8507821D02*
X15029905Y-8510679D01*
X15029905Y-8510679D02*
X15025143Y-8513536D01*
X15025143Y-8513536D02*
X15006095Y-8513536D01*
X15051333Y-8482107D02*
X15084667Y-8482107D01*
X15084667Y-8482107D02*
X15063238Y-8542107D01*
D10*
X23240686Y-5389949D02*
X23238781Y-5392330D01*
X23238781Y-5392330D02*
X23233067Y-5394711D01*
X23233067Y-5394711D02*
X23229257Y-5394711D01*
X23229257Y-5394711D02*
X23223543Y-5392330D01*
X23223543Y-5392330D02*
X23219733Y-5387568D01*
X23219733Y-5387568D02*
X23217829Y-5382806D01*
X23217829Y-5382806D02*
X23215924Y-5373282D01*
X23215924Y-5373282D02*
X23215924Y-5366140D01*
X23215924Y-5366140D02*
X23217829Y-5356616D01*
X23217829Y-5356616D02*
X23219733Y-5351854D01*
X23219733Y-5351854D02*
X23223543Y-5347092D01*
X23223543Y-5347092D02*
X23229257Y-5344711D01*
X23229257Y-5344711D02*
X23233067Y-5344711D01*
X23233067Y-5344711D02*
X23238781Y-5347092D01*
X23238781Y-5347092D02*
X23240686Y-5349473D01*
X23255924Y-5349473D02*
X23257829Y-5347092D01*
X23257829Y-5347092D02*
X23261638Y-5344711D01*
X23261638Y-5344711D02*
X23271162Y-5344711D01*
X23271162Y-5344711D02*
X23274971Y-5347092D01*
X23274971Y-5347092D02*
X23276876Y-5349473D01*
X23276876Y-5349473D02*
X23278781Y-5354235D01*
X23278781Y-5354235D02*
X23278781Y-5358997D01*
X23278781Y-5358997D02*
X23276876Y-5366140D01*
X23276876Y-5366140D02*
X23254019Y-5394711D01*
X23254019Y-5394711D02*
X23278781Y-5394711D01*
X23314971Y-5344711D02*
X23295924Y-5344711D01*
X23295924Y-5344711D02*
X23294019Y-5368520D01*
X23294019Y-5368520D02*
X23295924Y-5366140D01*
X23295924Y-5366140D02*
X23299733Y-5363759D01*
X23299733Y-5363759D02*
X23309257Y-5363759D01*
X23309257Y-5363759D02*
X23313067Y-5366140D01*
X23313067Y-5366140D02*
X23314971Y-5368520D01*
X23314971Y-5368520D02*
X23316876Y-5373282D01*
X23316876Y-5373282D02*
X23316876Y-5385187D01*
X23316876Y-5385187D02*
X23314971Y-5389949D01*
X23314971Y-5389949D02*
X23313067Y-5392330D01*
X23313067Y-5392330D02*
X23309257Y-5394711D01*
X23309257Y-5394711D02*
X23299733Y-5394711D01*
X23299733Y-5394711D02*
X23295924Y-5392330D01*
X23295924Y-5392330D02*
X23294019Y-5389949D01*
D15*
X16818857Y-6111393D02*
X16816476Y-6114250D01*
X16816476Y-6114250D02*
X16809333Y-6117107D01*
X16809333Y-6117107D02*
X16804571Y-6117107D01*
X16804571Y-6117107D02*
X16797429Y-6114250D01*
X16797429Y-6114250D02*
X16792667Y-6108536D01*
X16792667Y-6108536D02*
X16790286Y-6102821D01*
X16790286Y-6102821D02*
X16787905Y-6091393D01*
X16787905Y-6091393D02*
X16787905Y-6082821D01*
X16787905Y-6082821D02*
X16790286Y-6071393D01*
X16790286Y-6071393D02*
X16792667Y-6065678D01*
X16792667Y-6065678D02*
X16797429Y-6059964D01*
X16797429Y-6059964D02*
X16804571Y-6057107D01*
X16804571Y-6057107D02*
X16809333Y-6057107D01*
X16809333Y-6057107D02*
X16816476Y-6059964D01*
X16816476Y-6059964D02*
X16818857Y-6062821D01*
X16866476Y-6117107D02*
X16837905Y-6117107D01*
X16852191Y-6117107D02*
X16852191Y-6057107D01*
X16852191Y-6057107D02*
X16847429Y-6065678D01*
X16847429Y-6065678D02*
X16842667Y-6071393D01*
X16842667Y-6071393D02*
X16837905Y-6074250D01*
X16895048Y-6082821D02*
X16890286Y-6079964D01*
X16890286Y-6079964D02*
X16887905Y-6077107D01*
X16887905Y-6077107D02*
X16885524Y-6071393D01*
X16885524Y-6071393D02*
X16885524Y-6068536D01*
X16885524Y-6068536D02*
X16887905Y-6062821D01*
X16887905Y-6062821D02*
X16890286Y-6059964D01*
X16890286Y-6059964D02*
X16895048Y-6057107D01*
X16895048Y-6057107D02*
X16904571Y-6057107D01*
X16904571Y-6057107D02*
X16909333Y-6059964D01*
X16909333Y-6059964D02*
X16911714Y-6062821D01*
X16911714Y-6062821D02*
X16914095Y-6068536D01*
X16914095Y-6068536D02*
X16914095Y-6071393D01*
X16914095Y-6071393D02*
X16911714Y-6077107D01*
X16911714Y-6077107D02*
X16909333Y-6079964D01*
X16909333Y-6079964D02*
X16904571Y-6082821D01*
X16904571Y-6082821D02*
X16895048Y-6082821D01*
X16895048Y-6082821D02*
X16890286Y-6085678D01*
X16890286Y-6085678D02*
X16887905Y-6088536D01*
X16887905Y-6088536D02*
X16885524Y-6094250D01*
X16885524Y-6094250D02*
X16885524Y-6105678D01*
X16885524Y-6105678D02*
X16887905Y-6111393D01*
X16887905Y-6111393D02*
X16890286Y-6114250D01*
X16890286Y-6114250D02*
X16895048Y-6117107D01*
X16895048Y-6117107D02*
X16904571Y-6117107D01*
X16904571Y-6117107D02*
X16909333Y-6114250D01*
X16909333Y-6114250D02*
X16911714Y-6111393D01*
X16911714Y-6111393D02*
X16914095Y-6105678D01*
X16914095Y-6105678D02*
X16914095Y-6094250D01*
X16914095Y-6094250D02*
X16911714Y-6088536D01*
X16911714Y-6088536D02*
X16909333Y-6085678D01*
X16909333Y-6085678D02*
X16904571Y-6082821D01*
X19477221Y-8641462D02*
X19474364Y-8646224D01*
X19474364Y-8646224D02*
X19468650Y-8650986D01*
X19468650Y-8650986D02*
X19460079Y-8658129D01*
X19460079Y-8658129D02*
X19457221Y-8662890D01*
X19457221Y-8662890D02*
X19457221Y-8667652D01*
X19471507Y-8665271D02*
X19468650Y-8670033D01*
X19468650Y-8670033D02*
X19462936Y-8674795D01*
X19462936Y-8674795D02*
X19451507Y-8677176D01*
X19451507Y-8677176D02*
X19431507Y-8677176D01*
X19431507Y-8677176D02*
X19420079Y-8674795D01*
X19420079Y-8674795D02*
X19414364Y-8670033D01*
X19414364Y-8670033D02*
X19411507Y-8665271D01*
X19411507Y-8665271D02*
X19411507Y-8655748D01*
X19411507Y-8655748D02*
X19414364Y-8650986D01*
X19414364Y-8650986D02*
X19420079Y-8646224D01*
X19420079Y-8646224D02*
X19431507Y-8643843D01*
X19431507Y-8643843D02*
X19451507Y-8643843D01*
X19451507Y-8643843D02*
X19462936Y-8646224D01*
X19462936Y-8646224D02*
X19468650Y-8650986D01*
X19468650Y-8650986D02*
X19471507Y-8655748D01*
X19471507Y-8655748D02*
X19471507Y-8665271D01*
X19411507Y-8627176D02*
X19411507Y-8596224D01*
X19411507Y-8596224D02*
X19434364Y-8612890D01*
X19434364Y-8612890D02*
X19434364Y-8605748D01*
X19434364Y-8605748D02*
X19437221Y-8600986D01*
X19437221Y-8600986D02*
X19440079Y-8598605D01*
X19440079Y-8598605D02*
X19445793Y-8596224D01*
X19445793Y-8596224D02*
X19460079Y-8596224D01*
X19460079Y-8596224D02*
X19465793Y-8598605D01*
X19465793Y-8598605D02*
X19468650Y-8600986D01*
X19468650Y-8600986D02*
X19471507Y-8605748D01*
X19471507Y-8605748D02*
X19471507Y-8620033D01*
X19471507Y-8620033D02*
X19468650Y-8624795D01*
X19468650Y-8624795D02*
X19465793Y-8627176D01*
X19466057Y-6800407D02*
X19449391Y-6771836D01*
X19437486Y-6800407D02*
X19437486Y-6740407D01*
X19437486Y-6740407D02*
X19456533Y-6740407D01*
X19456533Y-6740407D02*
X19461295Y-6743264D01*
X19461295Y-6743264D02*
X19463676Y-6746121D01*
X19463676Y-6746121D02*
X19466057Y-6751836D01*
X19466057Y-6751836D02*
X19466057Y-6760407D01*
X19466057Y-6760407D02*
X19463676Y-6766121D01*
X19463676Y-6766121D02*
X19461295Y-6768978D01*
X19461295Y-6768978D02*
X19456533Y-6771836D01*
X19456533Y-6771836D02*
X19437486Y-6771836D01*
X19485105Y-6746121D02*
X19487486Y-6743264D01*
X19487486Y-6743264D02*
X19492248Y-6740407D01*
X19492248Y-6740407D02*
X19504152Y-6740407D01*
X19504152Y-6740407D02*
X19508914Y-6743264D01*
X19508914Y-6743264D02*
X19511295Y-6746121D01*
X19511295Y-6746121D02*
X19513676Y-6751836D01*
X19513676Y-6751836D02*
X19513676Y-6757550D01*
X19513676Y-6757550D02*
X19511295Y-6766121D01*
X19511295Y-6766121D02*
X19482724Y-6800407D01*
X19482724Y-6800407D02*
X19513676Y-6800407D01*
X19532724Y-6746121D02*
X19535105Y-6743264D01*
X19535105Y-6743264D02*
X19539867Y-6740407D01*
X19539867Y-6740407D02*
X19551771Y-6740407D01*
X19551771Y-6740407D02*
X19556533Y-6743264D01*
X19556533Y-6743264D02*
X19558914Y-6746121D01*
X19558914Y-6746121D02*
X19561295Y-6751836D01*
X19561295Y-6751836D02*
X19561295Y-6757550D01*
X19561295Y-6757550D02*
X19558914Y-6766121D01*
X19558914Y-6766121D02*
X19530343Y-6800407D01*
X19530343Y-6800407D02*
X19561295Y-6800407D01*
D17*
%TO.C,R3*%
X16423800Y-9489594D02*
X16423800Y-9535006D01*
X16570800Y-9489594D02*
X16570800Y-9535006D01*
%TO.C,R34*%
X19652694Y-8913200D02*
X19698106Y-8913200D01*
X19652694Y-9060200D02*
X19698106Y-9060200D01*
D12*
%TO.C,C4*%
X15045000Y-6775000D02*
G75*
G02*
X15035000Y-6775000I-5000J0D01*
G01*
X15035000Y-6775000D02*
G75*
G02*
X15045000Y-6775000I5000J0D01*
G01*
D17*
%TO.C,R24*%
X19294000Y-4696306D02*
X19294000Y-4650894D01*
X19441000Y-4696306D02*
X19441000Y-4650894D01*
%TO.C,R16*%
X19885506Y-6517800D02*
X19840094Y-6517800D01*
X19885506Y-6664800D02*
X19840094Y-6664800D01*
%TO.C,Q2*%
X18673400Y-8657700D02*
X18673400Y-8592700D01*
X18673400Y-8657700D02*
X18673400Y-8722700D01*
X18985400Y-8657700D02*
X18985400Y-8592700D01*
X18985400Y-8657700D02*
X18985400Y-8722700D01*
X18678400Y-8773950D02*
X18645400Y-8797950D01*
X18645400Y-8749950D01*
X18678400Y-8773950D01*
G36*
X18678400Y-8773950D02*
G01*
X18645400Y-8797950D01*
X18645400Y-8749950D01*
X18678400Y-8773950D01*
G37*
%TO.C,TP3*%
X20402700Y-6070600D02*
G75*
G02*
X20262700Y-6070600I-70000J0D01*
G01*
X20262700Y-6070600D02*
G75*
G02*
X20402700Y-6070600I70000J0D01*
G01*
%TO.C,TP5*%
X19259700Y-5600700D02*
G75*
G02*
X19119700Y-5600700I-70000J0D01*
G01*
X19119700Y-5600700D02*
G75*
G02*
X19259700Y-5600700I70000J0D01*
G01*
%TO.C,R29*%
X16439706Y-5607500D02*
X16394294Y-5607500D01*
X16439706Y-5754500D02*
X16394294Y-5754500D01*
D12*
%TO.C,U6*%
X19170800Y-5869100D02*
X19665800Y-5869100D01*
X19170800Y-6399100D02*
X19170800Y-5869100D01*
X19665800Y-5869100D02*
X19665800Y-6399100D01*
X19665800Y-6399100D02*
X19170800Y-6399100D01*
D19*
X19068300Y-5874100D02*
G75*
G02*
X19048300Y-5874100I-10000J0D01*
G01*
X19048300Y-5874100D02*
G75*
G02*
X19068300Y-5874100I10000J0D01*
G01*
X19080661Y-5874100D02*
G75*
G02*
X19035939Y-5874100I-22361J0D01*
G01*
X19035939Y-5874100D02*
G75*
G02*
X19080661Y-5874100I22361J0D01*
G01*
X19078300Y-5874100D02*
G75*
G02*
X19058300Y-5874100I-10000J0D01*
G01*
X19058300Y-5874100D02*
G75*
G02*
X19078300Y-5874100I10000J0D01*
G01*
X19248300Y-5944100D02*
G75*
G02*
X19228300Y-5944100I-10000J0D01*
G01*
X19228300Y-5944100D02*
G75*
G02*
X19248300Y-5944100I10000J0D01*
G01*
X19252442Y-5944100D02*
G75*
G02*
X19224158Y-5944100I-14142J0D01*
G01*
X19224158Y-5944100D02*
G75*
G02*
X19252442Y-5944100I14142J0D01*
G01*
X19260661Y-5944100D02*
G75*
G02*
X19215939Y-5944100I-22361J0D01*
G01*
X19215939Y-5944100D02*
G75*
G02*
X19260661Y-5944100I22361J0D01*
G01*
X19269923Y-5944100D02*
G75*
G02*
X19206678Y-5944100I-31623J0D01*
G01*
X19206678Y-5944100D02*
G75*
G02*
X19269923Y-5944100I31623J0D01*
G01*
X19248300Y-5954100D02*
G75*
G02*
X19228300Y-5954100I-10000J0D01*
G01*
X19228300Y-5954100D02*
G75*
G02*
X19248300Y-5954100I10000J0D01*
G01*
D17*
%TO.C,TP1*%
X20174100Y-7226300D02*
G75*
G02*
X20034100Y-7226300I-70000J0D01*
G01*
X20034100Y-7226300D02*
G75*
G02*
X20174100Y-7226300I70000J0D01*
G01*
%TO.C,R14*%
X16603500Y-7490806D02*
X16603500Y-7445394D01*
X16750500Y-7490806D02*
X16750500Y-7445394D01*
%TO.C,C23*%
X14455300Y-7174775D02*
X14455300Y-7227025D01*
X14602300Y-7174775D02*
X14602300Y-7227025D01*
%TO.C,C24*%
X17465200Y-6450875D02*
X17465200Y-6503125D01*
X17612200Y-6450875D02*
X17612200Y-6503125D01*
%TO.C,TP4*%
X22739500Y-6845300D02*
G75*
G02*
X22599500Y-6845300I-70000J0D01*
G01*
X22599500Y-6845300D02*
G75*
G02*
X22739500Y-6845300I70000J0D01*
G01*
D12*
%TO.C,LED2*%
X14587000Y-8072000D02*
X14587000Y-8337000D01*
X14587000Y-8337000D02*
X14797000Y-8337000D01*
X14797000Y-8337000D02*
X14797000Y-8072000D01*
D17*
%TO.C,R12*%
X18929294Y-7773000D02*
X18974706Y-7773000D01*
X18929294Y-7920000D02*
X18974706Y-7920000D01*
D12*
%TO.C,LED1*%
X14252000Y-8072000D02*
X14252000Y-8337000D01*
X14252000Y-8337000D02*
X14462000Y-8337000D01*
X14462000Y-8337000D02*
X14462000Y-8072000D01*
D17*
%TO.C,R23*%
X17840294Y-5919500D02*
X17885706Y-5919500D01*
X17840294Y-6066500D02*
X17885706Y-6066500D01*
D12*
%TO.C,C7*%
X20811000Y-4834050D02*
G75*
G02*
X20801000Y-4834050I-5000J0D01*
G01*
X20801000Y-4834050D02*
G75*
G02*
X20811000Y-4834050I5000J0D01*
G01*
%TO.C,C12*%
X21795000Y-7000050D02*
G75*
G02*
X21785000Y-7000050I-5000J0D01*
G01*
X21785000Y-7000050D02*
G75*
G02*
X21795000Y-7000050I5000J0D01*
G01*
D17*
%TO.C,C13*%
X21209500Y-6763175D02*
X21209500Y-6710925D01*
X21356500Y-6763175D02*
X21356500Y-6710925D01*
D12*
%TO.C,LED6*%
X16278000Y-6933100D02*
X16278000Y-7198100D01*
X16278000Y-7198100D02*
X16488000Y-7198100D01*
X16488000Y-7198100D02*
X16488000Y-6933100D01*
D17*
%TO.C,C20*%
X17353500Y-5574125D02*
X17353500Y-5521875D01*
X17500500Y-5574125D02*
X17500500Y-5521875D01*
D20*
%TO.C,U7*%
X16677080Y-5494000D02*
X16677080Y-5630000D01*
X16920920Y-5630000D02*
X16920920Y-5494000D01*
X16675080Y-5766380D02*
G75*
G02*
X16700480Y-5766380I12700J0D01*
G01*
X16700480Y-5766380D02*
G75*
G02*
X16675080Y-5766380I-12700J0D01*
G01*
D12*
%TO.C,LED3*%
X14922000Y-8072000D02*
X14922000Y-8337000D01*
X14922000Y-8337000D02*
X15132000Y-8337000D01*
X15132000Y-8337000D02*
X15132000Y-8072000D01*
D17*
%TO.C,R2*%
X15936500Y-8777706D02*
X15936500Y-8732294D01*
X16083500Y-8777706D02*
X16083500Y-8732294D01*
%TO.C,C6*%
X15627875Y-9698500D02*
X15680125Y-9698500D01*
X15627875Y-9845500D02*
X15680125Y-9845500D01*
%TO.C,R10*%
X15015706Y-6286500D02*
X14970294Y-6286500D01*
X15015706Y-6433500D02*
X14970294Y-6433500D01*
D12*
%TO.C,LED4*%
X14496000Y-6485000D02*
X14761000Y-6485000D01*
X14761000Y-6275000D02*
X14496000Y-6275000D01*
X14761000Y-6485000D02*
X14761000Y-6275000D01*
D19*
%TO.C,U4*%
X16894200Y-7256800D02*
X16949200Y-7256800D01*
X16894200Y-7311800D02*
X16894200Y-7256800D01*
X16894200Y-7656800D02*
X16894200Y-7601800D01*
X16894200Y-7656800D02*
X16949200Y-7656800D01*
X17239200Y-7256800D02*
X17294200Y-7256800D01*
X17294200Y-7256800D02*
X17294200Y-7311800D01*
X17294200Y-7656800D02*
X17239200Y-7656800D01*
X17294200Y-7656800D02*
X17294200Y-7601800D01*
D12*
X16994200Y-7746800D02*
G75*
G02*
X16974200Y-7746800I-10000J0D01*
G01*
X16974200Y-7746800D02*
G75*
G02*
X16994200Y-7746800I10000J0D01*
G01*
D17*
%TO.C,R4*%
X16423800Y-9083194D02*
X16423800Y-9128606D01*
X16570800Y-9083194D02*
X16570800Y-9128606D01*
%TO.C,R32*%
X18176400Y-9133994D02*
X18176400Y-9179406D01*
X18323400Y-9133994D02*
X18323400Y-9179406D01*
%TO.C,U5*%
X17014400Y-8166100D02*
X17014400Y-8086100D01*
X17014400Y-8166100D02*
X17014400Y-8246100D01*
X17326400Y-8166100D02*
X17326400Y-8086100D01*
X17326400Y-8166100D02*
X17326400Y-8246100D01*
X17354400Y-8060100D02*
X17321400Y-8036100D01*
X17354400Y-8012100D01*
X17354400Y-8060100D01*
G36*
X17354400Y-8060100D02*
G01*
X17321400Y-8036100D01*
X17354400Y-8012100D01*
X17354400Y-8060100D01*
G37*
%TO.C,R15*%
X20906050Y-5759944D02*
X20906050Y-5805356D01*
X21053050Y-5759944D02*
X21053050Y-5805356D01*
%TO.C,C11*%
X18891500Y-7320625D02*
X18891500Y-7268375D01*
X19038500Y-7320625D02*
X19038500Y-7268375D01*
%TO.C,C2*%
X15663125Y-7690500D02*
X15610875Y-7690500D01*
X15663125Y-7837500D02*
X15610875Y-7837500D01*
%TO.C,R13*%
X18929294Y-7555000D02*
X18974706Y-7555000D01*
X18929294Y-7702000D02*
X18974706Y-7702000D01*
D12*
%TO.C,LED5*%
X16563000Y-6937100D02*
X16563000Y-7202100D01*
X16563000Y-7202100D02*
X16773000Y-7202100D01*
X16773000Y-7202100D02*
X16773000Y-6937100D01*
D17*
%TO.C,TP2*%
X19945500Y-7226300D02*
G75*
G02*
X19805500Y-7226300I-70000J0D01*
G01*
X19805500Y-7226300D02*
G75*
G02*
X19945500Y-7226300I70000J0D01*
G01*
%TO.C,R27*%
X16370294Y-5832500D02*
X16415706Y-5832500D01*
X16370294Y-5979500D02*
X16415706Y-5979500D01*
D19*
%TO.C,J2*%
X14366500Y-9278000D02*
X15161500Y-9278000D01*
X14366500Y-9346000D02*
X14366500Y-9278000D01*
X14366500Y-9778000D02*
X14366500Y-9710000D01*
X14582000Y-9778000D02*
X14366500Y-9778000D01*
X15161500Y-9278000D02*
X15161500Y-9346000D01*
X15161500Y-9778000D02*
X14946000Y-9778000D01*
X15161500Y-9778000D02*
X15161500Y-9710000D01*
D12*
X14674000Y-10094000D02*
G75*
G02*
X14654000Y-10094000I-10000J0D01*
G01*
X14654000Y-10094000D02*
G75*
G02*
X14674000Y-10094000I10000J0D01*
G01*
D17*
%TO.C,R31*%
X17099500Y-5570706D02*
X17099500Y-5525294D01*
X17246500Y-5570706D02*
X17246500Y-5525294D01*
D19*
%TO.C,MK1*%
X15463800Y-5549900D02*
G75*
G02*
X14863800Y-5549900I-300000J0D01*
G01*
X14863800Y-5549900D02*
G75*
G02*
X15463800Y-5549900I300000J0D01*
G01*
D17*
%TO.C,R28*%
X15879294Y-5565500D02*
X15924706Y-5565500D01*
X15879294Y-5712500D02*
X15924706Y-5712500D01*
D19*
%TO.C,S1*%
X19379400Y-9904800D02*
X19379400Y-9454800D01*
X19379400Y-9904800D02*
X19829400Y-9904800D01*
X19829400Y-9454800D02*
X19379400Y-9454800D01*
X19829400Y-9454800D02*
X19829400Y-9904800D01*
D12*
X19254400Y-9949800D02*
G75*
G02*
X19234400Y-9949800I-10000J0D01*
G01*
X19234400Y-9949800D02*
G75*
G02*
X19254400Y-9949800I10000J0D01*
G01*
D17*
%TO.C,R20*%
X20686050Y-5805356D02*
X20686050Y-5759944D01*
X20833050Y-5805356D02*
X20833050Y-5759944D01*
%TO.C,R19*%
X22271706Y-6786550D02*
X22226294Y-6786550D01*
X22271706Y-6933550D02*
X22226294Y-6933550D01*
D12*
%TO.C,C3*%
X15901000Y-7364000D02*
G75*
G02*
X15891000Y-7364000I-5000J0D01*
G01*
X15891000Y-7364000D02*
G75*
G02*
X15901000Y-7364000I5000J0D01*
G01*
D19*
%TO.C,S2*%
X18278900Y-9889700D02*
X18278900Y-9439700D01*
X18278900Y-9889700D02*
X18728900Y-9889700D01*
X18728900Y-9439700D02*
X18278900Y-9439700D01*
X18728900Y-9439700D02*
X18728900Y-9889700D01*
D12*
X18873900Y-9394700D02*
G75*
G02*
X18853900Y-9394700I-10000J0D01*
G01*
X18853900Y-9394700D02*
G75*
G02*
X18873900Y-9394700I10000J0D01*
G01*
D17*
%TO.C,R8*%
X14615500Y-8770706D02*
X14615500Y-8725294D01*
X14762500Y-8770706D02*
X14762500Y-8725294D01*
%TO.C,R9*%
X14255500Y-8763706D02*
X14255500Y-8718294D01*
X14402500Y-8763706D02*
X14402500Y-8718294D01*
D19*
%TO.C,Q1*%
X17848000Y-6193500D02*
X18137500Y-6193500D01*
X18137500Y-6193500D02*
X18137500Y-6214000D01*
X18137500Y-6389000D02*
X18137500Y-6408500D01*
X18137500Y-6408500D02*
X17847000Y-6408500D01*
D12*
X17640000Y-6231000D02*
G75*
G02*
X17620000Y-6231000I-10000J0D01*
G01*
X17620000Y-6231000D02*
G75*
G02*
X17640000Y-6231000I10000J0D01*
G01*
D17*
%TO.C,R30*%
X16390294Y-5382500D02*
X16435706Y-5382500D01*
X16390294Y-5529500D02*
X16435706Y-5529500D01*
%TO.C,C5*%
X14674500Y-7005875D02*
X14674500Y-7058125D01*
X14821500Y-7005875D02*
X14821500Y-7058125D01*
%TO.C,C16*%
X15873875Y-5312500D02*
X15926125Y-5312500D01*
X15873875Y-5459500D02*
X15926125Y-5459500D01*
%TO.C,R33*%
X18847106Y-8931200D02*
X18801694Y-8931200D01*
X18847106Y-9078200D02*
X18801694Y-9078200D01*
%TO.C,C19*%
X16439125Y-5154500D02*
X16386875Y-5154500D01*
X16439125Y-5301500D02*
X16386875Y-5301500D01*
%TO.C,J4*%
X17221000Y-4334000D02*
X17221000Y-4610000D01*
X17994000Y-4334000D02*
X17221000Y-4334000D01*
X17994000Y-4334000D02*
X17994000Y-4610000D01*
X17994000Y-4610000D02*
X17221000Y-4610000D01*
X18121000Y-4334000D02*
X18259000Y-4334000D01*
X18259000Y-4334000D02*
X18259000Y-4472000D01*
%TO.C,C8*%
X21024500Y-4962925D02*
X21024500Y-5015175D01*
X21171500Y-4962925D02*
X21171500Y-5015175D01*
%TO.C,R25*%
X19522600Y-4696306D02*
X19522600Y-4650894D01*
X19669600Y-4696306D02*
X19669600Y-4650894D01*
%TO.C,R26*%
X16783294Y-5167500D02*
X16828706Y-5167500D01*
X16783294Y-5314500D02*
X16828706Y-5314500D01*
D19*
%TO.C,U1*%
X15494000Y-9092000D02*
X15549000Y-9092000D01*
X15494000Y-9147000D02*
X15494000Y-9092000D01*
X15494000Y-9492000D02*
X15494000Y-9437000D01*
X15549000Y-9492000D02*
X15494000Y-9492000D01*
X15894000Y-9092000D02*
X15839000Y-9092000D01*
X15894000Y-9092000D02*
X15894000Y-9147000D01*
X15894000Y-9492000D02*
X15839000Y-9492000D01*
X15894000Y-9492000D02*
X15894000Y-9437000D01*
D12*
X15994000Y-9402000D02*
G75*
G02*
X15974000Y-9402000I-10000J0D01*
G01*
X15974000Y-9402000D02*
G75*
G02*
X15994000Y-9402000I10000J0D01*
G01*
D17*
%TO.C,R18*%
X16318500Y-7499806D02*
X16318500Y-7454394D01*
X16465500Y-7499806D02*
X16465500Y-7454394D01*
D12*
%TO.C,C9*%
X18539000Y-7135500D02*
G75*
G02*
X18529000Y-7135500I-5000J0D01*
G01*
X18529000Y-7135500D02*
G75*
G02*
X18539000Y-7135500I5000J0D01*
G01*
D17*
%TO.C,R11*%
X17862500Y-6967794D02*
X17862500Y-7013206D01*
X18009500Y-6967794D02*
X18009500Y-7013206D01*
%TO.C,R5*%
X15229500Y-8777706D02*
X15229500Y-8732294D01*
X15376500Y-8777706D02*
X15376500Y-8732294D01*
%TO.C,C10*%
X18037500Y-7357375D02*
X18037500Y-7409625D01*
X18184500Y-7357375D02*
X18184500Y-7409625D01*
D12*
%TO.C,F1*%
X16487700Y-8221400D02*
X16487700Y-7983800D01*
D17*
%TO.C,R1*%
X15690500Y-8770706D02*
X15690500Y-8725294D01*
X15837500Y-8770706D02*
X15837500Y-8725294D01*
D19*
%TO.C,U2*%
X18912700Y-4803600D02*
X18912700Y-4543600D01*
X19212700Y-4803600D02*
X19212700Y-4543600D01*
D12*
X18967700Y-4513600D02*
G75*
G02*
X18957700Y-4513600I-5000J0D01*
G01*
X18957700Y-4513600D02*
G75*
G02*
X18967700Y-4513600I5000J0D01*
G01*
D17*
%TO.C,C22*%
X18843525Y-9210200D02*
X18791275Y-9210200D01*
X18843525Y-9357200D02*
X18791275Y-9357200D01*
%TO.C,J5*%
X15030000Y-4320000D02*
X15030000Y-4596000D01*
X16057000Y-4320000D02*
X15030000Y-4320000D01*
X16057000Y-4320000D02*
X16057000Y-4596000D01*
X16057000Y-4596000D02*
X15030000Y-4596000D01*
X16184000Y-4320000D02*
X16322000Y-4320000D01*
X16322000Y-4320000D02*
X16322000Y-4458000D01*
D19*
%TO.C,R17*%
X17033100Y-6282000D02*
X17033100Y-6470000D01*
X17033100Y-6470000D02*
X17043100Y-6490000D01*
X17043100Y-6490000D02*
X17071100Y-6490000D01*
X17323100Y-6490000D02*
X17295100Y-6490000D01*
X17333100Y-6282000D02*
X17333100Y-6470000D01*
X17333100Y-6470000D02*
X17323100Y-6490000D01*
D12*
X17293100Y-6050000D02*
G75*
G02*
X17273100Y-6050000I-10000J0D01*
G01*
X17273100Y-6050000D02*
G75*
G02*
X17293100Y-6050000I10000J0D01*
G01*
D17*
%TO.C,C14*%
X18726400Y-6171775D02*
X18726400Y-6224025D01*
X18873400Y-6171775D02*
X18873400Y-6224025D01*
%TO.C,C15*%
X19074675Y-4943000D02*
X19126925Y-4943000D01*
X19074675Y-5090000D02*
X19126925Y-5090000D01*
D21*
%TO.C,VR1*%
X15282000Y-6479000D02*
X15406000Y-6479000D01*
X15282000Y-6829000D02*
X15282000Y-6479000D01*
X15932000Y-6479000D02*
X15808000Y-6479000D01*
X15932000Y-6829000D02*
X15932000Y-6479000D01*
D17*
%TO.C,C17*%
X15929125Y-5826500D02*
X15876875Y-5826500D01*
X15929125Y-5973500D02*
X15876875Y-5973500D01*
D19*
%TO.C,J1*%
X16733400Y-8921200D02*
X16733400Y-8991200D01*
X16733400Y-9738200D02*
X16733400Y-9946200D01*
X16733400Y-9946200D02*
X17607400Y-9946200D01*
X16848400Y-8921200D02*
X16733400Y-8921200D01*
X17492400Y-8921200D02*
X17607400Y-8921200D01*
X17607400Y-8921200D02*
X17607400Y-8991200D01*
X17607400Y-9946200D02*
X17607400Y-9738200D01*
D12*
X16900400Y-8761200D02*
G75*
G02*
X16880400Y-8761200I-10000J0D01*
G01*
X16880400Y-8761200D02*
G75*
G02*
X16900400Y-8761200I10000J0D01*
G01*
D19*
%TO.C,U3*%
X21280000Y-4179050D02*
X21280000Y-4812050D01*
X21280000Y-6179050D02*
X21280000Y-6166050D01*
X21280000Y-6179050D02*
X23080000Y-6179050D01*
X23080000Y-4179050D02*
X21280000Y-4179050D01*
X23080000Y-4812050D02*
X23080000Y-4179050D01*
X23080000Y-6179050D02*
X23080000Y-6166050D01*
D12*
X21140000Y-4889050D02*
G75*
G02*
X21120000Y-4889050I-10000J0D01*
G01*
X21120000Y-4889050D02*
G75*
G02*
X21140000Y-4889050I10000J0D01*
G01*
D17*
%TO.C,R6*%
X15463500Y-8777706D02*
X15463500Y-8732294D01*
X15610500Y-8777706D02*
X15610500Y-8732294D01*
D19*
%TO.C,J3*%
X20337000Y-7741000D02*
X20337000Y-9547000D01*
X20337000Y-9969000D02*
X20337000Y-9891000D01*
X20944000Y-7469000D02*
X21022500Y-7469000D01*
X21186500Y-7469000D02*
X21272500Y-7469000D01*
X21436500Y-7469000D02*
X21522500Y-7469000D01*
X21686500Y-7469000D02*
X21772500Y-7469000D01*
X21936500Y-7469000D02*
X22022500Y-7469000D01*
X22186500Y-7469000D02*
X22272500Y-7469000D01*
X22436500Y-7469000D02*
X22522500Y-7469000D01*
X22919000Y-7469000D02*
X22997000Y-7469000D01*
X22997000Y-7469000D02*
X22997000Y-9547000D01*
X22997000Y-9969000D02*
X20337000Y-9969000D01*
X22997000Y-9969000D02*
X22997000Y-9891000D01*
D12*
X22364500Y-7244000D02*
G75*
G02*
X22344500Y-7244000I-10000J0D01*
G01*
X22344500Y-7244000D02*
G75*
G02*
X22364500Y-7244000I10000J0D01*
G01*
D17*
%TO.C,C1*%
X17528700Y-8166825D02*
X17528700Y-8114575D01*
X17675700Y-8166825D02*
X17675700Y-8114575D01*
%TO.C,C21*%
X19704525Y-9210200D02*
X19652275Y-9210200D01*
X19704525Y-9357200D02*
X19652275Y-9357200D01*
D12*
%TO.C,F2*%
X16370300Y-8466400D02*
X16370300Y-8704000D01*
D17*
%TO.C,R7*%
X14962500Y-8763706D02*
X14962500Y-8718294D01*
X15109500Y-8763706D02*
X15109500Y-8718294D01*
%TO.C,C25*%
X23192900Y-5117375D02*
X23192900Y-5169625D01*
X23339900Y-5117375D02*
X23339900Y-5169625D01*
%TO.C,C18*%
X16792875Y-5835500D02*
X16845125Y-5835500D01*
X16792875Y-5982500D02*
X16845125Y-5982500D01*
%TO.C,Q3*%
X19528400Y-8636700D02*
X19528400Y-8571700D01*
X19528400Y-8636700D02*
X19528400Y-8701700D01*
X19840400Y-8636700D02*
X19840400Y-8571700D01*
X19840400Y-8636700D02*
X19840400Y-8701700D01*
X19533400Y-8752950D02*
X19500400Y-8776950D01*
X19500400Y-8728950D01*
X19533400Y-8752950D01*
G36*
X19533400Y-8752950D02*
G01*
X19500400Y-8776950D01*
X19500400Y-8728950D01*
X19533400Y-8752950D01*
G37*
%TO.C,R22*%
X19517206Y-6517800D02*
X19471794Y-6517800D01*
X19517206Y-6664800D02*
X19471794Y-6664800D01*
%TD*%
M02*
