%TF.GenerationSoftware,KiCad,Pcbnew,9.0.4*%
%TF.CreationDate,2025-12-28T12:05:50+05:30*%
%TF.ProjectId,ESP-32 C3 demo project004,4553502d-3332-4204-9333-2064656d6f20,rev?*%
%TF.SameCoordinates,Original*%
%TF.FileFunction,Legend,Bot*%
%TF.FilePolarity,Positive*%
%FSLAX45Y45*%
G04 Gerber Fmt 4.5, Leading zero omitted, Abs format (unit mm)*
G04 Created by KiCad (PCBNEW 9.0.4) date 2025-12-28 12:05:50*
%MOMM*%
%LPD*%
G01*
G04 APERTURE LIST*
%ADD10C,0.500000*%
%ADD11C,0.400000*%
%ADD12C,0.010000*%
G04 APERTURE END LIST*
D10*
X21930177Y-5582043D02*
X21830177Y-5582043D01*
X21787320Y-5739186D02*
X21930177Y-5739186D01*
X21930177Y-5739186D02*
X21930177Y-5439186D01*
X21930177Y-5439186D02*
X21787320Y-5439186D01*
X21673034Y-5724900D02*
X21630177Y-5739186D01*
X21630177Y-5739186D02*
X21558748Y-5739186D01*
X21558748Y-5739186D02*
X21530177Y-5724900D01*
X21530177Y-5724900D02*
X21515891Y-5710614D01*
X21515891Y-5710614D02*
X21501605Y-5682043D01*
X21501605Y-5682043D02*
X21501605Y-5653471D01*
X21501605Y-5653471D02*
X21515891Y-5624900D01*
X21515891Y-5624900D02*
X21530177Y-5610614D01*
X21530177Y-5610614D02*
X21558748Y-5596328D01*
X21558748Y-5596328D02*
X21615891Y-5582043D01*
X21615891Y-5582043D02*
X21644462Y-5567757D01*
X21644462Y-5567757D02*
X21658748Y-5553471D01*
X21658748Y-5553471D02*
X21673034Y-5524900D01*
X21673034Y-5524900D02*
X21673034Y-5496329D01*
X21673034Y-5496329D02*
X21658748Y-5467757D01*
X21658748Y-5467757D02*
X21644462Y-5453471D01*
X21644462Y-5453471D02*
X21615891Y-5439186D01*
X21615891Y-5439186D02*
X21544462Y-5439186D01*
X21544462Y-5439186D02*
X21501605Y-5453471D01*
X21373034Y-5739186D02*
X21373034Y-5439186D01*
X21373034Y-5439186D02*
X21258748Y-5439186D01*
X21258748Y-5439186D02*
X21230177Y-5453471D01*
X21230177Y-5453471D02*
X21215891Y-5467757D01*
X21215891Y-5467757D02*
X21201605Y-5496329D01*
X21201605Y-5496329D02*
X21201605Y-5539186D01*
X21201605Y-5539186D02*
X21215891Y-5567757D01*
X21215891Y-5567757D02*
X21230177Y-5582043D01*
X21230177Y-5582043D02*
X21258748Y-5596328D01*
X21258748Y-5596328D02*
X21373034Y-5596328D01*
X21101605Y-5439186D02*
X20915891Y-5439186D01*
X20915891Y-5439186D02*
X21015891Y-5553471D01*
X21015891Y-5553471D02*
X20973034Y-5553471D01*
X20973034Y-5553471D02*
X20944462Y-5567757D01*
X20944462Y-5567757D02*
X20930177Y-5582043D01*
X20930177Y-5582043D02*
X20915891Y-5610614D01*
X20915891Y-5610614D02*
X20915891Y-5682043D01*
X20915891Y-5682043D02*
X20930177Y-5710614D01*
X20930177Y-5710614D02*
X20944462Y-5724900D01*
X20944462Y-5724900D02*
X20973034Y-5739186D01*
X20973034Y-5739186D02*
X21058748Y-5739186D01*
X21058748Y-5739186D02*
X21087320Y-5724900D01*
X21087320Y-5724900D02*
X21101605Y-5710614D01*
X20801605Y-5467757D02*
X20787320Y-5453471D01*
X20787320Y-5453471D02*
X20758748Y-5439186D01*
X20758748Y-5439186D02*
X20687320Y-5439186D01*
X20687320Y-5439186D02*
X20658748Y-5453471D01*
X20658748Y-5453471D02*
X20644462Y-5467757D01*
X20644462Y-5467757D02*
X20630177Y-5496329D01*
X20630177Y-5496329D02*
X20630177Y-5524900D01*
X20630177Y-5524900D02*
X20644462Y-5567757D01*
X20644462Y-5567757D02*
X20815891Y-5739186D01*
X20815891Y-5739186D02*
X20630177Y-5739186D01*
X20501605Y-5624900D02*
X20273034Y-5624900D01*
X19958748Y-5710614D02*
X19973034Y-5724900D01*
X19973034Y-5724900D02*
X20015891Y-5739186D01*
X20015891Y-5739186D02*
X20044462Y-5739186D01*
X20044462Y-5739186D02*
X20087319Y-5724900D01*
X20087319Y-5724900D02*
X20115891Y-5696328D01*
X20115891Y-5696328D02*
X20130177Y-5667757D01*
X20130177Y-5667757D02*
X20144462Y-5610614D01*
X20144462Y-5610614D02*
X20144462Y-5567757D01*
X20144462Y-5567757D02*
X20130177Y-5510614D01*
X20130177Y-5510614D02*
X20115891Y-5482043D01*
X20115891Y-5482043D02*
X20087319Y-5453471D01*
X20087319Y-5453471D02*
X20044462Y-5439186D01*
X20044462Y-5439186D02*
X20015891Y-5439186D01*
X20015891Y-5439186D02*
X19973034Y-5453471D01*
X19973034Y-5453471D02*
X19958748Y-5467757D01*
X19858748Y-5439186D02*
X19673034Y-5439186D01*
X19673034Y-5439186D02*
X19773034Y-5553471D01*
X19773034Y-5553471D02*
X19730177Y-5553471D01*
X19730177Y-5553471D02*
X19701605Y-5567757D01*
X19701605Y-5567757D02*
X19687319Y-5582043D01*
X19687319Y-5582043D02*
X19673034Y-5610614D01*
X19673034Y-5610614D02*
X19673034Y-5682043D01*
X19673034Y-5682043D02*
X19687319Y-5710614D01*
X19687319Y-5710614D02*
X19701605Y-5724900D01*
X19701605Y-5724900D02*
X19730177Y-5739186D01*
X19730177Y-5739186D02*
X19815891Y-5739186D01*
X19815891Y-5739186D02*
X19844462Y-5724900D01*
X19844462Y-5724900D02*
X19858748Y-5710614D01*
X19330177Y-5724900D02*
X19287320Y-5739186D01*
X19287320Y-5739186D02*
X19215891Y-5739186D01*
X19215891Y-5739186D02*
X19187320Y-5724900D01*
X19187320Y-5724900D02*
X19173034Y-5710614D01*
X19173034Y-5710614D02*
X19158748Y-5682043D01*
X19158748Y-5682043D02*
X19158748Y-5653471D01*
X19158748Y-5653471D02*
X19173034Y-5624900D01*
X19173034Y-5624900D02*
X19187320Y-5610614D01*
X19187320Y-5610614D02*
X19215891Y-5596328D01*
X19215891Y-5596328D02*
X19273034Y-5582043D01*
X19273034Y-5582043D02*
X19301605Y-5567757D01*
X19301605Y-5567757D02*
X19315891Y-5553471D01*
X19315891Y-5553471D02*
X19330177Y-5524900D01*
X19330177Y-5524900D02*
X19330177Y-5496329D01*
X19330177Y-5496329D02*
X19315891Y-5467757D01*
X19315891Y-5467757D02*
X19301605Y-5453471D01*
X19301605Y-5453471D02*
X19273034Y-5439186D01*
X19273034Y-5439186D02*
X19201605Y-5439186D01*
X19201605Y-5439186D02*
X19158748Y-5453471D01*
X18915891Y-5724900D02*
X18944462Y-5739186D01*
X18944462Y-5739186D02*
X19001605Y-5739186D01*
X19001605Y-5739186D02*
X19030177Y-5724900D01*
X19030177Y-5724900D02*
X19044462Y-5696328D01*
X19044462Y-5696328D02*
X19044462Y-5582043D01*
X19044462Y-5582043D02*
X19030177Y-5553471D01*
X19030177Y-5553471D02*
X19001605Y-5539186D01*
X19001605Y-5539186D02*
X18944462Y-5539186D01*
X18944462Y-5539186D02*
X18915891Y-5553471D01*
X18915891Y-5553471D02*
X18901605Y-5582043D01*
X18901605Y-5582043D02*
X18901605Y-5610614D01*
X18901605Y-5610614D02*
X19044462Y-5639186D01*
X18773034Y-5539186D02*
X18773034Y-5739186D01*
X18773034Y-5567757D02*
X18758748Y-5553471D01*
X18758748Y-5553471D02*
X18730177Y-5539186D01*
X18730177Y-5539186D02*
X18687319Y-5539186D01*
X18687319Y-5539186D02*
X18658748Y-5553471D01*
X18658748Y-5553471D02*
X18644462Y-5582043D01*
X18644462Y-5582043D02*
X18644462Y-5739186D01*
X18515891Y-5724900D02*
X18487319Y-5739186D01*
X18487319Y-5739186D02*
X18430177Y-5739186D01*
X18430177Y-5739186D02*
X18401605Y-5724900D01*
X18401605Y-5724900D02*
X18387319Y-5696328D01*
X18387319Y-5696328D02*
X18387319Y-5682043D01*
X18387319Y-5682043D02*
X18401605Y-5653471D01*
X18401605Y-5653471D02*
X18430177Y-5639186D01*
X18430177Y-5639186D02*
X18473034Y-5639186D01*
X18473034Y-5639186D02*
X18501605Y-5624900D01*
X18501605Y-5624900D02*
X18515891Y-5596328D01*
X18515891Y-5596328D02*
X18515891Y-5582043D01*
X18515891Y-5582043D02*
X18501605Y-5553471D01*
X18501605Y-5553471D02*
X18473034Y-5539186D01*
X18473034Y-5539186D02*
X18430177Y-5539186D01*
X18430177Y-5539186D02*
X18401605Y-5553471D01*
X18215891Y-5739186D02*
X18244462Y-5724900D01*
X18244462Y-5724900D02*
X18258748Y-5710614D01*
X18258748Y-5710614D02*
X18273034Y-5682043D01*
X18273034Y-5682043D02*
X18273034Y-5596328D01*
X18273034Y-5596328D02*
X18258748Y-5567757D01*
X18258748Y-5567757D02*
X18244462Y-5553471D01*
X18244462Y-5553471D02*
X18215891Y-5539186D01*
X18215891Y-5539186D02*
X18173034Y-5539186D01*
X18173034Y-5539186D02*
X18144462Y-5553471D01*
X18144462Y-5553471D02*
X18130177Y-5567757D01*
X18130177Y-5567757D02*
X18115891Y-5596328D01*
X18115891Y-5596328D02*
X18115891Y-5682043D01*
X18115891Y-5682043D02*
X18130177Y-5710614D01*
X18130177Y-5710614D02*
X18144462Y-5724900D01*
X18144462Y-5724900D02*
X18173034Y-5739186D01*
X18173034Y-5739186D02*
X18215891Y-5739186D01*
X17987319Y-5739186D02*
X17987319Y-5539186D01*
X17987319Y-5596328D02*
X17973034Y-5567757D01*
X17973034Y-5567757D02*
X17958748Y-5553471D01*
X17958748Y-5553471D02*
X17930177Y-5539186D01*
X17930177Y-5539186D02*
X17901605Y-5539186D01*
X17473034Y-5582043D02*
X17430177Y-5596328D01*
X17430177Y-5596328D02*
X17415891Y-5610614D01*
X17415891Y-5610614D02*
X17401605Y-5639186D01*
X17401605Y-5639186D02*
X17401605Y-5682043D01*
X17401605Y-5682043D02*
X17415891Y-5710614D01*
X17415891Y-5710614D02*
X17430177Y-5724900D01*
X17430177Y-5724900D02*
X17458748Y-5739186D01*
X17458748Y-5739186D02*
X17573034Y-5739186D01*
X17573034Y-5739186D02*
X17573034Y-5439186D01*
X17573034Y-5439186D02*
X17473034Y-5439186D01*
X17473034Y-5439186D02*
X17444462Y-5453471D01*
X17444462Y-5453471D02*
X17430177Y-5467757D01*
X17430177Y-5467757D02*
X17415891Y-5496329D01*
X17415891Y-5496329D02*
X17415891Y-5524900D01*
X17415891Y-5524900D02*
X17430177Y-5553471D01*
X17430177Y-5553471D02*
X17444462Y-5567757D01*
X17444462Y-5567757D02*
X17473034Y-5582043D01*
X17473034Y-5582043D02*
X17573034Y-5582043D01*
X17230177Y-5739186D02*
X17258748Y-5724900D01*
X17258748Y-5724900D02*
X17273034Y-5710614D01*
X17273034Y-5710614D02*
X17287319Y-5682043D01*
X17287319Y-5682043D02*
X17287319Y-5596328D01*
X17287319Y-5596328D02*
X17273034Y-5567757D01*
X17273034Y-5567757D02*
X17258748Y-5553471D01*
X17258748Y-5553471D02*
X17230177Y-5539186D01*
X17230177Y-5539186D02*
X17187319Y-5539186D01*
X17187319Y-5539186D02*
X17158748Y-5553471D01*
X17158748Y-5553471D02*
X17144462Y-5567757D01*
X17144462Y-5567757D02*
X17130177Y-5596328D01*
X17130177Y-5596328D02*
X17130177Y-5682043D01*
X17130177Y-5682043D02*
X17144462Y-5710614D01*
X17144462Y-5710614D02*
X17158748Y-5724900D01*
X17158748Y-5724900D02*
X17187319Y-5739186D01*
X17187319Y-5739186D02*
X17230177Y-5739186D01*
X16873034Y-5739186D02*
X16873034Y-5582043D01*
X16873034Y-5582043D02*
X16887319Y-5553471D01*
X16887319Y-5553471D02*
X16915891Y-5539186D01*
X16915891Y-5539186D02*
X16973034Y-5539186D01*
X16973034Y-5539186D02*
X17001605Y-5553471D01*
X16873034Y-5724900D02*
X16901605Y-5739186D01*
X16901605Y-5739186D02*
X16973034Y-5739186D01*
X16973034Y-5739186D02*
X17001605Y-5724900D01*
X17001605Y-5724900D02*
X17015891Y-5696328D01*
X17015891Y-5696328D02*
X17015891Y-5667757D01*
X17015891Y-5667757D02*
X17001605Y-5639186D01*
X17001605Y-5639186D02*
X16973034Y-5624900D01*
X16973034Y-5624900D02*
X16901605Y-5624900D01*
X16901605Y-5624900D02*
X16873034Y-5610614D01*
X16730176Y-5739186D02*
X16730176Y-5539186D01*
X16730176Y-5596328D02*
X16715891Y-5567757D01*
X16715891Y-5567757D02*
X16701605Y-5553471D01*
X16701605Y-5553471D02*
X16673034Y-5539186D01*
X16673034Y-5539186D02*
X16644462Y-5539186D01*
X16415891Y-5739186D02*
X16415891Y-5439186D01*
X16415891Y-5724900D02*
X16444462Y-5739186D01*
X16444462Y-5739186D02*
X16501605Y-5739186D01*
X16501605Y-5739186D02*
X16530176Y-5724900D01*
X16530176Y-5724900D02*
X16544462Y-5710614D01*
X16544462Y-5710614D02*
X16558748Y-5682043D01*
X16558748Y-5682043D02*
X16558748Y-5596328D01*
X16558748Y-5596328D02*
X16544462Y-5567757D01*
X16544462Y-5567757D02*
X16530176Y-5553471D01*
X16530176Y-5553471D02*
X16501605Y-5539186D01*
X16501605Y-5539186D02*
X16444462Y-5539186D01*
X16444462Y-5539186D02*
X16415891Y-5553471D01*
X21909534Y-5932424D02*
X21809534Y-6132424D01*
X21809534Y-6132424D02*
X21709534Y-5932424D01*
X21623820Y-5951471D02*
X21609534Y-5941948D01*
X21609534Y-5941948D02*
X21580962Y-5932424D01*
X21580962Y-5932424D02*
X21509534Y-5932424D01*
X21509534Y-5932424D02*
X21480962Y-5941948D01*
X21480962Y-5941948D02*
X21466677Y-5951471D01*
X21466677Y-5951471D02*
X21452391Y-5970519D01*
X21452391Y-5970519D02*
X21452391Y-5989567D01*
X21452391Y-5989567D02*
X21466677Y-6018138D01*
X21466677Y-6018138D02*
X21638105Y-6132424D01*
X21638105Y-6132424D02*
X21452391Y-6132424D01*
X21323820Y-6113376D02*
X21309534Y-6122900D01*
X21309534Y-6122900D02*
X21323820Y-6132424D01*
X21323820Y-6132424D02*
X21338105Y-6122900D01*
X21338105Y-6122900D02*
X21323820Y-6113376D01*
X21323820Y-6113376D02*
X21323820Y-6132424D01*
X21123820Y-5932424D02*
X21095248Y-5932424D01*
X21095248Y-5932424D02*
X21066677Y-5941948D01*
X21066677Y-5941948D02*
X21052391Y-5951471D01*
X21052391Y-5951471D02*
X21038105Y-5970519D01*
X21038105Y-5970519D02*
X21023820Y-6008614D01*
X21023820Y-6008614D02*
X21023820Y-6056233D01*
X21023820Y-6056233D02*
X21038105Y-6094328D01*
X21038105Y-6094328D02*
X21052391Y-6113376D01*
X21052391Y-6113376D02*
X21066677Y-6122900D01*
X21066677Y-6122900D02*
X21095248Y-6132424D01*
X21095248Y-6132424D02*
X21123820Y-6132424D01*
X21123820Y-6132424D02*
X21152391Y-6122900D01*
X21152391Y-6122900D02*
X21166677Y-6113376D01*
X21166677Y-6113376D02*
X21180962Y-6094328D01*
X21180962Y-6094328D02*
X21195248Y-6056233D01*
X21195248Y-6056233D02*
X21195248Y-6008614D01*
X21195248Y-6008614D02*
X21180962Y-5970519D01*
X21180962Y-5970519D02*
X21166677Y-5951471D01*
X21166677Y-5951471D02*
X21152391Y-5941948D01*
X21152391Y-5941948D02*
X21123820Y-5932424D01*
D11*
X22328880Y-8721119D02*
X22338403Y-8730642D01*
X22338403Y-8730642D02*
X22366975Y-8740166D01*
X22366975Y-8740166D02*
X22386022Y-8740166D01*
X22386022Y-8740166D02*
X22414594Y-8730642D01*
X22414594Y-8730642D02*
X22433641Y-8711595D01*
X22433641Y-8711595D02*
X22443165Y-8692547D01*
X22443165Y-8692547D02*
X22452689Y-8654452D01*
X22452689Y-8654452D02*
X22452689Y-8625880D01*
X22452689Y-8625880D02*
X22443165Y-8587785D01*
X22443165Y-8587785D02*
X22433641Y-8568738D01*
X22433641Y-8568738D02*
X22414594Y-8549690D01*
X22414594Y-8549690D02*
X22386022Y-8540166D01*
X22386022Y-8540166D02*
X22366975Y-8540166D01*
X22366975Y-8540166D02*
X22338403Y-8549690D01*
X22338403Y-8549690D02*
X22328880Y-8559214D01*
X22243165Y-8740166D02*
X22243165Y-8606833D01*
X22243165Y-8644928D02*
X22233641Y-8625880D01*
X22233641Y-8625880D02*
X22224118Y-8616357D01*
X22224118Y-8616357D02*
X22205070Y-8606833D01*
X22205070Y-8606833D02*
X22186022Y-8606833D01*
X22043165Y-8730642D02*
X22062213Y-8740166D01*
X22062213Y-8740166D02*
X22100308Y-8740166D01*
X22100308Y-8740166D02*
X22119356Y-8730642D01*
X22119356Y-8730642D02*
X22128880Y-8711595D01*
X22128880Y-8711595D02*
X22128880Y-8635404D01*
X22128880Y-8635404D02*
X22119356Y-8616357D01*
X22119356Y-8616357D02*
X22100308Y-8606833D01*
X22100308Y-8606833D02*
X22062213Y-8606833D01*
X22062213Y-8606833D02*
X22043165Y-8616357D01*
X22043165Y-8616357D02*
X22033641Y-8635404D01*
X22033641Y-8635404D02*
X22033641Y-8654452D01*
X22033641Y-8654452D02*
X22128880Y-8673500D01*
X21862213Y-8740166D02*
X21862213Y-8635404D01*
X21862213Y-8635404D02*
X21871737Y-8616357D01*
X21871737Y-8616357D02*
X21890784Y-8606833D01*
X21890784Y-8606833D02*
X21928880Y-8606833D01*
X21928880Y-8606833D02*
X21947927Y-8616357D01*
X21862213Y-8730642D02*
X21881260Y-8740166D01*
X21881260Y-8740166D02*
X21928880Y-8740166D01*
X21928880Y-8740166D02*
X21947927Y-8730642D01*
X21947927Y-8730642D02*
X21957451Y-8711595D01*
X21957451Y-8711595D02*
X21957451Y-8692547D01*
X21957451Y-8692547D02*
X21947927Y-8673500D01*
X21947927Y-8673500D02*
X21928880Y-8663976D01*
X21928880Y-8663976D02*
X21881260Y-8663976D01*
X21881260Y-8663976D02*
X21862213Y-8654452D01*
X21795546Y-8606833D02*
X21719356Y-8606833D01*
X21766975Y-8540166D02*
X21766975Y-8711595D01*
X21766975Y-8711595D02*
X21757451Y-8730642D01*
X21757451Y-8730642D02*
X21738403Y-8740166D01*
X21738403Y-8740166D02*
X21719356Y-8740166D01*
X21576499Y-8730642D02*
X21595546Y-8740166D01*
X21595546Y-8740166D02*
X21633641Y-8740166D01*
X21633641Y-8740166D02*
X21652689Y-8730642D01*
X21652689Y-8730642D02*
X21662213Y-8711595D01*
X21662213Y-8711595D02*
X21662213Y-8635404D01*
X21662213Y-8635404D02*
X21652689Y-8616357D01*
X21652689Y-8616357D02*
X21633641Y-8606833D01*
X21633641Y-8606833D02*
X21595546Y-8606833D01*
X21595546Y-8606833D02*
X21576499Y-8616357D01*
X21576499Y-8616357D02*
X21566975Y-8635404D01*
X21566975Y-8635404D02*
X21566975Y-8654452D01*
X21566975Y-8654452D02*
X21662213Y-8673500D01*
X21395546Y-8740166D02*
X21395546Y-8540166D01*
X21395546Y-8730642D02*
X21414594Y-8740166D01*
X21414594Y-8740166D02*
X21452689Y-8740166D01*
X21452689Y-8740166D02*
X21471737Y-8730642D01*
X21471737Y-8730642D02*
X21481260Y-8721119D01*
X21481260Y-8721119D02*
X21490784Y-8702071D01*
X21490784Y-8702071D02*
X21490784Y-8644928D01*
X21490784Y-8644928D02*
X21481260Y-8625880D01*
X21481260Y-8625880D02*
X21471737Y-8616357D01*
X21471737Y-8616357D02*
X21452689Y-8606833D01*
X21452689Y-8606833D02*
X21414594Y-8606833D01*
X21414594Y-8606833D02*
X21395546Y-8616357D01*
X21081260Y-8635404D02*
X21052689Y-8644928D01*
X21052689Y-8644928D02*
X21043165Y-8654452D01*
X21043165Y-8654452D02*
X21033641Y-8673500D01*
X21033641Y-8673500D02*
X21033641Y-8702071D01*
X21033641Y-8702071D02*
X21043165Y-8721119D01*
X21043165Y-8721119D02*
X21052689Y-8730642D01*
X21052689Y-8730642D02*
X21071737Y-8740166D01*
X21071737Y-8740166D02*
X21147927Y-8740166D01*
X21147927Y-8740166D02*
X21147927Y-8540166D01*
X21147927Y-8540166D02*
X21081260Y-8540166D01*
X21081260Y-8540166D02*
X21062213Y-8549690D01*
X21062213Y-8549690D02*
X21052689Y-8559214D01*
X21052689Y-8559214D02*
X21043165Y-8578261D01*
X21043165Y-8578261D02*
X21043165Y-8597309D01*
X21043165Y-8597309D02*
X21052689Y-8616357D01*
X21052689Y-8616357D02*
X21062213Y-8625880D01*
X21062213Y-8625880D02*
X21081260Y-8635404D01*
X21081260Y-8635404D02*
X21147927Y-8635404D01*
X20966975Y-8606833D02*
X20919356Y-8740166D01*
X20871737Y-8606833D02*
X20919356Y-8740166D01*
X20919356Y-8740166D02*
X20938403Y-8787785D01*
X20938403Y-8787785D02*
X20947927Y-8797309D01*
X20947927Y-8797309D02*
X20966975Y-8806833D01*
X20786022Y-8730642D02*
X20786022Y-8740166D01*
X20786022Y-8740166D02*
X20795546Y-8759214D01*
X20795546Y-8759214D02*
X20805070Y-8768738D01*
X22405070Y-8966917D02*
X22405070Y-9062155D01*
X22471737Y-8862155D02*
X22405070Y-8966917D01*
X22405070Y-8966917D02*
X22338403Y-8862155D01*
X22271737Y-8862155D02*
X22271737Y-9024060D01*
X22271737Y-9024060D02*
X22262213Y-9043107D01*
X22262213Y-9043107D02*
X22252689Y-9052631D01*
X22252689Y-9052631D02*
X22233641Y-9062155D01*
X22233641Y-9062155D02*
X22195546Y-9062155D01*
X22195546Y-9062155D02*
X22176499Y-9052631D01*
X22176499Y-9052631D02*
X22166975Y-9043107D01*
X22166975Y-9043107D02*
X22157451Y-9024060D01*
X22157451Y-9024060D02*
X22157451Y-8862155D01*
X22062213Y-9062155D02*
X22062213Y-8862155D01*
X21947927Y-9062155D02*
X22033641Y-8947869D01*
X21947927Y-8862155D02*
X22062213Y-8976441D01*
X21862213Y-8957393D02*
X21795546Y-8957393D01*
X21766975Y-9062155D02*
X21862213Y-9062155D01*
X21862213Y-9062155D02*
X21862213Y-8862155D01*
X21862213Y-8862155D02*
X21766975Y-8862155D01*
X21690784Y-9052631D02*
X21662213Y-9062155D01*
X21662213Y-9062155D02*
X21614594Y-9062155D01*
X21614594Y-9062155D02*
X21595546Y-9052631D01*
X21595546Y-9052631D02*
X21586022Y-9043107D01*
X21586022Y-9043107D02*
X21576499Y-9024060D01*
X21576499Y-9024060D02*
X21576499Y-9005012D01*
X21576499Y-9005012D02*
X21586022Y-8985965D01*
X21586022Y-8985965D02*
X21595546Y-8976441D01*
X21595546Y-8976441D02*
X21614594Y-8966917D01*
X21614594Y-8966917D02*
X21652689Y-8957393D01*
X21652689Y-8957393D02*
X21671737Y-8947869D01*
X21671737Y-8947869D02*
X21681260Y-8938345D01*
X21681260Y-8938345D02*
X21690784Y-8919298D01*
X21690784Y-8919298D02*
X21690784Y-8900250D01*
X21690784Y-8900250D02*
X21681260Y-8881203D01*
X21681260Y-8881203D02*
X21671737Y-8871679D01*
X21671737Y-8871679D02*
X21652689Y-8862155D01*
X21652689Y-8862155D02*
X21605070Y-8862155D01*
X21605070Y-8862155D02*
X21576499Y-8871679D01*
X21490784Y-9062155D02*
X21490784Y-8862155D01*
X21490784Y-8957393D02*
X21376499Y-8957393D01*
X21376499Y-9062155D02*
X21376499Y-8862155D01*
X21138403Y-9052631D02*
X21109832Y-9062155D01*
X21109832Y-9062155D02*
X21062213Y-9062155D01*
X21062213Y-9062155D02*
X21043165Y-9052631D01*
X21043165Y-9052631D02*
X21033641Y-9043107D01*
X21033641Y-9043107D02*
X21024118Y-9024060D01*
X21024118Y-9024060D02*
X21024118Y-9005012D01*
X21024118Y-9005012D02*
X21033641Y-8985965D01*
X21033641Y-8985965D02*
X21043165Y-8976441D01*
X21043165Y-8976441D02*
X21062213Y-8966917D01*
X21062213Y-8966917D02*
X21100308Y-8957393D01*
X21100308Y-8957393D02*
X21119356Y-8947869D01*
X21119356Y-8947869D02*
X21128879Y-8938345D01*
X21128879Y-8938345D02*
X21138403Y-8919298D01*
X21138403Y-8919298D02*
X21138403Y-8900250D01*
X21138403Y-8900250D02*
X21128879Y-8881203D01*
X21128879Y-8881203D02*
X21119356Y-8871679D01*
X21119356Y-8871679D02*
X21100308Y-8862155D01*
X21100308Y-8862155D02*
X21052689Y-8862155D01*
X21052689Y-8862155D02*
X21024118Y-8871679D01*
X22452689Y-9203191D02*
X22443165Y-9193668D01*
X22443165Y-9193668D02*
X22424118Y-9184144D01*
X22424118Y-9184144D02*
X22376498Y-9184144D01*
X22376498Y-9184144D02*
X22357451Y-9193668D01*
X22357451Y-9193668D02*
X22347927Y-9203191D01*
X22347927Y-9203191D02*
X22338403Y-9222239D01*
X22338403Y-9222239D02*
X22338403Y-9241287D01*
X22338403Y-9241287D02*
X22347927Y-9269858D01*
X22347927Y-9269858D02*
X22462213Y-9384144D01*
X22462213Y-9384144D02*
X22338403Y-9384144D01*
X22214594Y-9184144D02*
X22195546Y-9184144D01*
X22195546Y-9184144D02*
X22176499Y-9193668D01*
X22176499Y-9193668D02*
X22166975Y-9203191D01*
X22166975Y-9203191D02*
X22157451Y-9222239D01*
X22157451Y-9222239D02*
X22147927Y-9260334D01*
X22147927Y-9260334D02*
X22147927Y-9307953D01*
X22147927Y-9307953D02*
X22157451Y-9346049D01*
X22157451Y-9346049D02*
X22166975Y-9365096D01*
X22166975Y-9365096D02*
X22176499Y-9374620D01*
X22176499Y-9374620D02*
X22195546Y-9384144D01*
X22195546Y-9384144D02*
X22214594Y-9384144D01*
X22214594Y-9384144D02*
X22233641Y-9374620D01*
X22233641Y-9374620D02*
X22243165Y-9365096D01*
X22243165Y-9365096D02*
X22252689Y-9346049D01*
X22252689Y-9346049D02*
X22262213Y-9307953D01*
X22262213Y-9307953D02*
X22262213Y-9260334D01*
X22262213Y-9260334D02*
X22252689Y-9222239D01*
X22252689Y-9222239D02*
X22243165Y-9203191D01*
X22243165Y-9203191D02*
X22233641Y-9193668D01*
X22233641Y-9193668D02*
X22214594Y-9184144D01*
X22071737Y-9203191D02*
X22062213Y-9193668D01*
X22062213Y-9193668D02*
X22043165Y-9184144D01*
X22043165Y-9184144D02*
X21995546Y-9184144D01*
X21995546Y-9184144D02*
X21976499Y-9193668D01*
X21976499Y-9193668D02*
X21966975Y-9203191D01*
X21966975Y-9203191D02*
X21957451Y-9222239D01*
X21957451Y-9222239D02*
X21957451Y-9241287D01*
X21957451Y-9241287D02*
X21966975Y-9269858D01*
X21966975Y-9269858D02*
X22081260Y-9384144D01*
X22081260Y-9384144D02*
X21957451Y-9384144D01*
X21786022Y-9250810D02*
X21786022Y-9384144D01*
X21833641Y-9174620D02*
X21881260Y-9317477D01*
X21881260Y-9317477D02*
X21757451Y-9317477D01*
X21576499Y-9384144D02*
X21690784Y-9384144D01*
X21633641Y-9384144D02*
X21633641Y-9184144D01*
X21633641Y-9184144D02*
X21652689Y-9212715D01*
X21652689Y-9212715D02*
X21671737Y-9231763D01*
X21671737Y-9231763D02*
X21690784Y-9241287D01*
X21452689Y-9184144D02*
X21433641Y-9184144D01*
X21433641Y-9184144D02*
X21414594Y-9193668D01*
X21414594Y-9193668D02*
X21405070Y-9203191D01*
X21405070Y-9203191D02*
X21395546Y-9222239D01*
X21395546Y-9222239D02*
X21386022Y-9260334D01*
X21386022Y-9260334D02*
X21386022Y-9307953D01*
X21386022Y-9307953D02*
X21395546Y-9346049D01*
X21395546Y-9346049D02*
X21405070Y-9365096D01*
X21405070Y-9365096D02*
X21414594Y-9374620D01*
X21414594Y-9374620D02*
X21433641Y-9384144D01*
X21433641Y-9384144D02*
X21452689Y-9384144D01*
X21452689Y-9384144D02*
X21471737Y-9374620D01*
X21471737Y-9374620D02*
X21481260Y-9365096D01*
X21481260Y-9365096D02*
X21490784Y-9346049D01*
X21490784Y-9346049D02*
X21500308Y-9307953D01*
X21500308Y-9307953D02*
X21500308Y-9260334D01*
X21500308Y-9260334D02*
X21490784Y-9222239D01*
X21490784Y-9222239D02*
X21481260Y-9203191D01*
X21481260Y-9203191D02*
X21471737Y-9193668D01*
X21471737Y-9193668D02*
X21452689Y-9184144D01*
X21214594Y-9250810D02*
X21214594Y-9384144D01*
X21262213Y-9174620D02*
X21309832Y-9317477D01*
X21309832Y-9317477D02*
X21186022Y-9317477D01*
X21071737Y-9184144D02*
X21052689Y-9184144D01*
X21052689Y-9184144D02*
X21033641Y-9193668D01*
X21033641Y-9193668D02*
X21024118Y-9203191D01*
X21024118Y-9203191D02*
X21014594Y-9222239D01*
X21014594Y-9222239D02*
X21005070Y-9260334D01*
X21005070Y-9260334D02*
X21005070Y-9307953D01*
X21005070Y-9307953D02*
X21014594Y-9346049D01*
X21014594Y-9346049D02*
X21024118Y-9365096D01*
X21024118Y-9365096D02*
X21033641Y-9374620D01*
X21033641Y-9374620D02*
X21052689Y-9384144D01*
X21052689Y-9384144D02*
X21071737Y-9384144D01*
X21071737Y-9384144D02*
X21090784Y-9374620D01*
X21090784Y-9374620D02*
X21100308Y-9365096D01*
X21100308Y-9365096D02*
X21109832Y-9346049D01*
X21109832Y-9346049D02*
X21119356Y-9307953D01*
X21119356Y-9307953D02*
X21119356Y-9260334D01*
X21119356Y-9260334D02*
X21109832Y-9222239D01*
X21109832Y-9222239D02*
X21100308Y-9203191D01*
X21100308Y-9203191D02*
X21090784Y-9193668D01*
X21090784Y-9193668D02*
X21071737Y-9184144D01*
X20814594Y-9384144D02*
X20928879Y-9384144D01*
X20871737Y-9384144D02*
X20871737Y-9184144D01*
X20871737Y-9184144D02*
X20890784Y-9212715D01*
X20890784Y-9212715D02*
X20909832Y-9231763D01*
X20909832Y-9231763D02*
X20928879Y-9241287D01*
X20690784Y-9184144D02*
X20671737Y-9184144D01*
X20671737Y-9184144D02*
X20652689Y-9193668D01*
X20652689Y-9193668D02*
X20643165Y-9203191D01*
X20643165Y-9203191D02*
X20633641Y-9222239D01*
X20633641Y-9222239D02*
X20624118Y-9260334D01*
X20624118Y-9260334D02*
X20624118Y-9307953D01*
X20624118Y-9307953D02*
X20633641Y-9346049D01*
X20633641Y-9346049D02*
X20643165Y-9365096D01*
X20643165Y-9365096D02*
X20652689Y-9374620D01*
X20652689Y-9374620D02*
X20671737Y-9384144D01*
X20671737Y-9384144D02*
X20690784Y-9384144D01*
X20690784Y-9384144D02*
X20709832Y-9374620D01*
X20709832Y-9374620D02*
X20719356Y-9365096D01*
X20719356Y-9365096D02*
X20728879Y-9346049D01*
X20728879Y-9346049D02*
X20738403Y-9307953D01*
X20738403Y-9307953D02*
X20738403Y-9260334D01*
X20738403Y-9260334D02*
X20728879Y-9222239D01*
X20728879Y-9222239D02*
X20719356Y-9203191D01*
X20719356Y-9203191D02*
X20709832Y-9193668D01*
X20709832Y-9193668D02*
X20690784Y-9184144D01*
D12*
%TO.C,REF\u002A\u002A*%
X15636068Y-8553404D02*
X15641235Y-8556558D01*
X15646589Y-8560893D01*
X15646589Y-8690962D01*
X15641235Y-8695298D01*
X15634935Y-8698808D01*
X15627743Y-8698976D01*
X15621427Y-8694859D01*
X15620648Y-8693922D01*
X15619550Y-8692020D01*
X15618705Y-8689271D01*
X15618080Y-8685149D01*
X15617642Y-8679127D01*
X15617359Y-8670676D01*
X15617197Y-8659271D01*
X15617124Y-8644384D01*
X15617107Y-8625489D01*
X15617107Y-8560893D01*
X15622461Y-8556558D01*
X15627225Y-8553590D01*
X15631848Y-8552222D01*
X15636068Y-8553404D01*
G36*
X15636068Y-8553404D02*
G01*
X15641235Y-8556558D01*
X15646589Y-8560893D01*
X15646589Y-8690962D01*
X15641235Y-8695298D01*
X15634935Y-8698808D01*
X15627743Y-8698976D01*
X15621427Y-8694859D01*
X15620648Y-8693922D01*
X15619550Y-8692020D01*
X15618705Y-8689271D01*
X15618080Y-8685149D01*
X15617642Y-8679127D01*
X15617359Y-8670676D01*
X15617197Y-8659271D01*
X15617124Y-8644384D01*
X15617107Y-8625489D01*
X15617107Y-8560893D01*
X15622461Y-8556558D01*
X15627225Y-8553590D01*
X15631848Y-8552222D01*
X15636068Y-8553404D01*
G37*
X17068581Y-8553105D02*
X17075442Y-8557789D01*
X17081009Y-8563355D01*
X17081009Y-8626245D01*
X17081001Y-8643126D01*
X17080949Y-8658037D01*
X17080814Y-8669438D01*
X17080557Y-8677870D01*
X17080140Y-8683872D01*
X17079522Y-8687984D01*
X17078665Y-8690747D01*
X17077530Y-8692701D01*
X17076078Y-8694384D01*
X17069757Y-8698696D01*
X17062692Y-8699051D01*
X17056062Y-8695097D01*
X17054996Y-8693918D01*
X17053901Y-8692093D01*
X17053065Y-8689413D01*
X17052451Y-8685352D01*
X17052026Y-8679384D01*
X17051756Y-8670983D01*
X17051606Y-8659624D01*
X17051541Y-8644781D01*
X17051527Y-8625928D01*
X17051535Y-8610728D01*
X17051586Y-8595076D01*
X17051715Y-8583021D01*
X17051957Y-8574035D01*
X17052346Y-8567594D01*
X17052917Y-8563172D01*
X17053703Y-8560242D01*
X17054740Y-8558279D01*
X17056062Y-8556758D01*
X17061925Y-8552937D01*
X17068581Y-8553105D01*
G36*
X17068581Y-8553105D02*
G01*
X17075442Y-8557789D01*
X17081009Y-8563355D01*
X17081009Y-8626245D01*
X17081001Y-8643126D01*
X17080949Y-8658037D01*
X17080814Y-8669438D01*
X17080557Y-8677870D01*
X17080140Y-8683872D01*
X17079522Y-8687984D01*
X17078665Y-8690747D01*
X17077530Y-8692701D01*
X17076078Y-8694384D01*
X17069757Y-8698696D01*
X17062692Y-8699051D01*
X17056062Y-8695097D01*
X17054996Y-8693918D01*
X17053901Y-8692093D01*
X17053065Y-8689413D01*
X17052451Y-8685352D01*
X17052026Y-8679384D01*
X17051756Y-8670983D01*
X17051606Y-8659624D01*
X17051541Y-8644781D01*
X17051527Y-8625928D01*
X17051535Y-8610728D01*
X17051586Y-8595076D01*
X17051715Y-8583021D01*
X17051957Y-8574035D01*
X17052346Y-8567594D01*
X17052917Y-8563172D01*
X17053703Y-8560242D01*
X17054740Y-8558279D01*
X17056062Y-8556758D01*
X17061925Y-8552937D01*
X17068581Y-8553105D01*
G37*
X17074229Y-7269024D02*
X17095221Y-7274167D01*
X17115118Y-7283398D01*
X17133295Y-7296719D01*
X17149123Y-7314130D01*
X17161977Y-7335633D01*
X17165423Y-7343208D01*
X17168214Y-7350886D01*
X17169781Y-7358561D01*
X17170467Y-7368055D01*
X17170620Y-7381188D01*
X17170528Y-7392119D01*
X17169973Y-7402164D01*
X17168614Y-7410002D01*
X17166111Y-7417431D01*
X17162125Y-7426252D01*
X17160971Y-7428603D01*
X17147341Y-7450129D01*
X17130197Y-7467840D01*
X17110028Y-7481320D01*
X17087318Y-7490154D01*
X17075666Y-7492619D01*
X17052027Y-7493772D01*
X17029131Y-7490040D01*
X17007649Y-7481804D01*
X16988254Y-7469447D01*
X16971615Y-7453353D01*
X16958406Y-7433903D01*
X16949296Y-7411480D01*
X16945963Y-7393131D01*
X16945663Y-7372882D01*
X16948374Y-7353185D01*
X16953966Y-7336123D01*
X16960428Y-7323926D01*
X16974814Y-7304573D01*
X16991868Y-7289299D01*
X17010964Y-7278106D01*
X17031474Y-7270995D01*
X17052771Y-7267967D01*
X17074229Y-7269024D01*
G36*
X17074229Y-7269024D02*
G01*
X17095221Y-7274167D01*
X17115118Y-7283398D01*
X17133295Y-7296719D01*
X17149123Y-7314130D01*
X17161977Y-7335633D01*
X17165423Y-7343208D01*
X17168214Y-7350886D01*
X17169781Y-7358561D01*
X17170467Y-7368055D01*
X17170620Y-7381188D01*
X17170528Y-7392119D01*
X17169973Y-7402164D01*
X17168614Y-7410002D01*
X17166111Y-7417431D01*
X17162125Y-7426252D01*
X17160971Y-7428603D01*
X17147341Y-7450129D01*
X17130197Y-7467840D01*
X17110028Y-7481320D01*
X17087318Y-7490154D01*
X17075666Y-7492619D01*
X17052027Y-7493772D01*
X17029131Y-7490040D01*
X17007649Y-7481804D01*
X16988254Y-7469447D01*
X16971615Y-7453353D01*
X16958406Y-7433903D01*
X16949296Y-7411480D01*
X16945963Y-7393131D01*
X16945663Y-7372882D01*
X16948374Y-7353185D01*
X16953966Y-7336123D01*
X16960428Y-7323926D01*
X16974814Y-7304573D01*
X16991868Y-7289299D01*
X17010964Y-7278106D01*
X17031474Y-7270995D01*
X17052771Y-7267967D01*
X17074229Y-7269024D01*
G37*
X15495515Y-8552223D02*
X15514424Y-8552241D01*
X15529393Y-8552309D01*
X15540926Y-8552458D01*
X15549524Y-8552718D01*
X15555690Y-8553120D01*
X15559926Y-8553695D01*
X15562735Y-8554472D01*
X15564619Y-8555483D01*
X15566080Y-8556758D01*
X15569858Y-8563331D01*
X15570149Y-8570880D01*
X15566863Y-8577557D01*
X15566589Y-8577849D01*
X15564339Y-8579529D01*
X15560903Y-8580645D01*
X15555445Y-8581306D01*
X15547127Y-8581623D01*
X15535113Y-8581704D01*
X15507116Y-8581704D01*
X15507116Y-8634693D01*
X15507101Y-8649926D01*
X15507019Y-8663319D01*
X15506821Y-8673320D01*
X15506461Y-8680536D01*
X15505888Y-8685572D01*
X15505055Y-8689033D01*
X15503914Y-8691526D01*
X15502415Y-8693657D01*
X15501955Y-8694221D01*
X15495692Y-8698770D01*
X15488785Y-8699084D01*
X15482169Y-8695097D01*
X15480767Y-8693475D01*
X15479668Y-8691346D01*
X15478861Y-8688163D01*
X15478300Y-8683346D01*
X15477941Y-8676315D01*
X15477741Y-8666490D01*
X15477653Y-8653289D01*
X15477634Y-8636133D01*
X15477634Y-8581704D01*
X15448316Y-8581704D01*
X15446086Y-8581704D01*
X15434732Y-8581659D01*
X15426929Y-8581430D01*
X15421828Y-8580868D01*
X15418581Y-8579822D01*
X15416340Y-8578142D01*
X15414259Y-8575678D01*
X15411075Y-8569513D01*
X15411698Y-8562727D01*
X15416850Y-8556191D01*
X15417842Y-8555444D01*
X15419894Y-8554473D01*
X15422992Y-8553717D01*
X15427637Y-8553150D01*
X15434327Y-8552745D01*
X15443558Y-8552477D01*
X15455831Y-8552318D01*
X15471643Y-8552242D01*
X15491492Y-8552222D01*
X15495515Y-8552223D01*
G36*
X15495515Y-8552223D02*
G01*
X15514424Y-8552241D01*
X15529393Y-8552309D01*
X15540926Y-8552458D01*
X15549524Y-8552718D01*
X15555690Y-8553120D01*
X15559926Y-8553695D01*
X15562735Y-8554472D01*
X15564619Y-8555483D01*
X15566080Y-8556758D01*
X15569858Y-8563331D01*
X15570149Y-8570880D01*
X15566863Y-8577557D01*
X15566589Y-8577849D01*
X15564339Y-8579529D01*
X15560903Y-8580645D01*
X15555445Y-8581306D01*
X15547127Y-8581623D01*
X15535113Y-8581704D01*
X15507116Y-8581704D01*
X15507116Y-8634693D01*
X15507101Y-8649926D01*
X15507019Y-8663319D01*
X15506821Y-8673320D01*
X15506461Y-8680536D01*
X15505888Y-8685572D01*
X15505055Y-8689033D01*
X15503914Y-8691526D01*
X15502415Y-8693657D01*
X15501955Y-8694221D01*
X15495692Y-8698770D01*
X15488785Y-8699084D01*
X15482169Y-8695097D01*
X15480767Y-8693475D01*
X15479668Y-8691346D01*
X15478861Y-8688163D01*
X15478300Y-8683346D01*
X15477941Y-8676315D01*
X15477741Y-8666490D01*
X15477653Y-8653289D01*
X15477634Y-8636133D01*
X15477634Y-8581704D01*
X15448316Y-8581704D01*
X15446086Y-8581704D01*
X15434732Y-8581659D01*
X15426929Y-8581430D01*
X15421828Y-8580868D01*
X15418581Y-8579822D01*
X15416340Y-8578142D01*
X15414259Y-8575678D01*
X15411075Y-8569513D01*
X15411698Y-8562727D01*
X15416850Y-8556191D01*
X15417842Y-8555444D01*
X15419894Y-8554473D01*
X15422992Y-8553717D01*
X15427637Y-8553150D01*
X15434327Y-8552745D01*
X15443558Y-8552477D01*
X15455831Y-8552318D01*
X15471643Y-8552242D01*
X15491492Y-8552222D01*
X15495515Y-8552223D01*
G37*
X15359705Y-8556758D02*
X15360837Y-8558002D01*
X15361859Y-8559650D01*
X15362680Y-8562016D01*
X15363319Y-8565523D01*
X15363794Y-8570597D01*
X15364126Y-8577660D01*
X15364333Y-8587138D01*
X15364435Y-8599454D01*
X15364451Y-8615033D01*
X15364401Y-8634300D01*
X15364304Y-8657678D01*
X15364290Y-8660525D01*
X15364172Y-8672933D01*
X15363907Y-8681708D01*
X15363395Y-8687611D01*
X15362540Y-8691398D01*
X15361244Y-8693830D01*
X15359409Y-8695664D01*
X15352688Y-8699163D01*
X15345667Y-8698580D01*
X15339459Y-8693657D01*
X15337649Y-8691005D01*
X15336152Y-8687281D01*
X15335275Y-8682052D01*
X15334862Y-8674309D01*
X15334759Y-8663041D01*
X15334759Y-8638401D01*
X15234973Y-8638401D01*
X15234973Y-8665486D01*
X15234958Y-8672677D01*
X15234805Y-8681984D01*
X15234368Y-8688118D01*
X15233505Y-8691941D01*
X15232074Y-8694315D01*
X15229933Y-8696103D01*
X15223454Y-8699130D01*
X15216365Y-8698594D01*
X15210191Y-8693657D01*
X15209256Y-8692401D01*
X15208063Y-8690287D01*
X15207153Y-8687488D01*
X15206487Y-8683456D01*
X15206027Y-8677638D01*
X15205736Y-8669486D01*
X15205574Y-8658449D01*
X15205505Y-8643977D01*
X15205491Y-8625519D01*
X15205491Y-8563355D01*
X15211057Y-8557789D01*
X15217361Y-8553320D01*
X15224037Y-8552780D01*
X15230437Y-8556758D01*
X15232102Y-8558721D01*
X15233591Y-8561913D01*
X15234462Y-8566728D01*
X15234871Y-8574136D01*
X15234973Y-8585106D01*
X15234973Y-8608919D01*
X15334759Y-8608919D01*
X15334759Y-8586137D01*
X15334759Y-8585713D01*
X15334847Y-8575327D01*
X15335241Y-8568391D01*
X15336148Y-8563856D01*
X15337774Y-8560672D01*
X15340325Y-8557789D01*
X15346629Y-8553320D01*
X15353304Y-8552780D01*
X15359705Y-8556758D01*
G36*
X15359705Y-8556758D02*
G01*
X15360837Y-8558002D01*
X15361859Y-8559650D01*
X15362680Y-8562016D01*
X15363319Y-8565523D01*
X15363794Y-8570597D01*
X15364126Y-8577660D01*
X15364333Y-8587138D01*
X15364435Y-8599454D01*
X15364451Y-8615033D01*
X15364401Y-8634300D01*
X15364304Y-8657678D01*
X15364290Y-8660525D01*
X15364172Y-8672933D01*
X15363907Y-8681708D01*
X15363395Y-8687611D01*
X15362540Y-8691398D01*
X15361244Y-8693830D01*
X15359409Y-8695664D01*
X15352688Y-8699163D01*
X15345667Y-8698580D01*
X15339459Y-8693657D01*
X15337649Y-8691005D01*
X15336152Y-8687281D01*
X15335275Y-8682052D01*
X15334862Y-8674309D01*
X15334759Y-8663041D01*
X15334759Y-8638401D01*
X15234973Y-8638401D01*
X15234973Y-8665486D01*
X15234958Y-8672677D01*
X15234805Y-8681984D01*
X15234368Y-8688118D01*
X15233505Y-8691941D01*
X15232074Y-8694315D01*
X15229933Y-8696103D01*
X15223454Y-8699130D01*
X15216365Y-8698594D01*
X15210191Y-8693657D01*
X15209256Y-8692401D01*
X15208063Y-8690287D01*
X15207153Y-8687488D01*
X15206487Y-8683456D01*
X15206027Y-8677638D01*
X15205736Y-8669486D01*
X15205574Y-8658449D01*
X15205505Y-8643977D01*
X15205491Y-8625519D01*
X15205491Y-8563355D01*
X15211057Y-8557789D01*
X15217361Y-8553320D01*
X15224037Y-8552780D01*
X15230437Y-8556758D01*
X15232102Y-8558721D01*
X15233591Y-8561913D01*
X15234462Y-8566728D01*
X15234871Y-8574136D01*
X15234973Y-8585106D01*
X15234973Y-8608919D01*
X15334759Y-8608919D01*
X15334759Y-8586137D01*
X15334759Y-8585713D01*
X15334847Y-8575327D01*
X15335241Y-8568391D01*
X15336148Y-8563856D01*
X15337774Y-8560672D01*
X15340325Y-8557789D01*
X15346629Y-8553320D01*
X15353304Y-8552780D01*
X15359705Y-8556758D01*
G37*
X16304986Y-8675034D02*
X16304591Y-8681619D01*
X16304002Y-8686224D01*
X16303183Y-8689398D01*
X16302095Y-8691693D01*
X16300701Y-8693657D01*
X16296001Y-8699633D01*
X16262715Y-8699514D01*
X16255724Y-8699454D01*
X16235940Y-8698765D01*
X16219675Y-8697221D01*
X16206196Y-8694699D01*
X16194769Y-8691071D01*
X16184659Y-8686215D01*
X16183984Y-8685830D01*
X16172370Y-8678453D01*
X16163861Y-8671027D01*
X16157269Y-8662291D01*
X16151403Y-8650986D01*
X16150542Y-8649054D01*
X16146007Y-8636360D01*
X16144855Y-8627209D01*
X16174837Y-8627209D01*
X16175965Y-8632176D01*
X16177115Y-8635366D01*
X16183730Y-8647401D01*
X16193240Y-8656593D01*
X16206050Y-8663249D01*
X16222565Y-8667680D01*
X16223127Y-8667781D01*
X16232425Y-8668979D01*
X16243755Y-8669828D01*
X16254791Y-8670151D01*
X16273652Y-8670151D01*
X16273652Y-8581704D01*
X16256076Y-8581794D01*
X16242632Y-8582292D01*
X16224070Y-8584552D01*
X16208136Y-8588477D01*
X16195686Y-8593896D01*
X16189470Y-8598061D01*
X16183821Y-8604040D01*
X16179132Y-8612564D01*
X16177701Y-8615771D01*
X16175325Y-8622301D01*
X16174837Y-8627209D01*
X16144855Y-8627209D01*
X16144606Y-8625235D01*
X16146334Y-8614181D01*
X16151184Y-8601699D01*
X16151344Y-8601359D01*
X16159471Y-8587413D01*
X16169653Y-8576042D01*
X16182254Y-8567089D01*
X16197637Y-8560393D01*
X16216167Y-8555797D01*
X16238205Y-8553140D01*
X16264116Y-8552264D01*
X16264834Y-8552263D01*
X16276891Y-8552291D01*
X16285315Y-8552499D01*
X16290963Y-8553020D01*
X16294693Y-8553987D01*
X16297364Y-8555532D01*
X16299835Y-8557789D01*
X16305402Y-8563355D01*
X16305402Y-8625519D01*
X16305396Y-8637895D01*
X16305351Y-8653722D01*
X16305227Y-8665918D01*
X16305115Y-8670151D01*
X16304986Y-8675034D01*
G36*
X16304986Y-8675034D02*
G01*
X16304591Y-8681619D01*
X16304002Y-8686224D01*
X16303183Y-8689398D01*
X16302095Y-8691693D01*
X16300701Y-8693657D01*
X16296001Y-8699633D01*
X16262715Y-8699514D01*
X16255724Y-8699454D01*
X16235940Y-8698765D01*
X16219675Y-8697221D01*
X16206196Y-8694699D01*
X16194769Y-8691071D01*
X16184659Y-8686215D01*
X16183984Y-8685830D01*
X16172370Y-8678453D01*
X16163861Y-8671027D01*
X16157269Y-8662291D01*
X16151403Y-8650986D01*
X16150542Y-8649054D01*
X16146007Y-8636360D01*
X16144855Y-8627209D01*
X16174837Y-8627209D01*
X16175965Y-8632176D01*
X16177115Y-8635366D01*
X16183730Y-8647401D01*
X16193240Y-8656593D01*
X16206050Y-8663249D01*
X16222565Y-8667680D01*
X16223127Y-8667781D01*
X16232425Y-8668979D01*
X16243755Y-8669828D01*
X16254791Y-8670151D01*
X16273652Y-8670151D01*
X16273652Y-8581704D01*
X16256076Y-8581794D01*
X16242632Y-8582292D01*
X16224070Y-8584552D01*
X16208136Y-8588477D01*
X16195686Y-8593896D01*
X16189470Y-8598061D01*
X16183821Y-8604040D01*
X16179132Y-8612564D01*
X16177701Y-8615771D01*
X16175325Y-8622301D01*
X16174837Y-8627209D01*
X16144855Y-8627209D01*
X16144606Y-8625235D01*
X16146334Y-8614181D01*
X16151184Y-8601699D01*
X16151344Y-8601359D01*
X16159471Y-8587413D01*
X16169653Y-8576042D01*
X16182254Y-8567089D01*
X16197637Y-8560393D01*
X16216167Y-8555797D01*
X16238205Y-8553140D01*
X16264116Y-8552264D01*
X16264834Y-8552263D01*
X16276891Y-8552291D01*
X16285315Y-8552499D01*
X16290963Y-8553020D01*
X16294693Y-8553987D01*
X16297364Y-8555532D01*
X16299835Y-8557789D01*
X16305402Y-8563355D01*
X16305402Y-8625519D01*
X16305396Y-8637895D01*
X16305351Y-8653722D01*
X16305227Y-8665918D01*
X16305115Y-8670151D01*
X16304986Y-8675034D01*
G37*
X17729655Y-8589460D02*
X17729666Y-8605655D01*
X17729616Y-8625928D01*
X17729608Y-8641127D01*
X17729557Y-8656779D01*
X17729427Y-8668834D01*
X17729185Y-8677820D01*
X17728796Y-8684261D01*
X17728226Y-8688683D01*
X17727439Y-8691613D01*
X17726402Y-8693576D01*
X17725080Y-8695097D01*
X17723681Y-8696350D01*
X17721069Y-8697816D01*
X17717223Y-8698771D01*
X17711316Y-8699321D01*
X17702523Y-8699573D01*
X17690021Y-8699633D01*
X17680188Y-8699558D01*
X17658721Y-8698668D01*
X17640796Y-8696641D01*
X17625769Y-8693309D01*
X17612998Y-8688502D01*
X17601839Y-8682050D01*
X17591649Y-8673786D01*
X17590446Y-8672610D01*
X17583040Y-8662865D01*
X17576792Y-8650649D01*
X17572476Y-8637743D01*
X17571415Y-8629960D01*
X17600990Y-8629960D01*
X17604663Y-8640192D01*
X17610624Y-8649416D01*
X17620005Y-8657936D01*
X17632337Y-8663923D01*
X17648237Y-8667768D01*
X17648537Y-8667815D01*
X17658375Y-8668979D01*
X17670166Y-8669811D01*
X17681424Y-8670134D01*
X17700134Y-8670151D01*
X17700134Y-8581704D01*
X17684826Y-8581701D01*
X17684217Y-8581703D01*
X17673948Y-8582098D01*
X17661874Y-8583047D01*
X17650481Y-8584359D01*
X17640445Y-8586226D01*
X17625428Y-8591503D01*
X17613875Y-8599398D01*
X17605538Y-8610053D01*
X17601275Y-8620352D01*
X17600990Y-8629960D01*
X17571415Y-8629960D01*
X17570866Y-8625928D01*
X17571123Y-8621665D01*
X17573596Y-8610131D01*
X17578122Y-8598095D01*
X17583994Y-8587237D01*
X17590506Y-8579235D01*
X17594432Y-8575816D01*
X17605423Y-8567943D01*
X17617538Y-8561890D01*
X17631439Y-8557479D01*
X17647790Y-8554529D01*
X17667254Y-8552863D01*
X17690495Y-8552303D01*
X17698427Y-8552222D01*
X17707610Y-8552139D01*
X17714802Y-8552502D01*
X17720244Y-8553764D01*
X17724178Y-8556379D01*
X17726845Y-8560803D01*
X17728486Y-8567488D01*
X17729342Y-8576889D01*
X17729462Y-8581704D01*
X17729655Y-8589460D01*
G36*
X17729655Y-8589460D02*
G01*
X17729666Y-8605655D01*
X17729616Y-8625928D01*
X17729608Y-8641127D01*
X17729557Y-8656779D01*
X17729427Y-8668834D01*
X17729185Y-8677820D01*
X17728796Y-8684261D01*
X17728226Y-8688683D01*
X17727439Y-8691613D01*
X17726402Y-8693576D01*
X17725080Y-8695097D01*
X17723681Y-8696350D01*
X17721069Y-8697816D01*
X17717223Y-8698771D01*
X17711316Y-8699321D01*
X17702523Y-8699573D01*
X17690021Y-8699633D01*
X17680188Y-8699558D01*
X17658721Y-8698668D01*
X17640796Y-8696641D01*
X17625769Y-8693309D01*
X17612998Y-8688502D01*
X17601839Y-8682050D01*
X17591649Y-8673786D01*
X17590446Y-8672610D01*
X17583040Y-8662865D01*
X17576792Y-8650649D01*
X17572476Y-8637743D01*
X17571415Y-8629960D01*
X17600990Y-8629960D01*
X17604663Y-8640192D01*
X17610624Y-8649416D01*
X17620005Y-8657936D01*
X17632337Y-8663923D01*
X17648237Y-8667768D01*
X17648537Y-8667815D01*
X17658375Y-8668979D01*
X17670166Y-8669811D01*
X17681424Y-8670134D01*
X17700134Y-8670151D01*
X17700134Y-8581704D01*
X17684826Y-8581701D01*
X17684217Y-8581703D01*
X17673948Y-8582098D01*
X17661874Y-8583047D01*
X17650481Y-8584359D01*
X17640445Y-8586226D01*
X17625428Y-8591503D01*
X17613875Y-8599398D01*
X17605538Y-8610053D01*
X17601275Y-8620352D01*
X17600990Y-8629960D01*
X17571415Y-8629960D01*
X17570866Y-8625928D01*
X17571123Y-8621665D01*
X17573596Y-8610131D01*
X17578122Y-8598095D01*
X17583994Y-8587237D01*
X17590506Y-8579235D01*
X17594432Y-8575816D01*
X17605423Y-8567943D01*
X17617538Y-8561890D01*
X17631439Y-8557479D01*
X17647790Y-8554529D01*
X17667254Y-8552863D01*
X17690495Y-8552303D01*
X17698427Y-8552222D01*
X17707610Y-8552139D01*
X17714802Y-8552502D01*
X17720244Y-8553764D01*
X17724178Y-8556379D01*
X17726845Y-8560803D01*
X17728486Y-8567488D01*
X17729342Y-8576889D01*
X17729462Y-8581704D01*
X17729655Y-8589460D01*
G37*
X16736255Y-8551986D02*
X16738547Y-8553219D01*
X16740666Y-8555361D01*
X16742933Y-8558198D01*
X16743828Y-8559395D01*
X16745033Y-8561504D01*
X16745953Y-8564281D01*
X16746626Y-8568280D01*
X16747091Y-8574052D01*
X16747386Y-8582151D01*
X16747549Y-8593128D01*
X16747619Y-8607536D01*
X16747634Y-8625928D01*
X16747629Y-8637686D01*
X16747585Y-8653574D01*
X16747463Y-8665817D01*
X16747224Y-8674967D01*
X16746829Y-8681576D01*
X16746241Y-8686198D01*
X16745422Y-8689384D01*
X16744332Y-8691686D01*
X16742933Y-8693657D01*
X16736820Y-8698558D01*
X16729801Y-8699136D01*
X16722372Y-8695301D01*
X16721531Y-8694603D01*
X16719888Y-8692890D01*
X16718671Y-8690569D01*
X16717791Y-8686987D01*
X16717159Y-8681488D01*
X16716690Y-8673418D01*
X16716294Y-8662123D01*
X16715884Y-8646948D01*
X16714750Y-8602926D01*
X16661455Y-8651269D01*
X16646622Y-8664684D01*
X16633528Y-8676359D01*
X16623043Y-8685391D01*
X16614791Y-8692004D01*
X16608399Y-8696426D01*
X16603492Y-8698879D01*
X16599694Y-8699592D01*
X16596633Y-8698788D01*
X16593932Y-8696692D01*
X16591217Y-8693532D01*
X16589963Y-8691827D01*
X16588831Y-8689703D01*
X16587985Y-8686858D01*
X16587392Y-8682750D01*
X16587020Y-8676831D01*
X16586835Y-8668558D01*
X16586806Y-8657385D01*
X16586900Y-8642767D01*
X16587084Y-8624159D01*
X16587750Y-8560887D01*
X16593104Y-8556555D01*
X16598340Y-8553302D01*
X16604941Y-8552745D01*
X16611878Y-8556553D01*
X16612744Y-8557273D01*
X16614378Y-8558986D01*
X16615589Y-8561315D01*
X16616465Y-8564912D01*
X16617093Y-8570431D01*
X16617561Y-8578525D01*
X16617956Y-8589846D01*
X16618366Y-8605049D01*
X16619500Y-8649216D01*
X16655785Y-8616311D01*
X16673210Y-8600514D01*
X16688432Y-8586774D01*
X16700915Y-8575655D01*
X16710980Y-8566942D01*
X16718946Y-8560421D01*
X16725137Y-8555880D01*
X16729871Y-8553102D01*
X16733470Y-8551876D01*
X16736255Y-8551986D01*
G36*
X16736255Y-8551986D02*
G01*
X16738547Y-8553219D01*
X16740666Y-8555361D01*
X16742933Y-8558198D01*
X16743828Y-8559395D01*
X16745033Y-8561504D01*
X16745953Y-8564281D01*
X16746626Y-8568280D01*
X16747091Y-8574052D01*
X16747386Y-8582151D01*
X16747549Y-8593128D01*
X16747619Y-8607536D01*
X16747634Y-8625928D01*
X16747629Y-8637686D01*
X16747585Y-8653574D01*
X16747463Y-8665817D01*
X16747224Y-8674967D01*
X16746829Y-8681576D01*
X16746241Y-8686198D01*
X16745422Y-8689384D01*
X16744332Y-8691686D01*
X16742933Y-8693657D01*
X16736820Y-8698558D01*
X16729801Y-8699136D01*
X16722372Y-8695301D01*
X16721531Y-8694603D01*
X16719888Y-8692890D01*
X16718671Y-8690569D01*
X16717791Y-8686987D01*
X16717159Y-8681488D01*
X16716690Y-8673418D01*
X16716294Y-8662123D01*
X16715884Y-8646948D01*
X16714750Y-8602926D01*
X16661455Y-8651269D01*
X16646622Y-8664684D01*
X16633528Y-8676359D01*
X16623043Y-8685391D01*
X16614791Y-8692004D01*
X16608399Y-8696426D01*
X16603492Y-8698879D01*
X16599694Y-8699592D01*
X16596633Y-8698788D01*
X16593932Y-8696692D01*
X16591217Y-8693532D01*
X16589963Y-8691827D01*
X16588831Y-8689703D01*
X16587985Y-8686858D01*
X16587392Y-8682750D01*
X16587020Y-8676831D01*
X16586835Y-8668558D01*
X16586806Y-8657385D01*
X16586900Y-8642767D01*
X16587084Y-8624159D01*
X16587750Y-8560887D01*
X16593104Y-8556555D01*
X16598340Y-8553302D01*
X16604941Y-8552745D01*
X16611878Y-8556553D01*
X16612744Y-8557273D01*
X16614378Y-8558986D01*
X16615589Y-8561315D01*
X16616465Y-8564912D01*
X16617093Y-8570431D01*
X16617561Y-8578525D01*
X16617956Y-8589846D01*
X16618366Y-8605049D01*
X16619500Y-8649216D01*
X16655785Y-8616311D01*
X16673210Y-8600514D01*
X16688432Y-8586774D01*
X16700915Y-8575655D01*
X16710980Y-8566942D01*
X16718946Y-8560421D01*
X16725137Y-8555880D01*
X16729871Y-8553102D01*
X16733470Y-8551876D01*
X16736255Y-8551986D01*
G37*
X16896418Y-8553249D02*
X16917714Y-8556527D01*
X16936561Y-8562162D01*
X16952390Y-8569978D01*
X16964635Y-8579798D01*
X16969873Y-8586400D01*
X16975800Y-8596284D01*
X16980877Y-8607103D01*
X16984423Y-8617382D01*
X16985757Y-8625644D01*
X16985444Y-8629605D01*
X16982844Y-8639917D01*
X16978190Y-8651273D01*
X16972185Y-8662104D01*
X16965530Y-8670844D01*
X16963482Y-8672923D01*
X16950005Y-8683324D01*
X16933908Y-8691338D01*
X16916589Y-8696240D01*
X16905547Y-8697870D01*
X16886773Y-8699197D01*
X16868737Y-8698777D01*
X16852165Y-8696719D01*
X16837785Y-8693129D01*
X16826322Y-8688115D01*
X16818504Y-8681782D01*
X16818228Y-8681385D01*
X16816804Y-8676318D01*
X16815953Y-8666825D01*
X16815669Y-8652870D01*
X16815842Y-8640368D01*
X16816790Y-8630850D01*
X16819139Y-8624400D01*
X16823512Y-8620472D01*
X16830535Y-8618518D01*
X16840832Y-8617988D01*
X16855029Y-8618335D01*
X16864796Y-8618940D01*
X16874880Y-8620586D01*
X16881408Y-8623409D01*
X16884915Y-8627675D01*
X16885938Y-8633650D01*
X16885917Y-8634562D01*
X16884169Y-8641552D01*
X16879345Y-8646256D01*
X16871056Y-8648908D01*
X16858908Y-8649740D01*
X16845152Y-8649740D01*
X16845152Y-8657445D01*
X16845162Y-8659280D01*
X16845608Y-8662746D01*
X16847470Y-8664814D01*
X16851765Y-8666207D01*
X16859511Y-8667650D01*
X16860611Y-8667838D01*
X16880088Y-8669827D01*
X16898166Y-8669241D01*
X16914420Y-8666282D01*
X16928422Y-8661153D01*
X16939746Y-8654057D01*
X16947963Y-8645198D01*
X16952648Y-8634778D01*
X16953374Y-8623001D01*
X16952265Y-8617196D01*
X16946905Y-8605969D01*
X16937626Y-8596796D01*
X16924572Y-8589798D01*
X16907885Y-8585093D01*
X16902928Y-8584199D01*
X16884983Y-8582090D01*
X16868950Y-8582337D01*
X16853262Y-8584936D01*
X16846202Y-8586299D01*
X16837074Y-8586504D01*
X16830783Y-8583986D01*
X16826734Y-8578605D01*
X16825451Y-8572930D01*
X16827357Y-8566658D01*
X16829231Y-8563961D01*
X16836109Y-8559233D01*
X16846680Y-8555643D01*
X16860445Y-8553334D01*
X16876902Y-8552448D01*
X16896418Y-8553249D01*
G36*
X16896418Y-8553249D02*
G01*
X16917714Y-8556527D01*
X16936561Y-8562162D01*
X16952390Y-8569978D01*
X16964635Y-8579798D01*
X16969873Y-8586400D01*
X16975800Y-8596284D01*
X16980877Y-8607103D01*
X16984423Y-8617382D01*
X16985757Y-8625644D01*
X16985444Y-8629605D01*
X16982844Y-8639917D01*
X16978190Y-8651273D01*
X16972185Y-8662104D01*
X16965530Y-8670844D01*
X16963482Y-8672923D01*
X16950005Y-8683324D01*
X16933908Y-8691338D01*
X16916589Y-8696240D01*
X16905547Y-8697870D01*
X16886773Y-8699197D01*
X16868737Y-8698777D01*
X16852165Y-8696719D01*
X16837785Y-8693129D01*
X16826322Y-8688115D01*
X16818504Y-8681782D01*
X16818228Y-8681385D01*
X16816804Y-8676318D01*
X16815953Y-8666825D01*
X16815669Y-8652870D01*
X16815842Y-8640368D01*
X16816790Y-8630850D01*
X16819139Y-8624400D01*
X16823512Y-8620472D01*
X16830535Y-8618518D01*
X16840832Y-8617988D01*
X16855029Y-8618335D01*
X16864796Y-8618940D01*
X16874880Y-8620586D01*
X16881408Y-8623409D01*
X16884915Y-8627675D01*
X16885938Y-8633650D01*
X16885917Y-8634562D01*
X16884169Y-8641552D01*
X16879345Y-8646256D01*
X16871056Y-8648908D01*
X16858908Y-8649740D01*
X16845152Y-8649740D01*
X16845152Y-8657445D01*
X16845162Y-8659280D01*
X16845608Y-8662746D01*
X16847470Y-8664814D01*
X16851765Y-8666207D01*
X16859511Y-8667650D01*
X16860611Y-8667838D01*
X16880088Y-8669827D01*
X16898166Y-8669241D01*
X16914420Y-8666282D01*
X16928422Y-8661153D01*
X16939746Y-8654057D01*
X16947963Y-8645198D01*
X16952648Y-8634778D01*
X16953374Y-8623001D01*
X16952265Y-8617196D01*
X16946905Y-8605969D01*
X16937626Y-8596796D01*
X16924572Y-8589798D01*
X16907885Y-8585093D01*
X16902928Y-8584199D01*
X16884983Y-8582090D01*
X16868950Y-8582337D01*
X16853262Y-8584936D01*
X16846202Y-8586299D01*
X16837074Y-8586504D01*
X16830783Y-8583986D01*
X16826734Y-8578605D01*
X16825451Y-8572930D01*
X16827357Y-8566658D01*
X16829231Y-8563961D01*
X16836109Y-8559233D01*
X16846680Y-8555643D01*
X16860445Y-8553334D01*
X16876902Y-8552448D01*
X16896418Y-8553249D01*
G37*
X16504808Y-8558198D02*
X16505803Y-8559540D01*
X16506977Y-8561664D01*
X16507873Y-8564494D01*
X16508529Y-8568577D01*
X16508981Y-8574461D01*
X16509268Y-8582692D01*
X16509427Y-8593817D01*
X16509494Y-8608384D01*
X16509509Y-8626940D01*
X16509503Y-8640182D01*
X16509456Y-8655915D01*
X16509332Y-8668023D01*
X16509092Y-8677042D01*
X16508701Y-8683513D01*
X16508121Y-8687972D01*
X16507316Y-8690959D01*
X16506250Y-8693012D01*
X16504885Y-8694670D01*
X16503978Y-8695605D01*
X16502324Y-8696908D01*
X16500042Y-8697895D01*
X16496573Y-8698609D01*
X16491359Y-8699095D01*
X16483842Y-8699396D01*
X16473463Y-8699557D01*
X16459665Y-8699621D01*
X16441889Y-8699633D01*
X16437937Y-8699632D01*
X16420454Y-8699578D01*
X16406863Y-8699424D01*
X16396627Y-8699140D01*
X16389207Y-8698696D01*
X16384068Y-8698061D01*
X16380670Y-8697207D01*
X16378478Y-8696103D01*
X16376370Y-8694096D01*
X16373706Y-8687845D01*
X16373943Y-8680636D01*
X16377191Y-8674298D01*
X16377630Y-8673841D01*
X16379376Y-8672582D01*
X16382056Y-8671644D01*
X16386271Y-8670982D01*
X16392622Y-8670548D01*
X16401708Y-8670296D01*
X16414129Y-8670179D01*
X16430485Y-8670151D01*
X16480027Y-8670151D01*
X16480027Y-8638401D01*
X16447394Y-8638401D01*
X16440228Y-8638385D01*
X16429024Y-8638224D01*
X16421162Y-8637822D01*
X16415848Y-8637090D01*
X16412288Y-8635943D01*
X16409691Y-8634295D01*
X16408959Y-8633655D01*
X16405261Y-8627433D01*
X16405134Y-8620133D01*
X16408657Y-8613379D01*
X16408669Y-8613365D01*
X16410612Y-8611632D01*
X16413283Y-8610416D01*
X16417443Y-8609626D01*
X16423854Y-8609173D01*
X16433277Y-8608967D01*
X16446473Y-8608919D01*
X16480253Y-8608919D01*
X16479573Y-8595878D01*
X16478893Y-8582838D01*
X16430261Y-8582225D01*
X16425235Y-8582159D01*
X16408839Y-8581862D01*
X16396319Y-8581383D01*
X16387156Y-8580580D01*
X16380827Y-8579312D01*
X16376812Y-8577436D01*
X16374590Y-8574810D01*
X16373638Y-8571292D01*
X16373437Y-8566740D01*
X16373438Y-8566265D01*
X16373670Y-8562241D01*
X16374634Y-8559069D01*
X16376805Y-8556646D01*
X16380659Y-8554874D01*
X16386672Y-8553650D01*
X16395318Y-8552874D01*
X16407073Y-8552445D01*
X16422413Y-8552261D01*
X16441813Y-8552222D01*
X16500108Y-8552222D01*
X16504808Y-8558198D01*
G36*
X16504808Y-8558198D02*
G01*
X16505803Y-8559540D01*
X16506977Y-8561664D01*
X16507873Y-8564494D01*
X16508529Y-8568577D01*
X16508981Y-8574461D01*
X16509268Y-8582692D01*
X16509427Y-8593817D01*
X16509494Y-8608384D01*
X16509509Y-8626940D01*
X16509503Y-8640182D01*
X16509456Y-8655915D01*
X16509332Y-8668023D01*
X16509092Y-8677042D01*
X16508701Y-8683513D01*
X16508121Y-8687972D01*
X16507316Y-8690959D01*
X16506250Y-8693012D01*
X16504885Y-8694670D01*
X16503978Y-8695605D01*
X16502324Y-8696908D01*
X16500042Y-8697895D01*
X16496573Y-8698609D01*
X16491359Y-8699095D01*
X16483842Y-8699396D01*
X16473463Y-8699557D01*
X16459665Y-8699621D01*
X16441889Y-8699633D01*
X16437937Y-8699632D01*
X16420454Y-8699578D01*
X16406863Y-8699424D01*
X16396627Y-8699140D01*
X16389207Y-8698696D01*
X16384068Y-8698061D01*
X16380670Y-8697207D01*
X16378478Y-8696103D01*
X16376370Y-8694096D01*
X16373706Y-8687845D01*
X16373943Y-8680636D01*
X16377191Y-8674298D01*
X16377630Y-8673841D01*
X16379376Y-8672582D01*
X16382056Y-8671644D01*
X16386271Y-8670982D01*
X16392622Y-8670548D01*
X16401708Y-8670296D01*
X16414129Y-8670179D01*
X16430485Y-8670151D01*
X16480027Y-8670151D01*
X16480027Y-8638401D01*
X16447394Y-8638401D01*
X16440228Y-8638385D01*
X16429024Y-8638224D01*
X16421162Y-8637822D01*
X16415848Y-8637090D01*
X16412288Y-8635943D01*
X16409691Y-8634295D01*
X16408959Y-8633655D01*
X16405261Y-8627433D01*
X16405134Y-8620133D01*
X16408657Y-8613379D01*
X16408669Y-8613365D01*
X16410612Y-8611632D01*
X16413283Y-8610416D01*
X16417443Y-8609626D01*
X16423854Y-8609173D01*
X16433277Y-8608967D01*
X16446473Y-8608919D01*
X16480253Y-8608919D01*
X16479573Y-8595878D01*
X16478893Y-8582838D01*
X16430261Y-8582225D01*
X16425235Y-8582159D01*
X16408839Y-8581862D01*
X16396319Y-8581383D01*
X16387156Y-8580580D01*
X16380827Y-8579312D01*
X16376812Y-8577436D01*
X16374590Y-8574810D01*
X16373638Y-8571292D01*
X16373437Y-8566740D01*
X16373438Y-8566265D01*
X16373670Y-8562241D01*
X16374634Y-8559069D01*
X16376805Y-8556646D01*
X16380659Y-8554874D01*
X16386672Y-8553650D01*
X16395318Y-8552874D01*
X16407073Y-8552445D01*
X16422413Y-8552261D01*
X16441813Y-8552222D01*
X16500108Y-8552222D01*
X16504808Y-8558198D01*
G37*
X17444370Y-8552225D02*
X17459859Y-8552264D01*
X17471701Y-8552382D01*
X17480457Y-8552621D01*
X17486688Y-8553025D01*
X17490956Y-8553637D01*
X17493820Y-8554501D01*
X17495841Y-8555658D01*
X17497581Y-8557153D01*
X17497940Y-8557491D01*
X17499395Y-8559005D01*
X17500529Y-8560817D01*
X17501380Y-8563456D01*
X17501991Y-8567451D01*
X17502400Y-8573333D01*
X17502649Y-8581631D01*
X17502776Y-8592876D01*
X17502823Y-8607596D01*
X17502830Y-8626323D01*
X17502823Y-8640946D01*
X17502773Y-8656651D01*
X17502645Y-8668747D01*
X17502405Y-8677763D01*
X17502017Y-8684226D01*
X17501446Y-8688663D01*
X17500659Y-8691602D01*
X17499620Y-8693571D01*
X17498294Y-8695097D01*
X17497625Y-8695735D01*
X17495913Y-8696963D01*
X17493502Y-8697902D01*
X17489843Y-8698591D01*
X17484390Y-8699069D01*
X17476593Y-8699373D01*
X17465904Y-8699543D01*
X17451776Y-8699617D01*
X17433661Y-8699633D01*
X17425201Y-8699631D01*
X17408899Y-8699594D01*
X17396345Y-8699483D01*
X17386990Y-8699259D01*
X17380287Y-8698883D01*
X17375687Y-8698318D01*
X17372642Y-8697524D01*
X17370605Y-8696463D01*
X17369027Y-8695097D01*
X17366068Y-8690758D01*
X17364491Y-8684892D01*
X17365596Y-8680089D01*
X17369027Y-8674687D01*
X17370027Y-8673761D01*
X17371991Y-8672498D01*
X17374826Y-8671569D01*
X17379145Y-8670922D01*
X17385556Y-8670509D01*
X17394671Y-8670276D01*
X17407101Y-8670174D01*
X17423455Y-8670151D01*
X17473348Y-8670151D01*
X17473348Y-8638401D01*
X17440969Y-8638401D01*
X17433773Y-8638372D01*
X17420590Y-8638026D01*
X17411099Y-8637135D01*
X17404724Y-8635506D01*
X17400886Y-8632949D01*
X17399007Y-8629270D01*
X17398509Y-8624277D01*
X17398669Y-8620207D01*
X17399724Y-8615823D01*
X17402294Y-8612739D01*
X17406983Y-8610731D01*
X17414394Y-8609574D01*
X17425130Y-8609045D01*
X17439795Y-8608919D01*
X17473574Y-8608919D01*
X17472894Y-8595878D01*
X17472214Y-8582838D01*
X17422450Y-8582226D01*
X17409876Y-8582049D01*
X17396122Y-8581759D01*
X17385896Y-8581371D01*
X17378613Y-8580839D01*
X17373690Y-8580115D01*
X17370543Y-8579153D01*
X17368588Y-8577906D01*
X17367380Y-8576619D01*
X17364766Y-8570255D01*
X17365482Y-8563086D01*
X17369454Y-8556846D01*
X17370107Y-8556259D01*
X17371911Y-8554983D01*
X17374343Y-8554008D01*
X17377960Y-8553294D01*
X17383322Y-8552801D01*
X17390986Y-8552487D01*
X17401510Y-8552313D01*
X17415454Y-8552238D01*
X17433375Y-8552222D01*
X17444370Y-8552225D01*
G36*
X17444370Y-8552225D02*
G01*
X17459859Y-8552264D01*
X17471701Y-8552382D01*
X17480457Y-8552621D01*
X17486688Y-8553025D01*
X17490956Y-8553637D01*
X17493820Y-8554501D01*
X17495841Y-8555658D01*
X17497581Y-8557153D01*
X17497940Y-8557491D01*
X17499395Y-8559005D01*
X17500529Y-8560817D01*
X17501380Y-8563456D01*
X17501991Y-8567451D01*
X17502400Y-8573333D01*
X17502649Y-8581631D01*
X17502776Y-8592876D01*
X17502823Y-8607596D01*
X17502830Y-8626323D01*
X17502823Y-8640946D01*
X17502773Y-8656651D01*
X17502645Y-8668747D01*
X17502405Y-8677763D01*
X17502017Y-8684226D01*
X17501446Y-8688663D01*
X17500659Y-8691602D01*
X17499620Y-8693571D01*
X17498294Y-8695097D01*
X17497625Y-8695735D01*
X17495913Y-8696963D01*
X17493502Y-8697902D01*
X17489843Y-8698591D01*
X17484390Y-8699069D01*
X17476593Y-8699373D01*
X17465904Y-8699543D01*
X17451776Y-8699617D01*
X17433661Y-8699633D01*
X17425201Y-8699631D01*
X17408899Y-8699594D01*
X17396345Y-8699483D01*
X17386990Y-8699259D01*
X17380287Y-8698883D01*
X17375687Y-8698318D01*
X17372642Y-8697524D01*
X17370605Y-8696463D01*
X17369027Y-8695097D01*
X17366068Y-8690758D01*
X17364491Y-8684892D01*
X17365596Y-8680089D01*
X17369027Y-8674687D01*
X17370027Y-8673761D01*
X17371991Y-8672498D01*
X17374826Y-8671569D01*
X17379145Y-8670922D01*
X17385556Y-8670509D01*
X17394671Y-8670276D01*
X17407101Y-8670174D01*
X17423455Y-8670151D01*
X17473348Y-8670151D01*
X17473348Y-8638401D01*
X17440969Y-8638401D01*
X17433773Y-8638372D01*
X17420590Y-8638026D01*
X17411099Y-8637135D01*
X17404724Y-8635506D01*
X17400886Y-8632949D01*
X17399007Y-8629270D01*
X17398509Y-8624277D01*
X17398669Y-8620207D01*
X17399724Y-8615823D01*
X17402294Y-8612739D01*
X17406983Y-8610731D01*
X17414394Y-8609574D01*
X17425130Y-8609045D01*
X17439795Y-8608919D01*
X17473574Y-8608919D01*
X17472894Y-8595878D01*
X17472214Y-8582838D01*
X17422450Y-8582226D01*
X17409876Y-8582049D01*
X17396122Y-8581759D01*
X17385896Y-8581371D01*
X17378613Y-8580839D01*
X17373690Y-8580115D01*
X17370543Y-8579153D01*
X17368588Y-8577906D01*
X17367380Y-8576619D01*
X17364766Y-8570255D01*
X17365482Y-8563086D01*
X17369454Y-8556846D01*
X17370107Y-8556259D01*
X17371911Y-8554983D01*
X17374343Y-8554008D01*
X17377960Y-8553294D01*
X17383322Y-8552801D01*
X17390986Y-8552487D01*
X17401510Y-8552313D01*
X17415454Y-8552238D01*
X17433375Y-8552222D01*
X17444370Y-8552225D01*
G37*
X15723315Y-8554113D02*
X15726923Y-8557832D01*
X15731061Y-8564076D01*
X15736050Y-8573254D01*
X15742208Y-8585774D01*
X15749856Y-8602045D01*
X15752796Y-8608349D01*
X15758772Y-8621042D01*
X15764015Y-8632012D01*
X15768232Y-8640660D01*
X15771135Y-8646386D01*
X15772431Y-8648591D01*
X15772704Y-8648475D01*
X15774711Y-8645673D01*
X15778185Y-8639739D01*
X15782724Y-8631378D01*
X15787929Y-8621296D01*
X15791138Y-8614971D01*
X15796954Y-8603850D01*
X15801472Y-8596012D01*
X15805131Y-8590894D01*
X15808372Y-8587934D01*
X15811633Y-8586570D01*
X15815355Y-8586240D01*
X15817465Y-8586336D01*
X15820702Y-8587181D01*
X15823779Y-8589363D01*
X15827113Y-8593436D01*
X15831125Y-8599952D01*
X15836233Y-8609464D01*
X15842856Y-8622526D01*
X15844811Y-8626394D01*
X15849725Y-8635769D01*
X15853790Y-8643034D01*
X15856629Y-8647532D01*
X15857864Y-8648606D01*
X15858139Y-8647949D01*
X15860022Y-8643748D01*
X15863410Y-8636328D01*
X15868013Y-8626313D01*
X15873546Y-8614330D01*
X15879721Y-8601005D01*
X15885087Y-8589510D01*
X15891038Y-8577057D01*
X15895673Y-8567868D01*
X15899285Y-8561431D01*
X15902167Y-8557234D01*
X15904613Y-8554764D01*
X15906917Y-8553508D01*
X15908807Y-8552927D01*
X15913851Y-8552897D01*
X15919303Y-8555979D01*
X15919565Y-8556177D01*
X15924001Y-8560724D01*
X15926221Y-8565189D01*
X15926230Y-8565318D01*
X15925318Y-8568866D01*
X15922733Y-8575810D01*
X15918764Y-8585522D01*
X15913697Y-8597375D01*
X15907818Y-8610740D01*
X15901416Y-8624990D01*
X15894777Y-8639498D01*
X15888187Y-8653636D01*
X15881935Y-8666775D01*
X15876307Y-8678289D01*
X15871591Y-8687549D01*
X15868072Y-8693928D01*
X15866039Y-8696798D01*
X15859127Y-8699484D01*
X15850750Y-8698206D01*
X15849672Y-8697262D01*
X15846492Y-8692812D01*
X15842032Y-8685427D01*
X15836725Y-8675841D01*
X15831005Y-8664788D01*
X15814979Y-8632797D01*
X15800276Y-8662246D01*
X15798328Y-8666122D01*
X15792909Y-8676638D01*
X15788081Y-8685636D01*
X15784312Y-8692262D01*
X15782065Y-8695664D01*
X15781834Y-8695914D01*
X15776185Y-8698985D01*
X15769141Y-8699323D01*
X15762906Y-8696798D01*
X15762418Y-8696226D01*
X15759955Y-8692082D01*
X15755990Y-8684539D01*
X15750786Y-8674127D01*
X15744606Y-8661379D01*
X15737713Y-8646826D01*
X15730371Y-8631002D01*
X15726305Y-8622138D01*
X15718917Y-8605921D01*
X15713201Y-8593128D01*
X15708977Y-8583297D01*
X15706068Y-8575966D01*
X15704298Y-8570670D01*
X15703487Y-8566947D01*
X15703459Y-8564333D01*
X15704035Y-8562366D01*
X15706979Y-8558171D01*
X15712323Y-8554093D01*
X15712475Y-8554024D01*
X15716411Y-8552617D01*
X15719917Y-8552511D01*
X15723315Y-8554113D01*
G36*
X15723315Y-8554113D02*
G01*
X15726923Y-8557832D01*
X15731061Y-8564076D01*
X15736050Y-8573254D01*
X15742208Y-8585774D01*
X15749856Y-8602045D01*
X15752796Y-8608349D01*
X15758772Y-8621042D01*
X15764015Y-8632012D01*
X15768232Y-8640660D01*
X15771135Y-8646386D01*
X15772431Y-8648591D01*
X15772704Y-8648475D01*
X15774711Y-8645673D01*
X15778185Y-8639739D01*
X15782724Y-8631378D01*
X15787929Y-8621296D01*
X15791138Y-8614971D01*
X15796954Y-8603850D01*
X15801472Y-8596012D01*
X15805131Y-8590894D01*
X15808372Y-8587934D01*
X15811633Y-8586570D01*
X15815355Y-8586240D01*
X15817465Y-8586336D01*
X15820702Y-8587181D01*
X15823779Y-8589363D01*
X15827113Y-8593436D01*
X15831125Y-8599952D01*
X15836233Y-8609464D01*
X15842856Y-8622526D01*
X15844811Y-8626394D01*
X15849725Y-8635769D01*
X15853790Y-8643034D01*
X15856629Y-8647532D01*
X15857864Y-8648606D01*
X15858139Y-8647949D01*
X15860022Y-8643748D01*
X15863410Y-8636328D01*
X15868013Y-8626313D01*
X15873546Y-8614330D01*
X15879721Y-8601005D01*
X15885087Y-8589510D01*
X15891038Y-8577057D01*
X15895673Y-8567868D01*
X15899285Y-8561431D01*
X15902167Y-8557234D01*
X15904613Y-8554764D01*
X15906917Y-8553508D01*
X15908807Y-8552927D01*
X15913851Y-8552897D01*
X15919303Y-8555979D01*
X15919565Y-8556177D01*
X15924001Y-8560724D01*
X15926221Y-8565189D01*
X15926230Y-8565318D01*
X15925318Y-8568866D01*
X15922733Y-8575810D01*
X15918764Y-8585522D01*
X15913697Y-8597375D01*
X15907818Y-8610740D01*
X15901416Y-8624990D01*
X15894777Y-8639498D01*
X15888187Y-8653636D01*
X15881935Y-8666775D01*
X15876307Y-8678289D01*
X15871591Y-8687549D01*
X15868072Y-8693928D01*
X15866039Y-8696798D01*
X15859127Y-8699484D01*
X15850750Y-8698206D01*
X15849672Y-8697262D01*
X15846492Y-8692812D01*
X15842032Y-8685427D01*
X15836725Y-8675841D01*
X15831005Y-8664788D01*
X15814979Y-8632797D01*
X15800276Y-8662246D01*
X15798328Y-8666122D01*
X15792909Y-8676638D01*
X15788081Y-8685636D01*
X15784312Y-8692262D01*
X15782065Y-8695664D01*
X15781834Y-8695914D01*
X15776185Y-8698985D01*
X15769141Y-8699323D01*
X15762906Y-8696798D01*
X15762418Y-8696226D01*
X15759955Y-8692082D01*
X15755990Y-8684539D01*
X15750786Y-8674127D01*
X15744606Y-8661379D01*
X15737713Y-8646826D01*
X15730371Y-8631002D01*
X15726305Y-8622138D01*
X15718917Y-8605921D01*
X15713201Y-8593128D01*
X15708977Y-8583297D01*
X15706068Y-8575966D01*
X15704298Y-8570670D01*
X15703487Y-8566947D01*
X15703459Y-8564333D01*
X15704035Y-8562366D01*
X15706979Y-8558171D01*
X15712323Y-8554093D01*
X15712475Y-8554024D01*
X15716411Y-8552617D01*
X15719917Y-8552511D01*
X15723315Y-8554113D01*
G37*
X17240287Y-8552397D02*
X17253596Y-8553488D01*
X17264705Y-8555416D01*
X17274927Y-8558401D01*
X17289253Y-8565057D01*
X17299530Y-8573632D01*
X17305722Y-8584091D01*
X17307794Y-8596402D01*
X17307606Y-8602679D01*
X17306443Y-8607661D01*
X17303468Y-8612014D01*
X17297848Y-8617509D01*
X17296246Y-8618981D01*
X17291483Y-8623180D01*
X17286984Y-8626590D01*
X17282156Y-8629393D01*
X17276404Y-8631774D01*
X17269137Y-8633916D01*
X17259759Y-8636004D01*
X17247678Y-8638220D01*
X17232299Y-8640750D01*
X17213030Y-8643777D01*
X17209341Y-8644386D01*
X17196819Y-8647122D01*
X17187735Y-8650283D01*
X17182455Y-8653713D01*
X17181344Y-8657255D01*
X17181871Y-8658113D01*
X17185473Y-8661139D01*
X17191123Y-8664481D01*
X17193695Y-8665685D01*
X17197973Y-8667130D01*
X17203274Y-8668089D01*
X17210475Y-8668656D01*
X17220454Y-8668920D01*
X17234089Y-8668975D01*
X17237662Y-8668961D01*
X17251247Y-8668737D01*
X17264292Y-8668290D01*
X17275467Y-8667674D01*
X17283439Y-8666944D01*
X17290573Y-8666127D01*
X17296449Y-8665970D01*
X17300246Y-8666894D01*
X17303282Y-8669038D01*
X17304017Y-8669760D01*
X17307300Y-8676143D01*
X17307035Y-8683306D01*
X17303226Y-8689457D01*
X17299134Y-8691788D01*
X17291905Y-8694339D01*
X17283383Y-8696358D01*
X17282689Y-8696478D01*
X17274117Y-8697526D01*
X17262589Y-8698405D01*
X17249527Y-8699025D01*
X17236357Y-8699298D01*
X17233096Y-8699306D01*
X17213346Y-8698809D01*
X17197264Y-8697200D01*
X17184170Y-8694281D01*
X17173383Y-8689850D01*
X17164222Y-8683708D01*
X17156007Y-8675655D01*
X17151964Y-8670386D01*
X17149629Y-8664450D01*
X17149044Y-8656471D01*
X17149073Y-8654067D01*
X17149851Y-8647501D01*
X17152339Y-8642172D01*
X17157394Y-8635975D01*
X17161656Y-8631527D01*
X17166958Y-8626998D01*
X17172928Y-8623308D01*
X17180206Y-8620243D01*
X17189434Y-8617589D01*
X17201252Y-8615131D01*
X17216301Y-8612655D01*
X17235223Y-8609947D01*
X17244326Y-8608538D01*
X17257977Y-8605614D01*
X17267848Y-8602299D01*
X17273788Y-8598703D01*
X17275647Y-8594936D01*
X17273273Y-8591105D01*
X17266516Y-8587319D01*
X17265905Y-8587075D01*
X17256591Y-8584649D01*
X17244005Y-8583001D01*
X17229253Y-8582166D01*
X17213441Y-8582174D01*
X17197675Y-8583060D01*
X17183062Y-8584855D01*
X17182273Y-8584985D01*
X17172467Y-8586534D01*
X17165987Y-8587259D01*
X17161769Y-8587139D01*
X17158745Y-8586151D01*
X17155848Y-8584270D01*
X17155613Y-8584096D01*
X17150688Y-8577994D01*
X17149725Y-8570862D01*
X17152900Y-8563915D01*
X17153813Y-8563019D01*
X17159763Y-8559978D01*
X17169201Y-8557342D01*
X17181316Y-8555172D01*
X17195294Y-8553531D01*
X17210324Y-8552480D01*
X17225593Y-8552082D01*
X17240287Y-8552397D01*
G36*
X17240287Y-8552397D02*
G01*
X17253596Y-8553488D01*
X17264705Y-8555416D01*
X17274927Y-8558401D01*
X17289253Y-8565057D01*
X17299530Y-8573632D01*
X17305722Y-8584091D01*
X17307794Y-8596402D01*
X17307606Y-8602679D01*
X17306443Y-8607661D01*
X17303468Y-8612014D01*
X17297848Y-8617509D01*
X17296246Y-8618981D01*
X17291483Y-8623180D01*
X17286984Y-8626590D01*
X17282156Y-8629393D01*
X17276404Y-8631774D01*
X17269137Y-8633916D01*
X17259759Y-8636004D01*
X17247678Y-8638220D01*
X17232299Y-8640750D01*
X17213030Y-8643777D01*
X17209341Y-8644386D01*
X17196819Y-8647122D01*
X17187735Y-8650283D01*
X17182455Y-8653713D01*
X17181344Y-8657255D01*
X17181871Y-8658113D01*
X17185473Y-8661139D01*
X17191123Y-8664481D01*
X17193695Y-8665685D01*
X17197973Y-8667130D01*
X17203274Y-8668089D01*
X17210475Y-8668656D01*
X17220454Y-8668920D01*
X17234089Y-8668975D01*
X17237662Y-8668961D01*
X17251247Y-8668737D01*
X17264292Y-8668290D01*
X17275467Y-8667674D01*
X17283439Y-8666944D01*
X17290573Y-8666127D01*
X17296449Y-8665970D01*
X17300246Y-8666894D01*
X17303282Y-8669038D01*
X17304017Y-8669760D01*
X17307300Y-8676143D01*
X17307035Y-8683306D01*
X17303226Y-8689457D01*
X17299134Y-8691788D01*
X17291905Y-8694339D01*
X17283383Y-8696358D01*
X17282689Y-8696478D01*
X17274117Y-8697526D01*
X17262589Y-8698405D01*
X17249527Y-8699025D01*
X17236357Y-8699298D01*
X17233096Y-8699306D01*
X17213346Y-8698809D01*
X17197264Y-8697200D01*
X17184170Y-8694281D01*
X17173383Y-8689850D01*
X17164222Y-8683708D01*
X17156007Y-8675655D01*
X17151964Y-8670386D01*
X17149629Y-8664450D01*
X17149044Y-8656471D01*
X17149073Y-8654067D01*
X17149851Y-8647501D01*
X17152339Y-8642172D01*
X17157394Y-8635975D01*
X17161656Y-8631527D01*
X17166958Y-8626998D01*
X17172928Y-8623308D01*
X17180206Y-8620243D01*
X17189434Y-8617589D01*
X17201252Y-8615131D01*
X17216301Y-8612655D01*
X17235223Y-8609947D01*
X17244326Y-8608538D01*
X17257977Y-8605614D01*
X17267848Y-8602299D01*
X17273788Y-8598703D01*
X17275647Y-8594936D01*
X17273273Y-8591105D01*
X17266516Y-8587319D01*
X17265905Y-8587075D01*
X17256591Y-8584649D01*
X17244005Y-8583001D01*
X17229253Y-8582166D01*
X17213441Y-8582174D01*
X17197675Y-8583060D01*
X17183062Y-8584855D01*
X17182273Y-8584985D01*
X17172467Y-8586534D01*
X17165987Y-8587259D01*
X17161769Y-8587139D01*
X17158745Y-8586151D01*
X17155848Y-8584270D01*
X17155613Y-8584096D01*
X17150688Y-8577994D01*
X17149725Y-8570862D01*
X17152900Y-8563915D01*
X17153813Y-8563019D01*
X17159763Y-8559978D01*
X17169201Y-8557342D01*
X17181316Y-8555172D01*
X17195294Y-8553531D01*
X17210324Y-8552480D01*
X17225593Y-8552082D01*
X17240287Y-8552397D01*
G37*
X16455143Y-7494107D02*
X16491844Y-7497476D01*
X16525940Y-7504271D01*
X16558699Y-7514778D01*
X16591388Y-7529282D01*
X16623747Y-7547801D01*
X16658474Y-7573047D01*
X16690678Y-7602237D01*
X16719649Y-7634647D01*
X16744679Y-7669555D01*
X16765058Y-7706238D01*
X16766907Y-7710162D01*
X16782399Y-7748041D01*
X16794170Y-7787401D01*
X16802374Y-7828995D01*
X16807161Y-7873574D01*
X16808684Y-7921890D01*
X16806832Y-7971837D01*
X16800953Y-8021025D01*
X16790956Y-8067071D01*
X16776750Y-8110300D01*
X16758248Y-8151040D01*
X16735359Y-8189618D01*
X16713859Y-8219091D01*
X16684172Y-8252253D01*
X16651814Y-8280657D01*
X16616800Y-8304294D01*
X16579144Y-8323155D01*
X16538860Y-8337231D01*
X16495962Y-8346512D01*
X16495473Y-8346584D01*
X16487212Y-8347309D01*
X16474745Y-8347847D01*
X16459226Y-8348172D01*
X16441807Y-8348260D01*
X16423641Y-8348085D01*
X16410909Y-8347830D01*
X16392019Y-8347238D01*
X16376882Y-8346390D01*
X16364406Y-8345196D01*
X16353500Y-8343565D01*
X16343071Y-8341407D01*
X16331338Y-8338619D01*
X16319097Y-8335444D01*
X16308026Y-8332113D01*
X16297120Y-8328236D01*
X16285375Y-8323423D01*
X16271787Y-8317283D01*
X16255349Y-8309428D01*
X16235058Y-8299465D01*
X16178937Y-8271731D01*
X16223886Y-8197900D01*
X16229771Y-8188237D01*
X16240343Y-8170891D01*
X16249806Y-8155383D01*
X16257814Y-8142279D01*
X16264020Y-8132145D01*
X16268080Y-8125547D01*
X16269646Y-8123050D01*
X16270082Y-8123125D01*
X16273592Y-8125568D01*
X16279759Y-8130640D01*
X16287608Y-8137552D01*
X16301587Y-8149494D01*
X16326543Y-8167154D01*
X16350755Y-8179465D01*
X16368252Y-8185613D01*
X16397846Y-8191896D01*
X16426924Y-8193010D01*
X16455062Y-8189030D01*
X16481840Y-8180033D01*
X16506837Y-8166093D01*
X16529629Y-8147288D01*
X16542312Y-8133437D01*
X16560179Y-8107818D01*
X16574840Y-8078089D01*
X16586364Y-8044097D01*
X16594823Y-8005689D01*
X16595206Y-8003305D01*
X16596979Y-7987851D01*
X16598299Y-7968649D01*
X16599155Y-7947013D01*
X16599537Y-7924253D01*
X16599433Y-7901681D01*
X16598834Y-7880611D01*
X16597728Y-7862353D01*
X16596105Y-7848220D01*
X16589884Y-7816206D01*
X16579416Y-7778809D01*
X16566252Y-7746069D01*
X16550408Y-7718010D01*
X16531902Y-7694659D01*
X16510751Y-7676040D01*
X16486975Y-7662179D01*
X16460589Y-7653101D01*
X16454734Y-7651974D01*
X16440064Y-7650503D01*
X16422919Y-7650023D01*
X16405220Y-7650507D01*
X16388889Y-7651930D01*
X16375845Y-7654264D01*
X16354117Y-7661697D01*
X16328901Y-7675267D01*
X16306449Y-7693125D01*
X16302486Y-7696887D01*
X16295305Y-7703543D01*
X16290230Y-7708022D01*
X16288169Y-7709512D01*
X16287661Y-7708800D01*
X16284537Y-7704300D01*
X16278892Y-7696128D01*
X16271101Y-7684827D01*
X16261535Y-7670938D01*
X16250569Y-7655000D01*
X16238574Y-7637556D01*
X16189512Y-7566182D01*
X16200472Y-7562898D01*
X16201616Y-7562526D01*
X16209061Y-7559570D01*
X16219794Y-7554804D01*
X16232557Y-7548802D01*
X16246089Y-7542135D01*
X16251986Y-7539187D01*
X16284730Y-7523970D01*
X16314909Y-7512202D01*
X16343685Y-7503583D01*
X16372219Y-7497812D01*
X16401670Y-7494588D01*
X16433200Y-7493610D01*
X16455143Y-7494107D01*
G36*
X16455143Y-7494107D02*
G01*
X16491844Y-7497476D01*
X16525940Y-7504271D01*
X16558699Y-7514778D01*
X16591388Y-7529282D01*
X16623747Y-7547801D01*
X16658474Y-7573047D01*
X16690678Y-7602237D01*
X16719649Y-7634647D01*
X16744679Y-7669555D01*
X16765058Y-7706238D01*
X16766907Y-7710162D01*
X16782399Y-7748041D01*
X16794170Y-7787401D01*
X16802374Y-7828995D01*
X16807161Y-7873574D01*
X16808684Y-7921890D01*
X16806832Y-7971837D01*
X16800953Y-8021025D01*
X16790956Y-8067071D01*
X16776750Y-8110300D01*
X16758248Y-8151040D01*
X16735359Y-8189618D01*
X16713859Y-8219091D01*
X16684172Y-8252253D01*
X16651814Y-8280657D01*
X16616800Y-8304294D01*
X16579144Y-8323155D01*
X16538860Y-8337231D01*
X16495962Y-8346512D01*
X16495473Y-8346584D01*
X16487212Y-8347309D01*
X16474745Y-8347847D01*
X16459226Y-8348172D01*
X16441807Y-8348260D01*
X16423641Y-8348085D01*
X16410909Y-8347830D01*
X16392019Y-8347238D01*
X16376882Y-8346390D01*
X16364406Y-8345196D01*
X16353500Y-8343565D01*
X16343071Y-8341407D01*
X16331338Y-8338619D01*
X16319097Y-8335444D01*
X16308026Y-8332113D01*
X16297120Y-8328236D01*
X16285375Y-8323423D01*
X16271787Y-8317283D01*
X16255349Y-8309428D01*
X16235058Y-8299465D01*
X16178937Y-8271731D01*
X16223886Y-8197900D01*
X16229771Y-8188237D01*
X16240343Y-8170891D01*
X16249806Y-8155383D01*
X16257814Y-8142279D01*
X16264020Y-8132145D01*
X16268080Y-8125547D01*
X16269646Y-8123050D01*
X16270082Y-8123125D01*
X16273592Y-8125568D01*
X16279759Y-8130640D01*
X16287608Y-8137552D01*
X16301587Y-8149494D01*
X16326543Y-8167154D01*
X16350755Y-8179465D01*
X16368252Y-8185613D01*
X16397846Y-8191896D01*
X16426924Y-8193010D01*
X16455062Y-8189030D01*
X16481840Y-8180033D01*
X16506837Y-8166093D01*
X16529629Y-8147288D01*
X16542312Y-8133437D01*
X16560179Y-8107818D01*
X16574840Y-8078089D01*
X16586364Y-8044097D01*
X16594823Y-8005689D01*
X16595206Y-8003305D01*
X16596979Y-7987851D01*
X16598299Y-7968649D01*
X16599155Y-7947013D01*
X16599537Y-7924253D01*
X16599433Y-7901681D01*
X16598834Y-7880611D01*
X16597728Y-7862353D01*
X16596105Y-7848220D01*
X16589884Y-7816206D01*
X16579416Y-7778809D01*
X16566252Y-7746069D01*
X16550408Y-7718010D01*
X16531902Y-7694659D01*
X16510751Y-7676040D01*
X16486975Y-7662179D01*
X16460589Y-7653101D01*
X16454734Y-7651974D01*
X16440064Y-7650503D01*
X16422919Y-7650023D01*
X16405220Y-7650507D01*
X16388889Y-7651930D01*
X16375845Y-7654264D01*
X16354117Y-7661697D01*
X16328901Y-7675267D01*
X16306449Y-7693125D01*
X16302486Y-7696887D01*
X16295305Y-7703543D01*
X16290230Y-7708022D01*
X16288169Y-7709512D01*
X16287661Y-7708800D01*
X16284537Y-7704300D01*
X16278892Y-7696128D01*
X16271101Y-7684827D01*
X16261535Y-7670938D01*
X16250569Y-7655000D01*
X16238574Y-7637556D01*
X16189512Y-7566182D01*
X16200472Y-7562898D01*
X16201616Y-7562526D01*
X16209061Y-7559570D01*
X16219794Y-7554804D01*
X16232557Y-7548802D01*
X16246089Y-7542135D01*
X16251986Y-7539187D01*
X16284730Y-7523970D01*
X16314909Y-7512202D01*
X16343685Y-7503583D01*
X16372219Y-7497812D01*
X16401670Y-7494588D01*
X16433200Y-7493610D01*
X16455143Y-7494107D01*
G37*
X15562947Y-8063215D02*
X15562367Y-8088490D01*
X15560710Y-8110780D01*
X15557847Y-8131297D01*
X15553650Y-8151255D01*
X15547991Y-8171865D01*
X15539409Y-8196501D01*
X15523646Y-8229758D01*
X15504311Y-8259546D01*
X15481700Y-8285583D01*
X15456108Y-8307589D01*
X15427831Y-8325281D01*
X15397164Y-8338377D01*
X15364404Y-8346598D01*
X15364010Y-8346664D01*
X15340068Y-8348967D01*
X15313763Y-8348660D01*
X15286969Y-8345931D01*
X15261562Y-8340970D01*
X15239418Y-8333967D01*
X15229966Y-8329705D01*
X15217656Y-8323227D01*
X15205007Y-8315819D01*
X15193338Y-8308294D01*
X15183970Y-8301470D01*
X15178222Y-8296160D01*
X15176902Y-8294703D01*
X15175329Y-8294193D01*
X15174278Y-8296723D01*
X15173503Y-8303098D01*
X15172759Y-8314125D01*
X15171394Y-8337102D01*
X15066792Y-8337817D01*
X14962190Y-8338533D01*
X14969427Y-8326183D01*
X14969859Y-8325452D01*
X14971963Y-8322025D01*
X14973873Y-8318971D01*
X14975597Y-8316026D01*
X14977146Y-8312925D01*
X14978531Y-8309402D01*
X14979762Y-8305192D01*
X14980849Y-8300029D01*
X14981802Y-8293649D01*
X14982631Y-8285786D01*
X14983348Y-8276175D01*
X14983961Y-8264550D01*
X14984482Y-8250647D01*
X14984921Y-8234199D01*
X14985287Y-8214942D01*
X14985592Y-8192611D01*
X14985845Y-8166939D01*
X14986057Y-8137662D01*
X14986238Y-8104515D01*
X14986399Y-8067232D01*
X14986549Y-8025548D01*
X14986698Y-7979197D01*
X14986858Y-7927915D01*
X14986999Y-7883781D01*
X15185050Y-7883781D01*
X15185050Y-8167691D01*
X15198705Y-8176648D01*
X15203957Y-8179875D01*
X15215982Y-8186321D01*
X15227383Y-8191454D01*
X15232376Y-8193192D01*
X15248263Y-8196662D01*
X15268351Y-8198433D01*
X15278565Y-8198802D01*
X15288047Y-8198718D01*
X15295105Y-8197771D01*
X15301435Y-8195701D01*
X15308735Y-8192249D01*
X15322763Y-8183001D01*
X15334915Y-8169919D01*
X15344643Y-8153061D01*
X15352039Y-8132162D01*
X15357195Y-8106957D01*
X15360203Y-8077184D01*
X15361157Y-8042577D01*
X15361110Y-8034709D01*
X15359739Y-7998255D01*
X15356410Y-7966534D01*
X15351042Y-7939214D01*
X15343553Y-7915958D01*
X15333863Y-7896432D01*
X15321891Y-7880301D01*
X15316924Y-7875378D01*
X15301532Y-7865122D01*
X15283462Y-7858881D01*
X15263498Y-7856690D01*
X15242423Y-7858586D01*
X15221020Y-7864603D01*
X15200071Y-7874777D01*
X15185050Y-7883781D01*
X14986999Y-7883781D01*
X14987039Y-7871435D01*
X14988404Y-7454930D01*
X15096969Y-7454216D01*
X15104864Y-7454168D01*
X15128093Y-7454072D01*
X15149339Y-7454053D01*
X15168022Y-7454106D01*
X15183564Y-7454226D01*
X15195382Y-7454411D01*
X15202899Y-7454656D01*
X15205533Y-7454957D01*
X15205196Y-7455911D01*
X15202682Y-7460435D01*
X15198518Y-7467014D01*
X15198103Y-7467643D01*
X15194874Y-7472722D01*
X15192167Y-7477664D01*
X15189935Y-7482978D01*
X15188134Y-7489173D01*
X15186716Y-7496757D01*
X15185636Y-7506240D01*
X15184848Y-7518132D01*
X15184307Y-7532940D01*
X15183965Y-7551175D01*
X15183778Y-7573344D01*
X15183700Y-7599958D01*
X15183684Y-7631525D01*
X15183713Y-7656171D01*
X15183800Y-7680368D01*
X15183940Y-7702308D01*
X15184127Y-7721457D01*
X15184354Y-7737280D01*
X15184614Y-7749244D01*
X15184901Y-7756815D01*
X15185210Y-7759457D01*
X15186204Y-7759047D01*
X15190575Y-7756159D01*
X15196817Y-7751416D01*
X15205867Y-7745039D01*
X15222870Y-7735641D01*
X15242304Y-7727259D01*
X15262354Y-7720740D01*
X15279200Y-7717416D01*
X15300181Y-7715297D01*
X15322888Y-7714563D01*
X15345569Y-7715215D01*
X15366471Y-7717253D01*
X15383843Y-7720678D01*
X15401532Y-7726449D01*
X15431041Y-7740437D01*
X15458363Y-7759034D01*
X15482996Y-7781811D01*
X15504435Y-7808340D01*
X15522176Y-7838193D01*
X15526581Y-7847347D01*
X15538923Y-7878224D01*
X15548573Y-7911736D01*
X15555651Y-7948473D01*
X15560281Y-7989026D01*
X15562583Y-8033986D01*
X15562690Y-8042577D01*
X15562947Y-8063215D01*
G36*
X15562947Y-8063215D02*
G01*
X15562367Y-8088490D01*
X15560710Y-8110780D01*
X15557847Y-8131297D01*
X15553650Y-8151255D01*
X15547991Y-8171865D01*
X15539409Y-8196501D01*
X15523646Y-8229758D01*
X15504311Y-8259546D01*
X15481700Y-8285583D01*
X15456108Y-8307589D01*
X15427831Y-8325281D01*
X15397164Y-8338377D01*
X15364404Y-8346598D01*
X15364010Y-8346664D01*
X15340068Y-8348967D01*
X15313763Y-8348660D01*
X15286969Y-8345931D01*
X15261562Y-8340970D01*
X15239418Y-8333967D01*
X15229966Y-8329705D01*
X15217656Y-8323227D01*
X15205007Y-8315819D01*
X15193338Y-8308294D01*
X15183970Y-8301470D01*
X15178222Y-8296160D01*
X15176902Y-8294703D01*
X15175329Y-8294193D01*
X15174278Y-8296723D01*
X15173503Y-8303098D01*
X15172759Y-8314125D01*
X15171394Y-8337102D01*
X15066792Y-8337817D01*
X14962190Y-8338533D01*
X14969427Y-8326183D01*
X14969859Y-8325452D01*
X14971963Y-8322025D01*
X14973873Y-8318971D01*
X14975597Y-8316026D01*
X14977146Y-8312925D01*
X14978531Y-8309402D01*
X14979762Y-8305192D01*
X14980849Y-8300029D01*
X14981802Y-8293649D01*
X14982631Y-8285786D01*
X14983348Y-8276175D01*
X14983961Y-8264550D01*
X14984482Y-8250647D01*
X14984921Y-8234199D01*
X14985287Y-8214942D01*
X14985592Y-8192611D01*
X14985845Y-8166939D01*
X14986057Y-8137662D01*
X14986238Y-8104515D01*
X14986399Y-8067232D01*
X14986549Y-8025548D01*
X14986698Y-7979197D01*
X14986858Y-7927915D01*
X14986999Y-7883781D01*
X15185050Y-7883781D01*
X15185050Y-8167691D01*
X15198705Y-8176648D01*
X15203957Y-8179875D01*
X15215982Y-8186321D01*
X15227383Y-8191454D01*
X15232376Y-8193192D01*
X15248263Y-8196662D01*
X15268351Y-8198433D01*
X15278565Y-8198802D01*
X15288047Y-8198718D01*
X15295105Y-8197771D01*
X15301435Y-8195701D01*
X15308735Y-8192249D01*
X15322763Y-8183001D01*
X15334915Y-8169919D01*
X15344643Y-8153061D01*
X15352039Y-8132162D01*
X15357195Y-8106957D01*
X15360203Y-8077184D01*
X15361157Y-8042577D01*
X15361110Y-8034709D01*
X15359739Y-7998255D01*
X15356410Y-7966534D01*
X15351042Y-7939214D01*
X15343553Y-7915958D01*
X15333863Y-7896432D01*
X15321891Y-7880301D01*
X15316924Y-7875378D01*
X15301532Y-7865122D01*
X15283462Y-7858881D01*
X15263498Y-7856690D01*
X15242423Y-7858586D01*
X15221020Y-7864603D01*
X15200071Y-7874777D01*
X15185050Y-7883781D01*
X14986999Y-7883781D01*
X14987039Y-7871435D01*
X14988404Y-7454930D01*
X15096969Y-7454216D01*
X15104864Y-7454168D01*
X15128093Y-7454072D01*
X15149339Y-7454053D01*
X15168022Y-7454106D01*
X15183564Y-7454226D01*
X15195382Y-7454411D01*
X15202899Y-7454656D01*
X15205533Y-7454957D01*
X15205196Y-7455911D01*
X15202682Y-7460435D01*
X15198518Y-7467014D01*
X15198103Y-7467643D01*
X15194874Y-7472722D01*
X15192167Y-7477664D01*
X15189935Y-7482978D01*
X15188134Y-7489173D01*
X15186716Y-7496757D01*
X15185636Y-7506240D01*
X15184848Y-7518132D01*
X15184307Y-7532940D01*
X15183965Y-7551175D01*
X15183778Y-7573344D01*
X15183700Y-7599958D01*
X15183684Y-7631525D01*
X15183713Y-7656171D01*
X15183800Y-7680368D01*
X15183940Y-7702308D01*
X15184127Y-7721457D01*
X15184354Y-7737280D01*
X15184614Y-7749244D01*
X15184901Y-7756815D01*
X15185210Y-7759457D01*
X15186204Y-7759047D01*
X15190575Y-7756159D01*
X15196817Y-7751416D01*
X15205867Y-7745039D01*
X15222870Y-7735641D01*
X15242304Y-7727259D01*
X15262354Y-7720740D01*
X15279200Y-7717416D01*
X15300181Y-7715297D01*
X15322888Y-7714563D01*
X15345569Y-7715215D01*
X15366471Y-7717253D01*
X15383843Y-7720678D01*
X15401532Y-7726449D01*
X15431041Y-7740437D01*
X15458363Y-7759034D01*
X15482996Y-7781811D01*
X15504435Y-7808340D01*
X15522176Y-7838193D01*
X15526581Y-7847347D01*
X15538923Y-7878224D01*
X15548573Y-7911736D01*
X15555651Y-7948473D01*
X15560281Y-7989026D01*
X15562583Y-8033986D01*
X15562690Y-8042577D01*
X15562947Y-8063215D01*
G37*
X16180285Y-8149157D02*
X16179058Y-8171178D01*
X16176407Y-8191668D01*
X16172407Y-8208736D01*
X16166024Y-8226297D01*
X16151229Y-8255237D01*
X16132317Y-8280698D01*
X16109485Y-8302508D01*
X16082929Y-8320492D01*
X16052844Y-8334478D01*
X16019426Y-8344292D01*
X16005799Y-8346505D01*
X15986326Y-8348043D01*
X15965119Y-8348389D01*
X15943950Y-8347571D01*
X15924590Y-8345616D01*
X15908813Y-8342552D01*
X15900885Y-8340140D01*
X15882879Y-8333081D01*
X15864576Y-8324119D01*
X15847864Y-8314227D01*
X15834630Y-8304374D01*
X15834468Y-8304232D01*
X15827216Y-8298084D01*
X15821637Y-8293706D01*
X15818926Y-8292037D01*
X15818630Y-8292436D01*
X15817959Y-8296738D01*
X15817493Y-8304761D01*
X15817318Y-8315252D01*
X15817318Y-8338468D01*
X15714899Y-8338468D01*
X15712173Y-8338467D01*
X15689306Y-8338427D01*
X15668319Y-8338328D01*
X15649809Y-8338176D01*
X15634373Y-8337979D01*
X15622608Y-8337746D01*
X15615111Y-8337482D01*
X15612480Y-8337196D01*
X15612541Y-8336946D01*
X15614263Y-8333255D01*
X15617872Y-8326322D01*
X15622722Y-8317395D01*
X15632963Y-8298865D01*
X15634465Y-8115926D01*
X15828243Y-8115926D01*
X15828319Y-8130380D01*
X15828688Y-8145567D01*
X15829411Y-8156544D01*
X15830541Y-8164026D01*
X15832130Y-8168729D01*
X15834174Y-8172087D01*
X15841872Y-8181240D01*
X15852186Y-8190769D01*
X15863490Y-8199260D01*
X15874159Y-8205297D01*
X15880078Y-8207513D01*
X15893708Y-8210462D01*
X15911509Y-8211970D01*
X15930278Y-8211741D01*
X15948101Y-8208640D01*
X15962977Y-8202233D01*
X15975848Y-8192231D01*
X15979469Y-8188531D01*
X15988896Y-8175915D01*
X15993996Y-8162316D01*
X15995528Y-8145953D01*
X15995113Y-8137308D01*
X15991009Y-8119512D01*
X15982388Y-8104237D01*
X15969092Y-8091312D01*
X15950965Y-8080564D01*
X15927849Y-8071822D01*
X15918530Y-8069528D01*
X15907249Y-8067957D01*
X15893051Y-8067085D01*
X15874673Y-8066792D01*
X15871688Y-8066792D01*
X15857939Y-8066960D01*
X15846129Y-8067366D01*
X15837432Y-8067956D01*
X15833023Y-8068678D01*
X15832515Y-8068912D01*
X15830875Y-8070383D01*
X15829713Y-8073340D01*
X15828949Y-8078577D01*
X15828503Y-8086890D01*
X15828295Y-8099075D01*
X15828243Y-8115926D01*
X15634465Y-8115926D01*
X15634544Y-8106317D01*
X15634779Y-8078272D01*
X15635108Y-8042505D01*
X15635453Y-8011454D01*
X15635842Y-7984680D01*
X15636303Y-7961744D01*
X15636864Y-7942207D01*
X15637553Y-7925629D01*
X15638398Y-7911571D01*
X15639427Y-7899595D01*
X15640666Y-7889261D01*
X15642145Y-7880130D01*
X15643892Y-7871763D01*
X15645933Y-7863721D01*
X15648297Y-7855565D01*
X15651012Y-7846855D01*
X15661708Y-7819549D01*
X15676356Y-7794313D01*
X15694598Y-7772707D01*
X15716600Y-7754618D01*
X15742531Y-7739933D01*
X15772557Y-7728539D01*
X15806845Y-7720323D01*
X15845562Y-7715172D01*
X15859094Y-7714147D01*
X15881884Y-7713398D01*
X15904473Y-7714073D01*
X15927918Y-7716284D01*
X15953276Y-7720147D01*
X15981605Y-7725774D01*
X16013963Y-7733279D01*
X16021443Y-7735095D01*
X16040226Y-7739563D01*
X16058028Y-7743678D01*
X16073771Y-7747195D01*
X16086374Y-7749872D01*
X16094757Y-7751466D01*
X16114100Y-7754643D01*
X16086907Y-7820550D01*
X16080105Y-7837005D01*
X16073414Y-7853130D01*
X16067672Y-7866896D01*
X16063163Y-7877632D01*
X16060168Y-7884662D01*
X16058968Y-7887315D01*
X16058780Y-7887353D01*
X16055303Y-7886169D01*
X16048468Y-7883134D01*
X16039507Y-7878788D01*
X16020881Y-7870326D01*
X15995251Y-7861073D01*
X15969018Y-7853988D01*
X15943209Y-7849247D01*
X15918850Y-7847029D01*
X15896966Y-7847512D01*
X15878583Y-7850873D01*
X15865753Y-7856207D01*
X15851182Y-7867137D01*
X15839965Y-7881965D01*
X15832424Y-7900235D01*
X15828878Y-7921490D01*
X15827630Y-7941080D01*
X15892802Y-7941259D01*
X15914781Y-7941443D01*
X15939090Y-7942098D01*
X15959858Y-7943333D01*
X15978156Y-7945269D01*
X15995061Y-7948026D01*
X16011646Y-7951724D01*
X16028985Y-7956483D01*
X16054929Y-7965542D01*
X16085444Y-7980460D01*
X16112224Y-7998733D01*
X16135007Y-8020104D01*
X16153527Y-8044316D01*
X16167520Y-8071112D01*
X16176723Y-8100236D01*
X16178164Y-8108079D01*
X16180012Y-8127494D01*
X16180244Y-8145953D01*
X16180285Y-8149157D01*
G36*
X16180285Y-8149157D02*
G01*
X16179058Y-8171178D01*
X16176407Y-8191668D01*
X16172407Y-8208736D01*
X16166024Y-8226297D01*
X16151229Y-8255237D01*
X16132317Y-8280698D01*
X16109485Y-8302508D01*
X16082929Y-8320492D01*
X16052844Y-8334478D01*
X16019426Y-8344292D01*
X16005799Y-8346505D01*
X15986326Y-8348043D01*
X15965119Y-8348389D01*
X15943950Y-8347571D01*
X15924590Y-8345616D01*
X15908813Y-8342552D01*
X15900885Y-8340140D01*
X15882879Y-8333081D01*
X15864576Y-8324119D01*
X15847864Y-8314227D01*
X15834630Y-8304374D01*
X15834468Y-8304232D01*
X15827216Y-8298084D01*
X15821637Y-8293706D01*
X15818926Y-8292037D01*
X15818630Y-8292436D01*
X15817959Y-8296738D01*
X15817493Y-8304761D01*
X15817318Y-8315252D01*
X15817318Y-8338468D01*
X15714899Y-8338468D01*
X15712173Y-8338467D01*
X15689306Y-8338427D01*
X15668319Y-8338328D01*
X15649809Y-8338176D01*
X15634373Y-8337979D01*
X15622608Y-8337746D01*
X15615111Y-8337482D01*
X15612480Y-8337196D01*
X15612541Y-8336946D01*
X15614263Y-8333255D01*
X15617872Y-8326322D01*
X15622722Y-8317395D01*
X15632963Y-8298865D01*
X15634465Y-8115926D01*
X15828243Y-8115926D01*
X15828319Y-8130380D01*
X15828688Y-8145567D01*
X15829411Y-8156544D01*
X15830541Y-8164026D01*
X15832130Y-8168729D01*
X15834174Y-8172087D01*
X15841872Y-8181240D01*
X15852186Y-8190769D01*
X15863490Y-8199260D01*
X15874159Y-8205297D01*
X15880078Y-8207513D01*
X15893708Y-8210462D01*
X15911509Y-8211970D01*
X15930278Y-8211741D01*
X15948101Y-8208640D01*
X15962977Y-8202233D01*
X15975848Y-8192231D01*
X15979469Y-8188531D01*
X15988896Y-8175915D01*
X15993996Y-8162316D01*
X15995528Y-8145953D01*
X15995113Y-8137308D01*
X15991009Y-8119512D01*
X15982388Y-8104237D01*
X15969092Y-8091312D01*
X15950965Y-8080564D01*
X15927849Y-8071822D01*
X15918530Y-8069528D01*
X15907249Y-8067957D01*
X15893051Y-8067085D01*
X15874673Y-8066792D01*
X15871688Y-8066792D01*
X15857939Y-8066960D01*
X15846129Y-8067366D01*
X15837432Y-8067956D01*
X15833023Y-8068678D01*
X15832515Y-8068912D01*
X15830875Y-8070383D01*
X15829713Y-8073340D01*
X15828949Y-8078577D01*
X15828503Y-8086890D01*
X15828295Y-8099075D01*
X15828243Y-8115926D01*
X15634465Y-8115926D01*
X15634544Y-8106317D01*
X15634779Y-8078272D01*
X15635108Y-8042505D01*
X15635453Y-8011454D01*
X15635842Y-7984680D01*
X15636303Y-7961744D01*
X15636864Y-7942207D01*
X15637553Y-7925629D01*
X15638398Y-7911571D01*
X15639427Y-7899595D01*
X15640666Y-7889261D01*
X15642145Y-7880130D01*
X15643892Y-7871763D01*
X15645933Y-7863721D01*
X15648297Y-7855565D01*
X15651012Y-7846855D01*
X15661708Y-7819549D01*
X15676356Y-7794313D01*
X15694598Y-7772707D01*
X15716600Y-7754618D01*
X15742531Y-7739933D01*
X15772557Y-7728539D01*
X15806845Y-7720323D01*
X15845562Y-7715172D01*
X15859094Y-7714147D01*
X15881884Y-7713398D01*
X15904473Y-7714073D01*
X15927918Y-7716284D01*
X15953276Y-7720147D01*
X15981605Y-7725774D01*
X16013963Y-7733279D01*
X16021443Y-7735095D01*
X16040226Y-7739563D01*
X16058028Y-7743678D01*
X16073771Y-7747195D01*
X16086374Y-7749872D01*
X16094757Y-7751466D01*
X16114100Y-7754643D01*
X16086907Y-7820550D01*
X16080105Y-7837005D01*
X16073414Y-7853130D01*
X16067672Y-7866896D01*
X16063163Y-7877632D01*
X16060168Y-7884662D01*
X16058968Y-7887315D01*
X16058780Y-7887353D01*
X16055303Y-7886169D01*
X16048468Y-7883134D01*
X16039507Y-7878788D01*
X16020881Y-7870326D01*
X15995251Y-7861073D01*
X15969018Y-7853988D01*
X15943209Y-7849247D01*
X15918850Y-7847029D01*
X15896966Y-7847512D01*
X15878583Y-7850873D01*
X15865753Y-7856207D01*
X15851182Y-7867137D01*
X15839965Y-7881965D01*
X15832424Y-7900235D01*
X15828878Y-7921490D01*
X15827630Y-7941080D01*
X15892802Y-7941259D01*
X15914781Y-7941443D01*
X15939090Y-7942098D01*
X15959858Y-7943333D01*
X15978156Y-7945269D01*
X15995061Y-7948026D01*
X16011646Y-7951724D01*
X16028985Y-7956483D01*
X16054929Y-7965542D01*
X16085444Y-7980460D01*
X16112224Y-7998733D01*
X16135007Y-8020104D01*
X16153527Y-8044316D01*
X16167520Y-8071112D01*
X16176723Y-8100236D01*
X16178164Y-8108079D01*
X16180012Y-8127494D01*
X16180244Y-8145953D01*
X16180285Y-8149157D01*
G37*
X18012544Y-8343866D02*
X18012263Y-8365045D01*
X18011914Y-8383289D01*
X18011490Y-8398824D01*
X18010984Y-8411875D01*
X18010389Y-8422668D01*
X18009697Y-8431429D01*
X18008903Y-8438384D01*
X18007997Y-8443759D01*
X18006975Y-8447779D01*
X18005827Y-8450670D01*
X18004548Y-8452659D01*
X18003130Y-8453970D01*
X18001565Y-8454831D01*
X17999848Y-8455466D01*
X17997971Y-8456102D01*
X17995926Y-8456965D01*
X17994775Y-8457397D01*
X17992665Y-8457869D01*
X17989528Y-8458301D01*
X17985145Y-8458696D01*
X17979293Y-8459054D01*
X17971749Y-8459378D01*
X17962293Y-8459670D01*
X17950702Y-8459931D01*
X17936755Y-8460162D01*
X17920229Y-8460366D01*
X17900903Y-8460545D01*
X17878555Y-8460699D01*
X17852963Y-8460832D01*
X17823905Y-8460943D01*
X17791159Y-8461036D01*
X17754504Y-8461112D01*
X17713718Y-8461173D01*
X17668579Y-8461220D01*
X17618865Y-8461256D01*
X17564354Y-8461281D01*
X17504824Y-8461298D01*
X17440054Y-8461309D01*
X17419528Y-8461311D01*
X17356164Y-8461312D01*
X17297975Y-8461304D01*
X17244743Y-8461285D01*
X17196248Y-8461254D01*
X17152272Y-8461209D01*
X17112594Y-8461148D01*
X17076996Y-8461069D01*
X17045259Y-8460972D01*
X17017163Y-8460855D01*
X16992489Y-8460716D01*
X16971017Y-8460553D01*
X16952530Y-8460364D01*
X16936807Y-8460149D01*
X16923629Y-8459906D01*
X16912777Y-8459633D01*
X16904031Y-8459328D01*
X16897174Y-8458990D01*
X16891984Y-8458617D01*
X16888243Y-8458208D01*
X16885733Y-8457761D01*
X16884233Y-8457275D01*
X16883755Y-8457058D01*
X16881802Y-8456347D01*
X16880010Y-8455828D01*
X16878373Y-8455274D01*
X16876884Y-8454460D01*
X16875535Y-8453159D01*
X16874319Y-8451145D01*
X16873228Y-8448192D01*
X16872257Y-8444074D01*
X16871396Y-8438565D01*
X16870640Y-8431438D01*
X16869980Y-8422468D01*
X16869409Y-8411427D01*
X16868921Y-8398091D01*
X16868508Y-8382232D01*
X16868162Y-8363625D01*
X16867877Y-8342043D01*
X16867783Y-8332050D01*
X16939805Y-8332050D01*
X16939884Y-8333007D01*
X16941332Y-8333782D01*
X16944606Y-8334395D01*
X16950158Y-8334865D01*
X16958444Y-8335211D01*
X16969919Y-8335451D01*
X16985038Y-8335604D01*
X17004254Y-8335690D01*
X17028023Y-8335728D01*
X17056800Y-8335736D01*
X17177344Y-8335736D01*
X17156964Y-8298865D01*
X17156964Y-7763554D01*
X17177344Y-7726683D01*
X16961876Y-7726683D01*
X16961097Y-8010043D01*
X16960318Y-8293403D01*
X16952680Y-8309716D01*
X16948653Y-8317802D01*
X16944093Y-8325901D01*
X16940649Y-8330883D01*
X16940641Y-8330892D01*
X16939805Y-8332050D01*
X16867783Y-8332050D01*
X16867645Y-8317261D01*
X16867459Y-8289052D01*
X16867311Y-8257190D01*
X16867195Y-8221449D01*
X16867102Y-8181602D01*
X16867027Y-8137424D01*
X16866961Y-8088688D01*
X16866897Y-8035169D01*
X16866829Y-7976639D01*
X16866748Y-7912873D01*
X16866738Y-7905154D01*
X16866647Y-7841792D01*
X16866561Y-7783640D01*
X16866485Y-7730472D01*
X16866426Y-7682061D01*
X16866390Y-7638181D01*
X16866383Y-7598605D01*
X16866413Y-7563108D01*
X16866484Y-7531463D01*
X16866604Y-7503444D01*
X16866779Y-7478825D01*
X16867015Y-7457379D01*
X16867320Y-7438880D01*
X16867698Y-7423102D01*
X16868156Y-7409819D01*
X16868702Y-7398804D01*
X16869341Y-7389830D01*
X16870079Y-7382673D01*
X16870924Y-7377105D01*
X16871881Y-7372901D01*
X16872957Y-7369833D01*
X16874157Y-7367676D01*
X16875490Y-7366204D01*
X16876960Y-7365189D01*
X16878575Y-7364407D01*
X16880340Y-7363630D01*
X16882262Y-7362632D01*
X16882825Y-7362315D01*
X16891336Y-7359238D01*
X16900654Y-7357973D01*
X16911157Y-7357974D01*
X16911332Y-7381871D01*
X16911377Y-7384621D01*
X16914715Y-7412575D01*
X16923218Y-7438877D01*
X16936767Y-7463248D01*
X16955244Y-7485411D01*
X16965159Y-7494450D01*
X16987236Y-7509432D01*
X17011325Y-7519880D01*
X17036723Y-7525788D01*
X17062729Y-7527150D01*
X17088641Y-7523962D01*
X17113758Y-7516216D01*
X17134406Y-7505457D01*
X17225789Y-7505457D01*
X17237806Y-7514103D01*
X17247970Y-7522229D01*
X17262291Y-7535483D01*
X17278535Y-7552094D01*
X17296086Y-7571429D01*
X17314329Y-7592855D01*
X17319027Y-7598584D01*
X17327026Y-7608412D01*
X17337481Y-7621304D01*
X17350047Y-7636833D01*
X17364377Y-7654566D01*
X17380124Y-7674074D01*
X17396943Y-7694926D01*
X17414486Y-7716693D01*
X17422533Y-7726683D01*
X17432408Y-7738943D01*
X17450362Y-7761246D01*
X17468001Y-7783173D01*
X17484980Y-7804293D01*
X17500952Y-7824175D01*
X17515570Y-7842389D01*
X17528489Y-7858505D01*
X17539361Y-7872093D01*
X17547840Y-7882721D01*
X17553581Y-7889961D01*
X17556236Y-7893381D01*
X17556455Y-7894666D01*
X17555726Y-7897111D01*
X17553837Y-7900957D01*
X17550600Y-7906477D01*
X17545825Y-7913944D01*
X17539325Y-7923630D01*
X17530911Y-7935809D01*
X17520393Y-7950754D01*
X17507585Y-7968736D01*
X17492297Y-7990029D01*
X17474340Y-8014906D01*
X17453527Y-8043640D01*
X17429668Y-8076503D01*
X17410657Y-8102661D01*
X17387463Y-8134550D01*
X17367062Y-8162555D01*
X17349214Y-8186987D01*
X17333685Y-8208155D01*
X17320235Y-8226372D01*
X17308628Y-8241948D01*
X17298626Y-8255193D01*
X17289993Y-8266419D01*
X17282490Y-8275936D01*
X17275882Y-8284055D01*
X17269930Y-8291087D01*
X17264397Y-8297343D01*
X17259046Y-8303133D01*
X17253640Y-8308769D01*
X17247941Y-8314561D01*
X17226940Y-8335736D01*
X17368113Y-8335742D01*
X17509286Y-8335748D01*
X17508399Y-8318638D01*
X17508356Y-8317778D01*
X17508188Y-8310938D01*
X17508507Y-8304385D01*
X17509527Y-8297759D01*
X17511462Y-8290701D01*
X17514525Y-8282853D01*
X17518930Y-8273855D01*
X17524890Y-8263348D01*
X17532619Y-8250975D01*
X17542330Y-8236374D01*
X17554237Y-8219189D01*
X17568553Y-8199058D01*
X17585492Y-8175625D01*
X17605267Y-8148529D01*
X17628093Y-8117412D01*
X17708663Y-8007723D01*
X17709372Y-8134904D01*
X17709435Y-8146767D01*
X17709546Y-8178722D01*
X17709496Y-8205901D01*
X17709225Y-8228820D01*
X17708673Y-8247993D01*
X17707782Y-8263933D01*
X17706492Y-8277156D01*
X17704743Y-8288175D01*
X17702477Y-8297506D01*
X17699633Y-8305662D01*
X17696153Y-8313157D01*
X17691977Y-8320507D01*
X17687045Y-8328226D01*
X17682088Y-8335736D01*
X17939725Y-8335736D01*
X17933070Y-8326860D01*
X17932028Y-8325456D01*
X17923696Y-8312586D01*
X17917952Y-8299575D01*
X17914180Y-8284667D01*
X17911764Y-8266105D01*
X17911698Y-8265295D01*
X17911347Y-8257639D01*
X17911030Y-8244864D01*
X17910749Y-8227263D01*
X17910505Y-8205128D01*
X17910299Y-8178751D01*
X17910132Y-8148423D01*
X17910007Y-8114437D01*
X17909923Y-8077084D01*
X17909883Y-8036657D01*
X17909889Y-7993447D01*
X17909941Y-7947746D01*
X17910040Y-7899846D01*
X17910146Y-7856880D01*
X17910258Y-7810110D01*
X17910369Y-7768265D01*
X17910493Y-7731051D01*
X17910642Y-7698176D01*
X17910832Y-7669346D01*
X17911075Y-7644269D01*
X17911386Y-7622650D01*
X17911780Y-7604197D01*
X17912269Y-7588616D01*
X17912868Y-7575615D01*
X17913591Y-7564900D01*
X17914451Y-7556178D01*
X17915463Y-7549156D01*
X17916640Y-7543541D01*
X17917997Y-7539039D01*
X17919548Y-7535358D01*
X17921306Y-7532204D01*
X17923285Y-7529284D01*
X17925499Y-7526305D01*
X17927963Y-7522974D01*
X17930346Y-7519635D01*
X17934951Y-7513035D01*
X17937710Y-7508871D01*
X17937777Y-7508696D01*
X17936813Y-7507909D01*
X17933414Y-7507252D01*
X17927200Y-7506715D01*
X17917794Y-7506289D01*
X17904817Y-7505962D01*
X17887891Y-7505726D01*
X17866637Y-7505570D01*
X17840678Y-7505483D01*
X17809635Y-7505457D01*
X17679500Y-7505457D01*
X17686358Y-7513608D01*
X17690333Y-7519206D01*
X17696950Y-7532406D01*
X17702748Y-7548822D01*
X17707173Y-7567033D01*
X17707455Y-7568761D01*
X17708294Y-7577875D01*
X17708930Y-7591960D01*
X17709364Y-7611114D01*
X17709597Y-7635434D01*
X17709631Y-7665017D01*
X17709469Y-7699963D01*
X17708663Y-7816630D01*
X17625361Y-7711289D01*
X17622976Y-7708271D01*
X17601851Y-7681529D01*
X17583817Y-7658627D01*
X17568585Y-7639175D01*
X17555869Y-7622784D01*
X17545382Y-7609065D01*
X17536836Y-7597629D01*
X17529945Y-7588085D01*
X17524422Y-7580045D01*
X17519980Y-7573119D01*
X17516332Y-7566918D01*
X17513190Y-7561052D01*
X17510268Y-7555132D01*
X17505772Y-7544653D01*
X17502868Y-7533599D01*
X17502096Y-7521675D01*
X17502173Y-7505457D01*
X17225789Y-7505457D01*
X17134406Y-7505457D01*
X17137379Y-7503908D01*
X17158801Y-7487032D01*
X17164756Y-7481082D01*
X17182358Y-7459053D01*
X17194848Y-7435146D01*
X17202293Y-7409208D01*
X17204759Y-7381084D01*
X17204759Y-7357973D01*
X17596820Y-7357973D01*
X17621314Y-7357972D01*
X17673934Y-7357965D01*
X17721469Y-7357960D01*
X17764181Y-7357967D01*
X17802334Y-7357997D01*
X17836190Y-7358060D01*
X17866012Y-7358166D01*
X17892063Y-7358327D01*
X17914605Y-7358551D01*
X17933903Y-7358851D01*
X17950218Y-7359236D01*
X17963813Y-7359716D01*
X17974952Y-7360302D01*
X17983896Y-7361004D01*
X17990910Y-7361833D01*
X17996256Y-7362799D01*
X18000196Y-7363912D01*
X18002994Y-7365183D01*
X18004912Y-7366623D01*
X18006213Y-7368241D01*
X18007161Y-7370048D01*
X18008018Y-7372054D01*
X18009046Y-7374271D01*
X18009065Y-7374307D01*
X18009564Y-7375758D01*
X18010022Y-7378187D01*
X18010441Y-7381819D01*
X18010821Y-7386878D01*
X18011166Y-7393588D01*
X18011476Y-7402173D01*
X18011754Y-7412858D01*
X18012001Y-7425867D01*
X18012218Y-7441423D01*
X18012408Y-7459752D01*
X18012573Y-7481077D01*
X18012714Y-7505622D01*
X18012832Y-7533612D01*
X18012930Y-7565270D01*
X18013009Y-7600822D01*
X18013072Y-7640491D01*
X18013119Y-7684501D01*
X18013152Y-7733077D01*
X18013174Y-7786443D01*
X18013186Y-7844823D01*
X18013189Y-7908441D01*
X18013190Y-7920938D01*
X18013196Y-7983893D01*
X18013205Y-8041654D01*
X18013210Y-8094447D01*
X18013205Y-8142498D01*
X18013182Y-8186033D01*
X18013133Y-8225277D01*
X18013052Y-8260456D01*
X18012931Y-8291797D01*
X18012765Y-8319525D01*
X18012618Y-8335736D01*
X18012544Y-8343866D01*
G36*
X18012544Y-8343866D02*
G01*
X18012263Y-8365045D01*
X18011914Y-8383289D01*
X18011490Y-8398824D01*
X18010984Y-8411875D01*
X18010389Y-8422668D01*
X18009697Y-8431429D01*
X18008903Y-8438384D01*
X18007997Y-8443759D01*
X18006975Y-8447779D01*
X18005827Y-8450670D01*
X18004548Y-8452659D01*
X18003130Y-8453970D01*
X18001565Y-8454831D01*
X17999848Y-8455466D01*
X17997971Y-8456102D01*
X17995926Y-8456965D01*
X17994775Y-8457397D01*
X17992665Y-8457869D01*
X17989528Y-8458301D01*
X17985145Y-8458696D01*
X17979293Y-8459054D01*
X17971749Y-8459378D01*
X17962293Y-8459670D01*
X17950702Y-8459931D01*
X17936755Y-8460162D01*
X17920229Y-8460366D01*
X17900903Y-8460545D01*
X17878555Y-8460699D01*
X17852963Y-8460832D01*
X17823905Y-8460943D01*
X17791159Y-8461036D01*
X17754504Y-8461112D01*
X17713718Y-8461173D01*
X17668579Y-8461220D01*
X17618865Y-8461256D01*
X17564354Y-8461281D01*
X17504824Y-8461298D01*
X17440054Y-8461309D01*
X17419528Y-8461311D01*
X17356164Y-8461312D01*
X17297975Y-8461304D01*
X17244743Y-8461285D01*
X17196248Y-8461254D01*
X17152272Y-8461209D01*
X17112594Y-8461148D01*
X17076996Y-8461069D01*
X17045259Y-8460972D01*
X17017163Y-8460855D01*
X16992489Y-8460716D01*
X16971017Y-8460553D01*
X16952530Y-8460364D01*
X16936807Y-8460149D01*
X16923629Y-8459906D01*
X16912777Y-8459633D01*
X16904031Y-8459328D01*
X16897174Y-8458990D01*
X16891984Y-8458617D01*
X16888243Y-8458208D01*
X16885733Y-8457761D01*
X16884233Y-8457275D01*
X16883755Y-8457058D01*
X16881802Y-8456347D01*
X16880010Y-8455828D01*
X16878373Y-8455274D01*
X16876884Y-8454460D01*
X16875535Y-8453159D01*
X16874319Y-8451145D01*
X16873228Y-8448192D01*
X16872257Y-8444074D01*
X16871396Y-8438565D01*
X16870640Y-8431438D01*
X16869980Y-8422468D01*
X16869409Y-8411427D01*
X16868921Y-8398091D01*
X16868508Y-8382232D01*
X16868162Y-8363625D01*
X16867877Y-8342043D01*
X16867783Y-8332050D01*
X16939805Y-8332050D01*
X16939884Y-8333007D01*
X16941332Y-8333782D01*
X16944606Y-8334395D01*
X16950158Y-8334865D01*
X16958444Y-8335211D01*
X16969919Y-8335451D01*
X16985038Y-8335604D01*
X17004254Y-8335690D01*
X17028023Y-8335728D01*
X17056800Y-8335736D01*
X17177344Y-8335736D01*
X17156964Y-8298865D01*
X17156964Y-7763554D01*
X17177344Y-7726683D01*
X16961876Y-7726683D01*
X16961097Y-8010043D01*
X16960318Y-8293403D01*
X16952680Y-8309716D01*
X16948653Y-8317802D01*
X16944093Y-8325901D01*
X16940649Y-8330883D01*
X16940641Y-8330892D01*
X16939805Y-8332050D01*
X16867783Y-8332050D01*
X16867645Y-8317261D01*
X16867459Y-8289052D01*
X16867311Y-8257190D01*
X16867195Y-8221449D01*
X16867102Y-8181602D01*
X16867027Y-8137424D01*
X16866961Y-8088688D01*
X16866897Y-8035169D01*
X16866829Y-7976639D01*
X16866748Y-7912873D01*
X16866738Y-7905154D01*
X16866647Y-7841792D01*
X16866561Y-7783640D01*
X16866485Y-7730472D01*
X16866426Y-7682061D01*
X16866390Y-7638181D01*
X16866383Y-7598605D01*
X16866413Y-7563108D01*
X16866484Y-7531463D01*
X16866604Y-7503444D01*
X16866779Y-7478825D01*
X16867015Y-7457379D01*
X16867320Y-7438880D01*
X16867698Y-7423102D01*
X16868156Y-7409819D01*
X16868702Y-7398804D01*
X16869341Y-7389830D01*
X16870079Y-7382673D01*
X16870924Y-7377105D01*
X16871881Y-7372901D01*
X16872957Y-7369833D01*
X16874157Y-7367676D01*
X16875490Y-7366204D01*
X16876960Y-7365189D01*
X16878575Y-7364407D01*
X16880340Y-7363630D01*
X16882262Y-7362632D01*
X16882825Y-7362315D01*
X16891336Y-7359238D01*
X16900654Y-7357973D01*
X16911157Y-7357974D01*
X16911332Y-7381871D01*
X16911377Y-7384621D01*
X16914715Y-7412575D01*
X16923218Y-7438877D01*
X16936767Y-7463248D01*
X16955244Y-7485411D01*
X16965159Y-7494450D01*
X16987236Y-7509432D01*
X17011325Y-7519880D01*
X17036723Y-7525788D01*
X17062729Y-7527150D01*
X17088641Y-7523962D01*
X17113758Y-7516216D01*
X17134406Y-7505457D01*
X17225789Y-7505457D01*
X17237806Y-7514103D01*
X17247970Y-7522229D01*
X17262291Y-7535483D01*
X17278535Y-7552094D01*
X17296086Y-7571429D01*
X17314329Y-7592855D01*
X17319027Y-7598584D01*
X17327026Y-7608412D01*
X17337481Y-7621304D01*
X17350047Y-7636833D01*
X17364377Y-7654566D01*
X17380124Y-7674074D01*
X17396943Y-7694926D01*
X17414486Y-7716693D01*
X17422533Y-7726683D01*
X17432408Y-7738943D01*
X17450362Y-7761246D01*
X17468001Y-7783173D01*
X17484980Y-7804293D01*
X17500952Y-7824175D01*
X17515570Y-7842389D01*
X17528489Y-7858505D01*
X17539361Y-7872093D01*
X17547840Y-7882721D01*
X17553581Y-7889961D01*
X17556236Y-7893381D01*
X17556455Y-7894666D01*
X17555726Y-7897111D01*
X17553837Y-7900957D01*
X17550600Y-7906477D01*
X17545825Y-7913944D01*
X17539325Y-7923630D01*
X17530911Y-7935809D01*
X17520393Y-7950754D01*
X17507585Y-7968736D01*
X17492297Y-7990029D01*
X17474340Y-8014906D01*
X17453527Y-8043640D01*
X17429668Y-8076503D01*
X17410657Y-8102661D01*
X17387463Y-8134550D01*
X17367062Y-8162555D01*
X17349214Y-8186987D01*
X17333685Y-8208155D01*
X17320235Y-8226372D01*
X17308628Y-8241948D01*
X17298626Y-8255193D01*
X17289993Y-8266419D01*
X17282490Y-8275936D01*
X17275882Y-8284055D01*
X17269930Y-8291087D01*
X17264397Y-8297343D01*
X17259046Y-8303133D01*
X17253640Y-8308769D01*
X17247941Y-8314561D01*
X17226940Y-8335736D01*
X17368113Y-8335742D01*
X17509286Y-8335748D01*
X17508399Y-8318638D01*
X17508356Y-8317778D01*
X17508188Y-8310938D01*
X17508507Y-8304385D01*
X17509527Y-8297759D01*
X17511462Y-8290701D01*
X17514525Y-8282853D01*
X17518930Y-8273855D01*
X17524890Y-8263348D01*
X17532619Y-8250975D01*
X17542330Y-8236374D01*
X17554237Y-8219189D01*
X17568553Y-8199058D01*
X17585492Y-8175625D01*
X17605267Y-8148529D01*
X17628093Y-8117412D01*
X17708663Y-8007723D01*
X17709372Y-8134904D01*
X17709435Y-8146767D01*
X17709546Y-8178722D01*
X17709496Y-8205901D01*
X17709225Y-8228820D01*
X17708673Y-8247993D01*
X17707782Y-8263933D01*
X17706492Y-8277156D01*
X17704743Y-8288175D01*
X17702477Y-8297506D01*
X17699633Y-8305662D01*
X17696153Y-8313157D01*
X17691977Y-8320507D01*
X17687045Y-8328226D01*
X17682088Y-8335736D01*
X17939725Y-8335736D01*
X17933070Y-8326860D01*
X17932028Y-8325456D01*
X17923696Y-8312586D01*
X17917952Y-8299575D01*
X17914180Y-8284667D01*
X17911764Y-8266105D01*
X17911698Y-8265295D01*
X17911347Y-8257639D01*
X17911030Y-8244864D01*
X17910749Y-8227263D01*
X17910505Y-8205128D01*
X17910299Y-8178751D01*
X17910132Y-8148423D01*
X17910007Y-8114437D01*
X17909923Y-8077084D01*
X17909883Y-8036657D01*
X17909889Y-7993447D01*
X17909941Y-7947746D01*
X17910040Y-7899846D01*
X17910146Y-7856880D01*
X17910258Y-7810110D01*
X17910369Y-7768265D01*
X17910493Y-7731051D01*
X17910642Y-7698176D01*
X17910832Y-7669346D01*
X17911075Y-7644269D01*
X17911386Y-7622650D01*
X17911780Y-7604197D01*
X17912269Y-7588616D01*
X17912868Y-7575615D01*
X17913591Y-7564900D01*
X17914451Y-7556178D01*
X17915463Y-7549156D01*
X17916640Y-7543541D01*
X17917997Y-7539039D01*
X17919548Y-7535358D01*
X17921306Y-7532204D01*
X17923285Y-7529284D01*
X17925499Y-7526305D01*
X17927963Y-7522974D01*
X17930346Y-7519635D01*
X17934951Y-7513035D01*
X17937710Y-7508871D01*
X17937777Y-7508696D01*
X17936813Y-7507909D01*
X17933414Y-7507252D01*
X17927200Y-7506715D01*
X17917794Y-7506289D01*
X17904817Y-7505962D01*
X17887891Y-7505726D01*
X17866637Y-7505570D01*
X17840678Y-7505483D01*
X17809635Y-7505457D01*
X17679500Y-7505457D01*
X17686358Y-7513608D01*
X17690333Y-7519206D01*
X17696950Y-7532406D01*
X17702748Y-7548822D01*
X17707173Y-7567033D01*
X17707455Y-7568761D01*
X17708294Y-7577875D01*
X17708930Y-7591960D01*
X17709364Y-7611114D01*
X17709597Y-7635434D01*
X17709631Y-7665017D01*
X17709469Y-7699963D01*
X17708663Y-7816630D01*
X17625361Y-7711289D01*
X17622976Y-7708271D01*
X17601851Y-7681529D01*
X17583817Y-7658627D01*
X17568585Y-7639175D01*
X17555869Y-7622784D01*
X17545382Y-7609065D01*
X17536836Y-7597629D01*
X17529945Y-7588085D01*
X17524422Y-7580045D01*
X17519980Y-7573119D01*
X17516332Y-7566918D01*
X17513190Y-7561052D01*
X17510268Y-7555132D01*
X17505772Y-7544653D01*
X17502868Y-7533599D01*
X17502096Y-7521675D01*
X17502173Y-7505457D01*
X17225789Y-7505457D01*
X17134406Y-7505457D01*
X17137379Y-7503908D01*
X17158801Y-7487032D01*
X17164756Y-7481082D01*
X17182358Y-7459053D01*
X17194848Y-7435146D01*
X17202293Y-7409208D01*
X17204759Y-7381084D01*
X17204759Y-7357973D01*
X17596820Y-7357973D01*
X17621314Y-7357972D01*
X17673934Y-7357965D01*
X17721469Y-7357960D01*
X17764181Y-7357967D01*
X17802334Y-7357997D01*
X17836190Y-7358060D01*
X17866012Y-7358166D01*
X17892063Y-7358327D01*
X17914605Y-7358551D01*
X17933903Y-7358851D01*
X17950218Y-7359236D01*
X17963813Y-7359716D01*
X17974952Y-7360302D01*
X17983896Y-7361004D01*
X17990910Y-7361833D01*
X17996256Y-7362799D01*
X18000196Y-7363912D01*
X18002994Y-7365183D01*
X18004912Y-7366623D01*
X18006213Y-7368241D01*
X18007161Y-7370048D01*
X18008018Y-7372054D01*
X18009046Y-7374271D01*
X18009065Y-7374307D01*
X18009564Y-7375758D01*
X18010022Y-7378187D01*
X18010441Y-7381819D01*
X18010821Y-7386878D01*
X18011166Y-7393588D01*
X18011476Y-7402173D01*
X18011754Y-7412858D01*
X18012001Y-7425867D01*
X18012218Y-7441423D01*
X18012408Y-7459752D01*
X18012573Y-7481077D01*
X18012714Y-7505622D01*
X18012832Y-7533612D01*
X18012930Y-7565270D01*
X18013009Y-7600822D01*
X18013072Y-7640491D01*
X18013119Y-7684501D01*
X18013152Y-7733077D01*
X18013174Y-7786443D01*
X18013186Y-7844823D01*
X18013189Y-7908441D01*
X18013190Y-7920938D01*
X18013196Y-7983893D01*
X18013205Y-8041654D01*
X18013210Y-8094447D01*
X18013205Y-8142498D01*
X18013182Y-8186033D01*
X18013133Y-8225277D01*
X18013052Y-8260456D01*
X18012931Y-8291797D01*
X18012765Y-8319525D01*
X18012618Y-8335736D01*
X18012544Y-8343866D01*
G37*
%TD*%
M02*
