%TF.GenerationSoftware,KiCad,Pcbnew,9.0.4*%
%TF.CreationDate,2025-12-28T12:05:50+05:30*%
%TF.ProjectId,ESP-32 C3 demo project004,4553502d-3332-4204-9333-2064656d6f20,rev?*%
%TF.SameCoordinates,Original*%
%TF.FileFunction,Copper,L2,Inr*%
%TF.FilePolarity,Positive*%
%FSLAX45Y45*%
G04 Gerber Fmt 4.5, Leading zero omitted, Abs format (unit mm)*
G04 Created by KiCad (PCBNEW 9.0.4) date 2025-12-28 12:05:50*
%MOMM*%
%LPD*%
G01*
G04 APERTURE LIST*
%TA.AperFunction,ComponentPad*%
%ADD10C,1.208000*%
%TD*%
%TA.AperFunction,ComponentPad*%
%ADD11R,1.700000X1.700000*%
%TD*%
%TA.AperFunction,ComponentPad*%
%ADD12C,1.700000*%
%TD*%
%TA.AperFunction,ComponentPad*%
%ADD13C,0.650000*%
%TD*%
%TA.AperFunction,ComponentPad*%
%ADD14O,1.050000X2.100000*%
%TD*%
%TA.AperFunction,ComponentPad*%
%ADD15C,0.400000*%
%TD*%
%TA.AperFunction,ViaPad*%
%ADD16C,0.600000*%
%TD*%
%TA.AperFunction,ViaPad*%
%ADD17C,0.450000*%
%TD*%
%TA.AperFunction,ViaPad*%
%ADD18C,0.500000*%
%TD*%
%TA.AperFunction,ViaPad*%
%ADD19C,0.300000*%
%TD*%
%TA.AperFunction,Conductor*%
%ADD20C,0.250000*%
%TD*%
%TA.AperFunction,Conductor*%
%ADD21C,0.300000*%
%TD*%
G04 APERTURE END LIST*
D10*
%TO.N,GND*%
%TO.C,MK1*%
X15263800Y-5454900D03*
%TO.N,Net-(C17-Pad2)*%
X15263800Y-5644900D03*
%TD*%
D11*
%TO.N,+3.3V*%
%TO.C,J4*%
X18121000Y-4472000D03*
D12*
%TO.N,/ESP32-C3-02/SDA*%
X17867000Y-4472000D03*
%TO.N,/ESP32-C3-02/SCL*%
X17613000Y-4472000D03*
%TO.N,GND*%
X17359000Y-4472000D03*
%TD*%
D11*
%TO.N,+3.3V*%
%TO.C,J5*%
X16184000Y-4458000D03*
D12*
%TO.N,/ESP32-C3-02/GPIO8*%
X15930000Y-4458000D03*
%TO.N,/ESP32-C3-02/GPIO18*%
X15676000Y-4458000D03*
%TO.N,/ESP32-C3-02/GPIO19*%
X15422000Y-4458000D03*
%TO.N,GND*%
X15168000Y-4458000D03*
%TD*%
D13*
%TO.N,GND*%
%TO.C,J1*%
X17450400Y-9013200D03*
%TO.N,unconnected-(J1-SSTXP2-PadB2)*%
X17410400Y-9084200D03*
%TO.N,unconnected-(J1-SSTXN2-PadB3)*%
X17330400Y-9084200D03*
%TO.N,/VBUS*%
X17290400Y-9013200D03*
%TO.N,Net-(J1-CC2)*%
X17250400Y-9084200D03*
%TO.N,/USB_DP*%
X17210400Y-9013200D03*
%TO.N,/USB_DN*%
X17130400Y-9013200D03*
%TO.N,unconnected-(J1-SBU2-PadB8)*%
X17090400Y-9084200D03*
%TO.N,/VBUS*%
X17050400Y-9013200D03*
%TO.N,unconnected-(J1-SSRXN1-PadB10)*%
X17010400Y-9084200D03*
%TO.N,unconnected-(J1-SSRXP1-PadB11)*%
X16930400Y-9084200D03*
%TO.N,GND*%
X16890400Y-9013200D03*
X17370400Y-9013200D03*
X16970400Y-9013200D03*
D14*
X16743400Y-9128200D03*
X17597400Y-9128200D03*
X16743400Y-9601200D03*
X17597400Y-9601200D03*
%TD*%
D15*
%TO.N,GND*%
%TO.C,U3*%
X22221000Y-5399050D03*
X22331000Y-5399050D03*
X22166000Y-5454050D03*
X22276000Y-5454050D03*
X22386000Y-5454050D03*
X22221000Y-5509050D03*
X22331000Y-5509050D03*
X22166000Y-5564050D03*
X22276000Y-5564050D03*
X22386000Y-5564050D03*
X22221000Y-5619050D03*
X22331000Y-5619050D03*
%TD*%
D16*
%TO.N,GND*%
X23266400Y-5448300D03*
D17*
X15036800Y-6159500D03*
X21704300Y-6056900D03*
D16*
X18059400Y-5994400D03*
D17*
X14747000Y-7384000D03*
X21120100Y-7188200D03*
X18796000Y-5969000D03*
D16*
X18910300Y-6426200D03*
D17*
X15887700Y-8656750D03*
X14877000Y-7386000D03*
X16840200Y-8750300D03*
X22618700Y-7188200D03*
X21844000Y-7213600D03*
X16497300Y-5054600D03*
X14545000Y-9831000D03*
X20561300Y-5232400D03*
X15281000Y-7620000D03*
X19202400Y-5181600D03*
X15400000Y-7770000D03*
X16624300Y-5664200D03*
X15684500Y-5397500D03*
X15470000Y-9071000D03*
X14544000Y-9967000D03*
X15276000Y-7496000D03*
X15659100Y-8663750D03*
X15417800Y-8663750D03*
X20294600Y-7150100D03*
X17170172Y-7935985D03*
X17602200Y-7772400D03*
X22733000Y-9740900D03*
X15029000Y-7384000D03*
X17092900Y-7759700D03*
X14545000Y-9897000D03*
X21501100Y-6642050D03*
X15281000Y-7770000D03*
D16*
X19329400Y-9283700D03*
D17*
X15875000Y-9766300D03*
X16052800Y-9131300D03*
X17843500Y-8128000D03*
X15400000Y-7618000D03*
X16357600Y-9220200D03*
X15201900Y-7391400D03*
D16*
X20167600Y-9715500D03*
D17*
X19024600Y-4864100D03*
X15379700Y-9156700D03*
D18*
%TO.N,/VBUS*%
X16767100Y-8013700D03*
X17170400Y-8394700D03*
X17250954Y-8471454D03*
X16767100Y-8204200D03*
X17005300Y-8712200D03*
X16767100Y-8102600D03*
%TO.N,+3.3V*%
X18910300Y-4470400D03*
X17399000Y-7556500D03*
X17945100Y-7480300D03*
X14503400Y-6591300D03*
X15506700Y-6172200D03*
D16*
X18262600Y-8877300D03*
D18*
X15646400Y-6172200D03*
X15925800Y-6172200D03*
X14554200Y-6934200D03*
X15786100Y-6172200D03*
X18592800Y-6426200D03*
X16662400Y-6718300D03*
X22047200Y-6858000D03*
X16395700Y-6743700D03*
X15379700Y-6172200D03*
X19100800Y-4851400D03*
X16484600Y-6057900D03*
X17945100Y-6743700D03*
X21094700Y-6832600D03*
X18897600Y-5181600D03*
X20586700Y-4991800D03*
X17005300Y-5067300D03*
X15227300Y-6172200D03*
X19532600Y-6032500D03*
X19367500Y-4876800D03*
%TO.N,/+5V_USB*%
X14859000Y-8072000D03*
X16192700Y-8203600D03*
X15443200Y-9804400D03*
X16189700Y-8014600D03*
X15762200Y-9575800D03*
X14528800Y-8072000D03*
X15697200Y-9575800D03*
X16190700Y-8107600D03*
X16002000Y-9366400D03*
X16002000Y-9226400D03*
%TO.N,/ESP32-C3-02/MIC_OUT*%
X22796500Y-4991100D03*
X17729200Y-5448300D03*
%TO.N,/ESP32-C3-02/BOOT*%
X19846100Y-8463900D03*
X21132800Y-6045200D03*
%TO.N,/ESP32-C3-02/EN*%
X21481741Y-5150159D03*
X19058700Y-8502000D03*
%TO.N,/ESP32-C3-02/SDA*%
X22059900Y-5316125D03*
X20420400Y-4931800D03*
%TO.N,/ESP32-C3-02/SCL*%
X22542500Y-4876800D03*
X20472400Y-4876800D03*
%TO.N,/ESP32-C3-02/GPIO19*%
X22853626Y-5581388D03*
%TO.N,/ESP32-C3-02/GPIO18*%
X22860000Y-5651500D03*
%TO.N,/ESP32-C3-02/GPIO8*%
X21463000Y-5685400D03*
%TO.N,/ESP32-C3-02/RTS*%
X19016400Y-8756000D03*
X19173000Y-8768700D03*
X16878300Y-7277100D03*
%TO.N,/ESP32-C3-02/DTR*%
X19011400Y-9010000D03*
X19338100Y-8806800D03*
%TO.N,Net-(J1-CC2)*%
X16827500Y-9334500D03*
%TO.N,Net-(J1-CC1)*%
X17090000Y-8623147D03*
X16649700Y-8712200D03*
%TO.N,/CHARGING_POWER_GOOD*%
X15824226Y-8953118D03*
X15149491Y-8891609D03*
%TO.N,/CHARGED*%
X15722600Y-8978900D03*
X15192700Y-9012481D03*
%TO.N,/CHARGING*%
X15887700Y-9042400D03*
X14732000Y-9080500D03*
D19*
%TO.N,/ESP32-C3-02/CS_SD*%
X22339300Y-6642100D03*
X21793200Y-5854700D03*
D18*
%TO.N,/ESP32-C3-02/PHOTO_C*%
X18402300Y-6210300D03*
X22898100Y-5067300D03*
X17627600Y-5994400D03*
%TO.N,/ESP32-C3-02/CS*%
X22898100Y-6089050D03*
X19939000Y-5740400D03*
%TO.N,/USB_DP*%
X17018000Y-8343900D03*
%TO.N,/USB_DN*%
X17348200Y-8318500D03*
%TO.N,/ESP32-C3-02/RX_TX*%
X22910800Y-5791200D03*
X16814800Y-7378700D03*
%TO.N,/ESP32-C3-02/TX_RX*%
X16814800Y-7451800D03*
X22820140Y-5941840D03*
%TO.N,Net-(C19-Pad2)*%
X16179800Y-5290900D03*
X16179800Y-5422900D03*
D19*
%TO.N,Net-(U1-OUT)*%
X16459200Y-8801100D03*
X15913100Y-9588500D03*
X16065500Y-9385300D03*
%TO.N,Net-(R17-Pad3)*%
X17208500Y-5778500D03*
X17018000Y-5524500D03*
%TD*%
D20*
%TO.N,/ESP32-C3-02/MIC_OUT*%
X20204588Y-5448300D02*
X20661788Y-4991100D01*
X20661788Y-4991100D02*
X22796500Y-4991100D01*
X17729200Y-5448300D02*
X20204588Y-5448300D01*
D21*
%TO.N,/CHARGING*%
X15290800Y-9004300D02*
X15663006Y-9004300D01*
X14732000Y-9080500D02*
X15214600Y-9080500D01*
X15701106Y-9042400D02*
X15887700Y-9042400D01*
X15663006Y-9004300D02*
X15701106Y-9042400D01*
X15214600Y-9080500D02*
X15290800Y-9004300D01*
%TO.N,/USB_DP*%
X17208500Y-8826500D02*
X17030700Y-8648700D01*
X17208500Y-8839200D02*
X17208500Y-8826500D01*
X17210400Y-8841100D02*
X17208500Y-8839200D01*
X17030700Y-8648700D02*
X17018000Y-8636000D01*
X17210400Y-9013200D02*
X17210400Y-8841100D01*
X17018000Y-8636000D02*
X17018000Y-8343900D01*
%TD*%
%TA.AperFunction,Conductor*%
%TO.N,/+5V_USB*%
G36*
X16610171Y-7935047D02*
G01*
X16614818Y-7940265D01*
X16616008Y-7945557D01*
X16616622Y-8637401D01*
X16614659Y-8644107D01*
X16611111Y-8647723D01*
X16601858Y-8653905D01*
X16601858Y-8653905D01*
X16591405Y-8664358D01*
X16591405Y-8664358D01*
X16583192Y-8676650D01*
X16583191Y-8676651D01*
X16577534Y-8690308D01*
X16577534Y-8690309D01*
X16574650Y-8704808D01*
X16574650Y-8704808D01*
X16574650Y-8719592D01*
X16574650Y-8719592D01*
X16574650Y-8719592D01*
X16577534Y-8734091D01*
X16577534Y-8734092D01*
X16583191Y-8747749D01*
X16583192Y-8747750D01*
X16591405Y-8760042D01*
X16591405Y-8760042D01*
X16601858Y-8770495D01*
X16601858Y-8770495D01*
X16611243Y-8776766D01*
X16615724Y-8782127D01*
X16616754Y-8787065D01*
X16617851Y-10023579D01*
X16615888Y-10030285D01*
X16610612Y-10034865D01*
X16605461Y-10035990D01*
X14605881Y-10037667D01*
X14599175Y-10035704D01*
X14594595Y-10030428D01*
X14593595Y-10023513D01*
X14596492Y-10017155D01*
X14597102Y-10016499D01*
X14600353Y-10013248D01*
X14600353Y-10013248D01*
X14608293Y-10001365D01*
X14613762Y-9988162D01*
X14615469Y-9979582D01*
X14616550Y-9974146D01*
X14616550Y-9959854D01*
X14613762Y-9945839D01*
X14613762Y-9945838D01*
X14613762Y-9945838D01*
X14610495Y-9937952D01*
X14609749Y-9931006D01*
X14610495Y-9928462D01*
X14614762Y-9918162D01*
X14617550Y-9904146D01*
X14617550Y-9889855D01*
X14617550Y-9889854D01*
X14614762Y-9875839D01*
X14614762Y-9875838D01*
X14614762Y-9875838D01*
X14611824Y-9868745D01*
X14611077Y-9861799D01*
X14611823Y-9859256D01*
X14614762Y-9852162D01*
X14617550Y-9838146D01*
X14617550Y-9823855D01*
X14617550Y-9823854D01*
X14614762Y-9809839D01*
X14614762Y-9809838D01*
X14614762Y-9809838D01*
X14609293Y-9796635D01*
X14609293Y-9796635D01*
X14609292Y-9796634D01*
X14601353Y-9784752D01*
X14601353Y-9784752D01*
X14591248Y-9774647D01*
X14591248Y-9774647D01*
X14589450Y-9773446D01*
X15802450Y-9773446D01*
X15805238Y-9787461D01*
X15805238Y-9787462D01*
X15810707Y-9800665D01*
X15810707Y-9800666D01*
X15818647Y-9812548D01*
X15818647Y-9812548D01*
X15828752Y-9822653D01*
X15828752Y-9822653D01*
X15840634Y-9830593D01*
X15840635Y-9830593D01*
X15840635Y-9830593D01*
X15853838Y-9836062D01*
X15853838Y-9836062D01*
X15853838Y-9836062D01*
X15867854Y-9838850D01*
X15867854Y-9838850D01*
X15882146Y-9838850D01*
X15891575Y-9836974D01*
X15896162Y-9836062D01*
X15909365Y-9830593D01*
X15921248Y-9822653D01*
X15931353Y-9812548D01*
X15939293Y-9800665D01*
X15944762Y-9787462D01*
X15947311Y-9774647D01*
X15947550Y-9773446D01*
X15947550Y-9759154D01*
X15944762Y-9745139D01*
X15944762Y-9745138D01*
X15944762Y-9745138D01*
X15939293Y-9731935D01*
X15939293Y-9731935D01*
X15939292Y-9731934D01*
X15931353Y-9720052D01*
X15931353Y-9720052D01*
X15921248Y-9709947D01*
X15921248Y-9709947D01*
X15909366Y-9702007D01*
X15909365Y-9702007D01*
X15896162Y-9696538D01*
X15896161Y-9696538D01*
X15882146Y-9693750D01*
X15882145Y-9693750D01*
X15867854Y-9693750D01*
X15867854Y-9693750D01*
X15853838Y-9696538D01*
X15853838Y-9696538D01*
X15840635Y-9702007D01*
X15840634Y-9702007D01*
X15828752Y-9709947D01*
X15828752Y-9709947D01*
X15818647Y-9720052D01*
X15818647Y-9720052D01*
X15810707Y-9731934D01*
X15810707Y-9731935D01*
X15805238Y-9745138D01*
X15805238Y-9745139D01*
X15802450Y-9759154D01*
X15802450Y-9759155D01*
X15802450Y-9773446D01*
X15802450Y-9773446D01*
X15802450Y-9773446D01*
X14589450Y-9773446D01*
X14582581Y-9768856D01*
X14579366Y-9766707D01*
X14579365Y-9766707D01*
X14566162Y-9761238D01*
X14566161Y-9761238D01*
X14552146Y-9758450D01*
X14552145Y-9758450D01*
X14537854Y-9758450D01*
X14537854Y-9758450D01*
X14523838Y-9761238D01*
X14523838Y-9761238D01*
X14510635Y-9766707D01*
X14510634Y-9766707D01*
X14498752Y-9774647D01*
X14498752Y-9774647D01*
X14488647Y-9784752D01*
X14488647Y-9784752D01*
X14480707Y-9796634D01*
X14480707Y-9796635D01*
X14475238Y-9809838D01*
X14475238Y-9809839D01*
X14472450Y-9823854D01*
X14472450Y-9823855D01*
X14472450Y-9838146D01*
X14472450Y-9838146D01*
X14472450Y-9838146D01*
X14475238Y-9852161D01*
X14475238Y-9852162D01*
X14478176Y-9859255D01*
X14478923Y-9866202D01*
X14478176Y-9868745D01*
X14475238Y-9875838D01*
X14475238Y-9875839D01*
X14472450Y-9889854D01*
X14472450Y-9889855D01*
X14472450Y-9904146D01*
X14472450Y-9904146D01*
X14472450Y-9904146D01*
X14475238Y-9918161D01*
X14475238Y-9918162D01*
X14478504Y-9926048D01*
X14479251Y-9932995D01*
X14478504Y-9935538D01*
X14474238Y-9945838D01*
X14474238Y-9945839D01*
X14471450Y-9959854D01*
X14471450Y-9959855D01*
X14471450Y-9974146D01*
X14471450Y-9974146D01*
X14471450Y-9974146D01*
X14474238Y-9988161D01*
X14474238Y-9988162D01*
X14479707Y-10001365D01*
X14479707Y-10001366D01*
X14487647Y-10013248D01*
X14487647Y-10013248D01*
X14491001Y-10016603D01*
X14494350Y-10022735D01*
X14493851Y-10029704D01*
X14489664Y-10035297D01*
X14483118Y-10037739D01*
X14482244Y-10037771D01*
X14242003Y-10037972D01*
X14241108Y-10037941D01*
X14218440Y-10036319D01*
X14216681Y-10036065D01*
X14194909Y-10031315D01*
X14193205Y-10030813D01*
X14190243Y-10029704D01*
X14172335Y-10023000D01*
X14170721Y-10022260D01*
X14151182Y-10011545D01*
X14149689Y-10010581D01*
X14131882Y-9997185D01*
X14130543Y-9996018D01*
X14114832Y-9980213D01*
X14113674Y-9978868D01*
X14110165Y-9974146D01*
X14100383Y-9960980D01*
X14099428Y-9959482D01*
X14092052Y-9945838D01*
X14088830Y-9939879D01*
X14088100Y-9938260D01*
X14087986Y-9937952D01*
X14080412Y-9917345D01*
X14079920Y-9915638D01*
X14078715Y-9909954D01*
X14075299Y-9893838D01*
X14075056Y-9892078D01*
X14073569Y-9869395D01*
X14073543Y-9868511D01*
X14073570Y-9864194D01*
X14073570Y-9864194D01*
X14073575Y-9863456D01*
X14073547Y-9863091D01*
X14073844Y-9594907D01*
X15848050Y-9594907D01*
X15850550Y-9607474D01*
X15850550Y-9607474D01*
X15855453Y-9619312D01*
X15855454Y-9619313D01*
X15862572Y-9629967D01*
X15862573Y-9629967D01*
X15871633Y-9639027D01*
X15871633Y-9639028D01*
X15882287Y-9646146D01*
X15882287Y-9646146D01*
X15882287Y-9646147D01*
X15894126Y-9651050D01*
X15894126Y-9651050D01*
X15894126Y-9651050D01*
X15906693Y-9653550D01*
X15906693Y-9653550D01*
X15919507Y-9653550D01*
X15927961Y-9651868D01*
X15932074Y-9651050D01*
X15943913Y-9646147D01*
X15954567Y-9639028D01*
X15963628Y-9629967D01*
X15970746Y-9619313D01*
X15975650Y-9607474D01*
X15978150Y-9594907D01*
X15978150Y-9582093D01*
X15978150Y-9582093D01*
X15975650Y-9569526D01*
X15975650Y-9569526D01*
X15975650Y-9569526D01*
X15970746Y-9557687D01*
X15970746Y-9557687D01*
X15970746Y-9557687D01*
X15963628Y-9547033D01*
X15963627Y-9547033D01*
X15954567Y-9537973D01*
X15954567Y-9537972D01*
X15943913Y-9530854D01*
X15943912Y-9530853D01*
X15932074Y-9525950D01*
X15932074Y-9525950D01*
X15919507Y-9523450D01*
X15919507Y-9523450D01*
X15906693Y-9523450D01*
X15906693Y-9523450D01*
X15894126Y-9525950D01*
X15894125Y-9525950D01*
X15882287Y-9530853D01*
X15882287Y-9530854D01*
X15871633Y-9537972D01*
X15871633Y-9537973D01*
X15862573Y-9547033D01*
X15862572Y-9547033D01*
X15855454Y-9557687D01*
X15855453Y-9557688D01*
X15850550Y-9569526D01*
X15850550Y-9569526D01*
X15848050Y-9582093D01*
X15848050Y-9582093D01*
X15848050Y-9594907D01*
X15848050Y-9594907D01*
X15848050Y-9594907D01*
X14073844Y-9594907D01*
X14074069Y-9391707D01*
X16000450Y-9391707D01*
X16002950Y-9404274D01*
X16002950Y-9404274D01*
X16007853Y-9416112D01*
X16007854Y-9416113D01*
X16014972Y-9426767D01*
X16014973Y-9426767D01*
X16024033Y-9435827D01*
X16024033Y-9435828D01*
X16034687Y-9442946D01*
X16034687Y-9442946D01*
X16034687Y-9442947D01*
X16046526Y-9447850D01*
X16046526Y-9447850D01*
X16046526Y-9447850D01*
X16059093Y-9450350D01*
X16059093Y-9450350D01*
X16071907Y-9450350D01*
X16080361Y-9448668D01*
X16084474Y-9447850D01*
X16096313Y-9442947D01*
X16106967Y-9435828D01*
X16116028Y-9426767D01*
X16123146Y-9416113D01*
X16128050Y-9404274D01*
X16130550Y-9391707D01*
X16130550Y-9378893D01*
X16130550Y-9378893D01*
X16128050Y-9366326D01*
X16128050Y-9366326D01*
X16128050Y-9366326D01*
X16123146Y-9354487D01*
X16123146Y-9354487D01*
X16123146Y-9354487D01*
X16116028Y-9343833D01*
X16116027Y-9343833D01*
X16106967Y-9334773D01*
X16106967Y-9334772D01*
X16096313Y-9327654D01*
X16096312Y-9327653D01*
X16084474Y-9322750D01*
X16084474Y-9322750D01*
X16071907Y-9320250D01*
X16071907Y-9320250D01*
X16059093Y-9320250D01*
X16059093Y-9320250D01*
X16046526Y-9322750D01*
X16046525Y-9322750D01*
X16034687Y-9327653D01*
X16034687Y-9327654D01*
X16024033Y-9334772D01*
X16024033Y-9334773D01*
X16014973Y-9343833D01*
X16014972Y-9343833D01*
X16007854Y-9354487D01*
X16007853Y-9354488D01*
X16002950Y-9366326D01*
X16002950Y-9366326D01*
X16000450Y-9378893D01*
X16000450Y-9378893D01*
X16000450Y-9391707D01*
X16000450Y-9391707D01*
X16000450Y-9391707D01*
X14074069Y-9391707D01*
X14074405Y-9087892D01*
X14656950Y-9087892D01*
X14659834Y-9102391D01*
X14659834Y-9102392D01*
X14665491Y-9116049D01*
X14665492Y-9116050D01*
X14673705Y-9128342D01*
X14673705Y-9128342D01*
X14684158Y-9138795D01*
X14684158Y-9138795D01*
X14696450Y-9147008D01*
X14696451Y-9147009D01*
X14704730Y-9150438D01*
X14710109Y-9152666D01*
X14710109Y-9152666D01*
X14710109Y-9152666D01*
X14724608Y-9155550D01*
X14724608Y-9155550D01*
X14739392Y-9155550D01*
X14749146Y-9153610D01*
X14753891Y-9152666D01*
X14767549Y-9147008D01*
X14767550Y-9147008D01*
X14768112Y-9146775D01*
X14768148Y-9146861D01*
X14773384Y-9145550D01*
X15221007Y-9145550D01*
X15231061Y-9143550D01*
X15233574Y-9143050D01*
X15245413Y-9138147D01*
X15246439Y-9137461D01*
X15256067Y-9131028D01*
X15314113Y-9072982D01*
X15320245Y-9069633D01*
X15322881Y-9069350D01*
X15338968Y-9069350D01*
X15345672Y-9071319D01*
X15350247Y-9076599D01*
X15351242Y-9083515D01*
X15348339Y-9089870D01*
X15345753Y-9091936D01*
X15345841Y-9092069D01*
X15333452Y-9100347D01*
X15333452Y-9100347D01*
X15323347Y-9110452D01*
X15323347Y-9110452D01*
X15315407Y-9122334D01*
X15315407Y-9122335D01*
X15309938Y-9135538D01*
X15309938Y-9135539D01*
X15307150Y-9149554D01*
X15307150Y-9149555D01*
X15307150Y-9163846D01*
X15307150Y-9163846D01*
X15307150Y-9163846D01*
X15309938Y-9177861D01*
X15309938Y-9177862D01*
X15315407Y-9191065D01*
X15315407Y-9191066D01*
X15323347Y-9202948D01*
X15323347Y-9202948D01*
X15333452Y-9213053D01*
X15333452Y-9213053D01*
X15345334Y-9220993D01*
X15345335Y-9220993D01*
X15345335Y-9220993D01*
X15358538Y-9226462D01*
X15358538Y-9226462D01*
X15358538Y-9226462D01*
X15372554Y-9229250D01*
X15372554Y-9229250D01*
X15386846Y-9229250D01*
X15396419Y-9227346D01*
X16285050Y-9227346D01*
X16287838Y-9241361D01*
X16287838Y-9241362D01*
X16293307Y-9254565D01*
X16293307Y-9254566D01*
X16301247Y-9266448D01*
X16301247Y-9266448D01*
X16311352Y-9276553D01*
X16311352Y-9276553D01*
X16323234Y-9284493D01*
X16323235Y-9284493D01*
X16323235Y-9284493D01*
X16336438Y-9289962D01*
X16336438Y-9289962D01*
X16336438Y-9289962D01*
X16350454Y-9292750D01*
X16350454Y-9292750D01*
X16364746Y-9292750D01*
X16374175Y-9290874D01*
X16378762Y-9289962D01*
X16391965Y-9284493D01*
X16403848Y-9276553D01*
X16413953Y-9266448D01*
X16421893Y-9254565D01*
X16427362Y-9241362D01*
X16430150Y-9227346D01*
X16430150Y-9213055D01*
X16430150Y-9213054D01*
X16427362Y-9199039D01*
X16427362Y-9199038D01*
X16427362Y-9199038D01*
X16423132Y-9188826D01*
X16421893Y-9185835D01*
X16421892Y-9185834D01*
X16413953Y-9173952D01*
X16413953Y-9173952D01*
X16403848Y-9163847D01*
X16403848Y-9163847D01*
X16391966Y-9155907D01*
X16391965Y-9155907D01*
X16378762Y-9150438D01*
X16378761Y-9150438D01*
X16364746Y-9147650D01*
X16364745Y-9147650D01*
X16350454Y-9147650D01*
X16350454Y-9147650D01*
X16336438Y-9150438D01*
X16336438Y-9150438D01*
X16323235Y-9155907D01*
X16323234Y-9155907D01*
X16311352Y-9163847D01*
X16311352Y-9163847D01*
X16301247Y-9173952D01*
X16301247Y-9173952D01*
X16293307Y-9185834D01*
X16293307Y-9185835D01*
X16287838Y-9199038D01*
X16287838Y-9199039D01*
X16285050Y-9213054D01*
X16285050Y-9213055D01*
X16285050Y-9227346D01*
X16285050Y-9227346D01*
X16285050Y-9227346D01*
X15396419Y-9227346D01*
X15396420Y-9227346D01*
X15400862Y-9226462D01*
X15414065Y-9220993D01*
X15425948Y-9213053D01*
X15436053Y-9202948D01*
X15443993Y-9191065D01*
X15449462Y-9177862D01*
X15452250Y-9163847D01*
X15452250Y-9163846D01*
X15452250Y-9155950D01*
X15454218Y-9149246D01*
X15459499Y-9144671D01*
X15464650Y-9143550D01*
X15477146Y-9143550D01*
X15489431Y-9141106D01*
X15491162Y-9140762D01*
X15496754Y-9138446D01*
X15980250Y-9138446D01*
X15983038Y-9152461D01*
X15983038Y-9152462D01*
X15988507Y-9165665D01*
X15988507Y-9165666D01*
X15996447Y-9177548D01*
X15996447Y-9177548D01*
X16006552Y-9187653D01*
X16006552Y-9187653D01*
X16018434Y-9195593D01*
X16018435Y-9195593D01*
X16018435Y-9195593D01*
X16031638Y-9201062D01*
X16031638Y-9201062D01*
X16031638Y-9201062D01*
X16045654Y-9203850D01*
X16045654Y-9203850D01*
X16059946Y-9203850D01*
X16069375Y-9201974D01*
X16073962Y-9201062D01*
X16087165Y-9195593D01*
X16099048Y-9187653D01*
X16109153Y-9177548D01*
X16117093Y-9165665D01*
X16122562Y-9152462D01*
X16123647Y-9147008D01*
X16125350Y-9138446D01*
X16125350Y-9124154D01*
X16122562Y-9110139D01*
X16122562Y-9110138D01*
X16122562Y-9110138D01*
X16117093Y-9096935D01*
X16117093Y-9096935D01*
X16117092Y-9096934D01*
X16109153Y-9085052D01*
X16109153Y-9085052D01*
X16099048Y-9074947D01*
X16099048Y-9074947D01*
X16087166Y-9067007D01*
X16087165Y-9067007D01*
X16073962Y-9061538D01*
X16073961Y-9061538D01*
X16059946Y-9058750D01*
X16059945Y-9058750D01*
X16045654Y-9058750D01*
X16045654Y-9058750D01*
X16031638Y-9061538D01*
X16031638Y-9061538D01*
X16018435Y-9067007D01*
X16018434Y-9067007D01*
X16006552Y-9074947D01*
X16006552Y-9074947D01*
X15996447Y-9085052D01*
X15996447Y-9085052D01*
X15988507Y-9096934D01*
X15988507Y-9096935D01*
X15983038Y-9110138D01*
X15983038Y-9110139D01*
X15980250Y-9124154D01*
X15980250Y-9124155D01*
X15980250Y-9138446D01*
X15980250Y-9138446D01*
X15980250Y-9138446D01*
X15496754Y-9138446D01*
X15504365Y-9135293D01*
X15516248Y-9127353D01*
X15526353Y-9117248D01*
X15534293Y-9105365D01*
X15539762Y-9092162D01*
X15540801Y-9086938D01*
X15542314Y-9079331D01*
X15545553Y-9073140D01*
X15551624Y-9069682D01*
X15554476Y-9069350D01*
X15630925Y-9069350D01*
X15637629Y-9071319D01*
X15639693Y-9072982D01*
X15659638Y-9092927D01*
X15659638Y-9092927D01*
X15669437Y-9099474D01*
X15669723Y-9099666D01*
X15670293Y-9100047D01*
X15682131Y-9104950D01*
X15682132Y-9104950D01*
X15682132Y-9104950D01*
X15694698Y-9107450D01*
X15694699Y-9107450D01*
X15846316Y-9107450D01*
X15851552Y-9108761D01*
X15851588Y-9108675D01*
X15852150Y-9108908D01*
X15852150Y-9108908D01*
X15865809Y-9114566D01*
X15865809Y-9114566D01*
X15865809Y-9114566D01*
X15880308Y-9117450D01*
X15880308Y-9117450D01*
X15895092Y-9117450D01*
X15904846Y-9115510D01*
X15909591Y-9114566D01*
X15923249Y-9108908D01*
X15935542Y-9100695D01*
X15945995Y-9090242D01*
X15954208Y-9077950D01*
X15959866Y-9064291D01*
X15962750Y-9049792D01*
X15962750Y-9035008D01*
X15962750Y-9035008D01*
X15959866Y-9020509D01*
X15959866Y-9020509D01*
X15959866Y-9020509D01*
X15957166Y-9013992D01*
X15954209Y-9006851D01*
X15954208Y-9006850D01*
X15945995Y-8994558D01*
X15945995Y-8994558D01*
X15935542Y-8984105D01*
X15935541Y-8984105D01*
X15923250Y-8975892D01*
X15923249Y-8975891D01*
X15909591Y-8970234D01*
X15909591Y-8970234D01*
X15909256Y-8970167D01*
X15909097Y-8970084D01*
X15909008Y-8970057D01*
X15909013Y-8970040D01*
X15903065Y-8966928D01*
X15899608Y-8960857D01*
X15899276Y-8958006D01*
X15899276Y-8945726D01*
X15896392Y-8931228D01*
X15896392Y-8931227D01*
X15896392Y-8931227D01*
X15894707Y-8927159D01*
X15890734Y-8917569D01*
X15890734Y-8917568D01*
X15882521Y-8905277D01*
X15882521Y-8905276D01*
X15872068Y-8894823D01*
X15872067Y-8894823D01*
X15859776Y-8886610D01*
X15859775Y-8886610D01*
X15846117Y-8880953D01*
X15846116Y-8880952D01*
X15831618Y-8878068D01*
X15831618Y-8878068D01*
X15816834Y-8878068D01*
X15816834Y-8878068D01*
X15802335Y-8880952D01*
X15802334Y-8880953D01*
X15788677Y-8886610D01*
X15788676Y-8886610D01*
X15776384Y-8894823D01*
X15776384Y-8894823D01*
X15765931Y-8905276D01*
X15765544Y-8905748D01*
X15765358Y-8905595D01*
X15760810Y-8909394D01*
X15753877Y-8910263D01*
X15751119Y-8909479D01*
X15744492Y-8906734D01*
X15744491Y-8906734D01*
X15729992Y-8903850D01*
X15729992Y-8903850D01*
X15715208Y-8903850D01*
X15715208Y-8903850D01*
X15700709Y-8906734D01*
X15700708Y-8906734D01*
X15687051Y-8912391D01*
X15687050Y-8912392D01*
X15674758Y-8920605D01*
X15674758Y-8920605D01*
X15664305Y-8931058D01*
X15662514Y-8933739D01*
X15657152Y-8938220D01*
X15652203Y-8939250D01*
X15284393Y-8939250D01*
X15271826Y-8941750D01*
X15271825Y-8941750D01*
X15262225Y-8945727D01*
X15259988Y-8946653D01*
X15259987Y-8946654D01*
X15255123Y-8949904D01*
X15251516Y-8952313D01*
X15250026Y-8952780D01*
X15248761Y-8953694D01*
X15246760Y-8953803D01*
X15244849Y-8954401D01*
X15243248Y-8953993D01*
X15241784Y-8954073D01*
X15239269Y-8952979D01*
X15238499Y-8952783D01*
X15238110Y-8952561D01*
X15228249Y-8945973D01*
X15221885Y-8943337D01*
X15221214Y-8942955D01*
X15219301Y-8940975D01*
X15217157Y-8939248D01*
X15216908Y-8938499D01*
X15216359Y-8937931D01*
X15215820Y-8935231D01*
X15214951Y-8932618D01*
X15215116Y-8931703D01*
X15214991Y-8931079D01*
X15215430Y-8929962D01*
X15215887Y-8927431D01*
X15221657Y-8913501D01*
X15221657Y-8913500D01*
X15223003Y-8906734D01*
X15224541Y-8899001D01*
X15224541Y-8884217D01*
X15221657Y-8869718D01*
X15221657Y-8869718D01*
X15221657Y-8869718D01*
X15217113Y-8858747D01*
X15216000Y-8856060D01*
X15215999Y-8856059D01*
X15207786Y-8843767D01*
X15207786Y-8843767D01*
X15197333Y-8833314D01*
X15197333Y-8833314D01*
X15185041Y-8825101D01*
X15185040Y-8825100D01*
X15171383Y-8819443D01*
X15171382Y-8819443D01*
X15156883Y-8816559D01*
X15156883Y-8816559D01*
X15142099Y-8816559D01*
X15142099Y-8816559D01*
X15127600Y-8819443D01*
X15127599Y-8819443D01*
X15113942Y-8825100D01*
X15113941Y-8825101D01*
X15101649Y-8833314D01*
X15101649Y-8833314D01*
X15091196Y-8843767D01*
X15091196Y-8843767D01*
X15082983Y-8856059D01*
X15082982Y-8856060D01*
X15077325Y-8869717D01*
X15077325Y-8869718D01*
X15074441Y-8884217D01*
X15074441Y-8884217D01*
X15074441Y-8899001D01*
X15074441Y-8899001D01*
X15074441Y-8899001D01*
X15077325Y-8913500D01*
X15077325Y-8913501D01*
X15082982Y-8927158D01*
X15082983Y-8927159D01*
X15091196Y-8939450D01*
X15091196Y-8939451D01*
X15101649Y-8949904D01*
X15101649Y-8949904D01*
X15113941Y-8958117D01*
X15113941Y-8958117D01*
X15113942Y-8958117D01*
X15119593Y-8960458D01*
X15125034Y-8964842D01*
X15127240Y-8971472D01*
X15126304Y-8976660D01*
X15123220Y-8984105D01*
X15120534Y-8990590D01*
X15120534Y-8990590D01*
X15120534Y-8990591D01*
X15120534Y-8990591D01*
X15117574Y-9005469D01*
X15114336Y-9011660D01*
X15108264Y-9015118D01*
X15105413Y-9015450D01*
X14773384Y-9015450D01*
X14768148Y-9014139D01*
X14768112Y-9014225D01*
X14767549Y-9013992D01*
X14753891Y-9008334D01*
X14753891Y-9008334D01*
X14739392Y-9005450D01*
X14739392Y-9005450D01*
X14724608Y-9005450D01*
X14724608Y-9005450D01*
X14710109Y-9008334D01*
X14710108Y-9008334D01*
X14696451Y-9013991D01*
X14696450Y-9013992D01*
X14684158Y-9022205D01*
X14684158Y-9022205D01*
X14673705Y-9032658D01*
X14673705Y-9032658D01*
X14665492Y-9044950D01*
X14665491Y-9044951D01*
X14659834Y-9058608D01*
X14659834Y-9058609D01*
X14656950Y-9073108D01*
X14656950Y-9073108D01*
X14656950Y-9087892D01*
X14656950Y-9087892D01*
X14656950Y-9087892D01*
X14074405Y-9087892D01*
X14074716Y-8807507D01*
X16394150Y-8807507D01*
X16396650Y-8820074D01*
X16396650Y-8820074D01*
X16401553Y-8831912D01*
X16401554Y-8831913D01*
X16408672Y-8842567D01*
X16408673Y-8842567D01*
X16417733Y-8851627D01*
X16417733Y-8851628D01*
X16428387Y-8858746D01*
X16428387Y-8858746D01*
X16428387Y-8858747D01*
X16440226Y-8863650D01*
X16440226Y-8863650D01*
X16440226Y-8863650D01*
X16452793Y-8866150D01*
X16452793Y-8866150D01*
X16465607Y-8866150D01*
X16474061Y-8864468D01*
X16478174Y-8863650D01*
X16490013Y-8858747D01*
X16500667Y-8851628D01*
X16509728Y-8842567D01*
X16516846Y-8831913D01*
X16521750Y-8820074D01*
X16524250Y-8807507D01*
X16524250Y-8794693D01*
X16524250Y-8794693D01*
X16521750Y-8782126D01*
X16521750Y-8782126D01*
X16521750Y-8782126D01*
X16516846Y-8770287D01*
X16516846Y-8770287D01*
X16516846Y-8770287D01*
X16509728Y-8759633D01*
X16509727Y-8759633D01*
X16500667Y-8750573D01*
X16500667Y-8750572D01*
X16490013Y-8743454D01*
X16490012Y-8743453D01*
X16478174Y-8738550D01*
X16478174Y-8738550D01*
X16465607Y-8736050D01*
X16465607Y-8736050D01*
X16452793Y-8736050D01*
X16452793Y-8736050D01*
X16440226Y-8738550D01*
X16440225Y-8738550D01*
X16428387Y-8743453D01*
X16428387Y-8743454D01*
X16417733Y-8750572D01*
X16417733Y-8750573D01*
X16408673Y-8759633D01*
X16408672Y-8759633D01*
X16401554Y-8770287D01*
X16401553Y-8770288D01*
X16396650Y-8782126D01*
X16396650Y-8782126D01*
X16394150Y-8794693D01*
X16394150Y-8794693D01*
X16394150Y-8807507D01*
X16394150Y-8807507D01*
X16394150Y-8807507D01*
X14074716Y-8807507D01*
X14074867Y-8670896D01*
X15345250Y-8670896D01*
X15348038Y-8684911D01*
X15348038Y-8684912D01*
X15353507Y-8698115D01*
X15353507Y-8698116D01*
X15361447Y-8709998D01*
X15361447Y-8709998D01*
X15371552Y-8720103D01*
X15371552Y-8720103D01*
X15383434Y-8728043D01*
X15383435Y-8728043D01*
X15383435Y-8728043D01*
X15396638Y-8733512D01*
X15396638Y-8733512D01*
X15396638Y-8733512D01*
X15410654Y-8736300D01*
X15410654Y-8736300D01*
X15424946Y-8736300D01*
X15436052Y-8734091D01*
X15438962Y-8733512D01*
X15452165Y-8728043D01*
X15464048Y-8720103D01*
X15474153Y-8709998D01*
X15482093Y-8698115D01*
X15487562Y-8684912D01*
X15489205Y-8676651D01*
X15490350Y-8670896D01*
X15586550Y-8670896D01*
X15589338Y-8684911D01*
X15589338Y-8684912D01*
X15594807Y-8698115D01*
X15594807Y-8698116D01*
X15602747Y-8709998D01*
X15602747Y-8709998D01*
X15612852Y-8720103D01*
X15612852Y-8720103D01*
X15624734Y-8728043D01*
X15624735Y-8728043D01*
X15624735Y-8728043D01*
X15637938Y-8733512D01*
X15637938Y-8733512D01*
X15637938Y-8733512D01*
X15651954Y-8736300D01*
X15651954Y-8736300D01*
X15666246Y-8736300D01*
X15677352Y-8734091D01*
X15680262Y-8733512D01*
X15693465Y-8728043D01*
X15705348Y-8720103D01*
X15715453Y-8709998D01*
X15723393Y-8698115D01*
X15728862Y-8684912D01*
X15730505Y-8676651D01*
X15731650Y-8670896D01*
X15731650Y-8663896D01*
X15815150Y-8663896D01*
X15817938Y-8677911D01*
X15817938Y-8677912D01*
X15823407Y-8691115D01*
X15823407Y-8691116D01*
X15831347Y-8702998D01*
X15831347Y-8702998D01*
X15841452Y-8713103D01*
X15841452Y-8713103D01*
X15853334Y-8721043D01*
X15853335Y-8721043D01*
X15853335Y-8721043D01*
X15866538Y-8726512D01*
X15866538Y-8726512D01*
X15866538Y-8726512D01*
X15880554Y-8729300D01*
X15880554Y-8729300D01*
X15894846Y-8729300D01*
X15904275Y-8727424D01*
X15908862Y-8726512D01*
X15922065Y-8721043D01*
X15933948Y-8713103D01*
X15944053Y-8702998D01*
X15951993Y-8691115D01*
X15957462Y-8677912D01*
X15958858Y-8670896D01*
X15960250Y-8663896D01*
X15960250Y-8649604D01*
X15957462Y-8635589D01*
X15957462Y-8635588D01*
X15957462Y-8635588D01*
X15951993Y-8622385D01*
X15951993Y-8622385D01*
X15951992Y-8622384D01*
X15944053Y-8610502D01*
X15944053Y-8610502D01*
X15933948Y-8600397D01*
X15933948Y-8600397D01*
X15922066Y-8592457D01*
X15922065Y-8592457D01*
X15908862Y-8586988D01*
X15908861Y-8586988D01*
X15894846Y-8584200D01*
X15894845Y-8584200D01*
X15880554Y-8584200D01*
X15880554Y-8584200D01*
X15866538Y-8586988D01*
X15866538Y-8586988D01*
X15853335Y-8592457D01*
X15853334Y-8592457D01*
X15841452Y-8600397D01*
X15841452Y-8600397D01*
X15831347Y-8610502D01*
X15831347Y-8610502D01*
X15823407Y-8622384D01*
X15823407Y-8622385D01*
X15817938Y-8635588D01*
X15817938Y-8635589D01*
X15815150Y-8649604D01*
X15815150Y-8649605D01*
X15815150Y-8663896D01*
X15815150Y-8663896D01*
X15815150Y-8663896D01*
X15731650Y-8663896D01*
X15731650Y-8656604D01*
X15731650Y-8656604D01*
X15730618Y-8651414D01*
X15728862Y-8642589D01*
X15728862Y-8642588D01*
X15728862Y-8642588D01*
X15723393Y-8629385D01*
X15723393Y-8629385D01*
X15723392Y-8629384D01*
X15715453Y-8617502D01*
X15715453Y-8617502D01*
X15705348Y-8607397D01*
X15705348Y-8607397D01*
X15693466Y-8599457D01*
X15693465Y-8599457D01*
X15680262Y-8593988D01*
X15680261Y-8593988D01*
X15666246Y-8591200D01*
X15666245Y-8591200D01*
X15651954Y-8591200D01*
X15651954Y-8591200D01*
X15637938Y-8593988D01*
X15637938Y-8593988D01*
X15624735Y-8599457D01*
X15624734Y-8599457D01*
X15612852Y-8607397D01*
X15612852Y-8607397D01*
X15602747Y-8617502D01*
X15602747Y-8617502D01*
X15594807Y-8629384D01*
X15594807Y-8629385D01*
X15589338Y-8642588D01*
X15589338Y-8642589D01*
X15586550Y-8656604D01*
X15586550Y-8656605D01*
X15586550Y-8670896D01*
X15586550Y-8670896D01*
X15586550Y-8670896D01*
X15490350Y-8670896D01*
X15490350Y-8656604D01*
X15487562Y-8642589D01*
X15487562Y-8642588D01*
X15487562Y-8642588D01*
X15482093Y-8629385D01*
X15482093Y-8629385D01*
X15482092Y-8629384D01*
X15474153Y-8617502D01*
X15474153Y-8617502D01*
X15464048Y-8607397D01*
X15464048Y-8607397D01*
X15452166Y-8599457D01*
X15452165Y-8599457D01*
X15438962Y-8593988D01*
X15438961Y-8593988D01*
X15424946Y-8591200D01*
X15424945Y-8591200D01*
X15410654Y-8591200D01*
X15410654Y-8591200D01*
X15396638Y-8593988D01*
X15396638Y-8593988D01*
X15383435Y-8599457D01*
X15383434Y-8599457D01*
X15371552Y-8607397D01*
X15371552Y-8607397D01*
X15361447Y-8617502D01*
X15361447Y-8617502D01*
X15353507Y-8629384D01*
X15353507Y-8629385D01*
X15348038Y-8642588D01*
X15348038Y-8642589D01*
X15345250Y-8656604D01*
X15345250Y-8656605D01*
X15345250Y-8670896D01*
X15345250Y-8670896D01*
X15345250Y-8670896D01*
X14074867Y-8670896D01*
X14075632Y-7979378D01*
X14077608Y-7972677D01*
X14082893Y-7968107D01*
X14087865Y-7966993D01*
X16603442Y-7933169D01*
X16610171Y-7935047D01*
G37*
%TD.AperFunction*%
%TD*%
%TA.AperFunction,Conductor*%
%TO.N,/VBUS*%
G36*
X17086090Y-7923255D02*
G01*
X17086986Y-7923126D01*
X17089390Y-7924224D01*
X17091926Y-7924968D01*
X17092518Y-7925652D01*
X17093342Y-7926029D01*
X17094771Y-7928252D01*
X17096501Y-7930249D01*
X17096730Y-7931300D01*
X17097119Y-7931906D01*
X17097622Y-7935400D01*
X17097622Y-7943131D01*
X17097622Y-7943131D01*
X17097622Y-7943131D01*
X17100410Y-7957147D01*
X17100410Y-7957147D01*
X17105879Y-7970350D01*
X17105879Y-7970351D01*
X17113818Y-7982233D01*
X17113819Y-7982233D01*
X17123923Y-7992338D01*
X17123924Y-7992338D01*
X17135806Y-8000278D01*
X17135806Y-8000278D01*
X17135806Y-8000278D01*
X17149010Y-8005747D01*
X17149010Y-8005747D01*
X17149010Y-8005747D01*
X17163026Y-8008535D01*
X17163026Y-8008535D01*
X17177317Y-8008535D01*
X17186747Y-8006659D01*
X17191334Y-8005747D01*
X17204537Y-8000278D01*
X17216420Y-7992338D01*
X17226525Y-7982233D01*
X17234465Y-7970350D01*
X17239934Y-7957147D01*
X17240846Y-7952560D01*
X17242722Y-7943131D01*
X17242722Y-7935400D01*
X17244690Y-7928696D01*
X17249971Y-7924121D01*
X17255122Y-7923000D01*
X17716864Y-7923000D01*
X17723568Y-7924968D01*
X17725632Y-7926632D01*
X17835044Y-8036044D01*
X17838392Y-8042176D01*
X17837894Y-8049145D01*
X17833707Y-8054738D01*
X17828695Y-8056973D01*
X17822338Y-8058238D01*
X17822338Y-8058238D01*
X17809135Y-8063707D01*
X17809134Y-8063707D01*
X17797252Y-8071647D01*
X17797252Y-8071647D01*
X17787147Y-8081752D01*
X17787147Y-8081752D01*
X17779207Y-8093634D01*
X17779207Y-8093635D01*
X17773738Y-8106838D01*
X17773738Y-8106838D01*
X17770950Y-8120854D01*
X17770950Y-8120854D01*
X17770950Y-8135145D01*
X17770950Y-8135146D01*
X17770950Y-8135146D01*
X17773738Y-8149161D01*
X17773738Y-8149162D01*
X17779207Y-8162365D01*
X17779207Y-8162366D01*
X17787147Y-8174248D01*
X17787147Y-8174248D01*
X17797252Y-8184353D01*
X17797252Y-8184353D01*
X17809134Y-8192292D01*
X17809135Y-8192293D01*
X17809135Y-8192293D01*
X17822338Y-8197762D01*
X17822338Y-8197762D01*
X17822339Y-8197762D01*
X17836354Y-8200550D01*
X17836355Y-8200550D01*
X17850646Y-8200550D01*
X17860075Y-8198674D01*
X17864662Y-8197762D01*
X17876855Y-8192711D01*
X17883802Y-8191965D01*
X17890050Y-8195092D01*
X17893615Y-8201101D01*
X17894000Y-8204168D01*
X17894000Y-9121864D01*
X17892032Y-9128568D01*
X17890368Y-9130632D01*
X17754641Y-9266359D01*
X17748508Y-9269708D01*
X17745989Y-9269991D01*
X17745000Y-9270000D01*
X17682593Y-9270587D01*
X17675871Y-9268682D01*
X17671246Y-9263444D01*
X17670187Y-9256538D01*
X17673029Y-9250156D01*
X17673708Y-9249419D01*
X17677056Y-9246072D01*
X17688278Y-9229276D01*
X17688278Y-9229276D01*
X17688279Y-9229276D01*
X17696009Y-9210613D01*
X17699950Y-9190800D01*
X17699950Y-9065600D01*
X17696009Y-9045787D01*
X17688279Y-9027124D01*
X17688278Y-9027124D01*
X17688278Y-9027124D01*
X17677056Y-9010328D01*
X17662772Y-8996044D01*
X17645976Y-8984822D01*
X17645975Y-8984821D01*
X17627313Y-8977091D01*
X17627312Y-8977091D01*
X17607501Y-8973150D01*
X17607500Y-8973150D01*
X17587300Y-8973150D01*
X17587299Y-8973150D01*
X17567488Y-8977091D01*
X17567487Y-8977091D01*
X17548825Y-8984821D01*
X17548824Y-8984822D01*
X17545074Y-8987327D01*
X17538407Y-8989415D01*
X17531669Y-8987566D01*
X17527000Y-8982368D01*
X17526729Y-8981762D01*
X17523555Y-8974098D01*
X17523555Y-8974098D01*
X17514521Y-8960578D01*
X17514521Y-8960577D01*
X17503023Y-8949079D01*
X17503022Y-8949079D01*
X17489502Y-8940045D01*
X17489502Y-8940045D01*
X17474479Y-8933823D01*
X17474478Y-8933822D01*
X17458531Y-8930650D01*
X17458531Y-8930650D01*
X17442270Y-8930650D01*
X17442269Y-8930650D01*
X17426322Y-8933822D01*
X17426321Y-8933822D01*
X17420764Y-8936124D01*
X17415145Y-8938452D01*
X17408198Y-8939199D01*
X17405655Y-8938452D01*
X17394479Y-8933822D01*
X17394478Y-8933822D01*
X17378531Y-8930650D01*
X17378531Y-8930650D01*
X17362270Y-8930650D01*
X17362269Y-8930650D01*
X17346322Y-8933822D01*
X17346322Y-8933822D01*
X17346321Y-8933822D01*
X17346321Y-8933822D01*
X17339805Y-8936521D01*
X17335080Y-8938479D01*
X17328133Y-8939225D01*
X17325590Y-8938479D01*
X17314465Y-8933871D01*
X17314464Y-8933870D01*
X17298526Y-8930700D01*
X17287850Y-8930700D01*
X17281146Y-8928732D01*
X17276571Y-8923451D01*
X17275450Y-8918300D01*
X17275450Y-8834693D01*
X17273788Y-8826339D01*
X17273550Y-8823920D01*
X17273550Y-8820093D01*
X17271050Y-8807526D01*
X17271050Y-8807526D01*
X17271050Y-8807526D01*
X17266147Y-8795687D01*
X17265660Y-8794959D01*
X17265174Y-8794231D01*
X17259028Y-8785033D01*
X17259027Y-8785033D01*
X17154164Y-8680170D01*
X17150816Y-8674038D01*
X17151314Y-8667068D01*
X17152622Y-8664513D01*
X17156508Y-8658698D01*
X17156508Y-8658697D01*
X17156508Y-8658697D01*
X17162166Y-8645039D01*
X17165050Y-8630539D01*
X17165050Y-8615755D01*
X17165050Y-8615755D01*
X17162166Y-8601256D01*
X17162166Y-8601256D01*
X17162166Y-8601256D01*
X17162166Y-8601255D01*
X17156509Y-8587598D01*
X17156508Y-8587597D01*
X17148295Y-8575306D01*
X17148295Y-8575305D01*
X17137842Y-8564852D01*
X17137842Y-8564852D01*
X17125550Y-8556639D01*
X17125549Y-8556638D01*
X17111892Y-8550982D01*
X17111891Y-8550981D01*
X17097392Y-8548097D01*
X17097392Y-8548097D01*
X17095450Y-8548097D01*
X17088746Y-8546129D01*
X17084171Y-8540848D01*
X17083050Y-8535697D01*
X17083050Y-8385284D01*
X17084362Y-8380048D01*
X17084275Y-8380012D01*
X17089938Y-8366342D01*
X17090166Y-8365791D01*
X17091110Y-8361046D01*
X17093050Y-8351292D01*
X17093050Y-8336508D01*
X17090938Y-8325892D01*
X17273150Y-8325892D01*
X17276034Y-8340391D01*
X17276034Y-8340392D01*
X17281691Y-8354049D01*
X17281692Y-8354050D01*
X17289905Y-8366341D01*
X17289905Y-8366342D01*
X17300358Y-8376795D01*
X17300358Y-8376795D01*
X17312650Y-8385008D01*
X17312651Y-8385009D01*
X17326308Y-8390666D01*
X17326309Y-8390666D01*
X17326309Y-8390666D01*
X17326309Y-8390666D01*
X17340808Y-8393550D01*
X17340808Y-8393550D01*
X17355592Y-8393550D01*
X17365346Y-8391610D01*
X17370091Y-8390666D01*
X17380655Y-8386290D01*
X17383749Y-8385009D01*
X17383749Y-8385009D01*
X17383750Y-8385008D01*
X17396042Y-8376795D01*
X17406495Y-8366342D01*
X17414708Y-8354049D01*
X17420366Y-8340391D01*
X17423250Y-8325892D01*
X17423250Y-8311108D01*
X17423250Y-8311108D01*
X17420366Y-8296609D01*
X17420366Y-8296609D01*
X17420366Y-8296609D01*
X17415808Y-8285605D01*
X17414709Y-8282951D01*
X17414708Y-8282950D01*
X17406495Y-8270658D01*
X17406495Y-8270658D01*
X17396042Y-8260205D01*
X17396042Y-8260205D01*
X17383750Y-8251992D01*
X17383749Y-8251991D01*
X17370092Y-8246334D01*
X17370091Y-8246334D01*
X17355592Y-8243450D01*
X17355592Y-8243450D01*
X17340808Y-8243450D01*
X17340808Y-8243450D01*
X17326309Y-8246334D01*
X17326308Y-8246334D01*
X17312651Y-8251991D01*
X17312650Y-8251992D01*
X17300358Y-8260205D01*
X17300358Y-8260205D01*
X17289905Y-8270658D01*
X17289905Y-8270658D01*
X17281692Y-8282950D01*
X17281691Y-8282951D01*
X17276034Y-8296608D01*
X17276034Y-8296609D01*
X17273150Y-8311108D01*
X17273150Y-8311108D01*
X17273150Y-8325892D01*
X17273150Y-8325892D01*
X17273150Y-8325892D01*
X17090938Y-8325892D01*
X17090166Y-8322009D01*
X17090166Y-8322009D01*
X17090166Y-8322009D01*
X17085651Y-8311108D01*
X17084509Y-8308351D01*
X17084508Y-8308350D01*
X17076295Y-8296058D01*
X17076295Y-8296058D01*
X17065842Y-8285605D01*
X17065842Y-8285605D01*
X17053550Y-8277392D01*
X17053549Y-8277391D01*
X17039892Y-8271734D01*
X17039891Y-8271734D01*
X17025392Y-8268850D01*
X17025392Y-8268850D01*
X17010608Y-8268850D01*
X17010608Y-8268850D01*
X16996109Y-8271734D01*
X16996108Y-8271734D01*
X16982451Y-8277391D01*
X16982450Y-8277392D01*
X16970158Y-8285605D01*
X16970158Y-8285605D01*
X16959705Y-8296058D01*
X16959705Y-8296058D01*
X16951492Y-8308350D01*
X16951491Y-8308351D01*
X16945834Y-8322008D01*
X16945834Y-8322009D01*
X16942950Y-8336508D01*
X16942950Y-8336508D01*
X16942950Y-8351292D01*
X16942950Y-8351292D01*
X16942950Y-8351292D01*
X16945834Y-8365791D01*
X16945834Y-8365792D01*
X16951725Y-8380012D01*
X16951638Y-8380048D01*
X16952950Y-8385284D01*
X16952950Y-8642407D01*
X16954527Y-8650333D01*
X16955123Y-8653329D01*
X16955450Y-8654974D01*
X16956427Y-8657333D01*
X16960354Y-8666813D01*
X16967472Y-8677467D01*
X16980172Y-8690167D01*
X17141718Y-8851713D01*
X17145067Y-8857845D01*
X17145350Y-8860481D01*
X17145350Y-8918250D01*
X17143382Y-8924954D01*
X17138101Y-8929529D01*
X17132950Y-8930650D01*
X17122269Y-8930650D01*
X17106322Y-8933822D01*
X17106322Y-8933822D01*
X17106321Y-8933822D01*
X17106321Y-8933822D01*
X17099805Y-8936521D01*
X17095080Y-8938479D01*
X17088133Y-8939225D01*
X17085590Y-8938479D01*
X17074465Y-8933871D01*
X17074464Y-8933870D01*
X17058526Y-8930700D01*
X17042274Y-8930700D01*
X17026336Y-8933870D01*
X17026336Y-8933870D01*
X17015210Y-8938479D01*
X17008263Y-8939225D01*
X17005720Y-8938479D01*
X16994479Y-8933823D01*
X16994478Y-8933822D01*
X16978531Y-8930650D01*
X16978531Y-8930650D01*
X16962270Y-8930650D01*
X16962269Y-8930650D01*
X16946322Y-8933822D01*
X16946321Y-8933822D01*
X16940764Y-8936124D01*
X16935145Y-8938452D01*
X16928198Y-8939199D01*
X16925655Y-8938452D01*
X16914479Y-8933822D01*
X16914478Y-8933822D01*
X16898531Y-8930650D01*
X16898531Y-8930650D01*
X16882270Y-8930650D01*
X16882269Y-8930650D01*
X16866322Y-8933822D01*
X16866321Y-8933823D01*
X16851298Y-8940045D01*
X16851298Y-8940045D01*
X16837778Y-8949079D01*
X16837777Y-8949079D01*
X16826279Y-8960577D01*
X16826279Y-8960578D01*
X16817245Y-8974098D01*
X16817245Y-8974098D01*
X16814071Y-8981762D01*
X16809687Y-8987202D01*
X16803057Y-8989409D01*
X16796287Y-8987681D01*
X16795726Y-8987327D01*
X16791976Y-8984822D01*
X16791975Y-8984821D01*
X16773313Y-8977091D01*
X16773312Y-8977091D01*
X16753501Y-8973150D01*
X16753500Y-8973150D01*
X16733300Y-8973150D01*
X16733299Y-8973150D01*
X16713488Y-8977091D01*
X16713487Y-8977091D01*
X16694825Y-8984821D01*
X16694824Y-8984822D01*
X16686764Y-8990207D01*
X16680097Y-8992295D01*
X16673359Y-8990446D01*
X16668690Y-8985248D01*
X16667475Y-8979908D01*
X16667311Y-8794435D01*
X16669273Y-8787729D01*
X16674550Y-8783149D01*
X16674959Y-8782971D01*
X16685249Y-8778708D01*
X16697542Y-8770495D01*
X16707995Y-8760042D01*
X16709730Y-8757446D01*
X16767650Y-8757446D01*
X16770438Y-8771461D01*
X16770438Y-8771462D01*
X16775907Y-8784665D01*
X16775907Y-8784666D01*
X16783847Y-8796548D01*
X16783847Y-8796548D01*
X16793952Y-8806653D01*
X16793952Y-8806653D01*
X16805834Y-8814593D01*
X16805835Y-8814593D01*
X16808266Y-8815600D01*
X16819038Y-8820062D01*
X16819038Y-8820062D01*
X16819039Y-8820062D01*
X16833054Y-8822850D01*
X16833055Y-8822850D01*
X16847346Y-8822850D01*
X16861205Y-8820093D01*
X16861362Y-8820062D01*
X16874565Y-8814593D01*
X16886448Y-8806653D01*
X16896553Y-8796548D01*
X16904493Y-8784665D01*
X16909962Y-8771462D01*
X16910874Y-8766875D01*
X16912750Y-8757446D01*
X16912750Y-8743154D01*
X16909962Y-8729139D01*
X16909962Y-8729138D01*
X16909962Y-8729138D01*
X16904493Y-8715935D01*
X16904493Y-8715935D01*
X16904493Y-8715934D01*
X16896553Y-8704052D01*
X16896553Y-8704052D01*
X16886448Y-8693947D01*
X16886448Y-8693947D01*
X16874566Y-8686007D01*
X16874565Y-8686007D01*
X16861362Y-8680538D01*
X16861361Y-8680538D01*
X16847346Y-8677750D01*
X16847346Y-8677750D01*
X16833055Y-8677750D01*
X16833054Y-8677750D01*
X16819039Y-8680538D01*
X16819038Y-8680538D01*
X16805835Y-8686007D01*
X16805834Y-8686007D01*
X16793952Y-8693947D01*
X16793952Y-8693947D01*
X16783847Y-8704052D01*
X16783847Y-8704052D01*
X16775907Y-8715934D01*
X16775907Y-8715935D01*
X16770438Y-8729138D01*
X16770438Y-8729139D01*
X16767650Y-8743154D01*
X16767650Y-8743155D01*
X16767650Y-8757446D01*
X16767650Y-8757446D01*
X16767650Y-8757446D01*
X16709730Y-8757446D01*
X16716208Y-8747750D01*
X16718112Y-8743155D01*
X16720330Y-8737800D01*
X16721866Y-8734092D01*
X16721866Y-8734091D01*
X16724750Y-8719592D01*
X16724750Y-8704808D01*
X16724750Y-8704808D01*
X16721866Y-8690309D01*
X16721866Y-8690309D01*
X16721866Y-8690309D01*
X16721807Y-8690167D01*
X16716209Y-8676651D01*
X16716208Y-8676650D01*
X16707995Y-8664358D01*
X16707995Y-8664358D01*
X16697542Y-8653905D01*
X16697541Y-8653905D01*
X16685250Y-8645692D01*
X16685249Y-8645691D01*
X16674820Y-8641372D01*
X16669379Y-8636987D01*
X16667173Y-8630358D01*
X16667165Y-8629926D01*
X16666643Y-8041503D01*
X16668606Y-8034798D01*
X16670274Y-8032725D01*
X16776368Y-7926632D01*
X16782500Y-7923283D01*
X16785136Y-7923000D01*
X17085222Y-7923000D01*
X17086090Y-7923255D01*
G37*
%TD.AperFunction*%
%TD*%
%TA.AperFunction,Conductor*%
%TO.N,+3.3V*%
G36*
X19601049Y-4208100D02*
G01*
X19601049Y-4208100D01*
X19603595Y-4208100D01*
X19608961Y-4208100D01*
X19608961Y-4208100D01*
X19651661Y-4208100D01*
X19652546Y-4208132D01*
X19653990Y-4208235D01*
X19675122Y-4209747D01*
X19676871Y-4209998D01*
X19698554Y-4214716D01*
X19700251Y-4215214D01*
X19721041Y-4222969D01*
X19722650Y-4223704D01*
X19742124Y-4234338D01*
X19743612Y-4235294D01*
X19761166Y-4248435D01*
X19761376Y-4248592D01*
X19762713Y-4249750D01*
X19778403Y-4265441D01*
X19779560Y-4266777D01*
X19786178Y-4275618D01*
X19792858Y-4284540D01*
X19793814Y-4286029D01*
X19804448Y-4305504D01*
X19805183Y-4307113D01*
X19812937Y-4327903D01*
X19813436Y-4329600D01*
X19818152Y-4351282D01*
X19818404Y-4353033D01*
X19820018Y-4375607D01*
X19820050Y-4376491D01*
X19820050Y-4606654D01*
X19819793Y-4609167D01*
X19819709Y-4609571D01*
X19820050Y-4612656D01*
X19820050Y-4614956D01*
X19820485Y-4616579D01*
X19820555Y-4617213D01*
X19820588Y-4617513D01*
X19821779Y-4628241D01*
X19821779Y-4628243D01*
X19828223Y-4655545D01*
X19828224Y-4655546D01*
X19837934Y-4681863D01*
X19850767Y-4706808D01*
X19851524Y-4707922D01*
X19866534Y-4730011D01*
X19866534Y-4730012D01*
X19866534Y-4730012D01*
X19880351Y-4745813D01*
X19885000Y-4751129D01*
X19905893Y-4769849D01*
X19928903Y-4785895D01*
X19953691Y-4799028D01*
X19979890Y-4809056D01*
X20007113Y-4815830D01*
X20007114Y-4815830D01*
X20007114Y-4815830D01*
X20034955Y-4819249D01*
X20034955Y-4819249D01*
X20034956Y-4819249D01*
X20045146Y-4819259D01*
X20045174Y-4819266D01*
X20049072Y-4819262D01*
X20053742Y-4819265D01*
X20053742Y-4819265D01*
X20054657Y-4819265D01*
X20054765Y-4819256D01*
X20397609Y-4818909D01*
X20404315Y-4820870D01*
X20408895Y-4826146D01*
X20409897Y-4833061D01*
X20408849Y-4836571D01*
X20408451Y-4837420D01*
X20405892Y-4841251D01*
X20400234Y-4854909D01*
X20400220Y-4854981D01*
X20399966Y-4855522D01*
X20397832Y-4857936D01*
X20395810Y-4860445D01*
X20395431Y-4860652D01*
X20395338Y-4860757D01*
X20395132Y-4860815D01*
X20393484Y-4861716D01*
X20384851Y-4865291D01*
X20384850Y-4865292D01*
X20372558Y-4873505D01*
X20372558Y-4873505D01*
X20362105Y-4883958D01*
X20362105Y-4883958D01*
X20353892Y-4896250D01*
X20353891Y-4896251D01*
X20348234Y-4909908D01*
X20348234Y-4909909D01*
X20345350Y-4924408D01*
X20345350Y-4924408D01*
X20345350Y-4939192D01*
X20345350Y-4939192D01*
X20345350Y-4939192D01*
X20348234Y-4953691D01*
X20348234Y-4953692D01*
X20353891Y-4967349D01*
X20353892Y-4967350D01*
X20362105Y-4979642D01*
X20362105Y-4979642D01*
X20372558Y-4990095D01*
X20372558Y-4990095D01*
X20384850Y-4998308D01*
X20384851Y-4998309D01*
X20398508Y-5003966D01*
X20398509Y-5003966D01*
X20398509Y-5003966D01*
X20398509Y-5003966D01*
X20413008Y-5006850D01*
X20413008Y-5006850D01*
X20427792Y-5006850D01*
X20437546Y-5004910D01*
X20442291Y-5003966D01*
X20455949Y-4998308D01*
X20468241Y-4990095D01*
X20478695Y-4979642D01*
X20486908Y-4967350D01*
X20486908Y-4967349D01*
X20486909Y-4967349D01*
X20491795Y-4955551D01*
X20492566Y-4953691D01*
X20492566Y-4953691D01*
X20492605Y-4953595D01*
X20496989Y-4948155D01*
X20499316Y-4946884D01*
X20501947Y-4945795D01*
X20507949Y-4943309D01*
X20507949Y-4943309D01*
X20507950Y-4943308D01*
X20520242Y-4935095D01*
X20530695Y-4924642D01*
X20538908Y-4912350D01*
X20544566Y-4898691D01*
X20545510Y-4893946D01*
X20547450Y-4884192D01*
X20547450Y-4869408D01*
X20544566Y-4854909D01*
X20544566Y-4854909D01*
X20544566Y-4854909D01*
X20543211Y-4851637D01*
X20538909Y-4841251D01*
X20538908Y-4841249D01*
X20536767Y-4838046D01*
X20534680Y-4831378D01*
X20536528Y-4824640D01*
X20541726Y-4819971D01*
X20547065Y-4818757D01*
X22469113Y-4816807D01*
X22475819Y-4818768D01*
X22480400Y-4824044D01*
X22481401Y-4830959D01*
X22479436Y-4836096D01*
X22475992Y-4841250D01*
X22475991Y-4841251D01*
X22470334Y-4854908D01*
X22470334Y-4854909D01*
X22467450Y-4869408D01*
X22467450Y-4869408D01*
X22467450Y-4884192D01*
X22467450Y-4884192D01*
X22467450Y-4884192D01*
X22470334Y-4898691D01*
X22470334Y-4898692D01*
X22475600Y-4911405D01*
X22476347Y-4918352D01*
X22473219Y-4924600D01*
X22467211Y-4928165D01*
X22464144Y-4928550D01*
X20655627Y-4928550D01*
X20643543Y-4930954D01*
X20643542Y-4930954D01*
X20632159Y-4935669D01*
X20622909Y-4941850D01*
X20622908Y-4941850D01*
X20621914Y-4942514D01*
X20621914Y-4942515D01*
X20182311Y-5382118D01*
X20176178Y-5385467D01*
X20173543Y-5385750D01*
X17774435Y-5385750D01*
X17767731Y-5383782D01*
X17767554Y-5383666D01*
X17764750Y-5381792D01*
X17764749Y-5381791D01*
X17764749Y-5381791D01*
X17751092Y-5376134D01*
X17751091Y-5376134D01*
X17736592Y-5373250D01*
X17736592Y-5373250D01*
X17721808Y-5373250D01*
X17721808Y-5373250D01*
X17707309Y-5376134D01*
X17707308Y-5376134D01*
X17693651Y-5381791D01*
X17693650Y-5381792D01*
X17681358Y-5390005D01*
X17681358Y-5390005D01*
X17670905Y-5400458D01*
X17670905Y-5400458D01*
X17662692Y-5412750D01*
X17662691Y-5412751D01*
X17657034Y-5426408D01*
X17657034Y-5426409D01*
X17654150Y-5440908D01*
X17654150Y-5440908D01*
X17654150Y-5455692D01*
X17654150Y-5455692D01*
X17654150Y-5455692D01*
X17657034Y-5470191D01*
X17657034Y-5470192D01*
X17662691Y-5483849D01*
X17662692Y-5483850D01*
X17670905Y-5496142D01*
X17670905Y-5496142D01*
X17681358Y-5506595D01*
X17693650Y-5514808D01*
X17693651Y-5514809D01*
X17707308Y-5520466D01*
X17707309Y-5520466D01*
X17707309Y-5520466D01*
X17707309Y-5520466D01*
X17721808Y-5523350D01*
X17721808Y-5523350D01*
X17736592Y-5523350D01*
X17746346Y-5521410D01*
X17751091Y-5520466D01*
X17764750Y-5514808D01*
X17767546Y-5512940D01*
X17774214Y-5510852D01*
X17774435Y-5510850D01*
X20210749Y-5510850D01*
X20210749Y-5510850D01*
X20216839Y-5509639D01*
X20222833Y-5508446D01*
X20227302Y-5506595D01*
X20234216Y-5503731D01*
X20240805Y-5499329D01*
X20244461Y-5496886D01*
X20253174Y-5488173D01*
X20253174Y-5488173D01*
X20254194Y-5487152D01*
X20254195Y-5487152D01*
X20280397Y-5460950D01*
X22095950Y-5460950D01*
X22098642Y-5474482D01*
X22098642Y-5474483D01*
X22103922Y-5487230D01*
X22103923Y-5487232D01*
X22111589Y-5498704D01*
X22111589Y-5498705D01*
X22113166Y-5500282D01*
X22116515Y-5506414D01*
X22116016Y-5513383D01*
X22113166Y-5517818D01*
X22111589Y-5519395D01*
X22111589Y-5519396D01*
X22103923Y-5530868D01*
X22103922Y-5530870D01*
X22098642Y-5543617D01*
X22098642Y-5543618D01*
X22095950Y-5557150D01*
X22095950Y-5557151D01*
X22095950Y-5570949D01*
X22095950Y-5570950D01*
X22095950Y-5570950D01*
X22098642Y-5584482D01*
X22098642Y-5584483D01*
X22103922Y-5597230D01*
X22103923Y-5597232D01*
X22111589Y-5608704D01*
X22111589Y-5608704D01*
X22121345Y-5618461D01*
X22121346Y-5618461D01*
X22132818Y-5626127D01*
X22132820Y-5626128D01*
X22146130Y-5631641D01*
X22146069Y-5631788D01*
X22151264Y-5635193D01*
X22153320Y-5638957D01*
X22153409Y-5638920D01*
X22158922Y-5652230D01*
X22158923Y-5652232D01*
X22166589Y-5663704D01*
X22166589Y-5663704D01*
X22176345Y-5673461D01*
X22176346Y-5673461D01*
X22187818Y-5681127D01*
X22187820Y-5681128D01*
X22198042Y-5685362D01*
X22200567Y-5686408D01*
X22200568Y-5686408D01*
X22200568Y-5686408D01*
X22214100Y-5689100D01*
X22214101Y-5689100D01*
X22227900Y-5689100D01*
X22237004Y-5687289D01*
X22241433Y-5686408D01*
X22254181Y-5681127D01*
X22265654Y-5673461D01*
X22265725Y-5673391D01*
X22267232Y-5671884D01*
X22273364Y-5668535D01*
X22280333Y-5669034D01*
X22284768Y-5671884D01*
X22286345Y-5673461D01*
X22286346Y-5673461D01*
X22297818Y-5681127D01*
X22297820Y-5681128D01*
X22308042Y-5685362D01*
X22310567Y-5686408D01*
X22310568Y-5686408D01*
X22310568Y-5686408D01*
X22324100Y-5689100D01*
X22324101Y-5689100D01*
X22337900Y-5689100D01*
X22347004Y-5687289D01*
X22351433Y-5686408D01*
X22364181Y-5681127D01*
X22375654Y-5673461D01*
X22385411Y-5663704D01*
X22393077Y-5652231D01*
X22396885Y-5643038D01*
X22398591Y-5638920D01*
X22398739Y-5638981D01*
X22402142Y-5633786D01*
X22405907Y-5631731D01*
X22405870Y-5631641D01*
X22419180Y-5626128D01*
X22419180Y-5626128D01*
X22419181Y-5626127D01*
X22430654Y-5618461D01*
X22440411Y-5608704D01*
X22448077Y-5597231D01*
X22451578Y-5588780D01*
X22778576Y-5588780D01*
X22781460Y-5603279D01*
X22781460Y-5603280D01*
X22787117Y-5616937D01*
X22787405Y-5617475D01*
X22787303Y-5617530D01*
X22789205Y-5623605D01*
X22788264Y-5628571D01*
X22787834Y-5629609D01*
X22787834Y-5629609D01*
X22784950Y-5644108D01*
X22784950Y-5644108D01*
X22784950Y-5658892D01*
X22784950Y-5658892D01*
X22784950Y-5658892D01*
X22787834Y-5673391D01*
X22787834Y-5673392D01*
X22793491Y-5687049D01*
X22793492Y-5687050D01*
X22801705Y-5699341D01*
X22801705Y-5699342D01*
X22812158Y-5709795D01*
X22812158Y-5709795D01*
X22824450Y-5718008D01*
X22824451Y-5718009D01*
X22838108Y-5723666D01*
X22838109Y-5723666D01*
X22838109Y-5723666D01*
X22838109Y-5723666D01*
X22844229Y-5724883D01*
X22850420Y-5728122D01*
X22853878Y-5734193D01*
X22853503Y-5741170D01*
X22852120Y-5743934D01*
X22844292Y-5755650D01*
X22844291Y-5755651D01*
X22838634Y-5769308D01*
X22838634Y-5769309D01*
X22835750Y-5783808D01*
X22835750Y-5783808D01*
X22835750Y-5798592D01*
X22835750Y-5798592D01*
X22835750Y-5798592D01*
X22838634Y-5813091D01*
X22838634Y-5813092D01*
X22844291Y-5826749D01*
X22844292Y-5826750D01*
X22852505Y-5839041D01*
X22852505Y-5839042D01*
X22862958Y-5849495D01*
X22862958Y-5849495D01*
X22875250Y-5857708D01*
X22875251Y-5857709D01*
X22888908Y-5863366D01*
X22888909Y-5863366D01*
X22888909Y-5863366D01*
X22888909Y-5863366D01*
X22903408Y-5866250D01*
X22903408Y-5866250D01*
X22918192Y-5866250D01*
X22927946Y-5864310D01*
X22932691Y-5863366D01*
X22946349Y-5857708D01*
X22958642Y-5849495D01*
X22969095Y-5839042D01*
X22977308Y-5826749D01*
X22978494Y-5823887D01*
X22981989Y-5815450D01*
X22982966Y-5813091D01*
X22984740Y-5804172D01*
X22985850Y-5798592D01*
X22985850Y-5783808D01*
X22982966Y-5769309D01*
X22982966Y-5769309D01*
X22982966Y-5769309D01*
X22979296Y-5760450D01*
X22977309Y-5755651D01*
X22977308Y-5755650D01*
X22969095Y-5743358D01*
X22969095Y-5743358D01*
X22958642Y-5732905D01*
X22958641Y-5732905D01*
X22946350Y-5724692D01*
X22946349Y-5724691D01*
X22932692Y-5719034D01*
X22932691Y-5719034D01*
X22926571Y-5717817D01*
X22920380Y-5714578D01*
X22916922Y-5708506D01*
X22917296Y-5701529D01*
X22918680Y-5698766D01*
X22926508Y-5687050D01*
X22926508Y-5687050D01*
X22926508Y-5687049D01*
X22932166Y-5673391D01*
X22934093Y-5663704D01*
X22935050Y-5658892D01*
X22935050Y-5644108D01*
X22932166Y-5629609D01*
X22932166Y-5629609D01*
X22932166Y-5629609D01*
X22930724Y-5626128D01*
X22926509Y-5615951D01*
X22926221Y-5615414D01*
X22926323Y-5615359D01*
X22924421Y-5609283D01*
X22925363Y-5604316D01*
X22925792Y-5603280D01*
X22925792Y-5603279D01*
X22928676Y-5588780D01*
X22928676Y-5573996D01*
X22925792Y-5559497D01*
X22925792Y-5559497D01*
X22925792Y-5559497D01*
X22924820Y-5557151D01*
X22920135Y-5545839D01*
X22920134Y-5545838D01*
X22911921Y-5533547D01*
X22911921Y-5533546D01*
X22901468Y-5523093D01*
X22901468Y-5523093D01*
X22889176Y-5514880D01*
X22889175Y-5514879D01*
X22875518Y-5509223D01*
X22875517Y-5509222D01*
X22861018Y-5506338D01*
X22861018Y-5506338D01*
X22846234Y-5506338D01*
X22846234Y-5506338D01*
X22831735Y-5509222D01*
X22831734Y-5509223D01*
X22818077Y-5514879D01*
X22818076Y-5514880D01*
X22805785Y-5523093D01*
X22805784Y-5523093D01*
X22795331Y-5533546D01*
X22795331Y-5533547D01*
X22787118Y-5545838D01*
X22787117Y-5545839D01*
X22781460Y-5559496D01*
X22781460Y-5559497D01*
X22778576Y-5573996D01*
X22778576Y-5573996D01*
X22778576Y-5588780D01*
X22778576Y-5588780D01*
X22778576Y-5588780D01*
X22451578Y-5588780D01*
X22453358Y-5584483D01*
X22455444Y-5573996D01*
X22456046Y-5570968D01*
X22456046Y-5570968D01*
X22456050Y-5570949D01*
X22456050Y-5557150D01*
X22453358Y-5543618D01*
X22453358Y-5543618D01*
X22453358Y-5543617D01*
X22451805Y-5539868D01*
X22448078Y-5530870D01*
X22448077Y-5530868D01*
X22440411Y-5519396D01*
X22440411Y-5519395D01*
X22438834Y-5517818D01*
X22435485Y-5511686D01*
X22435984Y-5504717D01*
X22438834Y-5500282D01*
X22440411Y-5498705D01*
X22440411Y-5498704D01*
X22448077Y-5487231D01*
X22448110Y-5487152D01*
X22449274Y-5484342D01*
X22453358Y-5474483D01*
X22455524Y-5463593D01*
X22456050Y-5460950D01*
X22456050Y-5447150D01*
X22455070Y-5442226D01*
X22455070Y-5442226D01*
X22454710Y-5440415D01*
X23186350Y-5440415D01*
X23186350Y-5456185D01*
X23189426Y-5471649D01*
X23189426Y-5471650D01*
X23195460Y-5486217D01*
X23195461Y-5486219D01*
X23204221Y-5499329D01*
X23204221Y-5499329D01*
X23215371Y-5510479D01*
X23215371Y-5510479D01*
X23228481Y-5519239D01*
X23228483Y-5519240D01*
X23237786Y-5523093D01*
X23243050Y-5525274D01*
X23258515Y-5528350D01*
X23258516Y-5528350D01*
X23258516Y-5528350D01*
X23274284Y-5528350D01*
X23274284Y-5528350D01*
X23289750Y-5525274D01*
X23304318Y-5519239D01*
X23317429Y-5510479D01*
X23322382Y-5505526D01*
X23328579Y-5499329D01*
X23328579Y-5499329D01*
X23337339Y-5486218D01*
X23343374Y-5471650D01*
X23346450Y-5456184D01*
X23346450Y-5440416D01*
X23346450Y-5440416D01*
X23346450Y-5440415D01*
X23345098Y-5433618D01*
X23343374Y-5424950D01*
X23341683Y-5420870D01*
X23337340Y-5410383D01*
X23337339Y-5410381D01*
X23328579Y-5397271D01*
X23328579Y-5397271D01*
X23317429Y-5386121D01*
X23317429Y-5386121D01*
X23304318Y-5377361D01*
X23304317Y-5377360D01*
X23289750Y-5371326D01*
X23289749Y-5371326D01*
X23274284Y-5368250D01*
X23274284Y-5368250D01*
X23258516Y-5368250D01*
X23258515Y-5368250D01*
X23243051Y-5371326D01*
X23243050Y-5371326D01*
X23228483Y-5377360D01*
X23228481Y-5377361D01*
X23215371Y-5386121D01*
X23215371Y-5386121D01*
X23204221Y-5397271D01*
X23204221Y-5397271D01*
X23195461Y-5410381D01*
X23195460Y-5410383D01*
X23189426Y-5424950D01*
X23189426Y-5424951D01*
X23186350Y-5440415D01*
X22454710Y-5440415D01*
X22453358Y-5433618D01*
X22453358Y-5433618D01*
X22453358Y-5433617D01*
X22452633Y-5431866D01*
X22448078Y-5420870D01*
X22448077Y-5420868D01*
X22440411Y-5409396D01*
X22440411Y-5409395D01*
X22430654Y-5399639D01*
X22430654Y-5399639D01*
X22419182Y-5391973D01*
X22419180Y-5391972D01*
X22405870Y-5386459D01*
X22405931Y-5386312D01*
X22400735Y-5382905D01*
X22398681Y-5379143D01*
X22398591Y-5379180D01*
X22393078Y-5365870D01*
X22393077Y-5365868D01*
X22385411Y-5354396D01*
X22385411Y-5354395D01*
X22375654Y-5344639D01*
X22375654Y-5344639D01*
X22364182Y-5336973D01*
X22364180Y-5336972D01*
X22351433Y-5331692D01*
X22351432Y-5331692D01*
X22337900Y-5329000D01*
X22337899Y-5329000D01*
X22324101Y-5329000D01*
X22324101Y-5329000D01*
X22310568Y-5331692D01*
X22310567Y-5331692D01*
X22297820Y-5336972D01*
X22297818Y-5336973D01*
X22286346Y-5344639D01*
X22286345Y-5344639D01*
X22284768Y-5346216D01*
X22278636Y-5349565D01*
X22271667Y-5349066D01*
X22267232Y-5346216D01*
X22265655Y-5344639D01*
X22265654Y-5344639D01*
X22254182Y-5336973D01*
X22254180Y-5336972D01*
X22241433Y-5331692D01*
X22241432Y-5331692D01*
X22227900Y-5329000D01*
X22227899Y-5329000D01*
X22214101Y-5329000D01*
X22214101Y-5329000D01*
X22200568Y-5331692D01*
X22200567Y-5331692D01*
X22187820Y-5336972D01*
X22187818Y-5336973D01*
X22176346Y-5344639D01*
X22176345Y-5344639D01*
X22166589Y-5354395D01*
X22166589Y-5354396D01*
X22158923Y-5365868D01*
X22158922Y-5365870D01*
X22153409Y-5379180D01*
X22153262Y-5379119D01*
X22149855Y-5384316D01*
X22146093Y-5386370D01*
X22146130Y-5386459D01*
X22132820Y-5391972D01*
X22132818Y-5391973D01*
X22121346Y-5399639D01*
X22121345Y-5399639D01*
X22111589Y-5409395D01*
X22111589Y-5409396D01*
X22103923Y-5420868D01*
X22103922Y-5420870D01*
X22098642Y-5433617D01*
X22098642Y-5433618D01*
X22095950Y-5447150D01*
X22095950Y-5447151D01*
X22095950Y-5460949D01*
X22095950Y-5460950D01*
X22095950Y-5460950D01*
X20280397Y-5460950D01*
X20417830Y-5323517D01*
X21984850Y-5323517D01*
X21987734Y-5338016D01*
X21987734Y-5338017D01*
X21993391Y-5351674D01*
X21993392Y-5351675D01*
X22001605Y-5363967D01*
X22001605Y-5363967D01*
X22012058Y-5374420D01*
X22012058Y-5374420D01*
X22024350Y-5382633D01*
X22024351Y-5382634D01*
X22038008Y-5388291D01*
X22038009Y-5388291D01*
X22038009Y-5388291D01*
X22038009Y-5388291D01*
X22052508Y-5391175D01*
X22052508Y-5391175D01*
X22067292Y-5391175D01*
X22077046Y-5389235D01*
X22081791Y-5388291D01*
X22094694Y-5382947D01*
X22095449Y-5382634D01*
X22095449Y-5382634D01*
X22095450Y-5382633D01*
X22107742Y-5374420D01*
X22118195Y-5363967D01*
X22126408Y-5351675D01*
X22127489Y-5349066D01*
X22129323Y-5344639D01*
X22132066Y-5338016D01*
X22134367Y-5326450D01*
X22134950Y-5323517D01*
X22134950Y-5308733D01*
X22132066Y-5294234D01*
X22132066Y-5294234D01*
X22132066Y-5294234D01*
X22127623Y-5283508D01*
X22126409Y-5280576D01*
X22126408Y-5280575D01*
X22118195Y-5268283D01*
X22118195Y-5268283D01*
X22107742Y-5257830D01*
X22107742Y-5257830D01*
X22095450Y-5249617D01*
X22095449Y-5249616D01*
X22081792Y-5243959D01*
X22081791Y-5243959D01*
X22067292Y-5241075D01*
X22067292Y-5241075D01*
X22052508Y-5241075D01*
X22052508Y-5241075D01*
X22038009Y-5243959D01*
X22038008Y-5243959D01*
X22024351Y-5249616D01*
X22024350Y-5249617D01*
X22012058Y-5257830D01*
X22012058Y-5257830D01*
X22001605Y-5268283D01*
X22001605Y-5268283D01*
X21993392Y-5280575D01*
X21993391Y-5280576D01*
X21987734Y-5294233D01*
X21987734Y-5294234D01*
X21984850Y-5308733D01*
X21984850Y-5308733D01*
X21984850Y-5323517D01*
X21984850Y-5323517D01*
X21984850Y-5323517D01*
X20417830Y-5323517D01*
X20477373Y-5263973D01*
X20483505Y-5260625D01*
X20490475Y-5261123D01*
X20496068Y-5265311D01*
X20496727Y-5266346D01*
X20504947Y-5278648D01*
X20504947Y-5278648D01*
X20515052Y-5288753D01*
X20515052Y-5288753D01*
X20526934Y-5296693D01*
X20526935Y-5296693D01*
X20526935Y-5296693D01*
X20540138Y-5302162D01*
X20540138Y-5302162D01*
X20540139Y-5302162D01*
X20554154Y-5304950D01*
X20554155Y-5304950D01*
X20568446Y-5304950D01*
X20577875Y-5303074D01*
X20582462Y-5302162D01*
X20595665Y-5296693D01*
X20607548Y-5288753D01*
X20617653Y-5278648D01*
X20625593Y-5266765D01*
X20631062Y-5253562D01*
X20632972Y-5243959D01*
X20633850Y-5239546D01*
X20633850Y-5225254D01*
X20631062Y-5211239D01*
X20631062Y-5211238D01*
X20631062Y-5211238D01*
X20625593Y-5198035D01*
X20625593Y-5198035D01*
X20625593Y-5198034D01*
X20617653Y-5186152D01*
X20617653Y-5186152D01*
X20607548Y-5176047D01*
X20607548Y-5176047D01*
X20595159Y-5167769D01*
X20595247Y-5167637D01*
X20590812Y-5163281D01*
X20589266Y-5156468D01*
X20591649Y-5149900D01*
X20592873Y-5148474D01*
X20684065Y-5057282D01*
X20690197Y-5053933D01*
X20692833Y-5053650D01*
X21456505Y-5053650D01*
X21463209Y-5055619D01*
X21467784Y-5060899D01*
X21468779Y-5067815D01*
X21465876Y-5074170D01*
X21460398Y-5077726D01*
X21460412Y-5077760D01*
X21460225Y-5077838D01*
X21460104Y-5077916D01*
X21459849Y-5077993D01*
X21446192Y-5083650D01*
X21446191Y-5083651D01*
X21433899Y-5091864D01*
X21433899Y-5091864D01*
X21423446Y-5102317D01*
X21423446Y-5102318D01*
X21415233Y-5114609D01*
X21415232Y-5114610D01*
X21409575Y-5128267D01*
X21409575Y-5128268D01*
X21406691Y-5142767D01*
X21406691Y-5142767D01*
X21406691Y-5157551D01*
X21406691Y-5157551D01*
X21406691Y-5157551D01*
X21409575Y-5172050D01*
X21409575Y-5172051D01*
X21415232Y-5185708D01*
X21415233Y-5185709D01*
X21423446Y-5198001D01*
X21423446Y-5198001D01*
X21433899Y-5208454D01*
X21433899Y-5208454D01*
X21446191Y-5216667D01*
X21446192Y-5216668D01*
X21459849Y-5222325D01*
X21459850Y-5222325D01*
X21459850Y-5222325D01*
X21459850Y-5222325D01*
X21474349Y-5225209D01*
X21474349Y-5225209D01*
X21489133Y-5225209D01*
X21498887Y-5223269D01*
X21503632Y-5222325D01*
X21517290Y-5216668D01*
X21529583Y-5208454D01*
X21540036Y-5198001D01*
X21548249Y-5185709D01*
X21553907Y-5172050D01*
X21556217Y-5160438D01*
X21556791Y-5157551D01*
X21556791Y-5142767D01*
X21553907Y-5128268D01*
X21553907Y-5128268D01*
X21553907Y-5128268D01*
X21552800Y-5125595D01*
X21548250Y-5114610D01*
X21548249Y-5114609D01*
X21540036Y-5102318D01*
X21540036Y-5102317D01*
X21529583Y-5091864D01*
X21529582Y-5091864D01*
X21517291Y-5083651D01*
X21517290Y-5083650D01*
X21503632Y-5077993D01*
X21503377Y-5077916D01*
X21503260Y-5077839D01*
X21503070Y-5077760D01*
X21503084Y-5077724D01*
X21497534Y-5074086D01*
X21494688Y-5067705D01*
X21495744Y-5060798D01*
X21500367Y-5055559D01*
X21506977Y-5053650D01*
X22751265Y-5053650D01*
X22757969Y-5055619D01*
X22758145Y-5055734D01*
X22760950Y-5057608D01*
X22774609Y-5063266D01*
X22774609Y-5063266D01*
X22774609Y-5063266D01*
X22789108Y-5066150D01*
X22789108Y-5066150D01*
X22803892Y-5066150D01*
X22808524Y-5065229D01*
X22815484Y-5065851D01*
X22821001Y-5070137D01*
X22823105Y-5074971D01*
X22825934Y-5089191D01*
X22825934Y-5089192D01*
X22831591Y-5102849D01*
X22831592Y-5102850D01*
X22839805Y-5115142D01*
X22839805Y-5115142D01*
X22850258Y-5125595D01*
X22850258Y-5125595D01*
X22862550Y-5133808D01*
X22862551Y-5133809D01*
X22876208Y-5139466D01*
X22876209Y-5139466D01*
X22876209Y-5139466D01*
X22876209Y-5139466D01*
X22890708Y-5142350D01*
X22890708Y-5142350D01*
X22905492Y-5142350D01*
X22915246Y-5140410D01*
X22919991Y-5139466D01*
X22933649Y-5133808D01*
X22945942Y-5125595D01*
X22956395Y-5115142D01*
X22964608Y-5102850D01*
X22970266Y-5089191D01*
X22972509Y-5077916D01*
X22973150Y-5074692D01*
X22973150Y-5059908D01*
X22970266Y-5045409D01*
X22970266Y-5045409D01*
X22970266Y-5045409D01*
X22965307Y-5033438D01*
X22964609Y-5031751D01*
X22964608Y-5031750D01*
X22956395Y-5019458D01*
X22956395Y-5019458D01*
X22945942Y-5009005D01*
X22945941Y-5009005D01*
X22933650Y-5000792D01*
X22933649Y-5000791D01*
X22919992Y-4995134D01*
X22919991Y-4995134D01*
X22905492Y-4992250D01*
X22905492Y-4992250D01*
X22890708Y-4992250D01*
X22886075Y-4993172D01*
X22879116Y-4992549D01*
X22873598Y-4988262D01*
X22871494Y-4983429D01*
X22868666Y-4969209D01*
X22868666Y-4969209D01*
X22868666Y-4969209D01*
X22868666Y-4969208D01*
X22863009Y-4955551D01*
X22863008Y-4955550D01*
X22854795Y-4943258D01*
X22854795Y-4943258D01*
X22844342Y-4932805D01*
X22844341Y-4932805D01*
X22832050Y-4924592D01*
X22832049Y-4924591D01*
X22818392Y-4918934D01*
X22818391Y-4918934D01*
X22803892Y-4916050D01*
X22803892Y-4916050D01*
X22789108Y-4916050D01*
X22789108Y-4916050D01*
X22774609Y-4918934D01*
X22774608Y-4918934D01*
X22760951Y-4924591D01*
X22760951Y-4924592D01*
X22760950Y-4924592D01*
X22758154Y-4926460D01*
X22751486Y-4928548D01*
X22751265Y-4928550D01*
X22620856Y-4928550D01*
X22614152Y-4926582D01*
X22609576Y-4921301D01*
X22608582Y-4914385D01*
X22609400Y-4911405D01*
X22614666Y-4898692D01*
X22614666Y-4898691D01*
X22615610Y-4893946D01*
X22617550Y-4884192D01*
X22617550Y-4869408D01*
X22614666Y-4854909D01*
X22614666Y-4854909D01*
X22614666Y-4854909D01*
X22613311Y-4851637D01*
X22609009Y-4841251D01*
X22609008Y-4841249D01*
X22605465Y-4835947D01*
X22603377Y-4829279D01*
X22605225Y-4822541D01*
X22610423Y-4817872D01*
X22615762Y-4816658D01*
X23165645Y-4816100D01*
X23291305Y-4816100D01*
X23292391Y-4816148D01*
X23294220Y-4816309D01*
X23307599Y-4817486D01*
X23309725Y-4817861D01*
X23323947Y-4821679D01*
X23325977Y-4822419D01*
X23339321Y-4828647D01*
X23341191Y-4829727D01*
X23353064Y-4838046D01*
X23353251Y-4838177D01*
X23354905Y-4839566D01*
X23365316Y-4849982D01*
X23366703Y-4851636D01*
X23375148Y-4863701D01*
X23376228Y-4865572D01*
X23382449Y-4878918D01*
X23383187Y-4880949D01*
X23386998Y-4895173D01*
X23387373Y-4897301D01*
X23388703Y-4912510D01*
X23388750Y-4913591D01*
X23388750Y-9859557D01*
X23388718Y-9860442D01*
X23387078Y-9883383D01*
X23386826Y-9885134D01*
X23382032Y-9907175D01*
X23381534Y-9908872D01*
X23373653Y-9930007D01*
X23372918Y-9931616D01*
X23362110Y-9951414D01*
X23361154Y-9952902D01*
X23347638Y-9970961D01*
X23346480Y-9972298D01*
X23330532Y-9988250D01*
X23329195Y-9989408D01*
X23311141Y-10002928D01*
X23309653Y-10003885D01*
X23289858Y-10014699D01*
X23288249Y-10015434D01*
X23267116Y-10023321D01*
X23265419Y-10023820D01*
X23243380Y-10028619D01*
X23241629Y-10028872D01*
X23218690Y-10030518D01*
X23217802Y-10030550D01*
X23095997Y-10030550D01*
X23095985Y-10030547D01*
X23092050Y-10030550D01*
X23087337Y-10030550D01*
X23087276Y-10030554D01*
X18056720Y-10034773D01*
X18050015Y-10032810D01*
X18045435Y-10027533D01*
X18044310Y-10022479D01*
X18044296Y-10020775D01*
X18041631Y-9707615D01*
X20087550Y-9707615D01*
X20087550Y-9723385D01*
X20090626Y-9738849D01*
X20090626Y-9738850D01*
X20096660Y-9753417D01*
X20096661Y-9753419D01*
X20105421Y-9766529D01*
X20105421Y-9766529D01*
X20116571Y-9777679D01*
X20116571Y-9777679D01*
X20129681Y-9786439D01*
X20129683Y-9786440D01*
X20144250Y-9792474D01*
X20144250Y-9792474D01*
X20159715Y-9795550D01*
X20159716Y-9795550D01*
X20159716Y-9795550D01*
X20175484Y-9795550D01*
X20175485Y-9795550D01*
X20190950Y-9792474D01*
X20205518Y-9786439D01*
X20218629Y-9777679D01*
X20229779Y-9766529D01*
X20238539Y-9753418D01*
X20240765Y-9748046D01*
X22660450Y-9748046D01*
X22663238Y-9762061D01*
X22663238Y-9762062D01*
X22668707Y-9775265D01*
X22668707Y-9775266D01*
X22676647Y-9787148D01*
X22676647Y-9787148D01*
X22686752Y-9797253D01*
X22686752Y-9797253D01*
X22698634Y-9805193D01*
X22698635Y-9805193D01*
X22698635Y-9805193D01*
X22711838Y-9810662D01*
X22711838Y-9810662D01*
X22711838Y-9810662D01*
X22725854Y-9813450D01*
X22725854Y-9813450D01*
X22740146Y-9813450D01*
X22749575Y-9811574D01*
X22754162Y-9810662D01*
X22767365Y-9805193D01*
X22779248Y-9797253D01*
X22789353Y-9787148D01*
X22797293Y-9775265D01*
X22802762Y-9762062D01*
X22804481Y-9753419D01*
X22805550Y-9748046D01*
X22805550Y-9733754D01*
X22802762Y-9719739D01*
X22802762Y-9719738D01*
X22802762Y-9719738D01*
X22797293Y-9706535D01*
X22797293Y-9706535D01*
X22797292Y-9706534D01*
X22789353Y-9694652D01*
X22789353Y-9694652D01*
X22779248Y-9684547D01*
X22779248Y-9684547D01*
X22767366Y-9676607D01*
X22767365Y-9676607D01*
X22754162Y-9671138D01*
X22754161Y-9671138D01*
X22740146Y-9668350D01*
X22740145Y-9668350D01*
X22725854Y-9668350D01*
X22725854Y-9668350D01*
X22711838Y-9671138D01*
X22711838Y-9671138D01*
X22698635Y-9676607D01*
X22698634Y-9676607D01*
X22686752Y-9684547D01*
X22686752Y-9684547D01*
X22676647Y-9694652D01*
X22676647Y-9694652D01*
X22668707Y-9706534D01*
X22668707Y-9706535D01*
X22663238Y-9719738D01*
X22663238Y-9719739D01*
X22660450Y-9733754D01*
X22660450Y-9733755D01*
X22660450Y-9748046D01*
X22660450Y-9748046D01*
X22660450Y-9748046D01*
X20240765Y-9748046D01*
X20244574Y-9738850D01*
X20246463Y-9729350D01*
X20247650Y-9723384D01*
X20247650Y-9707616D01*
X20247650Y-9707615D01*
X20247435Y-9706534D01*
X20244574Y-9692150D01*
X20244574Y-9692150D01*
X20238540Y-9677583D01*
X20238539Y-9677581D01*
X20229779Y-9664471D01*
X20229779Y-9664471D01*
X20218629Y-9653321D01*
X20218629Y-9653321D01*
X20205519Y-9644561D01*
X20205517Y-9644560D01*
X20190950Y-9638526D01*
X20190949Y-9638526D01*
X20175485Y-9635450D01*
X20175484Y-9635450D01*
X20159716Y-9635450D01*
X20159716Y-9635450D01*
X20144251Y-9638526D01*
X20144250Y-9638526D01*
X20129683Y-9644560D01*
X20129681Y-9644561D01*
X20116571Y-9653321D01*
X20116571Y-9653321D01*
X20105421Y-9664471D01*
X20105421Y-9664471D01*
X20096661Y-9677581D01*
X20096660Y-9677583D01*
X20090626Y-9692150D01*
X20090626Y-9692151D01*
X20087550Y-9707615D01*
X18041631Y-9707615D01*
X18037956Y-9275815D01*
X19249350Y-9275815D01*
X19249350Y-9291585D01*
X19252426Y-9307049D01*
X19252426Y-9307050D01*
X19258460Y-9321617D01*
X19258461Y-9321619D01*
X19267221Y-9334729D01*
X19267221Y-9334729D01*
X19278371Y-9345879D01*
X19278371Y-9345879D01*
X19291481Y-9354639D01*
X19291483Y-9354640D01*
X19302030Y-9359009D01*
X19306050Y-9360674D01*
X19321515Y-9363750D01*
X19321516Y-9363750D01*
X19321516Y-9363750D01*
X19337284Y-9363750D01*
X19337285Y-9363750D01*
X19352750Y-9360674D01*
X19367318Y-9354639D01*
X19380429Y-9345879D01*
X19391579Y-9334729D01*
X19400339Y-9321618D01*
X19406374Y-9307050D01*
X19409450Y-9291584D01*
X19409450Y-9275816D01*
X19409450Y-9275816D01*
X19409450Y-9275815D01*
X19408607Y-9271579D01*
X19406374Y-9260350D01*
X19403978Y-9254565D01*
X19400340Y-9245783D01*
X19400339Y-9245781D01*
X19391579Y-9232671D01*
X19391579Y-9232671D01*
X19380429Y-9221521D01*
X19380429Y-9221521D01*
X19367319Y-9212761D01*
X19367317Y-9212760D01*
X19352750Y-9206726D01*
X19352749Y-9206726D01*
X19337285Y-9203650D01*
X19337284Y-9203650D01*
X19321516Y-9203650D01*
X19321516Y-9203650D01*
X19306051Y-9206726D01*
X19306050Y-9206726D01*
X19291483Y-9212760D01*
X19291481Y-9212761D01*
X19278371Y-9221521D01*
X19278371Y-9221521D01*
X19267221Y-9232671D01*
X19267221Y-9232671D01*
X19258461Y-9245781D01*
X19258460Y-9245783D01*
X19252426Y-9260350D01*
X19252426Y-9260351D01*
X19249350Y-9275815D01*
X18037956Y-9275815D01*
X18035757Y-9017392D01*
X18936350Y-9017392D01*
X18939234Y-9031891D01*
X18939234Y-9031892D01*
X18944891Y-9045549D01*
X18944892Y-9045550D01*
X18953105Y-9057842D01*
X18953105Y-9057842D01*
X18963558Y-9068295D01*
X18963558Y-9068295D01*
X18975850Y-9076508D01*
X18975851Y-9076509D01*
X18989508Y-9082166D01*
X18989509Y-9082166D01*
X18989509Y-9082166D01*
X18989509Y-9082166D01*
X19004008Y-9085050D01*
X19004008Y-9085050D01*
X19018792Y-9085050D01*
X19030197Y-9082781D01*
X19033291Y-9082166D01*
X19046950Y-9076508D01*
X19059242Y-9068295D01*
X19069695Y-9057842D01*
X19077908Y-9045550D01*
X19083566Y-9031891D01*
X19086450Y-9017392D01*
X19086450Y-9002608D01*
X19086450Y-9002608D01*
X19083566Y-8988109D01*
X19083566Y-8988109D01*
X19083566Y-8988109D01*
X19079002Y-8977091D01*
X19077909Y-8974451D01*
X19077908Y-8974450D01*
X19069695Y-8962158D01*
X19069695Y-8962158D01*
X19059242Y-8951705D01*
X19059242Y-8951705D01*
X19046950Y-8943492D01*
X19046949Y-8943491D01*
X19033292Y-8937834D01*
X19033291Y-8937834D01*
X19018792Y-8934950D01*
X19018792Y-8934950D01*
X19004008Y-8934950D01*
X19004008Y-8934950D01*
X18989509Y-8937834D01*
X18989508Y-8937834D01*
X18975851Y-8943491D01*
X18975850Y-8943492D01*
X18963558Y-8951705D01*
X18963558Y-8951705D01*
X18953105Y-8962158D01*
X18953105Y-8962158D01*
X18944892Y-8974450D01*
X18944891Y-8974451D01*
X18939234Y-8988108D01*
X18939234Y-8988109D01*
X18936350Y-9002608D01*
X18936350Y-9002608D01*
X18936350Y-9017392D01*
X18936350Y-9017392D01*
X18936350Y-9017392D01*
X18035757Y-9017392D01*
X18033595Y-8763392D01*
X18941350Y-8763392D01*
X18944234Y-8777891D01*
X18944234Y-8777892D01*
X18949891Y-8791549D01*
X18949892Y-8791550D01*
X18958105Y-8803842D01*
X18958105Y-8803842D01*
X18968558Y-8814295D01*
X18968558Y-8814295D01*
X18980850Y-8822508D01*
X18980851Y-8822509D01*
X18994508Y-8828166D01*
X18994509Y-8828166D01*
X18994509Y-8828166D01*
X18994509Y-8828166D01*
X19009008Y-8831050D01*
X19009008Y-8831050D01*
X19023792Y-8831050D01*
X19033546Y-8829110D01*
X19038291Y-8828166D01*
X19051950Y-8822508D01*
X19064242Y-8814295D01*
X19074695Y-8803842D01*
X19081331Y-8793911D01*
X19086692Y-8789430D01*
X19093625Y-8788559D01*
X19099927Y-8791575D01*
X19103097Y-8796055D01*
X19106491Y-8804249D01*
X19106492Y-8804250D01*
X19114705Y-8816542D01*
X19114705Y-8816542D01*
X19125158Y-8826995D01*
X19125158Y-8826995D01*
X19137450Y-8835208D01*
X19137451Y-8835209D01*
X19151108Y-8840866D01*
X19151109Y-8840866D01*
X19151109Y-8840866D01*
X19151109Y-8840866D01*
X19165608Y-8843750D01*
X19165608Y-8843750D01*
X19180392Y-8843750D01*
X19190146Y-8841810D01*
X19194891Y-8840866D01*
X19208550Y-8835208D01*
X19220842Y-8826995D01*
X19231295Y-8816542D01*
X19239508Y-8804250D01*
X19239509Y-8804249D01*
X19239714Y-8803865D01*
X19244610Y-8798881D01*
X19251423Y-8797334D01*
X19257992Y-8799717D01*
X19262229Y-8805272D01*
X19263050Y-8809710D01*
X19263050Y-8814192D01*
X19263050Y-8814192D01*
X19263050Y-8814192D01*
X19265934Y-8828691D01*
X19265934Y-8828692D01*
X19271591Y-8842349D01*
X19271592Y-8842350D01*
X19279805Y-8854642D01*
X19279805Y-8854642D01*
X19290258Y-8865095D01*
X19290258Y-8865095D01*
X19302550Y-8873308D01*
X19302551Y-8873309D01*
X19314042Y-8878068D01*
X19316209Y-8878966D01*
X19316209Y-8878966D01*
X19316209Y-8878966D01*
X19330708Y-8881850D01*
X19330708Y-8881850D01*
X19345492Y-8881850D01*
X19355246Y-8879910D01*
X19359991Y-8878966D01*
X19373650Y-8873308D01*
X19385942Y-8865095D01*
X19396395Y-8854642D01*
X19404608Y-8842350D01*
X19410266Y-8828691D01*
X19411976Y-8820093D01*
X19413150Y-8814192D01*
X19413150Y-8799408D01*
X19410266Y-8784909D01*
X19410266Y-8784909D01*
X19410266Y-8784909D01*
X19407698Y-8778708D01*
X19404609Y-8771251D01*
X19404608Y-8771250D01*
X19396395Y-8758958D01*
X19396395Y-8758958D01*
X19385942Y-8748505D01*
X19385942Y-8748505D01*
X19373650Y-8740292D01*
X19373649Y-8740291D01*
X19359992Y-8734634D01*
X19359991Y-8734634D01*
X19345492Y-8731750D01*
X19345492Y-8731750D01*
X19330708Y-8731750D01*
X19330708Y-8731750D01*
X19316209Y-8734634D01*
X19316208Y-8734634D01*
X19302551Y-8740291D01*
X19302550Y-8740292D01*
X19290258Y-8748505D01*
X19290258Y-8748505D01*
X19279805Y-8758958D01*
X19279805Y-8758958D01*
X19271592Y-8771250D01*
X19271386Y-8771635D01*
X19266490Y-8776620D01*
X19259676Y-8778166D01*
X19253108Y-8775783D01*
X19248871Y-8770227D01*
X19248050Y-8765790D01*
X19248050Y-8761308D01*
X19245166Y-8746809D01*
X19245166Y-8746809D01*
X19245166Y-8746809D01*
X19245166Y-8746808D01*
X19239509Y-8733151D01*
X19239508Y-8733150D01*
X19231295Y-8720858D01*
X19231295Y-8720858D01*
X19220842Y-8710405D01*
X19220842Y-8710405D01*
X19208550Y-8702192D01*
X19208549Y-8702191D01*
X19194892Y-8696534D01*
X19194891Y-8696534D01*
X19180392Y-8693650D01*
X19180392Y-8693650D01*
X19165608Y-8693650D01*
X19165608Y-8693650D01*
X19151109Y-8696534D01*
X19151108Y-8696534D01*
X19137451Y-8702191D01*
X19137450Y-8702192D01*
X19125158Y-8710405D01*
X19125158Y-8710405D01*
X19114705Y-8720858D01*
X19108069Y-8730789D01*
X19102708Y-8735270D01*
X19095775Y-8736141D01*
X19089473Y-8733125D01*
X19086303Y-8728646D01*
X19082908Y-8720451D01*
X19082908Y-8720450D01*
X19082908Y-8720450D01*
X19074695Y-8708158D01*
X19074695Y-8708158D01*
X19064242Y-8697705D01*
X19064242Y-8697705D01*
X19051950Y-8689492D01*
X19051949Y-8689491D01*
X19038292Y-8683834D01*
X19038291Y-8683834D01*
X19023792Y-8680950D01*
X19023792Y-8680950D01*
X19009008Y-8680950D01*
X19009008Y-8680950D01*
X18994509Y-8683834D01*
X18994508Y-8683834D01*
X18980851Y-8689491D01*
X18980850Y-8689492D01*
X18968558Y-8697705D01*
X18968558Y-8697705D01*
X18958105Y-8708158D01*
X18958105Y-8708158D01*
X18949892Y-8720450D01*
X18949891Y-8720451D01*
X18944234Y-8734108D01*
X18944234Y-8734109D01*
X18941350Y-8748608D01*
X18941350Y-8748608D01*
X18941350Y-8763392D01*
X18941350Y-8763392D01*
X18941350Y-8763392D01*
X18033595Y-8763392D01*
X18031433Y-8509392D01*
X18983650Y-8509392D01*
X18986534Y-8523891D01*
X18986534Y-8523892D01*
X18992191Y-8537549D01*
X18992192Y-8537550D01*
X19000405Y-8549842D01*
X19000405Y-8549842D01*
X19010858Y-8560295D01*
X19010858Y-8560295D01*
X19023150Y-8568508D01*
X19023151Y-8568509D01*
X19036808Y-8574166D01*
X19036809Y-8574166D01*
X19036809Y-8574166D01*
X19036809Y-8574166D01*
X19051308Y-8577050D01*
X19051308Y-8577050D01*
X19066092Y-8577050D01*
X19075846Y-8575110D01*
X19080591Y-8574166D01*
X19094250Y-8568508D01*
X19106542Y-8560295D01*
X19116995Y-8549842D01*
X19125208Y-8537550D01*
X19130866Y-8523891D01*
X19131810Y-8519146D01*
X19133750Y-8509392D01*
X19133750Y-8494608D01*
X19130866Y-8480109D01*
X19130866Y-8480109D01*
X19130866Y-8480109D01*
X19127214Y-8471292D01*
X19771050Y-8471292D01*
X19773934Y-8485791D01*
X19773934Y-8485792D01*
X19779591Y-8499449D01*
X19779592Y-8499450D01*
X19787805Y-8511742D01*
X19787805Y-8511742D01*
X19798258Y-8522195D01*
X19798258Y-8522195D01*
X19810550Y-8530408D01*
X19810551Y-8530409D01*
X19824208Y-8536066D01*
X19824209Y-8536066D01*
X19824209Y-8536066D01*
X19824209Y-8536066D01*
X19838708Y-8538950D01*
X19838708Y-8538950D01*
X19853492Y-8538950D01*
X19863246Y-8537010D01*
X19867991Y-8536066D01*
X19881650Y-8530408D01*
X19893942Y-8522195D01*
X19904395Y-8511742D01*
X19912608Y-8499450D01*
X19918266Y-8485791D01*
X19921150Y-8471292D01*
X19921150Y-8456508D01*
X19921150Y-8456508D01*
X19918266Y-8442009D01*
X19918266Y-8442009D01*
X19918266Y-8442009D01*
X19915567Y-8435492D01*
X19912609Y-8428351D01*
X19912608Y-8428350D01*
X19904395Y-8416058D01*
X19904395Y-8416058D01*
X19893942Y-8405605D01*
X19893942Y-8405605D01*
X19881650Y-8397392D01*
X19881649Y-8397391D01*
X19867992Y-8391734D01*
X19867991Y-8391734D01*
X19853492Y-8388850D01*
X19853492Y-8388850D01*
X19838708Y-8388850D01*
X19838708Y-8388850D01*
X19824209Y-8391734D01*
X19824208Y-8391734D01*
X19810551Y-8397391D01*
X19810550Y-8397392D01*
X19798258Y-8405605D01*
X19798258Y-8405605D01*
X19787805Y-8416058D01*
X19787805Y-8416058D01*
X19779592Y-8428350D01*
X19779591Y-8428351D01*
X19773934Y-8442008D01*
X19773934Y-8442009D01*
X19771050Y-8456508D01*
X19771050Y-8456508D01*
X19771050Y-8471292D01*
X19771050Y-8471292D01*
X19771050Y-8471292D01*
X19127214Y-8471292D01*
X19125209Y-8466451D01*
X19125208Y-8466450D01*
X19122761Y-8462788D01*
X19116995Y-8454158D01*
X19106542Y-8443705D01*
X19106542Y-8443705D01*
X19094250Y-8435492D01*
X19094249Y-8435491D01*
X19080592Y-8429834D01*
X19080591Y-8429834D01*
X19066092Y-8426950D01*
X19066092Y-8426950D01*
X19051308Y-8426950D01*
X19051308Y-8426950D01*
X19036809Y-8429834D01*
X19036808Y-8429834D01*
X19023151Y-8435491D01*
X19023150Y-8435492D01*
X19010858Y-8443705D01*
X19010858Y-8443705D01*
X19000405Y-8454158D01*
X19000405Y-8454158D01*
X18992192Y-8466450D01*
X18992191Y-8466451D01*
X18986534Y-8480108D01*
X18986534Y-8480109D01*
X18983650Y-8494608D01*
X18983650Y-8494608D01*
X18983650Y-8509392D01*
X18983650Y-8509392D01*
X18983650Y-8509392D01*
X18031433Y-8509392D01*
X18025711Y-7837070D01*
X18025711Y-7837070D01*
X18025711Y-7837070D01*
X17667298Y-7839938D01*
X17660578Y-7838024D01*
X17655961Y-7832780D01*
X17654911Y-7825872D01*
X17657763Y-7819494D01*
X17658431Y-7818770D01*
X17658553Y-7818648D01*
X17666493Y-7806765D01*
X17671962Y-7793562D01*
X17672874Y-7788975D01*
X17674750Y-7779546D01*
X17674750Y-7765254D01*
X17673446Y-7758697D01*
X17673061Y-7756765D01*
X19671950Y-7756765D01*
X19671950Y-7777235D01*
X19675152Y-7797453D01*
X19681478Y-7816922D01*
X19686283Y-7826353D01*
X19690498Y-7834625D01*
X19690772Y-7835161D01*
X19702803Y-7851721D01*
X19717279Y-7866197D01*
X19732775Y-7877456D01*
X19733839Y-7878229D01*
X19745461Y-7884150D01*
X19752078Y-7887522D01*
X19752078Y-7887522D01*
X19752078Y-7887522D01*
X19758896Y-7889737D01*
X19771547Y-7893848D01*
X19781656Y-7895449D01*
X19791765Y-7897050D01*
X19791765Y-7897050D01*
X19812235Y-7897050D01*
X19812235Y-7897050D01*
X19832453Y-7893848D01*
X19851922Y-7887522D01*
X19870161Y-7878229D01*
X19883440Y-7868581D01*
X19886721Y-7866197D01*
X19886722Y-7866197D01*
X19886722Y-7866197D01*
X19901197Y-7851722D01*
X19901197Y-7851721D01*
X19901197Y-7851721D01*
X19906680Y-7844174D01*
X19913229Y-7835161D01*
X19922522Y-7816922D01*
X19928848Y-7797453D01*
X19932050Y-7777235D01*
X19932050Y-7756765D01*
X19930722Y-7748378D01*
X19928848Y-7736546D01*
X19924690Y-7723752D01*
X19922522Y-7717078D01*
X19922522Y-7717078D01*
X19922522Y-7717078D01*
X19916728Y-7705707D01*
X19913229Y-7698839D01*
X19911677Y-7696703D01*
X19901197Y-7682279D01*
X19896049Y-7677131D01*
X20434450Y-7677131D01*
X20437622Y-7693078D01*
X20437623Y-7693079D01*
X20443845Y-7708102D01*
X20443845Y-7708102D01*
X20452879Y-7721622D01*
X20452879Y-7721623D01*
X20464377Y-7733120D01*
X20464378Y-7733121D01*
X20477898Y-7742155D01*
X20477898Y-7742155D01*
X20492921Y-7748377D01*
X20492921Y-7748378D01*
X20492922Y-7748378D01*
X20492922Y-7748378D01*
X20508869Y-7751550D01*
X20508870Y-7751550D01*
X20525131Y-7751550D01*
X20538762Y-7748838D01*
X20541079Y-7748378D01*
X20556102Y-7742155D01*
X20556102Y-7742155D01*
X20564495Y-7736547D01*
X20569623Y-7733121D01*
X20581121Y-7721622D01*
X20586580Y-7713452D01*
X20590155Y-7708102D01*
X20590155Y-7708102D01*
X20593992Y-7698839D01*
X20596378Y-7693079D01*
X20597754Y-7686160D01*
X20599550Y-7677131D01*
X20599550Y-7660870D01*
X20599550Y-7660869D01*
X20599484Y-7660535D01*
X22509450Y-7660535D01*
X22509450Y-7677465D01*
X22512098Y-7694185D01*
X22517330Y-7710285D01*
X22522193Y-7719830D01*
X22524997Y-7725334D01*
X22525015Y-7725369D01*
X22534965Y-7739063D01*
X22534965Y-7739064D01*
X22546936Y-7751035D01*
X22546936Y-7751035D01*
X22558882Y-7759714D01*
X22560631Y-7760985D01*
X22570242Y-7765882D01*
X22575715Y-7768670D01*
X22575715Y-7768670D01*
X22575715Y-7768670D01*
X22584345Y-7771474D01*
X22591815Y-7773902D01*
X22608535Y-7776550D01*
X22608536Y-7776550D01*
X22625465Y-7776550D01*
X22642185Y-7773902D01*
X22658285Y-7768670D01*
X22673368Y-7760985D01*
X22687064Y-7751035D01*
X22699035Y-7739064D01*
X22708985Y-7725368D01*
X22716670Y-7710285D01*
X22721902Y-7694185D01*
X22722477Y-7690550D01*
X22724550Y-7677465D01*
X22724550Y-7660535D01*
X22721902Y-7643815D01*
X22719474Y-7636345D01*
X22716670Y-7627715D01*
X22716670Y-7627715D01*
X22716670Y-7627715D01*
X22713882Y-7622242D01*
X22708985Y-7612631D01*
X22703353Y-7604879D01*
X22699035Y-7598936D01*
X22699035Y-7598936D01*
X22687064Y-7586965D01*
X22687063Y-7586965D01*
X22673369Y-7577015D01*
X22673369Y-7577015D01*
X22673368Y-7577015D01*
X22666965Y-7573752D01*
X22658285Y-7569330D01*
X22642185Y-7564098D01*
X22625465Y-7561450D01*
X22625464Y-7561450D01*
X22608536Y-7561450D01*
X22608535Y-7561450D01*
X22591815Y-7564098D01*
X22575715Y-7569330D01*
X22560631Y-7577015D01*
X22546936Y-7586965D01*
X22546936Y-7586965D01*
X22534965Y-7598936D01*
X22534965Y-7598936D01*
X22525015Y-7612631D01*
X22517330Y-7627715D01*
X22512098Y-7643815D01*
X22509450Y-7660535D01*
X20599484Y-7660535D01*
X20598256Y-7654365D01*
X20596378Y-7644922D01*
X20596378Y-7644921D01*
X20596378Y-7644921D01*
X20595920Y-7643815D01*
X20590155Y-7629898D01*
X20590155Y-7629898D01*
X20581121Y-7616378D01*
X20581121Y-7616377D01*
X20569623Y-7604879D01*
X20569622Y-7604879D01*
X20556102Y-7595845D01*
X20556102Y-7595845D01*
X20541079Y-7589622D01*
X20541078Y-7589622D01*
X20525131Y-7586450D01*
X20525131Y-7586450D01*
X20508870Y-7586450D01*
X20508869Y-7586450D01*
X20492922Y-7589622D01*
X20492921Y-7589622D01*
X20477898Y-7595845D01*
X20477898Y-7595845D01*
X20464378Y-7604879D01*
X20464377Y-7604879D01*
X20452879Y-7616377D01*
X20452879Y-7616378D01*
X20443845Y-7629898D01*
X20443845Y-7629898D01*
X20437623Y-7644921D01*
X20437622Y-7644922D01*
X20434450Y-7660869D01*
X20434450Y-7660869D01*
X20434450Y-7677130D01*
X20434450Y-7677131D01*
X20434450Y-7677131D01*
X19896049Y-7677131D01*
X19886721Y-7667803D01*
X19870161Y-7655771D01*
X19870161Y-7655771D01*
X19870161Y-7655771D01*
X19864465Y-7652869D01*
X19851922Y-7646478D01*
X19832453Y-7640152D01*
X19815000Y-7637388D01*
X19812235Y-7636950D01*
X19791765Y-7636950D01*
X19789333Y-7637335D01*
X19771547Y-7640152D01*
X19752078Y-7646478D01*
X19733839Y-7655771D01*
X19717279Y-7667803D01*
X19702803Y-7682279D01*
X19690772Y-7698839D01*
X19681478Y-7717078D01*
X19675152Y-7736546D01*
X19671950Y-7756765D01*
X17673061Y-7756765D01*
X17671962Y-7751238D01*
X17671962Y-7751238D01*
X17671962Y-7751238D01*
X17666493Y-7738035D01*
X17666493Y-7738035D01*
X17666493Y-7738034D01*
X17658553Y-7726152D01*
X17658553Y-7726152D01*
X17648448Y-7716047D01*
X17648448Y-7716047D01*
X17636566Y-7708107D01*
X17636565Y-7708107D01*
X17623362Y-7702638D01*
X17623361Y-7702638D01*
X17609346Y-7699850D01*
X17609346Y-7699850D01*
X17595055Y-7699850D01*
X17595054Y-7699850D01*
X17581039Y-7702638D01*
X17581038Y-7702638D01*
X17567835Y-7708107D01*
X17567834Y-7708107D01*
X17555952Y-7716047D01*
X17555952Y-7716047D01*
X17545847Y-7726152D01*
X17545847Y-7726152D01*
X17537907Y-7738034D01*
X17537907Y-7738035D01*
X17532438Y-7751238D01*
X17532438Y-7751238D01*
X17529650Y-7765254D01*
X17529650Y-7765254D01*
X17529650Y-7779545D01*
X17529650Y-7779546D01*
X17529650Y-7779546D01*
X17532438Y-7793561D01*
X17532438Y-7793562D01*
X17537907Y-7806765D01*
X17537907Y-7806766D01*
X17545847Y-7818648D01*
X17545847Y-7818648D01*
X17547002Y-7819803D01*
X17550350Y-7825935D01*
X17549852Y-7832904D01*
X17545665Y-7838498D01*
X17539118Y-7840939D01*
X17538333Y-7840970D01*
X17138038Y-7844174D01*
X17131319Y-7842259D01*
X17126701Y-7837016D01*
X17125651Y-7830108D01*
X17128503Y-7823729D01*
X17131049Y-7821464D01*
X17139148Y-7816053D01*
X17149253Y-7805948D01*
X17157193Y-7794065D01*
X17162662Y-7780862D01*
X17165087Y-7768670D01*
X17165450Y-7766846D01*
X17165450Y-7752554D01*
X17162662Y-7738538D01*
X17162662Y-7738538D01*
X17162662Y-7738538D01*
X17157193Y-7725335D01*
X17157193Y-7725335D01*
X17157193Y-7725334D01*
X17149253Y-7713452D01*
X17149253Y-7713452D01*
X17139148Y-7703347D01*
X17139148Y-7703347D01*
X17127266Y-7695407D01*
X17127265Y-7695407D01*
X17114062Y-7689938D01*
X17114061Y-7689938D01*
X17100046Y-7687150D01*
X17100046Y-7687150D01*
X17085755Y-7687150D01*
X17085754Y-7687150D01*
X17071739Y-7689938D01*
X17071738Y-7689938D01*
X17058535Y-7695407D01*
X17058534Y-7695407D01*
X17046652Y-7703347D01*
X17046652Y-7703347D01*
X17036547Y-7713452D01*
X17036547Y-7713452D01*
X17028607Y-7725334D01*
X17028607Y-7725335D01*
X17023138Y-7738538D01*
X17023138Y-7738538D01*
X17020350Y-7752554D01*
X17020350Y-7752554D01*
X17020350Y-7766845D01*
X17020350Y-7766846D01*
X17020350Y-7766846D01*
X17023138Y-7780861D01*
X17023138Y-7780862D01*
X17028607Y-7794065D01*
X17028607Y-7794066D01*
X17036547Y-7805948D01*
X17036547Y-7805948D01*
X17046652Y-7816053D01*
X17046652Y-7816053D01*
X17055816Y-7822177D01*
X17060297Y-7827538D01*
X17061168Y-7834470D01*
X17058152Y-7840773D01*
X17052208Y-7844445D01*
X17049026Y-7844886D01*
X15440058Y-7857763D01*
X15433338Y-7855848D01*
X15428721Y-7850604D01*
X15427671Y-7843697D01*
X15430523Y-7837318D01*
X15433859Y-7834632D01*
X15433859Y-7834631D01*
X15433869Y-7834625D01*
X15434114Y-7834427D01*
X15434365Y-7834293D01*
X15434365Y-7834293D01*
X15446248Y-7826353D01*
X15456353Y-7816248D01*
X15464293Y-7804365D01*
X15469762Y-7791162D01*
X15470674Y-7786575D01*
X15472550Y-7777146D01*
X15472550Y-7762854D01*
X15469762Y-7748838D01*
X15469762Y-7748838D01*
X15469762Y-7748838D01*
X15464293Y-7735635D01*
X15464293Y-7735635D01*
X15464292Y-7735634D01*
X15456353Y-7723752D01*
X15456353Y-7723752D01*
X15446248Y-7713647D01*
X15446248Y-7713647D01*
X15434366Y-7705707D01*
X15434365Y-7705707D01*
X15433760Y-7705456D01*
X15428319Y-7701072D01*
X15426112Y-7694443D01*
X15427840Y-7687673D01*
X15432954Y-7682912D01*
X15433760Y-7682544D01*
X15433841Y-7682510D01*
X15434365Y-7682293D01*
X15434387Y-7682278D01*
X15441591Y-7677465D01*
X15446248Y-7674353D01*
X15456353Y-7664248D01*
X15464293Y-7652365D01*
X15469762Y-7639162D01*
X15471605Y-7629898D01*
X15472550Y-7625146D01*
X15472550Y-7610854D01*
X15469762Y-7596838D01*
X15469762Y-7596838D01*
X15469762Y-7596838D01*
X15464293Y-7583635D01*
X15464293Y-7583635D01*
X15464292Y-7583634D01*
X15456353Y-7571752D01*
X15456353Y-7571752D01*
X15446248Y-7561647D01*
X15446248Y-7561647D01*
X15434366Y-7553707D01*
X15434365Y-7553707D01*
X15421162Y-7548238D01*
X15421161Y-7548238D01*
X15407146Y-7545450D01*
X15407145Y-7545450D01*
X15392854Y-7545450D01*
X15392854Y-7545450D01*
X15378838Y-7548238D01*
X15378838Y-7548238D01*
X15365635Y-7553707D01*
X15365634Y-7553707D01*
X15353752Y-7561647D01*
X15353752Y-7561647D01*
X15348268Y-7567131D01*
X15347473Y-7567564D01*
X15346931Y-7568289D01*
X15344455Y-7569213D01*
X15342136Y-7570479D01*
X15341233Y-7570415D01*
X15340385Y-7570731D01*
X15337802Y-7570169D01*
X15335167Y-7569981D01*
X15334261Y-7569399D01*
X15333557Y-7569246D01*
X15330732Y-7567131D01*
X15327869Y-7564268D01*
X15324521Y-7558136D01*
X15325019Y-7551166D01*
X15327869Y-7546732D01*
X15332353Y-7542248D01*
X15340293Y-7530365D01*
X15345762Y-7517162D01*
X15348550Y-7503145D01*
X15348550Y-7488854D01*
X15348550Y-7488854D01*
X15345762Y-7474838D01*
X15345762Y-7474838D01*
X15345762Y-7474838D01*
X15341252Y-7463950D01*
X15340293Y-7461635D01*
X15340292Y-7461634D01*
X15332353Y-7449752D01*
X15332353Y-7449752D01*
X15322248Y-7439647D01*
X15322248Y-7439647D01*
X15310366Y-7431707D01*
X15310365Y-7431707D01*
X15297162Y-7426238D01*
X15297161Y-7426238D01*
X15282548Y-7423331D01*
X15282583Y-7423154D01*
X15276893Y-7420855D01*
X15272858Y-7415151D01*
X15272427Y-7408713D01*
X15274450Y-7398545D01*
X15274450Y-7386092D01*
X16739750Y-7386092D01*
X16742634Y-7400591D01*
X16742634Y-7400592D01*
X16746740Y-7410505D01*
X16747487Y-7417452D01*
X16746740Y-7419995D01*
X16742634Y-7429908D01*
X16742634Y-7429909D01*
X16739750Y-7444408D01*
X16739750Y-7444408D01*
X16739750Y-7459192D01*
X16739750Y-7459192D01*
X16739750Y-7459192D01*
X16742634Y-7473691D01*
X16742634Y-7473692D01*
X16748291Y-7487349D01*
X16748292Y-7487350D01*
X16756505Y-7499641D01*
X16756505Y-7499642D01*
X16766958Y-7510095D01*
X16766958Y-7510095D01*
X16779250Y-7518308D01*
X16779251Y-7518309D01*
X16792908Y-7523966D01*
X16792909Y-7523966D01*
X16792909Y-7523966D01*
X16792909Y-7523966D01*
X16807408Y-7526850D01*
X16807408Y-7526850D01*
X16822192Y-7526850D01*
X16831946Y-7524910D01*
X16836691Y-7523966D01*
X16850350Y-7518308D01*
X16862642Y-7510095D01*
X16873095Y-7499642D01*
X16881308Y-7487349D01*
X16886966Y-7473691D01*
X16888904Y-7463950D01*
X16889850Y-7459192D01*
X16889850Y-7444408D01*
X16886966Y-7429909D01*
X16886966Y-7429909D01*
X16886966Y-7429909D01*
X16882859Y-7419995D01*
X16882113Y-7413048D01*
X16882860Y-7410505D01*
X16886966Y-7400591D01*
X16888845Y-7391146D01*
X16889850Y-7386092D01*
X16889850Y-7371308D01*
X16888445Y-7364245D01*
X16889068Y-7357286D01*
X16893354Y-7351768D01*
X16898188Y-7349664D01*
X16899399Y-7349423D01*
X16900191Y-7349266D01*
X16913850Y-7343608D01*
X16926142Y-7335395D01*
X16936595Y-7324942D01*
X16944808Y-7312649D01*
X16944998Y-7312192D01*
X16947341Y-7306534D01*
X16950466Y-7298991D01*
X16953020Y-7286150D01*
X16953350Y-7284492D01*
X16953350Y-7269708D01*
X16950466Y-7255209D01*
X16950466Y-7255209D01*
X16950466Y-7255209D01*
X16949341Y-7252492D01*
X16944809Y-7241551D01*
X16944808Y-7241550D01*
X16936595Y-7229258D01*
X16936595Y-7229258D01*
X16926142Y-7218805D01*
X16926142Y-7218805D01*
X16913850Y-7210592D01*
X16913849Y-7210591D01*
X16900192Y-7204934D01*
X16900191Y-7204934D01*
X16885692Y-7202050D01*
X16885692Y-7202050D01*
X16870908Y-7202050D01*
X16870908Y-7202050D01*
X16856409Y-7204934D01*
X16856408Y-7204934D01*
X16842751Y-7210591D01*
X16842750Y-7210592D01*
X16830458Y-7218805D01*
X16830458Y-7218805D01*
X16820005Y-7229258D01*
X16820005Y-7229258D01*
X16811792Y-7241550D01*
X16811791Y-7241551D01*
X16806134Y-7255208D01*
X16806134Y-7255209D01*
X16803250Y-7269708D01*
X16803250Y-7284492D01*
X16804655Y-7291555D01*
X16804032Y-7298514D01*
X16799746Y-7304032D01*
X16794913Y-7306135D01*
X16792910Y-7306534D01*
X16792908Y-7306534D01*
X16779251Y-7312191D01*
X16779250Y-7312192D01*
X16766958Y-7320405D01*
X16766958Y-7320405D01*
X16756505Y-7330858D01*
X16756505Y-7330858D01*
X16748292Y-7343150D01*
X16748291Y-7343151D01*
X16742634Y-7356808D01*
X16742634Y-7356809D01*
X16739750Y-7371308D01*
X16739750Y-7371308D01*
X16739750Y-7386092D01*
X16739750Y-7386092D01*
X16739750Y-7386092D01*
X15274450Y-7386092D01*
X15274450Y-7384254D01*
X15274450Y-7384254D01*
X15274450Y-7384254D01*
X15272235Y-7373118D01*
X15271662Y-7370238D01*
X15271662Y-7370238D01*
X15271662Y-7370238D01*
X15266193Y-7357035D01*
X15266193Y-7357035D01*
X15266192Y-7357034D01*
X15258253Y-7345152D01*
X15258253Y-7345152D01*
X15248148Y-7335047D01*
X15248148Y-7335047D01*
X15236266Y-7327107D01*
X15236265Y-7327107D01*
X15223062Y-7321638D01*
X15223061Y-7321638D01*
X15209046Y-7318850D01*
X15209045Y-7318850D01*
X15194754Y-7318850D01*
X15194754Y-7318850D01*
X15180738Y-7321638D01*
X15180738Y-7321638D01*
X15167535Y-7327107D01*
X15167534Y-7327107D01*
X15155652Y-7335047D01*
X15155652Y-7335047D01*
X15145547Y-7345152D01*
X15145547Y-7345152D01*
X15137607Y-7357034D01*
X15137607Y-7357035D01*
X15132138Y-7370238D01*
X15132138Y-7370238D01*
X15129350Y-7384254D01*
X15129350Y-7384254D01*
X15129350Y-7398545D01*
X15129350Y-7398546D01*
X15129350Y-7398546D01*
X15132138Y-7412561D01*
X15132138Y-7412562D01*
X15137607Y-7425765D01*
X15137607Y-7425766D01*
X15145547Y-7437648D01*
X15145547Y-7437648D01*
X15155652Y-7447753D01*
X15155652Y-7447753D01*
X15167534Y-7455692D01*
X15167535Y-7455693D01*
X15167701Y-7455762D01*
X15180738Y-7461162D01*
X15180738Y-7461162D01*
X15180738Y-7461162D01*
X15195352Y-7464069D01*
X15195317Y-7464247D01*
X15201004Y-7466543D01*
X15205040Y-7472246D01*
X15205472Y-7478687D01*
X15203450Y-7488854D01*
X15203450Y-7488854D01*
X15203450Y-7503145D01*
X15203450Y-7503146D01*
X15203450Y-7503146D01*
X15206238Y-7517161D01*
X15206238Y-7517162D01*
X15211707Y-7530365D01*
X15211707Y-7530366D01*
X15219647Y-7542248D01*
X15219647Y-7542248D01*
X15229131Y-7551732D01*
X15232479Y-7557864D01*
X15231981Y-7564833D01*
X15229131Y-7569268D01*
X15224647Y-7573752D01*
X15224647Y-7573752D01*
X15216707Y-7585634D01*
X15216707Y-7585635D01*
X15211238Y-7598838D01*
X15211238Y-7598838D01*
X15208450Y-7612854D01*
X15208450Y-7612854D01*
X15208450Y-7627145D01*
X15208450Y-7627146D01*
X15208450Y-7627146D01*
X15211238Y-7641161D01*
X15211238Y-7641162D01*
X15216707Y-7654365D01*
X15216707Y-7654366D01*
X15224647Y-7666248D01*
X15224647Y-7666248D01*
X15234752Y-7676353D01*
X15234752Y-7676353D01*
X15247141Y-7684631D01*
X15247000Y-7684843D01*
X15251192Y-7688963D01*
X15252737Y-7695777D01*
X15250352Y-7702344D01*
X15247039Y-7705215D01*
X15247141Y-7705369D01*
X15234752Y-7713647D01*
X15234752Y-7713647D01*
X15224647Y-7723752D01*
X15224647Y-7723752D01*
X15216707Y-7735634D01*
X15216707Y-7735635D01*
X15211238Y-7748838D01*
X15211238Y-7748838D01*
X15208450Y-7762854D01*
X15208450Y-7762854D01*
X15208450Y-7777145D01*
X15208450Y-7777146D01*
X15208450Y-7777146D01*
X15211238Y-7791161D01*
X15211238Y-7791162D01*
X15216707Y-7804365D01*
X15216707Y-7804366D01*
X15224647Y-7816248D01*
X15224647Y-7816248D01*
X15234752Y-7826353D01*
X15234752Y-7826353D01*
X15246634Y-7834292D01*
X15246635Y-7834293D01*
X15249475Y-7835470D01*
X15254916Y-7839854D01*
X15257122Y-7846483D01*
X15255394Y-7853253D01*
X15250281Y-7858014D01*
X15244829Y-7859325D01*
X14088268Y-7868581D01*
X14081548Y-7866666D01*
X14076930Y-7861423D01*
X14075768Y-7856168D01*
X14076283Y-7391146D01*
X14674450Y-7391146D01*
X14677238Y-7405161D01*
X14677238Y-7405162D01*
X14682707Y-7418365D01*
X14682707Y-7418366D01*
X14690647Y-7430248D01*
X14690647Y-7430248D01*
X14700752Y-7440353D01*
X14700752Y-7440353D01*
X14712634Y-7448292D01*
X14712635Y-7448293D01*
X14712635Y-7448293D01*
X14725838Y-7453762D01*
X14725838Y-7453762D01*
X14725838Y-7453762D01*
X14739854Y-7456550D01*
X14739854Y-7456550D01*
X14754146Y-7456550D01*
X14763575Y-7454674D01*
X14768162Y-7453762D01*
X14781365Y-7448293D01*
X14793248Y-7440353D01*
X14802276Y-7431325D01*
X14808408Y-7427977D01*
X14815377Y-7428475D01*
X14820149Y-7431884D01*
X14820216Y-7431817D01*
X14820617Y-7432218D01*
X14820630Y-7432227D01*
X14820647Y-7432248D01*
X14830752Y-7442353D01*
X14830752Y-7442353D01*
X14842634Y-7450292D01*
X14842635Y-7450293D01*
X14842635Y-7450293D01*
X14855838Y-7455762D01*
X14855838Y-7455762D01*
X14855838Y-7455762D01*
X14869854Y-7458550D01*
X14869854Y-7458550D01*
X14884146Y-7458550D01*
X14894200Y-7456550D01*
X14898162Y-7455762D01*
X14911365Y-7450293D01*
X14923248Y-7442353D01*
X14933353Y-7432248D01*
X14941293Y-7420365D01*
X14941958Y-7418759D01*
X14946342Y-7413319D01*
X14952971Y-7411112D01*
X14959741Y-7412840D01*
X14964397Y-7417841D01*
X14964420Y-7417828D01*
X14964467Y-7417915D01*
X14964502Y-7417954D01*
X14964592Y-7418150D01*
X14964707Y-7418366D01*
X14972647Y-7430248D01*
X14972647Y-7430248D01*
X14982752Y-7440353D01*
X14982752Y-7440353D01*
X14994634Y-7448292D01*
X14994635Y-7448293D01*
X14994635Y-7448293D01*
X15007838Y-7453762D01*
X15007838Y-7453762D01*
X15007838Y-7453762D01*
X15021854Y-7456550D01*
X15021854Y-7456550D01*
X15036146Y-7456550D01*
X15045575Y-7454674D01*
X15050162Y-7453762D01*
X15063365Y-7448293D01*
X15075248Y-7440353D01*
X15085353Y-7430248D01*
X15093293Y-7418365D01*
X15098762Y-7405162D01*
X15101550Y-7391145D01*
X15101550Y-7376854D01*
X15101550Y-7376854D01*
X15098762Y-7362838D01*
X15098762Y-7362838D01*
X15098762Y-7362838D01*
X15093293Y-7349635D01*
X15093293Y-7349635D01*
X15093292Y-7349634D01*
X15085353Y-7337752D01*
X15085353Y-7337752D01*
X15075248Y-7327647D01*
X15075248Y-7327647D01*
X15063366Y-7319707D01*
X15063365Y-7319707D01*
X15050162Y-7314238D01*
X15050161Y-7314238D01*
X15036146Y-7311450D01*
X15036145Y-7311450D01*
X15021854Y-7311450D01*
X15021854Y-7311450D01*
X15007838Y-7314238D01*
X15007838Y-7314238D01*
X14994635Y-7319707D01*
X14994634Y-7319707D01*
X14982752Y-7327647D01*
X14982752Y-7327647D01*
X14972647Y-7337752D01*
X14972647Y-7337752D01*
X14964707Y-7349634D01*
X14964707Y-7349635D01*
X14964042Y-7351241D01*
X14959657Y-7356681D01*
X14953028Y-7358887D01*
X14946258Y-7357159D01*
X14941603Y-7352159D01*
X14941580Y-7352172D01*
X14941533Y-7352084D01*
X14941497Y-7352045D01*
X14941408Y-7351850D01*
X14941292Y-7351634D01*
X14933353Y-7339752D01*
X14933353Y-7339752D01*
X14923248Y-7329647D01*
X14923248Y-7329647D01*
X14911366Y-7321707D01*
X14911365Y-7321707D01*
X14898162Y-7316238D01*
X14898161Y-7316238D01*
X14884146Y-7313450D01*
X14884145Y-7313450D01*
X14869854Y-7313450D01*
X14869854Y-7313450D01*
X14855838Y-7316238D01*
X14855838Y-7316238D01*
X14842635Y-7321707D01*
X14842634Y-7321707D01*
X14830752Y-7329647D01*
X14821724Y-7338675D01*
X14815591Y-7342023D01*
X14808622Y-7341525D01*
X14803851Y-7338116D01*
X14803784Y-7338183D01*
X14803383Y-7337781D01*
X14803370Y-7337772D01*
X14803353Y-7337752D01*
X14793248Y-7327647D01*
X14793248Y-7327647D01*
X14781366Y-7319707D01*
X14781365Y-7319707D01*
X14768162Y-7314238D01*
X14768161Y-7314238D01*
X14754146Y-7311450D01*
X14754145Y-7311450D01*
X14739854Y-7311450D01*
X14739854Y-7311450D01*
X14725838Y-7314238D01*
X14725838Y-7314238D01*
X14712635Y-7319707D01*
X14712634Y-7319707D01*
X14700752Y-7327647D01*
X14700752Y-7327647D01*
X14690647Y-7337752D01*
X14690647Y-7337752D01*
X14682707Y-7349634D01*
X14682707Y-7349635D01*
X14677238Y-7362838D01*
X14677238Y-7362838D01*
X14674450Y-7376854D01*
X14674450Y-7376854D01*
X14674450Y-7391145D01*
X14674450Y-7391146D01*
X14674450Y-7391146D01*
X14076283Y-7391146D01*
X14076542Y-7157246D01*
X20222050Y-7157246D01*
X20224838Y-7171261D01*
X20224838Y-7171262D01*
X20230307Y-7184465D01*
X20230307Y-7184466D01*
X20238247Y-7196348D01*
X20238247Y-7196348D01*
X20248352Y-7206453D01*
X20248352Y-7206453D01*
X20260234Y-7214392D01*
X20260235Y-7214393D01*
X20260235Y-7214393D01*
X20273438Y-7219862D01*
X20273438Y-7219862D01*
X20273439Y-7219862D01*
X20287454Y-7222650D01*
X20287455Y-7222650D01*
X20301746Y-7222650D01*
X20311320Y-7220745D01*
X20315762Y-7219862D01*
X20328965Y-7214393D01*
X20340848Y-7206453D01*
X20350953Y-7196348D01*
X20351623Y-7195346D01*
X21047550Y-7195346D01*
X21050338Y-7209361D01*
X21050338Y-7209362D01*
X21055807Y-7222565D01*
X21055807Y-7222566D01*
X21063747Y-7234448D01*
X21063747Y-7234448D01*
X21073852Y-7244553D01*
X21073852Y-7244553D01*
X21085734Y-7252492D01*
X21085735Y-7252493D01*
X21085735Y-7252493D01*
X21098938Y-7257962D01*
X21098938Y-7257962D01*
X21098939Y-7257962D01*
X21112954Y-7260750D01*
X21112955Y-7260750D01*
X21127246Y-7260750D01*
X21136675Y-7258874D01*
X21141262Y-7257962D01*
X21154465Y-7252493D01*
X21166348Y-7244553D01*
X21176453Y-7234448D01*
X21184393Y-7222565D01*
X21185147Y-7220746D01*
X21771450Y-7220746D01*
X21774238Y-7234761D01*
X21774238Y-7234762D01*
X21779707Y-7247965D01*
X21779707Y-7247966D01*
X21787647Y-7259848D01*
X21787647Y-7259848D01*
X21797752Y-7269953D01*
X21797752Y-7269953D01*
X21809634Y-7277892D01*
X21809635Y-7277893D01*
X21809635Y-7277893D01*
X21822838Y-7283362D01*
X21822838Y-7283362D01*
X21822839Y-7283362D01*
X21836854Y-7286150D01*
X21836855Y-7286150D01*
X21851146Y-7286150D01*
X21860575Y-7284274D01*
X21865162Y-7283362D01*
X21878365Y-7277893D01*
X21890248Y-7269953D01*
X21900353Y-7259848D01*
X21908293Y-7247965D01*
X21913762Y-7234762D01*
X21916550Y-7220745D01*
X21916550Y-7206454D01*
X21916550Y-7206454D01*
X21914340Y-7195346D01*
X22546150Y-7195346D01*
X22548938Y-7209361D01*
X22548938Y-7209362D01*
X22554407Y-7222565D01*
X22554407Y-7222566D01*
X22562347Y-7234448D01*
X22562347Y-7234448D01*
X22572452Y-7244553D01*
X22572452Y-7244553D01*
X22584334Y-7252492D01*
X22584335Y-7252493D01*
X22584335Y-7252493D01*
X22597538Y-7257962D01*
X22597538Y-7257962D01*
X22597538Y-7257962D01*
X22611554Y-7260750D01*
X22611554Y-7260750D01*
X22625846Y-7260750D01*
X22635275Y-7258874D01*
X22639862Y-7257962D01*
X22653065Y-7252493D01*
X22664948Y-7244553D01*
X22675053Y-7234448D01*
X22682993Y-7222565D01*
X22688462Y-7209362D01*
X22689916Y-7202050D01*
X22691250Y-7195346D01*
X22691250Y-7181054D01*
X22688462Y-7167038D01*
X22688462Y-7167038D01*
X22688462Y-7167038D01*
X22682993Y-7153835D01*
X22682993Y-7153835D01*
X22682992Y-7153834D01*
X22675053Y-7141952D01*
X22675053Y-7141952D01*
X22664948Y-7131847D01*
X22664948Y-7131847D01*
X22653066Y-7123907D01*
X22653065Y-7123907D01*
X22639862Y-7118438D01*
X22639861Y-7118438D01*
X22625846Y-7115650D01*
X22625845Y-7115650D01*
X22611554Y-7115650D01*
X22611554Y-7115650D01*
X22597538Y-7118438D01*
X22597538Y-7118438D01*
X22584335Y-7123907D01*
X22584334Y-7123907D01*
X22572452Y-7131847D01*
X22572452Y-7131847D01*
X22562347Y-7141952D01*
X22562347Y-7141952D01*
X22554407Y-7153834D01*
X22554407Y-7153835D01*
X22548938Y-7167038D01*
X22548938Y-7167038D01*
X22546150Y-7181054D01*
X22546150Y-7181054D01*
X22546150Y-7195345D01*
X22546150Y-7195346D01*
X22546150Y-7195346D01*
X21914340Y-7195346D01*
X21913762Y-7192438D01*
X21913762Y-7192438D01*
X21913762Y-7192438D01*
X21909047Y-7181054D01*
X21908293Y-7179235D01*
X21908293Y-7179234D01*
X21900353Y-7167352D01*
X21900353Y-7167352D01*
X21890248Y-7157247D01*
X21890248Y-7157247D01*
X21878366Y-7149307D01*
X21878365Y-7149307D01*
X21865162Y-7143838D01*
X21865161Y-7143838D01*
X21851146Y-7141050D01*
X21851146Y-7141050D01*
X21836855Y-7141050D01*
X21836854Y-7141050D01*
X21822839Y-7143838D01*
X21822838Y-7143838D01*
X21809635Y-7149307D01*
X21809634Y-7149307D01*
X21797752Y-7157247D01*
X21797752Y-7157247D01*
X21787647Y-7167352D01*
X21787647Y-7167352D01*
X21779707Y-7179234D01*
X21779707Y-7179235D01*
X21774238Y-7192438D01*
X21774238Y-7192438D01*
X21771450Y-7206454D01*
X21771450Y-7206454D01*
X21771450Y-7220745D01*
X21771450Y-7220746D01*
X21771450Y-7220746D01*
X21185147Y-7220746D01*
X21189862Y-7209362D01*
X21190161Y-7207859D01*
X21191043Y-7203426D01*
X21191043Y-7203426D01*
X21192650Y-7195346D01*
X21192650Y-7195346D01*
X21192650Y-7181054D01*
X21189862Y-7167038D01*
X21189862Y-7167038D01*
X21189862Y-7167038D01*
X21184393Y-7153835D01*
X21184393Y-7153835D01*
X21184393Y-7153834D01*
X21176453Y-7141952D01*
X21176453Y-7141952D01*
X21166348Y-7131847D01*
X21166348Y-7131847D01*
X21154466Y-7123907D01*
X21154465Y-7123907D01*
X21141262Y-7118438D01*
X21141261Y-7118438D01*
X21127246Y-7115650D01*
X21127246Y-7115650D01*
X21112955Y-7115650D01*
X21112954Y-7115650D01*
X21098939Y-7118438D01*
X21098938Y-7118438D01*
X21085735Y-7123907D01*
X21085734Y-7123907D01*
X21073852Y-7131847D01*
X21073852Y-7131847D01*
X21063747Y-7141952D01*
X21063747Y-7141952D01*
X21055807Y-7153834D01*
X21055807Y-7153835D01*
X21050338Y-7167038D01*
X21050338Y-7167038D01*
X21047550Y-7181054D01*
X21047550Y-7181054D01*
X21047550Y-7195345D01*
X21047550Y-7195346D01*
X21047550Y-7195346D01*
X20351623Y-7195346D01*
X20358893Y-7184465D01*
X20360306Y-7181054D01*
X20362524Y-7175700D01*
X20362524Y-7175700D01*
X20364362Y-7171262D01*
X20367150Y-7157247D01*
X20367150Y-7157246D01*
X20367150Y-7142954D01*
X20364362Y-7128938D01*
X20364362Y-7128938D01*
X20364362Y-7128938D01*
X20358893Y-7115735D01*
X20358893Y-7115735D01*
X20358893Y-7115734D01*
X20350953Y-7103852D01*
X20350953Y-7103852D01*
X20340848Y-7093747D01*
X20340848Y-7093747D01*
X20328966Y-7085807D01*
X20328965Y-7085807D01*
X20315762Y-7080338D01*
X20315761Y-7080338D01*
X20301746Y-7077550D01*
X20301746Y-7077550D01*
X20287455Y-7077550D01*
X20287454Y-7077550D01*
X20273439Y-7080338D01*
X20273438Y-7080338D01*
X20260235Y-7085807D01*
X20260234Y-7085807D01*
X20248352Y-7093747D01*
X20248352Y-7093747D01*
X20238247Y-7103852D01*
X20238247Y-7103852D01*
X20230307Y-7115734D01*
X20230307Y-7115735D01*
X20224838Y-7128938D01*
X20224838Y-7128938D01*
X20222050Y-7142954D01*
X20222050Y-7142954D01*
X20222050Y-7157245D01*
X20222050Y-7157246D01*
X20222050Y-7157246D01*
X14076542Y-7157246D01*
X14077104Y-6649196D01*
X21428550Y-6649196D01*
X21431338Y-6663211D01*
X21431338Y-6663212D01*
X21436807Y-6676415D01*
X21436807Y-6676416D01*
X21444747Y-6688298D01*
X21444747Y-6688298D01*
X21454852Y-6698403D01*
X21454852Y-6698403D01*
X21466734Y-6706342D01*
X21466735Y-6706343D01*
X21466735Y-6706343D01*
X21479938Y-6711812D01*
X21479938Y-6711812D01*
X21479939Y-6711812D01*
X21493954Y-6714600D01*
X21493955Y-6714600D01*
X21508246Y-6714600D01*
X21517675Y-6712724D01*
X21522262Y-6711812D01*
X21535465Y-6706343D01*
X21547348Y-6698403D01*
X21557453Y-6688298D01*
X21565393Y-6676415D01*
X21570862Y-6663212D01*
X21573650Y-6649195D01*
X21573650Y-6648507D01*
X22274250Y-6648507D01*
X22276750Y-6661074D01*
X22276750Y-6661074D01*
X22281653Y-6672912D01*
X22281654Y-6672913D01*
X22288772Y-6683567D01*
X22288773Y-6683567D01*
X22297833Y-6692627D01*
X22297833Y-6692628D01*
X22308487Y-6699746D01*
X22308487Y-6699746D01*
X22308487Y-6699746D01*
X22320326Y-6704650D01*
X22320326Y-6704650D01*
X22320326Y-6704650D01*
X22332893Y-6707150D01*
X22332893Y-6707150D01*
X22345707Y-6707150D01*
X22354162Y-6705468D01*
X22358274Y-6704650D01*
X22370113Y-6699746D01*
X22380767Y-6692628D01*
X22389828Y-6683567D01*
X22396946Y-6672913D01*
X22401850Y-6661074D01*
X22404213Y-6649196D01*
X22404350Y-6648507D01*
X22404350Y-6635693D01*
X22401850Y-6623126D01*
X22401850Y-6623126D01*
X22401850Y-6623126D01*
X22396946Y-6611287D01*
X22396946Y-6611287D01*
X22396946Y-6611287D01*
X22389828Y-6600633D01*
X22389827Y-6600633D01*
X22380767Y-6591573D01*
X22380767Y-6591572D01*
X22370113Y-6584454D01*
X22370112Y-6584453D01*
X22358274Y-6579550D01*
X22358274Y-6579550D01*
X22345707Y-6577050D01*
X22345707Y-6577050D01*
X22332893Y-6577050D01*
X22332893Y-6577050D01*
X22320326Y-6579550D01*
X22320326Y-6579550D01*
X22308488Y-6584453D01*
X22308487Y-6584454D01*
X22297833Y-6591572D01*
X22297833Y-6591573D01*
X22288773Y-6600633D01*
X22288772Y-6600633D01*
X22281654Y-6611287D01*
X22281653Y-6611287D01*
X22276750Y-6623125D01*
X22276750Y-6623126D01*
X22274250Y-6635693D01*
X22274250Y-6635693D01*
X22274250Y-6648507D01*
X22274250Y-6648507D01*
X22274250Y-6648507D01*
X21573650Y-6648507D01*
X21573650Y-6634904D01*
X21573650Y-6634904D01*
X21570862Y-6620888D01*
X21570862Y-6620888D01*
X21570862Y-6620888D01*
X21565393Y-6607685D01*
X21565393Y-6607685D01*
X21565393Y-6607684D01*
X21557453Y-6595802D01*
X21557453Y-6595802D01*
X21547348Y-6585697D01*
X21547348Y-6585697D01*
X21535466Y-6577757D01*
X21535465Y-6577757D01*
X21522262Y-6572288D01*
X21522261Y-6572288D01*
X21508246Y-6569500D01*
X21508246Y-6569500D01*
X21493955Y-6569500D01*
X21493954Y-6569500D01*
X21479939Y-6572288D01*
X21479938Y-6572288D01*
X21466735Y-6577757D01*
X21466734Y-6577757D01*
X21454852Y-6585697D01*
X21454852Y-6585697D01*
X21444747Y-6595802D01*
X21444747Y-6595802D01*
X21436807Y-6607684D01*
X21436807Y-6607685D01*
X21431338Y-6620888D01*
X21431338Y-6620888D01*
X21428550Y-6634904D01*
X21428550Y-6634904D01*
X21428550Y-6649195D01*
X21428550Y-6649196D01*
X21428550Y-6649196D01*
X14077104Y-6649196D01*
X14077360Y-6418315D01*
X18830250Y-6418315D01*
X18830250Y-6434085D01*
X18833326Y-6449549D01*
X18833326Y-6449550D01*
X18839360Y-6464117D01*
X18839361Y-6464118D01*
X18848121Y-6477229D01*
X18848121Y-6477229D01*
X18859271Y-6488379D01*
X18859271Y-6488379D01*
X18872381Y-6497139D01*
X18872383Y-6497140D01*
X18886950Y-6503173D01*
X18886950Y-6503174D01*
X18902415Y-6506250D01*
X18902416Y-6506250D01*
X18902416Y-6506250D01*
X18918184Y-6506250D01*
X18918185Y-6506250D01*
X18933650Y-6503174D01*
X18948218Y-6497139D01*
X18961329Y-6488379D01*
X18972479Y-6477229D01*
X18981239Y-6464118D01*
X18987274Y-6449550D01*
X18990350Y-6434084D01*
X18990350Y-6418316D01*
X18990350Y-6418315D01*
X18990350Y-6418315D01*
X18987274Y-6402851D01*
X18987274Y-6402850D01*
X18987274Y-6402850D01*
X18981240Y-6388283D01*
X18981239Y-6388281D01*
X18972479Y-6375171D01*
X18972479Y-6375171D01*
X18961329Y-6364021D01*
X18961329Y-6364021D01*
X18948219Y-6355261D01*
X18948217Y-6355260D01*
X18933650Y-6349226D01*
X18933649Y-6349226D01*
X18918185Y-6346150D01*
X18918184Y-6346150D01*
X18902416Y-6346150D01*
X18902416Y-6346150D01*
X18886951Y-6349226D01*
X18886950Y-6349226D01*
X18872383Y-6355260D01*
X18872381Y-6355261D01*
X18859271Y-6364021D01*
X18859271Y-6364021D01*
X18848121Y-6375171D01*
X18848121Y-6375171D01*
X18839361Y-6388281D01*
X18839360Y-6388283D01*
X18833326Y-6402850D01*
X18833326Y-6402851D01*
X18830250Y-6418315D01*
X14077360Y-6418315D01*
X14077638Y-6166646D01*
X14964250Y-6166646D01*
X14967038Y-6180661D01*
X14967038Y-6180662D01*
X14972507Y-6193865D01*
X14972507Y-6193866D01*
X14980447Y-6205748D01*
X14980447Y-6205748D01*
X14990552Y-6215853D01*
X14990552Y-6215853D01*
X15002434Y-6223792D01*
X15002435Y-6223793D01*
X15002435Y-6223793D01*
X15015638Y-6229262D01*
X15015638Y-6229262D01*
X15015638Y-6229262D01*
X15029654Y-6232050D01*
X15029654Y-6232050D01*
X15043946Y-6232050D01*
X15053375Y-6230174D01*
X15057962Y-6229262D01*
X15071165Y-6223793D01*
X15080296Y-6217692D01*
X18327250Y-6217692D01*
X18330134Y-6232191D01*
X18330134Y-6232192D01*
X18335791Y-6245849D01*
X18335792Y-6245850D01*
X18344005Y-6258141D01*
X18344005Y-6258142D01*
X18354458Y-6268595D01*
X18354458Y-6268595D01*
X18366750Y-6276808D01*
X18366751Y-6276809D01*
X18380408Y-6282466D01*
X18380409Y-6282466D01*
X18380409Y-6282466D01*
X18380409Y-6282466D01*
X18394908Y-6285350D01*
X18394908Y-6285350D01*
X18409692Y-6285350D01*
X18419446Y-6283410D01*
X18424191Y-6282466D01*
X18437850Y-6276808D01*
X18450142Y-6268595D01*
X18460595Y-6258142D01*
X18468808Y-6245849D01*
X18474466Y-6232191D01*
X18477350Y-6217692D01*
X18477350Y-6202908D01*
X18477350Y-6202908D01*
X18474466Y-6188409D01*
X18474466Y-6188409D01*
X18474466Y-6188409D01*
X18474466Y-6188408D01*
X18468809Y-6174751D01*
X18468808Y-6174750D01*
X18460595Y-6162458D01*
X18460595Y-6162458D01*
X18450142Y-6152005D01*
X18450142Y-6152005D01*
X18437850Y-6143792D01*
X18437849Y-6143791D01*
X18424192Y-6138134D01*
X18424191Y-6138134D01*
X18409692Y-6135250D01*
X18409692Y-6135250D01*
X18394908Y-6135250D01*
X18394908Y-6135250D01*
X18380409Y-6138134D01*
X18380408Y-6138134D01*
X18366751Y-6143791D01*
X18366750Y-6143792D01*
X18354458Y-6152005D01*
X18354458Y-6152005D01*
X18344005Y-6162458D01*
X18344005Y-6162458D01*
X18335792Y-6174750D01*
X18335791Y-6174751D01*
X18330134Y-6188408D01*
X18330134Y-6188409D01*
X18327250Y-6202908D01*
X18327250Y-6202908D01*
X18327250Y-6217692D01*
X18327250Y-6217692D01*
X18327250Y-6217692D01*
X15080296Y-6217692D01*
X15083048Y-6215853D01*
X15093153Y-6205748D01*
X15096557Y-6200654D01*
X15100061Y-6195410D01*
X15101092Y-6193866D01*
X15101092Y-6193866D01*
X15101093Y-6193865D01*
X15106562Y-6180662D01*
X15109350Y-6166645D01*
X15109350Y-6152354D01*
X15109350Y-6152354D01*
X15106562Y-6138338D01*
X15106562Y-6138338D01*
X15106562Y-6138338D01*
X15101725Y-6126662D01*
X15101093Y-6125135D01*
X15101092Y-6125134D01*
X15093153Y-6113252D01*
X15093153Y-6113252D01*
X15083048Y-6103147D01*
X15083048Y-6103147D01*
X15071166Y-6095207D01*
X15071165Y-6095207D01*
X15057962Y-6089738D01*
X15057961Y-6089738D01*
X15043946Y-6086950D01*
X15043945Y-6086950D01*
X15029654Y-6086950D01*
X15029654Y-6086950D01*
X15015638Y-6089738D01*
X15015638Y-6089738D01*
X15002435Y-6095207D01*
X15002434Y-6095207D01*
X14990552Y-6103147D01*
X14990552Y-6103147D01*
X14980447Y-6113252D01*
X14980447Y-6113252D01*
X14972507Y-6125134D01*
X14972507Y-6125135D01*
X14967038Y-6138338D01*
X14967038Y-6138338D01*
X14964250Y-6152354D01*
X14964250Y-6152354D01*
X14964250Y-6166645D01*
X14964250Y-6166646D01*
X14964250Y-6166646D01*
X14077638Y-6166646D01*
X14077821Y-6001792D01*
X17552550Y-6001792D01*
X17555434Y-6016291D01*
X17555434Y-6016292D01*
X17561091Y-6029949D01*
X17561092Y-6029950D01*
X17569305Y-6042241D01*
X17569305Y-6042242D01*
X17579758Y-6052695D01*
X17579758Y-6052695D01*
X17592050Y-6060908D01*
X17592051Y-6060909D01*
X17599624Y-6064045D01*
X17605709Y-6066566D01*
X17605709Y-6066566D01*
X17605709Y-6066566D01*
X17620208Y-6069450D01*
X17620208Y-6069450D01*
X17634992Y-6069450D01*
X17646508Y-6067159D01*
X17649491Y-6066566D01*
X17663150Y-6060908D01*
X17675442Y-6052695D01*
X17685895Y-6042242D01*
X17694108Y-6029949D01*
X17699766Y-6016291D01*
X17701346Y-6008348D01*
X17702650Y-6001792D01*
X17702650Y-5987008D01*
X17702552Y-5986515D01*
X17979350Y-5986515D01*
X17979350Y-6002285D01*
X17982426Y-6017749D01*
X17982426Y-6017750D01*
X17988460Y-6032317D01*
X17988461Y-6032318D01*
X17997221Y-6045429D01*
X17997221Y-6045429D01*
X18008371Y-6056579D01*
X18008371Y-6056579D01*
X18021481Y-6065339D01*
X18021483Y-6065340D01*
X18031406Y-6069450D01*
X18036050Y-6071374D01*
X18051515Y-6074450D01*
X18051516Y-6074450D01*
X18051516Y-6074450D01*
X18067284Y-6074450D01*
X18067285Y-6074450D01*
X18082750Y-6071374D01*
X18097318Y-6065339D01*
X18110429Y-6056579D01*
X18114416Y-6052592D01*
X21057750Y-6052592D01*
X21060634Y-6067091D01*
X21060634Y-6067092D01*
X21066291Y-6080749D01*
X21066292Y-6080750D01*
X21074505Y-6093041D01*
X21074505Y-6093042D01*
X21084958Y-6103495D01*
X21084958Y-6103495D01*
X21097250Y-6111708D01*
X21097251Y-6111709D01*
X21110908Y-6117366D01*
X21110909Y-6117366D01*
X21110909Y-6117366D01*
X21110909Y-6117366D01*
X21125408Y-6120250D01*
X21125408Y-6120250D01*
X21140192Y-6120250D01*
X21149946Y-6118310D01*
X21154691Y-6117366D01*
X21168350Y-6111708D01*
X21180642Y-6103495D01*
X21191095Y-6093042D01*
X21199308Y-6080749D01*
X21204966Y-6067091D01*
X21205572Y-6064046D01*
X21631750Y-6064046D01*
X21634538Y-6078061D01*
X21634538Y-6078062D01*
X21640007Y-6091265D01*
X21640007Y-6091266D01*
X21647947Y-6103148D01*
X21647947Y-6103148D01*
X21658052Y-6113253D01*
X21658052Y-6113253D01*
X21669934Y-6121192D01*
X21669935Y-6121193D01*
X21669935Y-6121193D01*
X21683138Y-6126662D01*
X21683138Y-6126662D01*
X21683139Y-6126662D01*
X21697154Y-6129450D01*
X21697155Y-6129450D01*
X21711446Y-6129450D01*
X21720875Y-6127574D01*
X21725462Y-6126662D01*
X21738665Y-6121193D01*
X21750548Y-6113253D01*
X21760653Y-6103148D01*
X21768593Y-6091265D01*
X21774062Y-6078062D01*
X21775392Y-6071374D01*
X21776850Y-6064046D01*
X21776850Y-6049754D01*
X21774062Y-6035738D01*
X21774062Y-6035738D01*
X21774062Y-6035738D01*
X21768593Y-6022535D01*
X21768593Y-6022535D01*
X21768593Y-6022534D01*
X21760653Y-6010652D01*
X21760653Y-6010652D01*
X21750548Y-6000547D01*
X21750548Y-6000547D01*
X21738666Y-5992607D01*
X21738665Y-5992607D01*
X21725462Y-5987138D01*
X21725461Y-5987138D01*
X21711446Y-5984350D01*
X21711446Y-5984350D01*
X21697155Y-5984350D01*
X21697154Y-5984350D01*
X21683139Y-5987138D01*
X21683138Y-5987138D01*
X21669935Y-5992607D01*
X21669934Y-5992607D01*
X21658052Y-6000547D01*
X21658052Y-6000547D01*
X21647947Y-6010652D01*
X21647947Y-6010652D01*
X21640007Y-6022534D01*
X21640007Y-6022535D01*
X21634538Y-6035738D01*
X21634538Y-6035738D01*
X21631750Y-6049754D01*
X21631750Y-6049754D01*
X21631750Y-6064045D01*
X21631750Y-6064046D01*
X21631750Y-6064046D01*
X21205572Y-6064046D01*
X21207057Y-6056579D01*
X21207850Y-6052592D01*
X21207850Y-6037808D01*
X21204966Y-6023309D01*
X21204966Y-6023309D01*
X21204966Y-6023309D01*
X21202663Y-6017749D01*
X21199309Y-6009651D01*
X21199308Y-6009650D01*
X21191095Y-5997358D01*
X21191095Y-5997358D01*
X21180642Y-5986905D01*
X21180642Y-5986905D01*
X21168350Y-5978692D01*
X21168349Y-5978691D01*
X21154692Y-5973034D01*
X21154691Y-5973034D01*
X21140192Y-5970150D01*
X21140192Y-5970150D01*
X21125408Y-5970150D01*
X21125408Y-5970150D01*
X21110909Y-5973034D01*
X21110908Y-5973034D01*
X21097251Y-5978691D01*
X21097250Y-5978692D01*
X21084958Y-5986905D01*
X21084958Y-5986905D01*
X21074505Y-5997358D01*
X21074505Y-5997358D01*
X21066292Y-6009650D01*
X21066291Y-6009651D01*
X21060634Y-6023308D01*
X21060634Y-6023309D01*
X21057750Y-6037808D01*
X21057750Y-6037808D01*
X21057750Y-6052592D01*
X21057750Y-6052592D01*
X21057750Y-6052592D01*
X18114416Y-6052592D01*
X18121579Y-6045429D01*
X18130339Y-6032318D01*
X18136374Y-6017750D01*
X18139450Y-6002284D01*
X18139450Y-5986516D01*
X18139450Y-5986515D01*
X18139450Y-5986515D01*
X18137894Y-5978692D01*
X18137387Y-5976146D01*
X18723450Y-5976146D01*
X18726238Y-5990161D01*
X18726238Y-5990162D01*
X18731707Y-6003365D01*
X18731707Y-6003366D01*
X18739647Y-6015248D01*
X18739647Y-6015248D01*
X18749752Y-6025353D01*
X18749752Y-6025353D01*
X18761634Y-6033292D01*
X18761635Y-6033293D01*
X18761635Y-6033293D01*
X18774838Y-6038762D01*
X18774838Y-6038762D01*
X18774839Y-6038762D01*
X18788854Y-6041550D01*
X18788855Y-6041550D01*
X18803146Y-6041550D01*
X18812575Y-6039674D01*
X18817162Y-6038762D01*
X18830365Y-6033293D01*
X18831825Y-6032318D01*
X18839950Y-6026889D01*
X18841023Y-6026171D01*
X18842248Y-6025353D01*
X18852353Y-6015248D01*
X18860293Y-6003365D01*
X18865762Y-5990162D01*
X18868044Y-5978692D01*
X18868550Y-5976146D01*
X18868550Y-5961854D01*
X18866039Y-5949232D01*
X22745089Y-5949232D01*
X22747974Y-5963730D01*
X22747974Y-5963731D01*
X22753631Y-5977388D01*
X22753631Y-5977390D01*
X22761844Y-5989681D01*
X22761845Y-5989681D01*
X22772298Y-6000134D01*
X22772298Y-6000135D01*
X22784589Y-6008348D01*
X22784591Y-6008348D01*
X22798248Y-6014005D01*
X22798248Y-6014005D01*
X22798249Y-6014005D01*
X22798249Y-6014005D01*
X22812747Y-6016890D01*
X22812748Y-6016890D01*
X22827531Y-6016890D01*
X22829987Y-6016401D01*
X22833117Y-6015778D01*
X22840077Y-6016401D01*
X22845594Y-6020687D01*
X22847919Y-6027276D01*
X22846312Y-6034076D01*
X22844305Y-6036708D01*
X22839805Y-6041208D01*
X22839805Y-6041208D01*
X22831592Y-6053500D01*
X22831591Y-6053501D01*
X22825934Y-6067158D01*
X22825934Y-6067159D01*
X22823050Y-6081658D01*
X22823050Y-6081658D01*
X22823050Y-6096442D01*
X22823050Y-6096442D01*
X22823050Y-6096442D01*
X22825934Y-6110941D01*
X22825934Y-6110942D01*
X22831591Y-6124599D01*
X22831592Y-6124600D01*
X22839805Y-6136891D01*
X22839805Y-6136892D01*
X22850258Y-6147345D01*
X22850258Y-6147345D01*
X22862550Y-6155558D01*
X22862551Y-6155559D01*
X22876208Y-6161216D01*
X22876209Y-6161216D01*
X22876209Y-6161216D01*
X22876209Y-6161216D01*
X22890708Y-6164100D01*
X22890708Y-6164100D01*
X22905492Y-6164100D01*
X22915246Y-6162160D01*
X22919991Y-6161216D01*
X22933649Y-6155558D01*
X22945942Y-6147345D01*
X22956395Y-6136892D01*
X22964608Y-6124599D01*
X22970266Y-6110941D01*
X22971816Y-6103148D01*
X22973150Y-6096442D01*
X22973150Y-6081658D01*
X22970266Y-6067159D01*
X22970266Y-6067159D01*
X22970266Y-6067159D01*
X22970266Y-6067158D01*
X22964609Y-6053501D01*
X22964608Y-6053500D01*
X22956395Y-6041208D01*
X22956395Y-6041208D01*
X22945942Y-6030755D01*
X22945941Y-6030755D01*
X22933650Y-6022542D01*
X22933649Y-6022541D01*
X22919992Y-6016884D01*
X22919991Y-6016884D01*
X22905492Y-6014000D01*
X22905492Y-6014000D01*
X22890708Y-6014000D01*
X22890681Y-6014005D01*
X22885122Y-6015111D01*
X22878163Y-6014488D01*
X22872645Y-6010202D01*
X22870320Y-6003613D01*
X22871927Y-5996813D01*
X22873935Y-5994181D01*
X22878434Y-5989681D01*
X22878435Y-5989681D01*
X22886648Y-5977389D01*
X22892305Y-5963731D01*
X22895190Y-5949231D01*
X22895190Y-5934448D01*
X22895190Y-5934447D01*
X22892305Y-5919949D01*
X22892305Y-5919949D01*
X22892305Y-5919948D01*
X22889281Y-5912647D01*
X22886648Y-5906291D01*
X22886648Y-5906289D01*
X22878435Y-5893998D01*
X22878434Y-5893998D01*
X22867981Y-5883545D01*
X22867981Y-5883544D01*
X22855690Y-5875331D01*
X22855688Y-5875331D01*
X22842031Y-5869674D01*
X22842030Y-5869674D01*
X22827532Y-5866790D01*
X22827531Y-5866790D01*
X22812748Y-5866790D01*
X22812748Y-5866790D01*
X22798249Y-5869674D01*
X22798248Y-5869674D01*
X22784591Y-5875331D01*
X22784589Y-5875331D01*
X22772298Y-5883544D01*
X22772298Y-5883545D01*
X22761845Y-5893998D01*
X22761844Y-5893998D01*
X22753631Y-5906289D01*
X22753631Y-5906291D01*
X22747974Y-5919948D01*
X22747974Y-5919949D01*
X22745090Y-5934447D01*
X22745090Y-5934448D01*
X22745090Y-5949231D01*
X22745090Y-5949232D01*
X22745089Y-5949232D01*
X18866039Y-5949232D01*
X18865762Y-5947838D01*
X18865762Y-5947838D01*
X18865762Y-5947838D01*
X18860902Y-5936105D01*
X18860293Y-5934635D01*
X18860293Y-5934634D01*
X18852353Y-5922752D01*
X18852353Y-5922752D01*
X18842248Y-5912647D01*
X18842248Y-5912647D01*
X18830366Y-5904707D01*
X18830365Y-5904707D01*
X18817162Y-5899238D01*
X18817161Y-5899238D01*
X18803146Y-5896450D01*
X18803146Y-5896450D01*
X18788855Y-5896450D01*
X18788854Y-5896450D01*
X18774839Y-5899238D01*
X18774838Y-5899238D01*
X18761635Y-5904707D01*
X18761634Y-5904707D01*
X18749752Y-5912647D01*
X18749752Y-5912647D01*
X18739647Y-5922752D01*
X18739647Y-5922752D01*
X18731707Y-5934634D01*
X18731707Y-5934635D01*
X18726238Y-5947838D01*
X18726238Y-5947838D01*
X18723450Y-5961854D01*
X18723450Y-5961854D01*
X18723450Y-5976145D01*
X18723450Y-5976146D01*
X18723450Y-5976146D01*
X18137387Y-5976146D01*
X18136374Y-5971050D01*
X18133342Y-5963731D01*
X18130340Y-5956483D01*
X18130339Y-5956481D01*
X18121579Y-5943371D01*
X18121579Y-5943371D01*
X18110429Y-5932221D01*
X18110429Y-5932221D01*
X18097319Y-5923461D01*
X18097317Y-5923460D01*
X18082750Y-5917426D01*
X18082749Y-5917426D01*
X18067285Y-5914350D01*
X18067284Y-5914350D01*
X18051516Y-5914350D01*
X18051516Y-5914350D01*
X18036051Y-5917426D01*
X18036050Y-5917426D01*
X18021483Y-5923460D01*
X18021481Y-5923461D01*
X18008371Y-5932221D01*
X18008371Y-5932221D01*
X17997221Y-5943371D01*
X17997221Y-5943371D01*
X17988461Y-5956481D01*
X17988460Y-5956483D01*
X17982426Y-5971050D01*
X17982426Y-5971051D01*
X17979350Y-5986515D01*
X17702552Y-5986515D01*
X17699766Y-5972509D01*
X17699766Y-5972509D01*
X17699766Y-5972509D01*
X17696130Y-5963731D01*
X17694109Y-5958851D01*
X17694108Y-5958850D01*
X17685895Y-5946558D01*
X17685895Y-5946558D01*
X17675442Y-5936105D01*
X17675442Y-5936105D01*
X17663150Y-5927892D01*
X17663149Y-5927891D01*
X17649492Y-5922234D01*
X17649491Y-5922234D01*
X17634992Y-5919350D01*
X17634992Y-5919350D01*
X17620208Y-5919350D01*
X17620208Y-5919350D01*
X17605709Y-5922234D01*
X17605708Y-5922234D01*
X17592051Y-5927891D01*
X17592050Y-5927892D01*
X17579758Y-5936105D01*
X17579758Y-5936105D01*
X17569305Y-5946558D01*
X17569305Y-5946558D01*
X17561092Y-5958850D01*
X17561091Y-5958851D01*
X17555434Y-5972508D01*
X17555434Y-5972509D01*
X17552550Y-5987008D01*
X17552550Y-5987008D01*
X17552550Y-6001792D01*
X17552550Y-6001792D01*
X17552550Y-6001792D01*
X14077821Y-6001792D01*
X14077976Y-5861107D01*
X21728150Y-5861107D01*
X21730650Y-5873674D01*
X21730650Y-5873674D01*
X21735553Y-5885512D01*
X21735554Y-5885513D01*
X21742672Y-5896167D01*
X21742673Y-5896167D01*
X21751733Y-5905227D01*
X21751733Y-5905228D01*
X21762387Y-5912346D01*
X21762388Y-5912347D01*
X21765069Y-5913457D01*
X21774226Y-5917250D01*
X21774226Y-5917250D01*
X21774226Y-5917250D01*
X21786793Y-5919750D01*
X21786793Y-5919750D01*
X21799607Y-5919750D01*
X21808062Y-5918068D01*
X21812174Y-5917250D01*
X21824013Y-5912346D01*
X21834667Y-5905228D01*
X21843728Y-5896167D01*
X21850847Y-5885513D01*
X21855750Y-5873674D01*
X21857120Y-5866790D01*
X21858250Y-5861107D01*
X21858250Y-5848293D01*
X21855750Y-5835726D01*
X21855750Y-5835726D01*
X21855750Y-5835726D01*
X21850847Y-5823887D01*
X21850846Y-5823887D01*
X21850846Y-5823887D01*
X21843728Y-5813233D01*
X21843727Y-5813233D01*
X21834667Y-5804173D01*
X21834667Y-5804172D01*
X21824013Y-5797054D01*
X21824012Y-5797053D01*
X21812174Y-5792150D01*
X21812174Y-5792150D01*
X21799607Y-5789650D01*
X21799607Y-5789650D01*
X21786793Y-5789650D01*
X21786793Y-5789650D01*
X21774226Y-5792150D01*
X21774226Y-5792150D01*
X21762388Y-5797053D01*
X21762387Y-5797054D01*
X21751733Y-5804172D01*
X21751733Y-5804173D01*
X21742673Y-5813233D01*
X21742672Y-5813233D01*
X21735554Y-5823887D01*
X21735553Y-5823887D01*
X21730650Y-5835725D01*
X21730650Y-5835726D01*
X21728150Y-5848293D01*
X21728150Y-5848293D01*
X21728150Y-5861107D01*
X21728150Y-5861107D01*
X21728150Y-5861107D01*
X14077976Y-5861107D01*
X14078061Y-5784907D01*
X17143450Y-5784907D01*
X17145950Y-5797474D01*
X17145950Y-5797474D01*
X17150853Y-5809312D01*
X17150854Y-5809313D01*
X17157972Y-5819967D01*
X17157973Y-5819967D01*
X17167033Y-5829027D01*
X17167033Y-5829028D01*
X17177687Y-5836146D01*
X17177688Y-5836147D01*
X17180369Y-5837257D01*
X17189526Y-5841050D01*
X17189526Y-5841050D01*
X17189526Y-5841050D01*
X17202093Y-5843550D01*
X17202093Y-5843550D01*
X17214907Y-5843550D01*
X17223362Y-5841868D01*
X17227474Y-5841050D01*
X17232323Y-5839042D01*
X17239117Y-5836228D01*
X17239117Y-5836228D01*
X17239215Y-5836187D01*
X17239312Y-5836147D01*
X17239312Y-5836147D01*
X17239313Y-5836146D01*
X17249967Y-5829028D01*
X17259028Y-5819967D01*
X17266147Y-5809313D01*
X17271050Y-5797474D01*
X17273550Y-5784907D01*
X17273550Y-5772093D01*
X17273550Y-5772093D01*
X17271050Y-5759526D01*
X17271050Y-5759526D01*
X17271050Y-5759526D01*
X17266190Y-5747792D01*
X19863950Y-5747792D01*
X19866834Y-5762291D01*
X19866834Y-5762292D01*
X19872491Y-5775949D01*
X19872492Y-5775950D01*
X19880705Y-5788241D01*
X19880705Y-5788242D01*
X19891158Y-5798695D01*
X19891158Y-5798695D01*
X19903450Y-5806908D01*
X19903451Y-5806909D01*
X19917108Y-5812566D01*
X19917109Y-5812566D01*
X19917109Y-5812566D01*
X19917109Y-5812566D01*
X19931608Y-5815450D01*
X19931608Y-5815450D01*
X19946392Y-5815450D01*
X19957539Y-5813233D01*
X19960891Y-5812566D01*
X19974550Y-5806908D01*
X19986842Y-5798695D01*
X19997295Y-5788242D01*
X20005508Y-5775949D01*
X20011166Y-5762291D01*
X20012487Y-5755650D01*
X20014050Y-5747792D01*
X20014050Y-5733008D01*
X20011166Y-5718509D01*
X20011166Y-5718509D01*
X20011166Y-5718509D01*
X20009070Y-5713450D01*
X20005509Y-5704851D01*
X20005508Y-5704850D01*
X19997451Y-5692792D01*
X21387950Y-5692792D01*
X21390834Y-5707291D01*
X21390834Y-5707292D01*
X21396491Y-5720949D01*
X21396492Y-5720950D01*
X21404705Y-5733241D01*
X21404705Y-5733242D01*
X21415158Y-5743695D01*
X21415158Y-5743695D01*
X21427450Y-5751908D01*
X21427451Y-5751909D01*
X21441108Y-5757566D01*
X21441109Y-5757566D01*
X21441109Y-5757566D01*
X21441109Y-5757566D01*
X21455608Y-5760450D01*
X21455608Y-5760450D01*
X21470392Y-5760450D01*
X21480146Y-5758510D01*
X21484891Y-5757566D01*
X21498550Y-5751908D01*
X21510842Y-5743695D01*
X21521295Y-5733242D01*
X21529508Y-5720949D01*
X21529548Y-5720853D01*
X21531579Y-5715950D01*
X21535166Y-5707291D01*
X21538050Y-5692792D01*
X21538050Y-5678008D01*
X21538050Y-5678008D01*
X21535166Y-5663509D01*
X21535166Y-5663509D01*
X21535166Y-5663509D01*
X21531437Y-5654505D01*
X21529509Y-5649851D01*
X21529508Y-5649850D01*
X21521295Y-5637558D01*
X21521295Y-5637558D01*
X21510842Y-5627105D01*
X21510842Y-5627105D01*
X21498550Y-5618892D01*
X21498549Y-5618891D01*
X21484892Y-5613234D01*
X21484891Y-5613234D01*
X21470392Y-5610350D01*
X21470392Y-5610350D01*
X21455608Y-5610350D01*
X21455608Y-5610350D01*
X21441109Y-5613234D01*
X21441108Y-5613234D01*
X21427451Y-5618891D01*
X21427450Y-5618892D01*
X21415158Y-5627105D01*
X21415158Y-5627105D01*
X21404705Y-5637558D01*
X21404705Y-5637558D01*
X21396492Y-5649850D01*
X21396491Y-5649851D01*
X21390834Y-5663508D01*
X21390834Y-5663509D01*
X21387950Y-5678008D01*
X21387950Y-5678008D01*
X21387950Y-5692792D01*
X21387950Y-5692792D01*
X21387950Y-5692792D01*
X19997451Y-5692792D01*
X19997295Y-5692558D01*
X19997295Y-5692558D01*
X19986842Y-5682105D01*
X19986842Y-5682105D01*
X19974550Y-5673892D01*
X19974549Y-5673891D01*
X19960892Y-5668234D01*
X19960891Y-5668234D01*
X19946392Y-5665350D01*
X19946392Y-5665350D01*
X19931608Y-5665350D01*
X19931608Y-5665350D01*
X19917109Y-5668234D01*
X19917108Y-5668234D01*
X19903451Y-5673891D01*
X19903450Y-5673892D01*
X19891158Y-5682105D01*
X19891158Y-5682105D01*
X19880705Y-5692558D01*
X19880705Y-5692558D01*
X19872492Y-5704850D01*
X19872491Y-5704851D01*
X19866834Y-5718508D01*
X19866834Y-5718509D01*
X19863950Y-5733008D01*
X19863950Y-5733008D01*
X19863950Y-5747792D01*
X19863950Y-5747792D01*
X19863950Y-5747792D01*
X17266190Y-5747792D01*
X17266147Y-5747687D01*
X17266146Y-5747687D01*
X17266146Y-5747687D01*
X17260534Y-5739288D01*
X17259028Y-5737033D01*
X17259027Y-5737033D01*
X17249967Y-5727973D01*
X17249967Y-5727972D01*
X17239313Y-5720854D01*
X17239312Y-5720853D01*
X17227474Y-5715950D01*
X17227474Y-5715950D01*
X17214907Y-5713450D01*
X17214907Y-5713450D01*
X17202093Y-5713450D01*
X17202093Y-5713450D01*
X17189526Y-5715950D01*
X17189526Y-5715950D01*
X17177688Y-5720853D01*
X17177687Y-5720854D01*
X17167033Y-5727972D01*
X17167033Y-5727973D01*
X17157973Y-5737033D01*
X17157972Y-5737033D01*
X17150854Y-5747687D01*
X17150853Y-5747687D01*
X17145950Y-5759525D01*
X17145950Y-5759526D01*
X17143450Y-5772093D01*
X17143450Y-5772093D01*
X17143450Y-5784907D01*
X17143450Y-5784907D01*
X17143450Y-5784907D01*
X14078061Y-5784907D01*
X14078436Y-5446207D01*
X15153350Y-5446207D01*
X15153350Y-5463593D01*
X15156070Y-5480764D01*
X15156070Y-5480764D01*
X15161442Y-5497298D01*
X15169334Y-5512788D01*
X15169335Y-5512788D01*
X15179553Y-5526853D01*
X15191847Y-5539147D01*
X15191847Y-5539147D01*
X15192840Y-5539868D01*
X15197107Y-5545401D01*
X15197704Y-5552363D01*
X15194444Y-5558542D01*
X15192840Y-5559932D01*
X15191847Y-5560653D01*
X15191846Y-5560654D01*
X15179554Y-5572946D01*
X15179554Y-5572947D01*
X15179553Y-5572947D01*
X15175165Y-5578987D01*
X15169335Y-5587012D01*
X15161442Y-5602502D01*
X15156070Y-5619036D01*
X15156070Y-5619036D01*
X15153350Y-5636207D01*
X15153350Y-5653592D01*
X15156070Y-5670764D01*
X15156070Y-5670764D01*
X15161442Y-5687298D01*
X15164241Y-5692792D01*
X15169335Y-5702788D01*
X15179553Y-5716853D01*
X15191847Y-5729146D01*
X15205912Y-5739365D01*
X15214878Y-5743934D01*
X15221402Y-5747258D01*
X15237936Y-5752630D01*
X15237936Y-5752630D01*
X15237936Y-5752630D01*
X15255107Y-5755350D01*
X15255107Y-5755350D01*
X15272492Y-5755350D01*
X15272493Y-5755350D01*
X15289664Y-5752630D01*
X15289664Y-5752630D01*
X15289664Y-5752630D01*
X15306198Y-5747258D01*
X15306198Y-5747258D01*
X15306198Y-5747258D01*
X15321688Y-5739365D01*
X15335753Y-5729146D01*
X15348046Y-5716853D01*
X15358265Y-5702788D01*
X15366158Y-5687298D01*
X15367845Y-5682105D01*
X15371341Y-5671346D01*
X16551750Y-5671346D01*
X16554538Y-5685361D01*
X16554538Y-5685362D01*
X16560007Y-5698565D01*
X16560007Y-5698566D01*
X16567947Y-5710448D01*
X16567947Y-5710448D01*
X16578052Y-5720553D01*
X16578052Y-5720553D01*
X16589934Y-5728492D01*
X16589935Y-5728493D01*
X16589935Y-5728493D01*
X16603138Y-5733962D01*
X16603138Y-5733962D01*
X16603138Y-5733962D01*
X16617154Y-5736750D01*
X16617154Y-5736750D01*
X16631446Y-5736750D01*
X16640875Y-5734874D01*
X16645462Y-5733962D01*
X16658665Y-5728493D01*
X16670548Y-5720553D01*
X16680653Y-5710448D01*
X16688593Y-5698565D01*
X16694062Y-5685362D01*
X16695525Y-5678008D01*
X16696850Y-5671346D01*
X16696850Y-5657054D01*
X16694062Y-5643038D01*
X16694062Y-5643038D01*
X16694062Y-5643038D01*
X16688593Y-5629835D01*
X16688593Y-5629835D01*
X16688592Y-5629834D01*
X16680653Y-5617952D01*
X16680653Y-5617952D01*
X16670548Y-5607847D01*
X16670548Y-5607847D01*
X16658666Y-5599907D01*
X16658665Y-5599907D01*
X16645462Y-5594438D01*
X16645461Y-5594438D01*
X16631446Y-5591650D01*
X16631445Y-5591650D01*
X16617154Y-5591650D01*
X16617154Y-5591650D01*
X16603138Y-5594438D01*
X16603138Y-5594438D01*
X16589935Y-5599907D01*
X16589934Y-5599907D01*
X16578052Y-5607847D01*
X16578052Y-5607847D01*
X16567947Y-5617952D01*
X16567947Y-5617952D01*
X16560007Y-5629834D01*
X16560007Y-5629835D01*
X16554538Y-5643038D01*
X16554538Y-5643038D01*
X16551750Y-5657054D01*
X16551750Y-5657054D01*
X16551750Y-5671345D01*
X16551750Y-5671346D01*
X16551750Y-5671346D01*
X15371341Y-5671346D01*
X15371530Y-5670764D01*
X15371530Y-5670764D01*
X15371530Y-5670764D01*
X15374250Y-5653593D01*
X15374250Y-5636207D01*
X15371530Y-5619036D01*
X15371530Y-5619036D01*
X15371530Y-5619036D01*
X15366158Y-5602502D01*
X15362049Y-5594438D01*
X15358265Y-5587012D01*
X15348046Y-5572947D01*
X15335753Y-5560654D01*
X15334760Y-5559932D01*
X15330493Y-5554399D01*
X15329895Y-5547438D01*
X15333156Y-5541258D01*
X15334760Y-5539868D01*
X15335753Y-5539147D01*
X15343993Y-5530907D01*
X16952950Y-5530907D01*
X16955450Y-5543474D01*
X16955450Y-5543474D01*
X16960353Y-5555312D01*
X16960354Y-5555313D01*
X16967472Y-5565967D01*
X16967473Y-5565967D01*
X16976533Y-5575027D01*
X16976533Y-5575028D01*
X16987187Y-5582146D01*
X16987187Y-5582146D01*
X16987187Y-5582147D01*
X16999026Y-5587050D01*
X16999026Y-5587050D01*
X16999026Y-5587050D01*
X17011593Y-5589550D01*
X17011593Y-5589550D01*
X17024407Y-5589550D01*
X17032862Y-5587868D01*
X17036974Y-5587050D01*
X17048813Y-5582147D01*
X17059467Y-5575028D01*
X17068528Y-5565967D01*
X17075647Y-5555313D01*
X17080550Y-5543474D01*
X17083050Y-5530907D01*
X17083050Y-5518093D01*
X17083050Y-5518093D01*
X17080550Y-5505526D01*
X17080550Y-5505526D01*
X17080550Y-5505526D01*
X17075647Y-5493687D01*
X17075646Y-5493687D01*
X17075646Y-5493687D01*
X17068528Y-5483033D01*
X17068527Y-5483033D01*
X17059467Y-5473973D01*
X17059467Y-5473972D01*
X17048813Y-5466854D01*
X17048812Y-5466853D01*
X17036974Y-5461950D01*
X17036974Y-5461950D01*
X17024407Y-5459450D01*
X17024407Y-5459450D01*
X17011593Y-5459450D01*
X17011593Y-5459450D01*
X16999026Y-5461950D01*
X16999026Y-5461950D01*
X16987188Y-5466853D01*
X16987187Y-5466854D01*
X16976533Y-5473972D01*
X16976533Y-5473973D01*
X16967473Y-5483033D01*
X16967472Y-5483033D01*
X16960354Y-5493687D01*
X16960353Y-5493688D01*
X16955450Y-5505526D01*
X16955450Y-5505526D01*
X16952950Y-5518093D01*
X16952950Y-5518093D01*
X16952950Y-5530907D01*
X16952950Y-5530907D01*
X16952950Y-5530907D01*
X15343993Y-5530907D01*
X15348046Y-5526853D01*
X15358265Y-5512788D01*
X15358504Y-5512319D01*
X15358741Y-5511854D01*
X15362880Y-5503731D01*
X15366158Y-5497298D01*
X15367331Y-5493687D01*
X15371530Y-5480764D01*
X15371530Y-5480764D01*
X15371530Y-5480764D01*
X15374250Y-5463593D01*
X15374250Y-5446207D01*
X15371530Y-5429036D01*
X15371530Y-5429036D01*
X15371530Y-5429036D01*
X15366158Y-5412502D01*
X15365078Y-5410382D01*
X15362155Y-5404646D01*
X15611950Y-5404646D01*
X15614738Y-5418661D01*
X15614738Y-5418662D01*
X15620207Y-5431865D01*
X15620207Y-5431866D01*
X15628147Y-5443748D01*
X15628147Y-5443748D01*
X15638252Y-5453853D01*
X15638252Y-5453853D01*
X15650134Y-5461793D01*
X15650135Y-5461793D01*
X15650135Y-5461793D01*
X15663338Y-5467262D01*
X15663338Y-5467262D01*
X15663338Y-5467262D01*
X15677354Y-5470050D01*
X15677354Y-5470050D01*
X15691646Y-5470050D01*
X15701075Y-5468174D01*
X15705662Y-5467262D01*
X15718865Y-5461793D01*
X15730748Y-5453853D01*
X15740853Y-5443748D01*
X15748793Y-5431865D01*
X15754262Y-5418662D01*
X15755909Y-5410382D01*
X15757050Y-5404646D01*
X15757050Y-5390354D01*
X15754262Y-5376339D01*
X15754262Y-5376338D01*
X15754262Y-5376338D01*
X15749137Y-5363967D01*
X15748793Y-5363135D01*
X15748792Y-5363134D01*
X15740853Y-5351252D01*
X15740853Y-5351252D01*
X15730748Y-5341147D01*
X15730748Y-5341147D01*
X15718866Y-5333207D01*
X15718865Y-5333207D01*
X15705662Y-5327738D01*
X15705661Y-5327738D01*
X15691646Y-5324950D01*
X15691645Y-5324950D01*
X15677354Y-5324950D01*
X15677354Y-5324950D01*
X15663338Y-5327738D01*
X15663338Y-5327738D01*
X15650135Y-5333207D01*
X15650134Y-5333207D01*
X15638252Y-5341147D01*
X15638252Y-5341147D01*
X15628147Y-5351252D01*
X15628147Y-5351252D01*
X15620207Y-5363134D01*
X15620207Y-5363135D01*
X15614738Y-5376338D01*
X15614738Y-5376339D01*
X15611950Y-5390354D01*
X15611950Y-5390355D01*
X15611950Y-5404646D01*
X15611950Y-5404646D01*
X15611950Y-5404646D01*
X15362155Y-5404646D01*
X15358265Y-5397012D01*
X15348046Y-5382947D01*
X15335753Y-5370654D01*
X15321688Y-5360435D01*
X15311565Y-5355277D01*
X15306198Y-5352542D01*
X15289664Y-5347170D01*
X15276785Y-5345130D01*
X15272493Y-5344450D01*
X15255107Y-5344450D01*
X15249384Y-5345357D01*
X15237936Y-5347170D01*
X15237936Y-5347170D01*
X15221402Y-5352542D01*
X15205911Y-5360435D01*
X15200172Y-5364605D01*
X15191847Y-5370654D01*
X15191846Y-5370654D01*
X15191846Y-5370654D01*
X15179554Y-5382946D01*
X15179554Y-5382947D01*
X15179553Y-5382947D01*
X15176353Y-5387351D01*
X15169335Y-5397012D01*
X15161442Y-5412502D01*
X15156070Y-5429036D01*
X15156070Y-5429036D01*
X15153350Y-5446207D01*
X14078436Y-5446207D01*
X14078599Y-5298292D01*
X16104750Y-5298292D01*
X16107634Y-5312791D01*
X16107634Y-5312792D01*
X16113291Y-5326449D01*
X16113292Y-5326450D01*
X16121505Y-5338742D01*
X16121505Y-5338742D01*
X16130895Y-5348132D01*
X16134244Y-5354264D01*
X16133745Y-5361233D01*
X16130895Y-5365668D01*
X16121505Y-5375058D01*
X16121505Y-5375058D01*
X16113292Y-5387350D01*
X16113291Y-5387351D01*
X16107634Y-5401008D01*
X16107634Y-5401009D01*
X16104750Y-5415508D01*
X16104750Y-5415508D01*
X16104750Y-5430292D01*
X16104750Y-5430292D01*
X16104750Y-5430292D01*
X16107634Y-5444791D01*
X16107634Y-5444792D01*
X16113291Y-5458449D01*
X16113292Y-5458450D01*
X16121505Y-5470742D01*
X16121505Y-5470742D01*
X16131958Y-5481195D01*
X16131958Y-5481195D01*
X16144250Y-5489408D01*
X16144251Y-5489409D01*
X16157908Y-5495066D01*
X16157909Y-5495066D01*
X16157909Y-5495066D01*
X16157909Y-5495066D01*
X16172408Y-5497950D01*
X16172408Y-5497950D01*
X16187192Y-5497950D01*
X16196946Y-5496010D01*
X16201691Y-5495066D01*
X16215349Y-5489408D01*
X16227642Y-5481195D01*
X16238095Y-5470742D01*
X16246308Y-5458450D01*
X16251966Y-5444791D01*
X16254850Y-5430292D01*
X16254850Y-5415508D01*
X16254850Y-5415508D01*
X16251966Y-5401009D01*
X16251966Y-5401009D01*
X16251966Y-5401009D01*
X16251398Y-5399639D01*
X16246309Y-5387351D01*
X16246308Y-5387350D01*
X16238095Y-5375058D01*
X16238095Y-5375058D01*
X16228705Y-5365668D01*
X16225356Y-5359536D01*
X16225855Y-5352567D01*
X16228705Y-5348132D01*
X16238095Y-5338742D01*
X16238095Y-5338742D01*
X16246308Y-5326450D01*
X16251966Y-5312791D01*
X16254850Y-5298292D01*
X16254850Y-5283508D01*
X16254850Y-5283508D01*
X16251966Y-5269009D01*
X16251966Y-5269009D01*
X16251966Y-5269009D01*
X16248700Y-5261123D01*
X16246309Y-5255351D01*
X16246308Y-5255350D01*
X16238095Y-5243058D01*
X16238095Y-5243058D01*
X16227642Y-5232605D01*
X16227641Y-5232605D01*
X16215350Y-5224392D01*
X16215349Y-5224391D01*
X16201692Y-5218734D01*
X16201691Y-5218734D01*
X16187192Y-5215850D01*
X16187192Y-5215850D01*
X16172408Y-5215850D01*
X16172408Y-5215850D01*
X16157909Y-5218734D01*
X16157908Y-5218734D01*
X16144251Y-5224391D01*
X16144250Y-5224392D01*
X16131958Y-5232605D01*
X16131958Y-5232605D01*
X16121505Y-5243058D01*
X16121505Y-5243058D01*
X16113292Y-5255350D01*
X16113291Y-5255351D01*
X16107634Y-5269008D01*
X16107634Y-5269009D01*
X16104750Y-5283508D01*
X16104750Y-5283508D01*
X16104750Y-5298292D01*
X16104750Y-5298292D01*
X16104750Y-5298292D01*
X14078599Y-5298292D01*
X14078720Y-5188746D01*
X19129850Y-5188746D01*
X19132638Y-5202761D01*
X19132638Y-5202762D01*
X19138107Y-5215965D01*
X19138107Y-5215966D01*
X19146047Y-5227848D01*
X19146047Y-5227848D01*
X19156152Y-5237953D01*
X19156152Y-5237953D01*
X19168034Y-5245893D01*
X19168035Y-5245893D01*
X19168035Y-5245893D01*
X19181238Y-5251362D01*
X19181238Y-5251362D01*
X19181239Y-5251362D01*
X19195254Y-5254150D01*
X19195255Y-5254150D01*
X19209546Y-5254150D01*
X19218975Y-5252274D01*
X19223562Y-5251362D01*
X19236765Y-5245893D01*
X19248648Y-5237953D01*
X19258753Y-5227848D01*
X19266693Y-5215965D01*
X19272162Y-5202762D01*
X19274950Y-5188746D01*
X19274950Y-5174455D01*
X19274950Y-5174454D01*
X19272162Y-5160439D01*
X19272162Y-5160438D01*
X19272162Y-5160438D01*
X19266693Y-5147235D01*
X19266693Y-5147235D01*
X19266693Y-5147234D01*
X19258753Y-5135352D01*
X19258753Y-5135352D01*
X19248648Y-5125247D01*
X19248648Y-5125247D01*
X19236766Y-5117307D01*
X19236765Y-5117307D01*
X19223562Y-5111838D01*
X19223561Y-5111838D01*
X19209546Y-5109050D01*
X19209546Y-5109050D01*
X19195255Y-5109050D01*
X19195254Y-5109050D01*
X19181239Y-5111838D01*
X19181238Y-5111838D01*
X19168035Y-5117307D01*
X19168034Y-5117307D01*
X19156152Y-5125247D01*
X19156152Y-5125247D01*
X19146047Y-5135352D01*
X19146047Y-5135352D01*
X19138107Y-5147234D01*
X19138107Y-5147235D01*
X19132638Y-5160438D01*
X19132638Y-5160439D01*
X19129850Y-5174454D01*
X19129850Y-5174455D01*
X19129850Y-5188746D01*
X19129850Y-5188746D01*
X19129850Y-5188746D01*
X14078720Y-5188746D01*
X14078861Y-5061746D01*
X16424750Y-5061746D01*
X16427538Y-5075761D01*
X16427538Y-5075762D01*
X16433007Y-5088965D01*
X16433007Y-5088966D01*
X16440947Y-5100848D01*
X16440947Y-5100848D01*
X16451052Y-5110953D01*
X16451052Y-5110953D01*
X16462934Y-5118893D01*
X16462935Y-5118893D01*
X16462935Y-5118893D01*
X16476138Y-5124362D01*
X16476138Y-5124362D01*
X16476138Y-5124362D01*
X16490154Y-5127150D01*
X16490154Y-5127150D01*
X16504446Y-5127150D01*
X16514014Y-5125247D01*
X16518462Y-5124362D01*
X16531665Y-5118893D01*
X16543548Y-5110953D01*
X16553653Y-5100848D01*
X16561593Y-5088965D01*
X16567062Y-5075762D01*
X16568181Y-5070137D01*
X16569850Y-5061746D01*
X16569850Y-5047454D01*
X16567062Y-5033439D01*
X16567062Y-5033438D01*
X16567062Y-5033438D01*
X16561593Y-5020235D01*
X16561593Y-5020235D01*
X16561592Y-5020234D01*
X16553653Y-5008352D01*
X16553653Y-5008352D01*
X16543548Y-4998247D01*
X16543548Y-4998247D01*
X16531666Y-4990307D01*
X16531665Y-4990307D01*
X16518462Y-4984838D01*
X16518461Y-4984838D01*
X16504446Y-4982050D01*
X16504445Y-4982050D01*
X16490154Y-4982050D01*
X16490154Y-4982050D01*
X16476138Y-4984838D01*
X16476138Y-4984838D01*
X16462935Y-4990307D01*
X16462934Y-4990307D01*
X16451052Y-4998247D01*
X16451052Y-4998247D01*
X16440947Y-5008352D01*
X16440947Y-5008352D01*
X16433007Y-5020234D01*
X16433007Y-5020235D01*
X16427538Y-5033438D01*
X16427538Y-5033439D01*
X16424750Y-5047454D01*
X16424750Y-5047455D01*
X16424750Y-5061746D01*
X16424750Y-5061746D01*
X16424750Y-5061746D01*
X14078861Y-5061746D01*
X14079072Y-4871246D01*
X18952050Y-4871246D01*
X18954838Y-4885261D01*
X18954838Y-4885262D01*
X18960307Y-4898465D01*
X18960307Y-4898466D01*
X18968247Y-4910348D01*
X18968247Y-4910348D01*
X18978352Y-4920453D01*
X18978352Y-4920453D01*
X18990234Y-4928393D01*
X18990235Y-4928393D01*
X18993226Y-4929632D01*
X19003438Y-4933862D01*
X19003438Y-4933862D01*
X19003439Y-4933862D01*
X19017454Y-4936650D01*
X19017455Y-4936650D01*
X19031746Y-4936650D01*
X19041175Y-4934774D01*
X19045762Y-4933862D01*
X19058965Y-4928393D01*
X19070848Y-4920453D01*
X19080953Y-4910348D01*
X19088893Y-4898465D01*
X19094362Y-4885262D01*
X19095624Y-4878918D01*
X19097150Y-4871246D01*
X19097150Y-4856954D01*
X19094362Y-4842939D01*
X19094362Y-4842938D01*
X19094362Y-4842938D01*
X19088893Y-4829735D01*
X19088893Y-4829735D01*
X19088893Y-4829734D01*
X19080953Y-4817852D01*
X19080953Y-4817852D01*
X19070848Y-4807747D01*
X19070848Y-4807747D01*
X19058966Y-4799807D01*
X19058965Y-4799807D01*
X19045762Y-4794338D01*
X19045761Y-4794338D01*
X19031746Y-4791550D01*
X19031746Y-4791550D01*
X19017455Y-4791550D01*
X19017454Y-4791550D01*
X19003439Y-4794338D01*
X19003438Y-4794338D01*
X18990235Y-4799807D01*
X18990234Y-4799807D01*
X18978352Y-4807747D01*
X18978352Y-4807747D01*
X18968247Y-4817852D01*
X18968247Y-4817852D01*
X18960307Y-4829734D01*
X18960307Y-4829735D01*
X18954838Y-4842938D01*
X18954838Y-4842939D01*
X18952050Y-4856954D01*
X18952050Y-4856955D01*
X18952050Y-4871246D01*
X18952050Y-4871246D01*
X18952050Y-4871246D01*
X14079072Y-4871246D01*
X14079348Y-4621765D01*
X14311950Y-4621765D01*
X14311950Y-4642235D01*
X14315152Y-4662453D01*
X14321478Y-4681922D01*
X14330771Y-4700161D01*
X14342803Y-4716721D01*
X14357279Y-4731197D01*
X14372775Y-4742456D01*
X14373839Y-4743229D01*
X14385461Y-4749150D01*
X14392078Y-4752522D01*
X14392078Y-4752522D01*
X14392078Y-4752522D01*
X14402514Y-4755913D01*
X14411546Y-4758848D01*
X14421656Y-4760449D01*
X14431765Y-4762050D01*
X14431765Y-4762050D01*
X14452235Y-4762050D01*
X14452235Y-4762050D01*
X14472453Y-4758848D01*
X14491922Y-4752522D01*
X14510161Y-4743229D01*
X14519459Y-4736473D01*
X14526721Y-4731197D01*
X14526721Y-4731197D01*
X14526722Y-4731197D01*
X14541197Y-4716722D01*
X14541197Y-4716722D01*
X14541197Y-4716721D01*
X14548399Y-4706808D01*
X14553229Y-4700161D01*
X14562522Y-4681922D01*
X14568848Y-4662453D01*
X14572050Y-4642235D01*
X14572050Y-4621765D01*
X14570117Y-4609559D01*
X14568848Y-4601547D01*
X14562872Y-4583156D01*
X14562522Y-4582078D01*
X14562522Y-4582078D01*
X14562522Y-4582078D01*
X14555376Y-4568053D01*
X14553229Y-4563839D01*
X14546119Y-4554053D01*
X14541197Y-4547279D01*
X14526721Y-4532803D01*
X14510161Y-4520772D01*
X14510161Y-4520771D01*
X14510161Y-4520771D01*
X14504465Y-4517869D01*
X14491922Y-4511478D01*
X14472453Y-4505152D01*
X14454999Y-4502388D01*
X14452235Y-4501950D01*
X14431765Y-4501950D01*
X14429333Y-4502335D01*
X14411546Y-4505152D01*
X14392078Y-4511478D01*
X14373839Y-4520772D01*
X14357279Y-4532803D01*
X14342803Y-4547279D01*
X14330771Y-4563839D01*
X14321478Y-4582078D01*
X14315152Y-4601547D01*
X14311950Y-4621765D01*
X14079348Y-4621765D01*
X14079355Y-4615495D01*
X14079362Y-4615397D01*
X14079362Y-4609559D01*
X14079363Y-4607924D01*
X14079365Y-4606758D01*
X14079365Y-4606758D01*
X14079365Y-4605995D01*
X14079362Y-4605933D01*
X14079362Y-4447371D01*
X15032950Y-4447371D01*
X15032950Y-4468629D01*
X15034526Y-4478583D01*
X15036275Y-4489624D01*
X15041321Y-4505152D01*
X15042844Y-4509841D01*
X15052495Y-4528782D01*
X15064989Y-4545979D01*
X15080021Y-4561011D01*
X15097218Y-4573505D01*
X15097218Y-4573505D01*
X15097218Y-4573505D01*
X15116159Y-4583156D01*
X15136376Y-4589725D01*
X15157371Y-4593050D01*
X15157371Y-4593050D01*
X15178629Y-4593050D01*
X15178629Y-4593050D01*
X15199624Y-4589725D01*
X15219841Y-4583156D01*
X15238782Y-4573505D01*
X15246286Y-4568053D01*
X15255979Y-4561011D01*
X15255979Y-4561011D01*
X15255979Y-4561010D01*
X15271010Y-4545979D01*
X15271011Y-4545979D01*
X15271011Y-4545979D01*
X15283505Y-4528782D01*
X15283505Y-4528782D01*
X15283505Y-4528782D01*
X15283951Y-4527905D01*
X15288749Y-4522826D01*
X15295531Y-4521146D01*
X15302144Y-4523400D01*
X15306049Y-4527906D01*
X15306495Y-4528782D01*
X15318989Y-4545979D01*
X15334021Y-4561011D01*
X15351218Y-4573505D01*
X15351218Y-4573505D01*
X15351218Y-4573505D01*
X15370159Y-4583156D01*
X15390376Y-4589725D01*
X15411371Y-4593050D01*
X15411371Y-4593050D01*
X15432629Y-4593050D01*
X15432629Y-4593050D01*
X15453624Y-4589725D01*
X15473841Y-4583156D01*
X15492782Y-4573505D01*
X15500286Y-4568053D01*
X15509979Y-4561011D01*
X15509979Y-4561011D01*
X15509979Y-4561010D01*
X15525010Y-4545979D01*
X15525011Y-4545979D01*
X15525011Y-4545979D01*
X15537505Y-4528782D01*
X15537505Y-4528782D01*
X15537505Y-4528782D01*
X15537951Y-4527905D01*
X15542749Y-4522826D01*
X15549531Y-4521146D01*
X15556144Y-4523400D01*
X15560049Y-4527906D01*
X15560495Y-4528782D01*
X15572989Y-4545979D01*
X15588021Y-4561011D01*
X15605218Y-4573505D01*
X15605218Y-4573505D01*
X15605218Y-4573505D01*
X15624159Y-4583156D01*
X15644376Y-4589725D01*
X15665371Y-4593050D01*
X15665371Y-4593050D01*
X15686629Y-4593050D01*
X15686629Y-4593050D01*
X15707624Y-4589725D01*
X15727841Y-4583156D01*
X15746782Y-4573505D01*
X15754286Y-4568053D01*
X15763979Y-4561011D01*
X15763979Y-4561011D01*
X15763979Y-4561010D01*
X15779010Y-4545979D01*
X15779011Y-4545979D01*
X15779011Y-4545979D01*
X15791505Y-4528782D01*
X15791505Y-4528782D01*
X15791505Y-4528782D01*
X15791951Y-4527905D01*
X15796749Y-4522826D01*
X15803531Y-4521146D01*
X15810144Y-4523400D01*
X15814049Y-4527906D01*
X15814495Y-4528782D01*
X15826989Y-4545979D01*
X15842021Y-4561011D01*
X15859218Y-4573505D01*
X15859218Y-4573505D01*
X15859218Y-4573505D01*
X15878159Y-4583156D01*
X15898376Y-4589725D01*
X15919371Y-4593050D01*
X15919371Y-4593050D01*
X15940629Y-4593050D01*
X15940629Y-4593050D01*
X15961624Y-4589725D01*
X15981841Y-4583156D01*
X16000782Y-4573505D01*
X16009448Y-4567209D01*
X16017978Y-4561011D01*
X16017978Y-4561011D01*
X16017979Y-4561010D01*
X16029372Y-4549618D01*
X16035504Y-4546270D01*
X16042473Y-4546768D01*
X16048066Y-4550955D01*
X16049758Y-4554053D01*
X16054665Y-4567209D01*
X16054665Y-4567209D01*
X16063281Y-4578719D01*
X16063281Y-4578719D01*
X16074791Y-4587335D01*
X16074791Y-4587335D01*
X16088262Y-4592360D01*
X16088263Y-4592360D01*
X16094215Y-4593000D01*
X16094217Y-4593000D01*
X16159000Y-4593000D01*
X16159000Y-4501301D01*
X16164701Y-4504593D01*
X16177417Y-4508000D01*
X16190583Y-4508000D01*
X16203299Y-4504593D01*
X16209000Y-4501301D01*
X16209000Y-4593000D01*
X16273783Y-4593000D01*
X16273784Y-4593000D01*
X16279737Y-4592360D01*
X16279738Y-4592360D01*
X16293209Y-4587335D01*
X16293209Y-4587335D01*
X16304719Y-4578719D01*
X16304719Y-4578719D01*
X16313335Y-4567209D01*
X16313335Y-4567209D01*
X16318360Y-4553738D01*
X16318360Y-4553737D01*
X16319000Y-4547784D01*
X16319000Y-4547783D01*
X16319000Y-4483000D01*
X16227301Y-4483000D01*
X16230592Y-4477299D01*
X16234000Y-4464583D01*
X16234000Y-4461371D01*
X17223950Y-4461371D01*
X17223950Y-4482629D01*
X17226386Y-4498010D01*
X17227275Y-4503624D01*
X17232847Y-4520771D01*
X17233844Y-4523841D01*
X17243495Y-4542782D01*
X17255989Y-4559979D01*
X17271021Y-4575011D01*
X17288218Y-4587505D01*
X17288218Y-4587505D01*
X17288218Y-4587505D01*
X17307159Y-4597156D01*
X17327376Y-4603725D01*
X17348371Y-4607050D01*
X17348371Y-4607050D01*
X17369629Y-4607050D01*
X17369629Y-4607050D01*
X17390624Y-4603725D01*
X17410841Y-4597156D01*
X17429782Y-4587505D01*
X17438448Y-4581209D01*
X17446979Y-4575011D01*
X17446979Y-4575011D01*
X17446979Y-4575010D01*
X17462010Y-4559979D01*
X17462011Y-4559979D01*
X17462011Y-4559979D01*
X17474505Y-4542782D01*
X17474505Y-4542782D01*
X17474505Y-4542782D01*
X17474951Y-4541905D01*
X17479749Y-4536826D01*
X17486531Y-4535146D01*
X17493144Y-4537400D01*
X17497049Y-4541906D01*
X17497495Y-4542782D01*
X17509989Y-4559979D01*
X17525021Y-4575011D01*
X17542218Y-4587505D01*
X17542218Y-4587505D01*
X17542218Y-4587505D01*
X17561159Y-4597156D01*
X17581376Y-4603725D01*
X17602371Y-4607050D01*
X17602371Y-4607050D01*
X17623629Y-4607050D01*
X17623629Y-4607050D01*
X17644624Y-4603725D01*
X17664841Y-4597156D01*
X17683782Y-4587505D01*
X17692448Y-4581209D01*
X17700979Y-4575011D01*
X17700979Y-4575011D01*
X17700979Y-4575010D01*
X17716010Y-4559979D01*
X17716011Y-4559979D01*
X17716011Y-4559979D01*
X17728505Y-4542782D01*
X17728505Y-4542782D01*
X17728505Y-4542782D01*
X17728951Y-4541905D01*
X17733749Y-4536826D01*
X17740531Y-4535146D01*
X17747144Y-4537400D01*
X17751049Y-4541906D01*
X17751495Y-4542782D01*
X17763989Y-4559979D01*
X17779021Y-4575011D01*
X17796218Y-4587505D01*
X17796218Y-4587505D01*
X17796218Y-4587505D01*
X17815159Y-4597156D01*
X17835376Y-4603725D01*
X17856371Y-4607050D01*
X17856371Y-4607050D01*
X17877629Y-4607050D01*
X17877629Y-4607050D01*
X17898624Y-4603725D01*
X17918841Y-4597156D01*
X17937782Y-4587505D01*
X17946448Y-4581209D01*
X17954978Y-4575011D01*
X17954978Y-4575011D01*
X17954979Y-4575010D01*
X17966372Y-4563618D01*
X17972504Y-4560270D01*
X17979473Y-4560768D01*
X17985066Y-4564955D01*
X17986758Y-4568053D01*
X17991665Y-4581209D01*
X17991665Y-4581209D01*
X18000281Y-4592719D01*
X18000281Y-4592719D01*
X18011791Y-4601335D01*
X18011791Y-4601335D01*
X18025262Y-4606360D01*
X18025263Y-4606360D01*
X18031216Y-4607000D01*
X18031217Y-4607000D01*
X18096000Y-4607000D01*
X18096000Y-4515301D01*
X18101701Y-4518593D01*
X18114417Y-4522000D01*
X18127583Y-4522000D01*
X18140299Y-4518593D01*
X18146000Y-4515301D01*
X18146000Y-4607000D01*
X18210783Y-4607000D01*
X18210784Y-4607000D01*
X18216737Y-4606360D01*
X18216738Y-4606360D01*
X18230209Y-4601335D01*
X18230209Y-4601335D01*
X18241719Y-4592719D01*
X18241719Y-4592719D01*
X18250335Y-4581209D01*
X18250335Y-4581209D01*
X18255360Y-4567738D01*
X18255360Y-4567737D01*
X18256000Y-4561784D01*
X18256000Y-4561783D01*
X18256000Y-4497000D01*
X18164301Y-4497000D01*
X18167593Y-4491299D01*
X18171000Y-4478583D01*
X18171000Y-4465417D01*
X18167593Y-4452701D01*
X18164301Y-4447000D01*
X18256000Y-4447000D01*
X18256000Y-4382217D01*
X18256000Y-4382216D01*
X18255360Y-4376263D01*
X18255360Y-4376262D01*
X18250335Y-4362791D01*
X18250335Y-4362791D01*
X18241719Y-4351281D01*
X18241719Y-4351281D01*
X18230209Y-4342665D01*
X18230209Y-4342665D01*
X18216738Y-4337640D01*
X18216737Y-4337640D01*
X18210784Y-4337000D01*
X18146000Y-4337000D01*
X18146000Y-4428699D01*
X18140299Y-4425408D01*
X18127583Y-4422000D01*
X18114417Y-4422000D01*
X18101701Y-4425408D01*
X18096000Y-4428699D01*
X18096000Y-4337000D01*
X18031216Y-4337000D01*
X18025263Y-4337640D01*
X18025262Y-4337640D01*
X18011791Y-4342665D01*
X18011791Y-4342665D01*
X18000281Y-4351281D01*
X18000281Y-4351281D01*
X17991665Y-4362791D01*
X17991665Y-4362791D01*
X17986758Y-4375947D01*
X17982571Y-4381540D01*
X17976024Y-4383982D01*
X17969197Y-4382497D01*
X17966371Y-4380382D01*
X17954979Y-4368989D01*
X17937782Y-4356495D01*
X17918841Y-4346844D01*
X17918841Y-4346844D01*
X17918841Y-4346844D01*
X17898624Y-4340275D01*
X17898624Y-4340275D01*
X17898624Y-4340275D01*
X17882496Y-4337721D01*
X17877629Y-4336950D01*
X17856371Y-4336950D01*
X17851504Y-4337721D01*
X17835376Y-4340275D01*
X17815159Y-4346844D01*
X17796218Y-4356495D01*
X17779021Y-4368989D01*
X17763989Y-4384021D01*
X17751495Y-4401218D01*
X17751048Y-4402095D01*
X17746251Y-4407174D01*
X17739469Y-4408854D01*
X17732855Y-4406600D01*
X17728952Y-4402095D01*
X17728505Y-4401218D01*
X17716011Y-4384021D01*
X17700979Y-4368989D01*
X17683782Y-4356495D01*
X17664841Y-4346844D01*
X17664841Y-4346844D01*
X17664841Y-4346844D01*
X17644624Y-4340275D01*
X17644624Y-4340275D01*
X17644624Y-4340275D01*
X17628496Y-4337721D01*
X17623629Y-4336950D01*
X17602371Y-4336950D01*
X17597504Y-4337721D01*
X17581376Y-4340275D01*
X17561159Y-4346844D01*
X17542218Y-4356495D01*
X17525021Y-4368989D01*
X17509989Y-4384021D01*
X17497495Y-4401218D01*
X17497048Y-4402095D01*
X17492251Y-4407174D01*
X17485469Y-4408854D01*
X17478855Y-4406600D01*
X17474952Y-4402095D01*
X17474505Y-4401218D01*
X17462011Y-4384021D01*
X17446979Y-4368989D01*
X17429782Y-4356495D01*
X17410841Y-4346844D01*
X17410841Y-4346844D01*
X17410841Y-4346844D01*
X17390624Y-4340275D01*
X17390624Y-4340275D01*
X17390624Y-4340275D01*
X17374496Y-4337721D01*
X17369629Y-4336950D01*
X17348371Y-4336950D01*
X17343504Y-4337721D01*
X17327376Y-4340275D01*
X17307159Y-4346844D01*
X17288218Y-4356495D01*
X17271021Y-4368989D01*
X17255989Y-4384021D01*
X17243495Y-4401218D01*
X17233844Y-4420159D01*
X17227275Y-4440376D01*
X17223950Y-4461371D01*
X16234000Y-4461371D01*
X16234000Y-4451417D01*
X16230592Y-4438701D01*
X16227301Y-4433000D01*
X16319000Y-4433000D01*
X16319000Y-4368217D01*
X16319000Y-4368216D01*
X16318360Y-4362263D01*
X16318360Y-4362262D01*
X16313335Y-4348791D01*
X16313335Y-4348791D01*
X16304719Y-4337281D01*
X16304719Y-4337281D01*
X16293209Y-4328665D01*
X16293209Y-4328665D01*
X16279738Y-4323640D01*
X16279737Y-4323640D01*
X16273784Y-4323000D01*
X16209000Y-4323000D01*
X16209000Y-4414699D01*
X16203299Y-4411408D01*
X16190583Y-4408000D01*
X16177417Y-4408000D01*
X16164701Y-4411408D01*
X16159000Y-4414699D01*
X16159000Y-4323000D01*
X16094215Y-4323000D01*
X16088263Y-4323640D01*
X16088262Y-4323640D01*
X16074791Y-4328665D01*
X16074791Y-4328665D01*
X16063281Y-4337281D01*
X16063281Y-4337281D01*
X16054665Y-4348791D01*
X16054665Y-4348791D01*
X16049758Y-4361947D01*
X16045570Y-4367540D01*
X16039024Y-4369982D01*
X16032197Y-4368497D01*
X16029371Y-4366382D01*
X16017979Y-4354989D01*
X16000782Y-4342495D01*
X15981841Y-4332844D01*
X15981841Y-4332844D01*
X15981841Y-4332844D01*
X15961624Y-4326275D01*
X15961624Y-4326275D01*
X15961624Y-4326275D01*
X15945496Y-4323721D01*
X15940629Y-4322950D01*
X15919371Y-4322950D01*
X15914504Y-4323721D01*
X15898376Y-4326275D01*
X15878158Y-4332844D01*
X15859218Y-4342495D01*
X15842021Y-4354989D01*
X15826989Y-4370021D01*
X15814495Y-4387218D01*
X15814048Y-4388095D01*
X15809251Y-4393174D01*
X15802469Y-4394854D01*
X15795855Y-4392600D01*
X15791952Y-4388095D01*
X15791505Y-4387218D01*
X15779011Y-4370021D01*
X15763979Y-4354989D01*
X15746782Y-4342495D01*
X15727841Y-4332844D01*
X15727841Y-4332844D01*
X15727841Y-4332844D01*
X15707624Y-4326275D01*
X15707624Y-4326275D01*
X15707624Y-4326275D01*
X15691496Y-4323721D01*
X15686629Y-4322950D01*
X15665371Y-4322950D01*
X15660504Y-4323721D01*
X15644376Y-4326275D01*
X15624158Y-4332844D01*
X15605218Y-4342495D01*
X15588021Y-4354989D01*
X15572989Y-4370021D01*
X15560495Y-4387218D01*
X15560048Y-4388095D01*
X15555251Y-4393174D01*
X15548469Y-4394854D01*
X15541855Y-4392600D01*
X15537952Y-4388095D01*
X15537505Y-4387218D01*
X15525011Y-4370021D01*
X15509979Y-4354989D01*
X15492782Y-4342495D01*
X15473841Y-4332844D01*
X15473841Y-4332844D01*
X15473841Y-4332844D01*
X15453624Y-4326275D01*
X15453624Y-4326275D01*
X15453624Y-4326275D01*
X15437496Y-4323721D01*
X15432629Y-4322950D01*
X15411371Y-4322950D01*
X15406504Y-4323721D01*
X15390376Y-4326275D01*
X15370158Y-4332844D01*
X15351218Y-4342495D01*
X15334021Y-4354989D01*
X15318989Y-4370021D01*
X15306495Y-4387218D01*
X15306048Y-4388095D01*
X15301251Y-4393174D01*
X15294469Y-4394854D01*
X15287855Y-4392600D01*
X15283952Y-4388095D01*
X15283505Y-4387218D01*
X15271011Y-4370021D01*
X15255979Y-4354989D01*
X15238782Y-4342495D01*
X15219841Y-4332844D01*
X15219841Y-4332844D01*
X15219841Y-4332844D01*
X15199624Y-4326275D01*
X15199624Y-4326275D01*
X15199624Y-4326275D01*
X15183496Y-4323721D01*
X15178629Y-4322950D01*
X15157371Y-4322950D01*
X15152504Y-4323721D01*
X15136376Y-4326275D01*
X15116158Y-4332844D01*
X15097218Y-4342495D01*
X15080021Y-4354989D01*
X15064989Y-4370021D01*
X15052495Y-4387218D01*
X15042844Y-4406159D01*
X15036275Y-4426376D01*
X15032950Y-4447371D01*
X14079362Y-4447371D01*
X14079362Y-4376214D01*
X14079394Y-4375316D01*
X14080303Y-4362791D01*
X14081031Y-4352764D01*
X14081284Y-4351016D01*
X14086019Y-4329352D01*
X14086518Y-4327657D01*
X14088020Y-4323640D01*
X14094285Y-4306887D01*
X14095020Y-4305282D01*
X14105663Y-4285826D01*
X14106618Y-4284341D01*
X14119919Y-4266598D01*
X14121077Y-4265264D01*
X14136767Y-4249591D01*
X14138101Y-4248436D01*
X14155860Y-4235155D01*
X14157347Y-4234200D01*
X14176812Y-4223581D01*
X14178421Y-4222847D01*
X14199199Y-4215103D01*
X14200895Y-4214606D01*
X14222564Y-4209896D01*
X14224312Y-4209645D01*
X14246893Y-4208032D01*
X14247776Y-4208000D01*
X14252074Y-4208000D01*
X14252074Y-4208000D01*
X14254517Y-4208000D01*
X14254530Y-4208000D01*
X19601049Y-4208100D01*
G37*
%TD.AperFunction*%
%TD*%
M02*
