%TF.GenerationSoftware,KiCad,Pcbnew,9.0.4*%
%TF.CreationDate,2025-12-28T12:05:50+05:30*%
%TF.ProjectId,ESP-32 C3 demo project004,4553502d-3332-4204-9333-2064656d6f20,rev?*%
%TF.SameCoordinates,Original*%
%TF.FileFunction,Copper,L4,Bot*%
%TF.FilePolarity,Positive*%
%FSLAX45Y45*%
G04 Gerber Fmt 4.5, Leading zero omitted, Abs format (unit mm)*
G04 Created by KiCad (PCBNEW 9.0.4) date 2025-12-28 12:05:50*
%MOMM*%
%LPD*%
G01*
G04 APERTURE LIST*
%TA.AperFunction,ComponentPad*%
%ADD10C,1.208000*%
%TD*%
%TA.AperFunction,ComponentPad*%
%ADD11R,1.700000X1.700000*%
%TD*%
%TA.AperFunction,ComponentPad*%
%ADD12C,1.700000*%
%TD*%
%TA.AperFunction,ComponentPad*%
%ADD13C,0.650000*%
%TD*%
%TA.AperFunction,ComponentPad*%
%ADD14O,1.050000X2.100000*%
%TD*%
%TA.AperFunction,ComponentPad*%
%ADD15C,0.400000*%
%TD*%
%TA.AperFunction,ViaPad*%
%ADD16C,0.600000*%
%TD*%
%TA.AperFunction,ViaPad*%
%ADD17C,0.450000*%
%TD*%
%TA.AperFunction,ViaPad*%
%ADD18C,0.500000*%
%TD*%
%TA.AperFunction,ViaPad*%
%ADD19C,0.300000*%
%TD*%
%TA.AperFunction,Conductor*%
%ADD20C,0.300000*%
%TD*%
%TA.AperFunction,Conductor*%
%ADD21C,0.250000*%
%TD*%
G04 APERTURE END LIST*
D10*
%TO.P,MK1,GND*%
%TO.N,GND*%
X15263800Y-5454900D03*
%TO.P,MK1,OUT*%
%TO.N,Net-(C17-Pad2)*%
X15263800Y-5644900D03*
%TD*%
D11*
%TO.P,J4,1,Pin_1*%
%TO.N,+3.3V*%
X18121000Y-4472000D03*
D12*
%TO.P,J4,2,Pin_2*%
%TO.N,/ESP32-C3-02/SDA*%
X17867000Y-4472000D03*
%TO.P,J4,3,Pin_3*%
%TO.N,/ESP32-C3-02/SCL*%
X17613000Y-4472000D03*
%TO.P,J4,4,Pin_4*%
%TO.N,GND*%
X17359000Y-4472000D03*
%TD*%
D11*
%TO.P,J5,1,Pin_1*%
%TO.N,+3.3V*%
X16184000Y-4458000D03*
D12*
%TO.P,J5,2,Pin_2*%
%TO.N,/ESP32-C3-02/GPIO8*%
X15930000Y-4458000D03*
%TO.P,J5,3,Pin_3*%
%TO.N,/ESP32-C3-02/GPIO18*%
X15676000Y-4458000D03*
%TO.P,J5,4,Pin_4*%
%TO.N,/ESP32-C3-02/GPIO19*%
X15422000Y-4458000D03*
%TO.P,J5,5,Pin_5*%
%TO.N,GND*%
X15168000Y-4458000D03*
%TD*%
D13*
%TO.P,J1,B1,GNDB1*%
%TO.N,GND*%
X17450400Y-9013200D03*
%TO.P,J1,B2,SSTXP2*%
%TO.N,unconnected-(J1-SSTXP2-PadB2)*%
X17410400Y-9084200D03*
%TO.P,J1,B3,SSTXN2*%
%TO.N,unconnected-(J1-SSTXN2-PadB3)*%
X17330400Y-9084200D03*
%TO.P,J1,B4,VBUSB1*%
%TO.N,/VBUS*%
X17290400Y-9013200D03*
%TO.P,J1,B5,CC2*%
%TO.N,Net-(J1-CC2)*%
X17250400Y-9084200D03*
%TO.P,J1,B6,DP2*%
%TO.N,/USB_DP*%
X17210400Y-9013200D03*
%TO.P,J1,B7,DN2*%
%TO.N,/USB_DN*%
X17130400Y-9013200D03*
%TO.P,J1,B8,SBU2*%
%TO.N,unconnected-(J1-SBU2-PadB8)*%
X17090400Y-9084200D03*
%TO.P,J1,B9,VBUSB2*%
%TO.N,/VBUS*%
X17050400Y-9013200D03*
%TO.P,J1,B10,SSRXN1*%
%TO.N,unconnected-(J1-SSRXN1-PadB10)*%
X17010400Y-9084200D03*
%TO.P,J1,B11,SSRXP1*%
%TO.N,unconnected-(J1-SSRXP1-PadB11)*%
X16930400Y-9084200D03*
%TO.P,J1,B12,GNDB2*%
%TO.N,GND*%
X16890400Y-9013200D03*
%TO.P,J1,G1,GND/SHIELD*%
X17370400Y-9013200D03*
%TO.P,J1,G2,GND/SHIELD*%
X16970400Y-9013200D03*
D14*
%TO.P,J1,S1,GND/SHIELD*%
X16743400Y-9128200D03*
%TO.P,J1,S2,GND/SHIELD*%
X17597400Y-9128200D03*
%TO.P,J1,S3,GND/SHIELD*%
X16743400Y-9601200D03*
%TO.P,J1,S4,GND/SHIELD*%
X17597400Y-9601200D03*
%TD*%
D15*
%TO.P,U3,28,GND*%
%TO.N,GND*%
X22221000Y-5399050D03*
%TO.P,U3,29,GND*%
X22331000Y-5399050D03*
%TO.P,U3,30,GND*%
X22166000Y-5454050D03*
%TO.P,U3,31,GND*%
X22276000Y-5454050D03*
%TO.P,U3,32,GND*%
X22386000Y-5454050D03*
%TO.P,U3,33,GND*%
X22221000Y-5509050D03*
%TO.P,U3,34,GND*%
X22331000Y-5509050D03*
%TO.P,U3,35,GND*%
X22166000Y-5564050D03*
%TO.P,U3,36,GND*%
X22276000Y-5564050D03*
%TO.P,U3,37,GND*%
X22386000Y-5564050D03*
%TO.P,U3,38,GND*%
X22221000Y-5619050D03*
%TO.P,U3,39,GND*%
X22331000Y-5619050D03*
%TD*%
D16*
%TO.N,GND*%
X23266400Y-5448300D03*
D17*
X15036800Y-6159500D03*
X21704300Y-6056900D03*
D16*
X18059400Y-5994400D03*
D17*
X14747000Y-7384000D03*
X21120100Y-7188200D03*
X18796000Y-5969000D03*
D16*
X18910300Y-6426200D03*
D17*
X15887700Y-8656750D03*
X14877000Y-7386000D03*
X16840200Y-8750300D03*
X22618700Y-7188200D03*
X21844000Y-7213600D03*
X16497300Y-5054600D03*
X14545000Y-9831000D03*
X20561300Y-5232400D03*
X15281000Y-7620000D03*
X19202400Y-5181600D03*
X15400000Y-7770000D03*
X16624300Y-5664200D03*
X15684500Y-5397500D03*
X15470000Y-9071000D03*
X14544000Y-9967000D03*
X15276000Y-7496000D03*
X15659100Y-8663750D03*
X15417800Y-8663750D03*
X20294600Y-7150100D03*
X17170172Y-7935985D03*
X17602200Y-7772400D03*
X22733000Y-9740900D03*
X15029000Y-7384000D03*
X17092900Y-7759700D03*
X14545000Y-9897000D03*
X21501100Y-6642050D03*
X15281000Y-7770000D03*
D16*
X19329400Y-9283700D03*
D17*
X15875000Y-9766300D03*
X16052800Y-9131300D03*
X17843500Y-8128000D03*
X15400000Y-7618000D03*
X16357600Y-9220200D03*
X15201900Y-7391400D03*
D16*
X20167600Y-9715500D03*
D17*
X19024600Y-4864100D03*
X15379700Y-9156700D03*
D18*
%TO.N,/VBUS*%
X16767100Y-8013700D03*
X17170400Y-8394700D03*
X17250954Y-8471454D03*
X16767100Y-8204200D03*
X17005300Y-8712200D03*
X16767100Y-8102600D03*
%TO.N,+3.3V*%
X18910300Y-4470400D03*
X17399000Y-7556500D03*
X17945100Y-7480300D03*
X14503400Y-6591300D03*
X15506700Y-6172200D03*
D16*
X18262600Y-8877300D03*
D18*
X15646400Y-6172200D03*
X15925800Y-6172200D03*
X14554200Y-6934200D03*
X15786100Y-6172200D03*
X18592800Y-6426200D03*
X16662400Y-6718300D03*
X22047200Y-6858000D03*
X16395700Y-6743700D03*
X15379700Y-6172200D03*
X19100800Y-4851400D03*
X16484600Y-6057900D03*
X17945100Y-6743700D03*
X21094700Y-6832600D03*
X18897600Y-5181600D03*
X20586700Y-4991800D03*
X17005300Y-5067300D03*
X15227300Y-6172200D03*
X19532600Y-6032500D03*
X19367500Y-4876800D03*
%TO.N,/+5V_USB*%
X14859000Y-8072000D03*
X16192700Y-8203600D03*
X15443200Y-9804400D03*
X16189700Y-8014600D03*
X15762200Y-9575800D03*
X14528800Y-8072000D03*
X15697200Y-9575800D03*
X16190700Y-8107600D03*
X16002000Y-9366400D03*
X16002000Y-9226400D03*
%TO.N,/ESP32-C3-02/MIC_OUT*%
X22796500Y-4991100D03*
X17729200Y-5448300D03*
%TO.N,/ESP32-C3-02/BOOT*%
X19846100Y-8463900D03*
X21132800Y-6045200D03*
%TO.N,/ESP32-C3-02/EN*%
X21481741Y-5150159D03*
X19058700Y-8502000D03*
%TO.N,/ESP32-C3-02/SDA*%
X22059900Y-5316125D03*
X20420400Y-4931800D03*
%TO.N,/ESP32-C3-02/SCL*%
X22542500Y-4876800D03*
X20472400Y-4876800D03*
%TO.N,/ESP32-C3-02/GPIO19*%
X22853626Y-5581388D03*
%TO.N,/ESP32-C3-02/GPIO18*%
X22860000Y-5651500D03*
%TO.N,/ESP32-C3-02/GPIO8*%
X21463000Y-5685400D03*
%TO.N,/ESP32-C3-02/RTS*%
X19016400Y-8756000D03*
X19173000Y-8768700D03*
X16878300Y-7277100D03*
%TO.N,/ESP32-C3-02/DTR*%
X19011400Y-9010000D03*
X19338100Y-8806800D03*
%TO.N,Net-(J1-CC2)*%
X16827500Y-9334500D03*
%TO.N,Net-(J1-CC1)*%
X17090000Y-8623147D03*
X16649700Y-8712200D03*
%TO.N,/CHARGING_POWER_GOOD*%
X15824226Y-8953118D03*
X15149491Y-8891609D03*
%TO.N,/CHARGED*%
X15722600Y-8978900D03*
X15192700Y-9012481D03*
%TO.N,/CHARGING*%
X15887700Y-9042400D03*
X14732000Y-9080500D03*
D19*
%TO.N,/ESP32-C3-02/CS_SD*%
X22339300Y-6642100D03*
X21793200Y-5854700D03*
D18*
%TO.N,/ESP32-C3-02/PHOTO_C*%
X18402300Y-6210300D03*
X22898100Y-5067300D03*
X17627600Y-5994400D03*
%TO.N,/ESP32-C3-02/CS*%
X22898100Y-6089050D03*
X19939000Y-5740400D03*
%TO.N,/USB_DP*%
X17018000Y-8343900D03*
%TO.N,/USB_DN*%
X17348200Y-8318500D03*
%TO.N,/ESP32-C3-02/RX_TX*%
X22910800Y-5791200D03*
X16814800Y-7378700D03*
%TO.N,/ESP32-C3-02/TX_RX*%
X16814800Y-7451800D03*
X22820140Y-5941840D03*
%TO.N,Net-(C19-Pad2)*%
X16179800Y-5290900D03*
X16179800Y-5422900D03*
D19*
%TO.N,Net-(U1-OUT)*%
X16459200Y-8801100D03*
X15913100Y-9588500D03*
X16065500Y-9385300D03*
%TO.N,Net-(R17-Pad3)*%
X17208500Y-5778500D03*
X17018000Y-5524500D03*
%TD*%
D20*
%TO.N,/VBUS*%
X17170400Y-8394700D02*
X17174200Y-8394700D01*
X17174200Y-8394700D02*
X17250954Y-8471454D01*
%TO.N,/ESP32-C3-02/BOOT*%
X21183600Y-7353300D02*
X20073000Y-8463900D01*
X21183600Y-7353300D02*
X21183600Y-6096000D01*
X21183600Y-6096000D02*
X21132800Y-6045200D01*
X20073000Y-8463900D02*
X19846100Y-8463900D01*
%TO.N,/ESP32-C3-02/EN*%
X19883900Y-5717577D02*
X20451318Y-5150159D01*
X19883900Y-5782800D02*
X19883900Y-5717577D01*
X19037300Y-8480600D02*
X19058700Y-8502000D01*
X19037300Y-6629400D02*
X19883900Y-5782800D01*
X19037300Y-6629400D02*
X19037300Y-8480600D01*
X20451318Y-5150159D02*
X21481741Y-5150159D01*
%TO.N,/ESP32-C3-02/SDA*%
X22046700Y-5060388D02*
X22046700Y-5096388D01*
X21658250Y-4977938D02*
X21658250Y-4938938D01*
X21658250Y-4995938D02*
X21658250Y-4977938D01*
X22001700Y-5060388D02*
X22001700Y-4995388D01*
X21924557Y-5019245D02*
X21901250Y-4995938D01*
X21838250Y-5013938D02*
X21838250Y-4995938D01*
X21703250Y-4938938D02*
X21703250Y-4995938D01*
X21883250Y-5013938D02*
X21883250Y-5077938D01*
X22161500Y-5122800D02*
X22161500Y-5214525D01*
X22091700Y-5161388D02*
X22091700Y-5096388D01*
X21820250Y-4920938D02*
X21811250Y-4920938D01*
X21586250Y-4995938D02*
X21526500Y-4995938D01*
X22019700Y-4977388D02*
X22028700Y-4977388D01*
X22046700Y-4995388D02*
X22046700Y-5060388D01*
X21775250Y-5095938D02*
X21766250Y-5095938D01*
X22161500Y-5214525D02*
X22059900Y-5316125D01*
X21924557Y-5019245D02*
X21959912Y-5054600D01*
X21703250Y-4995938D02*
X21703250Y-5077938D01*
X22046700Y-5096388D02*
X22046700Y-5161388D01*
X21460750Y-4931800D02*
X20420400Y-4931800D01*
X21595250Y-4995938D02*
X21586250Y-4995938D01*
X21748250Y-5077938D02*
X21748250Y-4995938D01*
X21640250Y-4920938D02*
X21631250Y-4920938D01*
X22064700Y-5179388D02*
X22073700Y-5179388D01*
X21793250Y-4995938D02*
X21793250Y-5077938D01*
X21685250Y-5095938D02*
X21676250Y-5095938D01*
X22118700Y-5080000D02*
X22161500Y-5122800D01*
X22109700Y-5078388D02*
X22118700Y-5078388D01*
X21730250Y-4920938D02*
X21721250Y-4920938D01*
X21613250Y-4938938D02*
X21613250Y-4977938D01*
X21865250Y-5095938D02*
X21856250Y-5095938D01*
X21748250Y-4995938D02*
X21748250Y-4938938D01*
X21658250Y-5077938D02*
X21658250Y-4995938D01*
X21526500Y-4997550D02*
X21460750Y-4931800D01*
X21983700Y-5078388D02*
X21959913Y-5054600D01*
X21838250Y-5077938D02*
X21838250Y-5013938D01*
X21838250Y-4995938D02*
X21838250Y-4938938D01*
X21793250Y-4938938D02*
X21793250Y-4995938D01*
X21959913Y-5054600D02*
X21959912Y-5054600D01*
X21676250Y-5095938D02*
G75*
G02*
X21658253Y-5077938I0J17998D01*
G01*
X21748250Y-4938938D02*
G75*
G03*
X21730250Y-4920940I-18000J-3D01*
G01*
X22073700Y-5179388D02*
G75*
G03*
X22091698Y-5161388I0J17998D01*
G01*
X21983700Y-5078388D02*
G75*
G03*
X22001698Y-5060388I0J17998D01*
G01*
X21793250Y-5077938D02*
G75*
G02*
X21775250Y-5095940I-18000J-3D01*
G01*
X21811250Y-4920938D02*
G75*
G03*
X21793248Y-4938938I0J-18003D01*
G01*
X21766250Y-5095938D02*
G75*
G02*
X21748253Y-5077938I0J17998D01*
G01*
X22001700Y-4995388D02*
G75*
G02*
X22019700Y-4977390I18000J-3D01*
G01*
X21631250Y-4920938D02*
G75*
G03*
X21613248Y-4938938I0J-18003D01*
G01*
X22091700Y-5096388D02*
G75*
G02*
X22109700Y-5078390I18000J-3D01*
G01*
X21613250Y-4977938D02*
G75*
G02*
X21595250Y-4995940I-18000J-3D01*
G01*
X21856250Y-5095938D02*
G75*
G02*
X21838253Y-5077938I0J17998D01*
G01*
X22028700Y-4977388D02*
G75*
G02*
X22046703Y-4995388I0J-18003D01*
G01*
X21658250Y-4938938D02*
G75*
G03*
X21640250Y-4920940I-18000J-3D01*
G01*
X21703250Y-5077938D02*
G75*
G02*
X21685250Y-5095940I-18000J-3D01*
G01*
X21883250Y-5077938D02*
G75*
G02*
X21865250Y-5095940I-18000J-3D01*
G01*
X22046700Y-5161388D02*
G75*
G03*
X22064700Y-5179390I18000J-3D01*
G01*
X21901250Y-4995938D02*
G75*
G03*
X21883248Y-5013938I0J-18003D01*
G01*
X21721250Y-4920938D02*
G75*
G03*
X21703248Y-4938938I0J-18003D01*
G01*
X21838250Y-4938938D02*
G75*
G03*
X21820250Y-4920940I-18000J-3D01*
G01*
%TO.N,/ESP32-C3-02/SCL*%
X20472400Y-4876800D02*
X22542500Y-4876800D01*
%TO.N,/ESP32-C3-02/RTS*%
X17145000Y-7277100D02*
X17335500Y-7467600D01*
X19016400Y-8756000D02*
X19029100Y-8768700D01*
X16878300Y-7277100D02*
X17145000Y-7277100D01*
X17335500Y-7467600D02*
X17437100Y-7467600D01*
X19029100Y-8768700D02*
X19185700Y-8768700D01*
X18921800Y-8661400D02*
X19016400Y-8756000D01*
X18630900Y-8661400D02*
X18921800Y-8661400D01*
X17437100Y-7467600D02*
X18630900Y-8661400D01*
X19185700Y-8768700D02*
X19173000Y-8768700D01*
%TO.N,/ESP32-C3-02/DTR*%
X19338100Y-8806800D02*
X19134900Y-9010000D01*
X19134900Y-9010000D02*
X19011400Y-9010000D01*
%TO.N,Net-(J1-CC2)*%
X17000100Y-9334500D02*
X17250400Y-9084200D01*
X16827500Y-9334500D02*
X17000100Y-9334500D01*
%TO.N,Net-(J1-CC1)*%
X16738753Y-8623147D02*
X16649700Y-8712200D01*
X17090000Y-8623147D02*
X16738753Y-8623147D01*
%TO.N,/CHARGING_POWER_GOOD*%
X15210264Y-8952381D02*
X15533219Y-8952381D01*
X15671800Y-8813800D02*
X15773400Y-8813800D01*
X15149491Y-8891609D02*
X15210264Y-8952381D01*
X15824200Y-8864600D02*
X15824200Y-8953093D01*
X15773400Y-8813800D02*
X15824200Y-8864600D01*
X15533219Y-8952381D02*
X15671800Y-8813800D01*
X15824200Y-8953093D02*
X15824226Y-8953118D01*
%TO.N,/CHARGED*%
X15202700Y-9002481D02*
X15192700Y-9012481D01*
X15577552Y-8978900D02*
X15553971Y-9002481D01*
X15722600Y-8978900D02*
X15577552Y-8978900D01*
X15553971Y-9002481D02*
X15202700Y-9002481D01*
D21*
%TO.N,/ESP32-C3-02/CS_SD*%
X22339300Y-6400800D02*
X22339300Y-6642100D01*
X21793200Y-5854700D02*
X22339300Y-6400800D01*
D20*
%TO.N,/ESP32-C3-02/CS*%
X22898100Y-6089050D02*
X22802250Y-6089050D01*
X22802250Y-6089050D02*
X22453600Y-5740400D01*
X22453600Y-5740400D02*
X19939000Y-5740400D01*
%TO.N,/USB_DN*%
X17132300Y-8839200D02*
X17348200Y-8623300D01*
X17130400Y-8841100D02*
X17132300Y-8839200D01*
X17130400Y-9013200D02*
X17130400Y-8841100D01*
X17348200Y-8623300D02*
X17348200Y-8318500D01*
%TO.N,Net-(C19-Pad2)*%
X16179800Y-5422900D02*
X16179800Y-5290900D01*
D21*
%TO.N,Net-(U1-OUT)*%
X16167100Y-9588500D02*
X15913100Y-9588500D01*
X15913100Y-9537700D02*
X15913100Y-9588500D01*
X16459200Y-8801100D02*
X16459200Y-9296400D01*
X16459200Y-9296400D02*
X16167100Y-9588500D01*
X16065500Y-9385300D02*
X15913100Y-9537700D01*
%TO.N,Net-(R17-Pad3)*%
X17018000Y-5588000D02*
X17018000Y-5524500D01*
X17208500Y-5778500D02*
X17018000Y-5588000D01*
%TD*%
M02*
